DBRep_DrawableShape

CASCADE Topology V1, (c) Matra-Datavision
Locations 4
1
-0.130526192220079 0.991444861373807 -1.12012565155462e-14 -47.3487798260267 
0.991444861373807 0.130526192220079 -6.77614464018809e-15 -33.1173952020629 
-5.25611642238555e-15 -1.19898925710844e-14              -1 17.9751672486298 
2  1 -1 0
1
              1               0               0               0 
              0               1               0               0 
              0               0               1               0 
2  3 -1 0
Curve2ds 64
1 -2.5 0 0 -1 
1 74.099999999999994 20.999999999998902 0 -1 
8 19.008800977854268 23.508800977854268
1 -21.508800977854268 -28.024832751368386 1 -1.1989892571084436e-14 
8 19.008800977854268 23.508800977854268
1 19.015531090928121 20.348026294839087 0.99144486137380694 0.13052619222007872 
1 74.099999999999994 20.999999999998902 0 -1 
1 2 0 0 -1 
1 -2.5 -40.999999999998906 1 0 
1 0.10636957291220028 0 0 -1 
8 -79.793979621387905 28.310408951524188
1 45.895960621388006 -7.024832751369857 1 5.2561164223855467e-15 
8 -79.793979621387905 28.310408951524188
1 34.180343275983745 50.791922617057082 0.13052619222007872 -0.99144486137380694 
1 74.206369572912195 -20 -1 7.0000000000000003e-17 
1 0 0 1 0 
1 74.206369572912195 -24.5 0 1 
1 4.5 -24.5 0 1 
1 64.706369572912209 -24.5 1 -7.0000000000000003e-17 
1 -64.706369572912209 4.5 -1 -0 
1 11.527915421773701 -24.5 7.0000000000000003e-17 1 
1 0 0 -1 -0 
1 74.099999999999994 -20 1 -7.0000000000000003e-17 
1 -74.099999999999994 4.5 -1 -0 
1 -1.4000000000000001e-15 -20 7.0000000000000003e-17 1 
1 0 0 -1 -0 
7 0 0  2 3 2  -1.4000000000000001e-15 -16.059466978372498  -19.321925024248902 -12.963543947165101  -22.886721072047902 1.20745207200823 
 0 3 1 3
1 2.0000000000000001e-17 1 1 0 
8 -79.793979621387905 28.310408951524188
1 45.895960621388006 -7.0248327513699103 1 5.2561164223855467e-15 
8 -79.793979621387905 28.310408951524188
1 38.641845152165885 51.379290482047438 0.13052619222007872 -0.99144486137380694 
7 0 0  4 5 2  0.6659259741641117 0  0.66592597416411237 0.25000000000000383  0.66592597416411237 0.49999999999999262  0.6659259741641137 0.75000000000000433  0.66592597416411436 1 
 0 5 1 5
7 0 0  4 5 2  30.452194578240324 115.50118690459588  29.274853805358909 115.34618705133455  28.097513032477565 115.19118719807321  26.920172259596111 115.03618734481188  25.742831486714735 114.88118749155055 
 0 5 1 5
8 45.895960621388006 68.444114653232333
1 -45.895960621388006 -7.0248327513699138 1 -5.2561164223855467e-15 
8 45.895960621388006 68.444114653232333
1 38.889706367509334 51.41192203010246 -0.13052619222007872 0.99144486137380694 
8 22.38380097785414 22.63380097785414
1 -7.0248327513698836 22.63380097785414 -1.1989892571084436e-14 -1 
8 22.38380097785414 22.63380097785414
1 10.458915716465938 93.960932488885803 0.99144486137380694 0.13052619222007872 
1 74.206369572912195 -20 -1 7.0000000000000003e-17 
1 0 -4.5 1 0 
1 74.206369572912195 -24.5 0 -1 
1 0 -24.5 0 -1 
1 64.706369572912209 -24.5 -1 7.0000000000000003e-17 
1 -64.706369572912209 -0 1 0 
1 11.527915421773701 -24.5 7.0000000000000003e-17 1 
1 0 -4.5 -1 -0 
1 74.099999999999994 -20 -1 7.0000000000000003e-17 
1 -74.099999999999994 -0 1 0 
1 -1.4000000000000001e-15 -20 7.0000000000000003e-17 1 
1 0 -4.5 -1 -0 
1 -1.4000000000000001e-15 -20 7.0000000000000003e-17 1 
1 -20 0.25 1 0 
1 0 0 0 -1 
1 4.5 -20 -1 0 
1 -74.206369572912195 4.5 0 1 
1 4.5 -24.5 1 0 
1 0 0 0 1 
1 -11.527915421773702 4.5 0 1 
1 -11.527915421773702 4.5 0 1 
1 -4.5 0 0 1 
1 0 0 0 1 
1 0 4.5 0 1 
1 -3.9405330216275019 -4.75 0 1 
7 0 0  1 2 2  -4.9999999999999999e-17 0.052631578947368453  -4.0000000000000003e-17 1 
 0.25 2 4.75 2
1 -4.0000000000000003e-17 -3.0000000000000001e-17 1 0 
7 0 0  2 3 2  1.4000000000000001e-15 -16.059466978372498  19.321925024248902 -12.963543947165101  22.886721072047902 1.20745207200823 
 0 3 1 3
1 -16.059466978372498 0 0 1 
7 0 0  1 2 2  6.0000000000000001e-17 -3.0000000000000001e-17  2.0000000000000001e-17 0.05263157894736839 
 0 2 0.25 2
1 0 0 1 0 
1 0 0 -7.0000000000000003e-17 1 
Curves 32
1 -74.099999999999994 -4.5 20.999999999998902 0 0 -1 
1 -60.984468909071879 -109.65197370516091 25.000000000000004 0.99144486137380694 0.13052619222007872 -0 
1 -74.099999999999994 0 20.999999999998902 0 0 -1 
1 -74.099999999999994 -4.5 -20 0 1 0 
1 -45.819656724016255 -79.208077382942918 25 0.13052619222007872 -0.99144486137380694 0 
1 -74.206369572912195 -4.5 -20 1 0 7.0000000000000003e-17 
1 -74.206369572912195 -4.5 -24.5 0 0 1 
1 -64.706369572912209 -4.5 -24.5 -1 0 -7.0000000000000003e-17 
1 -11.527915421773701 -4.5 -24.5 -7.0000000000000003e-17 0 1 
1 -74.099999999999994 -4.5 -20 -1 0 -7.0000000000000003e-17 
1 1.4000000000000001e-15 -4.5 -20 -7.0000000000000003e-17 0 1 
7 0 0  2 3 2  1.4000000000000001e-15 -4.5 -16.059466978372498  19.321925024248902 -4.5 -12.963543947165101  22.886721072047902 -4.5 1.20745207200823 
 0 3 1 3
1 -41.358154847834115 -78.620709517952562 25 0.13052619222007872 -0.99144486137380694 0 
7 0 0  4 5 2  -49.547805421759676 -14.498813095404117 25  -50.725146194641091 -14.653812948665447 25  -51.902486967522435 -14.808812801926791 25  -53.079827740403886 -14.963812655188121 25  -54.257168513285265 -15.118812508449452 25 
 0 5 1 5
1 -41.110293632490666 -78.58807796989754 25 -0.13052619222007872 0.99144486137380694 0 
1 -69.541084283534062 -36.039067511114197 25 0.99144486137380694 0.13052619222007872 -0 
1 -74.206369572912195 0 -20 1 0 7.0000000000000003e-17 
1 -74.206369572912195 0 -24.5 0 0 -1 
1 -64.706369572912209 0 -24.5 1 0 7.0000000000000003e-17 
1 -11.527915421773701 0 -24.5 -7.0000000000000003e-17 0 1 
1 -74.099999999999994 0 -20 1 0 7.0000000000000003e-17 
1 1.4000000000000001e-15 0 -20 -7.0000000000000003e-17 0 1 
1 1.4000000000000001e-15 0 -20 -7.0000000000000003e-17 0 1 
1 -74.206369572912195 -4.5 -20 0 1 0 
1 -74.206369572912195 -4.5 -24.5 0 -1 0 
1 -11.527915421773701 -4.5 -24.5 0 -1 0 
1 -11.527915421773701 -4.5 -20 0 -1 0 
1 1.4000000000000001e-15 -4.5 -20 0 -1 0 
1 1.4000000000000001e-15 0.25 -16.059466978372498 0 -1 0 
7 0 0  2 3 2  1.4000000000000001e-15 0.25 -16.059466978372498  19.321925024248902 0.25 -12.963543947165101  22.886721072047902 0.25 1.20745207200823 
 0 3 1 3
1 1.13e-15 0.25 -16.059466978372498 0 -1 0 
1 0 0.25 0 -7.0000000000000003e-17 0 1 
Polygon3D 0
PolygonOnTriangulations 0
Surfaces 13
1 -74.099999999999994 -2 20.999999999998902 1 0 0 -0 1 0 0 -0 1 
1 0 -4.5 0 0 1 0 -1 0 0 0 -0 1 
1 -80 -130 25 0 0 1 1 0 -0 -0 1 0 
1 0 0 0 0 1 0 -1 0 0 0 -0 1 
1 -74.206369572912195 -4.5 -20 7.0000000000000003e-17 0 -1 1 0 7.0000000000000003e-17 0 -1 0 
1 -74.206369572912195 0 -6.7000000000000004e-16 -1 0 0 0 -1 0 0 0 1 
1 1.6200000000000001e-15 0 -24.5 7.0000000000000003e-17 0 -1 1 0 7.0000000000000003e-17 0 -1 0 
1 -11.527915421773701 -4.5 -24.5 -1 0 -7.0000000000000003e-17 7.0000000000000003e-17 0 -1 0 -1 -0 
1 1.4000000000000001e-15 0 -20 7.0000000000000003e-17 0 -1 1 0 7.0000000000000003e-17 0 -1 0 
1 1.4000000000000001e-15 -4.5 -20 -1 0 -7.0000000000000003e-17 7.0000000000000003e-17 0 -1 0 -1 -0 
9 0 0 0 0 3 1 4 2 2 2 1.4000000000000001e-15 0.25 -16.059466978372498  1.4000000000000001e-15 -4.5 -16.059466978372498  
12.3230494270131 0.25 -14.0849632740098  12.3230494270131 -4.5 -14.0849632740098  
19.8391007709611 0.25 -8.7318076145527002  19.8391007709611 -4.5 -8.7318076145527002  
22.548154031844 0.25 -1.0808400000000001e-12  22.548154031844 -4.5 -1.0808400000000001e-12  

0 4
0.95666317498497799 4

0 2
1 2

1 0 0.25 0 0 -1 0 1 0 0 -0 0 1 
1 0 0.25 0 1 0 7.0000000000000003e-17 -7.0000000000000003e-17 0 1 0 -1 0 
Triangulations 0

TShapes 82
Ve
1.50000007944109e-07
-42.1382908587009 -107.170827294852 25
0 0

0101101
*
Ve
1e-07
-74.1 -4.5 -20
0 0

0101101
*
Ed
 1e-07 1 1 0
1  1 0 28.0248327513686 40.9999999999989
2  1 1 0 28.0248327513686 40.9999999999989
2  2 2 0 28.0248327513686 40.9999999999989
0

0101000
+82 2 -81 4 *
Ve
1.50000016280579e-07
-37.6767889825187 -106.583459429862 25
0 0

0101101
*
Ed
 1.5e-07 1 1 0
1  2 0 19.0088009778543 23.5088009778543
2  3 1 1 19.0088009778543 23.5088009778543
2  4 3 0 19.0088009778543 23.5088009778543
0

0101000
+82 0 -79 0 *
Ve
1e-07
-74.1 0 -20
0 0

0101101
*
Ed
 1e-07 1 1 0
1  3 0 28.0248327513687 40.9999999999989
2  5 4 0 28.0248327513687 40.9999999999989
2  6 1 0 28.0248327513687 40.9999999999989
0

0101000
+79 2 -77 4 *
Ed
 1e-07 1 1 0
1  4 0 0 4.5
2  7 1 0 0 4.5
2  8 5 0 0 4.5
0

0101000
+81 4 -77 4 *
Wi

0101100
+80 1 -78 0 -76 1 +75 1 *
Fa
0  1e-07 1 1

0101000
+74 0 *
Ve
5.00000001913195e-06
-54.2571685132853 -15.1188125084494 25
0 0

0101101
*
Ed
 1.5e-07 1 1 0
1  5 0 -64.6422886147067 28.204039378612
2  9 2 1 -64.6422886147067 28.204039378612
2  10 3 0 -64.6422886147067 28.204039378612
0

0101000
+72 0 -82 0 *
Ve
1e-07
-74.2063695729122 -4.5 -20
0 0

0101101
*
Ed
 1e-07 1 1 0
1  6 0 0 0.1063695729122
2  11 2 0 0 0.1063695729122
2  12 5 0 0 0.1063695729122
0

0101000
+70 4 -81 4 *
Ve
1e-07
-74.2063695729122 -4.5 -24.5
0 0

0101101
*
Ed
 1e-07 1 1 0
1  7 0 0 4.5
2  13 2 0 0 4.5
2  14 6 0 0 4.5
0

0101000
+68 4 -70 4 *
Ve
1e-07
-11.5279154217737 -4.5 -24.5
0 0

0101101
*
Ed
 1e-07 1 1 0
1  8 0 -53.1784541511385 9.49999999999999
2  15 2 0 -53.1784541511385 9.49999999999999
2  16 7 0 -53.1784541511385 9.49999999999999
0

0101000
+66 4 -68 4 *
Ve
1e-07
-11.5279154217737 -4.5 -20
0 0

0101101
*
Ed
 1e-07 1 1 0
1  9 0 0 4.5
2  17 2 0 0 4.5
2  18 8 0 0 4.5
0

0101000
+66 4 -64 4 *
Ve
1e-07
1e-15 -4.5 -20
0 0

0101101
*
Ed
 1e-07 1 1 0
1  10 0 -74.1 -62.5720845782263
2  19 2 0 -74.1 -62.5720845782263
2  20 9 0 -74.1 -62.5720845782263
0

0101000
+62 4 -64 4 *
Ve
1e-07
1e-15 -4.5 -16.0594669783725
0 0

0101101
*
Ed
 1e-07 1 1 0
1  11 0 0 3.9405330216275
2  21 2 0 0 3.9405330216275
2  22 10 0 0 3.9405330216275
0

0101000
+62 4 -60 4 *
Ed
 1e-07 1 1 0
1  12 0 0 0.665925974164115
2  23 2 0 0 0.665925974164115
2  24 11 0 0 0.665925974164115
0

0101000
+60 4 -72 2 *
Wi

0101100
-71 0 -80 1 +69 1 +67 1 +65 1 -63 1 +61 1 -59 1 -58 1 *
Fa
0  1e-07 2 1

0101000
+57 0 *
Ve
1.50000022469334e-07
-47.3487798260266 -33.1173952020628 25
0 0

0101101
*
Ed
 1.5e-07 1 1 0
1  13 0 -45.895960621388 28.204039378612
2  25 4 1 -45.895960621388 28.204039378612
2  26 3 0 -45.895960621388 28.204039378612
0

0101000
+55 0 -79 0 *
Ve
5.00000000794411e-06
-49.5478054217597 -14.4988130954041 25
0 0

0101101
*
Ed
 5e-06 1 1 0
1  14 0 0 1
2  27 11 1 0 1
2  28 3 0 0 1
0

0101000
+53 0 -72 0 *
Ve
1.50000014210855e-07
-47.1009186106831 -33.0847636540078 25
0 0

0101101
*
Ed
 1.5e-07 1 1 0
1  15 0 45.895960621388 64.6422886147066
2  29 12 1 45.895960621388 64.6422886147066
2  30 3 0 45.895960621388 64.6422886147066
0

0101000
+51 0 -53 0 *
Ed
 1.5e-07 1 1 0
1  16 0 22.3838009778541 22.6338009778541
2  31 13 1 22.3838009778541 22.6338009778541
2  32 3 0 22.3838009778541 22.6338009778541
0

0101000
+55 0 -51 0 *
Wi

0101100
-54 0 +78 0 +71 0 +52 0 +50 0 +49 0 *
Fa
0  1e-07 3 0

0101000
+48 0 *
Ve
1e-07
-74.2063695729122 0 -20
0 0

0101101
*
Ed
 1e-07 1 1 0
1  17 0 0 0.1063695729122
2  33 4 0 0 0.1063695729122
2  34 5 0 0 0.1063695729122
0

0101000
+46 4 -77 4 *
Ve
1e-07
-74.2063695729122 0 -24.5
0 0

0101101
*
Ed
 1e-07 1 1 0
1  18 0 -4.5 0
2  35 4 0 -4.5 0
2  36 6 0 -4.5 0
0

0101000
+46 4 -44 4 *
Ve
1e-07
-11.5279154217737 0 -24.5
0 0

0101101
*
Ed
 1e-07 1 1 0
1  19 0 -9.49999999999999 53.1784541511385
2  37 4 0 -9.49999999999999 53.1784541511385
2  38 7 0 -9.49999999999999 53.1784541511385
0

0101000
+44 4 -42 4 *
Ve
1e-07
-11.5279154217737 0 -20
0 0

0101101
*
Ed
 1e-07 1 1 0
1  20 0 0 4.5
2  39 4 0 0 4.5
2  40 8 0 0 4.5
0

0101000
+42 4 -40 4 *
Ve
1e-07
1e-15 0 -20
0 0

0101101
*
Ed
 1e-07 1 1 0
1  21 0 62.5720845782263 74.1
2  41 4 0 62.5720845782263 74.1
2  42 9 0 62.5720845782263 74.1
0

0101000
+40 4 -38 4 *
Ve
1e-07
1e-15 0 -16.0594669783725
0 0

0101101
*
Ed
 1e-07 1 1 0
1  22 0 0 3.9405330216275
2  43 4 0 0 3.9405330216275
2  44 10 0 0 3.9405330216275
0

0101000
+38 4 -36 4 *
Ed
 1e-07 1 1 0
1  23 0 3.9405330216275 12.9751672486298
2  45 4 0 3.9405330216275 12.9751672486298
2  46 13 0 3.9405330216275 12.9751672486298
0

0101000
+36 4 -55 2 *
Wi

0101100
-54 0 -76 1 +45 1 -43 1 -41 1 -39 1 -37 1 -35 1 -34 1 *
Fa
0  1e-07 4 1

0101000
+33 0 *
Ed
 1e-07 1 1 0
1  24 0 0 4.5
2  47 5 0 0 4.5
2  48 6 0 0 4.5
0

0101000
+70 4 -46 4 *
Wi

0101100
+69 0 +75 0 -45 0 -31 0 *
Fa
0  1e-07 5 0

0111000
-30 0 *
Ed
 1e-07 1 1 0
1  25 0 -4.5 0
2  49 7 0 -4.5 0
2  50 6 0 -4.5 0
0

0101000
+44 4 -68 4 *
Wi

0101100
+67 0 +31 0 +43 0 +28 0 *
Fa
0  1e-07 6 0

0111000
+27 0 *
Ed
 1e-07 1 1 0
1  26 0 -4.5 0
2  51 8 0 -4.5 0
2  52 7 0 -4.5 0
0

0101000
+42 4 -66 4 *
Wi

0101100
+65 0 -28 0 +41 0 +25 0 *
Fa
0  1e-07 7 0

0111000
+24 0 *
Ed
 1e-07 1 1 0
1  27 0 -4.5 0
2  53 9 0 -4.5 0
2  54 8 0 -4.5 0
0

0101000
+40 4 -64 4 *
Wi

0101100
+22 0 -63 0 -25 0 +39 0 *
Fa
0  1e-07 8 0

0111000
-21 0 *
Ed
 1e-07 1 1 0
1  28 0 -4.5 0
2  55 10 0 -4.5 0
2  56 9 0 -4.5 0
0

0101000
+38 4 -62 4 *
Wi

0101100
-22 0 +37 0 +19 0 +61 0 *
Fa
0  1e-07 9 0

0111000
+18 0 *
Ed
 1e-07 1 1 0
1  29 0 0.25 4.75
2  57 10 0 0.25 4.75
2  58 11 0 0.25 4.75
0

0101000
+36 4 -60 4 *
Wi

0101100
+35 0 +16 0 -59 0 -19 0 *
Fa
0  1e-07 10 0

0111000
-15 0 *
Ve
1e-07
1e-15 0.25 -16.0594669783725
0 0

0101101
*
Ed
 1e-07 1 1 0
1  30 0 0 0.665925974164112
2  59 11 0 0 0.665925974164112
2  60 12 0 0 0.665925974164112
0

0101000
+13 4 -53 2 *
Ed
 1e-07 1 1 0
1  31 0 0 0.25
2  61 13 0 0 0.25
2  62 11 0 0 0.25
0

0101000
+13 4 -36 4 *
Wi

0101100
-58 1 +52 0 +12 1 -11 1 -16 1 *
Fa
0  1e-07 11 1

0101000
+10 0 *
Ed
 1e-07 1 1 0
1  32 0 -16.0594669783725 -7.02483275137016
2  63 13 0 -16.0594669783725 -7.02483275137016
2  64 12 0 -16.0594669783725 -7.02483275137016
0

0101000
+13 4 -51 2 *
Wi

0101100
-8 1 -50 0 +12 1 *
Fa
0  1e-07 12 1

0101000
+7 0 *
Wi

0101100
-34 1 -49 0 +8 1 -11 1 *
Fa
0  1e-07 13 1

0101000
+5 0 *
Sh

0101100
-73 0 -56 0 -47 0 +32 0 -29 1 +26 1 +23 1 -20 1 +17 1 -14 1 
+9 0 -6 0 -4 0 *
So

0100000
+3 0 *
Co

1100000
+2 0 *

+1 0 