DBRep_DrawableShape

CASCADE Topology V1, (c) Matra-Datavision
Locations 1
1
              1               0               0               0 
              0               1               0               0 
              0               0               1               0 
Curve2ds 8
1 0 -39.354680253401497 1 0 
7 0 0  1 2 2  0.99997283175133922 2.3782256023048896  0.99999909842677148 0.61726638939984479 
 0.13937952806000001 2 0.87232760187360003 2
1 6.2831853071795862 -39.354680253401497 0 1 
1 4.9650692355267676 0 0 -1 
7 0 0  1 2 2  -4.2644070651520001e-05 0.77170749866120958  -9.8749629815100008e-06 2.1457956498954105 
 0 2 0.884585881427984 2
7 0 0  3 47 45  0 2.1457968858632328  0.018058765939763431 2.1464051091241205  0.052329324158504532 2.1478094502906662  0.099037455111312039 2.1504053707400161  0.14197537467773452 2.1534170294501163  0.18177559651016076 2.156768639196188  0.2188523119967373 2.1603848308219291  0.25339150163564544 2.1641776170965605  0.28565540891042007 2.1681008747789421  0.31603107244708306 2.1721529893881675  0.344793462286625 2.1763223864370884  0.3721687392912334 2.1805995677284864  0.39833128391875389 2.1849737764461459  0.42341698218136004 2.189433824107573  0.44756529381689797 2.1939807389445352  0.47089477459482931 2.1986156055322303  0.49350602876801603 2.203339529313598  0.51548394951197685 2.2081535178104548  0.53690331999505703 2.2130589830448679  0.55781649279569934 2.2180554483051402  0.57825770303132862 2.2231404006309838  0.598258796911734 2.2283115447605804  0.61784655237849317 2.2335662885617387  0.63704411058109534 2.2389018724159642  0.6558712395485421 2.2443153025760787  0.6743576417364161 2.2498077649803063  0.69253002502261995 2.2553804719016708  0.71041247712675626 2.2610346424740722  0.72802674640038079 2.2667715071413825  0.74539249751207726 2.2725923056177733  0.76252753005739371 2.278498286503178  0.77944796895197832 2.284490706360832  0.79616842974942692 2.2905708288566138  0.81270216094783709 2.2967399237260446  0.82906117235113019 2.3029992658773804  0.84525632883585078 2.3093501336027451  0.86129744825722765 2.3157939429376375  0.87719356050955355 2.3223321193173212  0.89295295038632139 2.3289660958039802  0.90858321285847943 2.3356973119887567  0.92409129761844278 2.3425272125747565  0.93948354816961621 2.3494572458791851  0.95476574118771973 2.3564888622557718  0.96994310125283667 2.3636235121533566  0.98502038774217549 2.3708626449033905  0.99500792538305627 2.3757593510383574  0.99998641149628531 2.3782255993874997 
 0 4 0.00043698675855592998 1 0.00087397351711185995 1 0.0013109602756677999 1 0.0017479470342237301 1 0.0021849337927796601 1 0.0026219205513355898 1 0.00305890730989152 1 0.0034958940684474498 1 0.00393288082700339 1 0.0043698675855593202 1 0.0048068543441152503 1 0.0052438411026711797 1 0.0056808278612271099 1 0.0061178146197830496 1 0.0065548013783389798 1 0.00699178813689491 1 0.0074287748954508402 1 0.0078657616540067695 1 0.0083027484125626997 1 0.0087397351711186403 1 0.0091767219296745705 1 0.0096137086882305007 1 0.010050695446786429 1 0.010487682205342359 1 0.0109246689638983 1 0.01136165572245423 1 0.01179864248101016 1 0.012235629239566091 1 0.012672615998122021 1 0.01310960275667796 1 0.01354658951523389 1 0.01398357627378982 1 0.01442056303234575 1 0.01485754979090168 1 0.015294536549457619 1 0.015731523308013549 1 0.01616851006656948 1 0.01660549682512541 1 0.01704248358368134 1 0.01747947034223727 1 0.017916457100793211 1 0.018353443859349141 1 0.018790430617905071 1 0.019227417376461001 4
7 0 0  3 135 133  1 0.6173155341508989  0.99818293752609599 0.61798544311687131  0.99455170112752922 0.61931839350813989  0.9891137562986384 0.62129732017201078  0.98368496569966501 0.62325585150552631  0.97826557260252944 0.62519409147347982  0.97285581971330837 0.62711214421786732  0.96745594922335065 0.62901011404535012  0.96206620301425583 0.63088810536735984  0.95668682281719364 0.63274622265587321  0.95131805039859663 0.63458457039229743  0.9459601276836509 0.63640325303651368  0.94061329709969355 0.63820237493025289  0.9352778010996885 0.63998204045089058  0.92995388474284379 0.64174235323696527  0.92464178686393295 0.64348341888392835  0.91934177382787985 0.64520533469463315  0.91405401435177014 0.64690822774782308  0.90877904746893523 0.6485921126469244  0.90351567480274486 0.65025753229061334  0.89826094223312569 0.65190554358280484  0.893012247376055 0.65353707286332308  0.88776685784463671 0.65515306320982458  0.88252208676477673 0.65675442164023845  0.87727506676153522 0.65834208528507632  0.87202347248627088 0.6599168116329347  0.86676285016495469 0.66147995337139087  0.86149706001995996 0.66303042932608969  0.85625808002296255 0.66455919326972879  0.85107303912396293 0.66605882710818487  0.84597498700692042 0.66752043467553812  0.84097933797806812 0.66894034941479363  0.8359582864004933 0.67035469102297252  0.83079469101580439 0.67179563953454025  0.82536720123283858 0.67329571009726241  0.81955392868130172 0.67488643677695237  0.81347478009661078 0.67653273905033096  0.80725188720751762 0.67820002738659246  0.80100529211571014 0.67985526393653939  0.7948689070965953 0.68146286893150709  0.78882794573054182 0.68302767268729225  0.7828483569815422 0.68455931316933305  0.7769017553069606 0.68606568193776118  0.77095397925916387 0.68755590891502849  0.7650001755659912 0.68903131899423009  0.75904436434426914 0.69049095762469015  0.75308836038353288 0.69193445882501814  0.74713460633752959 0.69336131204594065  0.7411854104815685 0.69477105958583585  0.7352431720038437 0.69616323804065638  0.72931025161026841 0.69753741303036232  0.72338927332934189 0.69889309675414979  0.71748183515291586 0.70023010151706622  0.71158849415169512 0.70154853190239386  0.7057100479092846 0.70284843087849325  0.69984725863840702 0.7041298567160702  0.69400089973059353 0.70539286793895739  0.68817184954627619 0.7066375061947765  0.68236067382480448 0.70786387942096651  0.67656920638263485 0.70907184591761996  0.67079435303282753 0.71026225305965607  0.66501573758684607 0.71143929242122061  0.65921659982512149 0.71260630422338478  0.65337314769941679 0.71376789281779074  0.64748453597508315 0.71492399452007882  0.64179108792707751 0.71602857916564  0.63645962805832079 0.71705156430957584  0.63057061784211088 0.71816761612426183  0.62323473679077812 0.71953817415270438  0.61532316426649003 0.72099238811754962  0.60778592431205358 0.72235376364157022  0.60045937128976634 0.72365500356636048  0.59308950237091085 0.72494274771031197  0.58567532377801224 0.72621701299887187  0.57824193451526273 0.72747337157016467  0.57080749670263609 0.72870877525782185  0.56339550089574075 0.72991942918358443  0.55600827876322667 0.7311052558149107  0.54864175836897044 0.73226723356003309  0.54129340088878386 0.73340605599817887  0.53396016533156021 0.7345224754029378  0.5266390669637776 0.73561720893316085  0.51932695901796488 0.73669097343647816  0.51202082699817375 0.73774444300278519  0.50471680874454228 0.73877838677815588  0.49741454594292023 0.73979305793703209  0.49011735110443 0.74078820629413589  0.48282789090365424 0.7417636920134052  0.47554916277739445 0.74271934768174541  0.46828419365413793 0.74365502015221097  0.4610362979210591 0.74457053956341945  0.45380837551476844 0.74546579988843786  0.44660548921333948 0.74634046619306749  0.43942480371936365 0.74719511741159284  0.43223512127285368 0.74803340595720147  0.42501029915560723 0.74885824554964098  0.41771318093470078 0.7496735878008457  0.41033964401633383 0.75047960911233669  0.40324661379114568 0.75123931246242703  0.39669026201820995 0.75192841795972187  0.38929935358786982 0.75268718494962561  0.37971221890481305 0.75364563664920392  0.36922042809885108 0.75466336521083011  0.35928158740184124 0.7555948557962372  0.3496475549213624 0.75646769042174222  0.3399140195863749 0.75732123354768621  0.33008745148549123 0.75815481963959197  0.32022040680582931 0.75896388580703167  0.31035364373111229 0.75974518571964367  0.30054557657346997 0.76049437722846736  0.29077099102775017 0.76121356035241339  0.28097228770532573 0.76190689713516957  0.27110758517397426 0.76257728212135345  0.26108364036005227 0.76323038022054224  0.25109226206658219 0.76385508193931861  0.24181782916010494 0.76441465579285417  0.23256231794745777 0.76494920575811975  0.22097362894395323 0.76558252105877722  0.206926741428658 0.76630803734023023  0.19279443071338434 0.76698965157210552  0.17943332876959556 0.7675839095196646  0.16611450937602465 0.76813179178852897  0.15259171211096512 0.76864611199473809  0.13894294336263355 0.76912298130150591  0.12519753059103486 0.76956122827749684  0.11140543562715019 0.76995880315337895  0.097601384743448871 0.77031452763026431  0.083774340526419369 0.77062937059000403  0.069919053392257124 0.77090397792572063  0.056028272953520461 0.77113905061188848  0.042094913608095232 0.77133524480001037  0.02811159337530636 0.77149319911909264  0.014070878251889031 0.77161353087678031  0.0046672827113721296 0.77166906309886196  -4.6515816069259997e-05 0.77169075650341445 
 0 4 0.0075757575757575803 1 0.01515151515151515 1 0.022727272727272731 1 0.0303030303030303 1 0.03787878787878788 1 0.045454545454545463 1 0.053030303030303032 1 0.060606060606060608 1 0.068181818181818177 1 0.07575757575757576 1 0.083333333333333343 1 0.090909090909090912 1 0.098484848484848481 1 0.10606060606060606 1 0.11363636363636365 1 0.12121212121212122 1 0.12878787878787878 1 0.13636363636363635 1 0.14393939393939395 1 0.15151515151515152 1 0.15909090909090909 1 0.16666666666666669 1 0.17424242424242425 1 0.18181818181818182 1 0.18939393939393939 1 0.19696969696969696 1 0.20454545454545456 1 0.21212121212121213 1 0.2196969696969697 1 0.22727272727272729 1 0.23484848484848486 1 0.24242424242424243 1 0.25 1 0.25757575757575757 1 0.26515151515151514 1 0.27272727272727271 1 0.28030303030303033 1 0.2878787878787879 1 0.29545454545454547 1 0.30303030303030304 1 0.31060606060606061 1 0.31818181818181818 1 0.32575757575757575 1 0.33333333333333337 1 0.34090909090909094 1 0.34848484848484851 1 0.35606060606060608 1 0.36363636363636365 1 0.37121212121212122 1 0.37878787878787878 1 0.38636363636363635 1 0.39393939393939392 1 0.40151515151515155 1 0.40909090909090912 1 0.41666666666666669 1 0.42424242424242425 1 0.43181818181818182 1 0.43939393939393939 1 0.44696969696969696 1 0.45454545454545459 1 0.46212121212121215 1 0.46969696969696972 1 0.47727272727272729 1 0.48484848484848486 1 0.49242424242424243 1 0.5 1 0.50757575757575757 1 0.51515151515151514 1 0.52272727272727271 1 0.53030303030303028 1 0.53787878787878785 1 0.54545454545454541 1 0.55303030303030309 1 0.56060606060606066 1 0.56818181818181823 1 0.5757575757575758 1 0.58333333333333337 1 0.59090909090909094 1 0.59848484848484851 1 0.60606060606060608 1 0.61363636363636365 1 0.62121212121212122 1 0.62878787878787878 1 0.63636363636363635 1 0.64393939393939392 1 0.65151515151515149 1 0.65909090909090906 1 0.66666666666666674 1 0.67424242424242431 1 0.68181818181818188 1 0.68939393939393945 1 0.69696969696969702 1 0.70454545454545459 1 0.71212121212121215 1 0.71969696969696972 1 0.72727272727272729 1 0.73484848484848486 1 0.74242424242424243 1 0.75 1 0.75757575757575757 1 0.76515151515151514 1 0.77272727272727271 1 0.78030303030303028 1 0.78787878787878785 1 0.79545454545454553 1 0.80303030303030309 1 0.81060606060606066 1 0.81818181818181823 1 0.8257575757575758 1 0.83333333333333337 1 0.84090909090909094 1 0.84848484848484851 1 0.85606060606060608 1 0.86363636363636365 1 0.87121212121212122 1 0.87878787878787878 1 0.88636363636363635 1 0.89393939393939392 1 0.90151515151515149 1 0.90909090909090917 1 0.91666666666666674 1 0.92424242424242431 1 0.93181818181818188 1 0.93939393939393945 1 0.94696969696969702 1 0.95454545454545459 1 0.96212121212121215 1 0.96969696969696972 1 0.97727272727272729 1 0.98484848484848486 1 0.99242424242424243 1 1 4
7 0 0  3 135 133  6.2831853071795862 -14.766663670600096  6.2809581760562461 -14.722281048803163  6.2765034666873447 -14.633691260574873  6.2698204729393927 -14.501340300165396  6.2631369597439468 -14.369530417525171  6.2564533423354094 -14.238268968490127  6.2497700389153064 -14.107563308897408  6.243087470888848 -13.977420794579798  6.2364060624961759 -13.847848781386222  6.2297262405987039 -13.718854625105495  6.2230484344420356 -13.590445681750595  6.2163730753509867 -13.462629306498117  6.2097005967140371 -13.335412857645855  6.2030314328741509 -13.208803681843364  6.1963660221022678 -13.082809169211796  6.1897047943326626 -12.957436547634272  6.1830482157688174 -12.832693650474363  6.1763966212472567 -12.708586051411956  6.1697508387026314 -12.585127757381153  6.1631093740168668 -12.462293026667144  6.1564683997699685 -12.340016346634723  6.1498245746624232 -12.218240704717379  6.1431744024395121 -12.096906583678358  6.1365144685150517 -11.975955984893377  6.1298411431352919 -11.855327339958301  6.1231515406576618 -11.734971840976119  6.1164399878693212 -11.614793207801009  6.1097118475969436 -11.494883322529684  6.1030094972355888 -11.375963974809057  6.0963686363450353 -11.258642094105467  6.0898324885576667 -11.143652054423779  6.0834207234156246 -11.031326875438655  6.0769655142313006 -10.918811191013388  6.0703143325662365 -10.803512510155276  6.0633104096761246 -10.682767556765441  6.0557981436045658 -10.553933320025644  6.047934458781274 -10.419741697734812  6.0398775035235843 -10.282945426476335  6.0317811646924007 -10.146224163712104  6.0238146763265839 -10.01252904460542  6.0159583838553159 -9.8815184390129485  6.0081689406246799 -9.7524362856044053  6.0004105759780408 -9.6246579114233999  5.9926408978513459 -9.4974408741681362  5.9848542466310901 -9.3706871689805737  5.9770559004041841 -9.2444912506639003  5.9692483700935277 -9.1188990224051665  5.9614348982704648 -8.9939694211738122  5.9536185144507527 -8.8697578004257949  5.945802302879458 -8.7463208138886888  5.9379892639504259 -8.6237134977170591  5.9301825887385657 -8.501996058085874  5.9223844877330594 -8.381204632634935  5.9145962237469858 -8.2613513245118479  5.9068192783879629 -8.1424533047559251  5.8990551028416345 -8.0245265013052212  5.8913051432064565 -7.9075867466110985  5.8835709821685143 -7.7916514981729161  5.8758537407361082 -7.676731808784778  5.868156323382169 -7.5628627250138045  5.8604746118048245 -7.4499840678411697  5.8527802802458719 -7.3377082877204902  5.8450505020068597 -7.2257235709991461  5.8372530997504395 -7.1135898405997571  5.8293882115670117 -7.0013128658094681  5.8217847132118461 -6.8934264993587444  5.8146643931638859 -6.7929841077853466  5.8067782210925518 -6.6827627055115011  5.7969463511571071 -6.5465025816094009  5.7863511382239166 -6.4008361112816177  5.7762443077438332 -6.263378284095829  5.7664025926254547 -6.1309943738373072  5.7564953894768882 -5.9990317825175365  5.7465238851856624 -5.8675026216180539  5.7365219688793019 -5.7368795252765468  5.7265139657128472 -5.6075011667174737  5.716530175451723 -5.4797903302850663  5.7065733274042687 -5.3537893463182016  5.6966380967974093 -5.2294292480861602  5.6867211890105711 -5.1066691399140165  5.6768187630785336 -4.9854605474755589  5.6669271499352174 -4.8657572399938882  5.6570425752722686 -4.7475115911461048  5.6471615689585999 -4.6306793132441157  5.6372796234644431 -4.5152041596064398  5.6273971999570591 -4.4010860768711826  5.617519741207599 -4.2883812049462797  5.6076516647020105 -4.1771337248957767  5.5977977080603374 -4.0673911558699833  5.5879624946474289 -3.9591996235183529  5.578150895739455 -3.8526074894071489  5.5683669863031966 -3.7476555649364123  5.5586178299954696 -3.644412626254248  5.5488986524645476 -3.5428365742022336  5.5391640744018353 -3.4425063019620281  5.5293776117450646 -3.3430844857484208  5.5194882606654048 -3.2441003823308208  5.5094947527608147 -3.1455418970749025  5.4999011876932942 -3.0520423001821158  5.4910479007546753 -2.966723605031008  5.4810246537725016 -2.8720429400242424  5.4680264470795485 -2.7514405326585218  5.4538597181143764 -2.6222093663516333  5.4404367029140301 -2.5026652201503161  5.4274047086298713 -2.389472870485438  5.4142444050161842 -2.2776971124799581  5.400974576354125 -2.167464583077205  5.3876685729606146 -2.0594114111714843  5.3743814367565488 -1.9540098203412453  5.3611877851376493 -1.8518877302416938  5.3480456421850109 -1.752794532109921  5.3348726232744985 -1.6561855305080135  5.3216128062233468 -1.5616902539806581  5.3081416711240399 -1.4685198792459682  5.2947472027169935 -1.3783745948735  5.2823779010991627 -1.2968548059498781  5.2700088441901878 -1.2179751773374661  5.2544632918082366 -1.1229624770696551  5.2357344510566257 -1.0124165128691813  5.21698333454672 -0.90652911568615691  5.1992310549269396 -0.81192247331207001  5.181548785491751 -0.72261342651084015  5.1636514221588712 -0.63676017968654464  5.1456422198787672 -0.55502458571143876  5.1275611476102005 -0.47766245399647878  5.1094683816422553 -0.40506292973383223  5.0914029678726136 -0.3374817815898446  5.0733525316570178 -0.2748396481993417  5.0553117749606677 -0.21710300217860865  5.0372735597671205 -0.16422603496407312  5.0192313135578539 -0.11616622873021916  5.0011784055048496 -0.072880183879161897  4.9831083176682789 -0.03432473716439375  4.9710458831072399 -0.01174602019233756  4.9650096680881095 -0.00123068879930344 
 0 4 0.0075757575757575803 1 0.01515151515151515 1 0.022727272727272731 1 0.0303030303030303 1 0.03787878787878788 1 0.045454545454545463 1 0.053030303030303032 1 0.060606060606060608 1 0.068181818181818177 1 0.07575757575757576 1 0.083333333333333343 1 0.090909090909090912 1 0.098484848484848481 1 0.10606060606060606 1 0.11363636363636365 1 0.12121212121212122 1 0.12878787878787878 1 0.13636363636363635 1 0.14393939393939395 1 0.15151515151515152 1 0.15909090909090909 1 0.16666666666666669 1 0.17424242424242425 1 0.18181818181818182 1 0.18939393939393939 1 0.19696969696969696 1 0.20454545454545456 1 0.21212121212121213 1 0.2196969696969697 1 0.22727272727272729 1 0.23484848484848486 1 0.24242424242424243 1 0.25 1 0.25757575757575757 1 0.26515151515151514 1 0.27272727272727271 1 0.28030303030303033 1 0.2878787878787879 1 0.29545454545454547 1 0.30303030303030304 1 0.31060606060606061 1 0.31818181818181818 1 0.32575757575757575 1 0.33333333333333337 1 0.34090909090909094 1 0.34848484848484851 1 0.35606060606060608 1 0.36363636363636365 1 0.37121212121212122 1 0.37878787878787878 1 0.38636363636363635 1 0.39393939393939392 1 0.40151515151515155 1 0.40909090909090912 1 0.41666666666666669 1 0.42424242424242425 1 0.43181818181818182 1 0.43939393939393939 1 0.44696969696969696 1 0.45454545454545459 1 0.46212121212121215 1 0.46969696969696972 1 0.47727272727272729 1 0.48484848484848486 1 0.49242424242424243 1 0.5 1 0.50757575757575757 1 0.51515151515151514 1 0.52272727272727271 1 0.53030303030303028 1 0.53787878787878785 1 0.54545454545454541 1 0.55303030303030309 1 0.56060606060606066 1 0.56818181818181823 1 0.5757575757575758 1 0.58333333333333337 1 0.59090909090909094 1 0.59848484848484851 1 0.60606060606060608 1 0.61363636363636365 1 0.62121212121212122 1 0.62878787878787878 1 0.63636363636363635 1 0.64393939393939392 1 0.65151515151515149 1 0.65909090909090906 1 0.66666666666666674 1 0.67424242424242431 1 0.68181818181818188 1 0.68939393939393945 1 0.69696969696969702 1 0.70454545454545459 1 0.71212121212121215 1 0.71969696969696972 1 0.72727272727272729 1 0.73484848484848486 1 0.74242424242424243 1 0.75 1 0.75757575757575757 1 0.76515151515151514 1 0.77272727272727271 1 0.78030303030303028 1 0.78787878787878785 1 0.79545454545454553 1 0.80303030303030309 1 0.81060606060606066 1 0.81818181818181823 1 0.8257575757575758 1 0.83333333333333337 1 0.84090909090909094 1 0.84848484848484851 1 0.85606060606060608 1 0.86363636363636365 1 0.87121212121212122 1 0.87878787878787878 1 0.88636363636363635 1 0.89393939393939392 1 0.90151515151515149 1 0.90909090909090917 1 0.91666666666666674 1 0.92424242424242431 1 0.93181818181818188 1 0.93939393939393945 1 0.94696969696969702 1 0.95454545454545459 1 0.96212121212121215 1 0.96969696969696972 1 0.97727272727272729 1 0.98484848484848486 1 0.99242424242424243 1 1 4
Curves 12
1 0 0 0 1 0 0 
1 71.137786161391389 -4.5 0 0 1 0 
1 0 -4.5 0 1 0 0 
2 5.8094750193111295 1.5 0 0 0 1 0 -1 0 1 0 -0 6
1 71.137786161391389 -4.5 100 0 0 -1 
7 0 0  3 16 14  71.13798384506741 -4.5 29.367369212570502  68.9742348490891 -4.5 31.6306779439042  65.409932405688409 -4.5 34.620099769541206  59.9846602660906 -4.5 37.815789781655099  55.736208719411103 -4.5 39.726379987161103  51.2868046904563 -4.5 41.1606100472791  46.669629564158207 -4.5 42.108729514001496  42.0432960496207 -4.5 42.536600996572602  35.764121186895899 -4.5 42.420685570107601  29.645103635442002 -4.5 41.292150140518096  23.7321863243934 -4.5 39.145489143290199  19.5540104916122 -4.5 37.086640510371502  15.6135772378751 -4.5 34.567878023277096  10.719116458560199 -4.5 30.6277136985941  7.6285410367266397 -4.5 27.150264079074798  5.8082514394544695 -4.5 24.5863251077356 
 0.13937952806000001 4 0.23099803728669999 1 0.27680729190004999 1 0.32261654651339999 1 0.36842580112675 1 0.4142350557401 1 0.46004431035345 1 0.50585356496680001 1 0.59747207419350001 1 0.64328132880684996 1 0.68909058342020002 1 0.73489983803354997 1 0.78070909264690003 1 0.87232760187360003 4
1 5.8094750193111198 -4.5 0 0 0 1 
1 71.137786161391389 0 100 0 0 -1 
1 0 0 39.354680253401497 0 0 -1 
7 0 0  3 8 6  1.4765869777000001e-07 0 39.354680405159399  2.2600898817939199 0 41.677512127137597  7.1521044083921304 0 45.907882771941601  18.271750607884801 0 52.6016777122381  34.006999330451698 0 57.1954160735364  53.6588362594401 0 56.016987850976705  65.705095724175294 0 50.8785655814103  71.137844725916494 0 47.358820428323902 
 0 4 0.110573235178498 1 0.221146470356996 1 0.442292940713992 1 0.66343941107098803 1 0.884585881427984 4
7 0 0  3 9 7  71.137786162948899 -6.5149228000000001e-10 47.358601741855395  71.137786162948899 -0.739267100627231 47.011457230596797  71.137786160668497 -1.80145517235098 45.7384378746249  71.137786161584913 -2.7763113449197401 43.5360404909434  71.137786161340699 -3.4271436779222899 41.248509524579404  71.137786161420593 -4.0304950040753003 38.104311880258798  71.137786161380802 -4.4192223872059193 34.1459475875725  71.137786161391389 -4.4999933018072698 30.962142847658701  71.137786161391389 -4.4999999991690798 29.367180224718499 
 0 4 0.00240342717205762 1 0.0048068543441152399 1 0.0072102815161728699 1 0.0096137086882304903 1 0.0144205630323457 1 0.019227417376461001 4
7 0 0  3 32 30  5.80947501931115 -4.5 24.588016582801401  5.5889890069855497 -4.5 25.320329842450899  5.2577136778323608 -4.4815206396551304 26.382973939463799  4.8787129232247199 -4.4292549667109604 27.545573789794002  4.6590995629154106 -4.3893516267164401 28.2043949160756  4.5085770740694304 -4.3582058669052302 28.650315351504098  4.3085944267435607 -4.3104502782226 29.233909141074299  4.0626818324755005 -4.2425056996947799 29.9394461313899  3.7552246656902399 -4.1418846557252795 30.802165153536599  3.4574780028065004 -4.0222779119088194 31.612998818000996  3.2564670963117304 -3.9304657692329701 32.149382676171903  3.1391083719752997 -3.8732187185122999 32.459109767591301  3.06342929513385 -3.8351083449262 32.657738804510799  2.9444361887725599 -3.7723323314409201 32.967479023333695  2.8032839318985201 -3.6936362711406701 33.331180382518106  2.55408938097667 -3.5448699953159299 33.9649691954993  2.2177824287766099 -3.3145461083555299 34.796894299825503  1.9008712684547 -3.0570706786872797 35.552752649728404  1.69501117512291 -2.8685128829062698 36.030438476872696  1.5761965446125801 -2.7523942074395298 36.301820531191204  1.5026502392696799 -2.67832042129141 36.468520237297795  1.37869619305461 -2.54707410963336 36.745844142240102  1.2368911824206199 -2.3872724832905501 37.057838893854701  1.06138619919857 -2.1730193191826799 37.4354242705679  0.90266683104590695 -1.9563498663408503 37.765728989191899  0.77780125858319393 -1.7693684272982402 38.018072011326602  0.70150032037459198 -1.64983898823251 38.169924344257403  0.57769415405817703 -1.4407221378187001 38.4096963970402  0.44090920643298803 -1.1858427915386001 38.6646319230234  0.21776526481046099 -0.71173378982337399 39.057547551875096  0.0745914705106481 -0.28896267361649103 39.2666980806097  -8.9340851110349999e-05 0.00034605820785892002 39.353449564602194 
 0 4 0.125 1 0.1875 1 0.21875 1 0.25 1 0.28125 1 0.3125 1 0.375 1 0.4375 1 0.46875 1 0.484375 1 0.5 1 0.515625 1 0.53125 1 0.5625 1 0.625 1 0.6875 1 0.71875 1 0.734375 1 0.75 1 0.765625 1 0.78125 1 0.8125 1 0.84375 1 0.859375 1 0.875 1 0.890625 1 0.90625 1 0.9375 1 1 4
Polygon3D 0
PolygonOnTriangulations 0
Surfaces 6
1 0 -4.5 0 0 0 1 0 -1 0 1 0 -0 
1 40.447199510031702 0 0 0 1 0 -1 0 0 0 -0 1 
1 71.137786161391389 -4.5 100 -1 0 0 0 -1 0 0 0 1 
1 40.447199510031702 -4.5 0 0 1 0 -1 0 0 0 -0 1 
2 5.8094750193111295 1.5 39.354680253401497 0 0 1 0 -1 0 1 0 -0 6
9 0 1 0 0 2 3 3 18 2 9 -10.883490171902901 3.6711899999999998e-12 23.447857054353797  1 -10.162870871224801 1.69878e-12 25.0264884664305  1 -9.3695753485560207 1.7299999999999999e-15 26.5719289417993  1 -5.4140131391302093 1.7299999999999999e-15 33.468531827815099  1 -1.42386284546752 -1.97719e-12 38.343286056202203  1 7.92390686027976 1.9806600000000002e-12 46.536317898810402  1 13.2796795499764 3.9561100000000002e-12 49.852976917983398  1 24.779797501914 -3.95958e-12 54.570376237274196  1 30.921870829181099 1.9780600000000002e-12 55.9701845796776  1 43.330395407597806 -1.97979e-12 56.701681013718598  1 49.594395261191899 -9.8972200000000005e-12 56.033224592696698  1 61.569124566430801 9.8920200000000005e-12 52.6996938347257  1 67.277488319887595 9.8954900000000003e-12 50.035278061974402  1 77.523143100918006 -9.8937500000000007e-12 42.997300557289101  1 82.058410021927102 -1.9780600000000002e-12 38.625129230822601  1 86.47920815296429 3.8372e-13 32.669048909692705  1 87.164671991557995 2.5730000000000001e-14 31.680487275648698  1 87.817854143520407 -6.8613000000000003e-13 30.671041874722199  1 
-9.2703401789843607 -4.4999999999982698 22.710970200201597  0.82663978450914999 -8.5723675060253708 -4.4999999999984004 24.239990565417401  0.82663978450914999 -7.80400257896593 -4.4999999999988907 25.7368630728254  0.82663978450914999 -3.9727503133582602 -4.5000000000039497 32.416729052217903  0.82663978450914999 -0.10799695002141799 -4.4999999999980203 37.138286240052601  0.82663978450914999 8.9460039650064012 -4.5000000000019797 45.073838798016197  0.82663978450914999 14.133462830560001 -4.4999999999999902 48.286266440088298  0.82663978450914999 25.272170964940997 -4.4999999999999902 52.8554138514993  0.82663978450914999 31.221219698045299 -4.5000000000039497 54.211230951388096  0.82663978450914999 43.239786310567801 -4.4999999999960405 54.919738926208204  0.82663978450914999 49.3069298315867 -4.4999999999999902 54.272289829980799  0.82663978450914999 60.905333889428803 -4.4999999999999902 51.043520670823  0.82663978450914999 66.434303073962496 -4.4999999999999902 48.462838475599398  0.82663978450914999 76.357971572692193 -4.4999999999999902 41.646040803745798  0.82663978450914999 80.750710391196307 -4.4999999999999902 37.411272036788795  0.82663978450914999 85.032577786677905 -4.4999999999999902 31.642371178616298  0.82663978450914999 85.6964998148365 -4.4999999999999201 30.684876693733301  0.82663978450914999 86.329154660606605 -4.4999999999998099 29.707154748137999  0.82663978450914999 
1.8098819945750799 -4.5 17.649525141389201  1 2.3523020731015101 -4.5 18.837782760490402  1 2.9494265454768103 -4.5 20.001057104124499  1 5.92683273239924 -4.5 25.1922251389928  1 8.9302738469868892 -4.5 28.8615198260316  1 15.966468926760301 -4.5 35.0285278027267  1 19.997832838592601 -4.5 37.525022753553003  1 28.6541301049403 -4.5 41.075874232018599  1 33.277353342736596 -4.5 42.129529262202801  1 42.617420795647298 -4.5 42.680136708888604  1 47.332419810090705 -4.5 42.176980348756501  1 56.345963582715406 -4.5 39.667785807597198  1 60.642727647311396 -4.5 37.6622433369294  1 68.354773197095497 -4.5 32.364660678330601  1 71.768531109368098 -4.5 29.073667067681999  1 75.09612678593119 -4.5 24.590443328796102  1 75.612084863668102 -4.5 23.846339363413499  1 76.103744071002211 -4.5 23.086515898898398  1 

0 3
1 3

0.428491561776423 4
0.52074558824058004 2
0.851134843294162 2
1.18152409834774 2
1.51191335340133 2
1.8423026084549099 2
2.17269186350849 2
2.5030811185620698 2
2.56700042992831 4

Triangulations 0

TShapes 34
Ve
0.000795823798736
0 0 0
0 0

0101101
*
Ve
1e-07
71.1377861613914 0 0
0 0

0101101
*
Ed
 1e-07 1 1 0
1  1 0 0 71.1377861613914
4 C0 1 0 2 0
0

0101000
+34 0 -33 0 *
Ve
1e-07
71.1377861613914 -4.5 0
0 0

0101101
*
Ed
 1e-07 1 1 0
1  2 0 0 4.5
4 C0 1 0 3 0
0

0101000
+31 0 -33 0 *
Ve
1e-07
5.80947501931113 -4.5 0
0 0

0101101
*
Ed
 1e-07 1 1 0
1  3 0 5.80947501931113 71.1377861613914
4 C0 1 0 4 0
0

0101000
+29 0 -31 0 *
Ed
 1e-07 1 1 0
1  4 0 4.96506923552677 6.28318530717959
2  1 5 0 4.96506923552677 6.28318530717959
4 C0 1 0 5 0
0

0101000
+34 0 -29 0 *
Wi

0101100
+32 0 -30 0 -28 0 -27 0 *
Fa
0  1e-07 1 0

0111000
-26 0 *
Ve
0.013910338162732
71.1377861613914 -4.5 29.3671802247185
0 0

0101101
*
Ed
 1e-07 1 1 0
1  5 0 70.6328197752815 100
4 C0 4 0 3 0
0

0101000
+24 0 -31 0 *
Ve
0.013910338162732
5.8082588421266 -4.5 24.5863198521475
0 0

0101101
*
Ed
 0.013910338162732 1 1 0
1  6 0 0.13937952806 0.8723276018736
2  2 6 0 0.13937952806 0.8723276018736
4 G1 4 0 6 0
0

0101000
-22 0 +24 0 *
Ed
 1e-07 1 1 0
1  7 0 0 24.5863198521475
2  3 5 0 0 24.5863198521475
4 G1 4 0 5 0
0

0101000
+29 0 -22 0 *
Wi

0101100
+28 0 -23 0 +21 0 -20 0 *
Fa
0  1e-07 4 0

0111000
-19 0 *
Ve
0.005451732670689
71.1377861712254 1.11e-12 47.3587300487862
0 0

0101101
*
Ed
 1e-07 1 1 0
1  8 0 52.6412699512138 100
4 C0 2 0 3 0
0

0101000
+17 0 -33 0 *
Ve
0.005451732670689
0 0.001180529856291 39.3546804011156
0 0

0101101
*
Ed
 0.000795823798736 1 1 0
1  9 0 -1.47714104e-07 39.3546802534015
2  4 5 0 -1.47714104e-07 39.3546802534015
4 C0 2 0 5 0
0

0101000
+15 0 -34 0 *
Ed
 0.005451732670689 1 1 0
1  10 0 0 0.884585881427984
2  5 6 0 0 0.884585881427984
4 C0 2 0 6 0
0

0101000
+15 0 -17 0 *
Wi

0101100
+16 0 -32 0 -14 0 +13 0 *
Fa
0  1e-07 2 0

0111000
+12 0 *
Ed
 0.004952867042398 1 1 0
1  11 0 0 0.019227417376461
2  6 6 0 0 0.019227417376461
4 C0 6 0 3 0
0

0101000
-24 0 +17 0 *
Ed
 0.000194257507582 1 1 0
1  12 0 0 1
2  7 6 0 0 1
2  8 5 0 0 1
4 C0 6 0 5 0
0

0101000
+22 0 -15 0 *
Wi

0101100
-10 0 -13 0 -9 0 -21 0 *
Fa
0  1e-07 6 0

0111000
+8 0 *
Wi

0101100
+9 0 +14 0 +27 0 +20 0 *
Fa
0  1e-07 5 0

0111000
+6 0 *
Wi

0101100
+10 0 +23 0 +30 0 -16 0 *
Fa
0  1e-07 3 0

0111000
-4 0 *
Sh

0101100
-25 0 -18 0 +11 0 +7 0 +5 0 -3 0 *
So

0100000
+2 0 *

+1 1 