ISO-10303-21;
HEADER;
/* Generated by software containing ST-Developer
 * from STEP Tools, Inc. (www.steptools.com) 
 */
/* OPTION: using custom renumber hook */

FILE_DESCRIPTION(
/* description */ ('STEP AP242 Edition 2',
'CAx-IF Rec.Pracs.---Representation and Presentation of Product Manufa
cturing Information (PMI)---4.0---2014-10-13',
'CAx-IF Rec.Pracs.---3D Tessellated Geometry---0.4---2014-09-14','2;1',
'CAx-IF Rec.Pracs.---User Defined Attributes---1.5---2016-08-15'),
/* implementation_level */ '2;1');

FILE_NAME(
/* name */ 'Robotic Hand_V5_simulacra - Metacarpal Bone_V02 (1)',
/* time_stamp */ '2026-09-25T22:15:31Z',
/* author */ (''),
/* organization */ (''),
/* preprocessor_version */ 'ST-DEVELOPER v20',
/* originating_system */ 'ONSHAPE BY PTC INC, 1.221',
/* authorisation */ '  ');

FILE_SCHEMA (('AP242_MANAGED_MODEL_BASED_3D_ENGINEERING_MIM_LF { 1 0 10303 442 3 1 4 }'));
ENDSEC;

DATA;
#10=SHAPE_REPRESENTATION_RELATIONSHIP('','',#425,#11);
#11=ADVANCED_BREP_SHAPE_REPRESENTATION('',(#423),#739);
#12=PLANE('',#431);
#13=PLANE('',#434);
#14=PLANE('',#437);
#15=PLANE('',#440);
#16=PLANE('',#453);
#17=PLANE('',#456);
#18=PLANE('',#459);
#19=PLANE('',#460);
#20=PLANE('',#461);
#21=PLANE('',#463);
#22=B_SPLINE_CURVE_WITH_KNOTS('',3,(#592,#593,#594,#595,#596),
 .UNSPECIFIED.,.F.,.F.,(4,1,4),(0.,0.00325336528627955,0.00650673057255909),
 .UNSPECIFIED.);
#23=B_SPLINE_CURVE_WITH_KNOTS('',3,(#605,#606,#607,#608,#609),
 .UNSPECIFIED.,.F.,.F.,(4,1,4),(0.,0.00325336528627955,0.00650673057255909),
 .UNSPECIFIED.);
#24=B_SPLINE_CURVE_WITH_KNOTS('',3,(#663,#664,#665,#666,#667),
 .UNSPECIFIED.,.F.,.F.,(4,1,4),(3.99234171746712E-17,0.00325336528627959,
0.00650673057255914),.UNSPECIFIED.);
#25=B_SPLINE_CURVE_WITH_KNOTS('',3,(#668,#669,#670,#671,#672),
 .UNSPECIFIED.,.F.,.F.,(4,1,4),(3.81269371180124E-17,0.00325336528627956,
0.00650673057255909),.UNSPECIFIED.);
#26=B_SPLINE_CURVE_WITH_KNOTS('',3,(#682,#683,#684,#685,#686),
 .UNSPECIFIED.,.F.,.F.,(4,1,4),(3.99234171746712E-17,0.00325336528627959,
0.00650673057255913),.UNSPECIFIED.);
#27=B_SPLINE_CURVE_WITH_KNOTS('',3,(#695,#696,#697,#698,#699),
 .UNSPECIFIED.,.F.,.F.,(4,1,4),(3.81269371180124E-17,0.00325336528627956,
0.00650673057255909),.UNSPECIFIED.);
#28=B_SPLINE_CURVE_WITH_KNOTS('',3,(#702,#703,#704,#705,#706),
 .UNSPECIFIED.,.F.,.F.,(4,1,4),(3.99234171746712E-17,0.00325336528627959,
0.00650673057255914),.UNSPECIFIED.);
#29=B_SPLINE_CURVE_WITH_KNOTS('',3,(#709,#710,#711,#712,#713),
 .UNSPECIFIED.,.F.,.F.,(4,1,4),(3.99234171746712E-17,0.00325336528627959,
0.00650673057255913),.UNSPECIFIED.);
#30=LINE('',#590,#60);
#31=LINE('',#598,#61);
#32=LINE('',#603,#62);
#33=LINE('',#611,#63);
#34=LINE('',#613,#64);
#35=LINE('',#616,#65);
#36=LINE('',#618,#66);
#37=LINE('',#620,#67);
#38=LINE('',#623,#68);
#39=LINE('',#627,#69);
#40=LINE('',#629,#70);
#41=LINE('',#631,#71);
#42=LINE('',#633,#72);
#43=LINE('',#637,#73);
#44=LINE('',#643,#74);
#45=LINE('',#648,#75);
#46=LINE('',#650,#76);
#47=LINE('',#657,#77);
#48=LINE('',#659,#78);
#49=LINE('',#661,#79);
#50=LINE('',#674,#80);
#51=LINE('',#678,#81);
#52=LINE('',#689,#82);
#53=LINE('',#693,#83);
#54=LINE('',#718,#84);
#55=LINE('',#723,#85);
#56=LINE('',#725,#86);
#57=LINE('',#726,#87);
#58=LINE('',#728,#88);
#59=LINE('',#729,#89);
#60=VECTOR('',#475,1.);
#61=VECTOR('',#476,1.);
#62=VECTOR('',#481,1.);
#63=VECTOR('',#482,1.);
#64=VECTOR('',#485,1.);
#65=VECTOR('',#486,1.);
#66=VECTOR('',#487,1.);
#67=VECTOR('',#488,1.);
#68=VECTOR('',#491,1.);
#69=VECTOR('',#496,1.);
#70=VECTOR('',#497,1.);
#71=VECTOR('',#498,1.);
#72=VECTOR('',#499,1.);
#73=VECTOR('',#502,1.);
#74=VECTOR('',#509,1.);
#75=VECTOR('',#512,1.);
#76=VECTOR('',#513,1.);
#77=VECTOR('',#520,1.);
#78=VECTOR('',#521,1.);
#79=VECTOR('',#522,1.);
#80=VECTOR('',#525,1.);
#81=VECTOR('',#528,1.);
#82=VECTOR('',#535,1.);
#83=VECTOR('',#538,1.);
#84=VECTOR('',#553,1.);
#85=VECTOR('',#560,1.);
#86=VECTOR('',#563,1.);
#87=VECTOR('',#564,1.);
#88=VECTOR('',#567,1.);
#89=VECTOR('',#568,1.);
#90=ORIENTED_EDGE('',*,*,#206,.F.);
#91=ORIENTED_EDGE('',*,*,#207,.T.);
#92=ORIENTED_EDGE('',*,*,#208,.T.);
#93=ORIENTED_EDGE('',*,*,#209,.T.);
#94=ORIENTED_EDGE('',*,*,#210,.F.);
#95=ORIENTED_EDGE('',*,*,#211,.F.);
#96=ORIENTED_EDGE('',*,*,#212,.T.);
#97=ORIENTED_EDGE('',*,*,#213,.F.);
#98=ORIENTED_EDGE('',*,*,#214,.F.);
#99=ORIENTED_EDGE('',*,*,#215,.T.);
#100=ORIENTED_EDGE('',*,*,#216,.T.);
#101=ORIENTED_EDGE('',*,*,#217,.F.);
#102=ORIENTED_EDGE('',*,*,#209,.F.);
#103=ORIENTED_EDGE('',*,*,#218,.F.);
#104=ORIENTED_EDGE('',*,*,#219,.T.);
#105=ORIENTED_EDGE('',*,*,#220,.T.);
#106=ORIENTED_EDGE('',*,*,#211,.T.);
#107=ORIENTED_EDGE('',*,*,#221,.T.);
#108=ORIENTED_EDGE('',*,*,#222,.F.);
#109=ORIENTED_EDGE('',*,*,#223,.F.);
#110=ORIENTED_EDGE('',*,*,#224,.T.);
#111=ORIENTED_EDGE('',*,*,#225,.F.);
#112=ORIENTED_EDGE('',*,*,#226,.F.);
#113=ORIENTED_EDGE('',*,*,#227,.T.);
#114=ORIENTED_EDGE('',*,*,#228,.T.);
#115=ORIENTED_EDGE('',*,*,#229,.F.);
#116=ORIENTED_EDGE('',*,*,#230,.F.);
#117=ORIENTED_EDGE('',*,*,#231,.F.);
#118=ORIENTED_EDGE('',*,*,#232,.F.);
#119=ORIENTED_EDGE('',*,*,#233,.F.);
#120=ORIENTED_EDGE('',*,*,#234,.T.);
#121=ORIENTED_EDGE('',*,*,#235,.T.);
#122=ORIENTED_EDGE('',*,*,#236,.T.);
#123=ORIENTED_EDGE('',*,*,#237,.T.);
#124=ORIENTED_EDGE('',*,*,#238,.F.);
#125=ORIENTED_EDGE('',*,*,#219,.F.);
#126=ORIENTED_EDGE('',*,*,#239,.T.);
#127=ORIENTED_EDGE('',*,*,#240,.T.);
#128=ORIENTED_EDGE('',*,*,#241,.F.);
#129=ORIENTED_EDGE('',*,*,#242,.T.);
#130=ORIENTED_EDGE('',*,*,#243,.T.);
#131=ORIENTED_EDGE('',*,*,#235,.F.);
#132=ORIENTED_EDGE('',*,*,#244,.F.);
#133=ORIENTED_EDGE('',*,*,#229,.T.);
#134=ORIENTED_EDGE('',*,*,#245,.T.);
#135=ORIENTED_EDGE('',*,*,#246,.F.);
#136=ORIENTED_EDGE('',*,*,#247,.F.);
#137=ORIENTED_EDGE('',*,*,#248,.F.);
#138=ORIENTED_EDGE('',*,*,#249,.T.);
#139=ORIENTED_EDGE('',*,*,#226,.T.);
#140=ORIENTED_EDGE('',*,*,#237,.F.);
#141=ORIENTED_EDGE('',*,*,#250,.T.);
#142=ORIENTED_EDGE('',*,*,#214,.T.);
#143=ORIENTED_EDGE('',*,*,#251,.F.);
#144=ORIENTED_EDGE('',*,*,#224,.F.);
#145=ORIENTED_EDGE('',*,*,#252,.T.);
#146=ORIENTED_EDGE('',*,*,#231,.T.);
#147=ORIENTED_EDGE('',*,*,#253,.F.);
#148=ORIENTED_EDGE('',*,*,#254,.F.);
#149=ORIENTED_EDGE('',*,*,#240,.F.);
#150=ORIENTED_EDGE('',*,*,#255,.T.);
#151=ORIENTED_EDGE('',*,*,#207,.F.);
#152=ORIENTED_EDGE('',*,*,#256,.F.);
#153=ORIENTED_EDGE('',*,*,#257,.F.);
#154=ORIENTED_EDGE('',*,*,#258,.F.);
#155=ORIENTED_EDGE('',*,*,#248,.T.);
#156=ORIENTED_EDGE('',*,*,#259,.T.);
#157=ORIENTED_EDGE('',*,*,#213,.T.);
#158=ORIENTED_EDGE('',*,*,#260,.T.);
#159=ORIENTED_EDGE('',*,*,#216,.F.);
#160=ORIENTED_EDGE('',*,*,#261,.F.);
#161=ORIENTED_EDGE('',*,*,#222,.T.);
#162=ORIENTED_EDGE('',*,*,#246,.T.);
#163=ORIENTED_EDGE('',*,*,#262,.T.);
#164=ORIENTED_EDGE('',*,*,#242,.F.);
#165=ORIENTED_EDGE('',*,*,#263,.F.);
#166=ORIENTED_EDGE('',*,*,#210,.T.);
#167=ORIENTED_EDGE('',*,*,#259,.F.);
#168=ORIENTED_EDGE('',*,*,#247,.T.);
#169=ORIENTED_EDGE('',*,*,#263,.T.);
#170=ORIENTED_EDGE('',*,*,#241,.T.);
#171=ORIENTED_EDGE('',*,*,#256,.T.);
#172=ORIENTED_EDGE('',*,*,#206,.T.);
#173=ORIENTED_EDGE('',*,*,#217,.T.);
#174=ORIENTED_EDGE('',*,*,#260,.F.);
#175=ORIENTED_EDGE('',*,*,#221,.F.);
#176=ORIENTED_EDGE('',*,*,#254,.T.);
#177=ORIENTED_EDGE('',*,*,#257,.T.);
#178=ORIENTED_EDGE('',*,*,#250,.F.);
#179=ORIENTED_EDGE('',*,*,#236,.F.);
#180=ORIENTED_EDGE('',*,*,#243,.F.);
#181=ORIENTED_EDGE('',*,*,#262,.F.);
#182=ORIENTED_EDGE('',*,*,#245,.F.);
#183=ORIENTED_EDGE('',*,*,#232,.T.);
#184=ORIENTED_EDGE('',*,*,#252,.F.);
#185=ORIENTED_EDGE('',*,*,#223,.T.);
#186=ORIENTED_EDGE('',*,*,#261,.T.);
#187=ORIENTED_EDGE('',*,*,#215,.F.);
#188=ORIENTED_EDGE('',*,*,#233,.T.);
#189=ORIENTED_EDGE('',*,*,#228,.F.);
#190=ORIENTED_EDGE('',*,*,#227,.F.);
#191=ORIENTED_EDGE('',*,*,#249,.F.);
#192=ORIENTED_EDGE('',*,*,#258,.T.);
#193=ORIENTED_EDGE('',*,*,#212,.F.);
#194=ORIENTED_EDGE('',*,*,#255,.F.);
#195=ORIENTED_EDGE('',*,*,#239,.F.);
#196=ORIENTED_EDGE('',*,*,#218,.T.);
#197=ORIENTED_EDGE('',*,*,#208,.F.);
#198=ORIENTED_EDGE('',*,*,#251,.T.);
#199=ORIENTED_EDGE('',*,*,#220,.F.);
#200=ORIENTED_EDGE('',*,*,#238,.T.);
#201=ORIENTED_EDGE('',*,*,#234,.F.);
#202=ORIENTED_EDGE('',*,*,#253,.T.);
#203=ORIENTED_EDGE('',*,*,#230,.T.);
#204=ORIENTED_EDGE('',*,*,#244,.T.);
#205=ORIENTED_EDGE('',*,*,#225,.T.);
#206=EDGE_CURVE('',#264,#265,#304,.T.);
#207=EDGE_CURVE('',#264,#266,#30,.F.);
#208=EDGE_CURVE('',#266,#267,#22,.F.);
#209=EDGE_CURVE('',#267,#265,#31,.T.);
#210=EDGE_CURVE('',#268,#269,#305,.T.);
#211=EDGE_CURVE('',#270,#268,#32,.T.);
#212=EDGE_CURVE('',#270,#271,#23,.T.);
#213=EDGE_CURVE('',#269,#271,#33,.F.);
#214=EDGE_CURVE('',#272,#273,#34,.T.);
#215=EDGE_CURVE('',#272,#274,#35,.T.);
#216=EDGE_CURVE('',#274,#275,#36,.T.);
#217=EDGE_CURVE('',#265,#275,#37,.T.);
#218=EDGE_CURVE('',#276,#267,#306,.F.);
#219=EDGE_CURVE('',#276,#277,#38,.T.);
#220=EDGE_CURVE('',#277,#273,#307,.F.);
#221=EDGE_CURVE('',#268,#278,#39,.T.);
#222=EDGE_CURVE('',#279,#278,#40,.T.);
#223=EDGE_CURVE('',#280,#279,#41,.T.);
#224=EDGE_CURVE('',#280,#281,#42,.T.);
#225=EDGE_CURVE('',#282,#281,#308,.F.);
#226=EDGE_CURVE('',#283,#282,#43,.T.);
#227=EDGE_CURVE('',#283,#270,#309,.F.);
#228=EDGE_CURVE('',#284,#284,#310,.T.);
#229=EDGE_CURVE('',#285,#286,#44,.F.);
#230=EDGE_CURVE('',#287,#285,#311,.T.);
#231=EDGE_CURVE('',#288,#287,#45,.T.);
#232=EDGE_CURVE('',#286,#288,#46,.T.);
#233=EDGE_CURVE('',#289,#289,#312,.T.);
#234=EDGE_CURVE('',#290,#291,#313,.T.);
#235=EDGE_CURVE('',#291,#292,#47,.F.);
#236=EDGE_CURVE('',#292,#293,#48,.T.);
#237=EDGE_CURVE('',#293,#290,#49,.T.);
#238=EDGE_CURVE('',#277,#291,#24,.T.);
#239=EDGE_CURVE('',#276,#294,#25,.T.);
#240=EDGE_CURVE('',#294,#295,#50,.T.);
#241=EDGE_CURVE('',#296,#295,#314,.T.);
#242=EDGE_CURVE('',#296,#297,#51,.T.);
#243=EDGE_CURVE('',#297,#292,#315,.T.);
#244=EDGE_CURVE('',#285,#282,#26,.F.);
#245=EDGE_CURVE('',#286,#298,#316,.T.);
#246=EDGE_CURVE('',#299,#298,#52,.T.);
#247=EDGE_CURVE('',#300,#299,#317,.T.);
#248=EDGE_CURVE('',#301,#300,#53,.T.);
#249=EDGE_CURVE('',#301,#283,#27,.F.);
#250=EDGE_CURVE('',#293,#272,#318,.T.);
#251=EDGE_CURVE('',#290,#273,#28,.F.);
#252=EDGE_CURVE('',#280,#288,#319,.T.);
#253=EDGE_CURVE('',#281,#287,#29,.T.);
#254=EDGE_CURVE('',#302,#302,#320,.F.);
#255=EDGE_CURVE('',#294,#266,#321,.F.);
#256=EDGE_CURVE('',#295,#264,#54,.T.);
#257=EDGE_CURVE('',#303,#303,#322,.T.);
#258=EDGE_CURVE('',#301,#271,#323,.F.);
#259=EDGE_CURVE('',#300,#269,#55,.T.);
#260=EDGE_CURVE('',#278,#275,#56,.T.);
#261=EDGE_CURVE('',#279,#274,#57,.T.);
#262=EDGE_CURVE('',#298,#297,#58,.T.);
#263=EDGE_CURVE('',#299,#296,#59,.T.);
#264=VERTEX_POINT('',#588);
#265=VERTEX_POINT('',#589);
#266=VERTEX_POINT('',#591);
#267=VERTEX_POINT('',#597);
#268=VERTEX_POINT('',#601);
#269=VERTEX_POINT('',#602);
#270=VERTEX_POINT('',#604);
#271=VERTEX_POINT('',#610);
#272=VERTEX_POINT('',#614);
#273=VERTEX_POINT('',#615);
#274=VERTEX_POINT('',#617);
#275=VERTEX_POINT('',#619);
#276=VERTEX_POINT('',#622);
#277=VERTEX_POINT('',#624);
#278=VERTEX_POINT('',#628);
#279=VERTEX_POINT('',#630);
#280=VERTEX_POINT('',#632);
#281=VERTEX_POINT('',#634);
#282=VERTEX_POINT('',#636);
#283=VERTEX_POINT('',#638);
#284=VERTEX_POINT('',#642);
#285=VERTEX_POINT('',#644);
#286=VERTEX_POINT('',#645);
#287=VERTEX_POINT('',#647);
#288=VERTEX_POINT('',#649);
#289=VERTEX_POINT('',#653);
#290=VERTEX_POINT('',#655);
#291=VERTEX_POINT('',#656);
#292=VERTEX_POINT('',#658);
#293=VERTEX_POINT('',#660);
#294=VERTEX_POINT('',#673);
#295=VERTEX_POINT('',#675);
#296=VERTEX_POINT('',#677);
#297=VERTEX_POINT('',#679);
#298=VERTEX_POINT('',#688);
#299=VERTEX_POINT('',#690);
#300=VERTEX_POINT('',#692);
#301=VERTEX_POINT('',#694);
#302=VERTEX_POINT('',#716);
#303=VERTEX_POINT('',#721);
#304=CIRCLE('',#428,0.006);
#305=CIRCLE('',#430,0.006);
#306=CIRCLE('',#432,0.0075);
#307=CIRCLE('',#433,0.0075);
#308=CIRCLE('',#435,0.0075);
#309=CIRCLE('',#436,0.0075);
#310=CIRCLE('',#438,0.00225);
#311=CIRCLE('',#439,0.0075);
#312=CIRCLE('',#441,0.00225);
#313=CIRCLE('',#442,0.0075);
#314=CIRCLE('',#444,0.006);
#315=CIRCLE('',#445,0.006);
#316=CIRCLE('',#447,0.006);
#317=CIRCLE('',#448,0.006);
#318=CIRCLE('',#450,0.006);
#319=CIRCLE('',#452,0.006);
#320=CIRCLE('',#454,0.00225);
#321=CIRCLE('',#455,0.0075);
#322=CIRCLE('',#457,0.00225);
#323=CIRCLE('',#458,0.0075);
#324=EDGE_LOOP('',(#90,#91,#92,#93));
#325=EDGE_LOOP('',(#94,#95,#96,#97));
#326=EDGE_LOOP('',(#98,#99,#100,#101,#102,#103,#104,#105));
#327=EDGE_LOOP('',(#106,#107,#108,#109,#110,#111,#112,#113));
#328=EDGE_LOOP('',(#114));
#329=EDGE_LOOP('',(#115,#116,#117,#118));
#330=EDGE_LOOP('',(#119));
#331=EDGE_LOOP('',(#120,#121,#122,#123));
#332=EDGE_LOOP('',(#124,#125,#126,#127,#128,#129,#130,#131));
#333=EDGE_LOOP('',(#132,#133,#134,#135,#136,#137,#138,#139));
#334=EDGE_LOOP('',(#140,#141,#142,#143));
#335=EDGE_LOOP('',(#144,#145,#146,#147));
#336=EDGE_LOOP('',(#148));
#337=EDGE_LOOP('',(#149,#150,#151,#152));
#338=EDGE_LOOP('',(#153));
#339=EDGE_LOOP('',(#154,#155,#156,#157));
#340=EDGE_LOOP('',(#158,#159,#160,#161));
#341=EDGE_LOOP('',(#162,#163,#164,#165));
#342=EDGE_LOOP('',(#166,#167,#168,#169,#170,#171,#172,#173,#174,#175));
#343=EDGE_LOOP('',(#176));
#344=EDGE_LOOP('',(#177));
#345=EDGE_LOOP('',(#178,#179,#180,#181,#182,#183,#184,#185,#186,#187));
#346=EDGE_LOOP('',(#188));
#347=EDGE_LOOP('',(#189));
#348=EDGE_LOOP('',(#190,#191,#192,#193));
#349=EDGE_LOOP('',(#194,#195,#196,#197));
#350=EDGE_LOOP('',(#198,#199,#200,#201));
#351=EDGE_LOOP('',(#202,#203,#204,#205));
#352=FACE_BOUND('',#324,.T.);
#353=FACE_BOUND('',#325,.T.);
#354=FACE_BOUND('',#326,.T.);
#355=FACE_BOUND('',#327,.T.);
#356=FACE_BOUND('',#328,.T.);
#357=FACE_BOUND('',#329,.T.);
#358=FACE_BOUND('',#330,.T.);
#359=FACE_BOUND('',#331,.T.);
#360=FACE_BOUND('',#332,.T.);
#361=FACE_BOUND('',#333,.T.);
#362=FACE_BOUND('',#334,.T.);
#363=FACE_BOUND('',#335,.T.);
#364=FACE_BOUND('',#336,.T.);
#365=FACE_BOUND('',#337,.T.);
#366=FACE_BOUND('',#338,.T.);
#367=FACE_BOUND('',#339,.T.);
#368=FACE_BOUND('',#340,.T.);
#369=FACE_BOUND('',#341,.T.);
#370=FACE_BOUND('',#342,.T.);
#371=FACE_BOUND('',#343,.T.);
#372=FACE_BOUND('',#344,.T.);
#373=FACE_BOUND('',#345,.T.);
#374=FACE_BOUND('',#346,.T.);
#375=FACE_BOUND('',#347,.T.);
#376=FACE_BOUND('',#348,.T.);
#377=FACE_BOUND('',#349,.T.);
#378=FACE_BOUND('',#350,.T.);
#379=FACE_BOUND('',#351,.T.);
#380=CYLINDRICAL_SURFACE('',#427,0.006);
#381=CYLINDRICAL_SURFACE('',#429,0.006);
#382=CYLINDRICAL_SURFACE('',#443,0.006);
#383=CYLINDRICAL_SURFACE('',#446,0.006);
#384=CYLINDRICAL_SURFACE('',#449,0.006);
#385=CYLINDRICAL_SURFACE('',#451,0.006);
#386=CYLINDRICAL_SURFACE('',#462,0.00225);
#387=CYLINDRICAL_SURFACE('',#464,0.00225);
#388=CYLINDRICAL_SURFACE('',#465,0.0075);
#389=CYLINDRICAL_SURFACE('',#466,0.0075);
#390=CYLINDRICAL_SURFACE('',#467,0.0075);
#391=CYLINDRICAL_SURFACE('',#468,0.0075);
#392=ADVANCED_FACE('',(#352),#380,.T.);
#393=ADVANCED_FACE('',(#353),#381,.T.);
#394=ADVANCED_FACE('',(#354),#12,.F.);
#395=ADVANCED_FACE('',(#355),#13,.F.);
#396=ADVANCED_FACE('',(#356,#357),#14,.F.);
#397=ADVANCED_FACE('',(#358,#359),#15,.T.);
#398=ADVANCED_FACE('',(#360),#382,.T.);
#399=ADVANCED_FACE('',(#361),#383,.T.);
#400=ADVANCED_FACE('',(#362),#384,.T.);
#401=ADVANCED_FACE('',(#363),#385,.T.);
#402=ADVANCED_FACE('',(#364,#365),#16,.F.);
#403=ADVANCED_FACE('',(#366,#367),#17,.T.);
#404=ADVANCED_FACE('',(#368),#18,.F.);
#405=ADVANCED_FACE('',(#369),#19,.F.);
#406=ADVANCED_FACE('',(#370),#20,.T.);
#407=ADVANCED_FACE('',(#371,#372),#386,.T.);
#408=ADVANCED_FACE('',(#373),#21,.F.);
#409=ADVANCED_FACE('',(#374,#375),#387,.T.);
#410=ADVANCED_FACE('',(#376),#388,.T.);
#411=ADVANCED_FACE('',(#377),#389,.T.);
#412=ADVANCED_FACE('',(#378),#390,.T.);
#413=ADVANCED_FACE('',(#379),#391,.T.);
#414=CLOSED_SHELL('',(#392,#393,#394,#395,#396,#397,#398,#399,#400,#401,
#402,#403,#404,#405,#406,#407,#408,#409,#410,#411,#412,#413));
#415=STYLED_ITEM('',(#416),#423);
#416=PRESENTATION_STYLE_ASSIGNMENT((#417));
#417=SURFACE_STYLE_USAGE(.BOTH.,#418);
#418=SURFACE_SIDE_STYLE('',(#419));
#419=SURFACE_STYLE_FILL_AREA(#420);
#420=FILL_AREA_STYLE('',(#421));
#421=FILL_AREA_STYLE_COLOUR('',#422);
#422=COLOUR_RGB('',0.796078431372549,0.823529411764706,0.937254901960784);
#423=MANIFOLD_SOLID_BREP('Metacarpal Bone_V02',#414);
#424=SHAPE_DEFINITION_REPRESENTATION(#744,#425);
#425=SHAPE_REPRESENTATION('Metacarpal Bone_V02',(#426),#739);
#426=AXIS2_PLACEMENT_3D('',#585,#469,#470);
#427=AXIS2_PLACEMENT_3D('',#586,#471,#472);
#428=AXIS2_PLACEMENT_3D('',#587,#473,#474);
#429=AXIS2_PLACEMENT_3D('',#599,#477,#478);
#430=AXIS2_PLACEMENT_3D('',#600,#479,#480);
#431=AXIS2_PLACEMENT_3D('',#612,#483,#484);
#432=AXIS2_PLACEMENT_3D('',#621,#489,#490);
#433=AXIS2_PLACEMENT_3D('',#625,#492,#493);
#434=AXIS2_PLACEMENT_3D('',#626,#494,#495);
#435=AXIS2_PLACEMENT_3D('',#635,#500,#501);
#436=AXIS2_PLACEMENT_3D('',#639,#503,#504);
#437=AXIS2_PLACEMENT_3D('',#640,#505,#506);
#438=AXIS2_PLACEMENT_3D('',#641,#507,#508);
#439=AXIS2_PLACEMENT_3D('',#646,#510,#511);
#440=AXIS2_PLACEMENT_3D('',#651,#514,#515);
#441=AXIS2_PLACEMENT_3D('',#652,#516,#517);
#442=AXIS2_PLACEMENT_3D('',#654,#518,#519);
#443=AXIS2_PLACEMENT_3D('',#662,#523,#524);
#444=AXIS2_PLACEMENT_3D('',#676,#526,#527);
#445=AXIS2_PLACEMENT_3D('',#680,#529,#530);
#446=AXIS2_PLACEMENT_3D('',#681,#531,#532);
#447=AXIS2_PLACEMENT_3D('',#687,#533,#534);
#448=AXIS2_PLACEMENT_3D('',#691,#536,#537);
#449=AXIS2_PLACEMENT_3D('',#700,#539,#540);
#450=AXIS2_PLACEMENT_3D('',#701,#541,#542);
#451=AXIS2_PLACEMENT_3D('',#707,#543,#544);
#452=AXIS2_PLACEMENT_3D('',#708,#545,#546);
#453=AXIS2_PLACEMENT_3D('',#714,#547,#548);
#454=AXIS2_PLACEMENT_3D('',#715,#549,#550);
#455=AXIS2_PLACEMENT_3D('',#717,#551,#552);
#456=AXIS2_PLACEMENT_3D('',#719,#554,#555);
#457=AXIS2_PLACEMENT_3D('',#720,#556,#557);
#458=AXIS2_PLACEMENT_3D('',#722,#558,#559);
#459=AXIS2_PLACEMENT_3D('',#724,#561,#562);
#460=AXIS2_PLACEMENT_3D('',#727,#565,#566);
#461=AXIS2_PLACEMENT_3D('',#730,#569,#570);
#462=AXIS2_PLACEMENT_3D('',#731,#571,#572);
#463=AXIS2_PLACEMENT_3D('',#732,#573,#574);
#464=AXIS2_PLACEMENT_3D('',#733,#575,#576);
#465=AXIS2_PLACEMENT_3D('',#734,#577,#578);
#466=AXIS2_PLACEMENT_3D('',#735,#579,#580);
#467=AXIS2_PLACEMENT_3D('',#736,#581,#582);
#468=AXIS2_PLACEMENT_3D('',#737,#583,#584);
#469=DIRECTION('',(0.,0.,1.));
#470=DIRECTION('',(1.,0.,0.));
#471=DIRECTION('',(-1.,0.,0.));
#472=DIRECTION('',(0.,-1.,0.));
#473=DIRECTION('',(-1.,0.,0.));
#474=DIRECTION('',(0.,-1.,0.));
#475=DIRECTION('',(-1.,0.,0.));
#476=DIRECTION('',(-1.,0.,0.));
#477=DIRECTION('',(-1.,0.,0.));
#478=DIRECTION('',(0.,-1.,0.));
#479=DIRECTION('',(-1.,0.,0.));
#480=DIRECTION('',(0.,-1.,0.));
#481=DIRECTION('',(-1.,0.,0.));
#482=DIRECTION('',(-1.,0.,0.));
#483=DIRECTION('',(0.,-1.,0.));
#484=DIRECTION('',(1.,0.,0.));
#485=DIRECTION('',(-1.,0.,0.));
#486=DIRECTION('',(0.,0.,1.));
#487=DIRECTION('',(1.,0.,0.));
#488=DIRECTION('',(0.,0.,1.));
#489=DIRECTION('',(0.,1.,0.));
#490=DIRECTION('',(-1.,0.,0.));
#491=DIRECTION('',(-1.,0.,0.));
#492=DIRECTION('',(0.,-1.,0.));
#493=DIRECTION('',(1.,0.,0.));
#494=DIRECTION('',(0.,1.,0.));
#495=DIRECTION('',(-1.,0.,0.));
#496=DIRECTION('',(0.,0.,1.));
#497=DIRECTION('',(1.,0.,0.));
#498=DIRECTION('',(0.,0.,1.));
#499=DIRECTION('',(-1.,0.,0.));
#500=DIRECTION('',(0.,-1.,0.));
#501=DIRECTION('',(1.,0.,0.));
#502=DIRECTION('',(-1.,0.,0.));
#503=DIRECTION('',(0.,1.,0.));
#504=DIRECTION('',(-1.,0.,0.));
#505=DIRECTION('',(-1.71189816708238E-16,-1.,0.));
#506=DIRECTION('',(1.,-1.71189816708238E-16,0.));
#507=DIRECTION('',(-1.15648231731787E-16,-1.,0.));
#508=DIRECTION('',(1.,-1.15648231731787E-16,0.));
#509=DIRECTION('',(-1.,0.,0.));
#510=DIRECTION('',(-1.71189816708238E-16,-1.,0.));
#511=DIRECTION('',(1.,-1.71189816708238E-16,0.));
#512=DIRECTION('',(-1.,0.,0.));
#513=DIRECTION('',(0.,0.,1.));
#514=DIRECTION('',(-1.14126544472158E-16,-1.,0.));
#515=DIRECTION('',(1.,-1.14126544472158E-16,0.));
#516=DIRECTION('',(-1.14126544472158E-16,-1.,0.));
#517=DIRECTION('',(1.,-1.14126544472158E-16,0.));
#518=DIRECTION('',(-1.14126544472158E-16,-1.,0.));
#519=DIRECTION('',(1.,-1.14126544472158E-16,0.));
#520=DIRECTION('',(-1.,0.,0.));
#521=DIRECTION('',(0.,0.,1.));
#522=DIRECTION('',(-1.,0.,0.));
#523=DIRECTION('',(-1.,0.,0.));
#524=DIRECTION('',(0.,-1.,0.));
#525=DIRECTION('',(-1.,0.,0.));
#526=DIRECTION('',(1.,0.,0.));
#527=DIRECTION('',(0.,1.,0.));
#528=DIRECTION('',(-1.,0.,0.));
#529=DIRECTION('',(1.,0.,0.));
#530=DIRECTION('',(0.,1.,0.));
#531=DIRECTION('',(-1.,0.,0.));
#532=DIRECTION('',(0.,-1.,0.));
#533=DIRECTION('',(1.,0.,0.));
#534=DIRECTION('',(0.,1.,0.));
#535=DIRECTION('',(-1.,0.,0.));
#536=DIRECTION('',(1.,0.,0.));
#537=DIRECTION('',(0.,1.,0.));
#538=DIRECTION('',(-1.,0.,0.));
#539=DIRECTION('',(-1.,0.,0.));
#540=DIRECTION('',(0.,-1.,0.));
#541=DIRECTION('',(-1.,0.,0.));
#542=DIRECTION('',(0.,-1.,0.));
#543=DIRECTION('',(-1.,0.,0.));
#544=DIRECTION('',(0.,-1.,0.));
#545=DIRECTION('',(-1.,0.,0.));
#546=DIRECTION('',(0.,-1.,0.));
#547=DIRECTION('',(-1.14126544472158E-16,1.,0.));
#548=DIRECTION('',(-1.,-1.14126544472158E-16,0.));
#549=DIRECTION('',(-1.14126544472158E-16,1.,0.));
#550=DIRECTION('',(-1.,-1.14126544472158E-16,0.));
#551=DIRECTION('',(-1.14126544472158E-16,1.,0.));
#552=DIRECTION('',(-1.,-1.14126544472158E-16,0.));
#553=DIRECTION('',(0.,0.,1.));
#554=DIRECTION('',(-1.71189816708238E-16,1.,0.));
#555=DIRECTION('',(-1.,-1.71189816708238E-16,0.));
#556=DIRECTION('',(-1.15648231731787E-16,1.,0.));
#557=DIRECTION('',(-1.,-1.15648231731787E-16,0.));
#558=DIRECTION('',(-1.71189816708238E-16,1.,0.));
#559=DIRECTION('',(-1.,-1.71189816708238E-16,0.));
#560=DIRECTION('',(0.,0.,1.));
#561=DIRECTION('',(0.,0.,-1.));
#562=DIRECTION('',(0.,1.,0.));
#563=DIRECTION('',(0.,1.,0.));
#564=DIRECTION('',(0.,1.,0.));
#565=DIRECTION('',(0.,0.,1.));
#566=DIRECTION('',(0.,-1.,0.));
#567=DIRECTION('',(0.,1.,0.));
#568=DIRECTION('',(0.,1.,0.));
#569=DIRECTION('',(1.,0.,0.));
#570=DIRECTION('',(0.,1.,0.));
#571=DIRECTION('',(1.15648231731787E-16,-1.,0.));
#572=DIRECTION('',(1.,1.15648231731787E-16,0.));
#573=DIRECTION('',(1.,0.,0.));
#574=DIRECTION('',(0.,1.,0.));
#575=DIRECTION('',(-1.15648231731787E-16,-1.,0.));
#576=DIRECTION('',(1.,-1.15648231731787E-16,0.));
#577=DIRECTION('',(0.,1.,0.));
#578=DIRECTION('',(-1.,0.,0.));
#579=DIRECTION('',(0.,1.,0.));
#580=DIRECTION('',(-1.,0.,0.));
#581=DIRECTION('',(0.,1.,0.));
#582=DIRECTION('',(-1.,0.,0.));
#583=DIRECTION('',(0.,1.,0.));
#584=DIRECTION('',(-1.,0.,0.));
#585=CARTESIAN_POINT('',(0.,0.,0.));
#586=CARTESIAN_POINT('',(0.047,0.0015,0.0015));
#587=CARTESIAN_POINT('',(0.0318,0.0015,0.0015));
#588=CARTESIAN_POINT('',(0.0318,0.0051,0.0063));
#589=CARTESIAN_POINT('',(0.0318,0.0075,0.0015));
#590=CARTESIAN_POINT('',(0.047,0.0051,0.0063));
#591=CARTESIAN_POINT('',(0.0435693979898752,0.0051,0.0063));
#592=CARTESIAN_POINT('',(0.0468484692283495,0.0075,0.00149999999999996));
#593=CARTESIAN_POINT('',(0.0466277423919521,0.00750000000000001,0.00258133624342505));
#594=CARTESIAN_POINT('',(0.0457074652227902,0.00690808094985091,0.00455667775421529));
#595=CARTESIAN_POINT('',(0.0443148385522901,0.00574200938121963,0.00581849296408528));
#596=CARTESIAN_POINT('',(0.0435693979898752,0.00510000000000001,0.00629999999999999));
#597=CARTESIAN_POINT('',(0.0468484692283495,0.0075,0.00149999999999996));
#598=CARTESIAN_POINT('',(0.047,0.0075,0.00149999999999996));
#599=CARTESIAN_POINT('',(0.047,-0.0015,0.0015));
#600=CARTESIAN_POINT('',(0.0318,-0.0015,0.0015));
#601=CARTESIAN_POINT('',(0.0318,-0.0075,0.00149999999999996));
#602=CARTESIAN_POINT('',(0.0318,-0.0051,0.0063));
#603=CARTESIAN_POINT('',(0.047,-0.0075,0.00149999999999996));
#604=CARTESIAN_POINT('',(0.0468484692283495,-0.0075,0.00149999999999996));
#605=CARTESIAN_POINT('',(0.0468484692283495,-0.0075,0.00149999999999996));
#606=CARTESIAN_POINT('',(0.0466277423919521,-0.00750000000000001,0.00258133624342505));
#607=CARTESIAN_POINT('',(0.0457074652227902,-0.00690808094985091,0.00455667775421529));
#608=CARTESIAN_POINT('',(0.0443148385522901,-0.00574200938121963,0.00581849296408528));
#609=CARTESIAN_POINT('',(0.0435693979898752,-0.00510000000000001,0.00629999999999999));
#610=CARTESIAN_POINT('',(0.0435693979898752,-0.0051,0.0063));
#611=CARTESIAN_POINT('',(0.047,-0.0051,0.0063));
#612=CARTESIAN_POINT('',(0.047,0.0075,-0.00149999999999996));
#613=CARTESIAN_POINT('',(0.047,0.0075,0.00149999999999996));
#614=CARTESIAN_POINT('',(0.0152,0.0075,0.0015));
#615=CARTESIAN_POINT('',(0.000151530771650465,0.0075,0.0015));
#616=CARTESIAN_POINT('',(0.0152,0.0075,0.));
#617=CARTESIAN_POINT('',(0.0152,0.0075,0.0075));
#618=CARTESIAN_POINT('',(0.,0.0075,0.0075));
#619=CARTESIAN_POINT('',(0.0318,0.0075,0.0075));
#620=CARTESIAN_POINT('',(0.0318,0.0075,0.));
#621=CARTESIAN_POINT('',(0.0395,0.0075,0.));
#622=CARTESIAN_POINT('',(0.0468484692283495,0.0075,-0.0015));
#623=CARTESIAN_POINT('',(0.047,0.0075,-0.00149999999999996));
#624=CARTESIAN_POINT('',(0.000151530771650465,0.0075,-0.0015));
#625=CARTESIAN_POINT('',(0.0075,0.0075,0.));
#626=CARTESIAN_POINT('',(0.047,-0.0075,-0.00149999999999996));
#627=CARTESIAN_POINT('',(0.0318,-0.0075,0.));
#628=CARTESIAN_POINT('',(0.0318,-0.0075,0.0075));
#629=CARTESIAN_POINT('',(0.,-0.0075,0.0075));
#630=CARTESIAN_POINT('',(0.0152,-0.0075,0.0075));
#631=CARTESIAN_POINT('',(0.0152,-0.0075,0.));
#632=CARTESIAN_POINT('',(0.0152,-0.0075,0.00149999999999996));
#633=CARTESIAN_POINT('',(0.047,-0.0075,0.00149999999999996));
#634=CARTESIAN_POINT('',(0.000151530771650465,-0.0075,0.0015));
#635=CARTESIAN_POINT('',(0.0075,-0.0075,0.));
#636=CARTESIAN_POINT('',(0.000151530771650465,-0.0075,-0.0015));
#637=CARTESIAN_POINT('',(0.047,-0.0075,-0.00149999999999996));
#638=CARTESIAN_POINT('',(0.0468484692283495,-0.0075,-0.0015));
#639=CARTESIAN_POINT('',(0.0395,-0.0075,0.));
#640=CARTESIAN_POINT('',(0.047,-0.0051,-0.0075));
#641=CARTESIAN_POINT('',(0.0075,-0.0051,0.));
#642=CARTESIAN_POINT('',(0.00975,-0.0051,0.));
#643=CARTESIAN_POINT('',(0.047,-0.0051,-0.0063));
#644=CARTESIAN_POINT('',(0.00343060201012483,-0.0051,-0.0063));
#645=CARTESIAN_POINT('',(0.0152,-0.0051,-0.0063));
#646=CARTESIAN_POINT('',(0.0075,-0.0051,0.));
#647=CARTESIAN_POINT('',(0.00343060201012483,-0.0051,0.0063));
#648=CARTESIAN_POINT('',(0.047,-0.0051,0.0063));
#649=CARTESIAN_POINT('',(0.0152,-0.0051,0.0063));
#650=CARTESIAN_POINT('',(0.0152,-0.0051,-0.0075));
#651=CARTESIAN_POINT('',(0.047,0.0051,-0.0075));
#652=CARTESIAN_POINT('',(0.0075,0.0051,0.));
#653=CARTESIAN_POINT('',(0.00975,0.0051,0.));
#654=CARTESIAN_POINT('',(0.0075,0.0051,0.));
#655=CARTESIAN_POINT('',(0.00343060201012485,0.0051,0.0063));
#656=CARTESIAN_POINT('',(0.00343060201012485,0.0051,-0.0063));
#657=CARTESIAN_POINT('',(0.047,0.0051,-0.0063));
#658=CARTESIAN_POINT('',(0.0152,0.0051,-0.0063));
#659=CARTESIAN_POINT('',(0.0152,0.0051,-0.0075));
#660=CARTESIAN_POINT('',(0.0152,0.0051,0.0063));
#661=CARTESIAN_POINT('',(0.047,0.0051,0.0063));
#662=CARTESIAN_POINT('',(0.047,0.0015,-0.0015));
#663=CARTESIAN_POINT('',(0.000151530771650457,0.0075,-0.00149999999999996));
#664=CARTESIAN_POINT('',(0.000372257608047906,0.00750000000000001,-0.00258133624342505));
#665=CARTESIAN_POINT('',(0.00129253477720985,0.00690808094985089,-0.00455667775421532));
#666=CARTESIAN_POINT('',(0.00268516144770993,0.00574200938121961,-0.00581849296408529));
#667=CARTESIAN_POINT('',(0.00343060201012484,0.0051,-0.0063));
#668=CARTESIAN_POINT('',(0.0468484692283495,0.0075,-0.00149999999999996));
#669=CARTESIAN_POINT('',(0.0466277423919521,0.00750000000000001,-0.00258133624342504));
#670=CARTESIAN_POINT('',(0.0457074652227902,0.0069080809498509,-0.00455667775421532));
#671=CARTESIAN_POINT('',(0.0443148385522901,0.00574200938121962,-0.00581849296408528));
#672=CARTESIAN_POINT('',(0.0435693979898752,0.00510000000000002,-0.00629999999999999));
#673=CARTESIAN_POINT('',(0.0435693979898752,0.0051,-0.0063));
#674=CARTESIAN_POINT('',(0.047,0.0051,-0.0063));
#675=CARTESIAN_POINT('',(0.0318,0.0051,-0.0063));
#676=CARTESIAN_POINT('',(0.0318,0.0015,-0.0015));
#677=CARTESIAN_POINT('',(0.0318,0.00149999999999996,-0.0075));
#678=CARTESIAN_POINT('',(0.047,0.00149999999999996,-0.0075));
#679=CARTESIAN_POINT('',(0.0152,0.00149999999999996,-0.0075));
#680=CARTESIAN_POINT('',(0.0152,0.0015,-0.0015));
#681=CARTESIAN_POINT('',(0.047,-0.0015,-0.0015));
#682=CARTESIAN_POINT('',(0.000151530771650457,-0.0075,-0.00149999999999996));
#683=CARTESIAN_POINT('',(0.000372257608047906,-0.00750000000000001,-0.00258133624342505));
#684=CARTESIAN_POINT('',(0.00129253477720985,-0.00690808094985089,-0.00455667775421532));
#685=CARTESIAN_POINT('',(0.00268516144770992,-0.00574200938121961,-0.00581849296408529));
#686=CARTESIAN_POINT('',(0.00343060201012484,-0.0051,-0.0063));
#687=CARTESIAN_POINT('',(0.0152,-0.0015,-0.0015));
#688=CARTESIAN_POINT('',(0.0152,-0.00149999999999996,-0.0075));
#689=CARTESIAN_POINT('',(0.047,-0.00149999999999996,-0.0075));
#690=CARTESIAN_POINT('',(0.0318,-0.00149999999999996,-0.0075));
#691=CARTESIAN_POINT('',(0.0318,-0.0015,-0.0015));
#692=CARTESIAN_POINT('',(0.0318,-0.0051,-0.0063));
#693=CARTESIAN_POINT('',(0.047,-0.0051,-0.0063));
#694=CARTESIAN_POINT('',(0.0435693979898752,-0.0051,-0.0063));
#695=CARTESIAN_POINT('',(0.0468484692283495,-0.0075,-0.00149999999999996));
#696=CARTESIAN_POINT('',(0.0466277423919521,-0.00750000000000001,-0.00258133624342504));
#697=CARTESIAN_POINT('',(0.0457074652227902,-0.0069080809498509,-0.00455667775421532));
#698=CARTESIAN_POINT('',(0.0443148385522901,-0.00574200938121962,-0.00581849296408528));
#699=CARTESIAN_POINT('',(0.0435693979898752,-0.00510000000000002,-0.00629999999999999));
#700=CARTESIAN_POINT('',(0.047,0.0015,0.0015));
#701=CARTESIAN_POINT('',(0.0152,0.0015,0.0015));
#702=CARTESIAN_POINT('',(0.000151530771650457,0.0075,0.00149999999999996));
#703=CARTESIAN_POINT('',(0.000372257608047906,0.00750000000000001,0.00258133624342505));
#704=CARTESIAN_POINT('',(0.00129253477720985,0.00690808094985089,0.00455667775421532));
#705=CARTESIAN_POINT('',(0.00268516144770993,0.00574200938121961,0.00581849296408529));
#706=CARTESIAN_POINT('',(0.00343060201012484,0.0051,0.0063));
#707=CARTESIAN_POINT('',(0.047,-0.0015,0.0015));
#708=CARTESIAN_POINT('',(0.0152,-0.0015,0.0015));
#709=CARTESIAN_POINT('',(0.000151530771650457,-0.0075,0.00149999999999996));
#710=CARTESIAN_POINT('',(0.000372257608047906,-0.00750000000000001,0.00258133624342505));
#711=CARTESIAN_POINT('',(0.00129253477720985,-0.00690808094985089,0.00455667775421532));
#712=CARTESIAN_POINT('',(0.00268516144770992,-0.00574200938121961,0.00581849296408529));
#713=CARTESIAN_POINT('',(0.00343060201012484,-0.0051,0.0063));
#714=CARTESIAN_POINT('',(-5.82045376808007E-19,0.0051,-0.0075));
#715=CARTESIAN_POINT('',(0.0395,0.0051,0.));
#716=CARTESIAN_POINT('',(0.03725,0.0051,0.));
#717=CARTESIAN_POINT('',(0.0395,0.0051,0.));
#718=CARTESIAN_POINT('',(0.0318,0.0051,-0.0075));
#719=CARTESIAN_POINT('',(8.73068065212013E-19,-0.0051,-0.0075));
#720=CARTESIAN_POINT('',(0.0395,-0.0051,0.));
#721=CARTESIAN_POINT('',(0.03725,-0.0051,0.));
#722=CARTESIAN_POINT('',(0.0395,-0.0051,0.));
#723=CARTESIAN_POINT('',(0.0318,-0.0051,-0.0075));
#724=CARTESIAN_POINT('',(0.047,-0.00149999999999996,0.0075));
#725=CARTESIAN_POINT('',(0.0318,0.,0.0075));
#726=CARTESIAN_POINT('',(0.0152,0.,0.0075));
#727=CARTESIAN_POINT('',(0.047,-0.00149999999999996,-0.0075));
#728=CARTESIAN_POINT('',(0.0152,0.,-0.0075));
#729=CARTESIAN_POINT('',(0.0318,0.,-0.0075));
#730=CARTESIAN_POINT('',(0.0318,0.,-0.0075));
#731=CARTESIAN_POINT('',(0.0395,0.0051,0.));
#732=CARTESIAN_POINT('',(0.0152,0.,-0.0075));
#733=CARTESIAN_POINT('',(0.0075,0.0051,0.));
#734=CARTESIAN_POINT('',(0.0395,-0.0075,0.));
#735=CARTESIAN_POINT('',(0.0395,-0.0075,0.));
#736=CARTESIAN_POINT('',(0.0075,-0.0075,0.));
#737=CARTESIAN_POINT('',(0.0075,-0.0075,0.));
#738=MECHANICAL_DESIGN_GEOMETRIC_PRESENTATION_REPRESENTATION('',(#415),
#739);
#739=(
GEOMETRIC_REPRESENTATION_CONTEXT(3)
GLOBAL_UNCERTAINTY_ASSIGNED_CONTEXT((#740))
GLOBAL_UNIT_ASSIGNED_CONTEXT((#743,#742,#741))
REPRESENTATION_CONTEXT('Metacarpal Bone_V02','TOP_LEVEL_ASSEMBLY_PART')
);
#740=UNCERTAINTY_MEASURE_WITH_UNIT(LENGTH_MEASURE(2.E-5),#743,
'DISTANCE_ACCURACY_VALUE','Maximum Tolerance applied to model');
#741=(
NAMED_UNIT(*)
SI_UNIT($,.STERADIAN.)
SOLID_ANGLE_UNIT()
);
#742=(
NAMED_UNIT(*)
PLANE_ANGLE_UNIT()
SI_UNIT($,.RADIAN.)
);
#743=(
LENGTH_UNIT()
NAMED_UNIT(*)
SI_UNIT($,.METRE.)
);
#744=PRODUCT_DEFINITION_SHAPE('','',#745);
#745=PRODUCT_DEFINITION('','',#747,#746);
#746=PRODUCT_DEFINITION_CONTEXT('',#753,'design');
#747=PRODUCT_DEFINITION_FORMATION_WITH_SPECIFIED_SOURCE('','',#749,
 .NOT_KNOWN.);
#748=PRODUCT_RELATED_PRODUCT_CATEGORY('','',(#749));
#749=PRODUCT('Metacarpal Bone_V02','Metacarpal Bone_V02',
'Metacarpal Bone_V02',(#751));
#750=PRODUCT_CATEGORY('','');
#751=PRODUCT_CONTEXT('',#753,'mechanical');
#752=APPLICATION_PROTOCOL_DEFINITION('international standard',
'ap242_managed_model_based_3d_engineering',2020,#753);
#753=APPLICATION_CONTEXT('managed model based 3d engineering');
ENDSEC;
END-ISO-10303-21;
