ISO-10303-21;
HEADER;
/* Generated by software containing ST-Developer
 * from STEP Tools, Inc. (www.steptools.com) 
 */
/* OPTION: using custom renumber hook */

FILE_DESCRIPTION(
/* description */ ('STEP AP242 Edition 2',
'CAx-IF Rec.Pracs.---Representation and Presentation of Product Manufa
cturing Information (PMI)---4.0---2014-10-13',
'CAx-IF Rec.Pracs.---3D Tessellated Geometry---0.4---2014-09-14','2;1',
'CAx-IF Rec.Pracs.---User Defined Attributes---1.5---2016-08-15'),
/* implementation_level */ '2;1');

FILE_NAME(
/* name */ 'Robotic Hand_V5_simulacra - Palm_pinky',
/* time_stamp */ '2026-09-25T22:15:31Z',
/* author */ (''),
/* organization */ (''),
/* preprocessor_version */ 'ST-DEVELOPER v20',
/* originating_system */ 'ONSHAPE BY PTC INC, 1.221',
/* authorisation */ '  ');

FILE_SCHEMA (('AP242_MANAGED_MODEL_BASED_3D_ENGINEERING_MIM_LF { 1 0 10303 442 3 1 4 }'));
ENDSEC;

DATA;
#10=SHAPE_REPRESENTATION_RELATIONSHIP('','',#1225,#11);
#11=ADVANCED_BREP_SHAPE_REPRESENTATION('',(#1223),#2055);
#12=CYLINDRICAL_SURFACE('',#1263,0.001);
#13=CYLINDRICAL_SURFACE('',#1266,0.001);
#14=CYLINDRICAL_SURFACE('',#1269,0.001);
#15=CYLINDRICAL_SURFACE('',#1272,0.001);
#16=CYLINDRICAL_SURFACE('',#1275,0.001);
#17=CYLINDRICAL_SURFACE('',#1278,0.001);
#18=CYLINDRICAL_SURFACE('',#1289,0.0065);
#19=CYLINDRICAL_SURFACE('',#1293,0.00613827546702941);
#20=CYLINDRICAL_SURFACE('',#1297,0.00475);
#21=CYLINDRICAL_SURFACE('',#1299,0.00475);
#22=CYLINDRICAL_SURFACE('',#1311,0.0065);
#23=CYLINDRICAL_SURFACE('',#1315,0.00613827546702941);
#24=CYLINDRICAL_SURFACE('',#1319,0.00475);
#25=CYLINDRICAL_SURFACE('',#1321,0.00475);
#26=CYLINDRICAL_SURFACE('',#1325,0.00613827546702941);
#27=CYLINDRICAL_SURFACE('',#1327,0.0065);
#28=CYLINDRICAL_SURFACE('',#1342,0.00475);
#29=CYLINDRICAL_SURFACE('',#1344,0.00475);
#30=CIRCLE('',#1257,0.001);
#31=CIRCLE('',#1258,0.001);
#32=CIRCLE('',#1259,0.001);
#33=CIRCLE('',#1260,0.001);
#34=CIRCLE('',#1261,0.001);
#35=CIRCLE('',#1262,0.001);
#36=CIRCLE('',#1264,0.001);
#37=CIRCLE('',#1267,0.001);
#38=CIRCLE('',#1270,0.001);
#39=CIRCLE('',#1273,0.001);
#40=CIRCLE('',#1276,0.001);
#41=CIRCLE('',#1279,0.001);
#42=CIRCLE('',#1282,0.0065);
#43=CIRCLE('',#1291,0.00613827546702941);
#44=CIRCLE('',#1295,0.00475);
#45=CIRCLE('',#1296,0.00475);
#46=CIRCLE('',#1298,0.00475);
#47=CIRCLE('',#1300,0.00475);
#48=CIRCLE('',#1304,0.0065);
#49=CIRCLE('',#1313,0.00613827546702941);
#50=CIRCLE('',#1317,0.00475);
#51=CIRCLE('',#1318,0.00475);
#52=CIRCLE('',#1320,0.00475);
#53=CIRCLE('',#1322,0.00475);
#54=CIRCLE('',#1326,0.00613827546702941);
#55=CIRCLE('',#1328,0.0065);
#56=CIRCLE('',#1334,0.00475);
#57=CIRCLE('',#1336,0.00475);
#58=CIRCLE('',#1343,0.00475);
#59=CIRCLE('',#1345,0.00475);
#60=ELLIPSE('',#1232,0.0119358430493504,0.00613827546702941);
#61=ELLIPSE('',#1233,0.00923634900208407,0.00475);
#62=ELLIPSE('',#1234,0.00923634900208407,0.00475);
#63=ELLIPSE('',#1235,0.0126392144239045,0.0065);
#64=ELLIPSE('',#1236,0.0119358430493504,0.00613827546702941);
#65=ELLIPSE('',#1237,0.00923634900208407,0.00475);
#66=ELLIPSE('',#1238,0.00923634900208407,0.00475);
#67=ELLIPSE('',#1239,0.0126392144239045,0.0065);
#68=ELLIPSE('',#1240,0.0119358430493504,0.00613827546702941);
#69=ELLIPSE('',#1241,0.00923634900208407,0.00475);
#70=ELLIPSE('',#1242,0.00923634900208407,0.00475);
#71=ELLIPSE('',#1243,0.0126392144239045,0.0065);
#72=ELLIPSE('',#1245,0.0126392144239045,0.0065);
#73=ELLIPSE('',#1246,0.00923634900208407,0.00475);
#74=ELLIPSE('',#1247,0.00923634900208407,0.00475);
#75=ELLIPSE('',#1248,0.0119358430493504,0.00613827546702941);
#76=ELLIPSE('',#1249,0.0126392144239045,0.0065);
#77=ELLIPSE('',#1250,0.00923634900208407,0.00475);
#78=ELLIPSE('',#1251,0.00923634900208407,0.00475);
#79=ELLIPSE('',#1252,0.0119358430493504,0.00613827546702941);
#80=ELLIPSE('',#1253,0.0126392144239045,0.0065);
#81=ELLIPSE('',#1254,0.00923634900208407,0.00475);
#82=ELLIPSE('',#1255,0.00923634900208407,0.00475);
#83=ELLIPSE('',#1256,0.0119358430493504,0.00613827546702941);
#84=ORIENTED_EDGE('',*,*,#420,.T.);
#85=ORIENTED_EDGE('',*,*,#421,.F.);
#86=ORIENTED_EDGE('',*,*,#422,.F.);
#87=ORIENTED_EDGE('',*,*,#423,.T.);
#88=ORIENTED_EDGE('',*,*,#424,.T.);
#89=ORIENTED_EDGE('',*,*,#425,.F.);
#90=ORIENTED_EDGE('',*,*,#426,.F.);
#91=ORIENTED_EDGE('',*,*,#421,.T.);
#92=ORIENTED_EDGE('',*,*,#427,.T.);
#93=ORIENTED_EDGE('',*,*,#428,.F.);
#94=ORIENTED_EDGE('',*,*,#429,.F.);
#95=ORIENTED_EDGE('',*,*,#425,.T.);
#96=ORIENTED_EDGE('',*,*,#430,.T.);
#97=ORIENTED_EDGE('',*,*,#423,.F.);
#98=ORIENTED_EDGE('',*,*,#431,.F.);
#99=ORIENTED_EDGE('',*,*,#428,.T.);
#100=ORIENTED_EDGE('',*,*,#432,.F.);
#101=ORIENTED_EDGE('',*,*,#433,.T.);
#102=ORIENTED_EDGE('',*,*,#434,.T.);
#103=ORIENTED_EDGE('',*,*,#435,.T.);
#104=ORIENTED_EDGE('',*,*,#436,.F.);
#105=ORIENTED_EDGE('',*,*,#437,.F.);
#106=ORIENTED_EDGE('',*,*,#438,.F.);
#107=ORIENTED_EDGE('',*,*,#439,.F.);
#108=ORIENTED_EDGE('',*,*,#440,.F.);
#109=ORIENTED_EDGE('',*,*,#441,.T.);
#110=ORIENTED_EDGE('',*,*,#442,.F.);
#111=ORIENTED_EDGE('',*,*,#443,.F.);
#112=ORIENTED_EDGE('',*,*,#444,.T.);
#113=ORIENTED_EDGE('',*,*,#445,.F.);
#114=ORIENTED_EDGE('',*,*,#446,.F.);
#115=ORIENTED_EDGE('',*,*,#447,.T.);
#116=ORIENTED_EDGE('',*,*,#448,.F.);
#117=ORIENTED_EDGE('',*,*,#449,.T.);
#118=ORIENTED_EDGE('',*,*,#450,.T.);
#119=ORIENTED_EDGE('',*,*,#451,.T.);
#120=ORIENTED_EDGE('',*,*,#452,.F.);
#121=ORIENTED_EDGE('',*,*,#453,.F.);
#122=ORIENTED_EDGE('',*,*,#454,.F.);
#123=ORIENTED_EDGE('',*,*,#455,.F.);
#124=ORIENTED_EDGE('',*,*,#456,.F.);
#125=ORIENTED_EDGE('',*,*,#457,.T.);
#126=ORIENTED_EDGE('',*,*,#458,.F.);
#127=ORIENTED_EDGE('',*,*,#459,.F.);
#128=ORIENTED_EDGE('',*,*,#460,.T.);
#129=ORIENTED_EDGE('',*,*,#461,.F.);
#130=ORIENTED_EDGE('',*,*,#462,.F.);
#131=ORIENTED_EDGE('',*,*,#463,.T.);
#132=ORIENTED_EDGE('',*,*,#464,.F.);
#133=ORIENTED_EDGE('',*,*,#465,.T.);
#134=ORIENTED_EDGE('',*,*,#466,.T.);
#135=ORIENTED_EDGE('',*,*,#467,.T.);
#136=ORIENTED_EDGE('',*,*,#468,.F.);
#137=ORIENTED_EDGE('',*,*,#469,.F.);
#138=ORIENTED_EDGE('',*,*,#470,.F.);
#139=ORIENTED_EDGE('',*,*,#471,.F.);
#140=ORIENTED_EDGE('',*,*,#472,.F.);
#141=ORIENTED_EDGE('',*,*,#473,.T.);
#142=ORIENTED_EDGE('',*,*,#474,.F.);
#143=ORIENTED_EDGE('',*,*,#475,.F.);
#144=ORIENTED_EDGE('',*,*,#476,.T.);
#145=ORIENTED_EDGE('',*,*,#477,.F.);
#146=ORIENTED_EDGE('',*,*,#478,.F.);
#147=ORIENTED_EDGE('',*,*,#479,.T.);
#148=ORIENTED_EDGE('',*,*,#422,.T.);
#149=ORIENTED_EDGE('',*,*,#426,.T.);
#150=ORIENTED_EDGE('',*,*,#429,.T.);
#151=ORIENTED_EDGE('',*,*,#431,.T.);
#152=ORIENTED_EDGE('',*,*,#480,.F.);
#153=ORIENTED_EDGE('',*,*,#481,.T.);
#154=ORIENTED_EDGE('',*,*,#482,.F.);
#155=ORIENTED_EDGE('',*,*,#483,.T.);
#156=ORIENTED_EDGE('',*,*,#484,.T.);
#157=ORIENTED_EDGE('',*,*,#485,.F.);
#158=ORIENTED_EDGE('',*,*,#486,.T.);
#159=ORIENTED_EDGE('',*,*,#487,.T.);
#160=ORIENTED_EDGE('',*,*,#488,.F.);
#161=ORIENTED_EDGE('',*,*,#489,.T.);
#162=ORIENTED_EDGE('',*,*,#490,.T.);
#163=ORIENTED_EDGE('',*,*,#491,.T.);
#164=ORIENTED_EDGE('',*,*,#492,.T.);
#165=ORIENTED_EDGE('',*,*,#493,.T.);
#166=ORIENTED_EDGE('',*,*,#494,.F.);
#167=ORIENTED_EDGE('',*,*,#495,.F.);
#168=ORIENTED_EDGE('',*,*,#496,.F.);
#169=ORIENTED_EDGE('',*,*,#497,.T.);
#170=ORIENTED_EDGE('',*,*,#498,.F.);
#171=ORIENTED_EDGE('',*,*,#499,.T.);
#172=ORIENTED_EDGE('',*,*,#500,.T.);
#173=ORIENTED_EDGE('',*,*,#501,.F.);
#174=ORIENTED_EDGE('',*,*,#502,.T.);
#175=ORIENTED_EDGE('',*,*,#503,.T.);
#176=ORIENTED_EDGE('',*,*,#504,.F.);
#177=ORIENTED_EDGE('',*,*,#505,.T.);
#178=ORIENTED_EDGE('',*,*,#506,.T.);
#179=ORIENTED_EDGE('',*,*,#507,.T.);
#180=ORIENTED_EDGE('',*,*,#508,.T.);
#181=ORIENTED_EDGE('',*,*,#509,.T.);
#182=ORIENTED_EDGE('',*,*,#510,.F.);
#183=ORIENTED_EDGE('',*,*,#511,.F.);
#184=ORIENTED_EDGE('',*,*,#512,.F.);
#185=ORIENTED_EDGE('',*,*,#513,.T.);
#186=ORIENTED_EDGE('',*,*,#514,.F.);
#187=ORIENTED_EDGE('',*,*,#515,.T.);
#188=ORIENTED_EDGE('',*,*,#516,.T.);
#189=ORIENTED_EDGE('',*,*,#517,.F.);
#190=ORIENTED_EDGE('',*,*,#518,.T.);
#191=ORIENTED_EDGE('',*,*,#519,.T.);
#192=ORIENTED_EDGE('',*,*,#520,.F.);
#193=ORIENTED_EDGE('',*,*,#521,.T.);
#194=ORIENTED_EDGE('',*,*,#522,.T.);
#195=ORIENTED_EDGE('',*,*,#523,.T.);
#196=ORIENTED_EDGE('',*,*,#524,.T.);
#197=ORIENTED_EDGE('',*,*,#525,.T.);
#198=ORIENTED_EDGE('',*,*,#526,.F.);
#199=ORIENTED_EDGE('',*,*,#527,.F.);
#200=ORIENTED_EDGE('',*,*,#528,.F.);
#201=ORIENTED_EDGE('',*,*,#529,.F.);
#202=ORIENTED_EDGE('',*,*,#530,.F.);
#203=ORIENTED_EDGE('',*,*,#531,.F.);
#204=ORIENTED_EDGE('',*,*,#532,.F.);
#205=ORIENTED_EDGE('',*,*,#533,.F.);
#206=ORIENTED_EDGE('',*,*,#420,.F.);
#207=ORIENTED_EDGE('',*,*,#430,.F.);
#208=ORIENTED_EDGE('',*,*,#427,.F.);
#209=ORIENTED_EDGE('',*,*,#424,.F.);
#210=ORIENTED_EDGE('',*,*,#534,.F.);
#211=ORIENTED_EDGE('',*,*,#533,.T.);
#212=ORIENTED_EDGE('',*,*,#534,.T.);
#213=ORIENTED_EDGE('',*,*,#535,.F.);
#214=ORIENTED_EDGE('',*,*,#532,.T.);
#215=ORIENTED_EDGE('',*,*,#535,.T.);
#216=ORIENTED_EDGE('',*,*,#536,.F.);
#217=ORIENTED_EDGE('',*,*,#531,.T.);
#218=ORIENTED_EDGE('',*,*,#536,.T.);
#219=ORIENTED_EDGE('',*,*,#537,.F.);
#220=ORIENTED_EDGE('',*,*,#530,.T.);
#221=ORIENTED_EDGE('',*,*,#537,.T.);
#222=ORIENTED_EDGE('',*,*,#538,.F.);
#223=ORIENTED_EDGE('',*,*,#529,.T.);
#224=ORIENTED_EDGE('',*,*,#538,.T.);
#225=ORIENTED_EDGE('',*,*,#539,.F.);
#226=ORIENTED_EDGE('',*,*,#528,.T.);
#227=ORIENTED_EDGE('',*,*,#539,.T.);
#228=ORIENTED_EDGE('',*,*,#477,.T.);
#229=ORIENTED_EDGE('',*,*,#540,.T.);
#230=ORIENTED_EDGE('',*,*,#516,.F.);
#231=ORIENTED_EDGE('',*,*,#541,.F.);
#232=ORIENTED_EDGE('',*,*,#542,.T.);
#233=ORIENTED_EDGE('',*,*,#517,.T.);
#234=ORIENTED_EDGE('',*,*,#540,.F.);
#235=ORIENTED_EDGE('',*,*,#476,.F.);
#236=ORIENTED_EDGE('',*,*,#543,.F.);
#237=ORIENTED_EDGE('',*,*,#512,.T.);
#238=ORIENTED_EDGE('',*,*,#544,.T.);
#239=ORIENTED_EDGE('',*,*,#465,.F.);
#240=ORIENTED_EDGE('',*,*,#464,.T.);
#241=ORIENTED_EDGE('',*,*,#545,.F.);
#242=ORIENTED_EDGE('',*,*,#513,.F.);
#243=ORIENTED_EDGE('',*,*,#543,.T.);
#244=ORIENTED_EDGE('',*,*,#544,.F.);
#245=ORIENTED_EDGE('',*,*,#527,.T.);
#246=ORIENTED_EDGE('',*,*,#546,.T.);
#247=ORIENTED_EDGE('',*,*,#466,.F.);
#248=ORIENTED_EDGE('',*,*,#547,.T.);
#249=ORIENTED_EDGE('',*,*,#514,.T.);
#250=ORIENTED_EDGE('',*,*,#545,.T.);
#251=ORIENTED_EDGE('',*,*,#479,.F.);
#252=ORIENTED_EDGE('',*,*,#546,.F.);
#253=ORIENTED_EDGE('',*,*,#526,.T.);
#254=ORIENTED_EDGE('',*,*,#548,.T.);
#255=ORIENTED_EDGE('',*,*,#467,.F.);
#256=ORIENTED_EDGE('',*,*,#478,.T.);
#257=ORIENTED_EDGE('',*,*,#541,.T.);
#258=ORIENTED_EDGE('',*,*,#515,.F.);
#259=ORIENTED_EDGE('',*,*,#547,.F.);
#260=ORIENTED_EDGE('',*,*,#469,.T.);
#261=ORIENTED_EDGE('',*,*,#549,.F.);
#262=ORIENTED_EDGE('',*,*,#524,.F.);
#263=ORIENTED_EDGE('',*,*,#550,.F.);
#264=ORIENTED_EDGE('',*,*,#470,.T.);
#265=ORIENTED_EDGE('',*,*,#550,.T.);
#266=ORIENTED_EDGE('',*,*,#523,.F.);
#267=ORIENTED_EDGE('',*,*,#551,.T.);
#268=ORIENTED_EDGE('',*,*,#468,.T.);
#269=ORIENTED_EDGE('',*,*,#548,.F.);
#270=ORIENTED_EDGE('',*,*,#525,.F.);
#271=ORIENTED_EDGE('',*,*,#549,.T.);
#272=ORIENTED_EDGE('',*,*,#552,.F.);
#273=ORIENTED_EDGE('',*,*,#520,.T.);
#274=ORIENTED_EDGE('',*,*,#553,.F.);
#275=ORIENTED_EDGE('',*,*,#473,.F.);
#276=ORIENTED_EDGE('',*,*,#472,.T.);
#277=ORIENTED_EDGE('',*,*,#554,.F.);
#278=ORIENTED_EDGE('',*,*,#521,.F.);
#279=ORIENTED_EDGE('',*,*,#552,.T.);
#280=ORIENTED_EDGE('',*,*,#474,.T.);
#281=ORIENTED_EDGE('',*,*,#553,.T.);
#282=ORIENTED_EDGE('',*,*,#519,.F.);
#283=ORIENTED_EDGE('',*,*,#555,.F.);
#284=ORIENTED_EDGE('',*,*,#471,.T.);
#285=ORIENTED_EDGE('',*,*,#551,.F.);
#286=ORIENTED_EDGE('',*,*,#522,.F.);
#287=ORIENTED_EDGE('',*,*,#554,.T.);
#288=ORIENTED_EDGE('',*,*,#475,.T.);
#289=ORIENTED_EDGE('',*,*,#555,.T.);
#290=ORIENTED_EDGE('',*,*,#518,.F.);
#291=ORIENTED_EDGE('',*,*,#542,.F.);
#292=ORIENTED_EDGE('',*,*,#461,.T.);
#293=ORIENTED_EDGE('',*,*,#556,.T.);
#294=ORIENTED_EDGE('',*,*,#500,.F.);
#295=ORIENTED_EDGE('',*,*,#557,.F.);
#296=ORIENTED_EDGE('',*,*,#558,.T.);
#297=ORIENTED_EDGE('',*,*,#501,.T.);
#298=ORIENTED_EDGE('',*,*,#556,.F.);
#299=ORIENTED_EDGE('',*,*,#460,.F.);
#300=ORIENTED_EDGE('',*,*,#559,.F.);
#301=ORIENTED_EDGE('',*,*,#496,.T.);
#302=ORIENTED_EDGE('',*,*,#560,.T.);
#303=ORIENTED_EDGE('',*,*,#449,.F.);
#304=ORIENTED_EDGE('',*,*,#448,.T.);
#305=ORIENTED_EDGE('',*,*,#561,.F.);
#306=ORIENTED_EDGE('',*,*,#497,.F.);
#307=ORIENTED_EDGE('',*,*,#559,.T.);
#308=ORIENTED_EDGE('',*,*,#560,.F.);
#309=ORIENTED_EDGE('',*,*,#511,.T.);
#310=ORIENTED_EDGE('',*,*,#562,.T.);
#311=ORIENTED_EDGE('',*,*,#450,.F.);
#312=ORIENTED_EDGE('',*,*,#563,.T.);
#313=ORIENTED_EDGE('',*,*,#498,.T.);
#314=ORIENTED_EDGE('',*,*,#561,.T.);
#315=ORIENTED_EDGE('',*,*,#463,.F.);
#316=ORIENTED_EDGE('',*,*,#562,.F.);
#317=ORIENTED_EDGE('',*,*,#510,.T.);
#318=ORIENTED_EDGE('',*,*,#564,.T.);
#319=ORIENTED_EDGE('',*,*,#451,.F.);
#320=ORIENTED_EDGE('',*,*,#462,.T.);
#321=ORIENTED_EDGE('',*,*,#557,.T.);
#322=ORIENTED_EDGE('',*,*,#499,.F.);
#323=ORIENTED_EDGE('',*,*,#563,.F.);
#324=ORIENTED_EDGE('',*,*,#453,.T.);
#325=ORIENTED_EDGE('',*,*,#565,.F.);
#326=ORIENTED_EDGE('',*,*,#508,.F.);
#327=ORIENTED_EDGE('',*,*,#566,.F.);
#328=ORIENTED_EDGE('',*,*,#454,.T.);
#329=ORIENTED_EDGE('',*,*,#566,.T.);
#330=ORIENTED_EDGE('',*,*,#507,.F.);
#331=ORIENTED_EDGE('',*,*,#567,.T.);
#332=ORIENTED_EDGE('',*,*,#452,.T.);
#333=ORIENTED_EDGE('',*,*,#564,.F.);
#334=ORIENTED_EDGE('',*,*,#509,.F.);
#335=ORIENTED_EDGE('',*,*,#565,.T.);
#336=ORIENTED_EDGE('',*,*,#568,.F.);
#337=ORIENTED_EDGE('',*,*,#504,.T.);
#338=ORIENTED_EDGE('',*,*,#569,.F.);
#339=ORIENTED_EDGE('',*,*,#457,.F.);
#340=ORIENTED_EDGE('',*,*,#456,.T.);
#341=ORIENTED_EDGE('',*,*,#570,.F.);
#342=ORIENTED_EDGE('',*,*,#505,.F.);
#343=ORIENTED_EDGE('',*,*,#568,.T.);
#344=ORIENTED_EDGE('',*,*,#458,.T.);
#345=ORIENTED_EDGE('',*,*,#569,.T.);
#346=ORIENTED_EDGE('',*,*,#503,.F.);
#347=ORIENTED_EDGE('',*,*,#571,.F.);
#348=ORIENTED_EDGE('',*,*,#455,.T.);
#349=ORIENTED_EDGE('',*,*,#567,.F.);
#350=ORIENTED_EDGE('',*,*,#506,.F.);
#351=ORIENTED_EDGE('',*,*,#570,.T.);
#352=ORIENTED_EDGE('',*,*,#459,.T.);
#353=ORIENTED_EDGE('',*,*,#571,.T.);
#354=ORIENTED_EDGE('',*,*,#502,.F.);
#355=ORIENTED_EDGE('',*,*,#558,.F.);
#356=ORIENTED_EDGE('',*,*,#436,.T.);
#357=ORIENTED_EDGE('',*,*,#572,.F.);
#358=ORIENTED_EDGE('',*,*,#493,.F.);
#359=ORIENTED_EDGE('',*,*,#573,.T.);
#360=ORIENTED_EDGE('',*,*,#446,.T.);
#361=ORIENTED_EDGE('',*,*,#574,.T.);
#362=ORIENTED_EDGE('',*,*,#483,.F.);
#363=ORIENTED_EDGE('',*,*,#575,.F.);
#364=ORIENTED_EDGE('',*,*,#438,.T.);
#365=ORIENTED_EDGE('',*,*,#576,.T.);
#366=ORIENTED_EDGE('',*,*,#491,.F.);
#367=ORIENTED_EDGE('',*,*,#577,.T.);
#368=ORIENTED_EDGE('',*,*,#578,.T.);
#369=ORIENTED_EDGE('',*,*,#485,.T.);
#370=ORIENTED_EDGE('',*,*,#579,.F.);
#371=ORIENTED_EDGE('',*,*,#444,.F.);
#372=ORIENTED_EDGE('',*,*,#437,.T.);
#373=ORIENTED_EDGE('',*,*,#573,.F.);
#374=ORIENTED_EDGE('',*,*,#492,.F.);
#375=ORIENTED_EDGE('',*,*,#576,.F.);
#376=ORIENTED_EDGE('',*,*,#445,.T.);
#377=ORIENTED_EDGE('',*,*,#579,.T.);
#378=ORIENTED_EDGE('',*,*,#484,.F.);
#379=ORIENTED_EDGE('',*,*,#574,.F.);
#380=ORIENTED_EDGE('',*,*,#443,.T.);
#381=ORIENTED_EDGE('',*,*,#580,.T.);
#382=ORIENTED_EDGE('',*,*,#486,.F.);
#383=ORIENTED_EDGE('',*,*,#578,.F.);
#384=ORIENTED_EDGE('',*,*,#439,.T.);
#385=ORIENTED_EDGE('',*,*,#577,.F.);
#386=ORIENTED_EDGE('',*,*,#490,.F.);
#387=ORIENTED_EDGE('',*,*,#581,.T.);
#388=ORIENTED_EDGE('',*,*,#582,.F.);
#389=ORIENTED_EDGE('',*,*,#494,.T.);
#390=ORIENTED_EDGE('',*,*,#572,.T.);
#391=ORIENTED_EDGE('',*,*,#435,.F.);
#392=ORIENTED_EDGE('',*,*,#575,.T.);
#393=ORIENTED_EDGE('',*,*,#482,.T.);
#394=ORIENTED_EDGE('',*,*,#583,.T.);
#395=ORIENTED_EDGE('',*,*,#447,.F.);
#396=ORIENTED_EDGE('',*,*,#584,.F.);
#397=ORIENTED_EDGE('',*,*,#495,.T.);
#398=ORIENTED_EDGE('',*,*,#582,.T.);
#399=ORIENTED_EDGE('',*,*,#434,.F.);
#400=ORIENTED_EDGE('',*,*,#432,.T.);
#401=ORIENTED_EDGE('',*,*,#583,.F.);
#402=ORIENTED_EDGE('',*,*,#481,.F.);
#403=ORIENTED_EDGE('',*,*,#585,.T.);
#404=ORIENTED_EDGE('',*,*,#585,.F.);
#405=ORIENTED_EDGE('',*,*,#480,.T.);
#406=ORIENTED_EDGE('',*,*,#584,.T.);
#407=ORIENTED_EDGE('',*,*,#433,.F.);
#408=ORIENTED_EDGE('',*,*,#442,.T.);
#409=ORIENTED_EDGE('',*,*,#586,.T.);
#410=ORIENTED_EDGE('',*,*,#487,.F.);
#411=ORIENTED_EDGE('',*,*,#580,.F.);
#412=ORIENTED_EDGE('',*,*,#440,.T.);
#413=ORIENTED_EDGE('',*,*,#581,.F.);
#414=ORIENTED_EDGE('',*,*,#489,.F.);
#415=ORIENTED_EDGE('',*,*,#587,.T.);
#416=ORIENTED_EDGE('',*,*,#587,.F.);
#417=ORIENTED_EDGE('',*,*,#488,.T.);
#418=ORIENTED_EDGE('',*,*,#586,.F.);
#419=ORIENTED_EDGE('',*,*,#441,.F.);
#420=EDGE_CURVE('',#588,#589,#704,.T.);
#421=EDGE_CURVE('',#590,#589,#705,.T.);
#422=EDGE_CURVE('',#591,#590,#706,.T.);
#423=EDGE_CURVE('',#591,#588,#707,.T.);
#424=EDGE_CURVE('',#589,#592,#708,.T.);
#425=EDGE_CURVE('',#593,#592,#709,.T.);
#426=EDGE_CURVE('',#590,#593,#710,.T.);
#427=EDGE_CURVE('',#592,#594,#711,.T.);
#428=EDGE_CURVE('',#595,#594,#712,.T.);
#429=EDGE_CURVE('',#593,#595,#713,.T.);
#430=EDGE_CURVE('',#594,#588,#714,.T.);
#431=EDGE_CURVE('',#595,#591,#715,.T.);
#432=EDGE_CURVE('',#596,#597,#716,.T.);
#433=EDGE_CURVE('',#596,#598,#717,.T.);
#434=EDGE_CURVE('',#598,#599,#718,.T.);
#435=EDGE_CURVE('',#599,#600,#719,.T.);
#436=EDGE_CURVE('',#601,#600,#60,.F.);
#437=EDGE_CURVE('',#602,#601,#720,.T.);
#438=EDGE_CURVE('',#603,#602,#721,.T.);
#439=EDGE_CURVE('',#604,#603,#722,.T.);
#440=EDGE_CURVE('',#605,#604,#61,.F.);
#441=EDGE_CURVE('',#605,#606,#723,.T.);
#442=EDGE_CURVE('',#607,#606,#62,.F.);
#443=EDGE_CURVE('',#608,#607,#724,.T.);
#444=EDGE_CURVE('',#608,#609,#725,.T.);
#445=EDGE_CURVE('',#610,#609,#726,.T.);
#446=EDGE_CURVE('',#611,#610,#63,.F.);
#447=EDGE_CURVE('',#611,#597,#727,.T.);
#448=EDGE_CURVE('',#612,#613,#728,.T.);
#449=EDGE_CURVE('',#612,#614,#729,.T.);
#450=EDGE_CURVE('',#614,#615,#730,.T.);
#451=EDGE_CURVE('',#615,#616,#731,.T.);
#452=EDGE_CURVE('',#617,#616,#64,.F.);
#453=EDGE_CURVE('',#618,#617,#732,.T.);
#454=EDGE_CURVE('',#619,#618,#733,.T.);
#455=EDGE_CURVE('',#620,#619,#734,.T.);
#456=EDGE_CURVE('',#621,#620,#65,.F.);
#457=EDGE_CURVE('',#621,#622,#735,.T.);
#458=EDGE_CURVE('',#623,#622,#66,.F.);
#459=EDGE_CURVE('',#624,#623,#736,.T.);
#460=EDGE_CURVE('',#624,#625,#737,.T.);
#461=EDGE_CURVE('',#626,#625,#738,.T.);
#462=EDGE_CURVE('',#627,#626,#67,.F.);
#463=EDGE_CURVE('',#627,#613,#739,.T.);
#464=EDGE_CURVE('',#628,#629,#740,.T.);
#465=EDGE_CURVE('',#628,#630,#741,.T.);
#466=EDGE_CURVE('',#630,#631,#742,.T.);
#467=EDGE_CURVE('',#631,#632,#743,.T.);
#468=EDGE_CURVE('',#633,#632,#68,.F.);
#469=EDGE_CURVE('',#634,#633,#744,.T.);
#470=EDGE_CURVE('',#635,#634,#745,.T.);
#471=EDGE_CURVE('',#636,#635,#746,.T.);
#472=EDGE_CURVE('',#637,#636,#69,.F.);
#473=EDGE_CURVE('',#637,#638,#747,.T.);
#474=EDGE_CURVE('',#639,#638,#70,.F.);
#475=EDGE_CURVE('',#640,#639,#748,.T.);
#476=EDGE_CURVE('',#640,#641,#749,.T.);
#477=EDGE_CURVE('',#642,#641,#750,.T.);
#478=EDGE_CURVE('',#643,#642,#71,.F.);
#479=EDGE_CURVE('',#643,#629,#751,.T.);
#480=EDGE_CURVE('',#644,#645,#752,.T.);
#481=EDGE_CURVE('',#644,#646,#753,.T.);
#482=EDGE_CURVE('',#647,#646,#754,.T.);
#483=EDGE_CURVE('',#647,#648,#72,.F.);
#484=EDGE_CURVE('',#648,#649,#755,.T.);
#485=EDGE_CURVE('',#650,#649,#756,.T.);
#486=EDGE_CURVE('',#650,#651,#757,.T.);
#487=EDGE_CURVE('',#651,#652,#73,.F.);
#488=EDGE_CURVE('',#653,#652,#758,.T.);
#489=EDGE_CURVE('',#653,#654,#74,.F.);
#490=EDGE_CURVE('',#654,#655,#759,.T.);
#491=EDGE_CURVE('',#655,#656,#760,.T.);
#492=EDGE_CURVE('',#656,#657,#761,.T.);
#493=EDGE_CURVE('',#657,#658,#75,.F.);
#494=EDGE_CURVE('',#659,#658,#762,.T.);
#495=EDGE_CURVE('',#645,#659,#763,.T.);
#496=EDGE_CURVE('',#660,#661,#764,.T.);
#497=EDGE_CURVE('',#660,#662,#765,.T.);
#498=EDGE_CURVE('',#663,#662,#766,.T.);
#499=EDGE_CURVE('',#663,#664,#76,.F.);
#500=EDGE_CURVE('',#664,#665,#767,.T.);
#501=EDGE_CURVE('',#666,#665,#768,.T.);
#502=EDGE_CURVE('',#666,#667,#769,.T.);
#503=EDGE_CURVE('',#667,#668,#77,.F.);
#504=EDGE_CURVE('',#669,#668,#770,.T.);
#505=EDGE_CURVE('',#669,#670,#78,.F.);
#506=EDGE_CURVE('',#670,#671,#771,.T.);
#507=EDGE_CURVE('',#671,#672,#772,.T.);
#508=EDGE_CURVE('',#672,#673,#773,.T.);
#509=EDGE_CURVE('',#673,#674,#79,.F.);
#510=EDGE_CURVE('',#675,#674,#774,.T.);
#511=EDGE_CURVE('',#661,#675,#775,.T.);
#512=EDGE_CURVE('',#676,#677,#776,.T.);
#513=EDGE_CURVE('',#676,#678,#777,.T.);
#514=EDGE_CURVE('',#679,#678,#778,.T.);
#515=EDGE_CURVE('',#679,#680,#80,.F.);
#516=EDGE_CURVE('',#680,#681,#779,.T.);
#517=EDGE_CURVE('',#682,#681,#780,.T.);
#518=EDGE_CURVE('',#682,#683,#781,.T.);
#519=EDGE_CURVE('',#683,#684,#81,.F.);
#520=EDGE_CURVE('',#685,#684,#782,.T.);
#521=EDGE_CURVE('',#685,#686,#82,.F.);
#522=EDGE_CURVE('',#686,#687,#783,.T.);
#523=EDGE_CURVE('',#687,#688,#784,.T.);
#524=EDGE_CURVE('',#688,#689,#785,.T.);
#525=EDGE_CURVE('',#689,#690,#83,.F.);
#526=EDGE_CURVE('',#691,#690,#786,.T.);
#527=EDGE_CURVE('',#677,#691,#787,.T.);
#528=EDGE_CURVE('',#692,#692,#30,.T.);
#529=EDGE_CURVE('',#693,#693,#31,.T.);
#530=EDGE_CURVE('',#694,#694,#32,.T.);
#531=EDGE_CURVE('',#695,#695,#33,.T.);
#532=EDGE_CURVE('',#696,#696,#34,.T.);
#533=EDGE_CURVE('',#697,#697,#35,.T.);
#534=EDGE_CURVE('',#698,#698,#36,.T.);
#535=EDGE_CURVE('',#699,#699,#37,.T.);
#536=EDGE_CURVE('',#700,#700,#38,.T.);
#537=EDGE_CURVE('',#701,#701,#39,.T.);
#538=EDGE_CURVE('',#702,#702,#40,.T.);
#539=EDGE_CURVE('',#703,#703,#41,.T.);
#540=EDGE_CURVE('',#641,#681,#788,.T.);
#541=EDGE_CURVE('',#642,#680,#42,.T.);
#542=EDGE_CURVE('',#640,#682,#789,.T.);
#543=EDGE_CURVE('',#676,#628,#790,.T.);
#544=EDGE_CURVE('',#677,#630,#791,.T.);
#545=EDGE_CURVE('',#678,#629,#792,.T.);
#546=EDGE_CURVE('',#691,#631,#793,.T.);
#547=EDGE_CURVE('',#643,#679,#794,.T.);
#548=EDGE_CURVE('',#690,#632,#795,.F.);
#549=EDGE_CURVE('',#689,#633,#43,.T.);
#550=EDGE_CURVE('',#634,#688,#796,.T.);
#551=EDGE_CURVE('',#687,#635,#797,.T.);
#552=EDGE_CURVE('',#685,#637,#44,.T.);
#553=EDGE_CURVE('',#638,#684,#45,.T.);
#554=EDGE_CURVE('',#686,#636,#46,.T.);
#555=EDGE_CURVE('',#639,#683,#47,.T.);
#556=EDGE_CURVE('',#625,#665,#798,.T.);
#557=EDGE_CURVE('',#626,#664,#48,.T.);
#558=EDGE_CURVE('',#624,#666,#799,.T.);
#559=EDGE_CURVE('',#660,#612,#800,.T.);
#560=EDGE_CURVE('',#661,#614,#801,.T.);
#561=EDGE_CURVE('',#662,#613,#802,.T.);
#562=EDGE_CURVE('',#675,#615,#803,.T.);
#563=EDGE_CURVE('',#627,#663,#804,.T.);
#564=EDGE_CURVE('',#674,#616,#805,.F.);
#565=EDGE_CURVE('',#673,#617,#49,.T.);
#566=EDGE_CURVE('',#618,#672,#806,.T.);
#567=EDGE_CURVE('',#671,#619,#807,.T.);
#568=EDGE_CURVE('',#669,#621,#50,.T.);
#569=EDGE_CURVE('',#622,#668,#51,.T.);
#570=EDGE_CURVE('',#670,#620,#52,.T.);
#571=EDGE_CURVE('',#623,#667,#53,.T.);
#572=EDGE_CURVE('',#658,#600,#808,.F.);
#573=EDGE_CURVE('',#657,#601,#54,.T.);
#574=EDGE_CURVE('',#610,#648,#55,.T.);
#575=EDGE_CURVE('',#611,#647,#809,.T.);
#576=EDGE_CURVE('',#602,#656,#810,.T.);
#577=EDGE_CURVE('',#655,#603,#811,.T.);
#578=EDGE_CURVE('',#608,#650,#812,.T.);
#579=EDGE_CURVE('',#609,#649,#813,.T.);
#580=EDGE_CURVE('',#607,#651,#56,.T.);
#581=EDGE_CURVE('',#654,#604,#57,.T.);
#582=EDGE_CURVE('',#659,#599,#814,.T.);
#583=EDGE_CURVE('',#646,#597,#815,.T.);
#584=EDGE_CURVE('',#645,#598,#816,.T.);
#585=EDGE_CURVE('',#644,#596,#817,.T.);
#586=EDGE_CURVE('',#606,#652,#58,.T.);
#587=EDGE_CURVE('',#653,#605,#59,.T.);
#588=VERTEX_POINT('',#1706);
#589=VERTEX_POINT('',#1707);
#590=VERTEX_POINT('',#1709);
#591=VERTEX_POINT('',#1711);
#592=VERTEX_POINT('',#1715);
#593=VERTEX_POINT('',#1717);
#594=VERTEX_POINT('',#1721);
#595=VERTEX_POINT('',#1723);
#596=VERTEX_POINT('',#1730);
#597=VERTEX_POINT('',#1731);
#598=VERTEX_POINT('',#1733);
#599=VERTEX_POINT('',#1735);
#600=VERTEX_POINT('',#1737);
#601=VERTEX_POINT('',#1739);
#602=VERTEX_POINT('',#1741);
#603=VERTEX_POINT('',#1743);
#604=VERTEX_POINT('',#1745);
#605=VERTEX_POINT('',#1747);
#606=VERTEX_POINT('',#1749);
#607=VERTEX_POINT('',#1751);
#608=VERTEX_POINT('',#1753);
#609=VERTEX_POINT('',#1755);
#610=VERTEX_POINT('',#1757);
#611=VERTEX_POINT('',#1759);
#612=VERTEX_POINT('',#1762);
#613=VERTEX_POINT('',#1763);
#614=VERTEX_POINT('',#1765);
#615=VERTEX_POINT('',#1767);
#616=VERTEX_POINT('',#1769);
#617=VERTEX_POINT('',#1771);
#618=VERTEX_POINT('',#1773);
#619=VERTEX_POINT('',#1775);
#620=VERTEX_POINT('',#1777);
#621=VERTEX_POINT('',#1779);
#622=VERTEX_POINT('',#1781);
#623=VERTEX_POINT('',#1783);
#624=VERTEX_POINT('',#1785);
#625=VERTEX_POINT('',#1787);
#626=VERTEX_POINT('',#1789);
#627=VERTEX_POINT('',#1791);
#628=VERTEX_POINT('',#1794);
#629=VERTEX_POINT('',#1795);
#630=VERTEX_POINT('',#1797);
#631=VERTEX_POINT('',#1799);
#632=VERTEX_POINT('',#1801);
#633=VERTEX_POINT('',#1803);
#634=VERTEX_POINT('',#1805);
#635=VERTEX_POINT('',#1807);
#636=VERTEX_POINT('',#1809);
#637=VERTEX_POINT('',#1811);
#638=VERTEX_POINT('',#1813);
#639=VERTEX_POINT('',#1815);
#640=VERTEX_POINT('',#1817);
#641=VERTEX_POINT('',#1819);
#642=VERTEX_POINT('',#1821);
#643=VERTEX_POINT('',#1823);
#644=VERTEX_POINT('',#1827);
#645=VERTEX_POINT('',#1828);
#646=VERTEX_POINT('',#1830);
#647=VERTEX_POINT('',#1832);
#648=VERTEX_POINT('',#1834);
#649=VERTEX_POINT('',#1836);
#650=VERTEX_POINT('',#1838);
#651=VERTEX_POINT('',#1840);
#652=VERTEX_POINT('',#1842);
#653=VERTEX_POINT('',#1844);
#654=VERTEX_POINT('',#1846);
#655=VERTEX_POINT('',#1848);
#656=VERTEX_POINT('',#1850);
#657=VERTEX_POINT('',#1852);
#658=VERTEX_POINT('',#1854);
#659=VERTEX_POINT('',#1856);
#660=VERTEX_POINT('',#1859);
#661=VERTEX_POINT('',#1860);
#662=VERTEX_POINT('',#1862);
#663=VERTEX_POINT('',#1864);
#664=VERTEX_POINT('',#1866);
#665=VERTEX_POINT('',#1868);
#666=VERTEX_POINT('',#1870);
#667=VERTEX_POINT('',#1872);
#668=VERTEX_POINT('',#1874);
#669=VERTEX_POINT('',#1876);
#670=VERTEX_POINT('',#1878);
#671=VERTEX_POINT('',#1880);
#672=VERTEX_POINT('',#1882);
#673=VERTEX_POINT('',#1884);
#674=VERTEX_POINT('',#1886);
#675=VERTEX_POINT('',#1888);
#676=VERTEX_POINT('',#1891);
#677=VERTEX_POINT('',#1892);
#678=VERTEX_POINT('',#1894);
#679=VERTEX_POINT('',#1896);
#680=VERTEX_POINT('',#1898);
#681=VERTEX_POINT('',#1900);
#682=VERTEX_POINT('',#1902);
#683=VERTEX_POINT('',#1904);
#684=VERTEX_POINT('',#1906);
#685=VERTEX_POINT('',#1908);
#686=VERTEX_POINT('',#1910);
#687=VERTEX_POINT('',#1912);
#688=VERTEX_POINT('',#1914);
#689=VERTEX_POINT('',#1916);
#690=VERTEX_POINT('',#1918);
#691=VERTEX_POINT('',#1920);
#692=VERTEX_POINT('',#1923);
#693=VERTEX_POINT('',#1925);
#694=VERTEX_POINT('',#1927);
#695=VERTEX_POINT('',#1929);
#696=VERTEX_POINT('',#1931);
#697=VERTEX_POINT('',#1933);
#698=VERTEX_POINT('',#1936);
#699=VERTEX_POINT('',#1940);
#700=VERTEX_POINT('',#1944);
#701=VERTEX_POINT('',#1948);
#702=VERTEX_POINT('',#1952);
#703=VERTEX_POINT('',#1956);
#704=LINE('',#1705,#818);
#705=LINE('',#1708,#819);
#706=LINE('',#1710,#820);
#707=LINE('',#1712,#821);
#708=LINE('',#1714,#822);
#709=LINE('',#1716,#823);
#710=LINE('',#1718,#824);
#711=LINE('',#1720,#825);
#712=LINE('',#1722,#826);
#713=LINE('',#1724,#827);
#714=LINE('',#1726,#828);
#715=LINE('',#1727,#829);
#716=LINE('',#1729,#830);
#717=LINE('',#1732,#831);
#718=LINE('',#1734,#832);
#719=LINE('',#1736,#833);
#720=LINE('',#1740,#834);
#721=LINE('',#1742,#835);
#722=LINE('',#1744,#836);
#723=LINE('',#1748,#837);
#724=LINE('',#1752,#838);
#725=LINE('',#1754,#839);
#726=LINE('',#1756,#840);
#727=LINE('',#1760,#841);
#728=LINE('',#1761,#842);
#729=LINE('',#1764,#843);
#730=LINE('',#1766,#844);
#731=LINE('',#1768,#845);
#732=LINE('',#1772,#846);
#733=LINE('',#1774,#847);
#734=LINE('',#1776,#848);
#735=LINE('',#1780,#849);
#736=LINE('',#1784,#850);
#737=LINE('',#1786,#851);
#738=LINE('',#1788,#852);
#739=LINE('',#1792,#853);
#740=LINE('',#1793,#854);
#741=LINE('',#1796,#855);
#742=LINE('',#1798,#856);
#743=LINE('',#1800,#857);
#744=LINE('',#1804,#858);
#745=LINE('',#1806,#859);
#746=LINE('',#1808,#860);
#747=LINE('',#1812,#861);
#748=LINE('',#1816,#862);
#749=LINE('',#1818,#863);
#750=LINE('',#1820,#864);
#751=LINE('',#1824,#865);
#752=LINE('',#1826,#866);
#753=LINE('',#1829,#867);
#754=LINE('',#1831,#868);
#755=LINE('',#1835,#869);
#756=LINE('',#1837,#870);
#757=LINE('',#1839,#871);
#758=LINE('',#1843,#872);
#759=LINE('',#1847,#873);
#760=LINE('',#1849,#874);
#761=LINE('',#1851,#875);
#762=LINE('',#1855,#876);
#763=LINE('',#1857,#877);
#764=LINE('',#1858,#878);
#765=LINE('',#1861,#879);
#766=LINE('',#1863,#880);
#767=LINE('',#1867,#881);
#768=LINE('',#1869,#882);
#769=LINE('',#1871,#883);
#770=LINE('',#1875,#884);
#771=LINE('',#1879,#885);
#772=LINE('',#1881,#886);
#773=LINE('',#1883,#887);
#774=LINE('',#1887,#888);
#775=LINE('',#1889,#889);
#776=LINE('',#1890,#890);
#777=LINE('',#1893,#891);
#778=LINE('',#1895,#892);
#779=LINE('',#1899,#893);
#780=LINE('',#1901,#894);
#781=LINE('',#1903,#895);
#782=LINE('',#1907,#896);
#783=LINE('',#1911,#897);
#784=LINE('',#1913,#898);
#785=LINE('',#1915,#899);
#786=LINE('',#1919,#900);
#787=LINE('',#1921,#901);
#788=LINE('',#1959,#902);
#789=LINE('',#1962,#903);
#790=LINE('',#1964,#904);
#791=LINE('',#1965,#905);
#792=LINE('',#1967,#906);
#793=LINE('',#1969,#907);
#794=LINE('',#1971,#908);
#795=LINE('',#1973,#909);
#796=LINE('',#1977,#910);
#797=LINE('',#1979,#911);
#798=LINE('',#1991,#912);
#799=LINE('',#1994,#913);
#800=LINE('',#1996,#914);
#801=LINE('',#1997,#915);
#802=LINE('',#1999,#916);
#803=LINE('',#2001,#917);
#804=LINE('',#2003,#918);
#805=LINE('',#2005,#919);
#806=LINE('',#2009,#920);
#807=LINE('',#2011,#921);
#808=LINE('',#2023,#922);
#809=LINE('',#2027,#923);
#810=LINE('',#2029,#924);
#811=LINE('',#2030,#925);
#812=LINE('',#2032,#926);
#813=LINE('',#2033,#927);
#814=LINE('',#2041,#928);
#815=LINE('',#2043,#929);
#816=LINE('',#2045,#930);
#817=LINE('',#2047,#931);
#818=VECTOR('',#1351,1.);
#819=VECTOR('',#1352,1.);
#820=VECTOR('',#1353,1.);
#821=VECTOR('',#1354,1.);
#822=VECTOR('',#1357,1.);
#823=VECTOR('',#1358,1.);
#824=VECTOR('',#1359,1.);
#825=VECTOR('',#1362,1.);
#826=VECTOR('',#1363,1.);
#827=VECTOR('',#1364,1.);
#828=VECTOR('',#1367,1.);
#829=VECTOR('',#1368,1.);
#830=VECTOR('',#1371,1.);
#831=VECTOR('',#1372,1.);
#832=VECTOR('',#1373,1.);
#833=VECTOR('',#1374,1.);
#834=VECTOR('',#1377,1.);
#835=VECTOR('',#1378,1.);
#836=VECTOR('',#1379,1.);
#837=VECTOR('',#1382,1.);
#838=VECTOR('',#1385,1.);
#839=VECTOR('',#1386,1.);
#840=VECTOR('',#1387,1.);
#841=VECTOR('',#1390,1.);
#842=VECTOR('',#1391,1.);
#843=VECTOR('',#1392,1.);
#844=VECTOR('',#1393,1.);
#845=VECTOR('',#1394,1.);
#846=VECTOR('',#1397,1.);
#847=VECTOR('',#1398,1.);
#848=VECTOR('',#1399,1.);
#849=VECTOR('',#1402,1.);
#850=VECTOR('',#1405,1.);
#851=VECTOR('',#1406,1.);
#852=VECTOR('',#1407,1.);
#853=VECTOR('',#1410,1.);
#854=VECTOR('',#1411,1.);
#855=VECTOR('',#1412,1.);
#856=VECTOR('',#1413,1.);
#857=VECTOR('',#1414,1.);
#858=VECTOR('',#1417,1.);
#859=VECTOR('',#1418,1.);
#860=VECTOR('',#1419,1.);
#861=VECTOR('',#1422,1.);
#862=VECTOR('',#1425,1.);
#863=VECTOR('',#1426,1.);
#864=VECTOR('',#1427,1.);
#865=VECTOR('',#1430,1.);
#866=VECTOR('',#1433,1.);
#867=VECTOR('',#1434,1.);
#868=VECTOR('',#1435,1.);
#869=VECTOR('',#1438,1.);
#870=VECTOR('',#1439,1.);
#871=VECTOR('',#1440,1.);
#872=VECTOR('',#1443,1.);
#873=VECTOR('',#1446,1.);
#874=VECTOR('',#1447,1.);
#875=VECTOR('',#1448,1.);
#876=VECTOR('',#1451,1.);
#877=VECTOR('',#1452,1.);
#878=VECTOR('',#1453,1.);
#879=VECTOR('',#1454,1.);
#880=VECTOR('',#1455,1.);
#881=VECTOR('',#1458,1.);
#882=VECTOR('',#1459,1.);
#883=VECTOR('',#1460,1.);
#884=VECTOR('',#1463,1.);
#885=VECTOR('',#1466,1.);
#886=VECTOR('',#1467,1.);
#887=VECTOR('',#1468,1.);
#888=VECTOR('',#1471,1.);
#889=VECTOR('',#1472,1.);
#890=VECTOR('',#1473,1.);
#891=VECTOR('',#1474,1.);
#892=VECTOR('',#1475,1.);
#893=VECTOR('',#1478,1.);
#894=VECTOR('',#1479,1.);
#895=VECTOR('',#1480,1.);
#896=VECTOR('',#1483,1.);
#897=VECTOR('',#1486,1.);
#898=VECTOR('',#1487,1.);
#899=VECTOR('',#1488,1.);
#900=VECTOR('',#1491,1.);
#901=VECTOR('',#1492,1.);
#902=VECTOR('',#1543,1.);
#903=VECTOR('',#1548,1.);
#904=VECTOR('',#1551,1.);
#905=VECTOR('',#1552,1.);
#906=VECTOR('',#1555,1.);
#907=VECTOR('',#1558,1.);
#908=VECTOR('',#1561,1.);
#909=VECTOR('',#1564,1.);
#910=VECTOR('',#1571,1.);
#911=VECTOR('',#1574,1.);
#912=VECTOR('',#1597,1.);
#913=VECTOR('',#1602,1.);
#914=VECTOR('',#1605,1.);
#915=VECTOR('',#1606,1.);
#916=VECTOR('',#1609,1.);
#917=VECTOR('',#1612,1.);
#918=VECTOR('',#1615,1.);
#919=VECTOR('',#1618,1.);
#920=VECTOR('',#1625,1.);
#921=VECTOR('',#1628,1.);
#922=VECTOR('',#1651,1.);
#923=VECTOR('',#1658,1.);
#924=VECTOR('',#1661,1.);
#925=VECTOR('',#1662,1.);
#926=VECTOR('',#1665,1.);
#927=VECTOR('',#1666,1.);
#928=VECTOR('',#1681,1.);
#929=VECTOR('',#1684,1.);
#930=VECTOR('',#1687,1.);
#931=VECTOR('',#1690,1.);
#932=EDGE_LOOP('',(#84,#85,#86,#87));
#933=EDGE_LOOP('',(#88,#89,#90,#91));
#934=EDGE_LOOP('',(#92,#93,#94,#95));
#935=EDGE_LOOP('',(#96,#97,#98,#99));
#936=EDGE_LOOP('',(#100,#101,#102,#103,#104,#105,#106,#107,#108,#109,#110,
#111,#112,#113,#114,#115));
#937=EDGE_LOOP('',(#116,#117,#118,#119,#120,#121,#122,#123,#124,#125,#126,
#127,#128,#129,#130,#131));
#938=EDGE_LOOP('',(#132,#133,#134,#135,#136,#137,#138,#139,#140,#141,#142,
#143,#144,#145,#146,#147));
#939=EDGE_LOOP('',(#148,#149,#150,#151));
#940=EDGE_LOOP('',(#152,#153,#154,#155,#156,#157,#158,#159,#160,#161,#162,
#163,#164,#165,#166,#167));
#941=EDGE_LOOP('',(#168,#169,#170,#171,#172,#173,#174,#175,#176,#177,#178,
#179,#180,#181,#182,#183));
#942=EDGE_LOOP('',(#184,#185,#186,#187,#188,#189,#190,#191,#192,#193,#194,
#195,#196,#197,#198,#199));
#943=EDGE_LOOP('',(#200));
#944=EDGE_LOOP('',(#201));
#945=EDGE_LOOP('',(#202));
#946=EDGE_LOOP('',(#203));
#947=EDGE_LOOP('',(#204));
#948=EDGE_LOOP('',(#205));
#949=EDGE_LOOP('',(#206,#207,#208,#209));
#950=EDGE_LOOP('',(#210));
#951=EDGE_LOOP('',(#211));
#952=EDGE_LOOP('',(#212));
#953=EDGE_LOOP('',(#213));
#954=EDGE_LOOP('',(#214));
#955=EDGE_LOOP('',(#215));
#956=EDGE_LOOP('',(#216));
#957=EDGE_LOOP('',(#217));
#958=EDGE_LOOP('',(#218));
#959=EDGE_LOOP('',(#219));
#960=EDGE_LOOP('',(#220));
#961=EDGE_LOOP('',(#221));
#962=EDGE_LOOP('',(#222));
#963=EDGE_LOOP('',(#223));
#964=EDGE_LOOP('',(#224));
#965=EDGE_LOOP('',(#225));
#966=EDGE_LOOP('',(#226));
#967=EDGE_LOOP('',(#227));
#968=EDGE_LOOP('',(#228,#229,#230,#231));
#969=EDGE_LOOP('',(#232,#233,#234,#235));
#970=EDGE_LOOP('',(#236,#237,#238,#239));
#971=EDGE_LOOP('',(#240,#241,#242,#243));
#972=EDGE_LOOP('',(#244,#245,#246,#247));
#973=EDGE_LOOP('',(#248,#249,#250,#251));
#974=EDGE_LOOP('',(#252,#253,#254,#255));
#975=EDGE_LOOP('',(#256,#257,#258,#259));
#976=EDGE_LOOP('',(#260,#261,#262,#263));
#977=EDGE_LOOP('',(#264,#265,#266,#267));
#978=EDGE_LOOP('',(#268,#269,#270,#271));
#979=EDGE_LOOP('',(#272,#273,#274,#275));
#980=EDGE_LOOP('',(#276,#277,#278,#279));
#981=EDGE_LOOP('',(#280,#281,#282,#283));
#982=EDGE_LOOP('',(#284,#285,#286,#287));
#983=EDGE_LOOP('',(#288,#289,#290,#291));
#984=EDGE_LOOP('',(#292,#293,#294,#295));
#985=EDGE_LOOP('',(#296,#297,#298,#299));
#986=EDGE_LOOP('',(#300,#301,#302,#303));
#987=EDGE_LOOP('',(#304,#305,#306,#307));
#988=EDGE_LOOP('',(#308,#309,#310,#311));
#989=EDGE_LOOP('',(#312,#313,#314,#315));
#990=EDGE_LOOP('',(#316,#317,#318,#319));
#991=EDGE_LOOP('',(#320,#321,#322,#323));
#992=EDGE_LOOP('',(#324,#325,#326,#327));
#993=EDGE_LOOP('',(#328,#329,#330,#331));
#994=EDGE_LOOP('',(#332,#333,#334,#335));
#995=EDGE_LOOP('',(#336,#337,#338,#339));
#996=EDGE_LOOP('',(#340,#341,#342,#343));
#997=EDGE_LOOP('',(#344,#345,#346,#347));
#998=EDGE_LOOP('',(#348,#349,#350,#351));
#999=EDGE_LOOP('',(#352,#353,#354,#355));
#1000=EDGE_LOOP('',(#356,#357,#358,#359));
#1001=EDGE_LOOP('',(#360,#361,#362,#363));
#1002=EDGE_LOOP('',(#364,#365,#366,#367));
#1003=EDGE_LOOP('',(#368,#369,#370,#371));
#1004=EDGE_LOOP('',(#372,#373,#374,#375));
#1005=EDGE_LOOP('',(#376,#377,#378,#379));
#1006=EDGE_LOOP('',(#380,#381,#382,#383));
#1007=EDGE_LOOP('',(#384,#385,#386,#387));
#1008=EDGE_LOOP('',(#388,#389,#390,#391));
#1009=EDGE_LOOP('',(#392,#393,#394,#395));
#1010=EDGE_LOOP('',(#396,#397,#398,#399));
#1011=EDGE_LOOP('',(#400,#401,#402,#403));
#1012=EDGE_LOOP('',(#404,#405,#406,#407));
#1013=EDGE_LOOP('',(#408,#409,#410,#411));
#1014=EDGE_LOOP('',(#412,#413,#414,#415));
#1015=EDGE_LOOP('',(#416,#417,#418,#419));
#1016=FACE_BOUND('',#932,.T.);
#1017=FACE_BOUND('',#933,.T.);
#1018=FACE_BOUND('',#934,.T.);
#1019=FACE_BOUND('',#935,.T.);
#1020=FACE_BOUND('',#936,.T.);
#1021=FACE_BOUND('',#937,.T.);
#1022=FACE_BOUND('',#938,.T.);
#1023=FACE_BOUND('',#939,.T.);
#1024=FACE_BOUND('',#940,.T.);
#1025=FACE_BOUND('',#941,.T.);
#1026=FACE_BOUND('',#942,.T.);
#1027=FACE_BOUND('',#943,.T.);
#1028=FACE_BOUND('',#944,.T.);
#1029=FACE_BOUND('',#945,.T.);
#1030=FACE_BOUND('',#946,.T.);
#1031=FACE_BOUND('',#947,.T.);
#1032=FACE_BOUND('',#948,.T.);
#1033=FACE_BOUND('',#949,.T.);
#1034=FACE_BOUND('',#950,.T.);
#1035=FACE_BOUND('',#951,.T.);
#1036=FACE_BOUND('',#952,.T.);
#1037=FACE_BOUND('',#953,.T.);
#1038=FACE_BOUND('',#954,.T.);
#1039=FACE_BOUND('',#955,.T.);
#1040=FACE_BOUND('',#956,.T.);
#1041=FACE_BOUND('',#957,.T.);
#1042=FACE_BOUND('',#958,.T.);
#1043=FACE_BOUND('',#959,.T.);
#1044=FACE_BOUND('',#960,.T.);
#1045=FACE_BOUND('',#961,.T.);
#1046=FACE_BOUND('',#962,.T.);
#1047=FACE_BOUND('',#963,.T.);
#1048=FACE_BOUND('',#964,.T.);
#1049=FACE_BOUND('',#965,.T.);
#1050=FACE_BOUND('',#966,.T.);
#1051=FACE_BOUND('',#967,.T.);
#1052=FACE_BOUND('',#968,.T.);
#1053=FACE_BOUND('',#969,.T.);
#1054=FACE_BOUND('',#970,.T.);
#1055=FACE_BOUND('',#971,.T.);
#1056=FACE_BOUND('',#972,.T.);
#1057=FACE_BOUND('',#973,.T.);
#1058=FACE_BOUND('',#974,.T.);
#1059=FACE_BOUND('',#975,.T.);
#1060=FACE_BOUND('',#976,.T.);
#1061=FACE_BOUND('',#977,.T.);
#1062=FACE_BOUND('',#978,.T.);
#1063=FACE_BOUND('',#979,.T.);
#1064=FACE_BOUND('',#980,.T.);
#1065=FACE_BOUND('',#981,.T.);
#1066=FACE_BOUND('',#982,.T.);
#1067=FACE_BOUND('',#983,.T.);
#1068=FACE_BOUND('',#984,.T.);
#1069=FACE_BOUND('',#985,.T.);
#1070=FACE_BOUND('',#986,.T.);
#1071=FACE_BOUND('',#987,.T.);
#1072=FACE_BOUND('',#988,.T.);
#1073=FACE_BOUND('',#989,.T.);
#1074=FACE_BOUND('',#990,.T.);
#1075=FACE_BOUND('',#991,.T.);
#1076=FACE_BOUND('',#992,.T.);
#1077=FACE_BOUND('',#993,.T.);
#1078=FACE_BOUND('',#994,.T.);
#1079=FACE_BOUND('',#995,.T.);
#1080=FACE_BOUND('',#996,.T.);
#1081=FACE_BOUND('',#997,.T.);
#1082=FACE_BOUND('',#998,.T.);
#1083=FACE_BOUND('',#999,.T.);
#1084=FACE_BOUND('',#1000,.T.);
#1085=FACE_BOUND('',#1001,.T.);
#1086=FACE_BOUND('',#1002,.T.);
#1087=FACE_BOUND('',#1003,.T.);
#1088=FACE_BOUND('',#1004,.T.);
#1089=FACE_BOUND('',#1005,.T.);
#1090=FACE_BOUND('',#1006,.T.);
#1091=FACE_BOUND('',#1007,.T.);
#1092=FACE_BOUND('',#1008,.T.);
#1093=FACE_BOUND('',#1009,.T.);
#1094=FACE_BOUND('',#1010,.T.);
#1095=FACE_BOUND('',#1011,.T.);
#1096=FACE_BOUND('',#1012,.T.);
#1097=FACE_BOUND('',#1013,.T.);
#1098=FACE_BOUND('',#1014,.T.);
#1099=FACE_BOUND('',#1015,.T.);
#1100=PLANE('',#1227);
#1101=PLANE('',#1228);
#1102=PLANE('',#1229);
#1103=PLANE('',#1230);
#1104=PLANE('',#1231);
#1105=PLANE('',#1244);
#1106=PLANE('',#1265);
#1107=PLANE('',#1268);
#1108=PLANE('',#1271);
#1109=PLANE('',#1274);
#1110=PLANE('',#1277);
#1111=PLANE('',#1280);
#1112=PLANE('',#1281);
#1113=PLANE('',#1283);
#1114=PLANE('',#1284);
#1115=PLANE('',#1285);
#1116=PLANE('',#1286);
#1117=PLANE('',#1287);
#1118=PLANE('',#1288);
#1119=PLANE('',#1290);
#1120=PLANE('',#1292);
#1121=PLANE('',#1294);
#1122=PLANE('',#1301);
#1123=PLANE('',#1302);
#1124=PLANE('',#1303);
#1125=PLANE('',#1305);
#1126=PLANE('',#1306);
#1127=PLANE('',#1307);
#1128=PLANE('',#1308);
#1129=PLANE('',#1309);
#1130=PLANE('',#1310);
#1131=PLANE('',#1312);
#1132=PLANE('',#1314);
#1133=PLANE('',#1316);
#1134=PLANE('',#1323);
#1135=PLANE('',#1324);
#1136=PLANE('',#1329);
#1137=PLANE('',#1330);
#1138=PLANE('',#1331);
#1139=PLANE('',#1332);
#1140=PLANE('',#1333);
#1141=PLANE('',#1335);
#1142=PLANE('',#1337);
#1143=PLANE('',#1338);
#1144=PLANE('',#1339);
#1145=PLANE('',#1340);
#1146=PLANE('',#1341);
#1147=PLANE('',#1346);
#1148=ADVANCED_FACE('',(#1016),#1100,.F.);
#1149=ADVANCED_FACE('',(#1017),#1101,.F.);
#1150=ADVANCED_FACE('',(#1018),#1102,.F.);
#1151=ADVANCED_FACE('',(#1019),#1103,.F.);
#1152=ADVANCED_FACE('',(#1020,#1021,#1022,#1023),#1104,.F.);
#1153=ADVANCED_FACE('',(#1024,#1025,#1026,#1027,#1028,#1029,#1030,#1031,
#1032,#1033),#1105,.T.);
#1154=ADVANCED_FACE('',(#1034,#1035),#12,.T.);
#1155=ADVANCED_FACE('',(#1036),#1106,.T.);
#1156=ADVANCED_FACE('',(#1037,#1038),#13,.T.);
#1157=ADVANCED_FACE('',(#1039),#1107,.F.);
#1158=ADVANCED_FACE('',(#1040,#1041),#14,.T.);
#1159=ADVANCED_FACE('',(#1042),#1108,.T.);
#1160=ADVANCED_FACE('',(#1043,#1044),#15,.T.);
#1161=ADVANCED_FACE('',(#1045),#1109,.F.);
#1162=ADVANCED_FACE('',(#1046,#1047),#16,.T.);
#1163=ADVANCED_FACE('',(#1048),#1110,.T.);
#1164=ADVANCED_FACE('',(#1049,#1050),#17,.T.);
#1165=ADVANCED_FACE('',(#1051),#1111,.F.);
#1166=ADVANCED_FACE('',(#1052),#1112,.T.);
#1167=ADVANCED_FACE('',(#1053),#1113,.F.);
#1168=ADVANCED_FACE('',(#1054),#1114,.F.);
#1169=ADVANCED_FACE('',(#1055),#1115,.T.);
#1170=ADVANCED_FACE('',(#1056),#1116,.F.);
#1171=ADVANCED_FACE('',(#1057),#1117,.F.);
#1172=ADVANCED_FACE('',(#1058),#1118,.F.);
#1173=ADVANCED_FACE('',(#1059),#18,.F.);
#1174=ADVANCED_FACE('',(#1060),#1119,.T.);
#1175=ADVANCED_FACE('',(#1061),#1120,.T.);
#1176=ADVANCED_FACE('',(#1062),#19,.F.);
#1177=ADVANCED_FACE('',(#1063),#1121,.F.);
#1178=ADVANCED_FACE('',(#1064),#20,.F.);
#1179=ADVANCED_FACE('',(#1065),#21,.F.);
#1180=ADVANCED_FACE('',(#1066),#1122,.T.);
#1181=ADVANCED_FACE('',(#1067),#1123,.T.);
#1182=ADVANCED_FACE('',(#1068),#1124,.T.);
#1183=ADVANCED_FACE('',(#1069),#1125,.F.);
#1184=ADVANCED_FACE('',(#1070),#1126,.F.);
#1185=ADVANCED_FACE('',(#1071),#1127,.T.);
#1186=ADVANCED_FACE('',(#1072),#1128,.F.);
#1187=ADVANCED_FACE('',(#1073),#1129,.F.);
#1188=ADVANCED_FACE('',(#1074),#1130,.F.);
#1189=ADVANCED_FACE('',(#1075),#22,.F.);
#1190=ADVANCED_FACE('',(#1076),#1131,.T.);
#1191=ADVANCED_FACE('',(#1077),#1132,.T.);
#1192=ADVANCED_FACE('',(#1078),#23,.F.);
#1193=ADVANCED_FACE('',(#1079),#1133,.F.);
#1194=ADVANCED_FACE('',(#1080),#24,.F.);
#1195=ADVANCED_FACE('',(#1081),#25,.F.);
#1196=ADVANCED_FACE('',(#1082),#1134,.T.);
#1197=ADVANCED_FACE('',(#1083),#1135,.T.);
#1198=ADVANCED_FACE('',(#1084),#26,.F.);
#1199=ADVANCED_FACE('',(#1085),#27,.F.);
#1200=ADVANCED_FACE('',(#1086),#1136,.T.);
#1201=ADVANCED_FACE('',(#1087),#1137,.F.);
#1202=ADVANCED_FACE('',(#1088),#1138,.T.);
#1203=ADVANCED_FACE('',(#1089),#1139,.T.);
#1204=ADVANCED_FACE('',(#1090),#1140,.T.);
#1205=ADVANCED_FACE('',(#1091),#1141,.T.);
#1206=ADVANCED_FACE('',(#1092),#1142,.F.);
#1207=ADVANCED_FACE('',(#1093),#1143,.F.);
#1208=ADVANCED_FACE('',(#1094),#1144,.F.);
#1209=ADVANCED_FACE('',(#1095),#1145,.T.);
#1210=ADVANCED_FACE('',(#1096),#1146,.F.);
#1211=ADVANCED_FACE('',(#1097),#28,.F.);
#1212=ADVANCED_FACE('',(#1098),#29,.F.);
#1213=ADVANCED_FACE('',(#1099),#1147,.F.);
#1214=CLOSED_SHELL('',(#1148,#1149,#1150,#1151,#1152,#1153,#1154,#1155,
#1156,#1157,#1158,#1159,#1160,#1161,#1162,#1163,#1164,#1165,#1166,#1167,
#1168,#1169,#1170,#1171,#1172,#1173,#1174,#1175,#1176,#1177,#1178,#1179,
#1180,#1181,#1182,#1183,#1184,#1185,#1186,#1187,#1188,#1189,#1190,#1191,
#1192,#1193,#1194,#1195,#1196,#1197,#1198,#1199,#1200,#1201,#1202,#1203,
#1204,#1205,#1206,#1207,#1208,#1209,#1210,#1211,#1212,#1213));
#1215=STYLED_ITEM('',(#1216),#1223);
#1216=PRESENTATION_STYLE_ASSIGNMENT((#1217));
#1217=SURFACE_STYLE_USAGE(.BOTH.,#1218);
#1218=SURFACE_SIDE_STYLE('',(#1219));
#1219=SURFACE_STYLE_FILL_AREA(#1220);
#1220=FILL_AREA_STYLE('',(#1221));
#1221=FILL_AREA_STYLE_COLOUR('',#1222);
#1222=DRAUGHTING_PRE_DEFINED_COLOUR('red');
#1223=MANIFOLD_SOLID_BREP('Palm_pinky',#1214);
#1224=SHAPE_DEFINITION_REPRESENTATION(#2060,#1225);
#1225=SHAPE_REPRESENTATION('Palm_pinky',(#1226),#2055);
#1226=AXIS2_PLACEMENT_3D('',#1703,#1347,#1348);
#1227=AXIS2_PLACEMENT_3D('',#1704,#1349,#1350);
#1228=AXIS2_PLACEMENT_3D('',#1713,#1355,#1356);
#1229=AXIS2_PLACEMENT_3D('',#1719,#1360,#1361);
#1230=AXIS2_PLACEMENT_3D('',#1725,#1365,#1366);
#1231=AXIS2_PLACEMENT_3D('',#1728,#1369,#1370);
#1232=AXIS2_PLACEMENT_3D('',#1738,#1375,#1376);
#1233=AXIS2_PLACEMENT_3D('',#1746,#1380,#1381);
#1234=AXIS2_PLACEMENT_3D('',#1750,#1383,#1384);
#1235=AXIS2_PLACEMENT_3D('',#1758,#1388,#1389);
#1236=AXIS2_PLACEMENT_3D('',#1770,#1395,#1396);
#1237=AXIS2_PLACEMENT_3D('',#1778,#1400,#1401);
#1238=AXIS2_PLACEMENT_3D('',#1782,#1403,#1404);
#1239=AXIS2_PLACEMENT_3D('',#1790,#1408,#1409);
#1240=AXIS2_PLACEMENT_3D('',#1802,#1415,#1416);
#1241=AXIS2_PLACEMENT_3D('',#1810,#1420,#1421);
#1242=AXIS2_PLACEMENT_3D('',#1814,#1423,#1424);
#1243=AXIS2_PLACEMENT_3D('',#1822,#1428,#1429);
#1244=AXIS2_PLACEMENT_3D('',#1825,#1431,#1432);
#1245=AXIS2_PLACEMENT_3D('',#1833,#1436,#1437);
#1246=AXIS2_PLACEMENT_3D('',#1841,#1441,#1442);
#1247=AXIS2_PLACEMENT_3D('',#1845,#1444,#1445);
#1248=AXIS2_PLACEMENT_3D('',#1853,#1449,#1450);
#1249=AXIS2_PLACEMENT_3D('',#1865,#1456,#1457);
#1250=AXIS2_PLACEMENT_3D('',#1873,#1461,#1462);
#1251=AXIS2_PLACEMENT_3D('',#1877,#1464,#1465);
#1252=AXIS2_PLACEMENT_3D('',#1885,#1469,#1470);
#1253=AXIS2_PLACEMENT_3D('',#1897,#1476,#1477);
#1254=AXIS2_PLACEMENT_3D('',#1905,#1481,#1482);
#1255=AXIS2_PLACEMENT_3D('',#1909,#1484,#1485);
#1256=AXIS2_PLACEMENT_3D('',#1917,#1489,#1490);
#1257=AXIS2_PLACEMENT_3D('',#1922,#1493,#1494);
#1258=AXIS2_PLACEMENT_3D('',#1924,#1495,#1496);
#1259=AXIS2_PLACEMENT_3D('',#1926,#1497,#1498);
#1260=AXIS2_PLACEMENT_3D('',#1928,#1499,#1500);
#1261=AXIS2_PLACEMENT_3D('',#1930,#1501,#1502);
#1262=AXIS2_PLACEMENT_3D('',#1932,#1503,#1504);
#1263=AXIS2_PLACEMENT_3D('',#1934,#1505,#1506);
#1264=AXIS2_PLACEMENT_3D('',#1935,#1507,#1508);
#1265=AXIS2_PLACEMENT_3D('',#1937,#1509,#1510);
#1266=AXIS2_PLACEMENT_3D('',#1938,#1511,#1512);
#1267=AXIS2_PLACEMENT_3D('',#1939,#1513,#1514);
#1268=AXIS2_PLACEMENT_3D('',#1941,#1515,#1516);
#1269=AXIS2_PLACEMENT_3D('',#1942,#1517,#1518);
#1270=AXIS2_PLACEMENT_3D('',#1943,#1519,#1520);
#1271=AXIS2_PLACEMENT_3D('',#1945,#1521,#1522);
#1272=AXIS2_PLACEMENT_3D('',#1946,#1523,#1524);
#1273=AXIS2_PLACEMENT_3D('',#1947,#1525,#1526);
#1274=AXIS2_PLACEMENT_3D('',#1949,#1527,#1528);
#1275=AXIS2_PLACEMENT_3D('',#1950,#1529,#1530);
#1276=AXIS2_PLACEMENT_3D('',#1951,#1531,#1532);
#1277=AXIS2_PLACEMENT_3D('',#1953,#1533,#1534);
#1278=AXIS2_PLACEMENT_3D('',#1954,#1535,#1536);
#1279=AXIS2_PLACEMENT_3D('',#1955,#1537,#1538);
#1280=AXIS2_PLACEMENT_3D('',#1957,#1539,#1540);
#1281=AXIS2_PLACEMENT_3D('',#1958,#1541,#1542);
#1282=AXIS2_PLACEMENT_3D('',#1960,#1544,#1545);
#1283=AXIS2_PLACEMENT_3D('',#1961,#1546,#1547);
#1284=AXIS2_PLACEMENT_3D('',#1963,#1549,#1550);
#1285=AXIS2_PLACEMENT_3D('',#1966,#1553,#1554);
#1286=AXIS2_PLACEMENT_3D('',#1968,#1556,#1557);
#1287=AXIS2_PLACEMENT_3D('',#1970,#1559,#1560);
#1288=AXIS2_PLACEMENT_3D('',#1972,#1562,#1563);
#1289=AXIS2_PLACEMENT_3D('',#1974,#1565,#1566);
#1290=AXIS2_PLACEMENT_3D('',#1975,#1567,#1568);
#1291=AXIS2_PLACEMENT_3D('',#1976,#1569,#1570);
#1292=AXIS2_PLACEMENT_3D('',#1978,#1572,#1573);
#1293=AXIS2_PLACEMENT_3D('',#1980,#1575,#1576);
#1294=AXIS2_PLACEMENT_3D('',#1981,#1577,#1578);
#1295=AXIS2_PLACEMENT_3D('',#1982,#1579,#1580);
#1296=AXIS2_PLACEMENT_3D('',#1983,#1581,#1582);
#1297=AXIS2_PLACEMENT_3D('',#1984,#1583,#1584);
#1298=AXIS2_PLACEMENT_3D('',#1985,#1585,#1586);
#1299=AXIS2_PLACEMENT_3D('',#1986,#1587,#1588);
#1300=AXIS2_PLACEMENT_3D('',#1987,#1589,#1590);
#1301=AXIS2_PLACEMENT_3D('',#1988,#1591,#1592);
#1302=AXIS2_PLACEMENT_3D('',#1989,#1593,#1594);
#1303=AXIS2_PLACEMENT_3D('',#1990,#1595,#1596);
#1304=AXIS2_PLACEMENT_3D('',#1992,#1598,#1599);
#1305=AXIS2_PLACEMENT_3D('',#1993,#1600,#1601);
#1306=AXIS2_PLACEMENT_3D('',#1995,#1603,#1604);
#1307=AXIS2_PLACEMENT_3D('',#1998,#1607,#1608);
#1308=AXIS2_PLACEMENT_3D('',#2000,#1610,#1611);
#1309=AXIS2_PLACEMENT_3D('',#2002,#1613,#1614);
#1310=AXIS2_PLACEMENT_3D('',#2004,#1616,#1617);
#1311=AXIS2_PLACEMENT_3D('',#2006,#1619,#1620);
#1312=AXIS2_PLACEMENT_3D('',#2007,#1621,#1622);
#1313=AXIS2_PLACEMENT_3D('',#2008,#1623,#1624);
#1314=AXIS2_PLACEMENT_3D('',#2010,#1626,#1627);
#1315=AXIS2_PLACEMENT_3D('',#2012,#1629,#1630);
#1316=AXIS2_PLACEMENT_3D('',#2013,#1631,#1632);
#1317=AXIS2_PLACEMENT_3D('',#2014,#1633,#1634);
#1318=AXIS2_PLACEMENT_3D('',#2015,#1635,#1636);
#1319=AXIS2_PLACEMENT_3D('',#2016,#1637,#1638);
#1320=AXIS2_PLACEMENT_3D('',#2017,#1639,#1640);
#1321=AXIS2_PLACEMENT_3D('',#2018,#1641,#1642);
#1322=AXIS2_PLACEMENT_3D('',#2019,#1643,#1644);
#1323=AXIS2_PLACEMENT_3D('',#2020,#1645,#1646);
#1324=AXIS2_PLACEMENT_3D('',#2021,#1647,#1648);
#1325=AXIS2_PLACEMENT_3D('',#2022,#1649,#1650);
#1326=AXIS2_PLACEMENT_3D('',#2024,#1652,#1653);
#1327=AXIS2_PLACEMENT_3D('',#2025,#1654,#1655);
#1328=AXIS2_PLACEMENT_3D('',#2026,#1656,#1657);
#1329=AXIS2_PLACEMENT_3D('',#2028,#1659,#1660);
#1330=AXIS2_PLACEMENT_3D('',#2031,#1663,#1664);
#1331=AXIS2_PLACEMENT_3D('',#2034,#1667,#1668);
#1332=AXIS2_PLACEMENT_3D('',#2035,#1669,#1670);
#1333=AXIS2_PLACEMENT_3D('',#2036,#1671,#1672);
#1334=AXIS2_PLACEMENT_3D('',#2037,#1673,#1674);
#1335=AXIS2_PLACEMENT_3D('',#2038,#1675,#1676);
#1336=AXIS2_PLACEMENT_3D('',#2039,#1677,#1678);
#1337=AXIS2_PLACEMENT_3D('',#2040,#1679,#1680);
#1338=AXIS2_PLACEMENT_3D('',#2042,#1682,#1683);
#1339=AXIS2_PLACEMENT_3D('',#2044,#1685,#1686);
#1340=AXIS2_PLACEMENT_3D('',#2046,#1688,#1689);
#1341=AXIS2_PLACEMENT_3D('',#2048,#1691,#1692);
#1342=AXIS2_PLACEMENT_3D('',#2049,#1693,#1694);
#1343=AXIS2_PLACEMENT_3D('',#2050,#1695,#1696);
#1344=AXIS2_PLACEMENT_3D('',#2051,#1697,#1698);
#1345=AXIS2_PLACEMENT_3D('',#2052,#1699,#1700);
#1346=AXIS2_PLACEMENT_3D('',#2053,#1701,#1702);
#1347=DIRECTION('',(0.,0.,1.));
#1348=DIRECTION('',(1.,0.,0.));
#1349=DIRECTION('',(1.,0.,0.));
#1350=DIRECTION('',(0.,1.,0.));
#1351=DIRECTION('',(0.,-1.,0.));
#1352=DIRECTION('',(0.,0.,-1.));
#1353=DIRECTION('',(0.,-1.,0.));
#1354=DIRECTION('',(0.,0.,-1.));
#1355=DIRECTION('',(0.,1.,0.));
#1356=DIRECTION('',(-1.,0.,0.));
#1357=DIRECTION('',(1.,0.,0.));
#1358=DIRECTION('',(0.,0.,-1.));
#1359=DIRECTION('',(1.,0.,0.));
#1360=DIRECTION('',(-1.,0.,0.));
#1361=DIRECTION('',(0.,-1.,0.));
#1362=DIRECTION('',(0.,1.,0.));
#1363=DIRECTION('',(0.,0.,-1.));
#1364=DIRECTION('',(0.,1.,0.));
#1365=DIRECTION('',(0.,-1.,0.));
#1366=DIRECTION('',(1.,0.,0.));
#1367=DIRECTION('',(-1.,0.,0.));
#1368=DIRECTION('',(-1.,0.,0.));
#1369=DIRECTION('',(0.,0.,-1.));
#1370=DIRECTION('',(0.,1.,0.));
#1371=DIRECTION('',(-1.08246744900953E-15,1.,0.));
#1372=DIRECTION('',(-1.,-1.25375875614318E-15,0.));
#1373=DIRECTION('',(-1.08246744900953E-15,1.,0.));
#1374=DIRECTION('',(1.,6.06096223751147E-16,0.));
#1375=DIRECTION('',(0.,0.,-1.));
#1376=DIRECTION('',(1.25375875614318E-15,-1.,0.));
#1377=DIRECTION('',(1.,1.25375875614318E-15,0.));
#1378=DIRECTION('',(1.16386530703185E-15,-1.,0.));
#1379=DIRECTION('',(-1.,-1.25375875614318E-15,0.));
#1380=DIRECTION('',(0.,0.,-1.));
#1381=DIRECTION('',(1.25375875614318E-15,-1.,0.));
#1382=DIRECTION('',(1.,1.25375875614318E-15,0.));
#1383=DIRECTION('',(0.,0.,-1.));
#1384=DIRECTION('',(1.25375875614318E-15,-1.,0.));
#1385=DIRECTION('',(-1.,-1.25375875614318E-15,0.));
#1386=DIRECTION('',(1.20456423604301E-15,-1.,0.));
#1387=DIRECTION('',(1.,1.25375875614318E-15,0.));
#1388=DIRECTION('',(0.,0.,-1.));
#1389=DIRECTION('',(1.25375875614318E-15,-1.,0.));
#1390=DIRECTION('',(1.,6.06096223751147E-16,0.));
#1391=DIRECTION('',(-1.08246744900953E-15,1.,0.));
#1392=DIRECTION('',(-1.,-1.25375875614318E-15,0.));
#1393=DIRECTION('',(-1.08246744900953E-15,1.,0.));
#1394=DIRECTION('',(1.,6.06096223751147E-16,0.));
#1395=DIRECTION('',(0.,0.,-1.));
#1396=DIRECTION('',(1.25375875614318E-15,-1.,0.));
#1397=DIRECTION('',(1.,1.25375875614318E-15,0.));
#1398=DIRECTION('',(1.16386530703185E-15,-1.,0.));
#1399=DIRECTION('',(-1.,-1.25375875614318E-15,0.));
#1400=DIRECTION('',(0.,0.,-1.));
#1401=DIRECTION('',(1.25375875614318E-15,-1.,0.));
#1402=DIRECTION('',(1.,1.25375875614318E-15,0.));
#1403=DIRECTION('',(0.,0.,-1.));
#1404=DIRECTION('',(1.25375875614318E-15,-1.,0.));
#1405=DIRECTION('',(-1.,-1.25375875614318E-15,0.));
#1406=DIRECTION('',(1.20456423604301E-15,-1.,0.));
#1407=DIRECTION('',(1.,1.25375875614318E-15,0.));
#1408=DIRECTION('',(0.,0.,-1.));
#1409=DIRECTION('',(1.25375875614318E-15,-1.,0.));
#1410=DIRECTION('',(1.,6.06096223751147E-16,0.));
#1411=DIRECTION('',(-1.08246744900953E-15,1.,0.));
#1412=DIRECTION('',(-1.,-1.25375875614318E-15,0.));
#1413=DIRECTION('',(-1.08246744900953E-15,1.,0.));
#1414=DIRECTION('',(1.,6.06096223751147E-16,0.));
#1415=DIRECTION('',(0.,0.,-1.));
#1416=DIRECTION('',(1.25375875614318E-15,-1.,0.));
#1417=DIRECTION('',(1.,1.25375875614318E-15,0.));
#1418=DIRECTION('',(1.16386530703185E-15,-1.,0.));
#1419=DIRECTION('',(-1.,-1.25375875614318E-15,0.));
#1420=DIRECTION('',(0.,0.,-1.));
#1421=DIRECTION('',(1.25375875614318E-15,-1.,0.));
#1422=DIRECTION('',(1.,1.25375875614318E-15,0.));
#1423=DIRECTION('',(0.,0.,-1.));
#1424=DIRECTION('',(1.25375875614318E-15,-1.,0.));
#1425=DIRECTION('',(-1.,-1.25375875614318E-15,0.));
#1426=DIRECTION('',(1.20456423604301E-15,-1.,0.));
#1427=DIRECTION('',(1.,1.25375875614318E-15,0.));
#1428=DIRECTION('',(0.,0.,-1.));
#1429=DIRECTION('',(1.25375875614318E-15,-1.,0.));
#1430=DIRECTION('',(1.,6.06096223751147E-16,0.));
#1431=DIRECTION('',(0.,0.,-1.));
#1432=DIRECTION('',(0.,1.,0.));
#1433=DIRECTION('',(-1.,-1.25375875614318E-15,0.));
#1434=DIRECTION('',(-1.08246744900953E-15,1.,0.));
#1435=DIRECTION('',(1.,6.06096223751147E-16,0.));
#1436=DIRECTION('',(0.,0.,-1.));
#1437=DIRECTION('',(1.25375875614318E-15,-1.,0.));
#1438=DIRECTION('',(1.,1.25375875614318E-15,0.));
#1439=DIRECTION('',(1.20456423604301E-15,-1.,0.));
#1440=DIRECTION('',(-1.,-1.25375875614318E-15,0.));
#1441=DIRECTION('',(0.,0.,-1.));
#1442=DIRECTION('',(1.25375875614318E-15,-1.,0.));
#1443=DIRECTION('',(1.,1.25375875614318E-15,0.));
#1444=DIRECTION('',(0.,0.,-1.));
#1445=DIRECTION('',(1.25375875614318E-15,-1.,0.));
#1446=DIRECTION('',(-1.,-1.25375875614318E-15,0.));
#1447=DIRECTION('',(1.16386530703185E-15,-1.,0.));
#1448=DIRECTION('',(1.,1.25375875614318E-15,0.));
#1449=DIRECTION('',(0.,0.,-1.));
#1450=DIRECTION('',(1.25375875614318E-15,-1.,0.));
#1451=DIRECTION('',(1.,6.06096223751147E-16,0.));
#1452=DIRECTION('',(-1.08246744900953E-15,1.,0.));
#1453=DIRECTION('',(-1.,-1.25375875614318E-15,0.));
#1454=DIRECTION('',(-1.08246744900953E-15,1.,0.));
#1455=DIRECTION('',(1.,6.06096223751147E-16,0.));
#1456=DIRECTION('',(0.,0.,-1.));
#1457=DIRECTION('',(1.25375875614318E-15,-1.,0.));
#1458=DIRECTION('',(1.,1.25375875614318E-15,0.));
#1459=DIRECTION('',(1.20456423604301E-15,-1.,0.));
#1460=DIRECTION('',(-1.,-1.25375875614318E-15,0.));
#1461=DIRECTION('',(0.,0.,-1.));
#1462=DIRECTION('',(1.25375875614318E-15,-1.,0.));
#1463=DIRECTION('',(1.,1.25375875614318E-15,0.));
#1464=DIRECTION('',(0.,0.,-1.));
#1465=DIRECTION('',(1.25375875614318E-15,-1.,0.));
#1466=DIRECTION('',(-1.,-1.25375875614318E-15,0.));
#1467=DIRECTION('',(1.16386530703185E-15,-1.,0.));
#1468=DIRECTION('',(1.,1.25375875614318E-15,0.));
#1469=DIRECTION('',(0.,0.,-1.));
#1470=DIRECTION('',(1.25375875614318E-15,-1.,0.));
#1471=DIRECTION('',(1.,6.06096223751147E-16,0.));
#1472=DIRECTION('',(-1.08246744900953E-15,1.,0.));
#1473=DIRECTION('',(-1.,-1.25375875614318E-15,0.));
#1474=DIRECTION('',(-1.08246744900953E-15,1.,0.));
#1475=DIRECTION('',(1.,6.06096223751147E-16,0.));
#1476=DIRECTION('',(0.,0.,-1.));
#1477=DIRECTION('',(1.25375875614318E-15,-1.,0.));
#1478=DIRECTION('',(1.,1.25375875614318E-15,0.));
#1479=DIRECTION('',(1.20456423604301E-15,-1.,0.));
#1480=DIRECTION('',(-1.,-1.25375875614318E-15,0.));
#1481=DIRECTION('',(0.,0.,-1.));
#1482=DIRECTION('',(1.25375875614318E-15,-1.,0.));
#1483=DIRECTION('',(1.,1.25375875614318E-15,0.));
#1484=DIRECTION('',(0.,0.,-1.));
#1485=DIRECTION('',(1.25375875614318E-15,-1.,0.));
#1486=DIRECTION('',(-1.,-1.25375875614318E-15,0.));
#1487=DIRECTION('',(1.16386530703185E-15,-1.,0.));
#1488=DIRECTION('',(1.,1.25375875614318E-15,0.));
#1489=DIRECTION('',(0.,0.,-1.));
#1490=DIRECTION('',(1.25375875614318E-15,-1.,0.));
#1491=DIRECTION('',(1.,6.06096223751147E-16,0.));
#1492=DIRECTION('',(-1.08246744900953E-15,1.,0.));
#1493=DIRECTION('',(0.,0.,-1.));
#1494=DIRECTION('',(0.,-1.,0.));
#1495=DIRECTION('',(0.,0.,-1.));
#1496=DIRECTION('',(0.,1.,0.));
#1497=DIRECTION('',(0.,0.,-1.));
#1498=DIRECTION('',(0.,-1.,0.));
#1499=DIRECTION('',(0.,0.,-1.));
#1500=DIRECTION('',(0.,1.,0.));
#1501=DIRECTION('',(0.,0.,-1.));
#1502=DIRECTION('',(0.,-1.,0.));
#1503=DIRECTION('',(0.,0.,-1.));
#1504=DIRECTION('',(0.,1.,0.));
#1505=DIRECTION('',(0.,0.,1.));
#1506=DIRECTION('',(0.,-1.,0.));
#1507=DIRECTION('',(0.,0.,-1.));
#1508=DIRECTION('',(0.,1.,0.));
#1509=DIRECTION('',(0.,0.,-1.));
#1510=DIRECTION('',(0.,1.,0.));
#1511=DIRECTION('',(0.,0.,1.));
#1512=DIRECTION('',(0.,-1.,0.));
#1513=DIRECTION('',(0.,0.,-1.));
#1514=DIRECTION('',(0.,-1.,0.));
#1515=DIRECTION('',(0.,0.,1.));
#1516=DIRECTION('',(0.,-1.,0.));
#1517=DIRECTION('',(0.,0.,1.));
#1518=DIRECTION('',(0.,-1.,0.));
#1519=DIRECTION('',(0.,0.,-1.));
#1520=DIRECTION('',(0.,1.,0.));
#1521=DIRECTION('',(0.,0.,-1.));
#1522=DIRECTION('',(0.,1.,0.));
#1523=DIRECTION('',(0.,0.,1.));
#1524=DIRECTION('',(0.,-1.,0.));
#1525=DIRECTION('',(0.,0.,-1.));
#1526=DIRECTION('',(0.,-1.,0.));
#1527=DIRECTION('',(0.,0.,1.));
#1528=DIRECTION('',(0.,-1.,0.));
#1529=DIRECTION('',(0.,0.,1.));
#1530=DIRECTION('',(0.,-1.,0.));
#1531=DIRECTION('',(0.,0.,-1.));
#1532=DIRECTION('',(0.,1.,0.));
#1533=DIRECTION('',(0.,0.,-1.));
#1534=DIRECTION('',(0.,1.,0.));
#1535=DIRECTION('',(0.,0.,1.));
#1536=DIRECTION('',(0.,-1.,0.));
#1537=DIRECTION('',(0.,0.,-1.));
#1538=DIRECTION('',(0.,-1.,0.));
#1539=DIRECTION('',(0.,0.,1.));
#1540=DIRECTION('',(0.,-1.,0.));
#1541=DIRECTION('',(-1.07525718324504E-15,0.85762685841793,0.514272468366908));
#1542=DIRECTION('',(-1.,-1.08246744900953E-15,-2.85654073759444E-16));
#1543=DIRECTION('',(-5.49115135177278E-16,0.514272468366908,-0.85762685841793));
#1544=DIRECTION('',(-1.07525718324504E-15,0.85762685841793,0.514272468366908));
#1545=DIRECTION('',(-1.,-1.08246744900953E-15,-2.85654073759444E-16));
#1546=DIRECTION('',(1.,1.20456423604301E-15,8.20392774648518E-17));
#1547=DIRECTION('',(5.49115135177278E-16,-0.514272468366908,0.85762685841793));
#1548=DIRECTION('',(-3.11698601056364E-16,0.514272468366908,-0.85762685841793));
#1549=DIRECTION('',(1.07525718324504E-15,-0.85762685841793,-0.514272468366908));
#1550=DIRECTION('',(1.,1.08246744900953E-15,2.85654073759444E-16));
#1551=DIRECTION('',(3.11698601056364E-16,-0.514272468366908,0.85762685841793));
#1552=DIRECTION('',(3.11698601056364E-16,-0.514272468366908,0.85762685841793));
#1553=DIRECTION('',(-1.,-1.08246744900953E-15,-2.85654073759444E-16));
#1554=DIRECTION('',(1.07525718324504E-15,-0.85762685841793,-0.514272468366908));
#1555=DIRECTION('',(-1.07525718324504E-15,0.85762685841793,0.514272468366908));
#1556=DIRECTION('',(-1.,-1.08246744900953E-15,-2.85654073759444E-16));
#1557=DIRECTION('',(1.07525718324504E-15,-0.85762685841793,-0.514272468366908));
#1558=DIRECTION('',(-1.07525718324504E-15,0.85762685841793,0.514272468366908));
#1559=DIRECTION('',(-3.11698601056364E-16,0.514272468366908,-0.85762685841793));
#1560=DIRECTION('',(-1.07525718324504E-15,0.85762685841793,0.514272468366908));
#1561=DIRECTION('',(1.07525718324504E-15,-0.85762685841793,-0.514272468366908));
#1562=DIRECTION('',(-3.11698601056364E-16,0.514272468366908,-0.85762685841793));
#1563=DIRECTION('',(-1.07525718324504E-15,0.85762685841793,0.514272468366908));
#1564=DIRECTION('',(1.07525718324504E-15,-0.85762685841793,-0.514272468366908));
#1565=DIRECTION('',(1.07525718324504E-15,-0.85762685841793,-0.514272468366908));
#1566=DIRECTION('',(1.,1.08246744900953E-15,2.85654073759444E-16));
#1567=DIRECTION('',(-1.07525718324504E-15,0.85762685841793,0.514272468366908));
#1568=DIRECTION('',(-1.,-1.08246744900953E-15,-2.85654073759444E-16));
#1569=DIRECTION('',(-1.07525718324504E-15,0.85762685841793,0.514272468366908));
#1570=DIRECTION('',(-1.,-1.08246744900953E-15,-2.85654073759444E-16));
#1571=DIRECTION('',(-4.69976290470307E-16,0.514272468366908,-0.85762685841793));
#1572=DIRECTION('',(1.,1.16386530703185E-15,1.49910876229716E-16));
#1573=DIRECTION('',(4.69976290470306E-16,-0.514272468366908,0.85762685841793));
#1574=DIRECTION('',(6.28253979884249E-16,-0.514272468366908,0.85762685841793));
#1575=DIRECTION('',(1.07525718324504E-15,-0.85762685841793,-0.514272468366908));
#1576=DIRECTION('',(1.,1.08246744900953E-15,2.85654073759444E-16));
#1577=DIRECTION('',(-1.07525718324504E-15,0.85762685841793,0.514272468366908));
#1578=DIRECTION('',(-1.,-1.08246744900953E-15,-2.85654073759444E-16));
#1579=DIRECTION('',(-1.07525718324504E-15,0.85762685841793,0.514272468366908));
#1580=DIRECTION('',(-1.,-1.08246744900953E-15,-2.85654073759444E-16));
#1581=DIRECTION('',(-1.07525718324504E-15,0.85762685841793,0.514272468366908));
#1582=DIRECTION('',(-1.,-1.08246744900953E-15,-2.85654073759444E-16));
#1583=DIRECTION('',(1.07525718324504E-15,-0.85762685841793,-0.514272468366908));
#1584=DIRECTION('',(1.,1.08246744900953E-15,2.85654073759444E-16));
#1585=DIRECTION('',(-1.07525718324504E-15,0.85762685841793,0.514272468366908));
#1586=DIRECTION('',(-1.,-1.08246744900953E-15,-2.85654073759444E-16));
#1587=DIRECTION('',(1.07525718324504E-15,-0.85762685841793,-0.514272468366908));
#1588=DIRECTION('',(1.,1.08246744900953E-15,2.85654073759444E-16));
#1589=DIRECTION('',(-1.07525718324504E-15,0.85762685841793,0.514272468366908));
#1590=DIRECTION('',(-1.,-1.08246744900953E-15,-2.85654073759444E-16));
#1591=DIRECTION('',(1.07525718324504E-15,-0.85762685841793,-0.514272468366908));
#1592=DIRECTION('',(1.,1.08246744900953E-15,2.85654073759444E-16));
#1593=DIRECTION('',(1.07525718324504E-15,-0.85762685841793,-0.514272468366908));
#1594=DIRECTION('',(1.,1.08246744900953E-15,2.85654073759444E-16));
#1595=DIRECTION('',(-1.07525718324504E-15,0.85762685841793,0.514272468366908));
#1596=DIRECTION('',(-1.,-1.08246744900953E-15,-2.85654073759444E-16));
#1597=DIRECTION('',(-5.49115135177278E-16,0.514272468366908,-0.85762685841793));
#1598=DIRECTION('',(-1.07525718324504E-15,0.85762685841793,0.514272468366908));
#1599=DIRECTION('',(-1.,-1.08246744900953E-15,-2.85654073759444E-16));
#1600=DIRECTION('',(1.,1.20456423604301E-15,8.20392774648518E-17));
#1601=DIRECTION('',(5.49115135177278E-16,-0.514272468366908,0.85762685841793));
#1602=DIRECTION('',(-3.11698601056364E-16,0.514272468366908,-0.85762685841793));
#1603=DIRECTION('',(1.07525718324504E-15,-0.85762685841793,-0.514272468366908));
#1604=DIRECTION('',(1.,1.08246744900953E-15,2.85654073759444E-16));
#1605=DIRECTION('',(3.11698601056364E-16,-0.514272468366908,0.85762685841793));
#1606=DIRECTION('',(3.11698601056364E-16,-0.514272468366908,0.85762685841793));
#1607=DIRECTION('',(-1.,-1.08246744900953E-15,-2.85654073759444E-16));
#1608=DIRECTION('',(1.07525718324504E-15,-0.85762685841793,-0.514272468366908));
#1609=DIRECTION('',(-1.07525718324504E-15,0.85762685841793,0.514272468366908));
#1610=DIRECTION('',(-1.,-1.08246744900953E-15,-2.85654073759444E-16));
#1611=DIRECTION('',(1.07525718324504E-15,-0.85762685841793,-0.514272468366908));
#1612=DIRECTION('',(-1.07525718324504E-15,0.85762685841793,0.514272468366908));
#1613=DIRECTION('',(-3.11698601056364E-16,0.514272468366908,-0.85762685841793));
#1614=DIRECTION('',(-1.07525718324504E-15,0.85762685841793,0.514272468366908));
#1615=DIRECTION('',(1.07525718324504E-15,-0.85762685841793,-0.514272468366908));
#1616=DIRECTION('',(-3.11698601056364E-16,0.514272468366908,-0.85762685841793));
#1617=DIRECTION('',(-1.07525718324504E-15,0.85762685841793,0.514272468366908));
#1618=DIRECTION('',(1.07525718324504E-15,-0.85762685841793,-0.514272468366908));
#1619=DIRECTION('',(1.07525718324504E-15,-0.85762685841793,-0.514272468366908));
#1620=DIRECTION('',(1.,1.08246744900953E-15,2.85654073759444E-16));
#1621=DIRECTION('',(-1.07525718324504E-15,0.85762685841793,0.514272468366908));
#1622=DIRECTION('',(-1.,-1.08246744900953E-15,-2.85654073759444E-16));
#1623=DIRECTION('',(-1.07525718324504E-15,0.85762685841793,0.514272468366908));
#1624=DIRECTION('',(-1.,-1.08246744900953E-15,-2.85654073759444E-16));
#1625=DIRECTION('',(-4.69976290470307E-16,0.514272468366908,-0.85762685841793));
#1626=DIRECTION('',(1.,1.16386530703185E-15,1.49910876229716E-16));
#1627=DIRECTION('',(4.69976290470306E-16,-0.514272468366908,0.85762685841793));
#1628=DIRECTION('',(6.28253979884249E-16,-0.514272468366908,0.85762685841793));
#1629=DIRECTION('',(1.07525718324504E-15,-0.85762685841793,-0.514272468366908));
#1630=DIRECTION('',(1.,1.08246744900953E-15,2.85654073759444E-16));
#1631=DIRECTION('',(-1.07525718324504E-15,0.85762685841793,0.514272468366908));
#1632=DIRECTION('',(-1.,-1.08246744900953E-15,-2.85654073759444E-16));
#1633=DIRECTION('',(-1.07525718324504E-15,0.85762685841793,0.514272468366908));
#1634=DIRECTION('',(-1.,-1.08246744900953E-15,-2.85654073759444E-16));
#1635=DIRECTION('',(-1.07525718324504E-15,0.85762685841793,0.514272468366908));
#1636=DIRECTION('',(-1.,-1.08246744900953E-15,-2.85654073759444E-16));
#1637=DIRECTION('',(1.07525718324504E-15,-0.85762685841793,-0.514272468366908));
#1638=DIRECTION('',(1.,1.08246744900953E-15,2.85654073759444E-16));
#1639=DIRECTION('',(-1.07525718324504E-15,0.85762685841793,0.514272468366908));
#1640=DIRECTION('',(-1.,-1.08246744900953E-15,-2.85654073759444E-16));
#1641=DIRECTION('',(1.07525718324504E-15,-0.85762685841793,-0.514272468366908));
#1642=DIRECTION('',(1.,1.08246744900953E-15,2.85654073759444E-16));
#1643=DIRECTION('',(-1.07525718324504E-15,0.85762685841793,0.514272468366908));
#1644=DIRECTION('',(-1.,-1.08246744900953E-15,-2.85654073759444E-16));
#1645=DIRECTION('',(1.07525718324504E-15,-0.85762685841793,-0.514272468366908));
#1646=DIRECTION('',(1.,1.08246744900953E-15,2.85654073759444E-16));
#1647=DIRECTION('',(1.07525718324504E-15,-0.85762685841793,-0.514272468366908));
#1648=DIRECTION('',(1.,1.08246744900953E-15,2.85654073759444E-16));
#1649=DIRECTION('',(1.07525718324504E-15,-0.85762685841793,-0.514272468366908));
#1650=DIRECTION('',(1.,1.08246744900953E-15,2.85654073759444E-16));
#1651=DIRECTION('',(1.07525718324504E-15,-0.85762685841793,-0.514272468366908));
#1652=DIRECTION('',(-1.07525718324504E-15,0.85762685841793,0.514272468366908));
#1653=DIRECTION('',(-1.,-1.08246744900953E-15,-2.85654073759444E-16));
#1654=DIRECTION('',(1.07525718324504E-15,-0.85762685841793,-0.514272468366908));
#1655=DIRECTION('',(1.,1.08246744900953E-15,2.85654073759444E-16));
#1656=DIRECTION('',(-1.07525718324504E-15,0.85762685841793,0.514272468366908));
#1657=DIRECTION('',(-1.,-1.08246744900953E-15,-2.85654073759444E-16));
#1658=DIRECTION('',(1.07525718324504E-15,-0.85762685841793,-0.514272468366908));
#1659=DIRECTION('',(1.,1.16386530703185E-15,1.49910876229716E-16));
#1660=DIRECTION('',(4.69976290470306E-16,-0.514272468366908,0.85762685841793));
#1661=DIRECTION('',(-4.69976290470307E-16,0.514272468366908,-0.85762685841793));
#1662=DIRECTION('',(6.28253979884249E-16,-0.514272468366908,0.85762685841793));
#1663=DIRECTION('',(1.,1.20456423604301E-15,8.20392774648518E-17));
#1664=DIRECTION('',(5.49115135177278E-16,-0.514272468366908,0.85762685841793));
#1665=DIRECTION('',(-3.11698601056364E-16,0.514272468366908,-0.85762685841793));
#1666=DIRECTION('',(-5.49115135177278E-16,0.514272468366908,-0.85762685841793));
#1667=DIRECTION('',(-1.07525718324504E-15,0.85762685841793,0.514272468366908));
#1668=DIRECTION('',(-1.,-1.08246744900953E-15,-2.85654073759444E-16));
#1669=DIRECTION('',(-1.07525718324504E-15,0.85762685841793,0.514272468366908));
#1670=DIRECTION('',(-1.,-1.08246744900953E-15,-2.85654073759444E-16));
#1671=DIRECTION('',(1.07525718324504E-15,-0.85762685841793,-0.514272468366908));
#1672=DIRECTION('',(1.,1.08246744900953E-15,2.85654073759444E-16));
#1673=DIRECTION('',(-1.07525718324504E-15,0.85762685841793,0.514272468366908));
#1674=DIRECTION('',(-1.,-1.08246744900953E-15,-2.85654073759444E-16));
#1675=DIRECTION('',(1.07525718324504E-15,-0.85762685841793,-0.514272468366908));
#1676=DIRECTION('',(1.,1.08246744900953E-15,2.85654073759444E-16));
#1677=DIRECTION('',(-1.07525718324504E-15,0.85762685841793,0.514272468366908));
#1678=DIRECTION('',(-1.,-1.08246744900953E-15,-2.85654073759444E-16));
#1679=DIRECTION('',(-3.11698601056364E-16,0.514272468366908,-0.85762685841793));
#1680=DIRECTION('',(-1.07525718324504E-15,0.85762685841793,0.514272468366908));
#1681=DIRECTION('',(-1.07525718324504E-15,0.85762685841793,0.514272468366908));
#1682=DIRECTION('',(-3.11698601056364E-16,0.514272468366908,-0.85762685841793));
#1683=DIRECTION('',(-1.07525718324504E-15,0.85762685841793,0.514272468366908));
#1684=DIRECTION('',(-1.07525718324504E-15,0.85762685841793,0.514272468366908));
#1685=DIRECTION('',(-1.,-1.08246744900953E-15,-2.85654073759444E-16));
#1686=DIRECTION('',(1.07525718324504E-15,-0.85762685841793,-0.514272468366908));
#1687=DIRECTION('',(3.11698601056364E-16,-0.514272468366908,0.85762685841793));
#1688=DIRECTION('',(-1.,-1.08246744900953E-15,-2.85654073759444E-16));
#1689=DIRECTION('',(1.07525718324504E-15,-0.85762685841793,-0.514272468366908));
#1690=DIRECTION('',(3.11698601056364E-16,-0.514272468366908,0.85762685841793));
#1691=DIRECTION('',(1.07525718324504E-15,-0.85762685841793,-0.514272468366908));
#1692=DIRECTION('',(1.,1.08246744900953E-15,2.85654073759444E-16));
#1693=DIRECTION('',(1.07525718324504E-15,-0.85762685841793,-0.514272468366908));
#1694=DIRECTION('',(1.,1.08246744900953E-15,2.85654073759444E-16));
#1695=DIRECTION('',(-1.07525718324504E-15,0.85762685841793,0.514272468366908));
#1696=DIRECTION('',(-1.,-1.08246744900953E-15,-2.85654073759444E-16));
#1697=DIRECTION('',(1.07525718324504E-15,-0.85762685841793,-0.514272468366908));
#1698=DIRECTION('',(1.,1.08246744900953E-15,2.85654073759444E-16));
#1699=DIRECTION('',(-1.07525718324504E-15,0.85762685841793,0.514272468366908));
#1700=DIRECTION('',(-1.,-1.08246744900953E-15,-2.85654073759444E-16));
#1701=DIRECTION('',(-1.07525718324504E-15,0.85762685841793,0.514272468366908));
#1702=DIRECTION('',(-1.,-1.08246744900953E-15,-2.85654073759444E-16));
#1703=CARTESIAN_POINT('',(0.,0.,0.));
#1704=CARTESIAN_POINT('',(0.,0.,0.0006));
#1705=CARTESIAN_POINT('',(0.,0.,0.));
#1706=CARTESIAN_POINT('',(0.,0.065,0.));
#1707=CARTESIAN_POINT('',(0.,0.,0.));
#1708=CARTESIAN_POINT('',(0.,0.,0.0006));
#1709=CARTESIAN_POINT('',(0.,0.,0.0006));
#1710=CARTESIAN_POINT('',(0.,0.,0.0006));
#1711=CARTESIAN_POINT('',(0.,0.065,0.0006));
#1712=CARTESIAN_POINT('',(0.,0.065,0.0006));
#1713=CARTESIAN_POINT('',(0.,0.,0.0006));
#1714=CARTESIAN_POINT('',(0.,0.,0.));
#1715=CARTESIAN_POINT('',(0.015,0.,0.));
#1716=CARTESIAN_POINT('',(0.015,0.,0.0006));
#1717=CARTESIAN_POINT('',(0.015,0.,0.0006));
#1718=CARTESIAN_POINT('',(0.,0.,0.0006));
#1719=CARTESIAN_POINT('',(0.015,0.,0.0006));
#1720=CARTESIAN_POINT('',(0.015,0.,0.));
#1721=CARTESIAN_POINT('',(0.015,0.065,0.));
#1722=CARTESIAN_POINT('',(0.015,0.065,0.0006));
#1723=CARTESIAN_POINT('',(0.015,0.065,0.0006));
#1724=CARTESIAN_POINT('',(0.015,0.,0.0006));
#1725=CARTESIAN_POINT('',(0.,0.065,0.0006));
#1726=CARTESIAN_POINT('',(0.,0.065,0.));
#1727=CARTESIAN_POINT('',(0.,0.065,0.0006));
#1728=CARTESIAN_POINT('',(0.,0.,0.0006));
#1729=CARTESIAN_POINT('',(0.0119627781807259,1.29493179803572E-17,0.0006));
#1730=CARTESIAN_POINT('',(0.0119627781807259,0.0501496870844294,0.0006));
#1731=CARTESIAN_POINT('',(0.0119627781807259,0.0522202108562236,0.0006));
#1732=CARTESIAN_POINT('',(-6.28756092999436E-17,0.0501496870844293,0.0006));
#1733=CARTESIAN_POINT('',(0.0032584096693538,0.0501496870844293,0.000599999999999992));
#1734=CARTESIAN_POINT('',(0.00325840966935385,3.52712240261344E-18,0.0006));
#1735=CARTESIAN_POINT('',(0.00325840966935379,0.0522202108562236,0.0006));
#1736=CARTESIAN_POINT('',(-3.16504726034458E-17,0.0522202108562236,0.0006));
#1737=CARTESIAN_POINT('',(0.0035084096693538,0.0522202108562236,0.0006));
#1738=CARTESIAN_POINT('',(0.00713827546702939,0.0618454587636586,0.0006));
#1739=CARTESIAN_POINT('',(0.00267679374160868,0.0536477118612351,0.0006));
#1740=CARTESIAN_POINT('',(-6.72612884930696E-17,0.0536477118612351,0.0006));
#1741=CARTESIAN_POINT('',(0.001,0.0536477118612351,0.0006));
#1742=CARTESIAN_POINT('',(0.00100000000000006,1.16386530703191E-18,0.0006));
#1743=CARTESIAN_POINT('',(0.000999999999999984,0.0595010733210901,0.0006));
#1744=CARTESIAN_POINT('',(-7.45999916762338E-17,0.0595010733210901,0.0006));
#1745=CARTESIAN_POINT('',(0.00303967696542047,0.05950107332109,0.0006));
#1746=CARTESIAN_POINT('',(0.00754806053800619,0.0624093621764174,0.0006));
#1747=CARTESIAN_POINT('',(0.00288565383642333,0.0606437614148466,0.0006));
#1748=CARTESIAN_POINT('',(-7.60326468793216E-17,0.0606437614148466,0.0006));
#1749=CARTESIAN_POINT('',(0.0122104672395891,0.0606437614148466,0.0006));
#1750=CARTESIAN_POINT('',(0.00754806053800619,0.0624093621764174,0.0006));
#1751=CARTESIAN_POINT('',(0.0120564441105919,0.0595010733210901,0.0006));
#1752=CARTESIAN_POINT('',(-7.45999916762338E-17,0.0595010733210901,0.0006));
#1753=CARTESIAN_POINT('',(0.014,0.0595010733210901,0.0006));
#1754=CARTESIAN_POINT('',(0.014,1.68638993046022E-17,0.0006));
#1755=CARTESIAN_POINT('',(0.014,0.0536477118612351,0.0006));
#1756=CARTESIAN_POINT('',(-6.72612884930696E-17,0.0536477118612351,0.0006));
#1757=CARTESIAN_POINT('',(0.0124473622747003,0.0536477118612351,0.0006));
#1758=CARTESIAN_POINT('',(0.0075,0.0618454587636586,0.0006));
#1759=CARTESIAN_POINT('',(0.0117127781807259,0.0522202108562236,0.0006));
#1760=CARTESIAN_POINT('',(-3.16504726034458E-17,0.0522202108562236,0.0006));
#1761=CARTESIAN_POINT('',(0.0119627781807258,1.29493179803571E-17,0.0006));
#1762=CARTESIAN_POINT('',(0.0119627781807258,0.0302186181851953,0.0006));
#1763=CARTESIAN_POINT('',(0.0119627781807258,0.0322891419569895,0.0006));
#1764=CARTESIAN_POINT('',(-3.7886857148236E-17,0.0302186181851953,0.0006));
#1765=CARTESIAN_POINT('',(0.00325840966935373,0.0302186181851953,0.0006));
#1766=CARTESIAN_POINT('',(0.00325840966935376,3.52712240261334E-18,0.0006));
#1767=CARTESIAN_POINT('',(0.00325840966935373,0.0322891419569895,0.0006));
#1768=CARTESIAN_POINT('',(-1.95703270082961E-17,0.0322891419569895,0.0006));
#1769=CARTESIAN_POINT('',(0.00350840966935373,0.0322891419569895,0.0006));
#1770=CARTESIAN_POINT('',(0.00713827546702932,0.0419143898644245,0.0006));
#1771=CARTESIAN_POINT('',(0.00267679374160859,0.033716642962001,0.0006));
#1772=CARTESIAN_POINT('',(-4.2272536341362E-17,0.033716642962001,0.0006));
#1773=CARTESIAN_POINT('',(0.000999999999999924,0.033716642962001,0.000599999999999993));
#1774=CARTESIAN_POINT('',(0.000999999999999963,1.1638653070318E-18,0.0006));
#1775=CARTESIAN_POINT('',(0.000999999999999916,0.039570004421856,0.0006));
#1776=CARTESIAN_POINT('',(-4.96112395245262E-17,0.039570004421856,0.0006));
#1777=CARTESIAN_POINT('',(0.00303967696542039,0.039570004421856,0.0006));
#1778=CARTESIAN_POINT('',(0.00754806053800612,0.0424782932771833,0.0006));
#1779=CARTESIAN_POINT('',(0.00288565383642326,0.0407126925156125,0.0006));
#1780=CARTESIAN_POINT('',(-5.1043894727614E-17,0.0407126925156125,0.0006));
#1781=CARTESIAN_POINT('',(0.012210467239589,0.0407126925156126,0.0006));
#1782=CARTESIAN_POINT('',(0.00754806053800612,0.0424782932771833,0.0006));
#1783=CARTESIAN_POINT('',(0.0120564441105919,0.039570004421856,0.0006));
#1784=CARTESIAN_POINT('',(-4.96112395245262E-17,0.039570004421856,0.0006));
#1785=CARTESIAN_POINT('',(0.014,0.039570004421856,0.0006));
#1786=CARTESIAN_POINT('',(0.014,1.6863899304602E-17,0.0006));
#1787=CARTESIAN_POINT('',(0.014,0.0337166429620011,0.0006));
#1788=CARTESIAN_POINT('',(-4.2272536341362E-17,0.033716642962001,0.0006));
#1789=CARTESIAN_POINT('',(0.0124473622747003,0.0337166429620011,0.0006));
#1790=CARTESIAN_POINT('',(0.00749999999999991,0.0419143898644245,0.0006));
#1791=CARTESIAN_POINT('',(0.0117127781807258,0.0322891419569895,0.0006));
#1792=CARTESIAN_POINT('',(-1.95703270082961E-17,0.0322891419569895,0.0006));
#1793=CARTESIAN_POINT('',(0.0119628339612639,1.29493783609739E-17,0.0006));
#1794=CARTESIAN_POINT('',(0.0119628339612639,0.0102875492895509,0.0006));
#1795=CARTESIAN_POINT('',(0.0119628339612639,0.0123580730610692,0.0006));
#1796=CARTESIAN_POINT('',(-1.2898105001029E-17,0.0102875492895509,0.0006));
#1797=CARTESIAN_POINT('',(0.00325846544989179,0.0102875492895509,0.0006));
#1798=CARTESIAN_POINT('',(0.0032584654498918,3.52718278323006E-18,0.0006));
#1799=CARTESIAN_POINT('',(0.00325846544989179,0.0123580730610692,0.0006));
#1800=CARTESIAN_POINT('',(-7.49018141515482E-18,0.0123580730610692,0.0006));
#1801=CARTESIAN_POINT('',(0.00350846544989179,0.0123580730610692,0.0006));
#1802=CARTESIAN_POINT('',(0.00713833124756739,0.0219833209685042,0.0006));
#1803=CARTESIAN_POINT('',(0.00267684952201254,0.0137855740663567,0.0006));
#1804=CARTESIAN_POINT('',(-1.7283784194155E-17,0.0137855740663567,0.0006));
#1805=CARTESIAN_POINT('',(0.00100005578053799,0.0137855740663567,0.0006));
#1806=CARTESIAN_POINT('',(0.001000055780538,1.16393022806484E-18,0.0006));
#1807=CARTESIAN_POINT('',(0.00100005578053798,0.0196389355262117,0.0006));
#1808=CARTESIAN_POINT('',(-2.46224873773192E-17,0.0196389355262117,0.0006));
#1809=CARTESIAN_POINT('',(0.00303973274591137,0.0196389355262117,0.0006));
#1810=CARTESIAN_POINT('',(0.00754811631854419,0.022547224381263,0.0006));
#1811=CARTESIAN_POINT('',(0.00288570961693368,0.0207816236199682,0.0006));
#1812=CARTESIAN_POINT('',(-2.6055142580407E-17,0.0207816236199682,0.0006));
#1813=CARTESIAN_POINT('',(0.0122105230201547,0.0207816236199682,0.0006));
#1814=CARTESIAN_POINT('',(0.00754811631854419,0.022547224381263,0.0006));
#1815=CARTESIAN_POINT('',(0.012056499891177,0.0196389355262117,0.0006));
#1816=CARTESIAN_POINT('',(-2.46224873773192E-17,0.0196389355262117,0.0006));
#1817=CARTESIAN_POINT('',(0.014000055780538,0.0196389355262117,0.0006));
#1818=CARTESIAN_POINT('',(0.014000055780538,1.68639664958432E-17,0.0006));
#1819=CARTESIAN_POINT('',(0.014000055780538,0.0137855740663567,0.0006));
#1820=CARTESIAN_POINT('',(-1.7283784194155E-17,0.0137855740663567,0.0006));
#1821=CARTESIAN_POINT('',(0.0124474180553593,0.0137855740663567,0.0006));
#1822=CARTESIAN_POINT('',(0.00750005578053798,0.0219833209685042,0.0006));
#1823=CARTESIAN_POINT('',(0.0117128339612639,0.0123580730610692,0.0006));
#1824=CARTESIAN_POINT('',(-7.49018141515482E-18,0.0123580730610692,0.0006));
#1825=CARTESIAN_POINT('',(0.,0.,0.));
#1826=CARTESIAN_POINT('',(-6.33266961127665E-17,0.0505094746517046,0.));
#1827=CARTESIAN_POINT('',(0.0119627781807259,0.0505094746517046,0.));
#1828=CARTESIAN_POINT('',(0.0032584096693538,0.0505094746517046,-6.07153216591882E-18));
#1829=CARTESIAN_POINT('',(0.0119627781807259,1.29493179803572E-17,0.));
#1830=CARTESIAN_POINT('',(0.0119627781807259,0.0512196204169088,-2.35813972515597E-18));
#1831=CARTESIAN_POINT('',(-3.10440185166556E-17,0.0512196204169088,0.));
#1832=CARTESIAN_POINT('',(0.0117127781807259,0.0512196204169088,1.30104260698261E-18));
#1833=CARTESIAN_POINT('',(0.0075,0.0608448683243438,0.));
#1834=CARTESIAN_POINT('',(0.0129667944184764,0.0540074994285104,-8.67361737988404E-19));
#1835=CARTESIAN_POINT('',(-6.77123753058925E-17,0.0540074994285104,0.));
#1836=CARTESIAN_POINT('',(0.014,0.0540074994285104,3.90312782094782E-18));
#1837=CARTESIAN_POINT('',(0.014,1.68638993046022E-17,0.));
#1838=CARTESIAN_POINT('',(0.014,0.0598608608883654,-1.84314369322536E-18));
#1839=CARTESIAN_POINT('',(-7.50510784890567E-17,0.0598608608883654,0.));
#1840=CARTESIAN_POINT('',(0.0122308810223275,0.0598608608883654,-5.42101086242752E-20));
#1841=CARTESIAN_POINT('',(0.00754806053800619,0.0614087717371026,0.));
#1842=CARTESIAN_POINT('',(0.0122934869216907,0.0610035489821219,2.19550939928315E-18));
#1843=CARTESIAN_POINT('',(-7.64837336921445E-17,0.0610035489821219,0.));
#1844=CARTESIAN_POINT('',(0.0028026341543217,0.0610035489821219,2.19550939928315E-18));
#1845=CARTESIAN_POINT('',(0.00754806053800619,0.0614087717371026,0.));
#1846=CARTESIAN_POINT('',(0.0028652400536849,0.0598608608883653,5.42101086242752E-20));
#1847=CARTESIAN_POINT('',(-7.50510784890567E-17,0.0598608608883654,0.));
#1848=CARTESIAN_POINT('',(0.000999999999999984,0.0598608608883654,-6.93889390390723E-18));
#1849=CARTESIAN_POINT('',(0.00100000000000006,1.16386530703191E-18,0.));
#1850=CARTESIAN_POINT('',(0.001,0.0540074994285104,-3.03576608295941E-18));
#1851=CARTESIAN_POINT('',(-6.77123753058925E-17,0.0540074994285104,0.));
#1852=CARTESIAN_POINT('',(0.00210694692249761,0.0540074994285104,-8.67361737988404E-19));
#1853=CARTESIAN_POINT('',(0.00713827546702939,0.0608448683243438,0.));
#1854=CARTESIAN_POINT('',(0.0035084096693538,0.0512196204169088,1.30104260698261E-18));
#1855=CARTESIAN_POINT('',(-3.10440185166556E-17,0.0512196204169088,0.));
#1856=CARTESIAN_POINT('',(0.0032584096693538,0.0512196204169088,2.65629532258949E-18));
#1857=CARTESIAN_POINT('',(0.00325840966935385,3.52712240261344E-18,0.));
#1858=CARTESIAN_POINT('',(-3.83379439610589E-17,0.0305784057524706,0.));
#1859=CARTESIAN_POINT('',(0.0119627781807258,0.0305784057524706,3.46944695195361E-18));
#1860=CARTESIAN_POINT('',(0.00325840966935373,0.0305784057524706,-2.60208521396521E-18));
#1861=CARTESIAN_POINT('',(0.0119627781807258,1.29493179803571E-17,0.));
#1862=CARTESIAN_POINT('',(0.0119627781807258,0.0312885515176747,1.19262238973405E-18));
#1863=CARTESIAN_POINT('',(-1.89638729215059E-17,0.0312885515176747,0.));
#1864=CARTESIAN_POINT('',(0.0117127781807258,0.0312885515176747,-8.67361737988404E-19));
#1865=CARTESIAN_POINT('',(0.00749999999999992,0.0409137994251097,0.));
#1866=CARTESIAN_POINT('',(0.0129667944184764,0.0340764305292763,-4.33680868994202E-19));
#1867=CARTESIAN_POINT('',(-4.27236231541849E-17,0.0340764305292763,0.));
#1868=CARTESIAN_POINT('',(0.014,0.0340764305292763,8.67361737988404E-19));
#1869=CARTESIAN_POINT('',(0.014,1.6863899304602E-17,0.));
#1870=CARTESIAN_POINT('',(0.014,0.0399297919891313,6.23416249179165E-19));
#1871=CARTESIAN_POINT('',(-5.0062326337349E-17,0.0399297919891313,0.));
#1872=CARTESIAN_POINT('',(0.0122308810223274,0.0399297919891313,-6.7762635780344E-20));
#1873=CARTESIAN_POINT('',(0.00754806053800613,0.0414777028378685,-2.71050543121376E-20));
#1874=CARTESIAN_POINT('',(0.0122934869216906,0.0410724800828879,-2.71050543121376E-19));
#1875=CARTESIAN_POINT('',(-5.14949815404369E-17,0.0410724800828878,0.));
#1876=CARTESIAN_POINT('',(0.00280263415432163,0.0410724800828878,-2.71050543121376E-19));
#1877=CARTESIAN_POINT('',(0.00754806053800613,0.0414777028378685,-2.71050543121376E-20));
#1878=CARTESIAN_POINT('',(0.00286524005368483,0.0399297919891313,-1.35525271560688E-20));
#1879=CARTESIAN_POINT('',(-5.0062326337349E-17,0.0399297919891313,0.));
#1880=CARTESIAN_POINT('',(0.000999999999999916,0.0399297919891313,0.));
#1881=CARTESIAN_POINT('',(0.000999999999999963,1.1638653070318E-18,0.));
#1882=CARTESIAN_POINT('',(0.000999999999999924,0.0340764305292763,-5.20417042793042E-18));
#1883=CARTESIAN_POINT('',(-4.27236231541849E-17,0.0340764305292763,0.));
#1884=CARTESIAN_POINT('',(0.00210694692249753,0.0340764305292763,-4.33680868994202E-19));
#1885=CARTESIAN_POINT('',(0.00713827546702933,0.0409137994251097,0.));
#1886=CARTESIAN_POINT('',(0.00350840966935373,0.0312885515176747,-8.67361737988404E-19));
#1887=CARTESIAN_POINT('',(-1.89638729215059E-17,0.0312885515176747,0.));
#1888=CARTESIAN_POINT('',(0.00325840966935373,0.0312885515176747,-5.42101086242752E-19));
#1889=CARTESIAN_POINT('',(0.00325840966935376,3.52712240261334E-18,0.));
#1890=CARTESIAN_POINT('',(-1.33491918138519E-17,0.0106473368568262,0.));
#1891=CARTESIAN_POINT('',(0.0119628339612639,0.0106473368568262,2.60208521396521E-18));
#1892=CARTESIAN_POINT('',(0.00325846544989179,0.0106473368568262,-3.46944695195361E-18));
#1893=CARTESIAN_POINT('',(0.0119628339612639,1.29493783609739E-17,0.));
#1894=CARTESIAN_POINT('',(0.0119628339612639,0.0113574826217544,3.79470760369927E-19));
#1895=CARTESIAN_POINT('',(-6.88372732836461E-18,0.0113574826217544,0.));
#1896=CARTESIAN_POINT('',(0.0117128339612639,0.0113574826217544,8.67361737988404E-19));
#1897=CARTESIAN_POINT('',(0.00750005578053798,0.0209827305291893,0.));
#1898=CARTESIAN_POINT('',(0.0129668501991057,0.014145361633632,-8.67361737988404E-19));
#1899=CARTESIAN_POINT('',(-1.77348710069779E-17,0.014145361633632,0.));
#1900=CARTESIAN_POINT('',(0.014000055780538,0.014145361633632,1.73472347597681E-18));
#1901=CARTESIAN_POINT('',(0.014000055780538,1.68639664958432E-17,0.));
#1902=CARTESIAN_POINT('',(0.014000055780538,0.019998723093487,2.71050543121376E-19));
#1903=CARTESIAN_POINT('',(-2.5073574190142E-17,0.019998723093487,0.));
#1904=CARTESIAN_POINT('',(0.0122309368028896,0.019998723093487,0.));
#1905=CARTESIAN_POINT('',(0.00754811631854419,0.0215466339419482,0.));
#1906=CARTESIAN_POINT('',(0.0122935427022349,0.0211414111872435,-9.21571846612679E-19));
#1907=CARTESIAN_POINT('',(-2.65062293932298E-17,0.0211414111872435,0.));
#1908=CARTESIAN_POINT('',(0.00280268993485346,0.0211414111872435,-9.21571846612679E-19));
#1909=CARTESIAN_POINT('',(0.00754811631854419,0.0215466339419482,0.));
#1910=CARTESIAN_POINT('',(0.00286529583419876,0.019998723093487,5.42101086242752E-20));
#1911=CARTESIAN_POINT('',(-2.5073574190142E-17,0.019998723093487,0.));
#1912=CARTESIAN_POINT('',(0.00100005578053798,0.019998723093487,0.));
#1913=CARTESIAN_POINT('',(0.001000055780538,1.16393022806484E-18,0.));
#1914=CARTESIAN_POINT('',(0.00100005578053799,0.014145361633632,-4.33680868994202E-18));
#1915=CARTESIAN_POINT('',(-1.77348710069779E-17,0.014145361633632,0.));
#1916=CARTESIAN_POINT('',(0.0021070027029364,0.014145361633632,-8.67361737988404E-19));
#1917=CARTESIAN_POINT('',(0.00713833124756739,0.0209827305291893,0.));
#1918=CARTESIAN_POINT('',(0.00350846544989179,0.0113574826217544,3.03576608295941E-18));
#1919=CARTESIAN_POINT('',(-6.88372732836461E-18,0.0113574826217544,0.));
#1920=CARTESIAN_POINT('',(0.00325846544989179,0.0113574826217544,3.25260651745651E-19));
#1921=CARTESIAN_POINT('',(0.0032584654498918,3.52718278323006E-18,0.));
#1922=CARTESIAN_POINT('',(0.00215,0.00348690918471384,0.));
#1923=CARTESIAN_POINT('',(0.00215,0.00248690918471384,0.));
#1924=CARTESIAN_POINT('',(0.01285,0.0453455949601569,0.));
#1925=CARTESIAN_POINT('',(0.01285,0.0463455949601569,0.));
#1926=CARTESIAN_POINT('',(0.00215,0.0261476220529264,0.));
#1927=CARTESIAN_POINT('',(0.00215,0.0251476220529264,0.));
#1928=CARTESIAN_POINT('',(0.01285,0.0261476220529264,0.));
#1929=CARTESIAN_POINT('',(0.01285,0.0271476220529264,0.));
#1930=CARTESIAN_POINT('',(0.00215,0.0453455949601569,0.));
#1931=CARTESIAN_POINT('',(0.00215,0.0443455949601569,0.));
#1932=CARTESIAN_POINT('',(0.01285,0.00348690918471384,0.));
#1933=CARTESIAN_POINT('',(0.01285,0.00448690918471384,0.));
#1934=CARTESIAN_POINT('',(0.01285,0.00348690918471384,-0.003));
#1935=CARTESIAN_POINT('',(0.01285,0.00348690918471384,-0.003));
#1936=CARTESIAN_POINT('',(0.01285,0.00448690918471384,-0.003));
#1937=CARTESIAN_POINT('',(0.01285,0.00348690918471384,-0.003));
#1938=CARTESIAN_POINT('',(0.00215,0.0453455949601569,-0.003));
#1939=CARTESIAN_POINT('',(0.00215,0.0453455949601569,-0.003));
#1940=CARTESIAN_POINT('',(0.00215,0.0443455949601569,-0.003));
#1941=CARTESIAN_POINT('',(0.00215,0.0453455949601569,-0.003));
#1942=CARTESIAN_POINT('',(0.01285,0.0261476220529264,-0.003));
#1943=CARTESIAN_POINT('',(0.01285,0.0261476220529264,-0.003));
#1944=CARTESIAN_POINT('',(0.01285,0.0271476220529264,-0.003));
#1945=CARTESIAN_POINT('',(0.01285,0.0261476220529264,-0.003));
#1946=CARTESIAN_POINT('',(0.00215,0.0261476220529264,-0.003));
#1947=CARTESIAN_POINT('',(0.00215,0.0261476220529264,-0.003));
#1948=CARTESIAN_POINT('',(0.00215,0.0251476220529264,-0.003));
#1949=CARTESIAN_POINT('',(0.00215,0.0261476220529264,-0.003));
#1950=CARTESIAN_POINT('',(0.01285,0.0453455949601569,-0.003));
#1951=CARTESIAN_POINT('',(0.01285,0.0453455949601569,-0.003));
#1952=CARTESIAN_POINT('',(0.01285,0.0463455949601569,-0.003));
#1953=CARTESIAN_POINT('',(0.01285,0.0453455949601569,-0.003));
#1954=CARTESIAN_POINT('',(0.00215,0.00348690918471384,-0.003));
#1955=CARTESIAN_POINT('',(0.00215,0.00348690918471384,-0.003));
#1956=CARTESIAN_POINT('',(0.00215,0.00248690918471384,-0.003));
#1957=CARTESIAN_POINT('',(0.00215,0.00348690918471384,-0.003));
#1958=CARTESIAN_POINT('',(0.00750005578053799,0.0159536827837677,-0.00301564809006096));
#1959=CARTESIAN_POINT('',(0.014000055780538,0.0159536827837677,-0.00301564809006096));
#1960=CARTESIAN_POINT('',(0.00750005578053799,0.0159536827837677,-0.00301564809006096));
#1961=CARTESIAN_POINT('',(0.014000055780538,0.0159536827837677,-0.00301564809006096));
#1962=CARTESIAN_POINT('',(0.014000055780538,0.0202589696130258,-0.00043400029885912));
#1963=CARTESIAN_POINT('',(0.00750005578053799,0.0133808022085139,-0.00455846549516168));
#1964=CARTESIAN_POINT('',(0.0119628339612639,0.0133808022085139,-0.00455846549516168));
#1965=CARTESIAN_POINT('',(0.00325846544989179,0.0133808022085139,-0.00455846549516168));
#1966=CARTESIAN_POINT('',(0.0119628339612639,0.0133808022085139,-0.00455846549516168));
#1967=CARTESIAN_POINT('',(0.0119628339612639,0.0108351534900977,-0.000313212545992935));
#1968=CARTESIAN_POINT('',(0.00325846544989179,0.0133808022085139,-0.00455846549516168));
#1969=CARTESIAN_POINT('',(0.00325846544989179,0.0108351534900977,-0.000313212545992939));
#1970=CARTESIAN_POINT('',(0.00750005578053799,0.0108351534900977,-0.000313212545992937));
#1971=CARTESIAN_POINT('',(0.0117128339612639,0.0146944743529784,0.00200101356165815));
#1972=CARTESIAN_POINT('',(0.00750005578053799,0.0108351534900977,-0.000313212545992937));
#1973=CARTESIAN_POINT('',(0.00350846544989179,0.0146944743529784,0.00200101356165815));
#1974=CARTESIAN_POINT('',(0.00750005578053798,0.0172401230713946,-0.0022442393875106));
#1975=CARTESIAN_POINT('',(0.00750005578053799,0.0159536827837677,-0.00301564809006096));
#1976=CARTESIAN_POINT('',(0.00713833124756739,0.0159536827837677,-0.00301564809006096));
#1977=CARTESIAN_POINT('',(0.00100005578053799,0.0159536827837677,-0.00301564809006096));
#1978=CARTESIAN_POINT('',(0.00100005578053799,0.0159536827837677,-0.00301564809006096));
#1979=CARTESIAN_POINT('',(0.00100005578053798,0.0146225433597244,0.00896559006940142));
#1980=CARTESIAN_POINT('',(0.00713833124756739,0.0172401230713946,-0.0022442393875106));
#1981=CARTESIAN_POINT('',(0.00754811631854419,0.0212485829501017,-0.000178725068800714));
#1982=CARTESIAN_POINT('',(0.00754811631854419,0.0212485829501017,-0.000178725068800714));
#1983=CARTESIAN_POINT('',(0.00754811631854419,0.0212485829501017,-0.000178725068800714));
#1984=CARTESIAN_POINT('',(0.00754811631854419,0.0212485829501017,-0.000178725068800714));
#1985=CARTESIAN_POINT('',(0.00754811631854419,0.0204081086288521,-0.000682712087800283));
#1986=CARTESIAN_POINT('',(0.00754811631854419,0.0212485829501017,-0.000178725068800714));
#1987=CARTESIAN_POINT('',(0.00754811631854419,0.0204081086288521,-0.000682712087800283));
#1988=CARTESIAN_POINT('',(0.00750005578053793,0.0202589696130257,-0.000434000298859065));
#1989=CARTESIAN_POINT('',(0.00750005578053793,0.0202589696130257,-0.000434000298859065));
#1990=CARTESIAN_POINT('',(0.00749999999999992,0.0358847516794851,-0.00301564809018269));
#1991=CARTESIAN_POINT('',(0.014,0.0358847516794851,-0.00301564809018268));
#1992=CARTESIAN_POINT('',(0.00749999999999992,0.0358847516794851,-0.00301564809018269));
#1993=CARTESIAN_POINT('',(0.014,0.0358847516794851,-0.00301564809018268));
#1994=CARTESIAN_POINT('',(0.014,0.0401900385087431,-0.000434000298980846));
#1995=CARTESIAN_POINT('',(0.0075,0.0333118711042313,-0.00455846549528341));
#1996=CARTESIAN_POINT('',(0.0119627781807258,0.0333118711042313,-0.00455846549528341));
#1997=CARTESIAN_POINT('',(0.00325840966935373,0.0333118711042313,-0.00455846549528341));
#1998=CARTESIAN_POINT('',(0.0119627781807258,0.0333118711042313,-0.00455846549528341));
#1999=CARTESIAN_POINT('',(0.0119627781807258,0.0307662223858151,-0.000313212546114661));
#2000=CARTESIAN_POINT('',(0.00325840966935373,0.0333118711042313,-0.00455846549528341));
#2001=CARTESIAN_POINT('',(0.00325840966935373,0.0307662223858151,-0.000313212546114664));
#2002=CARTESIAN_POINT('',(0.0075,0.0307662223858151,-0.000313212546114662));
#2003=CARTESIAN_POINT('',(0.0117127781807258,0.0346255432486958,0.00200101356153642));
#2004=CARTESIAN_POINT('',(0.0075,0.0307662223858151,-0.000313212546114662));
#2005=CARTESIAN_POINT('',(0.00350840966935372,0.0346255432486958,0.00200101356153642));
#2006=CARTESIAN_POINT('',(0.00749999999999992,0.037171191967112,-0.00224423938763232));
#2007=CARTESIAN_POINT('',(0.00749999999999992,0.0358847516794851,-0.00301564809018269));
#2008=CARTESIAN_POINT('',(0.00713827546702933,0.0358847516794851,-0.00301564809018269));
#2009=CARTESIAN_POINT('',(0.000999999999999922,0.0358847516794851,-0.00301564809018269));
#2010=CARTESIAN_POINT('',(0.000999999999999922,0.0358847516794851,-0.00301564809018269));
#2011=CARTESIAN_POINT('',(0.000999999999999921,0.0345536122554418,0.0089655900692797));
#2012=CARTESIAN_POINT('',(0.00713827546702933,0.037171191967112,-0.00224423938763232));
#2013=CARTESIAN_POINT('',(0.00754806053800613,0.041179651845819,-0.00017872506892244));
#2014=CARTESIAN_POINT('',(0.00754806053800613,0.041179651845819,-0.00017872506892244));
#2015=CARTESIAN_POINT('',(0.00754806053800613,0.041179651845819,-0.00017872506892244));
#2016=CARTESIAN_POINT('',(0.00754806053800613,0.041179651845819,-0.00017872506892244));
#2017=CARTESIAN_POINT('',(0.00754806053800613,0.0403391775245695,-0.000682712087922008));
#2018=CARTESIAN_POINT('',(0.00754806053800613,0.041179651845819,-0.00017872506892244));
#2019=CARTESIAN_POINT('',(0.00754806053800613,0.0403391775245695,-0.000682712087922008));
#2020=CARTESIAN_POINT('',(0.00749999999999987,0.0401900385087431,-0.00043400029898079));
#2021=CARTESIAN_POINT('',(0.00749999999999987,0.0401900385087431,-0.00043400029898079));
#2022=CARTESIAN_POINT('',(0.0071382754670294,0.057102260866346,-0.00224423938763234));
#2023=CARTESIAN_POINT('',(0.00350840966935379,0.0545566121479298,0.00200101356153641));
#2024=CARTESIAN_POINT('',(0.0071382754670294,0.0558158205787191,-0.0030156480901827));
#2025=CARTESIAN_POINT('',(0.0075,0.057102260866346,-0.00224423938763234));
#2026=CARTESIAN_POINT('',(0.0075,0.0558158205787191,-0.0030156480901827));
#2027=CARTESIAN_POINT('',(0.0117127781807259,0.0545566121479298,0.00200101356153641));
#2028=CARTESIAN_POINT('',(0.001,0.0558158205787191,-0.0030156480901827));
#2029=CARTESIAN_POINT('',(0.001,0.0558158205787191,-0.0030156480901827));
#2030=CARTESIAN_POINT('',(0.001,0.0544846811546758,0.00896559006927969));
#2031=CARTESIAN_POINT('',(0.014,0.0558158205787191,-0.0030156480901827));
#2032=CARTESIAN_POINT('',(0.014,0.0601211074079772,-0.00043400029898086));
#2033=CARTESIAN_POINT('',(0.014,0.0558158205787191,-0.0030156480901827));
#2034=CARTESIAN_POINT('',(0.0075,0.0558158205787191,-0.0030156480901827));
#2035=CARTESIAN_POINT('',(0.0075,0.0558158205787191,-0.0030156480901827));
#2036=CARTESIAN_POINT('',(0.0075,0.0601211074079771,-0.000434000298980804));
#2037=CARTESIAN_POINT('',(0.0075480605380062,0.0602702464238035,-0.000682712087922022));
#2038=CARTESIAN_POINT('',(0.0075,0.0601211074079771,-0.000434000298980804));
#2039=CARTESIAN_POINT('',(0.0075480605380062,0.0602702464238035,-0.000682712087922022));
#2040=CARTESIAN_POINT('',(0.0075,0.0506972912850491,-0.000313212546114676));
#2041=CARTESIAN_POINT('',(0.0032584096693538,0.0506972912850491,-0.000313212546114678));
#2042=CARTESIAN_POINT('',(0.0075,0.0506972912850491,-0.000313212546114676));
#2043=CARTESIAN_POINT('',(0.0119627781807259,0.0506972912850491,-0.000313212546114675));
#2044=CARTESIAN_POINT('',(0.00325840966935379,0.0532429400034653,-0.00455846549528342));
#2045=CARTESIAN_POINT('',(0.00325840966935379,0.0532429400034653,-0.00455846549528342));
#2046=CARTESIAN_POINT('',(0.0119627781807259,0.0532429400034653,-0.00455846549528342));
#2047=CARTESIAN_POINT('',(0.0119627781807259,0.0532429400034653,-0.00455846549528342));
#2048=CARTESIAN_POINT('',(0.0075,0.0532429400034653,-0.00455846549528342));
#2049=CARTESIAN_POINT('',(0.00754806053800619,0.0611107207450531,-0.000178725068922454));
#2050=CARTESIAN_POINT('',(0.00754806053800619,0.0611107207450531,-0.000178725068922454));
#2051=CARTESIAN_POINT('',(0.00754806053800619,0.0611107207450531,-0.000178725068922454));
#2052=CARTESIAN_POINT('',(0.00754806053800619,0.0611107207450531,-0.000178725068922454));
#2053=CARTESIAN_POINT('',(0.00754806053800619,0.0611107207450531,-0.000178725068922454));
#2054=MECHANICAL_DESIGN_GEOMETRIC_PRESENTATION_REPRESENTATION('',(#1215),
#2055);
#2055=(
GEOMETRIC_REPRESENTATION_CONTEXT(3)
GLOBAL_UNCERTAINTY_ASSIGNED_CONTEXT((#2056))
GLOBAL_UNIT_ASSIGNED_CONTEXT((#2059,#2058,#2057))
REPRESENTATION_CONTEXT('Palm_pinky','TOP_LEVEL_ASSEMBLY_PART')
);
#2056=UNCERTAINTY_MEASURE_WITH_UNIT(LENGTH_MEASURE(1.E-8),#2059,
'DISTANCE_ACCURACY_VALUE','Maximum Tolerance applied to model');
#2057=(
NAMED_UNIT(*)
SI_UNIT($,.STERADIAN.)
SOLID_ANGLE_UNIT()
);
#2058=(
NAMED_UNIT(*)
PLANE_ANGLE_UNIT()
SI_UNIT($,.RADIAN.)
);
#2059=(
LENGTH_UNIT()
NAMED_UNIT(*)
SI_UNIT($,.METRE.)
);
#2060=PRODUCT_DEFINITION_SHAPE('','',#2061);
#2061=PRODUCT_DEFINITION('','',#2063,#2062);
#2062=PRODUCT_DEFINITION_CONTEXT('',#2069,'design');
#2063=PRODUCT_DEFINITION_FORMATION_WITH_SPECIFIED_SOURCE('','',#2065,
 .NOT_KNOWN.);
#2064=PRODUCT_RELATED_PRODUCT_CATEGORY('','',(#2065));
#2065=PRODUCT('Palm_pinky','Palm_pinky','Palm_pinky',(#2067));
#2066=PRODUCT_CATEGORY('','');
#2067=PRODUCT_CONTEXT('',#2069,'mechanical');
#2068=APPLICATION_PROTOCOL_DEFINITION('international standard',
'ap242_managed_model_based_3d_engineering',2020,#2069);
#2069=APPLICATION_CONTEXT('managed model based 3d engineering');
ENDSEC;
END-ISO-10303-21;
