ISO-10303-21;
HEADER;
/* Generated by software containing ST-Developer
 * from STEP Tools, Inc. (www.steptools.com) 
 */
/* OPTION: using custom renumber hook */

FILE_DESCRIPTION(
/* description */ ('STEP AP242 Edition 2',
'CAx-IF Rec.Pracs.---Representation and Presentation of Product Manufa
cturing Information (PMI)---4.0---2014-10-13',
'CAx-IF Rec.Pracs.---3D Tessellated Geometry---0.4---2014-09-14','2;1',
'CAx-IF Rec.Pracs.---User Defined Attributes---1.5---2016-08-15'),
/* implementation_level */ '2;1');

FILE_NAME(
/* name */ 'Robotic Hand_V5_simulacra - driver_side_palm_cover2',
/* time_stamp */ '2026-09-25T22:15:30Z',
/* author */ (''),
/* organization */ (''),
/* preprocessor_version */ 'ST-DEVELOPER v20',
/* originating_system */ 'ONSHAPE BY PTC INC, 1.221',
/* authorisation */ '  ');

FILE_SCHEMA (('AP242_MANAGED_MODEL_BASED_3D_ENGINEERING_MIM_LF { 1 0 10303 442 3 1 4 }'));
ENDSEC;

DATA;
#10=SHAPE_REPRESENTATION_RELATIONSHIP('','',#1079,#11);
#11=ADVANCED_BREP_SHAPE_REPRESENTATION('',(#1077),#1825);
#12=ELLIPSE('',#1118,0.0101276411651156,0.01);
#13=ELLIPSE('',#1120,0.0101276411651155,0.01);
#14=ELLIPSE('',#1121,0.00405105646604622,0.004);
#15=ELLIPSE('',#1126,0.0101276411651156,0.01);
#16=ELLIPSE('',#1128,0.0101276411651156,0.01);
#17=ELLIPSE('',#1129,0.00405105646604622,0.004);
#18=ELLIPSE('',#1134,0.0101276411651155,0.01);
#19=ELLIPSE('',#1136,0.0101276411651156,0.01);
#20=ELLIPSE('',#1137,0.00405105646604622,0.004);
#21=ELLIPSE('',#1142,0.0101276411651155,0.01);
#22=ELLIPSE('',#1144,0.0101276411651156,0.01);
#23=ELLIPSE('',#1145,0.00405105646604622,0.004);
#24=ELLIPSE('',#1152,0.00565685424949238,0.004);
#25=ELLIPSE('',#1154,0.00565685424949238,0.004);
#26=ELLIPSE('',#1156,0.00565685424949238,0.004);
#27=ELLIPSE('',#1158,0.00565685424949238,0.004);
#28=ELLIPSE('',#1160,0.00565685424949238,0.004);
#29=ELLIPSE('',#1162,0.00565685424949238,0.004);
#30=ELLIPSE('',#1164,0.00565685424949238,0.004);
#31=ELLIPSE('',#1166,0.00565685424949238,0.004);
#32=B_SPLINE_SURFACE_WITH_KNOTS('',3,1,((#1644,#1645),(#1646,#1647),(#1648,
#1649),(#1650,#1651)),.SURF_OF_LINEAR_EXTRUSION.,.F.,.F.,.F.,(4,4),(2,2),
(0.,0.956663174984978),(0.,1.),.PIECEWISE_BEZIER_KNOTS.);
#33=B_SPLINE_CURVE_WITH_KNOTS('',2,(#1605,#1606,#1607),.UNSPECIFIED.,.F.,
 .F.,(3,3),(0.,1.),.PIECEWISE_BEZIER_KNOTS.);
#34=B_SPLINE_CURVE_WITH_KNOTS('',2,(#1652,#1653,#1654),.UNSPECIFIED.,.F.,
 .F.,(3,3),(0.,1.),.PIECEWISE_BEZIER_KNOTS.);
#35=B_SPLINE_CURVE_WITH_KNOTS('',3,(#1756,#1757,#1758,#1759,#1760,#1761,
#1762),.UNSPECIFIED.,.F.,.F.,(4,1,1,1,4),(0.,0.0017726845710796,0.00354536914215921,
0.00531805371323881,0.00709073828431842),.UNSPECIFIED.);
#36=B_SPLINE_CURVE_WITH_KNOTS('',3,(#1765,#1766,#1767,#1768,#1769),
 .UNSPECIFIED.,.F.,.F.,(4,1,4),(0.,0.00290446851211016,0.00580893702422032),
 .UNSPECIFIED.);
#37=B_SPLINE_CURVE_WITH_KNOTS('',3,(#1772,#1773,#1774,#1775,#1776,#1777,
#1778),.UNSPECIFIED.,.F.,.F.,(4,1,1,1,4),(0.,0.00177268457107962,0.00354536914215923,
0.00531805371323885,0.00709073828431846),.UNSPECIFIED.);
#38=B_SPLINE_CURVE_WITH_KNOTS('',3,(#1781,#1782,#1783,#1784,#1785),
 .UNSPECIFIED.,.F.,.F.,(4,1,4),(0.,0.00290446851211015,0.00580893702422031),
 .UNSPECIFIED.);
#39=B_SPLINE_CURVE_WITH_KNOTS('',3,(#1788,#1789,#1790,#1791,#1792,#1793,
#1794),.UNSPECIFIED.,.F.,.F.,(4,1,1,1,4),(0.,0.00177268457107961,0.00354536914215923,
0.00531805371323884,0.00709073828431846),.UNSPECIFIED.);
#40=B_SPLINE_CURVE_WITH_KNOTS('',3,(#1797,#1798,#1799,#1800,#1801),
 .UNSPECIFIED.,.F.,.F.,(4,1,4),(0.,0.00290446851211014,0.00580893702422028),
 .UNSPECIFIED.);
#41=B_SPLINE_CURVE_WITH_KNOTS('',3,(#1804,#1805,#1806,#1807,#1808,#1809,
#1810),.UNSPECIFIED.,.F.,.F.,(4,1,1,1,4),(0.,0.00177268457107963,0.00354536914215926,
0.00531805371323889,0.00709073828431852),.UNSPECIFIED.);
#42=B_SPLINE_CURVE_WITH_KNOTS('',3,(#1813,#1814,#1815,#1816,#1817),
 .UNSPECIFIED.,.F.,.F.,(4,1,4),(0.,0.00290446851211015,0.00580893702422029),
 .UNSPECIFIED.);
#43=CYLINDRICAL_SURFACE('',#1091,0.00105);
#44=CYLINDRICAL_SURFACE('',#1093,0.00105);
#45=CYLINDRICAL_SURFACE('',#1095,0.00105);
#46=CYLINDRICAL_SURFACE('',#1099,0.00105);
#47=CYLINDRICAL_SURFACE('',#1151,0.004);
#48=CYLINDRICAL_SURFACE('',#1153,0.004);
#49=CYLINDRICAL_SURFACE('',#1155,0.004);
#50=CYLINDRICAL_SURFACE('',#1157,0.004);
#51=CYLINDRICAL_SURFACE('',#1159,0.004);
#52=CYLINDRICAL_SURFACE('',#1161,0.004);
#53=CYLINDRICAL_SURFACE('',#1163,0.004);
#54=CYLINDRICAL_SURFACE('',#1165,0.004);
#55=CYLINDRICAL_SURFACE('',#1167,0.01);
#56=CYLINDRICAL_SURFACE('',#1168,0.004);
#57=CYLINDRICAL_SURFACE('',#1169,0.004);
#58=CYLINDRICAL_SURFACE('',#1170,0.004);
#59=CYLINDRICAL_SURFACE('',#1171,0.004);
#60=CIRCLE('',#1085,0.00105);
#61=CIRCLE('',#1086,0.00105);
#62=CIRCLE('',#1087,0.00105);
#63=CIRCLE('',#1088,0.00105);
#64=CIRCLE('',#1092,0.00105);
#65=CIRCLE('',#1094,0.00105);
#66=CIRCLE('',#1096,0.00105);
#67=CIRCLE('',#1098,0.01);
#68=CIRCLE('',#1100,0.00105);
#69=CIRCLE('',#1109,0.01);
#70=CIRCLE('',#1124,0.004);
#71=CIRCLE('',#1132,0.004);
#72=CIRCLE('',#1140,0.004);
#73=CIRCLE('',#1148,0.004);
#74=ORIENTED_EDGE('',*,*,#374,.F.);
#75=ORIENTED_EDGE('',*,*,#375,.T.);
#76=ORIENTED_EDGE('',*,*,#376,.F.);
#77=ORIENTED_EDGE('',*,*,#377,.F.);
#78=ORIENTED_EDGE('',*,*,#378,.F.);
#79=ORIENTED_EDGE('',*,*,#379,.T.);
#80=ORIENTED_EDGE('',*,*,#380,.F.);
#81=ORIENTED_EDGE('',*,*,#381,.F.);
#82=ORIENTED_EDGE('',*,*,#382,.F.);
#83=ORIENTED_EDGE('',*,*,#383,.T.);
#84=ORIENTED_EDGE('',*,*,#384,.F.);
#85=ORIENTED_EDGE('',*,*,#385,.F.);
#86=ORIENTED_EDGE('',*,*,#386,.T.);
#87=ORIENTED_EDGE('',*,*,#387,.F.);
#88=ORIENTED_EDGE('',*,*,#388,.F.);
#89=ORIENTED_EDGE('',*,*,#389,.F.);
#90=ORIENTED_EDGE('',*,*,#390,.F.);
#91=ORIENTED_EDGE('',*,*,#391,.F.);
#92=ORIENTED_EDGE('',*,*,#392,.F.);
#93=ORIENTED_EDGE('',*,*,#393,.F.);
#94=ORIENTED_EDGE('',*,*,#394,.F.);
#95=ORIENTED_EDGE('',*,*,#395,.F.);
#96=ORIENTED_EDGE('',*,*,#396,.T.);
#97=ORIENTED_EDGE('',*,*,#397,.F.);
#98=ORIENTED_EDGE('',*,*,#398,.T.);
#99=ORIENTED_EDGE('',*,*,#399,.T.);
#100=ORIENTED_EDGE('',*,*,#400,.T.);
#101=ORIENTED_EDGE('',*,*,#401,.T.);
#102=ORIENTED_EDGE('',*,*,#402,.T.);
#103=ORIENTED_EDGE('',*,*,#403,.T.);
#104=ORIENTED_EDGE('',*,*,#404,.T.);
#105=ORIENTED_EDGE('',*,*,#405,.T.);
#106=ORIENTED_EDGE('',*,*,#406,.T.);
#107=ORIENTED_EDGE('',*,*,#407,.T.);
#108=ORIENTED_EDGE('',*,*,#408,.T.);
#109=ORIENTED_EDGE('',*,*,#409,.T.);
#110=ORIENTED_EDGE('',*,*,#410,.T.);
#111=ORIENTED_EDGE('',*,*,#411,.T.);
#112=ORIENTED_EDGE('',*,*,#412,.T.);
#113=ORIENTED_EDGE('',*,*,#413,.T.);
#114=ORIENTED_EDGE('',*,*,#414,.T.);
#115=ORIENTED_EDGE('',*,*,#415,.F.);
#116=ORIENTED_EDGE('',*,*,#416,.T.);
#117=ORIENTED_EDGE('',*,*,#417,.T.);
#118=ORIENTED_EDGE('',*,*,#418,.T.);
#119=ORIENTED_EDGE('',*,*,#419,.T.);
#120=ORIENTED_EDGE('',*,*,#420,.F.);
#121=ORIENTED_EDGE('',*,*,#421,.F.);
#122=ORIENTED_EDGE('',*,*,#388,.T.);
#123=ORIENTED_EDGE('',*,*,#422,.F.);
#124=ORIENTED_EDGE('',*,*,#423,.F.);
#125=ORIENTED_EDGE('',*,*,#424,.T.);
#126=ORIENTED_EDGE('',*,*,#422,.T.);
#127=ORIENTED_EDGE('',*,*,#387,.T.);
#128=ORIENTED_EDGE('',*,*,#425,.F.);
#129=ORIENTED_EDGE('',*,*,#416,.F.);
#130=ORIENTED_EDGE('',*,*,#426,.F.);
#131=ORIENTED_EDGE('',*,*,#417,.F.);
#132=ORIENTED_EDGE('',*,*,#427,.F.);
#133=ORIENTED_EDGE('',*,*,#418,.F.);
#134=ORIENTED_EDGE('',*,*,#428,.F.);
#135=ORIENTED_EDGE('',*,*,#429,.F.);
#136=ORIENTED_EDGE('',*,*,#430,.T.);
#137=ORIENTED_EDGE('',*,*,#397,.T.);
#138=ORIENTED_EDGE('',*,*,#431,.F.);
#139=ORIENTED_EDGE('',*,*,#419,.F.);
#140=ORIENTED_EDGE('',*,*,#424,.F.);
#141=ORIENTED_EDGE('',*,*,#432,.F.);
#142=ORIENTED_EDGE('',*,*,#433,.F.);
#143=ORIENTED_EDGE('',*,*,#434,.T.);
#144=ORIENTED_EDGE('',*,*,#429,.T.);
#145=ORIENTED_EDGE('',*,*,#435,.F.);
#146=ORIENTED_EDGE('',*,*,#436,.F.);
#147=ORIENTED_EDGE('',*,*,#437,.F.);
#148=ORIENTED_EDGE('',*,*,#438,.T.);
#149=ORIENTED_EDGE('',*,*,#439,.F.);
#150=ORIENTED_EDGE('',*,*,#440,.T.);
#151=ORIENTED_EDGE('',*,*,#441,.T.);
#152=ORIENTED_EDGE('',*,*,#420,.T.);
#153=ORIENTED_EDGE('',*,*,#431,.T.);
#154=ORIENTED_EDGE('',*,*,#427,.T.);
#155=ORIENTED_EDGE('',*,*,#426,.T.);
#156=ORIENTED_EDGE('',*,*,#425,.T.);
#157=ORIENTED_EDGE('',*,*,#442,.F.);
#158=ORIENTED_EDGE('',*,*,#443,.T.);
#159=ORIENTED_EDGE('',*,*,#444,.F.);
#160=ORIENTED_EDGE('',*,*,#445,.F.);
#161=ORIENTED_EDGE('',*,*,#423,.T.);
#162=ORIENTED_EDGE('',*,*,#386,.F.);
#163=ORIENTED_EDGE('',*,*,#446,.F.);
#164=ORIENTED_EDGE('',*,*,#432,.T.);
#165=ORIENTED_EDGE('',*,*,#415,.T.);
#166=ORIENTED_EDGE('',*,*,#447,.T.);
#167=ORIENTED_EDGE('',*,*,#433,.T.);
#168=ORIENTED_EDGE('',*,*,#446,.T.);
#169=ORIENTED_EDGE('',*,*,#391,.T.);
#170=ORIENTED_EDGE('',*,*,#448,.T.);
#171=ORIENTED_EDGE('',*,*,#440,.F.);
#172=ORIENTED_EDGE('',*,*,#449,.F.);
#173=ORIENTED_EDGE('',*,*,#450,.F.);
#174=ORIENTED_EDGE('',*,*,#392,.T.);
#175=ORIENTED_EDGE('',*,*,#449,.T.);
#176=ORIENTED_EDGE('',*,*,#439,.T.);
#177=ORIENTED_EDGE('',*,*,#450,.T.);
#178=ORIENTED_EDGE('',*,*,#438,.F.);
#179=ORIENTED_EDGE('',*,*,#451,.F.);
#180=ORIENTED_EDGE('',*,*,#393,.T.);
#181=ORIENTED_EDGE('',*,*,#437,.T.);
#182=ORIENTED_EDGE('',*,*,#452,.F.);
#183=ORIENTED_EDGE('',*,*,#394,.T.);
#184=ORIENTED_EDGE('',*,*,#451,.T.);
#185=ORIENTED_EDGE('',*,*,#390,.T.);
#186=ORIENTED_EDGE('',*,*,#453,.F.);
#187=ORIENTED_EDGE('',*,*,#454,.F.);
#188=ORIENTED_EDGE('',*,*,#455,.T.);
#189=ORIENTED_EDGE('',*,*,#389,.T.);
#190=ORIENTED_EDGE('',*,*,#456,.F.);
#191=ORIENTED_EDGE('',*,*,#457,.F.);
#192=ORIENTED_EDGE('',*,*,#453,.T.);
#193=ORIENTED_EDGE('',*,*,#441,.F.);
#194=ORIENTED_EDGE('',*,*,#448,.F.);
#195=ORIENTED_EDGE('',*,*,#455,.F.);
#196=ORIENTED_EDGE('',*,*,#458,.T.);
#197=ORIENTED_EDGE('',*,*,#456,.T.);
#198=ORIENTED_EDGE('',*,*,#421,.T.);
#199=ORIENTED_EDGE('',*,*,#454,.T.);
#200=ORIENTED_EDGE('',*,*,#457,.T.);
#201=ORIENTED_EDGE('',*,*,#458,.F.);
#202=ORIENTED_EDGE('',*,*,#444,.T.);
#203=ORIENTED_EDGE('',*,*,#459,.T.);
#204=ORIENTED_EDGE('',*,*,#460,.T.);
#205=ORIENTED_EDGE('',*,*,#461,.F.);
#206=ORIENTED_EDGE('',*,*,#462,.T.);
#207=ORIENTED_EDGE('',*,*,#463,.T.);
#208=ORIENTED_EDGE('',*,*,#464,.T.);
#209=ORIENTED_EDGE('',*,*,#442,.T.);
#210=ORIENTED_EDGE('',*,*,#465,.F.);
#211=ORIENTED_EDGE('',*,*,#466,.F.);
#212=ORIENTED_EDGE('',*,*,#467,.T.);
#213=ORIENTED_EDGE('',*,*,#445,.T.);
#214=ORIENTED_EDGE('',*,*,#462,.F.);
#215=ORIENTED_EDGE('',*,*,#468,.F.);
#216=ORIENTED_EDGE('',*,*,#465,.T.);
#217=ORIENTED_EDGE('',*,*,#469,.T.);
#218=ORIENTED_EDGE('',*,*,#470,.T.);
#219=ORIENTED_EDGE('',*,*,#466,.T.);
#220=ORIENTED_EDGE('',*,*,#468,.T.);
#221=ORIENTED_EDGE('',*,*,#461,.T.);
#222=ORIENTED_EDGE('',*,*,#384,.T.);
#223=ORIENTED_EDGE('',*,*,#471,.T.);
#224=ORIENTED_EDGE('',*,*,#472,.T.);
#225=ORIENTED_EDGE('',*,*,#473,.F.);
#226=ORIENTED_EDGE('',*,*,#474,.T.);
#227=ORIENTED_EDGE('',*,*,#475,.T.);
#228=ORIENTED_EDGE('',*,*,#476,.T.);
#229=ORIENTED_EDGE('',*,*,#382,.T.);
#230=ORIENTED_EDGE('',*,*,#477,.F.);
#231=ORIENTED_EDGE('',*,*,#478,.F.);
#232=ORIENTED_EDGE('',*,*,#479,.T.);
#233=ORIENTED_EDGE('',*,*,#385,.T.);
#234=ORIENTED_EDGE('',*,*,#474,.F.);
#235=ORIENTED_EDGE('',*,*,#480,.F.);
#236=ORIENTED_EDGE('',*,*,#477,.T.);
#237=ORIENTED_EDGE('',*,*,#481,.T.);
#238=ORIENTED_EDGE('',*,*,#482,.T.);
#239=ORIENTED_EDGE('',*,*,#478,.T.);
#240=ORIENTED_EDGE('',*,*,#480,.T.);
#241=ORIENTED_EDGE('',*,*,#473,.T.);
#242=ORIENTED_EDGE('',*,*,#380,.T.);
#243=ORIENTED_EDGE('',*,*,#483,.T.);
#244=ORIENTED_EDGE('',*,*,#484,.T.);
#245=ORIENTED_EDGE('',*,*,#485,.F.);
#246=ORIENTED_EDGE('',*,*,#486,.T.);
#247=ORIENTED_EDGE('',*,*,#487,.T.);
#248=ORIENTED_EDGE('',*,*,#488,.T.);
#249=ORIENTED_EDGE('',*,*,#378,.T.);
#250=ORIENTED_EDGE('',*,*,#489,.F.);
#251=ORIENTED_EDGE('',*,*,#490,.F.);
#252=ORIENTED_EDGE('',*,*,#491,.T.);
#253=ORIENTED_EDGE('',*,*,#381,.T.);
#254=ORIENTED_EDGE('',*,*,#486,.F.);
#255=ORIENTED_EDGE('',*,*,#492,.F.);
#256=ORIENTED_EDGE('',*,*,#489,.T.);
#257=ORIENTED_EDGE('',*,*,#493,.T.);
#258=ORIENTED_EDGE('',*,*,#494,.T.);
#259=ORIENTED_EDGE('',*,*,#490,.T.);
#260=ORIENTED_EDGE('',*,*,#492,.T.);
#261=ORIENTED_EDGE('',*,*,#485,.T.);
#262=ORIENTED_EDGE('',*,*,#376,.T.);
#263=ORIENTED_EDGE('',*,*,#495,.T.);
#264=ORIENTED_EDGE('',*,*,#496,.T.);
#265=ORIENTED_EDGE('',*,*,#497,.F.);
#266=ORIENTED_EDGE('',*,*,#498,.T.);
#267=ORIENTED_EDGE('',*,*,#499,.T.);
#268=ORIENTED_EDGE('',*,*,#500,.T.);
#269=ORIENTED_EDGE('',*,*,#374,.T.);
#270=ORIENTED_EDGE('',*,*,#501,.F.);
#271=ORIENTED_EDGE('',*,*,#502,.F.);
#272=ORIENTED_EDGE('',*,*,#503,.T.);
#273=ORIENTED_EDGE('',*,*,#377,.T.);
#274=ORIENTED_EDGE('',*,*,#498,.F.);
#275=ORIENTED_EDGE('',*,*,#504,.F.);
#276=ORIENTED_EDGE('',*,*,#501,.T.);
#277=ORIENTED_EDGE('',*,*,#505,.T.);
#278=ORIENTED_EDGE('',*,*,#506,.T.);
#279=ORIENTED_EDGE('',*,*,#502,.T.);
#280=ORIENTED_EDGE('',*,*,#504,.T.);
#281=ORIENTED_EDGE('',*,*,#497,.T.);
#282=ORIENTED_EDGE('',*,*,#435,.T.);
#283=ORIENTED_EDGE('',*,*,#428,.T.);
#284=ORIENTED_EDGE('',*,*,#396,.F.);
#285=ORIENTED_EDGE('',*,*,#507,.F.);
#286=ORIENTED_EDGE('',*,*,#436,.T.);
#287=ORIENTED_EDGE('',*,*,#507,.T.);
#288=ORIENTED_EDGE('',*,*,#395,.T.);
#289=ORIENTED_EDGE('',*,*,#452,.T.);
#290=ORIENTED_EDGE('',*,*,#460,.F.);
#291=ORIENTED_EDGE('',*,*,#508,.T.);
#292=ORIENTED_EDGE('',*,*,#413,.F.);
#293=ORIENTED_EDGE('',*,*,#509,.T.);
#294=ORIENTED_EDGE('',*,*,#469,.F.);
#295=ORIENTED_EDGE('',*,*,#411,.F.);
#296=ORIENTED_EDGE('',*,*,#510,.T.);
#297=ORIENTED_EDGE('',*,*,#463,.F.);
#298=ORIENTED_EDGE('',*,*,#511,.T.);
#299=ORIENTED_EDGE('',*,*,#472,.F.);
#300=ORIENTED_EDGE('',*,*,#512,.T.);
#301=ORIENTED_EDGE('',*,*,#409,.F.);
#302=ORIENTED_EDGE('',*,*,#513,.T.);
#303=ORIENTED_EDGE('',*,*,#481,.F.);
#304=ORIENTED_EDGE('',*,*,#407,.F.);
#305=ORIENTED_EDGE('',*,*,#514,.T.);
#306=ORIENTED_EDGE('',*,*,#475,.F.);
#307=ORIENTED_EDGE('',*,*,#515,.T.);
#308=ORIENTED_EDGE('',*,*,#484,.F.);
#309=ORIENTED_EDGE('',*,*,#516,.T.);
#310=ORIENTED_EDGE('',*,*,#405,.F.);
#311=ORIENTED_EDGE('',*,*,#517,.T.);
#312=ORIENTED_EDGE('',*,*,#493,.F.);
#313=ORIENTED_EDGE('',*,*,#403,.F.);
#314=ORIENTED_EDGE('',*,*,#518,.T.);
#315=ORIENTED_EDGE('',*,*,#487,.F.);
#316=ORIENTED_EDGE('',*,*,#519,.T.);
#317=ORIENTED_EDGE('',*,*,#496,.F.);
#318=ORIENTED_EDGE('',*,*,#520,.T.);
#319=ORIENTED_EDGE('',*,*,#401,.F.);
#320=ORIENTED_EDGE('',*,*,#521,.T.);
#321=ORIENTED_EDGE('',*,*,#505,.F.);
#322=ORIENTED_EDGE('',*,*,#399,.F.);
#323=ORIENTED_EDGE('',*,*,#522,.T.);
#324=ORIENTED_EDGE('',*,*,#499,.F.);
#325=ORIENTED_EDGE('',*,*,#523,.T.);
#326=ORIENTED_EDGE('',*,*,#430,.F.);
#327=ORIENTED_EDGE('',*,*,#434,.F.);
#328=ORIENTED_EDGE('',*,*,#447,.F.);
#329=ORIENTED_EDGE('',*,*,#414,.F.);
#330=ORIENTED_EDGE('',*,*,#508,.F.);
#331=ORIENTED_EDGE('',*,*,#459,.F.);
#332=ORIENTED_EDGE('',*,*,#443,.F.);
#333=ORIENTED_EDGE('',*,*,#464,.F.);
#334=ORIENTED_EDGE('',*,*,#510,.F.);
#335=ORIENTED_EDGE('',*,*,#410,.F.);
#336=ORIENTED_EDGE('',*,*,#512,.F.);
#337=ORIENTED_EDGE('',*,*,#471,.F.);
#338=ORIENTED_EDGE('',*,*,#383,.F.);
#339=ORIENTED_EDGE('',*,*,#476,.F.);
#340=ORIENTED_EDGE('',*,*,#514,.F.);
#341=ORIENTED_EDGE('',*,*,#406,.F.);
#342=ORIENTED_EDGE('',*,*,#516,.F.);
#343=ORIENTED_EDGE('',*,*,#483,.F.);
#344=ORIENTED_EDGE('',*,*,#379,.F.);
#345=ORIENTED_EDGE('',*,*,#488,.F.);
#346=ORIENTED_EDGE('',*,*,#518,.F.);
#347=ORIENTED_EDGE('',*,*,#402,.F.);
#348=ORIENTED_EDGE('',*,*,#520,.F.);
#349=ORIENTED_EDGE('',*,*,#495,.F.);
#350=ORIENTED_EDGE('',*,*,#375,.F.);
#351=ORIENTED_EDGE('',*,*,#500,.F.);
#352=ORIENTED_EDGE('',*,*,#522,.F.);
#353=ORIENTED_EDGE('',*,*,#398,.F.);
#354=ORIENTED_EDGE('',*,*,#521,.F.);
#355=ORIENTED_EDGE('',*,*,#400,.F.);
#356=ORIENTED_EDGE('',*,*,#523,.F.);
#357=ORIENTED_EDGE('',*,*,#503,.F.);
#358=ORIENTED_EDGE('',*,*,#506,.F.);
#359=ORIENTED_EDGE('',*,*,#517,.F.);
#360=ORIENTED_EDGE('',*,*,#404,.F.);
#361=ORIENTED_EDGE('',*,*,#519,.F.);
#362=ORIENTED_EDGE('',*,*,#491,.F.);
#363=ORIENTED_EDGE('',*,*,#494,.F.);
#364=ORIENTED_EDGE('',*,*,#513,.F.);
#365=ORIENTED_EDGE('',*,*,#408,.F.);
#366=ORIENTED_EDGE('',*,*,#515,.F.);
#367=ORIENTED_EDGE('',*,*,#479,.F.);
#368=ORIENTED_EDGE('',*,*,#482,.F.);
#369=ORIENTED_EDGE('',*,*,#509,.F.);
#370=ORIENTED_EDGE('',*,*,#412,.F.);
#371=ORIENTED_EDGE('',*,*,#511,.F.);
#372=ORIENTED_EDGE('',*,*,#467,.F.);
#373=ORIENTED_EDGE('',*,*,#470,.F.);
#374=EDGE_CURVE('',#524,#525,#626,.T.);
#375=EDGE_CURVE('',#524,#526,#627,.T.);
#376=EDGE_CURVE('',#527,#526,#628,.T.);
#377=EDGE_CURVE('',#525,#527,#629,.T.);
#378=EDGE_CURVE('',#528,#529,#630,.T.);
#379=EDGE_CURVE('',#528,#530,#631,.T.);
#380=EDGE_CURVE('',#531,#530,#632,.T.);
#381=EDGE_CURVE('',#529,#531,#633,.T.);
#382=EDGE_CURVE('',#532,#533,#634,.T.);
#383=EDGE_CURVE('',#532,#534,#635,.T.);
#384=EDGE_CURVE('',#535,#534,#636,.T.);
#385=EDGE_CURVE('',#533,#535,#637,.T.);
#386=EDGE_CURVE('',#536,#537,#638,.T.);
#387=EDGE_CURVE('',#538,#537,#639,.T.);
#388=EDGE_CURVE('',#539,#538,#640,.T.);
#389=EDGE_CURVE('',#540,#539,#641,.T.);
#390=EDGE_CURVE('',#541,#540,#642,.T.);
#391=EDGE_CURVE('',#542,#541,#643,.T.);
#392=EDGE_CURVE('',#543,#542,#644,.T.);
#393=EDGE_CURVE('',#544,#543,#645,.T.);
#394=EDGE_CURVE('',#545,#544,#646,.T.);
#395=EDGE_CURVE('',#546,#545,#647,.T.);
#396=EDGE_CURVE('',#546,#547,#648,.T.);
#397=EDGE_CURVE('',#548,#547,#649,.T.);
#398=EDGE_CURVE('',#548,#549,#650,.F.);
#399=EDGE_CURVE('',#549,#550,#651,.F.);
#400=EDGE_CURVE('',#550,#551,#652,.F.);
#401=EDGE_CURVE('',#551,#552,#653,.T.);
#402=EDGE_CURVE('',#552,#553,#654,.F.);
#403=EDGE_CURVE('',#553,#554,#655,.F.);
#404=EDGE_CURVE('',#554,#555,#656,.F.);
#405=EDGE_CURVE('',#555,#556,#657,.T.);
#406=EDGE_CURVE('',#556,#557,#658,.F.);
#407=EDGE_CURVE('',#557,#558,#659,.F.);
#408=EDGE_CURVE('',#558,#559,#660,.F.);
#409=EDGE_CURVE('',#559,#560,#661,.T.);
#410=EDGE_CURVE('',#560,#561,#662,.F.);
#411=EDGE_CURVE('',#561,#562,#663,.F.);
#412=EDGE_CURVE('',#562,#563,#664,.F.);
#413=EDGE_CURVE('',#563,#564,#665,.T.);
#414=EDGE_CURVE('',#564,#565,#666,.F.);
#415=EDGE_CURVE('',#536,#565,#667,.T.);
#416=EDGE_CURVE('',#566,#566,#60,.T.);
#417=EDGE_CURVE('',#567,#567,#61,.T.);
#418=EDGE_CURVE('',#568,#568,#62,.T.);
#419=EDGE_CURVE('',#569,#569,#63,.T.);
#420=EDGE_CURVE('',#570,#571,#668,.T.);
#421=EDGE_CURVE('',#539,#570,#669,.T.);
#422=EDGE_CURVE('',#571,#538,#670,.T.);
#423=EDGE_CURVE('',#572,#537,#671,.T.);
#424=EDGE_CURVE('',#572,#571,#672,.T.);
#425=EDGE_CURVE('',#573,#573,#64,.T.);
#426=EDGE_CURVE('',#574,#574,#65,.T.);
#427=EDGE_CURVE('',#575,#575,#66,.T.);
#428=EDGE_CURVE('',#576,#547,#673,.T.);
#429=EDGE_CURVE('',#577,#576,#674,.T.);
#430=EDGE_CURVE('',#577,#548,#67,.F.);
#431=EDGE_CURVE('',#578,#578,#68,.T.);
#432=EDGE_CURVE('',#579,#572,#675,.T.);
#433=EDGE_CURVE('',#580,#579,#676,.T.);
#434=EDGE_CURVE('',#580,#577,#677,.F.);
#435=EDGE_CURVE('',#581,#576,#678,.T.);
#436=EDGE_CURVE('',#582,#581,#679,.T.);
#437=EDGE_CURVE('',#583,#582,#680,.T.);
#438=EDGE_CURVE('',#583,#584,#681,.T.);
#439=EDGE_CURVE('',#585,#584,#682,.T.);
#440=EDGE_CURVE('',#585,#586,#683,.T.);
#441=EDGE_CURVE('',#586,#570,#33,.T.);
#442=EDGE_CURVE('',#587,#588,#684,.T.);
#443=EDGE_CURVE('',#587,#589,#685,.T.);
#444=EDGE_CURVE('',#590,#589,#686,.T.);
#445=EDGE_CURVE('',#588,#590,#687,.T.);
#446=EDGE_CURVE('',#579,#536,#688,.T.);
#447=EDGE_CURVE('',#565,#580,#69,.T.);
#448=EDGE_CURVE('',#541,#586,#689,.T.);
#449=EDGE_CURVE('',#542,#585,#690,.T.);
#450=EDGE_CURVE('',#543,#584,#691,.T.);
#451=EDGE_CURVE('',#544,#583,#692,.T.);
#452=EDGE_CURVE('',#545,#582,#693,.T.);
#453=EDGE_CURVE('',#591,#540,#694,.T.);
#454=EDGE_CURVE('',#592,#591,#695,.T.);
#455=EDGE_CURVE('',#592,#541,#696,.T.);
#456=EDGE_CURVE('',#593,#539,#697,.T.);
#457=EDGE_CURVE('',#591,#593,#698,.T.);
#458=EDGE_CURVE('',#592,#593,#34,.T.);
#459=EDGE_CURVE('',#589,#594,#12,.F.);
#460=EDGE_CURVE('',#594,#595,#699,.F.);
#461=EDGE_CURVE('',#596,#595,#700,.T.);
#462=EDGE_CURVE('',#596,#590,#701,.T.);
#463=EDGE_CURVE('',#597,#598,#702,.T.);
#464=EDGE_CURVE('',#598,#587,#13,.F.);
#465=EDGE_CURVE('',#599,#588,#703,.T.);
#466=EDGE_CURVE('',#600,#599,#704,.T.);
#467=EDGE_CURVE('',#600,#597,#14,.T.);
#468=EDGE_CURVE('',#599,#596,#705,.T.);
#469=EDGE_CURVE('',#595,#601,#70,.T.);
#470=EDGE_CURVE('',#601,#600,#706,.T.);
#471=EDGE_CURVE('',#534,#602,#15,.F.);
#472=EDGE_CURVE('',#602,#603,#707,.F.);
#473=EDGE_CURVE('',#604,#603,#708,.T.);
#474=EDGE_CURVE('',#604,#535,#709,.T.);
#475=EDGE_CURVE('',#605,#606,#710,.T.);
#476=EDGE_CURVE('',#606,#532,#16,.F.);
#477=EDGE_CURVE('',#607,#533,#711,.T.);
#478=EDGE_CURVE('',#608,#607,#712,.T.);
#479=EDGE_CURVE('',#608,#605,#17,.T.);
#480=EDGE_CURVE('',#607,#604,#713,.T.);
#481=EDGE_CURVE('',#603,#609,#71,.T.);
#482=EDGE_CURVE('',#609,#608,#714,.T.);
#483=EDGE_CURVE('',#530,#610,#18,.F.);
#484=EDGE_CURVE('',#610,#611,#715,.F.);
#485=EDGE_CURVE('',#612,#611,#716,.T.);
#486=EDGE_CURVE('',#612,#531,#717,.T.);
#487=EDGE_CURVE('',#613,#614,#718,.T.);
#488=EDGE_CURVE('',#614,#528,#19,.F.);
#489=EDGE_CURVE('',#615,#529,#719,.T.);
#490=EDGE_CURVE('',#616,#615,#720,.T.);
#491=EDGE_CURVE('',#616,#613,#20,.T.);
#492=EDGE_CURVE('',#615,#612,#721,.T.);
#493=EDGE_CURVE('',#611,#617,#72,.T.);
#494=EDGE_CURVE('',#617,#616,#722,.T.);
#495=EDGE_CURVE('',#526,#618,#21,.F.);
#496=EDGE_CURVE('',#618,#619,#723,.F.);
#497=EDGE_CURVE('',#620,#619,#724,.T.);
#498=EDGE_CURVE('',#620,#527,#725,.T.);
#499=EDGE_CURVE('',#621,#622,#726,.T.);
#500=EDGE_CURVE('',#622,#524,#22,.F.);
#501=EDGE_CURVE('',#623,#525,#727,.T.);
#502=EDGE_CURVE('',#624,#623,#728,.T.);
#503=EDGE_CURVE('',#624,#621,#23,.T.);
#504=EDGE_CURVE('',#623,#620,#729,.T.);
#505=EDGE_CURVE('',#619,#625,#73,.T.);
#506=EDGE_CURVE('',#625,#624,#730,.T.);
#507=EDGE_CURVE('',#581,#546,#731,.T.);
#508=EDGE_CURVE('',#594,#564,#35,.T.);
#509=EDGE_CURVE('',#563,#601,#24,.F.);
#510=EDGE_CURVE('',#561,#598,#36,.T.);
#511=EDGE_CURVE('',#597,#562,#25,.F.);
#512=EDGE_CURVE('',#602,#560,#37,.T.);
#513=EDGE_CURVE('',#559,#609,#26,.F.);
#514=EDGE_CURVE('',#557,#606,#38,.T.);
#515=EDGE_CURVE('',#605,#558,#27,.F.);
#516=EDGE_CURVE('',#610,#556,#39,.T.);
#517=EDGE_CURVE('',#555,#617,#28,.F.);
#518=EDGE_CURVE('',#553,#614,#40,.T.);
#519=EDGE_CURVE('',#613,#554,#29,.F.);
#520=EDGE_CURVE('',#618,#552,#41,.T.);
#521=EDGE_CURVE('',#551,#625,#30,.F.);
#522=EDGE_CURVE('',#549,#622,#42,.T.);
#523=EDGE_CURVE('',#621,#550,#31,.F.);
#524=VERTEX_POINT('',#1465);
#525=VERTEX_POINT('',#1466);
#526=VERTEX_POINT('',#1468);
#527=VERTEX_POINT('',#1470);
#528=VERTEX_POINT('',#1474);
#529=VERTEX_POINT('',#1475);
#530=VERTEX_POINT('',#1477);
#531=VERTEX_POINT('',#1479);
#532=VERTEX_POINT('',#1483);
#533=VERTEX_POINT('',#1484);
#534=VERTEX_POINT('',#1486);
#535=VERTEX_POINT('',#1488);
#536=VERTEX_POINT('',#1492);
#537=VERTEX_POINT('',#1493);
#538=VERTEX_POINT('',#1495);
#539=VERTEX_POINT('',#1497);
#540=VERTEX_POINT('',#1499);
#541=VERTEX_POINT('',#1501);
#542=VERTEX_POINT('',#1503);
#543=VERTEX_POINT('',#1505);
#544=VERTEX_POINT('',#1507);
#545=VERTEX_POINT('',#1509);
#546=VERTEX_POINT('',#1511);
#547=VERTEX_POINT('',#1513);
#548=VERTEX_POINT('',#1515);
#549=VERTEX_POINT('',#1517);
#550=VERTEX_POINT('',#1519);
#551=VERTEX_POINT('',#1521);
#552=VERTEX_POINT('',#1523);
#553=VERTEX_POINT('',#1525);
#554=VERTEX_POINT('',#1527);
#555=VERTEX_POINT('',#1529);
#556=VERTEX_POINT('',#1531);
#557=VERTEX_POINT('',#1533);
#558=VERTEX_POINT('',#1535);
#559=VERTEX_POINT('',#1537);
#560=VERTEX_POINT('',#1539);
#561=VERTEX_POINT('',#1541);
#562=VERTEX_POINT('',#1543);
#563=VERTEX_POINT('',#1545);
#564=VERTEX_POINT('',#1547);
#565=VERTEX_POINT('',#1549);
#566=VERTEX_POINT('',#1552);
#567=VERTEX_POINT('',#1554);
#568=VERTEX_POINT('',#1556);
#569=VERTEX_POINT('',#1558);
#570=VERTEX_POINT('',#1561);
#571=VERTEX_POINT('',#1562);
#572=VERTEX_POINT('',#1567);
#573=VERTEX_POINT('',#1571);
#574=VERTEX_POINT('',#1574);
#575=VERTEX_POINT('',#1577);
#576=VERTEX_POINT('',#1580);
#577=VERTEX_POINT('',#1582);
#578=VERTEX_POINT('',#1586);
#579=VERTEX_POINT('',#1589);
#580=VERTEX_POINT('',#1591);
#581=VERTEX_POINT('',#1594);
#582=VERTEX_POINT('',#1596);
#583=VERTEX_POINT('',#1598);
#584=VERTEX_POINT('',#1600);
#585=VERTEX_POINT('',#1602);
#586=VERTEX_POINT('',#1604);
#587=VERTEX_POINT('',#1614);
#588=VERTEX_POINT('',#1615);
#589=VERTEX_POINT('',#1617);
#590=VERTEX_POINT('',#1619);
#591=VERTEX_POINT('',#1636);
#592=VERTEX_POINT('',#1638);
#593=VERTEX_POINT('',#1642);
#594=VERTEX_POINT('',#1658);
#595=VERTEX_POINT('',#1660);
#596=VERTEX_POINT('',#1662);
#597=VERTEX_POINT('',#1666);
#598=VERTEX_POINT('',#1667);
#599=VERTEX_POINT('',#1670);
#600=VERTEX_POINT('',#1672);
#601=VERTEX_POINT('',#1678);
#602=VERTEX_POINT('',#1682);
#603=VERTEX_POINT('',#1684);
#604=VERTEX_POINT('',#1686);
#605=VERTEX_POINT('',#1690);
#606=VERTEX_POINT('',#1691);
#607=VERTEX_POINT('',#1694);
#608=VERTEX_POINT('',#1696);
#609=VERTEX_POINT('',#1702);
#610=VERTEX_POINT('',#1706);
#611=VERTEX_POINT('',#1708);
#612=VERTEX_POINT('',#1710);
#613=VERTEX_POINT('',#1714);
#614=VERTEX_POINT('',#1715);
#615=VERTEX_POINT('',#1718);
#616=VERTEX_POINT('',#1720);
#617=VERTEX_POINT('',#1726);
#618=VERTEX_POINT('',#1730);
#619=VERTEX_POINT('',#1732);
#620=VERTEX_POINT('',#1734);
#621=VERTEX_POINT('',#1738);
#622=VERTEX_POINT('',#1739);
#623=VERTEX_POINT('',#1742);
#624=VERTEX_POINT('',#1744);
#625=VERTEX_POINT('',#1750);
#626=LINE('',#1464,#732);
#627=LINE('',#1467,#733);
#628=LINE('',#1469,#734);
#629=LINE('',#1471,#735);
#630=LINE('',#1473,#736);
#631=LINE('',#1476,#737);
#632=LINE('',#1478,#738);
#633=LINE('',#1480,#739);
#634=LINE('',#1482,#740);
#635=LINE('',#1485,#741);
#636=LINE('',#1487,#742);
#637=LINE('',#1489,#743);
#638=LINE('',#1491,#744);
#639=LINE('',#1494,#745);
#640=LINE('',#1496,#746);
#641=LINE('',#1498,#747);
#642=LINE('',#1500,#748);
#643=LINE('',#1502,#749);
#644=LINE('',#1504,#750);
#645=LINE('',#1506,#751);
#646=LINE('',#1508,#752);
#647=LINE('',#1510,#753);
#648=LINE('',#1512,#754);
#649=LINE('',#1514,#755);
#650=LINE('',#1516,#756);
#651=LINE('',#1518,#757);
#652=LINE('',#1520,#758);
#653=LINE('',#1522,#759);
#654=LINE('',#1524,#760);
#655=LINE('',#1526,#761);
#656=LINE('',#1528,#762);
#657=LINE('',#1530,#763);
#658=LINE('',#1532,#764);
#659=LINE('',#1534,#765);
#660=LINE('',#1536,#766);
#661=LINE('',#1538,#767);
#662=LINE('',#1540,#768);
#663=LINE('',#1542,#769);
#664=LINE('',#1544,#770);
#665=LINE('',#1546,#771);
#666=LINE('',#1548,#772);
#667=LINE('',#1550,#773);
#668=LINE('',#1560,#774);
#669=LINE('',#1563,#775);
#670=LINE('',#1564,#776);
#671=LINE('',#1566,#777);
#672=LINE('',#1568,#778);
#673=LINE('',#1579,#779);
#674=LINE('',#1581,#780);
#675=LINE('',#1588,#781);
#676=LINE('',#1590,#782);
#677=LINE('',#1592,#783);
#678=LINE('',#1593,#784);
#679=LINE('',#1595,#785);
#680=LINE('',#1597,#786);
#681=LINE('',#1599,#787);
#682=LINE('',#1601,#788);
#683=LINE('',#1603,#789);
#684=LINE('',#1613,#790);
#685=LINE('',#1616,#791);
#686=LINE('',#1618,#792);
#687=LINE('',#1620,#793);
#688=LINE('',#1622,#794);
#689=LINE('',#1626,#795);
#690=LINE('',#1627,#796);
#691=LINE('',#1629,#797);
#692=LINE('',#1631,#798);
#693=LINE('',#1633,#799);
#694=LINE('',#1635,#800);
#695=LINE('',#1637,#801);
#696=LINE('',#1639,#802);
#697=LINE('',#1641,#803);
#698=LINE('',#1643,#804);
#699=LINE('',#1659,#805);
#700=LINE('',#1661,#806);
#701=LINE('',#1663,#807);
#702=LINE('',#1665,#808);
#703=LINE('',#1669,#809);
#704=LINE('',#1671,#810);
#705=LINE('',#1675,#811);
#706=LINE('',#1679,#812);
#707=LINE('',#1683,#813);
#708=LINE('',#1685,#814);
#709=LINE('',#1687,#815);
#710=LINE('',#1689,#816);
#711=LINE('',#1693,#817);
#712=LINE('',#1695,#818);
#713=LINE('',#1699,#819);
#714=LINE('',#1703,#820);
#715=LINE('',#1707,#821);
#716=LINE('',#1709,#822);
#717=LINE('',#1711,#823);
#718=LINE('',#1713,#824);
#719=LINE('',#1717,#825);
#720=LINE('',#1719,#826);
#721=LINE('',#1723,#827);
#722=LINE('',#1727,#828);
#723=LINE('',#1731,#829);
#724=LINE('',#1733,#830);
#725=LINE('',#1735,#831);
#726=LINE('',#1737,#832);
#727=LINE('',#1741,#833);
#728=LINE('',#1743,#834);
#729=LINE('',#1747,#835);
#730=LINE('',#1751,#836);
#731=LINE('',#1753,#837);
#732=VECTOR('',#1176,1.);
#733=VECTOR('',#1177,1.);
#734=VECTOR('',#1178,1.);
#735=VECTOR('',#1179,1.);
#736=VECTOR('',#1182,1.);
#737=VECTOR('',#1183,1.);
#738=VECTOR('',#1184,1.);
#739=VECTOR('',#1185,1.);
#740=VECTOR('',#1188,1.);
#741=VECTOR('',#1189,1.);
#742=VECTOR('',#1190,1.);
#743=VECTOR('',#1191,1.);
#744=VECTOR('',#1194,1.);
#745=VECTOR('',#1195,1.);
#746=VECTOR('',#1196,1.);
#747=VECTOR('',#1197,1.);
#748=VECTOR('',#1198,1.);
#749=VECTOR('',#1199,1.);
#750=VECTOR('',#1200,1.);
#751=VECTOR('',#1201,1.);
#752=VECTOR('',#1202,1.);
#753=VECTOR('',#1203,1.);
#754=VECTOR('',#1204,1.);
#755=VECTOR('',#1205,1.);
#756=VECTOR('',#1206,1.);
#757=VECTOR('',#1207,1.);
#758=VECTOR('',#1208,1.);
#759=VECTOR('',#1209,1.);
#760=VECTOR('',#1210,1.);
#761=VECTOR('',#1211,1.);
#762=VECTOR('',#1212,1.);
#763=VECTOR('',#1213,1.);
#764=VECTOR('',#1214,1.);
#765=VECTOR('',#1215,1.);
#766=VECTOR('',#1216,1.);
#767=VECTOR('',#1217,1.);
#768=VECTOR('',#1218,1.);
#769=VECTOR('',#1219,1.);
#770=VECTOR('',#1220,1.);
#771=VECTOR('',#1221,1.);
#772=VECTOR('',#1222,1.);
#773=VECTOR('',#1223,1.);
#774=VECTOR('',#1234,1.);
#775=VECTOR('',#1235,1.);
#776=VECTOR('',#1236,1.);
#777=VECTOR('',#1239,1.);
#778=VECTOR('',#1240,1.);
#779=VECTOR('',#1255,1.);
#780=VECTOR('',#1256,1.);
#781=VECTOR('',#1265,1.);
#782=VECTOR('',#1266,1.);
#783=VECTOR('',#1267,1.);
#784=VECTOR('',#1268,1.);
#785=VECTOR('',#1269,1.);
#786=VECTOR('',#1270,1.);
#787=VECTOR('',#1271,1.);
#788=VECTOR('',#1272,1.);
#789=VECTOR('',#1273,1.);
#790=VECTOR('',#1284,1.);
#791=VECTOR('',#1285,1.);
#792=VECTOR('',#1286,1.);
#793=VECTOR('',#1287,1.);
#794=VECTOR('',#1290,1.);
#795=VECTOR('',#1297,1.);
#796=VECTOR('',#1298,1.);
#797=VECTOR('',#1301,1.);
#798=VECTOR('',#1304,1.);
#799=VECTOR('',#1307,1.);
#800=VECTOR('',#1310,1.);
#801=VECTOR('',#1311,1.);
#802=VECTOR('',#1312,1.);
#803=VECTOR('',#1315,1.);
#804=VECTOR('',#1316,1.);
#805=VECTOR('',#1323,1.);
#806=VECTOR('',#1324,1.);
#807=VECTOR('',#1325,1.);
#808=VECTOR('',#1328,1.);
#809=VECTOR('',#1331,1.);
#810=VECTOR('',#1332,1.);
#811=VECTOR('',#1337,1.);
#812=VECTOR('',#1342,1.);
#813=VECTOR('',#1347,1.);
#814=VECTOR('',#1348,1.);
#815=VECTOR('',#1349,1.);
#816=VECTOR('',#1352,1.);
#817=VECTOR('',#1355,1.);
#818=VECTOR('',#1356,1.);
#819=VECTOR('',#1361,1.);
#820=VECTOR('',#1366,1.);
#821=VECTOR('',#1371,1.);
#822=VECTOR('',#1372,1.);
#823=VECTOR('',#1373,1.);
#824=VECTOR('',#1376,1.);
#825=VECTOR('',#1379,1.);
#826=VECTOR('',#1380,1.);
#827=VECTOR('',#1385,1.);
#828=VECTOR('',#1390,1.);
#829=VECTOR('',#1395,1.);
#830=VECTOR('',#1396,1.);
#831=VECTOR('',#1397,1.);
#832=VECTOR('',#1400,1.);
#833=VECTOR('',#1403,1.);
#834=VECTOR('',#1404,1.);
#835=VECTOR('',#1409,1.);
#836=VECTOR('',#1414,1.);
#837=VECTOR('',#1417,1.);
#838=EDGE_LOOP('',(#74,#75,#76,#77));
#839=EDGE_LOOP('',(#78,#79,#80,#81));
#840=EDGE_LOOP('',(#82,#83,#84,#85));
#841=EDGE_LOOP('',(#86,#87,#88,#89,#90,#91,#92,#93,#94,#95,#96,#97,#98,
#99,#100,#101,#102,#103,#104,#105,#106,#107,#108,#109,#110,#111,#112,#113,
#114,#115));
#842=EDGE_LOOP('',(#116));
#843=EDGE_LOOP('',(#117));
#844=EDGE_LOOP('',(#118));
#845=EDGE_LOOP('',(#119));
#846=EDGE_LOOP('',(#120,#121,#122,#123));
#847=EDGE_LOOP('',(#124,#125,#126,#127));
#848=EDGE_LOOP('',(#128));
#849=EDGE_LOOP('',(#129));
#850=EDGE_LOOP('',(#130));
#851=EDGE_LOOP('',(#131));
#852=EDGE_LOOP('',(#132));
#853=EDGE_LOOP('',(#133));
#854=EDGE_LOOP('',(#134,#135,#136,#137));
#855=EDGE_LOOP('',(#138));
#856=EDGE_LOOP('',(#139));
#857=EDGE_LOOP('',(#140,#141,#142,#143,#144,#145,#146,#147,#148,#149,#150,
#151,#152));
#858=EDGE_LOOP('',(#153));
#859=EDGE_LOOP('',(#154));
#860=EDGE_LOOP('',(#155));
#861=EDGE_LOOP('',(#156));
#862=EDGE_LOOP('',(#157,#158,#159,#160));
#863=EDGE_LOOP('',(#161,#162,#163,#164));
#864=EDGE_LOOP('',(#165,#166,#167,#168));
#865=EDGE_LOOP('',(#169,#170,#171,#172));
#866=EDGE_LOOP('',(#173,#174,#175,#176));
#867=EDGE_LOOP('',(#177,#178,#179,#180));
#868=EDGE_LOOP('',(#181,#182,#183,#184));
#869=EDGE_LOOP('',(#185,#186,#187,#188));
#870=EDGE_LOOP('',(#189,#190,#191,#192));
#871=EDGE_LOOP('',(#193,#194,#195,#196,#197,#198));
#872=EDGE_LOOP('',(#199,#200,#201));
#873=EDGE_LOOP('',(#202,#203,#204,#205,#206));
#874=EDGE_LOOP('',(#207,#208,#209,#210,#211,#212));
#875=EDGE_LOOP('',(#213,#214,#215,#216));
#876=EDGE_LOOP('',(#217,#218,#219,#220,#221));
#877=EDGE_LOOP('',(#222,#223,#224,#225,#226));
#878=EDGE_LOOP('',(#227,#228,#229,#230,#231,#232));
#879=EDGE_LOOP('',(#233,#234,#235,#236));
#880=EDGE_LOOP('',(#237,#238,#239,#240,#241));
#881=EDGE_LOOP('',(#242,#243,#244,#245,#246));
#882=EDGE_LOOP('',(#247,#248,#249,#250,#251,#252));
#883=EDGE_LOOP('',(#253,#254,#255,#256));
#884=EDGE_LOOP('',(#257,#258,#259,#260,#261));
#885=EDGE_LOOP('',(#262,#263,#264,#265,#266));
#886=EDGE_LOOP('',(#267,#268,#269,#270,#271,#272));
#887=EDGE_LOOP('',(#273,#274,#275,#276));
#888=EDGE_LOOP('',(#277,#278,#279,#280,#281));
#889=EDGE_LOOP('',(#282,#283,#284,#285));
#890=EDGE_LOOP('',(#286,#287,#288,#289));
#891=EDGE_LOOP('',(#290,#291,#292,#293,#294));
#892=EDGE_LOOP('',(#295,#296,#297,#298));
#893=EDGE_LOOP('',(#299,#300,#301,#302,#303));
#894=EDGE_LOOP('',(#304,#305,#306,#307));
#895=EDGE_LOOP('',(#308,#309,#310,#311,#312));
#896=EDGE_LOOP('',(#313,#314,#315,#316));
#897=EDGE_LOOP('',(#317,#318,#319,#320,#321));
#898=EDGE_LOOP('',(#322,#323,#324,#325));
#899=EDGE_LOOP('',(#326,#327,#328,#329,#330,#331,#332,#333,#334,#335,#336,
#337,#338,#339,#340,#341,#342,#343,#344,#345,#346,#347,#348,#349,#350,#351,
#352,#353));
#900=EDGE_LOOP('',(#354,#355,#356,#357,#358));
#901=EDGE_LOOP('',(#359,#360,#361,#362,#363));
#902=EDGE_LOOP('',(#364,#365,#366,#367,#368));
#903=EDGE_LOOP('',(#369,#370,#371,#372,#373));
#904=FACE_BOUND('',#838,.T.);
#905=FACE_BOUND('',#839,.T.);
#906=FACE_BOUND('',#840,.T.);
#907=FACE_BOUND('',#841,.T.);
#908=FACE_BOUND('',#842,.T.);
#909=FACE_BOUND('',#843,.T.);
#910=FACE_BOUND('',#844,.T.);
#911=FACE_BOUND('',#845,.T.);
#912=FACE_BOUND('',#846,.T.);
#913=FACE_BOUND('',#847,.T.);
#914=FACE_BOUND('',#848,.T.);
#915=FACE_BOUND('',#849,.T.);
#916=FACE_BOUND('',#850,.T.);
#917=FACE_BOUND('',#851,.T.);
#918=FACE_BOUND('',#852,.T.);
#919=FACE_BOUND('',#853,.T.);
#920=FACE_BOUND('',#854,.T.);
#921=FACE_BOUND('',#855,.T.);
#922=FACE_BOUND('',#856,.T.);
#923=FACE_BOUND('',#857,.T.);
#924=FACE_BOUND('',#858,.T.);
#925=FACE_BOUND('',#859,.T.);
#926=FACE_BOUND('',#860,.T.);
#927=FACE_BOUND('',#861,.T.);
#928=FACE_BOUND('',#862,.T.);
#929=FACE_BOUND('',#863,.T.);
#930=FACE_BOUND('',#864,.T.);
#931=FACE_BOUND('',#865,.T.);
#932=FACE_BOUND('',#866,.T.);
#933=FACE_BOUND('',#867,.T.);
#934=FACE_BOUND('',#868,.T.);
#935=FACE_BOUND('',#869,.T.);
#936=FACE_BOUND('',#870,.T.);
#937=FACE_BOUND('',#871,.T.);
#938=FACE_BOUND('',#872,.T.);
#939=FACE_BOUND('',#873,.T.);
#940=FACE_BOUND('',#874,.T.);
#941=FACE_BOUND('',#875,.T.);
#942=FACE_BOUND('',#876,.T.);
#943=FACE_BOUND('',#877,.T.);
#944=FACE_BOUND('',#878,.T.);
#945=FACE_BOUND('',#879,.T.);
#946=FACE_BOUND('',#880,.T.);
#947=FACE_BOUND('',#881,.T.);
#948=FACE_BOUND('',#882,.T.);
#949=FACE_BOUND('',#883,.T.);
#950=FACE_BOUND('',#884,.T.);
#951=FACE_BOUND('',#885,.T.);
#952=FACE_BOUND('',#886,.T.);
#953=FACE_BOUND('',#887,.T.);
#954=FACE_BOUND('',#888,.T.);
#955=FACE_BOUND('',#889,.T.);
#956=FACE_BOUND('',#890,.T.);
#957=FACE_BOUND('',#891,.T.);
#958=FACE_BOUND('',#892,.T.);
#959=FACE_BOUND('',#893,.T.);
#960=FACE_BOUND('',#894,.T.);
#961=FACE_BOUND('',#895,.T.);
#962=FACE_BOUND('',#896,.T.);
#963=FACE_BOUND('',#897,.T.);
#964=FACE_BOUND('',#898,.T.);
#965=FACE_BOUND('',#899,.T.);
#966=FACE_BOUND('',#900,.T.);
#967=FACE_BOUND('',#901,.T.);
#968=FACE_BOUND('',#902,.T.);
#969=FACE_BOUND('',#903,.T.);
#970=PLANE('',#1081);
#971=PLANE('',#1082);
#972=PLANE('',#1083);
#973=PLANE('',#1084);
#974=PLANE('',#1089);
#975=PLANE('',#1090);
#976=PLANE('',#1097);
#977=PLANE('',#1101);
#978=PLANE('',#1102);
#979=PLANE('',#1103);
#980=PLANE('',#1104);
#981=PLANE('',#1105);
#982=PLANE('',#1106);
#983=PLANE('',#1107);
#984=PLANE('',#1108);
#985=PLANE('',#1110);
#986=PLANE('',#1111);
#987=PLANE('',#1112);
#988=PLANE('',#1113);
#989=PLANE('',#1114);
#990=PLANE('',#1115);
#991=PLANE('',#1116);
#992=PLANE('',#1117);
#993=PLANE('',#1119);
#994=PLANE('',#1122);
#995=PLANE('',#1123);
#996=PLANE('',#1125);
#997=PLANE('',#1127);
#998=PLANE('',#1130);
#999=PLANE('',#1131);
#1000=PLANE('',#1133);
#1001=PLANE('',#1135);
#1002=PLANE('',#1138);
#1003=PLANE('',#1139);
#1004=PLANE('',#1141);
#1005=PLANE('',#1143);
#1006=PLANE('',#1146);
#1007=PLANE('',#1147);
#1008=PLANE('',#1149);
#1009=PLANE('',#1150);
#1010=ADVANCED_FACE('',(#904),#970,.T.);
#1011=ADVANCED_FACE('',(#905),#971,.T.);
#1012=ADVANCED_FACE('',(#906),#972,.T.);
#1013=ADVANCED_FACE('',(#907,#908,#909,#910,#911),#973,.T.);
#1014=ADVANCED_FACE('',(#912),#974,.F.);
#1015=ADVANCED_FACE('',(#913),#975,.F.);
#1016=ADVANCED_FACE('',(#914,#915),#43,.F.);
#1017=ADVANCED_FACE('',(#916,#917),#44,.F.);
#1018=ADVANCED_FACE('',(#918,#919),#45,.F.);
#1019=ADVANCED_FACE('',(#920),#976,.F.);
#1020=ADVANCED_FACE('',(#921,#922),#46,.F.);
#1021=ADVANCED_FACE('',(#923),#977,.F.);
#1022=ADVANCED_FACE('',(#924),#978,.T.);
#1023=ADVANCED_FACE('',(#925),#979,.T.);
#1024=ADVANCED_FACE('',(#926),#980,.T.);
#1025=ADVANCED_FACE('',(#927),#981,.T.);
#1026=ADVANCED_FACE('',(#928),#982,.T.);
#1027=ADVANCED_FACE('',(#929),#983,.F.);
#1028=ADVANCED_FACE('',(#930),#984,.T.);
#1029=ADVANCED_FACE('',(#931),#985,.F.);
#1030=ADVANCED_FACE('',(#932),#986,.T.);
#1031=ADVANCED_FACE('',(#933),#987,.F.);
#1032=ADVANCED_FACE('',(#934),#988,.T.);
#1033=ADVANCED_FACE('',(#935),#989,.F.);
#1034=ADVANCED_FACE('',(#936),#990,.F.);
#1035=ADVANCED_FACE('',(#937),#32,.T.);
#1036=ADVANCED_FACE('',(#938),#991,.F.);
#1037=ADVANCED_FACE('',(#939),#992,.F.);
#1038=ADVANCED_FACE('',(#940),#993,.F.);
#1039=ADVANCED_FACE('',(#941),#994,.F.);
#1040=ADVANCED_FACE('',(#942),#995,.F.);
#1041=ADVANCED_FACE('',(#943),#996,.F.);
#1042=ADVANCED_FACE('',(#944),#997,.F.);
#1043=ADVANCED_FACE('',(#945),#998,.F.);
#1044=ADVANCED_FACE('',(#946),#999,.F.);
#1045=ADVANCED_FACE('',(#947),#1000,.F.);
#1046=ADVANCED_FACE('',(#948),#1001,.F.);
#1047=ADVANCED_FACE('',(#949),#1002,.F.);
#1048=ADVANCED_FACE('',(#950),#1003,.F.);
#1049=ADVANCED_FACE('',(#951),#1004,.F.);
#1050=ADVANCED_FACE('',(#952),#1005,.F.);
#1051=ADVANCED_FACE('',(#953),#1006,.F.);
#1052=ADVANCED_FACE('',(#954),#1007,.F.);
#1053=ADVANCED_FACE('',(#955),#1008,.F.);
#1054=ADVANCED_FACE('',(#956),#1009,.T.);
#1055=ADVANCED_FACE('',(#957),#47,.F.);
#1056=ADVANCED_FACE('',(#958),#48,.F.);
#1057=ADVANCED_FACE('',(#959),#49,.F.);
#1058=ADVANCED_FACE('',(#960),#50,.F.);
#1059=ADVANCED_FACE('',(#961),#51,.F.);
#1060=ADVANCED_FACE('',(#962),#52,.F.);
#1061=ADVANCED_FACE('',(#963),#53,.F.);
#1062=ADVANCED_FACE('',(#964),#54,.F.);
#1063=ADVANCED_FACE('',(#965),#55,.T.);
#1064=ADVANCED_FACE('',(#966),#56,.F.);
#1065=ADVANCED_FACE('',(#967),#57,.F.);
#1066=ADVANCED_FACE('',(#968),#58,.F.);
#1067=ADVANCED_FACE('',(#969),#59,.F.);
#1068=CLOSED_SHELL('',(#1010,#1011,#1012,#1013,#1014,#1015,#1016,#1017,
#1018,#1019,#1020,#1021,#1022,#1023,#1024,#1025,#1026,#1027,#1028,#1029,
#1030,#1031,#1032,#1033,#1034,#1035,#1036,#1037,#1038,#1039,#1040,#1041,
#1042,#1043,#1044,#1045,#1046,#1047,#1048,#1049,#1050,#1051,#1052,#1053,
#1054,#1055,#1056,#1057,#1058,#1059,#1060,#1061,#1062,#1063,#1064,#1065,
#1066,#1067));
#1069=STYLED_ITEM('',(#1070),#1077);
#1070=PRESENTATION_STYLE_ASSIGNMENT((#1071));
#1071=SURFACE_STYLE_USAGE(.BOTH.,#1072);
#1072=SURFACE_SIDE_STYLE('',(#1073));
#1073=SURFACE_STYLE_FILL_AREA(#1074);
#1074=FILL_AREA_STYLE('',(#1075));
#1075=FILL_AREA_STYLE_COLOUR('',#1076);
#1076=COLOUR_RGB('',0.796078431372549,0.823529411764706,0.937254901960784);
#1077=MANIFOLD_SOLID_BREP('driver_side_palm_cover2',#1068);
#1078=SHAPE_DEFINITION_REPRESENTATION(#1830,#1079);
#1079=SHAPE_REPRESENTATION('driver_side_palm_cover2',(#1080),#1825);
#1080=AXIS2_PLACEMENT_3D('',#1462,#1172,#1173);
#1081=AXIS2_PLACEMENT_3D('',#1463,#1174,#1175);
#1082=AXIS2_PLACEMENT_3D('',#1472,#1180,#1181);
#1083=AXIS2_PLACEMENT_3D('',#1481,#1186,#1187);
#1084=AXIS2_PLACEMENT_3D('',#1490,#1192,#1193);
#1085=AXIS2_PLACEMENT_3D('',#1551,#1224,#1225);
#1086=AXIS2_PLACEMENT_3D('',#1553,#1226,#1227);
#1087=AXIS2_PLACEMENT_3D('',#1555,#1228,#1229);
#1088=AXIS2_PLACEMENT_3D('',#1557,#1230,#1231);
#1089=AXIS2_PLACEMENT_3D('',#1559,#1232,#1233);
#1090=AXIS2_PLACEMENT_3D('',#1565,#1237,#1238);
#1091=AXIS2_PLACEMENT_3D('',#1569,#1241,#1242);
#1092=AXIS2_PLACEMENT_3D('',#1570,#1243,#1244);
#1093=AXIS2_PLACEMENT_3D('',#1572,#1245,#1246);
#1094=AXIS2_PLACEMENT_3D('',#1573,#1247,#1248);
#1095=AXIS2_PLACEMENT_3D('',#1575,#1249,#1250);
#1096=AXIS2_PLACEMENT_3D('',#1576,#1251,#1252);
#1097=AXIS2_PLACEMENT_3D('',#1578,#1253,#1254);
#1098=AXIS2_PLACEMENT_3D('',#1583,#1257,#1258);
#1099=AXIS2_PLACEMENT_3D('',#1584,#1259,#1260);
#1100=AXIS2_PLACEMENT_3D('',#1585,#1261,#1262);
#1101=AXIS2_PLACEMENT_3D('',#1587,#1263,#1264);
#1102=AXIS2_PLACEMENT_3D('',#1608,#1274,#1275);
#1103=AXIS2_PLACEMENT_3D('',#1609,#1276,#1277);
#1104=AXIS2_PLACEMENT_3D('',#1610,#1278,#1279);
#1105=AXIS2_PLACEMENT_3D('',#1611,#1280,#1281);
#1106=AXIS2_PLACEMENT_3D('',#1612,#1282,#1283);
#1107=AXIS2_PLACEMENT_3D('',#1621,#1288,#1289);
#1108=AXIS2_PLACEMENT_3D('',#1623,#1291,#1292);
#1109=AXIS2_PLACEMENT_3D('',#1624,#1293,#1294);
#1110=AXIS2_PLACEMENT_3D('',#1625,#1295,#1296);
#1111=AXIS2_PLACEMENT_3D('',#1628,#1299,#1300);
#1112=AXIS2_PLACEMENT_3D('',#1630,#1302,#1303);
#1113=AXIS2_PLACEMENT_3D('',#1632,#1305,#1306);
#1114=AXIS2_PLACEMENT_3D('',#1634,#1308,#1309);
#1115=AXIS2_PLACEMENT_3D('',#1640,#1313,#1314);
#1116=AXIS2_PLACEMENT_3D('',#1655,#1317,#1318);
#1117=AXIS2_PLACEMENT_3D('',#1656,#1319,#1320);
#1118=AXIS2_PLACEMENT_3D('',#1657,#1321,#1322);
#1119=AXIS2_PLACEMENT_3D('',#1664,#1326,#1327);
#1120=AXIS2_PLACEMENT_3D('',#1668,#1329,#1330);
#1121=AXIS2_PLACEMENT_3D('',#1673,#1333,#1334);
#1122=AXIS2_PLACEMENT_3D('',#1674,#1335,#1336);
#1123=AXIS2_PLACEMENT_3D('',#1676,#1338,#1339);
#1124=AXIS2_PLACEMENT_3D('',#1677,#1340,#1341);
#1125=AXIS2_PLACEMENT_3D('',#1680,#1343,#1344);
#1126=AXIS2_PLACEMENT_3D('',#1681,#1345,#1346);
#1127=AXIS2_PLACEMENT_3D('',#1688,#1350,#1351);
#1128=AXIS2_PLACEMENT_3D('',#1692,#1353,#1354);
#1129=AXIS2_PLACEMENT_3D('',#1697,#1357,#1358);
#1130=AXIS2_PLACEMENT_3D('',#1698,#1359,#1360);
#1131=AXIS2_PLACEMENT_3D('',#1700,#1362,#1363);
#1132=AXIS2_PLACEMENT_3D('',#1701,#1364,#1365);
#1133=AXIS2_PLACEMENT_3D('',#1704,#1367,#1368);
#1134=AXIS2_PLACEMENT_3D('',#1705,#1369,#1370);
#1135=AXIS2_PLACEMENT_3D('',#1712,#1374,#1375);
#1136=AXIS2_PLACEMENT_3D('',#1716,#1377,#1378);
#1137=AXIS2_PLACEMENT_3D('',#1721,#1381,#1382);
#1138=AXIS2_PLACEMENT_3D('',#1722,#1383,#1384);
#1139=AXIS2_PLACEMENT_3D('',#1724,#1386,#1387);
#1140=AXIS2_PLACEMENT_3D('',#1725,#1388,#1389);
#1141=AXIS2_PLACEMENT_3D('',#1728,#1391,#1392);
#1142=AXIS2_PLACEMENT_3D('',#1729,#1393,#1394);
#1143=AXIS2_PLACEMENT_3D('',#1736,#1398,#1399);
#1144=AXIS2_PLACEMENT_3D('',#1740,#1401,#1402);
#1145=AXIS2_PLACEMENT_3D('',#1745,#1405,#1406);
#1146=AXIS2_PLACEMENT_3D('',#1746,#1407,#1408);
#1147=AXIS2_PLACEMENT_3D('',#1748,#1410,#1411);
#1148=AXIS2_PLACEMENT_3D('',#1749,#1412,#1413);
#1149=AXIS2_PLACEMENT_3D('',#1752,#1415,#1416);
#1150=AXIS2_PLACEMENT_3D('',#1754,#1418,#1419);
#1151=AXIS2_PLACEMENT_3D('',#1755,#1420,#1421);
#1152=AXIS2_PLACEMENT_3D('',#1763,#1422,#1423);
#1153=AXIS2_PLACEMENT_3D('',#1764,#1424,#1425);
#1154=AXIS2_PLACEMENT_3D('',#1770,#1426,#1427);
#1155=AXIS2_PLACEMENT_3D('',#1771,#1428,#1429);
#1156=AXIS2_PLACEMENT_3D('',#1779,#1430,#1431);
#1157=AXIS2_PLACEMENT_3D('',#1780,#1432,#1433);
#1158=AXIS2_PLACEMENT_3D('',#1786,#1434,#1435);
#1159=AXIS2_PLACEMENT_3D('',#1787,#1436,#1437);
#1160=AXIS2_PLACEMENT_3D('',#1795,#1438,#1439);
#1161=AXIS2_PLACEMENT_3D('',#1796,#1440,#1441);
#1162=AXIS2_PLACEMENT_3D('',#1802,#1442,#1443);
#1163=AXIS2_PLACEMENT_3D('',#1803,#1444,#1445);
#1164=AXIS2_PLACEMENT_3D('',#1811,#1446,#1447);
#1165=AXIS2_PLACEMENT_3D('',#1812,#1448,#1449);
#1166=AXIS2_PLACEMENT_3D('',#1818,#1450,#1451);
#1167=AXIS2_PLACEMENT_3D('',#1819,#1452,#1453);
#1168=AXIS2_PLACEMENT_3D('',#1820,#1454,#1455);
#1169=AXIS2_PLACEMENT_3D('',#1821,#1456,#1457);
#1170=AXIS2_PLACEMENT_3D('',#1822,#1458,#1459);
#1171=AXIS2_PLACEMENT_3D('',#1823,#1460,#1461);
#1172=DIRECTION('',(0.,0.,1.));
#1173=DIRECTION('',(1.,0.,0.));
#1174=DIRECTION('',(-1.40463439350349E-16,0.,1.));
#1175=DIRECTION('',(-1.,0.,-1.40463439350349E-16));
#1176=DIRECTION('',(0.158264501869381,0.987396752804078,1.95590364069693E-17));
#1177=DIRECTION('',(1.,0.,1.40463439350349E-16));
#1178=DIRECTION('',(-0.15826450186938,-0.987396752804078,-1.95590364069691E-17));
#1179=DIRECTION('',(0.98739675280409,-0.158264501869304,1.2202691575245E-16));
#1180=DIRECTION('',(-1.40463439350349E-16,0.,1.));
#1181=DIRECTION('',(-1.,0.,-1.40463439350349E-16));
#1182=DIRECTION('',(0.158264501869381,0.987396752804077,1.95590364069692E-17));
#1183=DIRECTION('',(1.,0.,1.40463439350349E-16));
#1184=DIRECTION('',(-0.158264501869381,-0.987396752804078,-1.95590364069692E-17));
#1185=DIRECTION('',(0.987396752804078,-0.158264501869381,1.22026915752448E-16));
#1186=DIRECTION('',(-1.40463439350349E-16,0.,1.));
#1187=DIRECTION('',(-1.,0.,-1.40463439350349E-16));
#1188=DIRECTION('',(0.158264501869381,0.987396752804077,1.95590364069692E-17));
#1189=DIRECTION('',(1.,0.,1.40463439350349E-16));
#1190=DIRECTION('',(-0.158264501869381,-0.987396752804078,-1.95590364069692E-17));
#1191=DIRECTION('',(0.987396752804078,-0.158264501869381,1.22026915752448E-16));
#1192=DIRECTION('',(0.,1.,0.));
#1193=DIRECTION('',(-1.,0.,0.));
#1194=DIRECTION('',(-1.,0.,-3.30423519233695E-16));
#1195=DIRECTION('',(-3.30423519233695E-16,0.,1.));
#1196=DIRECTION('',(1.,0.,7.02317196751746E-17));
#1197=DIRECTION('',(1.,0.,7.02317196751746E-17));
#1198=DIRECTION('',(-7.02317196751746E-17,0.,1.));
#1199=DIRECTION('',(-7.02317196751746E-17,0.,1.));
#1200=DIRECTION('',(1.,0.,7.02317196751746E-17));
#1201=DIRECTION('',(-7.02317196751746E-17,0.,1.));
#1202=DIRECTION('',(1.,0.,6.52415909287829E-17));
#1203=DIRECTION('',(0.,0.,-1.));
#1204=DIRECTION('',(1.,0.,7.02317196751746E-17));
#1205=DIRECTION('',(0.,0.,-1.));
#1206=DIRECTION('',(-1.,0.,-1.40463439350349E-16));
#1207=DIRECTION('',(-1.40463439350349E-16,0.,1.));
#1208=DIRECTION('',(-1.,0.,-1.23584481522658E-16));
#1209=DIRECTION('',(-1.40463439350349E-16,0.,1.));
#1210=DIRECTION('',(-1.,0.,-1.40463439350349E-16));
#1211=DIRECTION('',(-1.40463439350349E-16,0.,1.));
#1212=DIRECTION('',(-1.,0.,-1.23584481522658E-16));
#1213=DIRECTION('',(-1.40463439350349E-16,0.,1.));
#1214=DIRECTION('',(-1.,0.,-1.40463439350349E-16));
#1215=DIRECTION('',(-1.40463439350349E-16,0.,1.));
#1216=DIRECTION('',(-1.,0.,-1.23584481522658E-16));
#1217=DIRECTION('',(-1.40463439350349E-16,0.,1.));
#1218=DIRECTION('',(-1.,0.,-1.40463439350349E-16));
#1219=DIRECTION('',(-1.40463439350349E-16,0.,1.));
#1220=DIRECTION('',(-1.,0.,-1.23584481522658E-16));
#1221=DIRECTION('',(-1.40463439350349E-16,0.,1.));
#1222=DIRECTION('',(-1.,0.,-1.40463439350349E-16));
#1223=DIRECTION('',(-3.08639244766273E-16,0.,1.));
#1224=DIRECTION('',(0.,-1.,0.));
#1225=DIRECTION('',(1.,0.,0.));
#1226=DIRECTION('',(0.,-1.,0.));
#1227=DIRECTION('',(1.,0.,0.));
#1228=DIRECTION('',(0.,-1.,0.));
#1229=DIRECTION('',(1.,0.,0.));
#1230=DIRECTION('',(0.,-1.,0.));
#1231=DIRECTION('',(1.,0.,0.));
#1232=DIRECTION('',(-7.02317196751746E-17,0.,1.));
#1233=DIRECTION('',(-1.,0.,-7.02317196751746E-17));
#1234=DIRECTION('',(1.,0.,0.));
#1235=DIRECTION('',(0.,-1.,0.));
#1236=DIRECTION('',(0.,1.,0.));
#1237=DIRECTION('',(-1.,0.,-3.30423519233695E-16));
#1238=DIRECTION('',(3.30423519233695E-16,0.,-1.));
#1239=DIRECTION('',(4.93038065763132E-32,1.,1.62911372805628E-47));
#1240=DIRECTION('',(0.,0.,-1.));
#1241=DIRECTION('',(0.,1.,0.));
#1242=DIRECTION('',(-1.,0.,0.));
#1243=DIRECTION('',(0.,1.,0.));
#1244=DIRECTION('',(-1.,0.,0.));
#1245=DIRECTION('',(0.,1.,0.));
#1246=DIRECTION('',(-1.,0.,0.));
#1247=DIRECTION('',(0.,1.,0.));
#1248=DIRECTION('',(-1.,0.,0.));
#1249=DIRECTION('',(0.,1.,0.));
#1250=DIRECTION('',(-1.,0.,0.));
#1251=DIRECTION('',(0.,1.,0.));
#1252=DIRECTION('',(-1.,0.,0.));
#1253=DIRECTION('',(1.,0.,0.));
#1254=DIRECTION('',(0.,1.,0.));
#1255=DIRECTION('',(0.,1.,0.));
#1256=DIRECTION('',(0.,0.,-1.));
#1257=DIRECTION('',(1.,0.,0.));
#1258=DIRECTION('',(0.,1.,0.));
#1259=DIRECTION('',(0.,1.,0.));
#1260=DIRECTION('',(-1.,0.,0.));
#1261=DIRECTION('',(0.,1.,0.));
#1262=DIRECTION('',(-1.,0.,0.));
#1263=DIRECTION('',(0.,1.,0.));
#1264=DIRECTION('',(-1.,0.,0.));
#1265=DIRECTION('',(-1.,0.,-3.30423519233695E-16));
#1266=DIRECTION('',(3.08639244766273E-16,0.,-1.));
#1267=DIRECTION('',(1.,0.,1.40463439350349E-16));
#1268=DIRECTION('',(1.,0.,7.02317196751746E-17));
#1269=DIRECTION('',(0.,0.,1.));
#1270=DIRECTION('',(-1.,0.,-6.52415909287829E-17));
#1271=DIRECTION('',(-7.02317196751746E-17,0.,1.));
#1272=DIRECTION('',(-1.,0.,-7.02317196751746E-17));
#1273=DIRECTION('',(-7.02317196751746E-17,0.,1.));
#1274=DIRECTION('',(0.,1.,0.));
#1275=DIRECTION('',(-1.,0.,0.));
#1276=DIRECTION('',(0.,1.,0.));
#1277=DIRECTION('',(-1.,0.,0.));
#1278=DIRECTION('',(0.,1.,0.));
#1279=DIRECTION('',(-1.,0.,0.));
#1280=DIRECTION('',(0.,1.,0.));
#1281=DIRECTION('',(-1.,0.,0.));
#1282=DIRECTION('',(-1.40463439350349E-16,0.,1.));
#1283=DIRECTION('',(-1.,0.,-1.40463439350349E-16));
#1284=DIRECTION('',(0.158264501869381,0.987396752804078,1.95590364069692E-17));
#1285=DIRECTION('',(1.,0.,1.40463439350349E-16));
#1286=DIRECTION('',(-0.158264501869381,-0.987396752804078,-1.95590364069692E-17));
#1287=DIRECTION('',(0.987396752804078,-0.158264501869381,1.22026915752448E-16));
#1288=DIRECTION('',(-3.30423519233695E-16,-2.06469844120996E-63,1.));
#1289=DIRECTION('',(-1.,0.,-3.30423519233695E-16));
#1290=DIRECTION('',(4.93038065763132E-32,1.,1.62911372805628E-47));
#1291=DIRECTION('',(1.,-4.93038065763132E-32,3.08639244766273E-16));
#1292=DIRECTION('',(-3.08639244766273E-16,0.,1.));
#1293=DIRECTION('',(1.,-4.93038065763132E-32,3.08639244766273E-16));
#1294=DIRECTION('',(-3.08639244766273E-16,0.,1.));
#1295=DIRECTION('',(-1.,0.,-7.02317196751746E-17));
#1296=DIRECTION('',(7.02317196751746E-17,0.,-1.));
#1297=DIRECTION('',(0.,-1.,0.));
#1298=DIRECTION('',(0.,-1.,0.));
#1299=DIRECTION('',(7.02317196751746E-17,0.,-1.));
#1300=DIRECTION('',(1.,0.,7.02317196751746E-17));
#1301=DIRECTION('',(0.,-1.,0.));
#1302=DIRECTION('',(-1.,0.,-7.02317196751746E-17));
#1303=DIRECTION('',(7.02317196751746E-17,0.,-1.));
#1304=DIRECTION('',(0.,-1.,0.));
#1305=DIRECTION('',(6.52415909287829E-17,0.,-1.));
#1306=DIRECTION('',(1.,0.,6.52415909287829E-17));
#1307=DIRECTION('',(0.,-1.,0.));
#1308=DIRECTION('',(1.,0.,7.02317196751746E-17));
#1309=DIRECTION('',(-7.02317196751746E-17,0.,1.));
#1310=DIRECTION('',(0.,-1.,0.));
#1311=DIRECTION('',(-7.02317196751746E-17,0.,1.));
#1312=DIRECTION('',(0.,-1.,0.));
#1313=DIRECTION('',(0.,0.,-1.));
#1314=DIRECTION('',(0.,1.,0.));
#1315=DIRECTION('',(0.,-1.,0.));
#1316=DIRECTION('',(1.,0.,0.));
#1317=DIRECTION('',(0.,-1.,0.));
#1318=DIRECTION('',(1.,0.,0.));
#1319=DIRECTION('',(-0.987396752804077,0.158264501869381,-1.38693143902227E-16));
#1320=DIRECTION('',(-0.158264501869381,-0.987396752804078,0.));
#1321=DIRECTION('',(-0.987396752804078,0.158264501869381,-1.38693143902227E-16));
#1322=DIRECTION('',(-0.158264501869381,-0.987396752804078,-2.22303762596428E-17));
#1323=DIRECTION('',(-1.40463439350349E-16,-3.11790191670418E-33,1.));
#1324=DIRECTION('',(-0.158264501869381,-0.987396752804078,-1.95590364069692E-17));
#1325=DIRECTION('',(-1.40463439350349E-16,0.,1.));
#1326=DIRECTION('',(0.987396752804078,-0.158264501869381,1.38693143902227E-16));
#1327=DIRECTION('',(0.158264501869381,0.987396752804078,0.));
#1328=DIRECTION('',(-1.40463439350349E-16,-6.25827702114217E-33,1.));
#1329=DIRECTION('',(0.987396752804078,-0.158264501869381,1.38693143902227E-16));
#1330=DIRECTION('',(-0.158264501869381,-0.987396752804078,-2.22303762596431E-17));
#1331=DIRECTION('',(-1.40463439350349E-16,0.,1.));
#1332=DIRECTION('',(0.158264501869381,0.987396752804078,1.95590364069692E-17));
#1333=DIRECTION('',(0.987396752804078,-0.158264501869381,1.38693143902227E-16));
#1334=DIRECTION('',(-0.158264501869381,-0.987396752804078,8.44199314740604E-17));
#1335=DIRECTION('',(-0.158264501869381,-0.987396752804078,-2.22303762596429E-17));
#1336=DIRECTION('',(0.987396752804078,-0.158264501869381,0.));
#1337=DIRECTION('',(0.987396752804078,-0.158264501869381,1.22026915752448E-16));
#1338=DIRECTION('',(-1.23584481522658E-16,0.,1.));
#1339=DIRECTION('',(-1.,0.,-1.23584481522658E-16));
#1340=DIRECTION('',(-1.23584481522658E-16,0.,1.));
#1341=DIRECTION('',(-1.,0.,-1.23584481522658E-16));
#1342=DIRECTION('',(-1.,0.,-1.23584481522658E-16));
#1343=DIRECTION('',(-0.987396752804077,0.158264501869381,-1.38693143902227E-16));
#1344=DIRECTION('',(-0.158264501869381,-0.987396752804078,0.));
#1345=DIRECTION('',(-0.987396752804078,0.158264501869381,-1.38693143902227E-16));
#1346=DIRECTION('',(-0.158264501869381,-0.987396752804078,-2.22303762596428E-17));
#1347=DIRECTION('',(-1.40463439350349E-16,0.,1.));
#1348=DIRECTION('',(-0.158264501869381,-0.987396752804078,-1.95590364069692E-17));
#1349=DIRECTION('',(-1.40463439350349E-16,0.,1.));
#1350=DIRECTION('',(0.987396752804078,-0.158264501869381,1.38693143902227E-16));
#1351=DIRECTION('',(0.158264501869381,0.987396752804078,0.));
#1352=DIRECTION('',(-1.40463439350349E-16,0.,1.));
#1353=DIRECTION('',(0.987396752804078,-0.158264501869381,1.38693143902227E-16));
#1354=DIRECTION('',(-0.158264501869381,-0.987396752804078,-2.2230376259643E-17));
#1355=DIRECTION('',(-1.40463439350349E-16,0.,1.));
#1356=DIRECTION('',(0.158264501869381,0.987396752804077,1.95590364069692E-17));
#1357=DIRECTION('',(0.987396752804078,-0.158264501869381,1.38693143902227E-16));
#1358=DIRECTION('',(-0.158264501869381,-0.987396752804078,8.44199314740604E-17));
#1359=DIRECTION('',(-0.158264501869381,-0.987396752804077,-2.2230376259643E-17));
#1360=DIRECTION('',(0.987396752804078,-0.158264501869381,0.));
#1361=DIRECTION('',(0.987396752804078,-0.158264501869381,1.22026915752448E-16));
#1362=DIRECTION('',(-1.23584481522658E-16,0.,1.));
#1363=DIRECTION('',(-1.,0.,-1.23584481522658E-16));
#1364=DIRECTION('',(-1.23584481522658E-16,0.,1.));
#1365=DIRECTION('',(-1.,0.,-1.23584481522658E-16));
#1366=DIRECTION('',(-1.,0.,-1.23584481522658E-16));
#1367=DIRECTION('',(-0.987396752804078,0.158264501869381,-1.38693143902227E-16));
#1368=DIRECTION('',(-0.158264501869381,-0.987396752804078,0.));
#1369=DIRECTION('',(-0.987396752804078,0.158264501869381,-1.38693143902227E-16));
#1370=DIRECTION('',(-0.158264501869381,-0.987396752804078,-2.22303762596431E-17));
#1371=DIRECTION('',(-1.40463439350349E-16,-6.25827702114217E-33,1.));
#1372=DIRECTION('',(-0.158264501869381,-0.987396752804078,-1.95590364069692E-17));
#1373=DIRECTION('',(-1.40463439350349E-16,0.,1.));
#1374=DIRECTION('',(0.987396752804078,-0.158264501869381,1.38693143902227E-16));
#1375=DIRECTION('',(0.158264501869381,0.987396752804078,0.));
#1376=DIRECTION('',(-1.40463439350349E-16,0.,1.));
#1377=DIRECTION('',(0.987396752804078,-0.158264501869381,1.38693143902227E-16));
#1378=DIRECTION('',(-0.158264501869381,-0.987396752804078,-2.2230376259643E-17));
#1379=DIRECTION('',(-1.40463439350349E-16,0.,1.));
#1380=DIRECTION('',(0.158264501869381,0.987396752804077,1.95590364069692E-17));
#1381=DIRECTION('',(0.987396752804078,-0.158264501869381,1.38693143902227E-16));
#1382=DIRECTION('',(-0.158264501869381,-0.987396752804078,8.44199314740604E-17));
#1383=DIRECTION('',(-0.158264501869381,-0.987396752804078,-2.2230376259643E-17));
#1384=DIRECTION('',(0.987396752804078,-0.158264501869381,0.));
#1385=DIRECTION('',(0.987396752804078,-0.158264501869381,1.22026915752448E-16));
#1386=DIRECTION('',(-1.23584481522658E-16,0.,1.));
#1387=DIRECTION('',(-1.,0.,-1.23584481522658E-16));
#1388=DIRECTION('',(-1.23584481522658E-16,0.,1.));
#1389=DIRECTION('',(-1.,0.,-1.23584481522658E-16));
#1390=DIRECTION('',(-1.,0.,-1.23584481522658E-16));
#1391=DIRECTION('',(-0.987396752804078,0.15826450186938,-1.38693143902227E-16));
#1392=DIRECTION('',(-0.15826450186938,-0.987396752804078,0.));
#1393=DIRECTION('',(-0.987396752804078,0.15826450186938,-1.38693143902227E-16));
#1394=DIRECTION('',(-0.15826450186938,-0.987396752804078,-2.22303762596431E-17));
#1395=DIRECTION('',(-1.40463439350349E-16,-3.14037510443799E-33,1.));
#1396=DIRECTION('',(-0.15826450186938,-0.987396752804078,-1.95590364069691E-17));
#1397=DIRECTION('',(-1.40463439350349E-16,0.,1.));
#1398=DIRECTION('',(0.987396752804077,-0.158264501869381,1.38693143902227E-16));
#1399=DIRECTION('',(0.158264501869381,0.987396752804077,0.));
#1400=DIRECTION('',(-1.40463439350349E-16,0.,1.));
#1401=DIRECTION('',(0.987396752804077,-0.158264501869381,1.38693143902227E-16));
#1402=DIRECTION('',(-0.158264501869381,-0.987396752804077,-2.22303762596429E-17));
#1403=DIRECTION('',(-1.40463439350349E-16,0.,1.));
#1404=DIRECTION('',(0.158264501869381,0.987396752804078,1.95590364069693E-17));
#1405=DIRECTION('',(0.987396752804077,-0.158264501869381,1.38693143902227E-16));
#1406=DIRECTION('',(-0.158264501869381,-0.987396752804077,8.44199314740602E-17));
#1407=DIRECTION('',(-0.158264501869304,-0.98739675280409,-2.22303762596322E-17));
#1408=DIRECTION('',(0.98739675280409,-0.158264501869304,0.));
#1409=DIRECTION('',(0.98739675280409,-0.158264501869304,1.2202691575245E-16));
#1410=DIRECTION('',(-1.23584481522658E-16,0.,1.));
#1411=DIRECTION('',(-1.,0.,-1.23584481522658E-16));
#1412=DIRECTION('',(-1.23584481522658E-16,0.,1.));
#1413=DIRECTION('',(-1.,0.,-1.23584481522658E-16));
#1414=DIRECTION('',(-1.,0.,-1.23584481522658E-16));
#1415=DIRECTION('',(7.02317196751746E-17,0.,-1.));
#1416=DIRECTION('',(1.,0.,7.02317196751746E-17));
#1417=DIRECTION('',(0.,1.,0.));
#1418=DIRECTION('',(-1.,0.,0.));
#1419=DIRECTION('',(0.,-1.,0.));
#1420=DIRECTION('',(-1.40463439350349E-16,0.,1.));
#1421=DIRECTION('',(-1.,0.,-1.40463439350349E-16));
#1422=DIRECTION('',(0.707106781186547,0.,0.707106781186548));
#1423=DIRECTION('',(-0.707106781186548,0.,0.707106781186547));
#1424=DIRECTION('',(-1.40463439350349E-16,0.,1.));
#1425=DIRECTION('',(-1.,0.,-1.40463439350349E-16));
#1426=DIRECTION('',(-0.707106781186548,0.,0.707106781186547));
#1427=DIRECTION('',(0.707106781186547,0.,0.707106781186548));
#1428=DIRECTION('',(-1.40463439350349E-16,0.,1.));
#1429=DIRECTION('',(-1.,0.,-1.40463439350349E-16));
#1430=DIRECTION('',(0.707106781186547,0.,0.707106781186548));
#1431=DIRECTION('',(-0.707106781186548,0.,0.707106781186547));
#1432=DIRECTION('',(-1.40463439350349E-16,0.,1.));
#1433=DIRECTION('',(-1.,0.,-1.40463439350349E-16));
#1434=DIRECTION('',(-0.707106781186548,0.,0.707106781186547));
#1435=DIRECTION('',(0.707106781186547,0.,0.707106781186548));
#1436=DIRECTION('',(-1.40463439350349E-16,0.,1.));
#1437=DIRECTION('',(-1.,0.,-1.40463439350349E-16));
#1438=DIRECTION('',(0.707106781186547,0.,0.707106781186548));
#1439=DIRECTION('',(-0.707106781186548,0.,0.707106781186547));
#1440=DIRECTION('',(-1.40463439350349E-16,0.,1.));
#1441=DIRECTION('',(-1.,0.,-1.40463439350349E-16));
#1442=DIRECTION('',(-0.707106781186548,0.,0.707106781186547));
#1443=DIRECTION('',(0.707106781186547,0.,0.707106781186548));
#1444=DIRECTION('',(-1.40463439350349E-16,0.,1.));
#1445=DIRECTION('',(-1.,0.,-1.40463439350349E-16));
#1446=DIRECTION('',(0.707106781186547,0.,0.707106781186548));
#1447=DIRECTION('',(-0.707106781186548,0.,0.707106781186547));
#1448=DIRECTION('',(-1.40463439350349E-16,0.,1.));
#1449=DIRECTION('',(-1.,0.,-1.40463439350349E-16));
#1450=DIRECTION('',(-0.707106781186548,0.,0.707106781186547));
#1451=DIRECTION('',(0.707106781186547,0.,0.707106781186548));
#1452=DIRECTION('',(-1.,0.,-1.40463439350349E-16));
#1453=DIRECTION('',(1.40463439350349E-16,0.,-1.));
#1454=DIRECTION('',(-1.,0.,-1.23584481522658E-16));
#1455=DIRECTION('',(1.23584481522658E-16,0.,-1.));
#1456=DIRECTION('',(-1.,0.,-1.23584481522658E-16));
#1457=DIRECTION('',(1.23584481522658E-16,0.,-1.));
#1458=DIRECTION('',(-1.,0.,-1.23584481522658E-16));
#1459=DIRECTION('',(1.23584481522658E-16,0.,-1.));
#1460=DIRECTION('',(-1.,0.,-1.23584481522658E-16));
#1461=DIRECTION('',(1.23584481522658E-16,0.,-1.));
#1462=CARTESIAN_POINT('',(0.,0.,0.));
#1463=CARTESIAN_POINT('',(-3.98462611309313E-18,0.,0.0283677099999989));
#1464=CARTESIAN_POINT('',(-0.0625588148400975,0.0100272151392941,0.0283677099999989));
#1465=CARTESIAN_POINT('',(-0.0632844577458911,0.0055,0.0283677099999989));
#1466=CARTESIAN_POINT('',(-0.0617220137926124,0.0152479350560815,0.0283677099999989));
#1467=CARTESIAN_POINT('',(0.0338980189999999,0.0055,0.0283677099999989));
#1468=CARTESIAN_POINT('',(-0.0541695806972873,0.0055,0.0283677099999989));
#1469=CARTESIAN_POINT('',(-0.053672244064861,0.00860283462246966,0.0283677099999989));
#1470=CARTESIAN_POINT('',(-0.0528354430173757,0.0138235545392578,0.0283677099999989));
#1471=CARTESIAN_POINT('',(0.000836801047485555,0.00522071991679238,0.0283677099999989));
#1472=CARTESIAN_POINT('',(-3.98462611309313E-18,0.,0.0283677099999989));
#1473=CARTESIAN_POINT('',(-0.042333667510081,0.00678543531944995,0.0283677099999989));
#1474=CARTESIAN_POINT('',(-0.0425397030068966,0.0055,0.0283677099999989));
#1475=CARTESIAN_POINT('',(-0.0409910496420362,0.0151618969233183,0.0283677099999989));
#1476=CARTESIAN_POINT('',(0.0338980189999999,0.0055,0.0283677099999989));
#1477=CARTESIAN_POINT('',(-0.0334248259582925,0.0055,0.0283677099999989));
#1478=CARTESIAN_POINT('',(-0.0334470967348443,0.00536105480262551,0.0283677099999989));
#1479=CARTESIAN_POINT('',(-0.0321044788667994,0.0137375164064939,0.0283677099999989));
#1480=CARTESIAN_POINT('',(0.00134261786804485,0.00837646160386838,0.0283677099999989));
#1481=CARTESIAN_POINT('',(-3.98462611309313E-18,0.,0.0283677099999989));
#1482=CARTESIAN_POINT('',(-0.0234831240468771,0.00376398334211794,0.0283677099999989));
#1483=CARTESIAN_POINT('',(-0.0232048672966737,0.0055,0.0283677099999989));
#1484=CARTESIAN_POINT('',(-0.0216935329018651,0.0149290675180387,0.0283677099999989));
#1485=CARTESIAN_POINT('',(0.0338980189999999,0.0055,0.0283677099999989));
#1486=CARTESIAN_POINT('',(-0.0140899902480697,0.0055,0.0283677099999989));
#1487=CARTESIAN_POINT('',(-0.0145965532716404,0.00233960282529351,0.0283677099999989));
#1488=CARTESIAN_POINT('',(-0.0128069621266284,0.0135046870012143,0.0283677099999989));
#1489=CARTESIAN_POINT('',(0.00178959114501202,0.0111650841759207,0.0283677099999989));
#1490=CARTESIAN_POINT('',(0.,0.,0.));
#1491=CARTESIAN_POINT('',(0.0338980189999999,0.,0.01));
#1492=CARTESIAN_POINT('',(0.0338980189999999,0.,0.01));
#1493=CARTESIAN_POINT('',(0.0247,0.,0.01));
#1494=CARTESIAN_POINT('',(0.0247,0.,0.0209999999999989));
#1495=CARTESIAN_POINT('',(0.0247,0.,1.73472347597681E-18));
#1496=CARTESIAN_POINT('',(0.0247,0.,1.73472347597681E-18));
#1497=CARTESIAN_POINT('',(0.0225481540318443,0.,1.73472347597681E-18));
#1498=CARTESIAN_POINT('',(0.0247,0.,1.73472347597681E-18));
#1499=CARTESIAN_POINT('',(0.,0.,1.73472347597681E-18));
#1500=CARTESIAN_POINT('',(1.40463439350349E-18,0.,-0.02));
#1501=CARTESIAN_POINT('',(1.12788398295778E-18,0.,-0.0160594669783725));
#1502=CARTESIAN_POINT('',(1.40463439350349E-18,0.,-0.02));
#1503=CARTESIAN_POINT('',(1.40463439350349E-18,0.,-0.02));
#1504=CARTESIAN_POINT('',(-0.0741,0.,-0.02));
#1505=CARTESIAN_POINT('',(-0.0115279154217737,0.,-0.02));
#1506=CARTESIAN_POINT('',(-0.0115279154217737,0.,-0.0245));
#1507=CARTESIAN_POINT('',(-0.0115279154217737,0.,-0.0245));
#1508=CARTESIAN_POINT('',(-0.0647063695729122,0.,-0.0245));
#1509=CARTESIAN_POINT('',(-0.0742063695729122,0.,-0.0245));
#1510=CARTESIAN_POINT('',(-0.0742063695729122,0.,-0.0245));
#1511=CARTESIAN_POINT('',(-0.0742063695729122,0.,-0.02));
#1512=CARTESIAN_POINT('',(-0.0742063695729122,0.,-0.02));
#1513=CARTESIAN_POINT('',(-0.0741,0.,-0.02));
#1514=CARTESIAN_POINT('',(-0.0741,0.,0.0209999999999989));
#1515=CARTESIAN_POINT('',(-0.0741,0.,0.0267193565442439));
#1516=CARTESIAN_POINT('',(-0.0741,0.,0.0267193565442439));
#1517=CARTESIAN_POINT('',(-0.0675759411245537,0.,0.0267193565442439));
#1518=CARTESIAN_POINT('',(-0.0675759411245537,0.,-9.49194910769149E-18));
#1519=CARTESIAN_POINT('',(-0.0675759411245537,0.,0.0218677099999989));
#1520=CARTESIAN_POINT('',(-2.7025096024377E-18,0.,0.0218677099999989));
#1521=CARTESIAN_POINT('',(-0.0503589511438573,0.,0.0218677099999989));
#1522=CARTESIAN_POINT('',(-0.0503589511438573,0.,-7.07359147974239E-18));
#1523=CARTESIAN_POINT('',(-0.0503589511438574,0.,0.0267193565442439));
#1524=CARTESIAN_POINT('',(-0.0503589511438573,0.,0.0267193565442439));
#1525=CARTESIAN_POINT('',(-0.0468311863855591,0.,0.0267193565442439));
#1526=CARTESIAN_POINT('',(-0.0468311863855591,0.,-6.57806950857286E-18));
#1527=CARTESIAN_POINT('',(-0.0468311863855591,0.,0.0218677099999989));
#1528=CARTESIAN_POINT('',(-2.7025096024377E-18,0.,0.0218677099999989));
#1529=CARTESIAN_POINT('',(-0.0296141964048626,0.,0.0218677099999989));
#1530=CARTESIAN_POINT('',(-0.0296141964048626,0.,-4.15971188062374E-18));
#1531=CARTESIAN_POINT('',(-0.0296141964048626,0.,0.0267193565442439));
#1532=CARTESIAN_POINT('',(-0.0296141964048626,0.,0.0267193565442439));
#1533=CARTESIAN_POINT('',(-0.0274963506753363,0.,0.0267193565442439));
#1534=CARTESIAN_POINT('',(-0.0274963506753363,0.,-3.86223198544102E-18));
#1535=CARTESIAN_POINT('',(-0.0274963506753363,0.,0.0218677099999989));
#1536=CARTESIAN_POINT('',(-2.7025096024377E-18,0.,0.0218677099999989));
#1537=CARTESIAN_POINT('',(-0.0102793606946399,0.,0.0218677099999989));
#1538=CARTESIAN_POINT('',(-0.0102793606946399,0.,-1.4438743574919E-18));
#1539=CARTESIAN_POINT('',(-0.0102793606946399,0.,0.0267193565442439));
#1540=CARTESIAN_POINT('',(-0.0102793606946399,0.,0.0267193565442439));
#1541=CARTESIAN_POINT('',(-0.00802914834920476,0.,0.0267193565442439));
#1542=CARTESIAN_POINT('',(-0.00802914834920476,0.,-1.12780179218348E-18));
#1543=CARTESIAN_POINT('',(-0.00802914834920476,0.,0.0218677099999989));
#1544=CARTESIAN_POINT('',(-2.7025096024377E-18,0.,0.0218677099999989));
#1545=CARTESIAN_POINT('',(0.0116669963686353,0.,0.0218677099999989));
#1546=CARTESIAN_POINT('',(0.0116669963686353,0.,1.63878643682655E-18));
#1547=CARTESIAN_POINT('',(0.0116669963686353,0.,0.0267193565442439));
#1548=CARTESIAN_POINT('',(0.0116669963686353,0.,0.0267193565442439));
#1549=CARTESIAN_POINT('',(0.0338980189999999,0.,0.0267193565442439));
#1550=CARTESIAN_POINT('',(0.0338980189999999,0.,1.06626311536853E-17));
#1551=CARTESIAN_POINT('',(0.0228500001639127,0.,0.0185000001192082));
#1552=CARTESIAN_POINT('',(0.0239000001639127,0.,0.0185000001192082));
#1553=CARTESIAN_POINT('',(-0.00184999983608726,0.,0.0185000001192082));
#1554=CARTESIAN_POINT('',(-0.00079999983608726,0.,0.0185000001192082));
#1555=CARTESIAN_POINT('',(-0.0265499998360873,0.,0.0185000001192082));
#1556=CARTESIAN_POINT('',(-0.0254999998360873,0.,0.0185000001192082));
#1557=CARTESIAN_POINT('',(-0.0512499998360873,0.,0.0185000001192081));
#1558=CARTESIAN_POINT('',(-0.0501999998360873,0.,0.0185000001192081));
#1559=CARTESIAN_POINT('',(0.0247,-0.002,1.73472347597681E-18));
#1560=CARTESIAN_POINT('',(-0.0741,-0.0045,1.73472347597681E-18));
#1561=CARTESIAN_POINT('',(0.0225481540318443,-0.0045,1.73472347597681E-18));
#1562=CARTESIAN_POINT('',(0.0247,-0.0045,1.73472347597681E-18));
#1563=CARTESIAN_POINT('',(0.0225481540318443,0.00025,1.73472347597681E-18));
#1564=CARTESIAN_POINT('',(0.0247,-0.002,1.73472347597681E-18));
#1565=CARTESIAN_POINT('',(0.0247,-0.002,0.0209999999999989));
#1566=CARTESIAN_POINT('',(0.0247,-1.21780402243493E-33,0.01));
#1567=CARTESIAN_POINT('',(0.0247,-0.0045,0.01));
#1568=CARTESIAN_POINT('',(0.0247,-0.0045,0.0209999999999989));
#1569=CARTESIAN_POINT('',(0.0228500001639127,-0.002,0.0185000001192082));
#1570=CARTESIAN_POINT('',(0.0228500001639127,-0.002,0.0185000001192082));
#1571=CARTESIAN_POINT('',(0.0218000001639127,-0.002,0.0185000001192082));
#1572=CARTESIAN_POINT('',(-0.00184999983608726,-0.002,0.0185000001192082));
#1573=CARTESIAN_POINT('',(-0.00184999983608726,-0.002,0.0185000001192082));
#1574=CARTESIAN_POINT('',(-0.00289999983608726,-0.002,0.0185000001192082));
#1575=CARTESIAN_POINT('',(-0.0265499998360873,-0.002,0.0185000001192082));
#1576=CARTESIAN_POINT('',(-0.0265499998360873,-0.002,0.0185000001192082));
#1577=CARTESIAN_POINT('',(-0.0275999998360873,-0.002,0.0185000001192082));
#1578=CARTESIAN_POINT('',(-0.0741,-0.002,0.0209999999999989));
#1579=CARTESIAN_POINT('',(-0.0741,-0.0045,-0.02));
#1580=CARTESIAN_POINT('',(-0.0741,-0.0045,-0.02));
#1581=CARTESIAN_POINT('',(-0.0741,-0.0045,0.0209999999999989));
#1582=CARTESIAN_POINT('',(-0.0741,-0.0045,0.0183677099999989));
#1583=CARTESIAN_POINT('',(-0.0741,0.0055,0.0183677099999989));
#1584=CARTESIAN_POINT('',(-0.0512499998360873,-0.002,0.0185000001192081));
#1585=CARTESIAN_POINT('',(-0.0512499998360873,-0.002,0.0185000001192081));
#1586=CARTESIAN_POINT('',(-0.0522999998360873,-0.002,0.0185000001192081));
#1587=CARTESIAN_POINT('',(0.,-0.0045,0.));
#1588=CARTESIAN_POINT('',(0.0338980189999999,-0.0045,0.01));
#1589=CARTESIAN_POINT('',(0.0338980189999999,-0.0045,0.01));
#1590=CARTESIAN_POINT('',(0.0338980189999999,-0.0045,1.06626311536853E-17));
#1591=CARTESIAN_POINT('',(0.0338980189999999,-0.0045,0.0183677099999989));
#1592=CARTESIAN_POINT('',(-0.0741,-0.0045,0.0183677099999989));
#1593=CARTESIAN_POINT('',(-0.0742063695729122,-0.0045,-0.02));
#1594=CARTESIAN_POINT('',(-0.0742063695729122,-0.0045,-0.02));
#1595=CARTESIAN_POINT('',(-0.0742063695729122,-0.0045,-0.0245));
#1596=CARTESIAN_POINT('',(-0.0742063695729122,-0.0045,-0.0245));
#1597=CARTESIAN_POINT('',(-0.0647063695729122,-0.0045,-0.0245));
#1598=CARTESIAN_POINT('',(-0.0115279154217737,-0.0045,-0.0245));
#1599=CARTESIAN_POINT('',(-0.0115279154217737,-0.0045,-0.0245));
#1600=CARTESIAN_POINT('',(-0.0115279154217737,-0.0045,-0.02));
#1601=CARTESIAN_POINT('',(-0.0741,-0.0045,-0.02));
#1602=CARTESIAN_POINT('',(1.40463439350349E-18,-0.0045,-0.02));
#1603=CARTESIAN_POINT('',(1.40463439350349E-18,-0.0045,-0.02));
#1604=CARTESIAN_POINT('',(1.12788398295778E-18,-0.0045,-0.0160594669783725));
#1605=CARTESIAN_POINT('',(1.40463439350349E-18,-0.0045,-0.0160594669783725));
#1606=CARTESIAN_POINT('',(0.0193219250242489,-0.0045,-0.0129635439471651));
#1607=CARTESIAN_POINT('',(0.0228867210720479,-0.0045,0.00120745207200823));
#1608=CARTESIAN_POINT('',(0.,-0.002,0.));
#1609=CARTESIAN_POINT('',(0.,-0.002,0.));
#1610=CARTESIAN_POINT('',(0.,-0.002,0.));
#1611=CARTESIAN_POINT('',(0.,-0.002,0.));
#1612=CARTESIAN_POINT('',(-3.98462611309313E-18,0.,0.0283677099999989));
#1613=CARTESIAN_POINT('',(-0.00450352944076933,0.000721846452880604,0.0283677099999989));
#1614=CARTESIAN_POINT('',(-0.00373766497054221,0.0055,0.0283677099999989));
#1615=CARTESIAN_POINT('',(-0.0021613388659802,0.0153345444406062,0.0283677099999989));
#1616=CARTESIAN_POINT('',(0.0338980189999999,0.0055,0.0283677099999989));
#1617=CARTESIAN_POINT('',(0.00785636681520544,0.0055,0.0283677099999989));
#1618=CARTESIAN_POINT('',(0.0068000990651325,-0.00108995121580999,0.0283677099999989));
#1619=CARTESIAN_POINT('',(0.00914228963992163,0.0135227467719156,0.0283677099999989));
#1620=CARTESIAN_POINT('',(0.00234219057478912,0.0146126979877256,0.0283677099999989));
#1621=CARTESIAN_POINT('',(0.0338980189999999,-1.21780402243493E-33,0.01));
#1622=CARTESIAN_POINT('',(0.0338980189999999,-1.21780402243493E-33,0.01));
#1623=CARTESIAN_POINT('',(0.0338980189999999,-1.21780402243493E-33,1.06626311536853E-17));
#1624=CARTESIAN_POINT('',(0.0338980189999999,0.0055,0.0183677099999989));
#1625=CARTESIAN_POINT('',(1.40463439350349E-18,-0.0045,-0.02));
#1626=CARTESIAN_POINT('',(1.40463439350349E-18,0.00025,-0.0160594669783725));
#1627=CARTESIAN_POINT('',(1.40463439350349E-18,-0.0045,-0.02));
#1628=CARTESIAN_POINT('',(1.40463439350349E-18,0.,-0.02));
#1629=CARTESIAN_POINT('',(-0.0115279154217737,-0.0045,-0.02));
#1630=CARTESIAN_POINT('',(-0.0115279154217737,-0.0045,-0.0245));
#1631=CARTESIAN_POINT('',(-0.0115279154217737,-0.0045,-0.0245));
#1632=CARTESIAN_POINT('',(1.62087455711394E-18,0.,-0.0245));
#1633=CARTESIAN_POINT('',(-0.0742063695729122,-0.0045,-0.0245));
#1634=CARTESIAN_POINT('',(0.,0.00025,0.));
#1635=CARTESIAN_POINT('',(0.,0.00025,1.73472347597681E-18));
#1636=CARTESIAN_POINT('',(0.,0.00025,1.73472347597681E-18));
#1637=CARTESIAN_POINT('',(0.,0.00025,0.));
#1638=CARTESIAN_POINT('',(1.12788398295778E-18,0.00025,-0.0160594669783725));
#1639=CARTESIAN_POINT('',(1.12788398295778E-18,0.00025,-0.0160594669783725));
#1640=CARTESIAN_POINT('',(0.,0.00025,1.73472347597681E-18));
#1641=CARTESIAN_POINT('',(0.0225481540318443,0.00025,1.73472347597681E-18));
#1642=CARTESIAN_POINT('',(0.0225481540318443,0.00025,1.73472347597681E-18));
#1643=CARTESIAN_POINT('',(0.,0.00025,1.73472347597681E-18));
#1644=CARTESIAN_POINT('',(1.40463439350349E-18,0.00025,-0.0160594669783725));
#1645=CARTESIAN_POINT('',(1.40463439350349E-18,-0.0045,-0.0160594669783725));
#1646=CARTESIAN_POINT('',(0.0123230494270131,0.00025,-0.0140849632740098));
#1647=CARTESIAN_POINT('',(0.0123230494270131,-0.0045,-0.0140849632740098));
#1648=CARTESIAN_POINT('',(0.0198391007709611,0.00025,-0.0087318076145527));
#1649=CARTESIAN_POINT('',(0.0198391007709611,-0.0045,-0.0087318076145527));
#1650=CARTESIAN_POINT('',(0.022548154031844,0.00025,-1.0808411457508E-15));
#1651=CARTESIAN_POINT('',(0.022548154031844,-0.0045,-1.0808411457508E-15));
#1652=CARTESIAN_POINT('',(1.40463439350349E-18,0.00025,-0.0160594669783725));
#1653=CARTESIAN_POINT('',(0.0193219250242489,0.00025,-0.0129635439471651));
#1654=CARTESIAN_POINT('',(0.0228867210720479,0.00025,0.00120745207200823));
#1655=CARTESIAN_POINT('',(0.,0.00025,0.));
#1656=CARTESIAN_POINT('',(0.0068000990651325,-0.00108995121580999,0.0258677099999989));
#1657=CARTESIAN_POINT('',(0.00785636681520544,0.0055,0.0183677099999989));
#1658=CARTESIAN_POINT('',(0.00771740935741902,0.00463305800747752,0.0283300597018313));
#1659=CARTESIAN_POINT('',(0.00771740935741902,0.00463305800747752,0.0258677099999989));
#1660=CARTESIAN_POINT('',(0.00771740935741902,0.00463305800747752,0.0258677099999989));
#1661=CARTESIAN_POINT('',(0.0068000990651325,-0.00108995121580999,0.0258677099999989));
#1662=CARTESIAN_POINT('',(0.00914228963992163,0.0135227467719156,0.0258677099999989));
#1663=CARTESIAN_POINT('',(0.00914228963992163,0.0135227467719156,0.0258677099999989));
#1664=CARTESIAN_POINT('',(-0.00450352944076933,0.000721846452880604,0.0258677099999989));
#1665=CARTESIAN_POINT('',(-0.00407956133798845,0.00336694199252248,0.0258677099999989));
#1666=CARTESIAN_POINT('',(-0.00407956133798845,0.00336694199252248,0.0258172970112152));
#1667=CARTESIAN_POINT('',(-0.00407956133798845,0.00336694199252248,0.0281375648370339));
#1668=CARTESIAN_POINT('',(-0.00373766497054221,0.0055,0.0183677099999989));
#1669=CARTESIAN_POINT('',(-0.0021613388659802,0.0153345444406062,0.0258677099999989));
#1670=CARTESIAN_POINT('',(-0.0021613388659802,0.0153345444406062,0.0258677099999989));
#1671=CARTESIAN_POINT('',(-0.00450352944076933,0.000721846452880604,0.0258677099999989));
#1672=CARTESIAN_POINT('',(-0.00397809188315854,0.004,0.0258677099999989));
#1673=CARTESIAN_POINT('',(-0.00397809188315854,0.004,0.0218677099999989));
#1674=CARTESIAN_POINT('',(0.00234219057478912,0.0146126979877256,0.0258677099999989));
#1675=CARTESIAN_POINT('',(0.00234219057478912,0.0146126979877256,0.0258677099999989));
#1676=CARTESIAN_POINT('',(-3.15465013395911E-18,0.,0.0258677099999989));
#1677=CARTESIAN_POINT('',(0.0116669963686353,0.004,0.0258677099999989));
#1678=CARTESIAN_POINT('',(0.00766699636863533,0.004,0.0258677099999989));
#1679=CARTESIAN_POINT('',(-3.15465013395911E-18,0.004,0.0258677099999989));
#1680=CARTESIAN_POINT('',(-0.0145965532716404,0.00233960282529351,0.0258677099999989));
#1681=CARTESIAN_POINT('',(-0.0140899902480697,0.0055,0.0183677099999989));
#1682=CARTESIAN_POINT('',(-0.0142289477058562,0.00463305800747752,0.0283300597018313));
#1683=CARTESIAN_POINT('',(-0.0142289477058562,0.00463305800747752,0.0258677099999989));
#1684=CARTESIAN_POINT('',(-0.0142289477058562,0.00463305800747752,0.0258677099999989));
#1685=CARTESIAN_POINT('',(-0.0145965532716404,0.00233960282529351,0.0258677099999989));
#1686=CARTESIAN_POINT('',(-0.0128069621266284,0.0135046870012143,0.0258677099999989));
#1687=CARTESIAN_POINT('',(-0.0128069621266284,0.0135046870012143,0.0258677099999989));
#1688=CARTESIAN_POINT('',(-0.0234831240468771,0.00376398334211794,0.0258677099999989));
#1689=CARTESIAN_POINT('',(-0.02354676366412,0.00336694199252247,0.0258677099999989));
#1690=CARTESIAN_POINT('',(-0.02354676366412,0.00336694199252247,0.0258172970112152));
#1691=CARTESIAN_POINT('',(-0.02354676366412,0.00336694199252247,0.0281375648370339));
#1692=CARTESIAN_POINT('',(-0.0232048672966737,0.0055,0.0183677099999989));
#1693=CARTESIAN_POINT('',(-0.0216935329018651,0.0149290675180387,0.0258677099999989));
#1694=CARTESIAN_POINT('',(-0.0216935329018651,0.0149290675180387,0.0258677099999989));
#1695=CARTESIAN_POINT('',(-0.0234831240468771,0.00376398334211794,0.0258677099999989));
#1696=CARTESIAN_POINT('',(-0.02344529420929,0.004,0.0258677099999989));
#1697=CARTESIAN_POINT('',(-0.02344529420929,0.004,0.0218677099999989));
#1698=CARTESIAN_POINT('',(0.00178959114501202,0.0111650841759207,0.0258677099999989));
#1699=CARTESIAN_POINT('',(0.00178959114501202,0.0111650841759207,0.0258677099999989));
#1700=CARTESIAN_POINT('',(-3.15465013395911E-18,0.,0.0258677099999989));
#1701=CARTESIAN_POINT('',(-0.0102793606946399,0.004,0.0258677099999989));
#1702=CARTESIAN_POINT('',(-0.0142793606946399,0.004,0.0258677099999989));
#1703=CARTESIAN_POINT('',(-3.15465013395911E-18,0.004,0.0258677099999989));
#1704=CARTESIAN_POINT('',(-0.0334470967348443,0.00536105480262551,0.0258677099999989));
#1705=CARTESIAN_POINT('',(-0.0334248259582925,0.0055,0.0183677099999989));
#1706=CARTESIAN_POINT('',(-0.0335637834160789,0.00463305800747752,0.0283300597018313));
#1707=CARTESIAN_POINT('',(-0.0335637834160789,0.00463305800747752,0.0258677099999989));
#1708=CARTESIAN_POINT('',(-0.0335637834160789,0.00463305800747752,0.0258677099999989));
#1709=CARTESIAN_POINT('',(-0.0334470967348443,0.00536105480262551,0.0258677099999989));
#1710=CARTESIAN_POINT('',(-0.0321044788667994,0.0137375164064939,0.0258677099999989));
#1711=CARTESIAN_POINT('',(-0.0321044788667994,0.0137375164064939,0.0258677099999989));
#1712=CARTESIAN_POINT('',(-0.042333667510081,0.00678543531944995,0.0258677099999989));
#1713=CARTESIAN_POINT('',(-0.0428815993743428,0.00336694199252247,0.0258677099999989));
#1714=CARTESIAN_POINT('',(-0.0428815993743428,0.00336694199252247,0.0258172970112152));
#1715=CARTESIAN_POINT('',(-0.0428815993743428,0.00336694199252247,0.0281375648370338));
#1716=CARTESIAN_POINT('',(-0.0425397030068966,0.0055,0.0183677099999989));
#1717=CARTESIAN_POINT('',(-0.0409910496420362,0.0151618969233183,0.0258677099999989));
#1718=CARTESIAN_POINT('',(-0.0409910496420362,0.0151618969233183,0.0258677099999989));
#1719=CARTESIAN_POINT('',(-0.042333667510081,0.00678543531944995,0.0258677099999989));
#1720=CARTESIAN_POINT('',(-0.0427801299195129,0.004,0.0258677099999989));
#1721=CARTESIAN_POINT('',(-0.0427801299195129,0.004,0.0218677099999989));
#1722=CARTESIAN_POINT('',(0.00134261786804486,0.00837646160386838,0.0258677099999989));
#1723=CARTESIAN_POINT('',(0.00134261786804486,0.00837646160386838,0.0258677099999989));
#1724=CARTESIAN_POINT('',(-3.15465013395911E-18,0.,0.0258677099999989));
#1725=CARTESIAN_POINT('',(-0.0296141964048626,0.004,0.0258677099999989));
#1726=CARTESIAN_POINT('',(-0.0336141964048626,0.004,0.0258677099999989));
#1727=CARTESIAN_POINT('',(-3.15465013395911E-18,0.004,0.0258677099999989));
#1728=CARTESIAN_POINT('',(-0.053672244064861,0.00860283462246966,0.0258677099999989));
#1729=CARTESIAN_POINT('',(-0.0541695806972872,0.0055,0.0183677099999989));
#1730=CARTESIAN_POINT('',(-0.0543085381550737,0.00463305800747752,0.0283300597018313));
#1731=CARTESIAN_POINT('',(-0.0543085381550737,0.00463305800747752,0.0258677099999989));
#1732=CARTESIAN_POINT('',(-0.0543085381550737,0.00463305800747752,0.0258677099999989));
#1733=CARTESIAN_POINT('',(-0.053672244064861,0.00860283462246966,0.0258677099999989));
#1734=CARTESIAN_POINT('',(-0.0528354430173757,0.0138235545392578,0.0258677099999989));
#1735=CARTESIAN_POINT('',(-0.0528354430173757,0.0138235545392578,0.0258677099999989));
#1736=CARTESIAN_POINT('',(-0.0625588148400975,0.0100272151392941,0.0258677099999989));
#1737=CARTESIAN_POINT('',(-0.0636263541133374,0.00336694199252248,0.0258677099999989));
#1738=CARTESIAN_POINT('',(-0.0636263541133374,0.00336694199252248,0.0258172970112152));
#1739=CARTESIAN_POINT('',(-0.0636263541133374,0.00336694199252248,0.0281375648370338));
#1740=CARTESIAN_POINT('',(-0.0632844577458911,0.0055,0.0183677099999989));
#1741=CARTESIAN_POINT('',(-0.0617220137926124,0.0152479350560815,0.0258677099999989));
#1742=CARTESIAN_POINT('',(-0.0617220137926124,0.0152479350560815,0.0258677099999989));
#1743=CARTESIAN_POINT('',(-0.0625588148400975,0.0100272151392941,0.0258677099999989));
#1744=CARTESIAN_POINT('',(-0.0635248846585075,0.004,0.0258677099999989));
#1745=CARTESIAN_POINT('',(-0.0635248846585075,0.004,0.0218677099999989));
#1746=CARTESIAN_POINT('',(0.000836801047485556,0.00522071991679238,0.0258677099999989));
#1747=CARTESIAN_POINT('',(0.000836801047485556,0.00522071991679238,0.0258677099999989));
#1748=CARTESIAN_POINT('',(-3.15465013395911E-18,0.,0.0258677099999989));
#1749=CARTESIAN_POINT('',(-0.0503589511438574,0.004,0.0258677099999989));
#1750=CARTESIAN_POINT('',(-0.0543589511438574,0.004,0.0258677099999989));
#1751=CARTESIAN_POINT('',(-3.15465013395911E-18,0.004,0.0258677099999989));
#1752=CARTESIAN_POINT('',(-0.0742063695729122,-0.0045,-0.02));
#1753=CARTESIAN_POINT('',(-0.0742063695729122,-0.0045,-0.02));
#1754=CARTESIAN_POINT('',(-0.0742063695729122,0.,-6.67201336914158E-19));
#1755=CARTESIAN_POINT('',(0.0116669963686353,0.004,1.63878643682655E-18));
#1756=CARTESIAN_POINT('',(0.00771740935741902,0.00463305800747752,0.0283300597018313));
#1757=CARTESIAN_POINT('',(0.00762280851099304,0.00404285257625186,0.0282786989397763));
#1758=CARTESIAN_POINT('',(0.00770533957283608,0.00285224442390917,0.0280638014990109));
#1759=CARTESIAN_POINT('',(0.00853056104617085,0.00133141758993096,0.0274956439573062));
#1760=CARTESIAN_POINT('',(0.00988805416426764,0.000278283918183184,0.0269102417375693));
#1761=CARTESIAN_POINT('',(0.0110663100398007,-5.50696203889562E-19,0.0267193565442439));
#1762=CARTESIAN_POINT('',(0.0116669963686353,1.29116676630399E-20,0.0267193565442439));
#1763=CARTESIAN_POINT('',(0.0116669963686353,0.004,0.0218677099999989));
#1764=CARTESIAN_POINT('',(-0.00802914834920476,0.004,0.0258677099999989));
#1765=CARTESIAN_POINT('',(-0.00802914834920476,0.,0.0267193565442439));
#1766=CARTESIAN_POINT('',(-0.00704513477964809,2.94282056832528E-20,0.0267193565442439));
#1767=CARTESIAN_POINT('',(-0.00518463699431769,0.000741585457420676,0.0272462296117416));
#1768=CARTESIAN_POINT('',(-0.00423155825443029,0.00241864809238577,0.0279305232861747));
#1769=CARTESIAN_POINT('',(-0.00407956133798845,0.00336694199252248,0.0281375648370339));
#1770=CARTESIAN_POINT('',(-0.00802914834920476,0.004,0.0218677099999989));
#1771=CARTESIAN_POINT('',(-0.0102793606946399,0.004,-1.4438743574919E-18));
#1772=CARTESIAN_POINT('',(-0.0142289477058562,0.00463305800747752,0.0283300597018313));
#1773=CARTESIAN_POINT('',(-0.0143235485522822,0.00404285257625185,0.0282786989397763));
#1774=CARTESIAN_POINT('',(-0.0142410174904391,0.00285224442390917,0.0280638014990109));
#1775=CARTESIAN_POINT('',(-0.0134157960171044,0.00133141758993095,0.0274956439573062));
#1776=CARTESIAN_POINT('',(-0.0120583028990076,0.000278283918183181,0.0269102417375693));
#1777=CARTESIAN_POINT('',(-0.0108800470234745,-5.23591149577424E-19,0.0267193565442439));
#1778=CARTESIAN_POINT('',(-0.0102793606946399,4.00167219751776E-20,0.0267193565442439));
#1779=CARTESIAN_POINT('',(-0.0102793606946399,0.004,0.0218677099999989));
#1780=CARTESIAN_POINT('',(-0.0274963506753363,0.004,0.0258677099999989));
#1781=CARTESIAN_POINT('',(-0.0274963506753363,0.,0.0267193565442439));
#1782=CARTESIAN_POINT('',(-0.0265123371057796,2.94282056832528E-20,0.0267193565442439));
#1783=CARTESIAN_POINT('',(-0.0246518393204492,0.000741585457420669,0.0272462296117416));
#1784=CARTESIAN_POINT('',(-0.0236987605805618,0.00241864809238577,0.0279305232861747));
#1785=CARTESIAN_POINT('',(-0.02354676366412,0.00336694199252248,0.0281375648370339));
#1786=CARTESIAN_POINT('',(-0.0274963506753363,0.004,0.0218677099999989));
#1787=CARTESIAN_POINT('',(-0.0296141964048626,0.004,-4.15971188062374E-18));
#1788=CARTESIAN_POINT('',(-0.0335637834160789,0.00463305800747752,0.0283300597018313));
#1789=CARTESIAN_POINT('',(-0.0336583842625049,0.00404285257625185,0.0282786989397763));
#1790=CARTESIAN_POINT('',(-0.0335758532006618,0.00285224442390917,0.0280638014990109));
#1791=CARTESIAN_POINT('',(-0.032750631727327,0.00133141758993095,0.0274956439573061));
#1792=CARTESIAN_POINT('',(-0.0313931386092303,0.000278283918183181,0.0269102417375693));
#1793=CARTESIAN_POINT('',(-0.0302148827336972,-4.8970817732504E-19,0.0267193565442439));
#1794=CARTESIAN_POINT('',(-0.0296141964048626,7.38996942275607E-20,0.0267193565442439));
#1795=CARTESIAN_POINT('',(-0.0296141964048626,0.004,0.0218677099999989));
#1796=CARTESIAN_POINT('',(-0.0468311863855591,0.004,0.0258677099999989));
#1797=CARTESIAN_POINT('',(-0.0468311863855591,0.,0.0267193565442439));
#1798=CARTESIAN_POINT('',(-0.0458471728160024,2.94282056832527E-20,0.0267193565442439));
#1799=CARTESIAN_POINT('',(-0.043986675030672,0.000741585457420653,0.0272462296117416));
#1800=CARTESIAN_POINT('',(-0.0430335962907847,0.00241864809238577,0.0279305232861747));
#1801=CARTESIAN_POINT('',(-0.0428815993743428,0.00336694199252247,0.0281375648370339));
#1802=CARTESIAN_POINT('',(-0.0468311863855591,0.004,0.0218677099999989));
#1803=CARTESIAN_POINT('',(-0.0503589511438573,0.004,-7.07359147974239E-18));
#1804=CARTESIAN_POINT('',(-0.0543085381550737,0.00463305800747752,0.0283300597018313));
#1805=CARTESIAN_POINT('',(-0.0544031390014997,0.00404285257625185,0.0282786989397763));
#1806=CARTESIAN_POINT('',(-0.0543206079396565,0.00285224442390919,0.0280638014990109));
#1807=CARTESIAN_POINT('',(-0.0534953864663218,0.00133141758993098,0.0274956439573062));
#1808=CARTESIAN_POINT('',(-0.0521378933482251,0.000278283918183221,0.0269102417375693));
#1809=CARTESIAN_POINT('',(-0.0509596374726919,-4.32113245636356E-19,0.0267193565442439));
#1810=CARTESIAN_POINT('',(-0.0503589511438573,1.31494625916234E-19,0.0267193565442439));
#1811=CARTESIAN_POINT('',(-0.0503589511438573,0.004,0.0218677099999989));
#1812=CARTESIAN_POINT('',(-0.0675759411245537,0.004,0.0258677099999989));
#1813=CARTESIAN_POINT('',(-0.0675759411245537,0.,0.0267193565442439));
#1814=CARTESIAN_POINT('',(-0.066591927554997,2.94282056832527E-20,0.0267193565442439));
#1815=CARTESIAN_POINT('',(-0.0647314297696666,0.000741585457420655,0.0272462296117416));
#1816=CARTESIAN_POINT('',(-0.0637783510297793,0.00241864809238577,0.0279305232861746));
#1817=CARTESIAN_POINT('',(-0.0636263541133374,0.00336694199252247,0.0281375648370338));
#1818=CARTESIAN_POINT('',(-0.0675759411245537,0.004,0.0218677099999989));
#1819=CARTESIAN_POINT('',(-2.57999171958964E-18,0.0055,0.0183677099999989));
#1820=CARTESIAN_POINT('',(-2.66031220786848E-18,0.004,0.0218677099999989));
#1821=CARTESIAN_POINT('',(-2.66031220786848E-18,0.004,0.0218677099999989));
#1822=CARTESIAN_POINT('',(-2.66031220786848E-18,0.004,0.0218677099999989));
#1823=CARTESIAN_POINT('',(-2.66031220786848E-18,0.004,0.0218677099999989));
#1824=MECHANICAL_DESIGN_GEOMETRIC_PRESENTATION_REPRESENTATION('',(#1069),
#1825);
#1825=(
GEOMETRIC_REPRESENTATION_CONTEXT(3)
GLOBAL_UNCERTAINTY_ASSIGNED_CONTEXT((#1826))
GLOBAL_UNIT_ASSIGNED_CONTEXT((#1829,#1828,#1827))
REPRESENTATION_CONTEXT('driver_side_palm_cover2',
'TOP_LEVEL_ASSEMBLY_PART')
);
#1826=UNCERTAINTY_MEASURE_WITH_UNIT(LENGTH_MEASURE(2.E-5),#1829,
'DISTANCE_ACCURACY_VALUE','Maximum Tolerance applied to model');
#1827=(
NAMED_UNIT(*)
SI_UNIT($,.STERADIAN.)
SOLID_ANGLE_UNIT()
);
#1828=(
NAMED_UNIT(*)
PLANE_ANGLE_UNIT()
SI_UNIT($,.RADIAN.)
);
#1829=(
LENGTH_UNIT()
NAMED_UNIT(*)
SI_UNIT($,.METRE.)
);
#1830=PRODUCT_DEFINITION_SHAPE('','',#1831);
#1831=PRODUCT_DEFINITION('','',#1833,#1832);
#1832=PRODUCT_DEFINITION_CONTEXT('',#1839,'design');
#1833=PRODUCT_DEFINITION_FORMATION_WITH_SPECIFIED_SOURCE('','',#1835,
 .NOT_KNOWN.);
#1834=PRODUCT_RELATED_PRODUCT_CATEGORY('','',(#1835));
#1835=PRODUCT('driver_side_palm_cover2','driver_side_palm_cover2',
'driver_side_palm_cover2',(#1837));
#1836=PRODUCT_CATEGORY('','');
#1837=PRODUCT_CONTEXT('',#1839,'mechanical');
#1838=APPLICATION_PROTOCOL_DEFINITION('international standard',
'ap242_managed_model_based_3d_engineering',2020,#1839);
#1839=APPLICATION_CONTEXT('managed model based 3d engineering');
ENDSEC;
END-ISO-10303-21;
