ISO-10303-21;
HEADER;
/* Generated by software containing ST-Developer
 * from STEP Tools, Inc. (www.steptools.com) 
 */
/* OPTION: using custom renumber hook */

FILE_DESCRIPTION(
/* description */ ('STEP AP242 Edition 2',
'CAx-IF Rec.Pracs.---Representation and Presentation of Product Manufa
cturing Information (PMI)---4.0---2014-10-13',
'CAx-IF Rec.Pracs.---3D Tessellated Geometry---0.4---2014-09-14','2;1',
'CAx-IF Rec.Pracs.---User Defined Attributes---1.5---2016-08-15'),
/* implementation_level */ '2;1');

FILE_NAME(
/* name */ 'Robotic Hand_V5_simulacra - palm_bone_flex (1)',
/* time_stamp */ '2026-09-25T22:15:31Z',
/* author */ (''),
/* organization */ (''),
/* preprocessor_version */ 'ST-DEVELOPER v20',
/* originating_system */ 'ONSHAPE BY PTC INC, 1.221',
/* authorisation */ '  ');

FILE_SCHEMA (('AP242_MANAGED_MODEL_BASED_3D_ENGINEERING_MIM_LF { 1 0 10303 442 3 1 4 }'));
ENDSEC;

DATA;
#10=SHAPE_REPRESENTATION_RELATIONSHIP('','',#1171,#11);
#11=ADVANCED_BREP_SHAPE_REPRESENTATION('',(#1169),#1977);
#12=B_SPLINE_CURVE_WITH_KNOTS('',3,(#1725,#1726,#1727,#1728,#1729,#1730,
#1731,#1732,#1733),.UNSPECIFIED.,.F.,.F.,(4,1,1,1,1,1,4),(4.79016176428845E-18,
0.000794184954672637,0.00119127743200895,0.00158836990934527,0.00198546238668159,
0.0023825548640179,0.00317673981869053),.UNSPECIFIED.);
#13=B_SPLINE_CURVE_WITH_KNOTS('',3,(#1738,#1739,#1740,#1741,#1742),
 .UNSPECIFIED.,.F.,.F.,(4,1,4),(1.44465860954536E-16,0.000293332510731501,
0.000586665021462858),.UNSPECIFIED.);
#14=B_SPLINE_CURVE_WITH_KNOTS('',3,(#1747,#1748,#1749,#1750,#1751,#1752,
#1753),.UNSPECIFIED.,.F.,.F.,(4,1,1,1,4),(3.66043095938344E-17,0.000433540333738278,
0.00086708066747652,0.00130062100121476,0.001734161334953),
 .UNSPECIFIED.);
#15=B_SPLINE_CURVE_WITH_KNOTS('',3,(#1758,#1759,#1760,#1761,#1762,#1763,
#1764,#1765,#1766,#1767,#1768,#1769),.UNSPECIFIED.,.F.,.F.,(4,1,1,1,1,1,
1,1,1,4),(4.33680868994202E-19,0.000589423711299128,0.00117884742259826,
0.00176827113389738,0.00206298298954695,0.00235769484519651,0.00294711855649564,
0.00353654226779477,0.0041259659790939,0.00471538969039302),
 .UNSPECIFIED.);
#16=B_SPLINE_CURVE_WITH_KNOTS('',3,(#1774,#1775,#1776,#1777,#1778,#1779,
#1780),.UNSPECIFIED.,.F.,.F.,(4,1,1,1,4),(1.33528642295473E-17,0.000506314019115908,
0.0010126280382318,0.0015189420573477,0.00202525607646359),
 .UNSPECIFIED.);
#17=B_SPLINE_CURVE_WITH_KNOTS('',3,(#1788,#1789,#1790,#1791),
 .UNSPECIFIED.,.F.,.F.,(4,4),(9.0373307726968E-18,0.000712087028754882),
 .UNSPECIFIED.);
#18=CYLINDRICAL_SURFACE('',#1190,0.001);
#19=CYLINDRICAL_SURFACE('',#1192,0.001);
#20=CYLINDRICAL_SURFACE('',#1194,0.001);
#21=CYLINDRICAL_SURFACE('',#1196,0.001);
#22=CYLINDRICAL_SURFACE('',#1198,0.001);
#23=CYLINDRICAL_SURFACE('',#1200,0.000999999999061708);
#24=CYLINDRICAL_SURFACE('',#1202,0.001);
#25=CYLINDRICAL_SURFACE('',#1214,0.0065);
#26=CYLINDRICAL_SURFACE('',#1221,0.00613827546702941);
#27=CYLINDRICAL_SURFACE('',#1223,0.0065);
#28=CYLINDRICAL_SURFACE('',#1234,0.00613827546702941);
#29=CYLINDRICAL_SURFACE('',#1241,0.00613827546702941);
#30=CYLINDRICAL_SURFACE('',#1243,0.0065);
#31=CYLINDRICAL_SURFACE('',#1254,0.001);
#32=CYLINDRICAL_SURFACE('',#1267,0.0065);
#33=CYLINDRICAL_SURFACE('',#1270,0.00613827546702941);
#34=CYLINDRICAL_SURFACE('',#1271,0.0065);
#35=CYLINDRICAL_SURFACE('',#1272,0.00613827546702941);
#36=CYLINDRICAL_SURFACE('',#1273,0.0065);
#37=CYLINDRICAL_SURFACE('',#1274,0.00613827546702941);
#38=ELLIPSE('',#1182,0.0126392144239045,0.0065);
#39=ELLIPSE('',#1183,0.0119358430493504,0.00613827546702941);
#40=ELLIPSE('',#1184,0.0126392144239045,0.0065);
#41=ELLIPSE('',#1185,0.0119358430493504,0.00613827546702941);
#42=ELLIPSE('',#1186,0.0126392144239045,0.0065);
#43=ELLIPSE('',#1187,0.0119358430493504,0.00613827546702941);
#44=ELLIPSE('',#1201,0.0011660082578412,0.000999999999061708);
#45=ELLIPSE('',#1203,0.00116600825893525,0.001);
#46=ELLIPSE('',#1205,0.0119358430493504,0.00613827546702941);
#47=ELLIPSE('',#1206,0.0126392144239045,0.0065);
#48=ELLIPSE('',#1207,0.0119358430493504,0.00613827546702941);
#49=ELLIPSE('',#1208,0.0126392144239045,0.0065);
#50=ELLIPSE('',#1209,0.0119358430493504,0.00613827546702941);
#51=ELLIPSE('',#1210,0.0126392144239045,0.0065);
#52=ELLIPSE('',#1258,0.0119358430493504,0.00613827546702941);
#53=ELLIPSE('',#1260,0.0126392144239045,0.0065);
#54=ELLIPSE('',#1262,0.0119358430493504,0.00613827546702941);
#55=ELLIPSE('',#1264,0.0126392144239045,0.0065);
#56=ELLIPSE('',#1266,0.0119358430493504,0.00613827546702941);
#57=LINE('',#1623,#169);
#58=LINE('',#1626,#170);
#59=LINE('',#1628,#171);
#60=LINE('',#1630,#172);
#61=LINE('',#1632,#173);
#62=LINE('',#1634,#174);
#63=LINE('',#1636,#175);
#64=LINE('',#1640,#176);
#65=LINE('',#1642,#177);
#66=LINE('',#1644,#178);
#67=LINE('',#1646,#179);
#68=LINE('',#1648,#180);
#69=LINE('',#1652,#181);
#70=LINE('',#1654,#182);
#71=LINE('',#1656,#183);
#72=LINE('',#1658,#184);
#73=LINE('',#1660,#185);
#74=LINE('',#1664,#186);
#75=LINE('',#1666,#187);
#76=LINE('',#1668,#188);
#77=LINE('',#1670,#189);
#78=LINE('',#1672,#190);
#79=LINE('',#1676,#191);
#80=LINE('',#1678,#192);
#81=LINE('',#1680,#193);
#82=LINE('',#1682,#194);
#83=LINE('',#1684,#195);
#84=LINE('',#1688,#196);
#85=LINE('',#1690,#197);
#86=LINE('',#1692,#198);
#87=LINE('',#1694,#199);
#88=LINE('',#1696,#200);
#89=LINE('',#1700,#201);
#90=LINE('',#1702,#202);
#91=LINE('',#1704,#203);
#92=LINE('',#1706,#204);
#93=LINE('',#1708,#205);
#94=LINE('',#1710,#206);
#95=LINE('',#1712,#207);
#96=LINE('',#1714,#208);
#97=LINE('',#1716,#209);
#98=LINE('',#1718,#210);
#99=LINE('',#1720,#211);
#100=LINE('',#1793,#212);
#101=LINE('',#1796,#213);
#102=LINE('',#1798,#214);
#103=LINE('',#1799,#215);
#104=LINE('',#1801,#216);
#105=LINE('',#1803,#217);
#106=LINE('',#1807,#218);
#107=LINE('',#1809,#219);
#108=LINE('',#1811,#220);
#109=LINE('',#1813,#221);
#110=LINE('',#1815,#222);
#111=LINE('',#1819,#223);
#112=LINE('',#1821,#224);
#113=LINE('',#1823,#225);
#114=LINE('',#1825,#226);
#115=LINE('',#1827,#227);
#116=LINE('',#1831,#228);
#117=LINE('',#1833,#229);
#118=LINE('',#1835,#230);
#119=LINE('',#1837,#231);
#120=LINE('',#1839,#232);
#121=LINE('',#1843,#233);
#122=LINE('',#1845,#234);
#123=LINE('',#1847,#235);
#124=LINE('',#1849,#236);
#125=LINE('',#1851,#237);
#126=LINE('',#1855,#238);
#127=LINE('',#1857,#239);
#128=LINE('',#1859,#240);
#129=LINE('',#1861,#241);
#130=LINE('',#1863,#242);
#131=LINE('',#1867,#243);
#132=LINE('',#1869,#244);
#133=LINE('',#1871,#245);
#134=LINE('',#1872,#246);
#135=LINE('',#1874,#247);
#136=LINE('',#1875,#248);
#137=LINE('',#1877,#249);
#138=LINE('',#1878,#250);
#139=LINE('',#1880,#251);
#140=LINE('',#1881,#252);
#141=LINE('',#1883,#253);
#142=LINE('',#1886,#254);
#143=LINE('',#1889,#255);
#144=LINE('',#1891,#256);
#145=LINE('',#1895,#257);
#146=LINE('',#1897,#258);
#147=LINE('',#1900,#259);
#148=LINE('',#1902,#260);
#149=LINE('',#1906,#261);
#150=LINE('',#1908,#262);
#151=LINE('',#1910,#263);
#152=LINE('',#1912,#264);
#153=LINE('',#1916,#265);
#154=LINE('',#1918,#266);
#155=LINE('',#1920,#267);
#156=LINE('',#1922,#268);
#157=LINE('',#1927,#269);
#158=LINE('',#1929,#270);
#159=LINE('',#1932,#271);
#160=LINE('',#1934,#272);
#161=LINE('',#1936,#273);
#162=LINE('',#1938,#274);
#163=LINE('',#1940,#275);
#164=LINE('',#1942,#276);
#165=LINE('',#1961,#277);
#166=LINE('',#1970,#278);
#167=LINE('',#1972,#279);
#168=LINE('',#1974,#280);
#169=VECTOR('',#1299,1.);
#170=VECTOR('',#1300,1.);
#171=VECTOR('',#1301,1.);
#172=VECTOR('',#1302,1.);
#173=VECTOR('',#1303,1.);
#174=VECTOR('',#1304,1.);
#175=VECTOR('',#1305,1.);
#176=VECTOR('',#1308,1.);
#177=VECTOR('',#1309,1.);
#178=VECTOR('',#1310,1.);
#179=VECTOR('',#1311,1.);
#180=VECTOR('',#1312,1.);
#181=VECTOR('',#1315,1.);
#182=VECTOR('',#1316,1.);
#183=VECTOR('',#1317,1.);
#184=VECTOR('',#1318,1.);
#185=VECTOR('',#1319,1.);
#186=VECTOR('',#1322,1.);
#187=VECTOR('',#1323,1.);
#188=VECTOR('',#1324,1.);
#189=VECTOR('',#1325,1.);
#190=VECTOR('',#1326,1.);
#191=VECTOR('',#1329,1.);
#192=VECTOR('',#1330,1.);
#193=VECTOR('',#1331,1.);
#194=VECTOR('',#1332,1.);
#195=VECTOR('',#1333,1.);
#196=VECTOR('',#1336,1.);
#197=VECTOR('',#1337,1.);
#198=VECTOR('',#1338,1.);
#199=VECTOR('',#1339,1.);
#200=VECTOR('',#1340,1.);
#201=VECTOR('',#1343,1.);
#202=VECTOR('',#1344,1.);
#203=VECTOR('',#1345,1.);
#204=VECTOR('',#1346,1.);
#205=VECTOR('',#1347,1.);
#206=VECTOR('',#1350,1.);
#207=VECTOR('',#1351,1.);
#208=VECTOR('',#1352,1.);
#209=VECTOR('',#1355,1.);
#210=VECTOR('',#1356,1.);
#211=VECTOR('',#1357,1.);
#212=VECTOR('',#1388,1.);
#213=VECTOR('',#1389,1.);
#214=VECTOR('',#1390,1.);
#215=VECTOR('',#1391,1.);
#216=VECTOR('',#1392,1.);
#217=VECTOR('',#1393,1.);
#218=VECTOR('',#1396,1.);
#219=VECTOR('',#1397,1.);
#220=VECTOR('',#1398,1.);
#221=VECTOR('',#1399,1.);
#222=VECTOR('',#1400,1.);
#223=VECTOR('',#1403,1.);
#224=VECTOR('',#1404,1.);
#225=VECTOR('',#1405,1.);
#226=VECTOR('',#1406,1.);
#227=VECTOR('',#1407,1.);
#228=VECTOR('',#1410,1.);
#229=VECTOR('',#1411,1.);
#230=VECTOR('',#1412,1.);
#231=VECTOR('',#1413,1.);
#232=VECTOR('',#1414,1.);
#233=VECTOR('',#1417,1.);
#234=VECTOR('',#1418,1.);
#235=VECTOR('',#1419,1.);
#236=VECTOR('',#1420,1.);
#237=VECTOR('',#1421,1.);
#238=VECTOR('',#1424,1.);
#239=VECTOR('',#1425,1.);
#240=VECTOR('',#1426,1.);
#241=VECTOR('',#1427,1.);
#242=VECTOR('',#1428,1.);
#243=VECTOR('',#1431,1.);
#244=VECTOR('',#1432,1.);
#245=VECTOR('',#1433,1.);
#246=VECTOR('',#1434,1.);
#247=VECTOR('',#1437,1.);
#248=VECTOR('',#1438,1.);
#249=VECTOR('',#1441,1.);
#250=VECTOR('',#1442,1.);
#251=VECTOR('',#1445,1.);
#252=VECTOR('',#1446,1.);
#253=VECTOR('',#1449,1.);
#254=VECTOR('',#1454,1.);
#255=VECTOR('',#1459,1.);
#256=VECTOR('',#1462,1.);
#257=VECTOR('',#1469,1.);
#258=VECTOR('',#1472,1.);
#259=VECTOR('',#1477,1.);
#260=VECTOR('',#1480,1.);
#261=VECTOR('',#1487,1.);
#262=VECTOR('',#1490,1.);
#263=VECTOR('',#1493,1.);
#264=VECTOR('',#1496,1.);
#265=VECTOR('',#1503,1.);
#266=VECTOR('',#1506,1.);
#267=VECTOR('',#1509,1.);
#268=VECTOR('',#1512,1.);
#269=VECTOR('',#1521,1.);
#270=VECTOR('',#1524,1.);
#271=VECTOR('',#1529,1.);
#272=VECTOR('',#1532,1.);
#273=VECTOR('',#1535,1.);
#274=VECTOR('',#1538,1.);
#275=VECTOR('',#1541,1.);
#276=VECTOR('',#1544,1.);
#277=VECTOR('',#1579,1.);
#278=VECTOR('',#1596,1.);
#279=VECTOR('',#1599,1.);
#280=VECTOR('',#1602,1.);
#281=ORIENTED_EDGE('',*,*,#595,.T.);
#282=ORIENTED_EDGE('',*,*,#596,.T.);
#283=ORIENTED_EDGE('',*,*,#597,.T.);
#284=ORIENTED_EDGE('',*,*,#598,.T.);
#285=ORIENTED_EDGE('',*,*,#599,.T.);
#286=ORIENTED_EDGE('',*,*,#600,.T.);
#287=ORIENTED_EDGE('',*,*,#601,.T.);
#288=ORIENTED_EDGE('',*,*,#602,.T.);
#289=ORIENTED_EDGE('',*,*,#603,.T.);
#290=ORIENTED_EDGE('',*,*,#604,.T.);
#291=ORIENTED_EDGE('',*,*,#605,.T.);
#292=ORIENTED_EDGE('',*,*,#606,.T.);
#293=ORIENTED_EDGE('',*,*,#607,.T.);
#294=ORIENTED_EDGE('',*,*,#608,.F.);
#295=ORIENTED_EDGE('',*,*,#609,.T.);
#296=ORIENTED_EDGE('',*,*,#610,.F.);
#297=ORIENTED_EDGE('',*,*,#611,.F.);
#298=ORIENTED_EDGE('',*,*,#612,.T.);
#299=ORIENTED_EDGE('',*,*,#613,.T.);
#300=ORIENTED_EDGE('',*,*,#614,.F.);
#301=ORIENTED_EDGE('',*,*,#615,.F.);
#302=ORIENTED_EDGE('',*,*,#616,.F.);
#303=ORIENTED_EDGE('',*,*,#617,.T.);
#304=ORIENTED_EDGE('',*,*,#618,.T.);
#305=ORIENTED_EDGE('',*,*,#619,.T.);
#306=ORIENTED_EDGE('',*,*,#620,.F.);
#307=ORIENTED_EDGE('',*,*,#621,.T.);
#308=ORIENTED_EDGE('',*,*,#622,.F.);
#309=ORIENTED_EDGE('',*,*,#623,.F.);
#310=ORIENTED_EDGE('',*,*,#624,.T.);
#311=ORIENTED_EDGE('',*,*,#625,.T.);
#312=ORIENTED_EDGE('',*,*,#626,.F.);
#313=ORIENTED_EDGE('',*,*,#627,.F.);
#314=ORIENTED_EDGE('',*,*,#628,.F.);
#315=ORIENTED_EDGE('',*,*,#629,.T.);
#316=ORIENTED_EDGE('',*,*,#630,.T.);
#317=ORIENTED_EDGE('',*,*,#631,.T.);
#318=ORIENTED_EDGE('',*,*,#632,.F.);
#319=ORIENTED_EDGE('',*,*,#633,.T.);
#320=ORIENTED_EDGE('',*,*,#634,.F.);
#321=ORIENTED_EDGE('',*,*,#635,.F.);
#322=ORIENTED_EDGE('',*,*,#636,.T.);
#323=ORIENTED_EDGE('',*,*,#637,.T.);
#324=ORIENTED_EDGE('',*,*,#638,.F.);
#325=ORIENTED_EDGE('',*,*,#639,.F.);
#326=ORIENTED_EDGE('',*,*,#640,.F.);
#327=ORIENTED_EDGE('',*,*,#641,.T.);
#328=ORIENTED_EDGE('',*,*,#642,.T.);
#329=ORIENTED_EDGE('',*,*,#643,.T.);
#330=ORIENTED_EDGE('',*,*,#644,.T.);
#331=ORIENTED_EDGE('',*,*,#645,.T.);
#332=ORIENTED_EDGE('',*,*,#646,.F.);
#333=ORIENTED_EDGE('',*,*,#647,.T.);
#334=ORIENTED_EDGE('',*,*,#648,.T.);
#335=ORIENTED_EDGE('',*,*,#606,.F.);
#336=ORIENTED_EDGE('',*,*,#649,.F.);
#337=ORIENTED_EDGE('',*,*,#644,.F.);
#338=ORIENTED_EDGE('',*,*,#650,.T.);
#339=ORIENTED_EDGE('',*,*,#651,.T.);
#340=ORIENTED_EDGE('',*,*,#597,.F.);
#341=ORIENTED_EDGE('',*,*,#652,.T.);
#342=ORIENTED_EDGE('',*,*,#653,.T.);
#343=ORIENTED_EDGE('',*,*,#598,.F.);
#344=ORIENTED_EDGE('',*,*,#654,.T.);
#345=ORIENTED_EDGE('',*,*,#655,.T.);
#346=ORIENTED_EDGE('',*,*,#599,.F.);
#347=ORIENTED_EDGE('',*,*,#656,.T.);
#348=ORIENTED_EDGE('',*,*,#657,.T.);
#349=ORIENTED_EDGE('',*,*,#600,.F.);
#350=ORIENTED_EDGE('',*,*,#658,.T.);
#351=ORIENTED_EDGE('',*,*,#659,.T.);
#352=ORIENTED_EDGE('',*,*,#601,.F.);
#353=ORIENTED_EDGE('',*,*,#660,.T.);
#354=ORIENTED_EDGE('',*,*,#661,.T.);
#355=ORIENTED_EDGE('',*,*,#602,.F.);
#356=ORIENTED_EDGE('',*,*,#662,.T.);
#357=ORIENTED_EDGE('',*,*,#596,.F.);
#358=ORIENTED_EDGE('',*,*,#663,.T.);
#359=ORIENTED_EDGE('',*,*,#664,.T.);
#360=ORIENTED_EDGE('',*,*,#665,.F.);
#361=ORIENTED_EDGE('',*,*,#666,.F.);
#362=ORIENTED_EDGE('',*,*,#667,.F.);
#363=ORIENTED_EDGE('',*,*,#651,.F.);
#364=ORIENTED_EDGE('',*,*,#668,.F.);
#365=ORIENTED_EDGE('',*,*,#669,.F.);
#366=ORIENTED_EDGE('',*,*,#670,.F.);
#367=ORIENTED_EDGE('',*,*,#671,.T.);
#368=ORIENTED_EDGE('',*,*,#672,.T.);
#369=ORIENTED_EDGE('',*,*,#673,.T.);
#370=ORIENTED_EDGE('',*,*,#674,.F.);
#371=ORIENTED_EDGE('',*,*,#675,.F.);
#372=ORIENTED_EDGE('',*,*,#676,.T.);
#373=ORIENTED_EDGE('',*,*,#677,.T.);
#374=ORIENTED_EDGE('',*,*,#678,.F.);
#375=ORIENTED_EDGE('',*,*,#679,.T.);
#376=ORIENTED_EDGE('',*,*,#680,.F.);
#377=ORIENTED_EDGE('',*,*,#681,.F.);
#378=ORIENTED_EDGE('',*,*,#682,.F.);
#379=ORIENTED_EDGE('',*,*,#683,.T.);
#380=ORIENTED_EDGE('',*,*,#684,.T.);
#381=ORIENTED_EDGE('',*,*,#685,.T.);
#382=ORIENTED_EDGE('',*,*,#686,.F.);
#383=ORIENTED_EDGE('',*,*,#687,.F.);
#384=ORIENTED_EDGE('',*,*,#688,.T.);
#385=ORIENTED_EDGE('',*,*,#689,.T.);
#386=ORIENTED_EDGE('',*,*,#690,.F.);
#387=ORIENTED_EDGE('',*,*,#691,.T.);
#388=ORIENTED_EDGE('',*,*,#692,.F.);
#389=ORIENTED_EDGE('',*,*,#693,.F.);
#390=ORIENTED_EDGE('',*,*,#694,.F.);
#391=ORIENTED_EDGE('',*,*,#695,.T.);
#392=ORIENTED_EDGE('',*,*,#696,.T.);
#393=ORIENTED_EDGE('',*,*,#697,.T.);
#394=ORIENTED_EDGE('',*,*,#698,.F.);
#395=ORIENTED_EDGE('',*,*,#699,.F.);
#396=ORIENTED_EDGE('',*,*,#700,.T.);
#397=ORIENTED_EDGE('',*,*,#701,.T.);
#398=ORIENTED_EDGE('',*,*,#702,.F.);
#399=ORIENTED_EDGE('',*,*,#703,.T.);
#400=ORIENTED_EDGE('',*,*,#704,.F.);
#401=ORIENTED_EDGE('',*,*,#647,.F.);
#402=ORIENTED_EDGE('',*,*,#705,.F.);
#403=ORIENTED_EDGE('',*,*,#706,.F.);
#404=ORIENTED_EDGE('',*,*,#637,.F.);
#405=ORIENTED_EDGE('',*,*,#707,.T.);
#406=ORIENTED_EDGE('',*,*,#674,.T.);
#407=ORIENTED_EDGE('',*,*,#708,.F.);
#408=ORIENTED_EDGE('',*,*,#625,.F.);
#409=ORIENTED_EDGE('',*,*,#709,.T.);
#410=ORIENTED_EDGE('',*,*,#686,.T.);
#411=ORIENTED_EDGE('',*,*,#710,.F.);
#412=ORIENTED_EDGE('',*,*,#613,.F.);
#413=ORIENTED_EDGE('',*,*,#711,.T.);
#414=ORIENTED_EDGE('',*,*,#698,.T.);
#415=ORIENTED_EDGE('',*,*,#610,.T.);
#416=ORIENTED_EDGE('',*,*,#712,.F.);
#417=ORIENTED_EDGE('',*,*,#701,.F.);
#418=ORIENTED_EDGE('',*,*,#713,.T.);
#419=ORIENTED_EDGE('',*,*,#714,.F.);
#420=ORIENTED_EDGE('',*,*,#699,.T.);
#421=ORIENTED_EDGE('',*,*,#711,.F.);
#422=ORIENTED_EDGE('',*,*,#612,.F.);
#423=ORIENTED_EDGE('',*,*,#611,.T.);
#424=ORIENTED_EDGE('',*,*,#713,.F.);
#425=ORIENTED_EDGE('',*,*,#700,.F.);
#426=ORIENTED_EDGE('',*,*,#714,.T.);
#427=ORIENTED_EDGE('',*,*,#715,.T.);
#428=ORIENTED_EDGE('',*,*,#702,.T.);
#429=ORIENTED_EDGE('',*,*,#712,.T.);
#430=ORIENTED_EDGE('',*,*,#609,.F.);
#431=ORIENTED_EDGE('',*,*,#608,.T.);
#432=ORIENTED_EDGE('',*,*,#716,.T.);
#433=ORIENTED_EDGE('',*,*,#703,.F.);
#434=ORIENTED_EDGE('',*,*,#715,.F.);
#435=ORIENTED_EDGE('',*,*,#648,.F.);
#436=ORIENTED_EDGE('',*,*,#704,.T.);
#437=ORIENTED_EDGE('',*,*,#716,.F.);
#438=ORIENTED_EDGE('',*,*,#607,.F.);
#439=ORIENTED_EDGE('',*,*,#616,.T.);
#440=ORIENTED_EDGE('',*,*,#717,.T.);
#441=ORIENTED_EDGE('',*,*,#695,.F.);
#442=ORIENTED_EDGE('',*,*,#718,.F.);
#443=ORIENTED_EDGE('',*,*,#622,.T.);
#444=ORIENTED_EDGE('',*,*,#719,.F.);
#445=ORIENTED_EDGE('',*,*,#689,.F.);
#446=ORIENTED_EDGE('',*,*,#720,.T.);
#447=ORIENTED_EDGE('',*,*,#614,.T.);
#448=ORIENTED_EDGE('',*,*,#710,.T.);
#449=ORIENTED_EDGE('',*,*,#697,.F.);
#450=ORIENTED_EDGE('',*,*,#721,.T.);
#451=ORIENTED_EDGE('',*,*,#722,.F.);
#452=ORIENTED_EDGE('',*,*,#687,.T.);
#453=ORIENTED_EDGE('',*,*,#709,.F.);
#454=ORIENTED_EDGE('',*,*,#624,.F.);
#455=ORIENTED_EDGE('',*,*,#623,.T.);
#456=ORIENTED_EDGE('',*,*,#720,.F.);
#457=ORIENTED_EDGE('',*,*,#688,.F.);
#458=ORIENTED_EDGE('',*,*,#722,.T.);
#459=ORIENTED_EDGE('',*,*,#615,.T.);
#460=ORIENTED_EDGE('',*,*,#721,.F.);
#461=ORIENTED_EDGE('',*,*,#696,.F.);
#462=ORIENTED_EDGE('',*,*,#717,.F.);
#463=ORIENTED_EDGE('',*,*,#718,.T.);
#464=ORIENTED_EDGE('',*,*,#694,.T.);
#465=ORIENTED_EDGE('',*,*,#723,.F.);
#466=ORIENTED_EDGE('',*,*,#617,.F.);
#467=ORIENTED_EDGE('',*,*,#724,.T.);
#468=ORIENTED_EDGE('',*,*,#690,.T.);
#469=ORIENTED_EDGE('',*,*,#719,.T.);
#470=ORIENTED_EDGE('',*,*,#621,.F.);
#471=ORIENTED_EDGE('',*,*,#723,.T.);
#472=ORIENTED_EDGE('',*,*,#693,.T.);
#473=ORIENTED_EDGE('',*,*,#725,.F.);
#474=ORIENTED_EDGE('',*,*,#618,.F.);
#475=ORIENTED_EDGE('',*,*,#620,.T.);
#476=ORIENTED_EDGE('',*,*,#726,.T.);
#477=ORIENTED_EDGE('',*,*,#691,.F.);
#478=ORIENTED_EDGE('',*,*,#724,.F.);
#479=ORIENTED_EDGE('',*,*,#725,.T.);
#480=ORIENTED_EDGE('',*,*,#692,.T.);
#481=ORIENTED_EDGE('',*,*,#726,.F.);
#482=ORIENTED_EDGE('',*,*,#619,.F.);
#483=ORIENTED_EDGE('',*,*,#640,.T.);
#484=ORIENTED_EDGE('',*,*,#727,.T.);
#485=ORIENTED_EDGE('',*,*,#671,.F.);
#486=ORIENTED_EDGE('',*,*,#728,.F.);
#487=ORIENTED_EDGE('',*,*,#639,.T.);
#488=ORIENTED_EDGE('',*,*,#729,.F.);
#489=ORIENTED_EDGE('',*,*,#672,.F.);
#490=ORIENTED_EDGE('',*,*,#727,.F.);
#491=ORIENTED_EDGE('',*,*,#728,.T.);
#492=ORIENTED_EDGE('',*,*,#670,.T.);
#493=ORIENTED_EDGE('',*,*,#730,.F.);
#494=ORIENTED_EDGE('',*,*,#641,.F.);
#495=ORIENTED_EDGE('',*,*,#730,.T.);
#496=ORIENTED_EDGE('',*,*,#669,.T.);
#497=ORIENTED_EDGE('',*,*,#731,.F.);
#498=ORIENTED_EDGE('',*,*,#642,.F.);
#499=ORIENTED_EDGE('',*,*,#638,.T.);
#500=ORIENTED_EDGE('',*,*,#706,.T.);
#501=ORIENTED_EDGE('',*,*,#673,.F.);
#502=ORIENTED_EDGE('',*,*,#729,.T.);
#503=ORIENTED_EDGE('',*,*,#731,.T.);
#504=ORIENTED_EDGE('',*,*,#668,.T.);
#505=ORIENTED_EDGE('',*,*,#650,.F.);
#506=ORIENTED_EDGE('',*,*,#643,.F.);
#507=ORIENTED_EDGE('',*,*,#628,.T.);
#508=ORIENTED_EDGE('',*,*,#732,.T.);
#509=ORIENTED_EDGE('',*,*,#683,.F.);
#510=ORIENTED_EDGE('',*,*,#733,.F.);
#511=ORIENTED_EDGE('',*,*,#634,.T.);
#512=ORIENTED_EDGE('',*,*,#734,.F.);
#513=ORIENTED_EDGE('',*,*,#677,.F.);
#514=ORIENTED_EDGE('',*,*,#735,.T.);
#515=ORIENTED_EDGE('',*,*,#635,.T.);
#516=ORIENTED_EDGE('',*,*,#735,.F.);
#517=ORIENTED_EDGE('',*,*,#676,.F.);
#518=ORIENTED_EDGE('',*,*,#736,.T.);
#519=ORIENTED_EDGE('',*,*,#627,.T.);
#520=ORIENTED_EDGE('',*,*,#737,.F.);
#521=ORIENTED_EDGE('',*,*,#684,.F.);
#522=ORIENTED_EDGE('',*,*,#732,.F.);
#523=ORIENTED_EDGE('',*,*,#733,.T.);
#524=ORIENTED_EDGE('',*,*,#682,.T.);
#525=ORIENTED_EDGE('',*,*,#738,.F.);
#526=ORIENTED_EDGE('',*,*,#629,.F.);
#527=ORIENTED_EDGE('',*,*,#739,.T.);
#528=ORIENTED_EDGE('',*,*,#678,.T.);
#529=ORIENTED_EDGE('',*,*,#734,.T.);
#530=ORIENTED_EDGE('',*,*,#633,.F.);
#531=ORIENTED_EDGE('',*,*,#738,.T.);
#532=ORIENTED_EDGE('',*,*,#681,.T.);
#533=ORIENTED_EDGE('',*,*,#740,.F.);
#534=ORIENTED_EDGE('',*,*,#630,.F.);
#535=ORIENTED_EDGE('',*,*,#632,.T.);
#536=ORIENTED_EDGE('',*,*,#741,.T.);
#537=ORIENTED_EDGE('',*,*,#679,.F.);
#538=ORIENTED_EDGE('',*,*,#739,.F.);
#539=ORIENTED_EDGE('',*,*,#740,.T.);
#540=ORIENTED_EDGE('',*,*,#680,.T.);
#541=ORIENTED_EDGE('',*,*,#741,.F.);
#542=ORIENTED_EDGE('',*,*,#631,.F.);
#543=ORIENTED_EDGE('',*,*,#626,.T.);
#544=ORIENTED_EDGE('',*,*,#708,.T.);
#545=ORIENTED_EDGE('',*,*,#685,.F.);
#546=ORIENTED_EDGE('',*,*,#737,.T.);
#547=ORIENTED_EDGE('',*,*,#736,.F.);
#548=ORIENTED_EDGE('',*,*,#675,.T.);
#549=ORIENTED_EDGE('',*,*,#707,.F.);
#550=ORIENTED_EDGE('',*,*,#636,.F.);
#551=ORIENTED_EDGE('',*,*,#742,.T.);
#552=ORIENTED_EDGE('',*,*,#595,.F.);
#553=ORIENTED_EDGE('',*,*,#742,.F.);
#554=ORIENTED_EDGE('',*,*,#743,.F.);
#555=ORIENTED_EDGE('',*,*,#652,.F.);
#556=ORIENTED_EDGE('',*,*,#744,.F.);
#557=ORIENTED_EDGE('',*,*,#654,.F.);
#558=ORIENTED_EDGE('',*,*,#656,.F.);
#559=ORIENTED_EDGE('',*,*,#745,.T.);
#560=ORIENTED_EDGE('',*,*,#746,.F.);
#561=ORIENTED_EDGE('',*,*,#658,.F.);
#562=ORIENTED_EDGE('',*,*,#747,.F.);
#563=ORIENTED_EDGE('',*,*,#660,.F.);
#564=ORIENTED_EDGE('',*,*,#748,.F.);
#565=ORIENTED_EDGE('',*,*,#664,.F.);
#566=ORIENTED_EDGE('',*,*,#748,.T.);
#567=ORIENTED_EDGE('',*,*,#663,.F.);
#568=ORIENTED_EDGE('',*,*,#662,.F.);
#569=ORIENTED_EDGE('',*,*,#747,.T.);
#570=ORIENTED_EDGE('',*,*,#661,.F.);
#571=ORIENTED_EDGE('',*,*,#746,.T.);
#572=ORIENTED_EDGE('',*,*,#659,.F.);
#573=ORIENTED_EDGE('',*,*,#745,.F.);
#574=ORIENTED_EDGE('',*,*,#657,.F.);
#575=ORIENTED_EDGE('',*,*,#744,.T.);
#576=ORIENTED_EDGE('',*,*,#655,.F.);
#577=ORIENTED_EDGE('',*,*,#743,.T.);
#578=ORIENTED_EDGE('',*,*,#653,.F.);
#579=ORIENTED_EDGE('',*,*,#649,.T.);
#580=ORIENTED_EDGE('',*,*,#667,.T.);
#581=ORIENTED_EDGE('',*,*,#749,.T.);
#582=ORIENTED_EDGE('',*,*,#645,.F.);
#583=ORIENTED_EDGE('',*,*,#603,.F.);
#584=ORIENTED_EDGE('',*,*,#749,.F.);
#585=ORIENTED_EDGE('',*,*,#666,.T.);
#586=ORIENTED_EDGE('',*,*,#750,.T.);
#587=ORIENTED_EDGE('',*,*,#646,.T.);
#588=ORIENTED_EDGE('',*,*,#605,.F.);
#589=ORIENTED_EDGE('',*,*,#751,.F.);
#590=ORIENTED_EDGE('',*,*,#705,.T.);
#591=ORIENTED_EDGE('',*,*,#604,.F.);
#592=ORIENTED_EDGE('',*,*,#750,.F.);
#593=ORIENTED_EDGE('',*,*,#665,.T.);
#594=ORIENTED_EDGE('',*,*,#751,.T.);
#595=EDGE_CURVE('',#752,#752,#860,.T.);
#596=EDGE_CURVE('',#753,#753,#861,.T.);
#597=EDGE_CURVE('',#754,#754,#862,.T.);
#598=EDGE_CURVE('',#755,#755,#863,.T.);
#599=EDGE_CURVE('',#756,#756,#864,.T.);
#600=EDGE_CURVE('',#757,#757,#865,.T.);
#601=EDGE_CURVE('',#758,#758,#866,.T.);
#602=EDGE_CURVE('',#759,#759,#867,.T.);
#603=EDGE_CURVE('',#760,#761,#57,.T.);
#604=EDGE_CURVE('',#761,#762,#58,.T.);
#605=EDGE_CURVE('',#762,#763,#59,.T.);
#606=EDGE_CURVE('',#763,#764,#60,.T.);
#607=EDGE_CURVE('',#764,#765,#61,.T.);
#608=EDGE_CURVE('',#766,#765,#62,.T.);
#609=EDGE_CURVE('',#766,#767,#63,.T.);
#610=EDGE_CURVE('',#768,#767,#38,.F.);
#611=EDGE_CURVE('',#769,#768,#64,.T.);
#612=EDGE_CURVE('',#769,#770,#65,.T.);
#613=EDGE_CURVE('',#770,#771,#66,.T.);
#614=EDGE_CURVE('',#772,#771,#67,.T.);
#615=EDGE_CURVE('',#773,#772,#68,.T.);
#616=EDGE_CURVE('',#774,#773,#39,.F.);
#617=EDGE_CURVE('',#774,#775,#69,.T.);
#618=EDGE_CURVE('',#775,#776,#70,.T.);
#619=EDGE_CURVE('',#776,#777,#71,.T.);
#620=EDGE_CURVE('',#778,#777,#72,.T.);
#621=EDGE_CURVE('',#778,#779,#73,.T.);
#622=EDGE_CURVE('',#780,#779,#40,.F.);
#623=EDGE_CURVE('',#781,#780,#74,.T.);
#624=EDGE_CURVE('',#781,#782,#75,.T.);
#625=EDGE_CURVE('',#782,#783,#76,.T.);
#626=EDGE_CURVE('',#784,#783,#77,.T.);
#627=EDGE_CURVE('',#785,#784,#78,.T.);
#628=EDGE_CURVE('',#786,#785,#41,.F.);
#629=EDGE_CURVE('',#786,#787,#79,.T.);
#630=EDGE_CURVE('',#787,#788,#80,.T.);
#631=EDGE_CURVE('',#788,#789,#81,.T.);
#632=EDGE_CURVE('',#790,#789,#82,.T.);
#633=EDGE_CURVE('',#790,#791,#83,.T.);
#634=EDGE_CURVE('',#792,#791,#42,.F.);
#635=EDGE_CURVE('',#793,#792,#84,.T.);
#636=EDGE_CURVE('',#793,#794,#85,.T.);
#637=EDGE_CURVE('',#794,#795,#86,.T.);
#638=EDGE_CURVE('',#796,#795,#87,.T.);
#639=EDGE_CURVE('',#797,#796,#88,.T.);
#640=EDGE_CURVE('',#798,#797,#43,.F.);
#641=EDGE_CURVE('',#798,#799,#89,.T.);
#642=EDGE_CURVE('',#799,#800,#90,.T.);
#643=EDGE_CURVE('',#800,#801,#91,.T.);
#644=EDGE_CURVE('',#801,#802,#92,.T.);
#645=EDGE_CURVE('',#802,#760,#93,.T.);
#646=EDGE_CURVE('',#803,#763,#94,.T.);
#647=EDGE_CURVE('',#803,#804,#95,.T.);
#648=EDGE_CURVE('',#804,#764,#96,.T.);
#649=EDGE_CURVE('',#802,#805,#97,.T.);
#650=EDGE_CURVE('',#801,#806,#98,.T.);
#651=EDGE_CURVE('',#806,#805,#99,.T.);
#652=EDGE_CURVE('',#807,#808,#868,.T.);
#653=EDGE_CURVE('',#808,#807,#12,.T.);
#654=EDGE_CURVE('',#809,#810,#869,.T.);
#655=EDGE_CURVE('',#810,#809,#13,.T.);
#656=EDGE_CURVE('',#811,#812,#870,.T.);
#657=EDGE_CURVE('',#812,#811,#14,.T.);
#658=EDGE_CURVE('',#813,#814,#871,.T.);
#659=EDGE_CURVE('',#814,#813,#15,.T.);
#660=EDGE_CURVE('',#815,#816,#872,.T.);
#661=EDGE_CURVE('',#816,#815,#16,.T.);
#662=EDGE_CURVE('',#817,#817,#44,.F.);
#663=EDGE_CURVE('',#818,#819,#45,.F.);
#664=EDGE_CURVE('',#819,#818,#17,.T.);
#665=EDGE_CURVE('',#820,#821,#100,.T.);
#666=EDGE_CURVE('',#822,#820,#101,.T.);
#667=EDGE_CURVE('',#805,#822,#102,.T.);
#668=EDGE_CURVE('',#823,#806,#103,.T.);
#669=EDGE_CURVE('',#824,#823,#104,.T.);
#670=EDGE_CURVE('',#825,#824,#105,.T.);
#671=EDGE_CURVE('',#825,#826,#46,.F.);
#672=EDGE_CURVE('',#826,#827,#106,.T.);
#673=EDGE_CURVE('',#827,#828,#107,.T.);
#674=EDGE_CURVE('',#829,#828,#108,.T.);
#675=EDGE_CURVE('',#830,#829,#109,.T.);
#676=EDGE_CURVE('',#830,#831,#110,.T.);
#677=EDGE_CURVE('',#831,#832,#47,.F.);
#678=EDGE_CURVE('',#833,#832,#111,.T.);
#679=EDGE_CURVE('',#833,#834,#112,.T.);
#680=EDGE_CURVE('',#835,#834,#113,.T.);
#681=EDGE_CURVE('',#836,#835,#114,.T.);
#682=EDGE_CURVE('',#837,#836,#115,.T.);
#683=EDGE_CURVE('',#837,#838,#48,.F.);
#684=EDGE_CURVE('',#838,#839,#116,.T.);
#685=EDGE_CURVE('',#839,#840,#117,.T.);
#686=EDGE_CURVE('',#841,#840,#118,.T.);
#687=EDGE_CURVE('',#842,#841,#119,.T.);
#688=EDGE_CURVE('',#842,#843,#120,.T.);
#689=EDGE_CURVE('',#843,#844,#49,.F.);
#690=EDGE_CURVE('',#845,#844,#121,.T.);
#691=EDGE_CURVE('',#845,#846,#122,.T.);
#692=EDGE_CURVE('',#847,#846,#123,.T.);
#693=EDGE_CURVE('',#848,#847,#124,.T.);
#694=EDGE_CURVE('',#849,#848,#125,.T.);
#695=EDGE_CURVE('',#849,#850,#50,.F.);
#696=EDGE_CURVE('',#850,#851,#126,.T.);
#697=EDGE_CURVE('',#851,#852,#127,.T.);
#698=EDGE_CURVE('',#853,#852,#128,.T.);
#699=EDGE_CURVE('',#854,#853,#129,.T.);
#700=EDGE_CURVE('',#854,#855,#130,.T.);
#701=EDGE_CURVE('',#855,#856,#51,.F.);
#702=EDGE_CURVE('',#857,#856,#131,.T.);
#703=EDGE_CURVE('',#857,#858,#132,.T.);
#704=EDGE_CURVE('',#804,#858,#133,.T.);
#705=EDGE_CURVE('',#821,#803,#134,.T.);
#706=EDGE_CURVE('',#795,#828,#135,.T.);
#707=EDGE_CURVE('',#794,#829,#136,.T.);
#708=EDGE_CURVE('',#783,#840,#137,.T.);
#709=EDGE_CURVE('',#782,#841,#138,.T.);
#710=EDGE_CURVE('',#771,#852,#139,.T.);
#711=EDGE_CURVE('',#770,#853,#140,.T.);
#712=EDGE_CURVE('',#856,#767,#141,.T.);
#713=EDGE_CURVE('',#855,#768,#873,.T.);
#714=EDGE_CURVE('',#854,#769,#142,.T.);
#715=EDGE_CURVE('',#766,#857,#143,.T.);
#716=EDGE_CURVE('',#765,#858,#144,.T.);
#717=EDGE_CURVE('',#773,#850,#874,.T.);
#718=EDGE_CURVE('',#774,#849,#145,.F.);
#719=EDGE_CURVE('',#844,#779,#146,.T.);
#720=EDGE_CURVE('',#843,#780,#875,.T.);
#721=EDGE_CURVE('',#851,#772,#147,.T.);
#722=EDGE_CURVE('',#842,#781,#148,.T.);
#723=EDGE_CURVE('',#775,#848,#149,.T.);
#724=EDGE_CURVE('',#778,#845,#150,.T.);
#725=EDGE_CURVE('',#776,#847,#151,.T.);
#726=EDGE_CURVE('',#777,#846,#152,.T.);
#727=EDGE_CURVE('',#797,#826,#876,.T.);
#728=EDGE_CURVE('',#798,#825,#153,.F.);
#729=EDGE_CURVE('',#827,#796,#154,.T.);
#730=EDGE_CURVE('',#799,#824,#155,.T.);
#731=EDGE_CURVE('',#800,#823,#156,.T.);
#732=EDGE_CURVE('',#785,#838,#877,.T.);
#733=EDGE_CURVE('',#786,#837,#157,.F.);
#734=EDGE_CURVE('',#832,#791,#158,.T.);
#735=EDGE_CURVE('',#831,#792,#878,.T.);
#736=EDGE_CURVE('',#830,#793,#159,.T.);
#737=EDGE_CURVE('',#839,#784,#160,.T.);
#738=EDGE_CURVE('',#787,#836,#161,.T.);
#739=EDGE_CURVE('',#790,#833,#162,.T.);
#740=EDGE_CURVE('',#788,#835,#163,.T.);
#741=EDGE_CURVE('',#789,#834,#164,.T.);
#742=EDGE_CURVE('',#859,#859,#879,.T.);
#743=EDGE_CURVE('',#808,#807,#52,.F.);
#744=EDGE_CURVE('',#810,#809,#53,.F.);
#745=EDGE_CURVE('',#811,#812,#54,.F.);
#746=EDGE_CURVE('',#814,#813,#55,.F.);
#747=EDGE_CURVE('',#816,#815,#56,.F.);
#748=EDGE_CURVE('',#818,#819,#165,.T.);
#749=EDGE_CURVE('',#822,#760,#166,.T.);
#750=EDGE_CURVE('',#820,#761,#167,.T.);
#751=EDGE_CURVE('',#821,#762,#168,.T.);
#752=VERTEX_POINT('',#1608);
#753=VERTEX_POINT('',#1610);
#754=VERTEX_POINT('',#1612);
#755=VERTEX_POINT('',#1614);
#756=VERTEX_POINT('',#1616);
#757=VERTEX_POINT('',#1618);
#758=VERTEX_POINT('',#1620);
#759=VERTEX_POINT('',#1622);
#760=VERTEX_POINT('',#1624);
#761=VERTEX_POINT('',#1625);
#762=VERTEX_POINT('',#1627);
#763=VERTEX_POINT('',#1629);
#764=VERTEX_POINT('',#1631);
#765=VERTEX_POINT('',#1633);
#766=VERTEX_POINT('',#1635);
#767=VERTEX_POINT('',#1637);
#768=VERTEX_POINT('',#1639);
#769=VERTEX_POINT('',#1641);
#770=VERTEX_POINT('',#1643);
#771=VERTEX_POINT('',#1645);
#772=VERTEX_POINT('',#1647);
#773=VERTEX_POINT('',#1649);
#774=VERTEX_POINT('',#1651);
#775=VERTEX_POINT('',#1653);
#776=VERTEX_POINT('',#1655);
#777=VERTEX_POINT('',#1657);
#778=VERTEX_POINT('',#1659);
#779=VERTEX_POINT('',#1661);
#780=VERTEX_POINT('',#1663);
#781=VERTEX_POINT('',#1665);
#782=VERTEX_POINT('',#1667);
#783=VERTEX_POINT('',#1669);
#784=VERTEX_POINT('',#1671);
#785=VERTEX_POINT('',#1673);
#786=VERTEX_POINT('',#1675);
#787=VERTEX_POINT('',#1677);
#788=VERTEX_POINT('',#1679);
#789=VERTEX_POINT('',#1681);
#790=VERTEX_POINT('',#1683);
#791=VERTEX_POINT('',#1685);
#792=VERTEX_POINT('',#1687);
#793=VERTEX_POINT('',#1689);
#794=VERTEX_POINT('',#1691);
#795=VERTEX_POINT('',#1693);
#796=VERTEX_POINT('',#1695);
#797=VERTEX_POINT('',#1697);
#798=VERTEX_POINT('',#1699);
#799=VERTEX_POINT('',#1701);
#800=VERTEX_POINT('',#1703);
#801=VERTEX_POINT('',#1705);
#802=VERTEX_POINT('',#1707);
#803=VERTEX_POINT('',#1711);
#804=VERTEX_POINT('',#1713);
#805=VERTEX_POINT('',#1717);
#806=VERTEX_POINT('',#1719);
#807=VERTEX_POINT('',#1723);
#808=VERTEX_POINT('',#1724);
#809=VERTEX_POINT('',#1736);
#810=VERTEX_POINT('',#1737);
#811=VERTEX_POINT('',#1745);
#812=VERTEX_POINT('',#1746);
#813=VERTEX_POINT('',#1756);
#814=VERTEX_POINT('',#1757);
#815=VERTEX_POINT('',#1772);
#816=VERTEX_POINT('',#1773);
#817=VERTEX_POINT('',#1783);
#818=VERTEX_POINT('',#1786);
#819=VERTEX_POINT('',#1787);
#820=VERTEX_POINT('',#1794);
#821=VERTEX_POINT('',#1795);
#822=VERTEX_POINT('',#1797);
#823=VERTEX_POINT('',#1800);
#824=VERTEX_POINT('',#1802);
#825=VERTEX_POINT('',#1804);
#826=VERTEX_POINT('',#1806);
#827=VERTEX_POINT('',#1808);
#828=VERTEX_POINT('',#1810);
#829=VERTEX_POINT('',#1812);
#830=VERTEX_POINT('',#1814);
#831=VERTEX_POINT('',#1816);
#832=VERTEX_POINT('',#1818);
#833=VERTEX_POINT('',#1820);
#834=VERTEX_POINT('',#1822);
#835=VERTEX_POINT('',#1824);
#836=VERTEX_POINT('',#1826);
#837=VERTEX_POINT('',#1828);
#838=VERTEX_POINT('',#1830);
#839=VERTEX_POINT('',#1832);
#840=VERTEX_POINT('',#1834);
#841=VERTEX_POINT('',#1836);
#842=VERTEX_POINT('',#1838);
#843=VERTEX_POINT('',#1840);
#844=VERTEX_POINT('',#1842);
#845=VERTEX_POINT('',#1844);
#846=VERTEX_POINT('',#1846);
#847=VERTEX_POINT('',#1848);
#848=VERTEX_POINT('',#1850);
#849=VERTEX_POINT('',#1852);
#850=VERTEX_POINT('',#1854);
#851=VERTEX_POINT('',#1856);
#852=VERTEX_POINT('',#1858);
#853=VERTEX_POINT('',#1860);
#854=VERTEX_POINT('',#1862);
#855=VERTEX_POINT('',#1864);
#856=VERTEX_POINT('',#1866);
#857=VERTEX_POINT('',#1868);
#858=VERTEX_POINT('',#1870);
#859=VERTEX_POINT('',#1948);
#860=CIRCLE('',#1174,0.001);
#861=CIRCLE('',#1175,0.001);
#862=CIRCLE('',#1176,0.001);
#863=CIRCLE('',#1177,0.001);
#864=CIRCLE('',#1178,0.001);
#865=CIRCLE('',#1179,0.001);
#866=CIRCLE('',#1180,0.001);
#867=CIRCLE('',#1181,0.000999999999061708);
#868=CIRCLE('',#1191,0.001);
#869=CIRCLE('',#1193,0.001);
#870=CIRCLE('',#1195,0.001);
#871=CIRCLE('',#1197,0.001);
#872=CIRCLE('',#1199,0.001);
#873=CIRCLE('',#1215,0.0065);
#874=CIRCLE('',#1222,0.00613827546702941);
#875=CIRCLE('',#1224,0.0065);
#876=CIRCLE('',#1235,0.00613827546702941);
#877=CIRCLE('',#1242,0.00613827546702941);
#878=CIRCLE('',#1244,0.0065);
#879=CIRCLE('',#1255,0.001);
#880=EDGE_LOOP('',(#281));
#881=EDGE_LOOP('',(#282));
#882=EDGE_LOOP('',(#283));
#883=EDGE_LOOP('',(#284));
#884=EDGE_LOOP('',(#285));
#885=EDGE_LOOP('',(#286));
#886=EDGE_LOOP('',(#287));
#887=EDGE_LOOP('',(#288));
#888=EDGE_LOOP('',(#289,#290,#291,#292,#293,#294,#295,#296,#297,#298,#299,
#300,#301,#302,#303,#304,#305,#306,#307,#308,#309,#310,#311,#312,#313,#314,
#315,#316,#317,#318,#319,#320,#321,#322,#323,#324,#325,#326,#327,#328,#329,
#330,#331));
#889=EDGE_LOOP('',(#332,#333,#334,#335));
#890=EDGE_LOOP('',(#336,#337,#338,#339));
#891=EDGE_LOOP('',(#340));
#892=EDGE_LOOP('',(#341,#342));
#893=EDGE_LOOP('',(#343));
#894=EDGE_LOOP('',(#344,#345));
#895=EDGE_LOOP('',(#346));
#896=EDGE_LOOP('',(#347,#348));
#897=EDGE_LOOP('',(#349));
#898=EDGE_LOOP('',(#350,#351));
#899=EDGE_LOOP('',(#352));
#900=EDGE_LOOP('',(#353,#354));
#901=EDGE_LOOP('',(#355));
#902=EDGE_LOOP('',(#356));
#903=EDGE_LOOP('',(#357));
#904=EDGE_LOOP('',(#358,#359));
#905=EDGE_LOOP('',(#360,#361,#362,#363,#364,#365,#366,#367,#368,#369,#370,
#371,#372,#373,#374,#375,#376,#377,#378,#379,#380,#381,#382,#383,#384,#385,
#386,#387,#388,#389,#390,#391,#392,#393,#394,#395,#396,#397,#398,#399,#400,
#401,#402));
#906=EDGE_LOOP('',(#403,#404,#405,#406));
#907=EDGE_LOOP('',(#407,#408,#409,#410));
#908=EDGE_LOOP('',(#411,#412,#413,#414));
#909=EDGE_LOOP('',(#415,#416,#417,#418));
#910=EDGE_LOOP('',(#419,#420,#421,#422));
#911=EDGE_LOOP('',(#423,#424,#425,#426));
#912=EDGE_LOOP('',(#427,#428,#429,#430));
#913=EDGE_LOOP('',(#431,#432,#433,#434));
#914=EDGE_LOOP('',(#435,#436,#437,#438));
#915=EDGE_LOOP('',(#439,#440,#441,#442));
#916=EDGE_LOOP('',(#443,#444,#445,#446));
#917=EDGE_LOOP('',(#447,#448,#449,#450));
#918=EDGE_LOOP('',(#451,#452,#453,#454));
#919=EDGE_LOOP('',(#455,#456,#457,#458));
#920=EDGE_LOOP('',(#459,#460,#461,#462));
#921=EDGE_LOOP('',(#463,#464,#465,#466));
#922=EDGE_LOOP('',(#467,#468,#469,#470));
#923=EDGE_LOOP('',(#471,#472,#473,#474));
#924=EDGE_LOOP('',(#475,#476,#477,#478));
#925=EDGE_LOOP('',(#479,#480,#481,#482));
#926=EDGE_LOOP('',(#483,#484,#485,#486));
#927=EDGE_LOOP('',(#487,#488,#489,#490));
#928=EDGE_LOOP('',(#491,#492,#493,#494));
#929=EDGE_LOOP('',(#495,#496,#497,#498));
#930=EDGE_LOOP('',(#499,#500,#501,#502));
#931=EDGE_LOOP('',(#503,#504,#505,#506));
#932=EDGE_LOOP('',(#507,#508,#509,#510));
#933=EDGE_LOOP('',(#511,#512,#513,#514));
#934=EDGE_LOOP('',(#515,#516,#517,#518));
#935=EDGE_LOOP('',(#519,#520,#521,#522));
#936=EDGE_LOOP('',(#523,#524,#525,#526));
#937=EDGE_LOOP('',(#527,#528,#529,#530));
#938=EDGE_LOOP('',(#531,#532,#533,#534));
#939=EDGE_LOOP('',(#535,#536,#537,#538));
#940=EDGE_LOOP('',(#539,#540,#541,#542));
#941=EDGE_LOOP('',(#543,#544,#545,#546));
#942=EDGE_LOOP('',(#547,#548,#549,#550));
#943=EDGE_LOOP('',(#551));
#944=EDGE_LOOP('',(#552));
#945=EDGE_LOOP('',(#553));
#946=EDGE_LOOP('',(#554,#555));
#947=EDGE_LOOP('',(#556,#557));
#948=EDGE_LOOP('',(#558,#559));
#949=EDGE_LOOP('',(#560,#561));
#950=EDGE_LOOP('',(#562,#563));
#951=EDGE_LOOP('',(#564,#565));
#952=EDGE_LOOP('',(#566,#567));
#953=EDGE_LOOP('',(#568));
#954=EDGE_LOOP('',(#569,#570));
#955=EDGE_LOOP('',(#571,#572));
#956=EDGE_LOOP('',(#573,#574));
#957=EDGE_LOOP('',(#575,#576));
#958=EDGE_LOOP('',(#577,#578));
#959=EDGE_LOOP('',(#579,#580,#581,#582));
#960=EDGE_LOOP('',(#583,#584,#585,#586));
#961=EDGE_LOOP('',(#587,#588,#589,#590));
#962=EDGE_LOOP('',(#591,#592,#593,#594));
#963=FACE_BOUND('',#880,.T.);
#964=FACE_BOUND('',#881,.T.);
#965=FACE_BOUND('',#882,.T.);
#966=FACE_BOUND('',#883,.T.);
#967=FACE_BOUND('',#884,.T.);
#968=FACE_BOUND('',#885,.T.);
#969=FACE_BOUND('',#886,.T.);
#970=FACE_BOUND('',#887,.T.);
#971=FACE_BOUND('',#888,.T.);
#972=FACE_BOUND('',#889,.T.);
#973=FACE_BOUND('',#890,.T.);
#974=FACE_BOUND('',#891,.T.);
#975=FACE_BOUND('',#892,.T.);
#976=FACE_BOUND('',#893,.T.);
#977=FACE_BOUND('',#894,.T.);
#978=FACE_BOUND('',#895,.T.);
#979=FACE_BOUND('',#896,.T.);
#980=FACE_BOUND('',#897,.T.);
#981=FACE_BOUND('',#898,.T.);
#982=FACE_BOUND('',#899,.T.);
#983=FACE_BOUND('',#900,.T.);
#984=FACE_BOUND('',#901,.T.);
#985=FACE_BOUND('',#902,.T.);
#986=FACE_BOUND('',#903,.T.);
#987=FACE_BOUND('',#904,.T.);
#988=FACE_BOUND('',#905,.T.);
#989=FACE_BOUND('',#906,.T.);
#990=FACE_BOUND('',#907,.T.);
#991=FACE_BOUND('',#908,.T.);
#992=FACE_BOUND('',#909,.T.);
#993=FACE_BOUND('',#910,.T.);
#994=FACE_BOUND('',#911,.T.);
#995=FACE_BOUND('',#912,.T.);
#996=FACE_BOUND('',#913,.T.);
#997=FACE_BOUND('',#914,.T.);
#998=FACE_BOUND('',#915,.T.);
#999=FACE_BOUND('',#916,.T.);
#1000=FACE_BOUND('',#917,.T.);
#1001=FACE_BOUND('',#918,.T.);
#1002=FACE_BOUND('',#919,.T.);
#1003=FACE_BOUND('',#920,.T.);
#1004=FACE_BOUND('',#921,.T.);
#1005=FACE_BOUND('',#922,.T.);
#1006=FACE_BOUND('',#923,.T.);
#1007=FACE_BOUND('',#924,.T.);
#1008=FACE_BOUND('',#925,.T.);
#1009=FACE_BOUND('',#926,.T.);
#1010=FACE_BOUND('',#927,.T.);
#1011=FACE_BOUND('',#928,.T.);
#1012=FACE_BOUND('',#929,.T.);
#1013=FACE_BOUND('',#930,.T.);
#1014=FACE_BOUND('',#931,.T.);
#1015=FACE_BOUND('',#932,.T.);
#1016=FACE_BOUND('',#933,.T.);
#1017=FACE_BOUND('',#934,.T.);
#1018=FACE_BOUND('',#935,.T.);
#1019=FACE_BOUND('',#936,.T.);
#1020=FACE_BOUND('',#937,.T.);
#1021=FACE_BOUND('',#938,.T.);
#1022=FACE_BOUND('',#939,.T.);
#1023=FACE_BOUND('',#940,.T.);
#1024=FACE_BOUND('',#941,.T.);
#1025=FACE_BOUND('',#942,.T.);
#1026=FACE_BOUND('',#943,.T.);
#1027=FACE_BOUND('',#944,.T.);
#1028=FACE_BOUND('',#945,.T.);
#1029=FACE_BOUND('',#946,.T.);
#1030=FACE_BOUND('',#947,.T.);
#1031=FACE_BOUND('',#948,.T.);
#1032=FACE_BOUND('',#949,.T.);
#1033=FACE_BOUND('',#950,.T.);
#1034=FACE_BOUND('',#951,.T.);
#1035=FACE_BOUND('',#952,.T.);
#1036=FACE_BOUND('',#953,.T.);
#1037=FACE_BOUND('',#954,.T.);
#1038=FACE_BOUND('',#955,.T.);
#1039=FACE_BOUND('',#956,.T.);
#1040=FACE_BOUND('',#957,.T.);
#1041=FACE_BOUND('',#958,.T.);
#1042=FACE_BOUND('',#959,.T.);
#1043=FACE_BOUND('',#960,.T.);
#1044=FACE_BOUND('',#961,.T.);
#1045=FACE_BOUND('',#962,.T.);
#1046=PLANE('',#1173);
#1047=PLANE('',#1188);
#1048=PLANE('',#1189);
#1049=PLANE('',#1204);
#1050=PLANE('',#1211);
#1051=PLANE('',#1212);
#1052=PLANE('',#1213);
#1053=PLANE('',#1216);
#1054=PLANE('',#1217);
#1055=PLANE('',#1218);
#1056=PLANE('',#1219);
#1057=PLANE('',#1220);
#1058=PLANE('',#1225);
#1059=PLANE('',#1226);
#1060=PLANE('',#1227);
#1061=PLANE('',#1228);
#1062=PLANE('',#1229);
#1063=PLANE('',#1230);
#1064=PLANE('',#1231);
#1065=PLANE('',#1232);
#1066=PLANE('',#1233);
#1067=PLANE('',#1236);
#1068=PLANE('',#1237);
#1069=PLANE('',#1238);
#1070=PLANE('',#1239);
#1071=PLANE('',#1240);
#1072=PLANE('',#1245);
#1073=PLANE('',#1246);
#1074=PLANE('',#1247);
#1075=PLANE('',#1248);
#1076=PLANE('',#1249);
#1077=PLANE('',#1250);
#1078=PLANE('',#1251);
#1079=PLANE('',#1252);
#1080=PLANE('',#1253);
#1081=PLANE('',#1256);
#1082=PLANE('',#1257);
#1083=PLANE('',#1259);
#1084=PLANE('',#1261);
#1085=PLANE('',#1263);
#1086=PLANE('',#1265);
#1087=PLANE('',#1268);
#1088=PLANE('',#1269);
#1089=PLANE('',#1275);
#1090=PLANE('',#1276);
#1091=PLANE('',#1277);
#1092=PLANE('',#1278);
#1093=ADVANCED_FACE('',(#963,#964,#965,#966,#967,#968,#969,#970,#971),#1046,
 .F.);
#1094=ADVANCED_FACE('',(#972),#1047,.F.);
#1095=ADVANCED_FACE('',(#973),#1048,.F.);
#1096=ADVANCED_FACE('',(#974,#975),#18,.T.);
#1097=ADVANCED_FACE('',(#976,#977),#19,.T.);
#1098=ADVANCED_FACE('',(#978,#979),#20,.T.);
#1099=ADVANCED_FACE('',(#980,#981),#21,.T.);
#1100=ADVANCED_FACE('',(#982,#983),#22,.T.);
#1101=ADVANCED_FACE('',(#984,#985),#23,.T.);
#1102=ADVANCED_FACE('',(#986,#987),#24,.T.);
#1103=ADVANCED_FACE('',(#988),#1049,.T.);
#1104=ADVANCED_FACE('',(#989),#1050,.F.);
#1105=ADVANCED_FACE('',(#990),#1051,.F.);
#1106=ADVANCED_FACE('',(#991),#1052,.F.);
#1107=ADVANCED_FACE('',(#992),#25,.F.);
#1108=ADVANCED_FACE('',(#993),#1053,.F.);
#1109=ADVANCED_FACE('',(#994),#1054,.T.);
#1110=ADVANCED_FACE('',(#995),#1055,.F.);
#1111=ADVANCED_FACE('',(#996),#1056,.T.);
#1112=ADVANCED_FACE('',(#997),#1057,.F.);
#1113=ADVANCED_FACE('',(#998),#26,.F.);
#1114=ADVANCED_FACE('',(#999),#27,.F.);
#1115=ADVANCED_FACE('',(#1000),#1058,.T.);
#1116=ADVANCED_FACE('',(#1001),#1059,.F.);
#1117=ADVANCED_FACE('',(#1002),#1060,.T.);
#1118=ADVANCED_FACE('',(#1003),#1061,.T.);
#1119=ADVANCED_FACE('',(#1004),#1062,.F.);
#1120=ADVANCED_FACE('',(#1005),#1063,.F.);
#1121=ADVANCED_FACE('',(#1006),#1064,.F.);
#1122=ADVANCED_FACE('',(#1007),#1065,.T.);
#1123=ADVANCED_FACE('',(#1008),#1066,.F.);
#1124=ADVANCED_FACE('',(#1009),#28,.F.);
#1125=ADVANCED_FACE('',(#1010),#1067,.T.);
#1126=ADVANCED_FACE('',(#1011),#1068,.F.);
#1127=ADVANCED_FACE('',(#1012),#1069,.F.);
#1128=ADVANCED_FACE('',(#1013),#1070,.T.);
#1129=ADVANCED_FACE('',(#1014),#1071,.F.);
#1130=ADVANCED_FACE('',(#1015),#29,.F.);
#1131=ADVANCED_FACE('',(#1016),#30,.F.);
#1132=ADVANCED_FACE('',(#1017),#1072,.T.);
#1133=ADVANCED_FACE('',(#1018),#1073,.T.);
#1134=ADVANCED_FACE('',(#1019),#1074,.F.);
#1135=ADVANCED_FACE('',(#1020),#1075,.F.);
#1136=ADVANCED_FACE('',(#1021),#1076,.F.);
#1137=ADVANCED_FACE('',(#1022),#1077,.T.);
#1138=ADVANCED_FACE('',(#1023),#1078,.F.);
#1139=ADVANCED_FACE('',(#1024),#1079,.T.);
#1140=ADVANCED_FACE('',(#1025),#1080,.F.);
#1141=ADVANCED_FACE('',(#1026,#1027),#31,.T.);
#1142=ADVANCED_FACE('',(#1028),#1081,.F.);
#1143=ADVANCED_FACE('',(#1029),#1082,.F.);
#1144=ADVANCED_FACE('',(#1030),#1083,.F.);
#1145=ADVANCED_FACE('',(#1031),#1084,.T.);
#1146=ADVANCED_FACE('',(#1032),#1085,.F.);
#1147=ADVANCED_FACE('',(#1033),#1086,.F.);
#1148=ADVANCED_FACE('',(#1034),#32,.F.);
#1149=ADVANCED_FACE('',(#1035),#1087,.T.);
#1150=ADVANCED_FACE('',(#1036),#1088,.T.);
#1151=ADVANCED_FACE('',(#1037),#33,.F.);
#1152=ADVANCED_FACE('',(#1038),#34,.F.);
#1153=ADVANCED_FACE('',(#1039),#35,.F.);
#1154=ADVANCED_FACE('',(#1040),#36,.F.);
#1155=ADVANCED_FACE('',(#1041),#37,.F.);
#1156=ADVANCED_FACE('',(#1042),#1089,.T.);
#1157=ADVANCED_FACE('',(#1043),#1090,.T.);
#1158=ADVANCED_FACE('',(#1044),#1091,.T.);
#1159=ADVANCED_FACE('',(#1045),#1092,.T.);
#1160=CLOSED_SHELL('',(#1093,#1094,#1095,#1096,#1097,#1098,#1099,#1100,
#1101,#1102,#1103,#1104,#1105,#1106,#1107,#1108,#1109,#1110,#1111,#1112,
#1113,#1114,#1115,#1116,#1117,#1118,#1119,#1120,#1121,#1122,#1123,#1124,
#1125,#1126,#1127,#1128,#1129,#1130,#1131,#1132,#1133,#1134,#1135,#1136,
#1137,#1138,#1139,#1140,#1141,#1142,#1143,#1144,#1145,#1146,#1147,#1148,
#1149,#1150,#1151,#1152,#1153,#1154,#1155,#1156,#1157,#1158,#1159));
#1161=STYLED_ITEM('',(#1162),#1169);
#1162=PRESENTATION_STYLE_ASSIGNMENT((#1163));
#1163=SURFACE_STYLE_USAGE(.BOTH.,#1164);
#1164=SURFACE_SIDE_STYLE('',(#1165));
#1165=SURFACE_STYLE_FILL_AREA(#1166);
#1166=FILL_AREA_STYLE('',(#1167));
#1167=FILL_AREA_STYLE_COLOUR('',#1168);
#1168=DRAUGHTING_PRE_DEFINED_COLOUR('red');
#1169=MANIFOLD_SOLID_BREP('palm_bone_flex',#1160);
#1170=SHAPE_DEFINITION_REPRESENTATION(#1982,#1171);
#1171=SHAPE_REPRESENTATION('palm_bone_flex',(#1172),#1977);
#1172=AXIS2_PLACEMENT_3D('',#1605,#1279,#1280);
#1173=AXIS2_PLACEMENT_3D('',#1606,#1281,#1282);
#1174=AXIS2_PLACEMENT_3D('',#1607,#1283,#1284);
#1175=AXIS2_PLACEMENT_3D('',#1609,#1285,#1286);
#1176=AXIS2_PLACEMENT_3D('',#1611,#1287,#1288);
#1177=AXIS2_PLACEMENT_3D('',#1613,#1289,#1290);
#1178=AXIS2_PLACEMENT_3D('',#1615,#1291,#1292);
#1179=AXIS2_PLACEMENT_3D('',#1617,#1293,#1294);
#1180=AXIS2_PLACEMENT_3D('',#1619,#1295,#1296);
#1181=AXIS2_PLACEMENT_3D('',#1621,#1297,#1298);
#1182=AXIS2_PLACEMENT_3D('',#1638,#1306,#1307);
#1183=AXIS2_PLACEMENT_3D('',#1650,#1313,#1314);
#1184=AXIS2_PLACEMENT_3D('',#1662,#1320,#1321);
#1185=AXIS2_PLACEMENT_3D('',#1674,#1327,#1328);
#1186=AXIS2_PLACEMENT_3D('',#1686,#1334,#1335);
#1187=AXIS2_PLACEMENT_3D('',#1698,#1341,#1342);
#1188=AXIS2_PLACEMENT_3D('',#1709,#1348,#1349);
#1189=AXIS2_PLACEMENT_3D('',#1715,#1353,#1354);
#1190=AXIS2_PLACEMENT_3D('',#1721,#1358,#1359);
#1191=AXIS2_PLACEMENT_3D('',#1722,#1360,#1361);
#1192=AXIS2_PLACEMENT_3D('',#1734,#1362,#1363);
#1193=AXIS2_PLACEMENT_3D('',#1735,#1364,#1365);
#1194=AXIS2_PLACEMENT_3D('',#1743,#1366,#1367);
#1195=AXIS2_PLACEMENT_3D('',#1744,#1368,#1369);
#1196=AXIS2_PLACEMENT_3D('',#1754,#1370,#1371);
#1197=AXIS2_PLACEMENT_3D('',#1755,#1372,#1373);
#1198=AXIS2_PLACEMENT_3D('',#1770,#1374,#1375);
#1199=AXIS2_PLACEMENT_3D('',#1771,#1376,#1377);
#1200=AXIS2_PLACEMENT_3D('',#1781,#1378,#1379);
#1201=AXIS2_PLACEMENT_3D('',#1782,#1380,#1381);
#1202=AXIS2_PLACEMENT_3D('',#1784,#1382,#1383);
#1203=AXIS2_PLACEMENT_3D('',#1785,#1384,#1385);
#1204=AXIS2_PLACEMENT_3D('',#1792,#1386,#1387);
#1205=AXIS2_PLACEMENT_3D('',#1805,#1394,#1395);
#1206=AXIS2_PLACEMENT_3D('',#1817,#1401,#1402);
#1207=AXIS2_PLACEMENT_3D('',#1829,#1408,#1409);
#1208=AXIS2_PLACEMENT_3D('',#1841,#1415,#1416);
#1209=AXIS2_PLACEMENT_3D('',#1853,#1422,#1423);
#1210=AXIS2_PLACEMENT_3D('',#1865,#1429,#1430);
#1211=AXIS2_PLACEMENT_3D('',#1873,#1435,#1436);
#1212=AXIS2_PLACEMENT_3D('',#1876,#1439,#1440);
#1213=AXIS2_PLACEMENT_3D('',#1879,#1443,#1444);
#1214=AXIS2_PLACEMENT_3D('',#1882,#1447,#1448);
#1215=AXIS2_PLACEMENT_3D('',#1884,#1450,#1451);
#1216=AXIS2_PLACEMENT_3D('',#1885,#1452,#1453);
#1217=AXIS2_PLACEMENT_3D('',#1887,#1455,#1456);
#1218=AXIS2_PLACEMENT_3D('',#1888,#1457,#1458);
#1219=AXIS2_PLACEMENT_3D('',#1890,#1460,#1461);
#1220=AXIS2_PLACEMENT_3D('',#1892,#1463,#1464);
#1221=AXIS2_PLACEMENT_3D('',#1893,#1465,#1466);
#1222=AXIS2_PLACEMENT_3D('',#1894,#1467,#1468);
#1223=AXIS2_PLACEMENT_3D('',#1896,#1470,#1471);
#1224=AXIS2_PLACEMENT_3D('',#1898,#1473,#1474);
#1225=AXIS2_PLACEMENT_3D('',#1899,#1475,#1476);
#1226=AXIS2_PLACEMENT_3D('',#1901,#1478,#1479);
#1227=AXIS2_PLACEMENT_3D('',#1903,#1481,#1482);
#1228=AXIS2_PLACEMENT_3D('',#1904,#1483,#1484);
#1229=AXIS2_PLACEMENT_3D('',#1905,#1485,#1486);
#1230=AXIS2_PLACEMENT_3D('',#1907,#1488,#1489);
#1231=AXIS2_PLACEMENT_3D('',#1909,#1491,#1492);
#1232=AXIS2_PLACEMENT_3D('',#1911,#1494,#1495);
#1233=AXIS2_PLACEMENT_3D('',#1913,#1497,#1498);
#1234=AXIS2_PLACEMENT_3D('',#1914,#1499,#1500);
#1235=AXIS2_PLACEMENT_3D('',#1915,#1501,#1502);
#1236=AXIS2_PLACEMENT_3D('',#1917,#1504,#1505);
#1237=AXIS2_PLACEMENT_3D('',#1919,#1507,#1508);
#1238=AXIS2_PLACEMENT_3D('',#1921,#1510,#1511);
#1239=AXIS2_PLACEMENT_3D('',#1923,#1513,#1514);
#1240=AXIS2_PLACEMENT_3D('',#1924,#1515,#1516);
#1241=AXIS2_PLACEMENT_3D('',#1925,#1517,#1518);
#1242=AXIS2_PLACEMENT_3D('',#1926,#1519,#1520);
#1243=AXIS2_PLACEMENT_3D('',#1928,#1522,#1523);
#1244=AXIS2_PLACEMENT_3D('',#1930,#1525,#1526);
#1245=AXIS2_PLACEMENT_3D('',#1931,#1527,#1528);
#1246=AXIS2_PLACEMENT_3D('',#1933,#1530,#1531);
#1247=AXIS2_PLACEMENT_3D('',#1935,#1533,#1534);
#1248=AXIS2_PLACEMENT_3D('',#1937,#1536,#1537);
#1249=AXIS2_PLACEMENT_3D('',#1939,#1539,#1540);
#1250=AXIS2_PLACEMENT_3D('',#1941,#1542,#1543);
#1251=AXIS2_PLACEMENT_3D('',#1943,#1545,#1546);
#1252=AXIS2_PLACEMENT_3D('',#1944,#1547,#1548);
#1253=AXIS2_PLACEMENT_3D('',#1945,#1549,#1550);
#1254=AXIS2_PLACEMENT_3D('',#1946,#1551,#1552);
#1255=AXIS2_PLACEMENT_3D('',#1947,#1553,#1554);
#1256=AXIS2_PLACEMENT_3D('',#1949,#1555,#1556);
#1257=AXIS2_PLACEMENT_3D('',#1950,#1557,#1558);
#1258=AXIS2_PLACEMENT_3D('',#1951,#1559,#1560);
#1259=AXIS2_PLACEMENT_3D('',#1952,#1561,#1562);
#1260=AXIS2_PLACEMENT_3D('',#1953,#1563,#1564);
#1261=AXIS2_PLACEMENT_3D('',#1954,#1565,#1566);
#1262=AXIS2_PLACEMENT_3D('',#1955,#1567,#1568);
#1263=AXIS2_PLACEMENT_3D('',#1956,#1569,#1570);
#1264=AXIS2_PLACEMENT_3D('',#1957,#1571,#1572);
#1265=AXIS2_PLACEMENT_3D('',#1958,#1573,#1574);
#1266=AXIS2_PLACEMENT_3D('',#1959,#1575,#1576);
#1267=AXIS2_PLACEMENT_3D('',#1960,#1577,#1578);
#1268=AXIS2_PLACEMENT_3D('',#1962,#1580,#1581);
#1269=AXIS2_PLACEMENT_3D('',#1963,#1582,#1583);
#1270=AXIS2_PLACEMENT_3D('',#1964,#1584,#1585);
#1271=AXIS2_PLACEMENT_3D('',#1965,#1586,#1587);
#1272=AXIS2_PLACEMENT_3D('',#1966,#1588,#1589);
#1273=AXIS2_PLACEMENT_3D('',#1967,#1590,#1591);
#1274=AXIS2_PLACEMENT_3D('',#1968,#1592,#1593);
#1275=AXIS2_PLACEMENT_3D('',#1969,#1594,#1595);
#1276=AXIS2_PLACEMENT_3D('',#1971,#1597,#1598);
#1277=AXIS2_PLACEMENT_3D('',#1973,#1600,#1601);
#1278=AXIS2_PLACEMENT_3D('',#1975,#1603,#1604);
#1279=DIRECTION('',(0.,0.,1.));
#1280=DIRECTION('',(1.,0.,0.));
#1281=DIRECTION('',(0.,1.,0.));
#1282=DIRECTION('',(-1.,0.,0.));
#1283=DIRECTION('',(0.,1.,0.));
#1284=DIRECTION('',(-1.,0.,0.));
#1285=DIRECTION('',(0.,1.,0.));
#1286=DIRECTION('',(-1.,0.,0.));
#1287=DIRECTION('',(0.,1.,0.));
#1288=DIRECTION('',(-1.,0.,0.));
#1289=DIRECTION('',(0.,1.,0.));
#1290=DIRECTION('',(-1.,0.,0.));
#1291=DIRECTION('',(0.,1.,0.));
#1292=DIRECTION('',(-1.,0.,0.));
#1293=DIRECTION('',(0.,1.,0.));
#1294=DIRECTION('',(-1.,0.,0.));
#1295=DIRECTION('',(0.,1.,0.));
#1296=DIRECTION('',(-1.,0.,0.));
#1297=DIRECTION('',(0.,1.,0.));
#1298=DIRECTION('',(-1.,0.,0.));
#1299=DIRECTION('',(0.0348994967025083,-1.4698856351416E-15,0.999390827019096));
#1300=DIRECTION('',(-0.0523359562429365,-9.49874036847544E-16,0.998629534754574));
#1301=DIRECTION('',(-0.139173100960059,1.50042787202302E-16,0.990268068741571));
#1302=DIRECTION('',(-1.,0.,0.));
#1303=DIRECTION('',(0.139173100960057,0.,-0.990268068741571));
#1304=DIRECTION('',(0.990268068741572,0.,0.139173100960057));
#1305=DIRECTION('',(-0.139173100960058,0.,0.990268068741571));
#1306=DIRECTION('',(0.,1.,0.));
#1307=DIRECTION('',(0.990268068741571,0.,0.139173100960057));
#1308=DIRECTION('',(-0.139173100960057,0.,0.990268068741571));
#1309=DIRECTION('',(-0.990268068741572,0.,-0.139173100960057));
#1310=DIRECTION('',(0.,0.,-1.));
#1311=DIRECTION('',(-0.998629534754574,0.,-0.0523359562429362));
#1312=DIRECTION('',(-0.0523359562429369,0.,0.998629534754574));
#1313=DIRECTION('',(0.,1.,0.));
#1314=DIRECTION('',(0.998629534754574,0.,0.0523359562429369));
#1315=DIRECTION('',(-0.0523359562429347,0.,0.998629534754574));
#1316=DIRECTION('',(0.998629534754574,0.,0.0523359562429363));
#1317=DIRECTION('',(0.0523359562429369,0.,-0.998629534754574));
#1318=DIRECTION('',(0.998629534754574,0.,0.0523359562429363));
#1319=DIRECTION('',(-0.0523359562429347,0.,0.998629534754574));
#1320=DIRECTION('',(0.,1.,0.));
#1321=DIRECTION('',(0.998629534754574,0.,0.0523359562429369));
#1322=DIRECTION('',(-0.0523359562429369,0.,0.998629534754574));
#1323=DIRECTION('',(-0.998629534754574,0.,-0.0523359562429362));
#1324=DIRECTION('',(0.,0.,-1.));
#1325=DIRECTION('',(-0.999390827019095,0.,0.0348994967025102));
#1326=DIRECTION('',(0.0348994967025098,0.,0.999390827019095));
#1327=DIRECTION('',(0.,1.,0.));
#1328=DIRECTION('',(0.999390827019095,0.,-0.0348994967025098));
#1329=DIRECTION('',(0.034899496702511,0.,0.999390827019095));
#1330=DIRECTION('',(0.999390827019095,0.,-0.0348994967025101));
#1331=DIRECTION('',(-0.0348994967025098,0.,-0.999390827019095));
#1332=DIRECTION('',(0.999390827019095,0.,-0.0348994967025101));
#1333=DIRECTION('',(0.034899496702511,0.,0.999390827019095));
#1334=DIRECTION('',(0.,1.,0.));
#1335=DIRECTION('',(0.999390827019095,0.,-0.0348994967025098));
#1336=DIRECTION('',(0.0348994967025098,0.,0.999390827019095));
#1337=DIRECTION('',(-0.999390827019095,0.,0.0348994967025103));
#1338=DIRECTION('',(0.,0.,-1.));
#1339=DIRECTION('',(-0.992546151641321,0.,0.121869343405155));
#1340=DIRECTION('',(0.121869343405153,0.,0.992546151641322));
#1341=DIRECTION('',(0.,1.,0.));
#1342=DIRECTION('',(0.992546151641322,0.,-0.121869343405153));
#1343=DIRECTION('',(0.121869343405162,0.,0.99254615164132));
#1344=DIRECTION('',(0.992546151641321,0.,-0.121869343405155));
#1345=DIRECTION('',(-0.121869343405153,0.,-0.992546151641322));
#1346=DIRECTION('',(1.,0.,0.));
#1347=DIRECTION('',(0.121869343405155,-1.52622104339607E-15,0.992546151641321));
#1348=DIRECTION('',(0.,0.,-1.));
#1349=DIRECTION('',(0.,1.,0.));
#1350=DIRECTION('',(-1.62177957481305E-16,-1.,0.));
#1351=DIRECTION('',(-1.,0.,0.));
#1352=DIRECTION('',(-0.517975364967761,-0.855395534993324,0.));
#1353=DIRECTION('',(0.,0.,1.));
#1354=DIRECTION('',(0.,-1.,0.));
#1355=DIRECTION('',(-1.51277202223961E-16,1.,0.));
#1356=DIRECTION('',(0.517104676179902,0.855922165779622,0.));
#1357=DIRECTION('',(1.,0.,0.));
#1358=DIRECTION('',(0.,1.,0.));
#1359=DIRECTION('',(-1.,0.,0.));
#1360=DIRECTION('',(0.,1.,0.));
#1361=DIRECTION('',(-1.,0.,0.));
#1362=DIRECTION('',(0.,1.,0.));
#1363=DIRECTION('',(-1.,0.,0.));
#1364=DIRECTION('',(0.,1.,0.));
#1365=DIRECTION('',(-1.,0.,0.));
#1366=DIRECTION('',(0.,1.,0.));
#1367=DIRECTION('',(-1.,0.,0.));
#1368=DIRECTION('',(0.,1.,0.));
#1369=DIRECTION('',(1.,0.,0.));
#1370=DIRECTION('',(0.,1.,0.));
#1371=DIRECTION('',(-1.,0.,0.));
#1372=DIRECTION('',(0.,1.,0.));
#1373=DIRECTION('',(-1.,0.,0.));
#1374=DIRECTION('',(0.,1.,0.));
#1375=DIRECTION('',(-1.,0.,0.));
#1376=DIRECTION('',(0.,1.,0.));
#1377=DIRECTION('',(-1.,0.,0.));
#1378=DIRECTION('',(0.,1.,0.));
#1379=DIRECTION('',(-1.,0.,0.));
#1380=DIRECTION('',(-0.510439159372657,-0.85762685841793,0.0626740480512269));
#1381=DIRECTION('',(-0.851234237866951,0.514272468366908,0.104518422122025));
#1382=DIRECTION('',(0.,1.,0.));
#1383=DIRECTION('',(-1.,0.,0.));
#1384=DIRECTION('',(-0.509267604056659,-0.85762685841793,-0.0715728941610057));
#1385=DIRECTION('',(-0.849280492786424,0.514272468366908,-0.119358589352656));
#1386=DIRECTION('',(0.,1.,0.));
#1387=DIRECTION('',(-1.,0.,0.));
#1388=DIRECTION('',(-0.0523359562429365,-9.49874036847544E-16,0.998629534754574));
#1389=DIRECTION('',(0.0348994967025083,-1.4698856351416E-15,0.999390827019096));
#1390=DIRECTION('',(0.121869343405155,-1.52622104339607E-15,0.992546151641321));
#1391=DIRECTION('',(-0.121869343405153,0.,-0.992546151641322));
#1392=DIRECTION('',(0.992546151641321,0.,-0.121869343405155));
#1393=DIRECTION('',(0.121869343405162,0.,0.99254615164132));
#1394=DIRECTION('',(0.,1.,0.));
#1395=DIRECTION('',(0.992546151641322,0.,-0.121869343405153));
#1396=DIRECTION('',(0.121869343405153,0.,0.992546151641322));
#1397=DIRECTION('',(-0.992546151641321,0.,0.121869343405155));
#1398=DIRECTION('',(0.,0.,-1.));
#1399=DIRECTION('',(-0.999390827019095,0.,0.0348994967025103));
#1400=DIRECTION('',(0.0348994967025098,0.,0.999390827019095));
#1401=DIRECTION('',(0.,1.,0.));
#1402=DIRECTION('',(0.999390827019095,0.,-0.0348994967025098));
#1403=DIRECTION('',(0.034899496702511,0.,0.999390827019095));
#1404=DIRECTION('',(0.999390827019095,0.,-0.0348994967025101));
#1405=DIRECTION('',(-0.0348994967025098,0.,-0.999390827019095));
#1406=DIRECTION('',(0.999390827019095,0.,-0.0348994967025101));
#1407=DIRECTION('',(0.034899496702511,0.,0.999390827019095));
#1408=DIRECTION('',(0.,1.,0.));
#1409=DIRECTION('',(0.999390827019095,0.,-0.0348994967025098));
#1410=DIRECTION('',(0.0348994967025098,0.,0.999390827019095));
#1411=DIRECTION('',(-0.999390827019095,0.,0.0348994967025102));
#1412=DIRECTION('',(0.,0.,-1.));
#1413=DIRECTION('',(-0.998629534754574,0.,-0.0523359562429362));
#1414=DIRECTION('',(-0.0523359562429369,0.,0.998629534754574));
#1415=DIRECTION('',(0.,1.,0.));
#1416=DIRECTION('',(0.998629534754574,0.,0.0523359562429369));
#1417=DIRECTION('',(-0.0523359562429347,0.,0.998629534754574));
#1418=DIRECTION('',(0.998629534754574,0.,0.0523359562429363));
#1419=DIRECTION('',(0.0523359562429369,0.,-0.998629534754574));
#1420=DIRECTION('',(0.998629534754574,0.,0.0523359562429363));
#1421=DIRECTION('',(-0.0523359562429347,0.,0.998629534754574));
#1422=DIRECTION('',(0.,1.,0.));
#1423=DIRECTION('',(0.998629534754574,0.,0.0523359562429369));
#1424=DIRECTION('',(-0.0523359562429369,0.,0.998629534754574));
#1425=DIRECTION('',(-0.998629534754574,0.,-0.0523359562429362));
#1426=DIRECTION('',(0.,0.,-1.));
#1427=DIRECTION('',(-0.990268068741572,0.,-0.139173100960057));
#1428=DIRECTION('',(-0.139173100960057,0.,0.990268068741571));
#1429=DIRECTION('',(0.,1.,0.));
#1430=DIRECTION('',(0.990268068741571,0.,0.139173100960057));
#1431=DIRECTION('',(-0.139173100960058,0.,0.990268068741571));
#1432=DIRECTION('',(0.990268068741572,0.,0.139173100960057));
#1433=DIRECTION('',(0.139173100960057,0.,-0.990268068741571));
#1434=DIRECTION('',(-0.139173100960059,1.50042787202302E-16,0.990268068741571));
#1435=DIRECTION('',(1.,0.,0.));
#1436=DIRECTION('',(0.,1.,0.));
#1437=DIRECTION('',(0.,1.,-4.2680541366642E-15));
#1438=DIRECTION('',(0.,1.,-7.21825923514292E-16));
#1439=DIRECTION('',(1.,0.,0.));
#1440=DIRECTION('',(0.,1.,0.));
#1441=DIRECTION('',(0.,1.,-6.53912954003349E-16));
#1442=DIRECTION('',(0.,1.,-1.19000209864468E-15));
#1443=DIRECTION('',(1.,0.,0.));
#1444=DIRECTION('',(0.,1.,0.));
#1445=DIRECTION('',(0.,1.,-1.12203735656288E-15));
#1446=DIRECTION('',(0.,1.,-6.86718191605788E-17));
#1447=DIRECTION('',(0.849280492786424,-0.514272468366908,0.119358589352655));
#1448=DIRECTION('',(0.139173100960057,1.35611286557475E-16,-0.990268068741571));
#1449=DIRECTION('',(0.849280492786424,-0.514272468366908,0.119358589352655));
#1450=DIRECTION('',(-0.849280492786424,0.514272468366908,-0.119358589352655));
#1451=DIRECTION('',(-0.139173100960057,-1.35611286557475E-16,0.990268068741571));
#1452=DIRECTION('',(0.139173100960057,-6.80035097371168E-17,-0.990268068741571));
#1453=DIRECTION('',(0.509267604056659,0.85762685841793,0.0715728941610055));
#1454=DIRECTION('',(-0.509267604056659,-0.85762685841793,-0.0715728941610055));
#1455=DIRECTION('',(-0.849280492786424,0.514272468366908,-0.119358589352655));
#1456=DIRECTION('',(-0.139173100960057,-1.35611286557475E-16,0.990268068741571));
#1457=DIRECTION('',(-0.509267604056659,-0.85762685841793,-0.0715728941610057));
#1458=DIRECTION('',(-0.849280492786424,0.514272468366908,-0.119358589352655));
#1459=DIRECTION('',(-0.849280492786424,0.514272468366908,-0.119358589352655));
#1460=DIRECTION('',(-0.139173100960057,-1.35611286557475E-16,0.990268068741571));
#1461=DIRECTION('',(0.849280492786424,-0.514272468366908,0.119358589352655));
#1462=DIRECTION('',(0.509267604056659,0.85762685841793,0.0715728941610058));
#1463=DIRECTION('',(0.849280492786424,-0.514272468366908,0.119358589352655));
#1464=DIRECTION('',(0.139173100960057,1.35611286557475E-16,-0.990268068741571));
#1465=DIRECTION('',(0.856451510614924,-0.514272468366908,0.0448847217349282));
#1466=DIRECTION('',(0.0523359562429363,-9.84756445831913E-16,-0.998629534754574));
#1467=DIRECTION('',(-0.856451510614924,0.514272468366908,-0.0448847217349282));
#1468=DIRECTION('',(-0.0523359562429363,9.84756445831913E-16,0.998629534754574));
#1469=DIRECTION('',(0.856451510614924,-0.514272468366908,0.0448847217349282));
#1470=DIRECTION('',(0.856451510614924,-0.514272468366908,0.0448847217349282));
#1471=DIRECTION('',(0.0523359562429363,-9.84756445831913E-16,-0.998629534754574));
#1472=DIRECTION('',(0.856451510614924,-0.514272468366908,0.0448847217349282));
#1473=DIRECTION('',(-0.856451510614924,0.514272468366908,-0.0448847217349282));
#1474=DIRECTION('',(-0.0523359562429363,9.84756445831913E-16,0.998629534754574));
#1475=DIRECTION('',(0.0523359562429362,-1.12049964336164E-15,-0.998629534754574));
#1476=DIRECTION('',(0.513567675822332,0.85762685841793,0.0269149414013964));
#1477=DIRECTION('',(-0.513567675822332,-0.85762685841793,-0.0269149414013964));
#1478=DIRECTION('',(0.0523359562429362,-1.1883712421265E-15,-0.998629534754574));
#1479=DIRECTION('',(0.513567675822332,0.85762685841793,0.0269149414013963));
#1480=DIRECTION('',(-0.513567675822332,-0.85762685841793,-0.0269149414013963));
#1481=DIRECTION('',(-0.856451510614924,0.514272468366908,-0.0448847217349282));
#1482=DIRECTION('',(-0.0523359562429363,9.84756445831913E-16,0.998629534754574));
#1483=DIRECTION('',(-0.856451510614924,0.514272468366908,-0.0448847217349282));
#1484=DIRECTION('',(-0.0523359562429363,9.84756445831913E-16,0.998629534754574));
#1485=DIRECTION('',(-0.513567675822332,-0.85762685841793,-0.0269149414013965));
#1486=DIRECTION('',(-0.856451510614924,0.514272468366908,-0.0448847217349282));
#1487=DIRECTION('',(-0.856451510614924,0.514272468366908,-0.0448847217349282));
#1488=DIRECTION('',(-0.513567675822332,-0.85762685841793,-0.0269149414013965));
#1489=DIRECTION('',(-0.856451510614924,0.514272468366908,-0.0448847217349282));
#1490=DIRECTION('',(-0.856451510614924,0.514272468366908,-0.0448847217349282));
#1491=DIRECTION('',(-0.0523359562429363,9.84756445831913E-16,0.998629534754574));
#1492=DIRECTION('',(0.856451510614924,-0.514272468366908,0.0448847217349282));
#1493=DIRECTION('',(0.513567675822332,0.85762685841793,0.0269149414013965));
#1494=DIRECTION('',(-0.0523359562429363,9.84756445831913E-16,0.998629534754574));
#1495=DIRECTION('',(0.856451510614924,-0.514272468366908,0.0448847217349282));
#1496=DIRECTION('',(0.513567675822332,0.85762685841793,0.0269149414013965));
#1497=DIRECTION('',(0.856451510614924,-0.514272468366908,0.0448847217349282));
#1498=DIRECTION('',(0.0523359562429363,-9.84756445831913E-16,-0.998629534754574));
#1499=DIRECTION('',(0.851234237866953,-0.514272468366908,-0.104518422122017));
#1500=DIRECTION('',(-0.121869343405155,-4.10049751081315E-15,-0.992546151641321));
#1501=DIRECTION('',(-0.851234237866953,0.514272468366908,0.104518422122017));
#1502=DIRECTION('',(0.121869343405155,4.10049751081315E-15,0.992546151641321));
#1503=DIRECTION('',(0.851234237866953,-0.514272468366908,-0.104518422122017));
#1504=DIRECTION('',(-0.851234237866953,0.514272468366908,0.104518422122017));
#1505=DIRECTION('',(0.121869343405155,4.10049751081315E-15,0.992546151641321));
#1506=DIRECTION('',(-0.510439159372658,-0.85762685841793,0.0626740480512271));
#1507=DIRECTION('',(-0.510439159372657,-0.857626858417929,0.0626740480512269));
#1508=DIRECTION('',(-0.851234237866953,0.514272468366908,0.104518422122017));
#1509=DIRECTION('',(-0.851234237866953,0.514272468366908,0.104518422122017));
#1510=DIRECTION('',(0.121869343405155,4.10049751081315E-15,0.992546151641321));
#1511=DIRECTION('',(0.851234237866953,-0.514272468366908,-0.104518422122017));
#1512=DIRECTION('',(0.510439159372658,0.85762685841793,-0.062674048051227));
#1513=DIRECTION('',(-0.121869343405155,-4.23624070834287E-15,-0.992546151641321));
#1514=DIRECTION('',(0.510439159372657,0.857626858417929,-0.0626740480512271));
#1515=DIRECTION('',(0.851234237866953,-0.514272468366908,-0.104518422122017));
#1516=DIRECTION('',(-0.121869343405155,-4.10049751081315E-15,-0.992546151641321));
#1517=DIRECTION('',(0.857104415308083,-0.514272468366908,-0.0299307457173404));
#1518=DIRECTION('',(-0.0348994967025101,-5.17771410370179E-16,-0.999390827019095));
#1519=DIRECTION('',(-0.857104415308083,0.514272468366908,0.0299307457173404));
#1520=DIRECTION('',(0.0348994967025101,5.17771410370179E-16,0.999390827019095));
#1521=DIRECTION('',(0.857104415308083,-0.514272468366908,-0.0299307457173404));
#1522=DIRECTION('',(0.857104415308083,-0.514272468366908,-0.0299307457173404));
#1523=DIRECTION('',(-0.0348994967025101,-5.17771410370179E-16,-0.999390827019095));
#1524=DIRECTION('',(0.857104415308083,-0.514272468366908,-0.0299307457173404));
#1525=DIRECTION('',(-0.857104415308083,0.514272468366908,0.0299307457173404));
#1526=DIRECTION('',(0.0348994967025101,5.17771410370179E-16,0.999390827019095));
#1527=DIRECTION('',(-0.857104415308083,0.514272468366908,0.0299307457173404));
#1528=DIRECTION('',(0.0348994967025101,5.17771410370179E-16,0.999390827019095));
#1529=DIRECTION('',(-0.513959187474356,-0.85762685841793,0.0179478503139633));
#1530=DIRECTION('',(-0.857104415308083,0.514272468366908,0.0299307457173404));
#1531=DIRECTION('',(0.0348994967025101,5.17771410370179E-16,0.999390827019095));
#1532=DIRECTION('',(-0.513959187474356,-0.85762685841793,0.0179478503139633));
#1533=DIRECTION('',(-0.513959187474356,-0.85762685841793,0.0179478503139631));
#1534=DIRECTION('',(-0.857104415308083,0.514272468366908,0.0299307457173404));
#1535=DIRECTION('',(-0.857104415308083,0.514272468366908,0.0299307457173404));
#1536=DIRECTION('',(-0.513959187474356,-0.85762685841793,0.0179478503139631));
#1537=DIRECTION('',(-0.857104415308083,0.514272468366908,0.0299307457173404));
#1538=DIRECTION('',(-0.857104415308083,0.514272468366908,0.0299307457173404));
#1539=DIRECTION('',(0.0348994967025101,5.17771410370179E-16,0.999390827019095));
#1540=DIRECTION('',(0.857104415308083,-0.514272468366908,-0.0299307457173404));
#1541=DIRECTION('',(0.513959187474356,0.85762685841793,-0.0179478503139631));
#1542=DIRECTION('',(0.0348994967025101,5.17771410370179E-16,0.999390827019095));
#1543=DIRECTION('',(0.857104415308083,-0.514272468366908,-0.0299307457173404));
#1544=DIRECTION('',(0.513959187474356,0.85762685841793,-0.0179478503139631));
#1545=DIRECTION('',(0.857104415308083,-0.514272468366908,-0.0299307457173404));
#1546=DIRECTION('',(-0.0348994967025101,-5.17771410370179E-16,-0.999390827019095));
#1547=DIRECTION('',(-0.0348994967025102,-6.53514607899907E-16,-0.999390827019095));
#1548=DIRECTION('',(0.513959187474356,0.85762685841793,-0.0179478503139633));
#1549=DIRECTION('',(-0.0348994967025103,-7.21386206664771E-16,-0.999390827019095));
#1550=DIRECTION('',(0.513959187474356,0.85762685841793,-0.0179478503139633));
#1551=DIRECTION('',(0.,1.,0.));
#1552=DIRECTION('',(-1.,0.,0.));
#1553=DIRECTION('',(0.,1.,0.));
#1554=DIRECTION('',(-1.,0.,0.));
#1555=DIRECTION('',(0.,1.,0.));
#1556=DIRECTION('',(-1.,0.,0.));
#1557=DIRECTION('',(0.,1.,0.));
#1558=DIRECTION('',(-1.,0.,0.));
#1559=DIRECTION('',(0.,1.,0.));
#1560=DIRECTION('',(0.998629534754574,0.,0.0523359562429369));
#1561=DIRECTION('',(0.,1.,0.));
#1562=DIRECTION('',(-1.,0.,0.));
#1563=DIRECTION('',(0.,1.,0.));
#1564=DIRECTION('',(0.998629534754574,0.,0.0523359562429369));
#1565=DIRECTION('',(0.,-1.,0.));
#1566=DIRECTION('',(1.,0.,0.));
#1567=DIRECTION('',(0.,-1.,0.));
#1568=DIRECTION('',(0.999390827019095,0.,-0.0348994967025098));
#1569=DIRECTION('',(0.,1.,0.));
#1570=DIRECTION('',(-1.,0.,0.));
#1571=DIRECTION('',(0.,1.,0.));
#1572=DIRECTION('',(0.999390827019095,0.,-0.0348994967025098));
#1573=DIRECTION('',(0.,1.,0.));
#1574=DIRECTION('',(-1.,0.,0.));
#1575=DIRECTION('',(0.,1.,0.));
#1576=DIRECTION('',(0.992546151641322,0.,-0.121869343405153));
#1577=DIRECTION('',(0.849280492786424,-0.514272468366908,0.119358589352655));
#1578=DIRECTION('',(0.139173100960057,1.35611286557475E-16,-0.990268068741571));
#1579=DIRECTION('',(0.849280492786424,-0.514272468366908,0.119358589352655));
#1580=DIRECTION('',(-0.509267604056659,-0.85762685841793,-0.0715728941610057));
#1581=DIRECTION('',(-0.849280492786424,0.514272468366908,-0.119358589352655));
#1582=DIRECTION('',(-0.510439159372657,-0.85762685841793,0.0626740480512269));
#1583=DIRECTION('',(-0.851234237866953,0.514272468366908,0.104518422122017));
#1584=DIRECTION('',(0.851234237866953,-0.514272468366908,-0.104518422122017));
#1585=DIRECTION('',(-0.121869343405155,-4.10049751081315E-15,-0.992546151641321));
#1586=DIRECTION('',(0.857104415308083,-0.514272468366908,-0.0299307457173404));
#1587=DIRECTION('',(-0.0348994967025101,-5.17771410370179E-16,-0.999390827019095));
#1588=DIRECTION('',(0.857104415308083,-0.514272468366908,-0.0299307457173404));
#1589=DIRECTION('',(-0.0348994967025101,-5.17771410370179E-16,-0.999390827019095));
#1590=DIRECTION('',(0.856451510614924,-0.514272468366908,0.0448847217349282));
#1591=DIRECTION('',(0.0523359562429363,-9.84756445831913E-16,-0.998629534754574));
#1592=DIRECTION('',(0.856451510614924,-0.514272468366908,0.0448847217349282));
#1593=DIRECTION('',(0.0523359562429363,-9.84756445831913E-16,-0.998629534754574));
#1594=DIRECTION('',(0.992546151641321,1.50149604898459E-16,-0.121869343405155));
#1595=DIRECTION('',(-0.121869343405155,1.52622104339607E-15,-0.992546151641321));
#1596=DIRECTION('',(-3.69691439366826E-17,-1.,-1.5331434569385E-15));
#1597=DIRECTION('',(0.999390827019096,-1.98988913296545E-15,-0.0348994967025083));
#1598=DIRECTION('',(-0.0348994967025083,1.4698856351416E-15,-0.999390827019096));
#1599=DIRECTION('',(-2.03997521514735E-15,-1.,-1.39954409129336E-15));
#1600=DIRECTION('',(0.990268068741571,-1.60599652747464E-16,0.139173100960059));
#1601=DIRECTION('',(0.139173100960059,-1.50042787202302E-16,-0.990268068741571));
#1602=DIRECTION('',(-1.79918627938057E-16,-1.,1.26231429425168E-16));
#1603=DIRECTION('',(0.998629534754574,-1.54996657301443E-15,0.0523359562429365));
#1604=DIRECTION('',(0.0523359562429365,9.49874036847544E-16,-0.998629534754574));
#1605=CARTESIAN_POINT('',(0.,0.,0.));
#1606=CARTESIAN_POINT('',(0.,-0.0006,0.));
#1607=CARTESIAN_POINT('',(-0.00280182175249911,-0.0006,0.0187215781374828));
#1608=CARTESIAN_POINT('',(-0.00380182175249911,-0.0006,0.0187215781374828));
#1609=CARTESIAN_POINT('',(-0.00179679161934916,-0.0006,0.0226400183718499));
#1610=CARTESIAN_POINT('',(-0.00279679161934916,-0.0006,0.0226400183718499));
#1611=CARTESIAN_POINT('',(-0.0022050975487165,-0.0006,0.0147343084984778));
#1612=CARTESIAN_POINT('',(-0.0032050975487165,-0.0006,0.0147343084984778));
#1613=CARTESIAN_POINT('',(-0.00234705690011554,-0.0006,0.00176136323942757));
#1614=CARTESIAN_POINT('',(-0.00334705690011554,-0.0006,0.00176136323942757));
#1615=CARTESIAN_POINT('',(-0.00234705690011554,-0.0006,-0.00176136323942757));
#1616=CARTESIAN_POINT('',(-0.00334705690011554,-0.0006,-0.00176136323942757));
#1617=CARTESIAN_POINT('',(-0.00271638407685869,-0.0006,-0.0143404994570863));
#1618=CARTESIAN_POINT('',(-0.00371638407685869,-0.0006,-0.0143404994570863));
#1619=CARTESIAN_POINT('',(-0.00359762319543283,-0.0006,-0.0189927904232776));
#1620=CARTESIAN_POINT('',(-0.00459762319543283,-0.0006,-0.0189927904232776));
#1621=CARTESIAN_POINT('',(-0.00299467241008586,-0.0006,-0.0228612245011602));
#1622=CARTESIAN_POINT('',(-0.00399467240914757,-0.0006,-0.0228612245011602));
#1623=CARTESIAN_POINT('',(0.00969747043634712,-0.000600000000000867,0.00186517468347911));
#1624=CARTESIAN_POINT('',(0.00906927949570198,-0.000600000000000841,-0.0161238602028646));
#1625=CARTESIAN_POINT('',(0.00969747043634712,-0.000600000000000868,0.00186517468347911));
#1626=CARTESIAN_POINT('',(0.00875542322397427,-0.000600000000000885,0.0198405063090614));
#1627=CARTESIAN_POINT('',(0.00875542322397427,-0.000600000000000885,0.0198405063090614));
#1628=CARTESIAN_POINT('',(0.00666782670957308,-0.000599999999967227,0.034694527340185));
#1629=CARTESIAN_POINT('',(0.00803030367400777,-0.000599999999967229,0.025));
#1630=CARTESIAN_POINT('',(-0.011,-0.0006,0.025));
#1631=CARTESIAN_POINT('',(-0.00410475712981211,-0.0006,0.025));
#1632=CARTESIAN_POINT('',(-0.000579784517202814,-0.0006,-8.14833999952018E-5));
#1633=CARTESIAN_POINT('',(-0.0035672913211252,-0.0006,0.0211757320580522));
#1634=CARTESIAN_POINT('',(-0.00298750680392238,-0.0006,0.0212572154580474));
#1635=CARTESIAN_POINT('',(-0.00426796705200022,-0.0006,0.0210772585059793));
#1636=CARTESIAN_POINT('',(-0.00128046024807782,-0.0006,-0.000179956952068079));
#1637=CARTESIAN_POINT('',(-0.00430276032724023,-0.0006,0.0213248255231647));
#1638=CARTESIAN_POINT('',(-0.0144206413867632,-0.0006,0.0241570296374417));
#1639=CARTESIAN_POINT('',(-0.00689142257837268,-0.0006,0.0196938096533269));
#1640=CARTESIAN_POINT('',(-0.00404376675734042,-0.0006,-0.000568314355418371));
#1641=CARTESIAN_POINT('',(-0.00674774708333093,-0.0006,0.0186715053860583));
#1642=CARTESIAN_POINT('',(-0.00270398032599051,-0.0006,0.0192398197414766));
#1643=CARTESIAN_POINT('',(-0.011,-0.0006,0.0180738902117839));
#1644=CARTESIAN_POINT('',(-0.011,-0.0006,-0.025));
#1645=CARTESIAN_POINT('',(-0.011,-0.0006,0.0147124037145223));
#1646=CARTESIAN_POINT('',(-0.00079906205110054,-0.0006,0.0152470122190281));
#1647=CARTESIAN_POINT('',(-0.00651801618165589,-0.0006,0.0149472945332242));
#1648=CARTESIAN_POINT('',(-0.00571895413055534,-0.0006,-0.000299717685803942));
#1649=CARTESIAN_POINT('',(-0.00646008305595766,-0.0006,0.0138418646430287));
#1650=CARTESIAN_POINT('',(-0.0130247621847524,-0.0006,0.0084595911200424));
#1651=CARTESIAN_POINT('',(-0.00360267784260802,-0.0006,0.0125882288661077));
#1652=CARTESIAN_POINT('',(-0.00293489581020216,-0.0006,-0.00015381137183977));
#1653=CARTESIAN_POINT('',(-0.00361576183166876,-0.0006,0.0128378862497963));
#1654=CARTESIAN_POINT('',(-0.000680866021466617,-0.0006,0.0129916976216361));
#1655=CARTESIAN_POINT('',(-0.00290658929660046,-0.0006,0.0128750524074878));
#1656=CARTESIAN_POINT('',(-0.00222572327513384,-0.0006,-0.000116645214148326));
#1657=CARTESIAN_POINT('',(-0.00245103784706689,-0.0006,0.00418261293064389));
#1658=CARTESIAN_POINT('',(-0.000225314571933055,-0.0006,0.00429925814479221));
#1659=CARTESIAN_POINT('',(-0.00316021038213521,-0.0006,0.00414544677295244));
#1660=CARTESIAN_POINT('',(-0.00293489581020216,-0.0006,-0.00015381137183977));
#1661=CARTESIAN_POINT('',(-0.00317329437119594,-0.0006,0.00439510415664108));
#1662=CARTESIAN_POINT('',(-0.0130058309854228,-0.0006,0.00809836231797266));
#1663=CARTESIAN_POINT('',(-0.0058917225526015,-0.0006,0.00299690019058235));
#1664=CARTESIAN_POINT('',(-0.00571895413055534,-0.0006,-0.000299717685803942));
#1665=CARTESIAN_POINT('',(-0.00583764875049772,-0.0006,0.00196511058141469));
#1666=CARTESIAN_POINT('',(-0.000118694619942369,-0.0006,0.00226482826721863));
#1667=CARTESIAN_POINT('',(-0.011,-0.0006,0.00169456321654929));
#1668=CARTESIAN_POINT('',(-0.011,-0.0006,-0.025));
#1669=CARTESIAN_POINT('',(-0.011,-0.0006,-0.00158824592347109));
#1670=CARTESIAN_POINT('',(-6.87929411009011E-5,-0.0006,-0.00196997208544158));
#1671=CARTESIAN_POINT('',(-0.00567685552356827,-0.0006,-0.00177413422470388));
#1672=CARTESIAN_POINT('',(-0.00560806258246737,-0.0006,0.000195837860737688));
#1673=CARTESIAN_POINT('',(-0.00571883293510235,-0.0006,-0.0029762100135547));
#1674=CARTESIAN_POINT('',(-0.012983385444612,-0.0006,-0.00766100159539143));
#1675=CARTESIAN_POINT('',(-0.00323732048870022,-0.0006,-0.00436926332149044));
#1676=CARTESIAN_POINT('',(-0.00308098531261515,-0.0006,0.000107590377909325));
#1677=CARTESIAN_POINT('',(-0.00322859561452459,-0.0006,-0.00411941561473567));
#1678=CARTESIAN_POINT('',(-0.000147610301909431,-0.0006,-0.00422700599264499));
#1679=CARTESIAN_POINT('',(-0.00225977900975161,-0.0006,-0.00415324743607073));
#1680=CARTESIAN_POINT('',(-0.00211216870784218,-0.0006,7.3758556574258E-5));
#1681=CARTESIAN_POINT('',(-0.00256355708991167,-0.0006,-0.0128523134813299));
#1682=CARTESIAN_POINT('',(-0.000451388382069494,-0.0006,-0.0129260720379041));
#1683=CARTESIAN_POINT('',(-0.00353237369468466,-0.0006,-0.0128184816599948));
#1684=CARTESIAN_POINT('',(-0.00308098531261515,-0.0006,0.000107590377909325));
#1685=CARTESIAN_POINT('',(-0.00352364882050903,-0.0006,-0.01256863395324));
#1686=CARTESIAN_POINT('',(-0.0129960094487576,-0.0006,-0.00802250577555));
#1687=CARTESIAN_POINT('',(-0.00609141615789125,-0.0006,-0.0136455975502998));
#1688=CARTESIAN_POINT('',(-0.00560806258246737,-0.0006,0.000195837860737688));
#1689=CARTESIAN_POINT('',(-0.0061305489807009,-0.0006,-0.0147662149759521));
#1690=CARTESIAN_POINT('',(-0.000522486398233535,-0.0006,-0.0149620528366898));
#1691=CARTESIAN_POINT('',(-0.011,-0.0006,-0.0145961699993558));
#1692=CARTESIAN_POINT('',(-0.011,-0.0006,-0.025));
#1693=CARTESIAN_POINT('',(-0.011,-0.0006,-0.0179504645651341));
#1694=CARTESIAN_POINT('',(-0.00233467871272812,-0.0006,-0.0190144322344744));
#1695=CARTESIAN_POINT('',(-0.00780489097418259,-0.0006,-0.018342774623906));
#1696=CARTESIAN_POINT('',(-0.00547021226145451,-0.0006,0.000671657610568406));
#1697=CARTESIAN_POINT('',(-0.00793979386258596,-0.0006,-0.0194414704811974));
#1698=CARTESIAN_POINT('',(-0.0153393626188239,-0.0006,-0.0236020306757884));
#1699=CARTESIAN_POINT('',(-0.00534349048829408,-0.0006,-0.021172243989922));
#1700=CARTESIAN_POINT('',(-0.00270311353617052,-0.0006,0.000331900608609435));
#1701=CARTESIAN_POINT('',(-0.00531302315244279,-0.0006,-0.0209241074520116));
#1702=CARTESIAN_POINT('',(-0.00260990961627212,-0.0006,-0.0212560080606211));
#1703=CARTESIAN_POINT('',(-0.00460817084716204,-0.0006,-0.021010652432817));
#1704=CARTESIAN_POINT('',(-0.00199826123088997,-0.0006,0.000245355627804133));
#1705=CARTESIAN_POINT('',(-0.0050980011364877,-0.0006,-0.025));
#1706=CARTESIAN_POINT('',(-0.011,-0.0006,-0.025));
#1707=CARTESIAN_POINT('',(0.00797942656819814,-0.0006,-0.025));
#1708=CARTESIAN_POINT('',(0.00906927949570227,-0.000599999999999958,-0.0161238602028646));
#1709=CARTESIAN_POINT('',(-0.011,-0.0006,0.025));
#1710=CARTESIAN_POINT('',(0.00803030367400777,-0.0006,0.025));
#1711=CARTESIAN_POINT('',(0.00803030367400777,0.,0.025));
#1712=CARTESIAN_POINT('',(-0.011,0.,0.025));
#1713=CARTESIAN_POINT('',(-0.00374143372412811,0.,0.025));
#1714=CARTESIAN_POINT('',(-0.00595474030224353,-0.00365510155991514,0.025));
#1715=CARTESIAN_POINT('',(-0.011,-0.0006,-0.025));
#1716=CARTESIAN_POINT('',(0.00797942656819814,-0.0006,-0.025));
#1717=CARTESIAN_POINT('',(0.00797942656819814,5.5154194259579E-17,-0.025));
#1718=CARTESIAN_POINT('',(-0.00667617937923629,-0.00321223269048471,-0.025));
#1719=CARTESIAN_POINT('',(-0.0047355116273799,0.,-0.025));
#1720=CARTESIAN_POINT('',(-0.011,0.,-0.025));
#1721=CARTESIAN_POINT('',(-0.0022050975487165,-0.0036,0.0147343084984778));
#1722=CARTESIAN_POINT('',(-0.0022050975487165,-0.0036,0.0147343084984778));
#1723=CARTESIAN_POINT('',(-0.00318233508197385,-0.0036,0.0145221604285053));
#1724=CARTESIAN_POINT('',(-0.00143596061919531,-0.0036,0.0140952244792388));
#1725=CARTESIAN_POINT('',(-0.0014359606191953,-0.0036,0.0140952244792388));
#1726=CARTESIAN_POINT('',(-0.00152552754859579,-0.00337223262136048,0.0139874307760763));
#1727=CARTESIAN_POINT('',(-0.00170652047754201,-0.0030455650578976,0.0138339122892285));
#1728=CARTESIAN_POINT('',(-0.00209188484439243,-0.00268506025954506,0.0137217791768983));
#1729=CARTESIAN_POINT('',(-0.00247598740325125,-0.00250812795862411,0.0137413635043448));
#1730=CARTESIAN_POINT('',(-0.00284836627243637,-0.00260862599383394,0.0139396693438212));
#1731=CARTESIAN_POINT('',(-0.0031005333701012,-0.00299575999560111,0.0142388299076698));
#1732=CARTESIAN_POINT('',(-0.00315975475945364,-0.00335373798627943,0.0144181465730756));
#1733=CARTESIAN_POINT('',(-0.00318233508197386,-0.0036,0.0145221604285053));
#1734=CARTESIAN_POINT('',(-0.00234705690011554,-0.0036,0.00176136323942757));
#1735=CARTESIAN_POINT('',(-0.00234705690011554,-0.0036,0.00176136323942757));
#1736=CARTESIAN_POINT('',(-0.00235190935147409,-0.0036,0.00276135146621615));
#1737=CARTESIAN_POINT('',(-0.00286606593902375,-0.0036,0.00261613199033715));
#1738=CARTESIAN_POINT('',(-0.00286606593902391,-0.0036,0.00261613199033709));
#1739=CARTESIAN_POINT('',(-0.00280034618656003,-0.00353809172240217,0.00265603652068788));
#1740=CARTESIAN_POINT('',(-0.00262340517834135,-0.00345659824982136,0.00273839748848365));
#1741=CARTESIAN_POINT('',(-0.00243206657517767,-0.00354250258840353,0.0027609625026078));
#1742=CARTESIAN_POINT('',(-0.00235190935147391,-0.0036,0.0027613514662162));
#1743=CARTESIAN_POINT('',(-0.00234705690011554,-0.0036,-0.00176136323942757));
#1744=CARTESIAN_POINT('',(-0.00234705690011554,-0.0036,-0.00176136323942757));
#1745=CARTESIAN_POINT('',(-0.00316087547061773,-0.0036,-0.00234248227568924));
#1746=CARTESIAN_POINT('',(-0.00196806912959493,-0.0036,-0.00268676491967012));
#1747=CARTESIAN_POINT('',(-0.00196806912959487,-0.0036,-0.00268676491967014));
#1748=CARTESIAN_POINT('',(-0.00204680834394566,-0.00348066701075068,-0.00271901167255212));
#1749=CARTESIAN_POINT('',(-0.00221923494395264,-0.00326150199301915,-0.00277289155479481));
#1750=CARTESIAN_POINT('',(-0.00264079087739221,-0.00301173148436497,-0.00275406115087545));
#1751=CARTESIAN_POINT('',(-0.0030230177833389,-0.00321911517554682,-0.00252630463555609));
#1752=CARTESIAN_POINT('',(-0.00311986773889096,-0.0034706509455793,-0.00239991087728549));
#1753=CARTESIAN_POINT('',(-0.0031608754706178,-0.0036,-0.00234248227568922));
#1754=CARTESIAN_POINT('',(-0.00271638407685869,-0.0036,-0.0143404994570863));
#1755=CARTESIAN_POINT('',(-0.00271638407685869,-0.0036,-0.0143404994570863));
#1756=CARTESIAN_POINT('',(-0.0017706610445528,-0.0036,-0.0140155256948129));
#1757=CARTESIAN_POINT('',(-0.00371282064604339,-0.0036,-0.0144248449583973));
#1758=CARTESIAN_POINT('',(-0.0037128206460434,-0.0036,-0.0144248449583973));
#1759=CARTESIAN_POINT('',(-0.00371792071907592,-0.003411856062551,-0.0143645939764703));
#1760=CARTESIAN_POINT('',(-0.00371877123848839,-0.00304196899699695,-0.0142308491614632));
#1761=CARTESIAN_POINT('',(-0.00366385273234661,-0.00250743928069737,-0.0139805303077198));
#1762=CARTESIAN_POINT('',(-0.00352459217719586,-0.00209983229749588,-0.0137184895483118));
#1763=CARTESIAN_POINT('',(-0.0032707039457455,-0.00187829301586318,-0.0134909815305514));
#1764=CARTESIAN_POINT('',(-0.00289008604553692,-0.00183904121291481,-0.0133185037473935));
#1765=CARTESIAN_POINT('',(-0.0024389321063363,-0.00212727741049459,-0.0133452410458359));
#1766=CARTESIAN_POINT('',(-0.00209799960032561,-0.00257726000225881,-0.0135302902045929));
#1767=CARTESIAN_POINT('',(-0.00187830064428749,-0.00307665116956387,-0.0137684192595332));
#1768=CARTESIAN_POINT('',(-0.00179872384676073,-0.00342218048761894,-0.0139338586758713));
#1769=CARTESIAN_POINT('',(-0.00177066104455276,-0.0036,-0.0140155256948129));
#1770=CARTESIAN_POINT('',(-0.00359762319543283,-0.0036,-0.0189927904232776));
#1771=CARTESIAN_POINT('',(-0.00359762319543283,-0.0036,-0.0189927904232776));
#1772=CARTESIAN_POINT('',(-0.00452499119333562,-0.0036,-0.0193669409230311));
#1773=CARTESIAN_POINT('',(-0.00323259645696296,-0.0036,-0.0199237874588272));
#1774=CARTESIAN_POINT('',(-0.00323259645696298,-0.0036,-0.0199237874588272));
#1775=CARTESIAN_POINT('',(-0.00332623815037939,-0.00346223307327686,-0.0199605026368862));
#1776=CARTESIAN_POINT('',(-0.00353430761642603,-0.0032072328322949,-0.0200177056761931));
#1777=CARTESIAN_POINT('',(-0.00402114992852599,-0.00291859967765411,-0.0199505102983975));
#1778=CARTESIAN_POINT('',(-0.00441734066008046,-0.00315827979761821,-0.0196137653868636));
#1779=CARTESIAN_POINT('',(-0.00449402709118292,-0.00345022386138695,-0.0194436884282172));
#1780=CARTESIAN_POINT('',(-0.00452499119333562,-0.0036,-0.0193669409230311));
#1781=CARTESIAN_POINT('',(-0.00299467241008586,-0.0036,-0.0228612245011602));
#1782=CARTESIAN_POINT('',(-0.00299467241008586,-0.00212138888640426,-0.0228612245011602));
#1783=CARTESIAN_POINT('',(-0.00398721856079589,-0.00152174294150807,-0.0227393551578694));
#1784=CARTESIAN_POINT('',(-0.00179679161934916,-0.0036,0.0226400183718499));
#1785=CARTESIAN_POINT('',(-0.00179679161934916,-0.00219782873299065,0.0226400183718499));
#1786=CARTESIAN_POINT('',(-0.00196212412588488,-0.00201734652491897,0.0216537804886378));
#1787=CARTESIAN_POINT('',(-0.00136601981138779,-0.00237831094106232,0.0217375574865669));
#1788=CARTESIAN_POINT('',(-0.00136601981138778,-0.00237831094106232,0.0217375574865669));
#1789=CARTESIAN_POINT('',(-0.00157673907567806,-0.00231452934841266,0.021636974824281));
#1790=CARTESIAN_POINT('',(-0.0017833914177133,-0.00217510792247648,0.0216238178121427));
#1791=CARTESIAN_POINT('',(-0.00196212412588489,-0.00201734652491896,0.0216537804886378));
#1792=CARTESIAN_POINT('',(0.,0.,0.));
#1793=CARTESIAN_POINT('',(0.00875542322397427,-8.84708972748172E-16,0.0198405063090614));
#1794=CARTESIAN_POINT('',(0.00969747043634712,-8.67578578422901E-16,0.00186517468347911));
#1795=CARTESIAN_POINT('',(0.00875542322397396,3.27702275038089E-14,0.0198405063090615));
#1796=CARTESIAN_POINT('',(0.00969747043634712,-8.67361737988404E-16,0.00186517468347911));
#1797=CARTESIAN_POINT('',(0.00906927949570227,4.15249432061948E-17,-0.0161238602028646));
#1798=CARTESIAN_POINT('',(0.00906927949570227,4.15249432061948E-17,-0.0161238602028646));
#1799=CARTESIAN_POINT('',(-0.00164115546558247,0.,0.000201508553214955));
#1800=CARTESIAN_POINT('',(-0.00425106508185455,-1.30104260698261E-18,-0.0210544995074061));
#1801=CARTESIAN_POINT('',(-0.00260990961627212,0.,-0.0212560080606211));
#1802=CARTESIAN_POINT('',(-0.00630615534235381,-1.62630325872826E-19,-0.0208021661521549));
#1803=CARTESIAN_POINT('',(-0.00369624572608154,0.,0.000453841908466213));
#1804=CARTESIAN_POINT('',(-0.0063366226782051,1.0842021724855E-19,-0.0210503026900652));
#1805=CARTESIAN_POINT('',(-0.0163324948087349,0.,-0.0234800893759316));
#1806=CARTESIAN_POINT('',(-0.00765213495277295,3.03576608295941E-18,-0.0200509168052671));
#1807=CARTESIAN_POINT('',(-0.00511310649614702,0.,0.000627810535979228));
#1808=CARTESIAN_POINT('',(-0.0074477852088751,-4.33680868994202E-19,-0.0183866216984952));
#1809=CARTESIAN_POINT('',(-0.00233467871272812,0.,-0.0190144322344744));
#1810=CARTESIAN_POINT('',(-0.011,0.,-0.0179504645651341));
#1811=CARTESIAN_POINT('',(-0.011,0.,-0.025));
#1812=CARTESIAN_POINT('',(-0.011,0.,-0.0145961699993558));
#1813=CARTESIAN_POINT('',(-0.000522486398233535,0.,-0.0149620528366898));
#1814=CARTESIAN_POINT('',(-0.00577098058629045,0.,-0.0147787713809699));
#1815=CARTESIAN_POINT('',(-0.00524849418805692,0.,0.00018328145571996));
#1816=CARTESIAN_POINT('',(-0.0057127183054228,-4.33680868994202E-19,-0.0131103579492041));
#1817=CARTESIAN_POINT('',(-0.0139959903554119,0.,-0.00798758567281257));
#1818=CARTESIAN_POINT('',(-0.00452362972716326,1.0842021724855E-18,-0.0125337138505026));
#1819=CARTESIAN_POINT('',(-0.00408096621926939,0.,0.000142510480646756));
#1820=CARTESIAN_POINT('',(-0.00453235460133889,-1.0842021724855E-19,-0.0127835615572574));
#1821=CARTESIAN_POINT('',(-0.000451388382069494,0.,-0.0129260720379041));
#1822=CARTESIAN_POINT('',(-0.00220398869550122,0.,-0.0128648698863476));
#1823=CARTESIAN_POINT('',(-0.00175260031343173,0.,6.12021515565297E-5));
#1824=CARTESIAN_POINT('',(-0.00190021061534116,4.33680868994202E-19,-0.00416580384108846));
#1825=CARTESIAN_POINT('',(-0.000147610301909431,0.,-0.00422700599264499));
#1826=CARTESIAN_POINT('',(-0.00422857652117882,0.,-0.00408449551199824));
#1827=CARTESIAN_POINT('',(-0.00408096621926939,0.,0.000142510480646756));
#1828=CARTESIAN_POINT('',(-0.00423730139535445,7.58941520739853E-19,-0.00433434321875301));
#1829=CARTESIAN_POINT('',(-0.0139833663512662,0.,-0.007626081492654));
#1830=CARTESIAN_POINT('',(-0.00538033891257843,-4.33680868994202E-19,-0.00359225746969324));
#1831=CARTESIAN_POINT('',(-0.00524849418805692,0.,0.00018328145571996));
#1832=CARTESIAN_POINT('',(-0.00531728712915782,6.50521303491303E-19,-0.00178669062972161));
#1833=CARTESIAN_POINT('',(-6.87929411009011E-5,0.,-0.00196997208544158));
#1834=CARTESIAN_POINT('',(-0.011,0.,-0.00158824592347109));
#1835=CARTESIAN_POINT('',(-0.011,0.,-0.025));
#1836=CARTESIAN_POINT('',(-0.011,0.,0.00169456321654929));
#1837=CARTESIAN_POINT('',(-0.000118694619942369,0.,0.00226482826721863));
#1838=CARTESIAN_POINT('',(-0.0054783542595791,-8.67361737988404E-19,0.00198394040779237));
#1839=CARTESIAN_POINT('',(-0.00535965963963673,0.,-0.000280887859426269));
#1840=CARTESIAN_POINT('',(-0.00555961303963047,-8.67361737988404E-19,0.00353445029703086));
#1841=CARTESIAN_POINT('',(-0.0140050501503156,0.,0.00804599546052358));
#1842=CARTESIAN_POINT('',(-0.00417251353608877,-2.16840434497101E-19,0.004342737299192));
#1843=CARTESIAN_POINT('',(-0.00393411497509499,0.,-0.000206178229288849));
#1844=CARTESIAN_POINT('',(-0.00415942954702804,3.25260651745651E-19,0.00409307991550335));
#1845=CARTESIAN_POINT('',(-0.000225314571933055,0.,0.00429925814479221));
#1846=CARTESIAN_POINT('',(-0.00209174335614828,0.,0.00420144275702156));
#1847=CARTESIAN_POINT('',(-0.00186642878421522,0.,-9.78153877706534E-5));
#1848=CARTESIAN_POINT('',(-0.00254729480568185,-4.33680868994202E-19,0.0128938822338654));
#1849=CARTESIAN_POINT('',(-0.000680866021466617,0.,0.0129916976216361));
#1850=CARTESIAN_POINT('',(-0.00461498099656158,2.16840434497101E-19,0.0127855193923472));
#1851=CARTESIAN_POINT('',(-0.00393411497509499,0.,-0.000206178229288849));
#1852=CARTESIAN_POINT('',(-0.00460189700750085,1.0842021724855E-19,0.0125358620086586));
#1853=CARTESIAN_POINT('',(-0.0140239813496452,0.,0.00840722426259332));
#1854=CARTESIAN_POINT('',(-0.00607096508684918,-8.67361737988404E-19,0.0132916286055619));
#1855=CARTESIAN_POINT('',(-0.00535965963963673,0.,-0.000280887859426269));
#1856=CARTESIAN_POINT('',(-0.00615872169073728,-6.50521303491303E-19,0.0149661243596018));
#1857=CARTESIAN_POINT('',(-0.00079906205110054,0.,0.0152470122190281));
#1858=CARTESIAN_POINT('',(-0.011,0.,0.0147124037145223));
#1859=CARTESIAN_POINT('',(-0.011,0.,-0.025));
#1860=CARTESIAN_POINT('',(-0.011,0.,0.0180738902117839));
#1861=CARTESIAN_POINT('',(-0.00270398032599051,0.,0.0192398197414766));
#1862=CARTESIAN_POINT('',(-0.00639146094392799,-2.16840434497101E-19,0.0187215781374828));
#1863=CARTESIAN_POINT('',(-0.00368748061793748,0.,-0.000518241603993792));
#1864=CARTESIAN_POINT('',(-0.00660738878841908,-4.33680868994202E-19,0.0202579845843945));
#1865=CARTESIAN_POINT('',(-0.0154114941487048,0.,0.0240177743632113));
#1866=CARTESIAN_POINT('',(-0.00529361308918179,6.50521303491303E-19,0.0211855702489343));
#1867=CARTESIAN_POINT('',(-0.00227131301001939,0.,-0.000319212226298507));
#1868=CARTESIAN_POINT('',(-0.00525881981394178,1.0842021724855E-19,0.0209380032317489));
#1869=CARTESIAN_POINT('',(-0.00298750680392238,0.,0.0212572154580474));
#1870=CARTESIAN_POINT('',(-0.00321100518172226,0.,0.0212258048094768));
#1871=CARTESIAN_POINT('',(-0.000223498377799875,0.,-3.1410648570623E-5));
#1872=CARTESIAN_POINT('',(0.00666782670957308,3.27725043283711E-14,0.034694527340185));
#1873=CARTESIAN_POINT('',(-0.011,-0.0006,-0.025));
#1874=CARTESIAN_POINT('',(-0.011,-0.00059999999999997,-0.0179504645651341));
#1875=CARTESIAN_POINT('',(-0.011,-0.000599999999999992,-0.0145961699993558));
#1876=CARTESIAN_POINT('',(-0.011,-0.0006,-0.025));
#1877=CARTESIAN_POINT('',(-0.011,-0.000599999999999985,-0.00158824592347109));
#1878=CARTESIAN_POINT('',(-0.011,-0.000599999999999968,0.00169456321654929));
#1879=CARTESIAN_POINT('',(-0.011,-0.0006,-0.025));
#1880=CARTESIAN_POINT('',(-0.011,-0.000599999999999955,0.0147124037145223));
#1881=CARTESIAN_POINT('',(-0.011,-0.0006,0.0180738902117839));
#1882=CARTESIAN_POINT('',(-0.0107163388919721,-0.00284309966348534,0.0246776354020498));
#1883=CARTESIAN_POINT('',(-0.00760915884882319,0.00140215328568341,0.0208601415150827));
#1884=CARTESIAN_POINT('',(-0.0094424181527925,-0.0036145083660357,0.0248566732860788));
#1885=CARTESIAN_POINT('',(-0.00853779299655213,-0.0036145083660357,0.0184199308392586));
#1886=CARTESIAN_POINT('',(-0.00853779299655213,-0.0036145083660357,0.0184199308392586));
#1887=CARTESIAN_POINT('',(-0.0094424181527925,-0.0036145083660357,0.0248566732860788));
#1888=CARTESIAN_POINT('',(-0.00437370203435277,-0.000912072821967674,0.0255690348802337));
#1889=CARTESIAN_POINT('',(-0.00375260335604427,-0.000912072821967674,0.0211496881499843));
#1890=CARTESIAN_POINT('',(-0.00627347799612473,-0.00515732577113642,0.0207954023238873));
#1891=CARTESIAN_POINT('',(-0.00627347799612473,-0.00515732577113642,0.0207954023238873));
#1892=CARTESIAN_POINT('',(-0.00689457667443323,-0.00515732577113642,0.0252147490541367));
#1893=CARTESIAN_POINT('',(-0.00928728384023651,-0.00284423938761226,0.00865546406019691));
#1894=CARTESIAN_POINT('',(-0.00800260657431412,-0.00361564809016262,0.0087227911427993));
#1895=CARTESIAN_POINT('',(-0.00693509634247085,0.00140101356155649,0.0124135842128882));
#1896=CARTESIAN_POINT('',(-0.00926835264090697,-0.00284423938761226,0.00829423525812717));
#1897=CARTESIAN_POINT('',(-0.00650571287105876,0.00140101356155648,0.00422045950342157));
#1898=CARTESIAN_POINT('',(-0.00798367537498458,-0.00361564809016262,0.00836156234072956));
#1899=CARTESIAN_POINT('',(-0.00832385909056367,-0.00361564809016261,0.0148526543166343));
#1900=CARTESIAN_POINT('',(-0.00832385909056367,-0.00361564809016261,0.0148526543166343));
#1901=CARTESIAN_POINT('',(-0.00764349165940549,-0.00361564809016263,0.00187047036482483));
#1902=CARTESIAN_POINT('',(-0.00764349165940549,-0.00361564809016263,0.00187047036482483));
#1903=CARTESIAN_POINT('',(-0.00798367537498458,-0.00361564809016262,0.00836156234072956));
#1904=CARTESIAN_POINT('',(-0.00798367537498458,-0.00361564809016262,0.00836156234072956));
#1905=CARTESIAN_POINT('',(-0.00287216084781926,-0.000913212546094598,0.00862944546587126));
#1906=CARTESIAN_POINT('',(-0.00309414853376443,-0.000913212546094595,0.012865222844384));
#1907=CARTESIAN_POINT('',(-0.00287216084781926,-0.000913212546094598,0.00862944546587126));
#1908=CARTESIAN_POINT('',(-0.00263859708423086,-0.000913212546094604,0.0041727833675401));
#1909=CARTESIAN_POINT('',(-0.00563630852908497,-0.00515846549526334,0.0127319938844471));
#1910=CARTESIAN_POINT('',(-0.00563630852908497,-0.00515846549526334,0.0127319938844471));
#1911=CARTESIAN_POINT('',(-0.0051807570795514,-0.00515846549526335,0.00403955440760319));
#1912=CARTESIAN_POINT('',(-0.0051807570795514,-0.00515846549526335,0.00403955440760319));
#1913=CARTESIAN_POINT('',(-0.0054143208431398,-0.00515846549526335,0.00849621650593434));
#1914=CARTESIAN_POINT('',(-0.0116246520930496,-0.0028442393249425,-0.024058139776577));
#1915=CARTESIAN_POINT('',(-0.0103478007362492,-0.00361564802749287,-0.0242149174097601));
#1916=CARTESIAN_POINT('',(-0.00865560889274342,0.00140101362422626,-0.0207655669859732));
#1917=CARTESIAN_POINT('',(-0.0103918838675759,-0.00361564802749287,-0.0245739457029143));
#1918=CARTESIAN_POINT('',(-0.00959973313544235,-0.00361564802749284,-0.0181223957172457));
#1919=CARTESIAN_POINT('',(-0.00531150731508035,-0.000913212483424847,-0.0251977375071339));
#1920=CARTESIAN_POINT('',(-0.00479458748649085,-0.00091321248342483,-0.020987763347612));
#1921=CARTESIAN_POINT('',(-0.0073212613253855,-0.00515846543259358,-0.0206775268097584));
#1922=CARTESIAN_POINT('',(-0.0073212613253855,-0.00515846543259358,-0.0206775268097584));
#1923=CARTESIAN_POINT('',(-0.00959973313544235,-0.00361564802749284,-0.0181223957172457));
#1924=CARTESIAN_POINT('',(-0.007838181153975,-0.00515846543259359,-0.0248875009692803));
#1925=CARTESIAN_POINT('',(-0.00905248112697751,-0.00295858762390972,-0.00779827179896169));
#1926=CARTESIAN_POINT('',(-0.00776682450401539,-0.00372999632646008,-0.0078431679175377));
#1927=CARTESIAN_POINT('',(-0.00638170265954292,0.00128666532525903,-0.00425945907650846));
#1928=CARTESIAN_POINT('',(-0.00906510513112314,-0.00295858762390972,-0.00815977597912027));
#1929=CARTESIAN_POINT('',(-0.00666803099135173,0.00128666532525903,-0.012458829708258));
#1930=CARTESIAN_POINT('',(-0.00777944850816101,-0.00372999632646008,-0.00820467209769628));
#1931=CARTESIAN_POINT('',(-0.00777944850816101,-0.00372999632646008,-0.00820467209769628));
#1932=CARTESIAN_POINT('',(-0.00800629523672733,-0.00372999632646008,-0.0147007124733204));
#1933=CARTESIAN_POINT('',(-0.00777944850816101,-0.00372999632646008,-0.00820467209769628));
#1934=CARTESIAN_POINT('',(-0.0075526017795947,-0.00372999632646008,-0.00170863172207216));
#1935=CARTESIAN_POINT('',(-0.00266403728423871,-0.00102756078239206,-0.00838330619390242));
#1936=CARTESIAN_POINT('',(-0.00251600791648092,-0.00102756078239206,-0.00414429972548171));
#1937=CARTESIAN_POINT('',(-0.00266403728423871,-0.00102756078239206,-0.00838330619390242));
#1938=CARTESIAN_POINT('',(-0.00281978599664098,-0.00102756078239206,-0.0128433657707408));
#1939=CARTESIAN_POINT('',(-0.00506010589447898,-0.0052728137315608,-0.0040554578664276));
#1940=CARTESIAN_POINT('',(-0.00506010589447898,-0.0052728137315608,-0.0040554578664276));
#1941=CARTESIAN_POINT('',(-0.00536388397463904,-0.00527281373156081,-0.0127545239116867));
#1942=CARTESIAN_POINT('',(-0.00536388397463904,-0.00527281373156081,-0.0127545239116867));
#1943=CARTESIAN_POINT('',(-0.00520813526223676,-0.00527281373156081,-0.0082944643348483));
#1944=CARTESIAN_POINT('',(-0.0075526017795947,-0.00372999632646008,-0.00170863172207216));
#1945=CARTESIAN_POINT('',(-0.00800629523672733,-0.00372999632646008,-0.0147007124733204));
#1946=CARTESIAN_POINT('',(-0.00280182175249911,-0.0036,0.0187215781374828));
#1947=CARTESIAN_POINT('',(-0.00280182175249911,-0.0036,0.0187215781374828));
#1948=CARTESIAN_POINT('',(-0.00380182175249911,-0.0036,0.0187215781374828));
#1949=CARTESIAN_POINT('',(-0.00280182175249911,-0.0036,0.0187215781374828));
#1950=CARTESIAN_POINT('',(-0.0022050975487165,-0.0036,0.0147343084984778));
#1951=CARTESIAN_POINT('',(-0.00802866636026734,-0.0036,0.00872142540728885));
#1952=CARTESIAN_POINT('',(-0.00234705690011554,-0.0036,0.00176136323942757));
#1953=CARTESIAN_POINT('',(-0.0080097351609378,-0.0036,0.00836019660521911));
#1954=CARTESIAN_POINT('',(-0.00234705690011554,-0.0036,-0.00176136323942757));
#1955=CARTESIAN_POINT('',(-0.00798348091134084,-0.0036,-0.00783560210907858));
#1956=CARTESIAN_POINT('',(-0.00271638407685869,-0.0036,-0.0143404994570863));
#1957=CARTESIAN_POINT('',(-0.00799610491548646,-0.0036,-0.00819710628923715));
#1958=CARTESIAN_POINT('',(-0.00359762319543283,-0.0036,-0.0189927904232776));
#1959=CARTESIAN_POINT('',(-0.0103737016692688,-0.0036,-0.0242117371750723));
#1960=CARTESIAN_POINT('',(-0.0107163388911042,-0.00284309966202375,0.0246776354021718));
#1961=CARTESIAN_POINT('',(-0.00760915884795527,0.001402153287145,0.0208601415152047));
#1962=CARTESIAN_POINT('',(0.0150687999195838,-0.0119689308903946,0.0197179659671344));
#1963=CARTESIAN_POINT('',(0.0119541393801153,-0.0119700705533134,-0.0358815258717085));
#1964=CARTESIAN_POINT('',(-0.0116246520930496,-0.0028442393249425,-0.024058139776577));
#1965=CARTESIAN_POINT('',(-0.00906510513112314,-0.00295858762390972,-0.00815977597912027));
#1966=CARTESIAN_POINT('',(-0.00905248112697751,-0.00295858762390972,-0.00779827179896169));
#1967=CARTESIAN_POINT('',(-0.00926835264098848,-0.00284423938755077,0.00829423525812284));
#1968=CARTESIAN_POINT('',(-0.00928728384031803,-0.00284423938755077,0.00865546406019258));
#1969=CARTESIAN_POINT('',(0.00906927949570227,4.15249432061948E-17,-0.0161238602028646));
#1970=CARTESIAN_POINT('',(0.00906927949570227,4.15249432061948E-17,-0.0161238602028646));
#1971=CARTESIAN_POINT('',(0.00969747043634712,-8.67361737988404E-16,0.00186517468347911));
#1972=CARTESIAN_POINT('',(0.00969747043634712,-8.67361737988404E-16,0.00186517468347911));
#1973=CARTESIAN_POINT('',(0.00666782670957308,3.27725043283711E-14,0.034694527340185));
#1974=CARTESIAN_POINT('',(0.00875542322397396,3.27702275038089E-14,0.0198405063090615));
#1975=CARTESIAN_POINT('',(0.00875542322397427,-8.84708972748172E-16,0.0198405063090614));
#1976=MECHANICAL_DESIGN_GEOMETRIC_PRESENTATION_REPRESENTATION('',(#1161),
#1977);
#1977=(
GEOMETRIC_REPRESENTATION_CONTEXT(3)
GLOBAL_UNCERTAINTY_ASSIGNED_CONTEXT((#1978))
GLOBAL_UNIT_ASSIGNED_CONTEXT((#1981,#1980,#1979))
REPRESENTATION_CONTEXT('palm_bone_flex','TOP_LEVEL_ASSEMBLY_PART')
);
#1978=UNCERTAINTY_MEASURE_WITH_UNIT(LENGTH_MEASURE(2.E-5),#1981,
'DISTANCE_ACCURACY_VALUE','Maximum Tolerance applied to model');
#1979=(
NAMED_UNIT(*)
SI_UNIT($,.STERADIAN.)
SOLID_ANGLE_UNIT()
);
#1980=(
NAMED_UNIT(*)
PLANE_ANGLE_UNIT()
SI_UNIT($,.RADIAN.)
);
#1981=(
LENGTH_UNIT()
NAMED_UNIT(*)
SI_UNIT($,.METRE.)
);
#1982=PRODUCT_DEFINITION_SHAPE('','',#1983);
#1983=PRODUCT_DEFINITION('','',#1985,#1984);
#1984=PRODUCT_DEFINITION_CONTEXT('',#1991,'design');
#1985=PRODUCT_DEFINITION_FORMATION_WITH_SPECIFIED_SOURCE('','',#1987,
 .NOT_KNOWN.);
#1986=PRODUCT_RELATED_PRODUCT_CATEGORY('','',(#1987));
#1987=PRODUCT('palm_bone_flex','palm_bone_flex','palm_bone_flex',(#1989));
#1988=PRODUCT_CATEGORY('','');
#1989=PRODUCT_CONTEXT('',#1991,'mechanical');
#1990=APPLICATION_PROTOCOL_DEFINITION('international standard',
'ap242_managed_model_based_3d_engineering',2020,#1991);
#1991=APPLICATION_CONTEXT('managed model based 3d engineering');
ENDSEC;
END-ISO-10303-21;
