ISO-10303-21;
HEADER;
/* Generated by software containing ST-Developer
 * from STEP Tools, Inc. (www.steptools.com) 
 */
/* OPTION: using custom renumber hook */

FILE_DESCRIPTION(
/* description */ ('STEP AP242 Edition 2',
'CAx-IF Rec.Pracs.---Representation and Presentation of Product Manufa
cturing Information (PMI)---4.0---2014-10-13',
'CAx-IF Rec.Pracs.---3D Tessellated Geometry---0.4---2014-09-14','2;1',
'CAx-IF Rec.Pracs.---User Defined Attributes---1.5---2016-08-15'),
/* implementation_level */ '2;1');

FILE_NAME(
/* name */ 'Robotic Hand_V5_simulacra - Palm2_2',
/* time_stamp */ '2026-09-25T22:15:31Z',
/* author */ (''),
/* organization */ (''),
/* preprocessor_version */ 'ST-DEVELOPER v20',
/* originating_system */ 'ONSHAPE BY PTC INC, 1.221',
/* authorisation */ '  ');

FILE_SCHEMA (('AP242_MANAGED_MODEL_BASED_3D_ENGINEERING_MIM_LF { 1 0 10303 442 3 1 4 }'));
ENDSEC;

DATA;
#10=SHAPE_REPRESENTATION_RELATIONSHIP('','',#1225,#11);
#11=ADVANCED_BREP_SHAPE_REPRESENTATION('',(#1223),#2055);
#12=CYLINDRICAL_SURFACE('',#1271,0.0065);
#13=CYLINDRICAL_SURFACE('',#1275,0.00613827546702941);
#14=CYLINDRICAL_SURFACE('',#1279,0.00475);
#15=CYLINDRICAL_SURFACE('',#1281,0.00475);
#16=CYLINDRICAL_SURFACE('',#1293,0.0065);
#17=CYLINDRICAL_SURFACE('',#1297,0.00613827546702941);
#18=CYLINDRICAL_SURFACE('',#1301,0.00475);
#19=CYLINDRICAL_SURFACE('',#1303,0.00475);
#20=CYLINDRICAL_SURFACE('',#1307,0.00613827546702941);
#21=CYLINDRICAL_SURFACE('',#1309,0.0065);
#22=CYLINDRICAL_SURFACE('',#1324,0.00475);
#23=CYLINDRICAL_SURFACE('',#1326,0.00475);
#24=CYLINDRICAL_SURFACE('',#1329,0.001);
#25=CYLINDRICAL_SURFACE('',#1332,0.001);
#26=CYLINDRICAL_SURFACE('',#1335,0.001);
#27=CYLINDRICAL_SURFACE('',#1338,0.001);
#28=CYLINDRICAL_SURFACE('',#1341,0.001);
#29=CYLINDRICAL_SURFACE('',#1344,0.001);
#30=CIRCLE('',#1245,0.001);
#31=CIRCLE('',#1246,0.001);
#32=CIRCLE('',#1247,0.001);
#33=CIRCLE('',#1248,0.001);
#34=CIRCLE('',#1249,0.001);
#35=CIRCLE('',#1250,0.001);
#36=CIRCLE('',#1264,0.0065);
#37=CIRCLE('',#1273,0.00613827546702941);
#38=CIRCLE('',#1277,0.00475);
#39=CIRCLE('',#1278,0.00475);
#40=CIRCLE('',#1280,0.00475);
#41=CIRCLE('',#1282,0.00475);
#42=CIRCLE('',#1286,0.0065);
#43=CIRCLE('',#1295,0.00613827546702941);
#44=CIRCLE('',#1299,0.00475);
#45=CIRCLE('',#1300,0.00475);
#46=CIRCLE('',#1302,0.00475);
#47=CIRCLE('',#1304,0.00475);
#48=CIRCLE('',#1308,0.00613827546702941);
#49=CIRCLE('',#1310,0.0065);
#50=CIRCLE('',#1316,0.00475);
#51=CIRCLE('',#1318,0.00475);
#52=CIRCLE('',#1325,0.00475);
#53=CIRCLE('',#1327,0.00475);
#54=CIRCLE('',#1330,0.001);
#55=CIRCLE('',#1333,0.001);
#56=CIRCLE('',#1336,0.001);
#57=CIRCLE('',#1339,0.001);
#58=CIRCLE('',#1342,0.001);
#59=CIRCLE('',#1345,0.001);
#60=ELLIPSE('',#1232,0.0119358430493489,0.00613827546702941);
#61=ELLIPSE('',#1233,0.0092363490020829,0.00475);
#62=ELLIPSE('',#1234,0.0092363490020829,0.00475);
#63=ELLIPSE('',#1235,0.0126392144239029,0.0065);
#64=ELLIPSE('',#1236,0.0119358430493504,0.00613827546702941);
#65=ELLIPSE('',#1237,0.00923634900208409,0.00475);
#66=ELLIPSE('',#1238,0.00923634900208409,0.00475);
#67=ELLIPSE('',#1239,0.0126392144239046,0.0065);
#68=ELLIPSE('',#1240,0.0119358430493504,0.00613827546702941);
#69=ELLIPSE('',#1241,0.00923634900208407,0.00475);
#70=ELLIPSE('',#1242,0.00923634900208407,0.00475);
#71=ELLIPSE('',#1243,0.0126392144239045,0.0065);
#72=ELLIPSE('',#1251,0.0126392144239029,0.0065);
#73=ELLIPSE('',#1252,0.0092363490020829,0.00475);
#74=ELLIPSE('',#1253,0.0092363490020829,0.00475);
#75=ELLIPSE('',#1254,0.0119358430493489,0.00613827546702941);
#76=ELLIPSE('',#1255,0.0126392144239046,0.0065);
#77=ELLIPSE('',#1256,0.00923634900208409,0.00475);
#78=ELLIPSE('',#1257,0.00923634900208409,0.00475);
#79=ELLIPSE('',#1258,0.0119358430493504,0.00613827546702941);
#80=ELLIPSE('',#1259,0.0126392144239045,0.0065);
#81=ELLIPSE('',#1260,0.00923634900208407,0.00475);
#82=ELLIPSE('',#1261,0.00923634900208407,0.00475);
#83=ELLIPSE('',#1262,0.0119358430493504,0.00613827546702941);
#84=ORIENTED_EDGE('',*,*,#420,.T.);
#85=ORIENTED_EDGE('',*,*,#421,.F.);
#86=ORIENTED_EDGE('',*,*,#422,.F.);
#87=ORIENTED_EDGE('',*,*,#423,.T.);
#88=ORIENTED_EDGE('',*,*,#424,.T.);
#89=ORIENTED_EDGE('',*,*,#425,.F.);
#90=ORIENTED_EDGE('',*,*,#426,.F.);
#91=ORIENTED_EDGE('',*,*,#421,.T.);
#92=ORIENTED_EDGE('',*,*,#427,.T.);
#93=ORIENTED_EDGE('',*,*,#428,.F.);
#94=ORIENTED_EDGE('',*,*,#429,.F.);
#95=ORIENTED_EDGE('',*,*,#425,.T.);
#96=ORIENTED_EDGE('',*,*,#430,.T.);
#97=ORIENTED_EDGE('',*,*,#423,.F.);
#98=ORIENTED_EDGE('',*,*,#431,.F.);
#99=ORIENTED_EDGE('',*,*,#428,.T.);
#100=ORIENTED_EDGE('',*,*,#432,.F.);
#101=ORIENTED_EDGE('',*,*,#433,.T.);
#102=ORIENTED_EDGE('',*,*,#434,.T.);
#103=ORIENTED_EDGE('',*,*,#435,.T.);
#104=ORIENTED_EDGE('',*,*,#436,.F.);
#105=ORIENTED_EDGE('',*,*,#437,.F.);
#106=ORIENTED_EDGE('',*,*,#438,.F.);
#107=ORIENTED_EDGE('',*,*,#439,.F.);
#108=ORIENTED_EDGE('',*,*,#440,.F.);
#109=ORIENTED_EDGE('',*,*,#441,.T.);
#110=ORIENTED_EDGE('',*,*,#442,.F.);
#111=ORIENTED_EDGE('',*,*,#443,.F.);
#112=ORIENTED_EDGE('',*,*,#444,.T.);
#113=ORIENTED_EDGE('',*,*,#445,.F.);
#114=ORIENTED_EDGE('',*,*,#446,.F.);
#115=ORIENTED_EDGE('',*,*,#447,.T.);
#116=ORIENTED_EDGE('',*,*,#448,.F.);
#117=ORIENTED_EDGE('',*,*,#449,.T.);
#118=ORIENTED_EDGE('',*,*,#450,.T.);
#119=ORIENTED_EDGE('',*,*,#451,.T.);
#120=ORIENTED_EDGE('',*,*,#452,.F.);
#121=ORIENTED_EDGE('',*,*,#453,.F.);
#122=ORIENTED_EDGE('',*,*,#454,.F.);
#123=ORIENTED_EDGE('',*,*,#455,.F.);
#124=ORIENTED_EDGE('',*,*,#456,.F.);
#125=ORIENTED_EDGE('',*,*,#457,.T.);
#126=ORIENTED_EDGE('',*,*,#458,.F.);
#127=ORIENTED_EDGE('',*,*,#459,.F.);
#128=ORIENTED_EDGE('',*,*,#460,.T.);
#129=ORIENTED_EDGE('',*,*,#461,.F.);
#130=ORIENTED_EDGE('',*,*,#462,.F.);
#131=ORIENTED_EDGE('',*,*,#463,.T.);
#132=ORIENTED_EDGE('',*,*,#464,.F.);
#133=ORIENTED_EDGE('',*,*,#465,.T.);
#134=ORIENTED_EDGE('',*,*,#466,.T.);
#135=ORIENTED_EDGE('',*,*,#467,.T.);
#136=ORIENTED_EDGE('',*,*,#468,.F.);
#137=ORIENTED_EDGE('',*,*,#469,.F.);
#138=ORIENTED_EDGE('',*,*,#470,.F.);
#139=ORIENTED_EDGE('',*,*,#471,.F.);
#140=ORIENTED_EDGE('',*,*,#472,.F.);
#141=ORIENTED_EDGE('',*,*,#473,.T.);
#142=ORIENTED_EDGE('',*,*,#474,.F.);
#143=ORIENTED_EDGE('',*,*,#475,.F.);
#144=ORIENTED_EDGE('',*,*,#476,.T.);
#145=ORIENTED_EDGE('',*,*,#477,.F.);
#146=ORIENTED_EDGE('',*,*,#478,.F.);
#147=ORIENTED_EDGE('',*,*,#479,.T.);
#148=ORIENTED_EDGE('',*,*,#422,.T.);
#149=ORIENTED_EDGE('',*,*,#426,.T.);
#150=ORIENTED_EDGE('',*,*,#429,.T.);
#151=ORIENTED_EDGE('',*,*,#431,.T.);
#152=ORIENTED_EDGE('',*,*,#480,.F.);
#153=ORIENTED_EDGE('',*,*,#481,.F.);
#154=ORIENTED_EDGE('',*,*,#482,.F.);
#155=ORIENTED_EDGE('',*,*,#483,.F.);
#156=ORIENTED_EDGE('',*,*,#484,.F.);
#157=ORIENTED_EDGE('',*,*,#485,.F.);
#158=ORIENTED_EDGE('',*,*,#486,.F.);
#159=ORIENTED_EDGE('',*,*,#487,.T.);
#160=ORIENTED_EDGE('',*,*,#488,.F.);
#161=ORIENTED_EDGE('',*,*,#489,.T.);
#162=ORIENTED_EDGE('',*,*,#490,.T.);
#163=ORIENTED_EDGE('',*,*,#491,.F.);
#164=ORIENTED_EDGE('',*,*,#492,.T.);
#165=ORIENTED_EDGE('',*,*,#493,.T.);
#166=ORIENTED_EDGE('',*,*,#494,.F.);
#167=ORIENTED_EDGE('',*,*,#495,.T.);
#168=ORIENTED_EDGE('',*,*,#496,.T.);
#169=ORIENTED_EDGE('',*,*,#497,.T.);
#170=ORIENTED_EDGE('',*,*,#498,.T.);
#171=ORIENTED_EDGE('',*,*,#499,.T.);
#172=ORIENTED_EDGE('',*,*,#500,.F.);
#173=ORIENTED_EDGE('',*,*,#501,.F.);
#174=ORIENTED_EDGE('',*,*,#502,.F.);
#175=ORIENTED_EDGE('',*,*,#503,.T.);
#176=ORIENTED_EDGE('',*,*,#504,.F.);
#177=ORIENTED_EDGE('',*,*,#505,.T.);
#178=ORIENTED_EDGE('',*,*,#506,.T.);
#179=ORIENTED_EDGE('',*,*,#507,.F.);
#180=ORIENTED_EDGE('',*,*,#508,.T.);
#181=ORIENTED_EDGE('',*,*,#509,.T.);
#182=ORIENTED_EDGE('',*,*,#510,.F.);
#183=ORIENTED_EDGE('',*,*,#511,.T.);
#184=ORIENTED_EDGE('',*,*,#512,.T.);
#185=ORIENTED_EDGE('',*,*,#513,.T.);
#186=ORIENTED_EDGE('',*,*,#514,.T.);
#187=ORIENTED_EDGE('',*,*,#515,.T.);
#188=ORIENTED_EDGE('',*,*,#516,.F.);
#189=ORIENTED_EDGE('',*,*,#517,.F.);
#190=ORIENTED_EDGE('',*,*,#518,.F.);
#191=ORIENTED_EDGE('',*,*,#519,.T.);
#192=ORIENTED_EDGE('',*,*,#520,.F.);
#193=ORIENTED_EDGE('',*,*,#521,.T.);
#194=ORIENTED_EDGE('',*,*,#522,.T.);
#195=ORIENTED_EDGE('',*,*,#523,.F.);
#196=ORIENTED_EDGE('',*,*,#524,.T.);
#197=ORIENTED_EDGE('',*,*,#525,.T.);
#198=ORIENTED_EDGE('',*,*,#526,.F.);
#199=ORIENTED_EDGE('',*,*,#527,.T.);
#200=ORIENTED_EDGE('',*,*,#528,.T.);
#201=ORIENTED_EDGE('',*,*,#529,.T.);
#202=ORIENTED_EDGE('',*,*,#530,.T.);
#203=ORIENTED_EDGE('',*,*,#531,.T.);
#204=ORIENTED_EDGE('',*,*,#532,.F.);
#205=ORIENTED_EDGE('',*,*,#533,.F.);
#206=ORIENTED_EDGE('',*,*,#420,.F.);
#207=ORIENTED_EDGE('',*,*,#430,.F.);
#208=ORIENTED_EDGE('',*,*,#427,.F.);
#209=ORIENTED_EDGE('',*,*,#424,.F.);
#210=ORIENTED_EDGE('',*,*,#477,.T.);
#211=ORIENTED_EDGE('',*,*,#534,.T.);
#212=ORIENTED_EDGE('',*,*,#522,.F.);
#213=ORIENTED_EDGE('',*,*,#535,.F.);
#214=ORIENTED_EDGE('',*,*,#536,.T.);
#215=ORIENTED_EDGE('',*,*,#523,.T.);
#216=ORIENTED_EDGE('',*,*,#534,.F.);
#217=ORIENTED_EDGE('',*,*,#476,.F.);
#218=ORIENTED_EDGE('',*,*,#537,.F.);
#219=ORIENTED_EDGE('',*,*,#518,.T.);
#220=ORIENTED_EDGE('',*,*,#538,.T.);
#221=ORIENTED_EDGE('',*,*,#465,.F.);
#222=ORIENTED_EDGE('',*,*,#464,.T.);
#223=ORIENTED_EDGE('',*,*,#539,.F.);
#224=ORIENTED_EDGE('',*,*,#519,.F.);
#225=ORIENTED_EDGE('',*,*,#537,.T.);
#226=ORIENTED_EDGE('',*,*,#538,.F.);
#227=ORIENTED_EDGE('',*,*,#533,.T.);
#228=ORIENTED_EDGE('',*,*,#540,.T.);
#229=ORIENTED_EDGE('',*,*,#466,.F.);
#230=ORIENTED_EDGE('',*,*,#541,.T.);
#231=ORIENTED_EDGE('',*,*,#520,.T.);
#232=ORIENTED_EDGE('',*,*,#539,.T.);
#233=ORIENTED_EDGE('',*,*,#479,.F.);
#234=ORIENTED_EDGE('',*,*,#540,.F.);
#235=ORIENTED_EDGE('',*,*,#532,.T.);
#236=ORIENTED_EDGE('',*,*,#542,.T.);
#237=ORIENTED_EDGE('',*,*,#467,.F.);
#238=ORIENTED_EDGE('',*,*,#478,.T.);
#239=ORIENTED_EDGE('',*,*,#535,.T.);
#240=ORIENTED_EDGE('',*,*,#521,.F.);
#241=ORIENTED_EDGE('',*,*,#541,.F.);
#242=ORIENTED_EDGE('',*,*,#469,.T.);
#243=ORIENTED_EDGE('',*,*,#543,.F.);
#244=ORIENTED_EDGE('',*,*,#530,.F.);
#245=ORIENTED_EDGE('',*,*,#544,.F.);
#246=ORIENTED_EDGE('',*,*,#470,.T.);
#247=ORIENTED_EDGE('',*,*,#544,.T.);
#248=ORIENTED_EDGE('',*,*,#529,.F.);
#249=ORIENTED_EDGE('',*,*,#545,.T.);
#250=ORIENTED_EDGE('',*,*,#468,.T.);
#251=ORIENTED_EDGE('',*,*,#542,.F.);
#252=ORIENTED_EDGE('',*,*,#531,.F.);
#253=ORIENTED_EDGE('',*,*,#543,.T.);
#254=ORIENTED_EDGE('',*,*,#546,.F.);
#255=ORIENTED_EDGE('',*,*,#526,.T.);
#256=ORIENTED_EDGE('',*,*,#547,.F.);
#257=ORIENTED_EDGE('',*,*,#473,.F.);
#258=ORIENTED_EDGE('',*,*,#472,.T.);
#259=ORIENTED_EDGE('',*,*,#548,.F.);
#260=ORIENTED_EDGE('',*,*,#527,.F.);
#261=ORIENTED_EDGE('',*,*,#546,.T.);
#262=ORIENTED_EDGE('',*,*,#474,.T.);
#263=ORIENTED_EDGE('',*,*,#547,.T.);
#264=ORIENTED_EDGE('',*,*,#525,.F.);
#265=ORIENTED_EDGE('',*,*,#549,.F.);
#266=ORIENTED_EDGE('',*,*,#471,.T.);
#267=ORIENTED_EDGE('',*,*,#545,.F.);
#268=ORIENTED_EDGE('',*,*,#528,.F.);
#269=ORIENTED_EDGE('',*,*,#548,.T.);
#270=ORIENTED_EDGE('',*,*,#475,.T.);
#271=ORIENTED_EDGE('',*,*,#549,.T.);
#272=ORIENTED_EDGE('',*,*,#524,.F.);
#273=ORIENTED_EDGE('',*,*,#536,.F.);
#274=ORIENTED_EDGE('',*,*,#461,.T.);
#275=ORIENTED_EDGE('',*,*,#550,.T.);
#276=ORIENTED_EDGE('',*,*,#506,.F.);
#277=ORIENTED_EDGE('',*,*,#551,.F.);
#278=ORIENTED_EDGE('',*,*,#552,.T.);
#279=ORIENTED_EDGE('',*,*,#507,.T.);
#280=ORIENTED_EDGE('',*,*,#550,.F.);
#281=ORIENTED_EDGE('',*,*,#460,.F.);
#282=ORIENTED_EDGE('',*,*,#553,.F.);
#283=ORIENTED_EDGE('',*,*,#502,.T.);
#284=ORIENTED_EDGE('',*,*,#554,.T.);
#285=ORIENTED_EDGE('',*,*,#449,.F.);
#286=ORIENTED_EDGE('',*,*,#448,.T.);
#287=ORIENTED_EDGE('',*,*,#555,.F.);
#288=ORIENTED_EDGE('',*,*,#503,.F.);
#289=ORIENTED_EDGE('',*,*,#553,.T.);
#290=ORIENTED_EDGE('',*,*,#554,.F.);
#291=ORIENTED_EDGE('',*,*,#517,.T.);
#292=ORIENTED_EDGE('',*,*,#556,.T.);
#293=ORIENTED_EDGE('',*,*,#450,.F.);
#294=ORIENTED_EDGE('',*,*,#557,.T.);
#295=ORIENTED_EDGE('',*,*,#504,.T.);
#296=ORIENTED_EDGE('',*,*,#555,.T.);
#297=ORIENTED_EDGE('',*,*,#463,.F.);
#298=ORIENTED_EDGE('',*,*,#556,.F.);
#299=ORIENTED_EDGE('',*,*,#516,.T.);
#300=ORIENTED_EDGE('',*,*,#558,.T.);
#301=ORIENTED_EDGE('',*,*,#451,.F.);
#302=ORIENTED_EDGE('',*,*,#462,.T.);
#303=ORIENTED_EDGE('',*,*,#551,.T.);
#304=ORIENTED_EDGE('',*,*,#505,.F.);
#305=ORIENTED_EDGE('',*,*,#557,.F.);
#306=ORIENTED_EDGE('',*,*,#453,.T.);
#307=ORIENTED_EDGE('',*,*,#559,.F.);
#308=ORIENTED_EDGE('',*,*,#514,.F.);
#309=ORIENTED_EDGE('',*,*,#560,.F.);
#310=ORIENTED_EDGE('',*,*,#454,.T.);
#311=ORIENTED_EDGE('',*,*,#560,.T.);
#312=ORIENTED_EDGE('',*,*,#513,.F.);
#313=ORIENTED_EDGE('',*,*,#561,.T.);
#314=ORIENTED_EDGE('',*,*,#452,.T.);
#315=ORIENTED_EDGE('',*,*,#558,.F.);
#316=ORIENTED_EDGE('',*,*,#515,.F.);
#317=ORIENTED_EDGE('',*,*,#559,.T.);
#318=ORIENTED_EDGE('',*,*,#562,.F.);
#319=ORIENTED_EDGE('',*,*,#510,.T.);
#320=ORIENTED_EDGE('',*,*,#563,.F.);
#321=ORIENTED_EDGE('',*,*,#457,.F.);
#322=ORIENTED_EDGE('',*,*,#456,.T.);
#323=ORIENTED_EDGE('',*,*,#564,.F.);
#324=ORIENTED_EDGE('',*,*,#511,.F.);
#325=ORIENTED_EDGE('',*,*,#562,.T.);
#326=ORIENTED_EDGE('',*,*,#458,.T.);
#327=ORIENTED_EDGE('',*,*,#563,.T.);
#328=ORIENTED_EDGE('',*,*,#509,.F.);
#329=ORIENTED_EDGE('',*,*,#565,.F.);
#330=ORIENTED_EDGE('',*,*,#455,.T.);
#331=ORIENTED_EDGE('',*,*,#561,.F.);
#332=ORIENTED_EDGE('',*,*,#512,.F.);
#333=ORIENTED_EDGE('',*,*,#564,.T.);
#334=ORIENTED_EDGE('',*,*,#459,.T.);
#335=ORIENTED_EDGE('',*,*,#565,.T.);
#336=ORIENTED_EDGE('',*,*,#508,.F.);
#337=ORIENTED_EDGE('',*,*,#552,.F.);
#338=ORIENTED_EDGE('',*,*,#436,.T.);
#339=ORIENTED_EDGE('',*,*,#566,.F.);
#340=ORIENTED_EDGE('',*,*,#499,.F.);
#341=ORIENTED_EDGE('',*,*,#567,.T.);
#342=ORIENTED_EDGE('',*,*,#446,.T.);
#343=ORIENTED_EDGE('',*,*,#568,.T.);
#344=ORIENTED_EDGE('',*,*,#489,.F.);
#345=ORIENTED_EDGE('',*,*,#569,.F.);
#346=ORIENTED_EDGE('',*,*,#438,.T.);
#347=ORIENTED_EDGE('',*,*,#570,.T.);
#348=ORIENTED_EDGE('',*,*,#497,.F.);
#349=ORIENTED_EDGE('',*,*,#571,.T.);
#350=ORIENTED_EDGE('',*,*,#572,.T.);
#351=ORIENTED_EDGE('',*,*,#491,.T.);
#352=ORIENTED_EDGE('',*,*,#573,.F.);
#353=ORIENTED_EDGE('',*,*,#444,.F.);
#354=ORIENTED_EDGE('',*,*,#437,.T.);
#355=ORIENTED_EDGE('',*,*,#567,.F.);
#356=ORIENTED_EDGE('',*,*,#498,.F.);
#357=ORIENTED_EDGE('',*,*,#570,.F.);
#358=ORIENTED_EDGE('',*,*,#445,.T.);
#359=ORIENTED_EDGE('',*,*,#573,.T.);
#360=ORIENTED_EDGE('',*,*,#490,.F.);
#361=ORIENTED_EDGE('',*,*,#568,.F.);
#362=ORIENTED_EDGE('',*,*,#443,.T.);
#363=ORIENTED_EDGE('',*,*,#574,.T.);
#364=ORIENTED_EDGE('',*,*,#492,.F.);
#365=ORIENTED_EDGE('',*,*,#572,.F.);
#366=ORIENTED_EDGE('',*,*,#439,.T.);
#367=ORIENTED_EDGE('',*,*,#571,.F.);
#368=ORIENTED_EDGE('',*,*,#496,.F.);
#369=ORIENTED_EDGE('',*,*,#575,.T.);
#370=ORIENTED_EDGE('',*,*,#576,.F.);
#371=ORIENTED_EDGE('',*,*,#500,.T.);
#372=ORIENTED_EDGE('',*,*,#566,.T.);
#373=ORIENTED_EDGE('',*,*,#435,.F.);
#374=ORIENTED_EDGE('',*,*,#569,.T.);
#375=ORIENTED_EDGE('',*,*,#488,.T.);
#376=ORIENTED_EDGE('',*,*,#577,.T.);
#377=ORIENTED_EDGE('',*,*,#447,.F.);
#378=ORIENTED_EDGE('',*,*,#578,.F.);
#379=ORIENTED_EDGE('',*,*,#501,.T.);
#380=ORIENTED_EDGE('',*,*,#576,.T.);
#381=ORIENTED_EDGE('',*,*,#434,.F.);
#382=ORIENTED_EDGE('',*,*,#432,.T.);
#383=ORIENTED_EDGE('',*,*,#577,.F.);
#384=ORIENTED_EDGE('',*,*,#487,.F.);
#385=ORIENTED_EDGE('',*,*,#579,.T.);
#386=ORIENTED_EDGE('',*,*,#579,.F.);
#387=ORIENTED_EDGE('',*,*,#486,.T.);
#388=ORIENTED_EDGE('',*,*,#578,.T.);
#389=ORIENTED_EDGE('',*,*,#433,.F.);
#390=ORIENTED_EDGE('',*,*,#442,.T.);
#391=ORIENTED_EDGE('',*,*,#580,.T.);
#392=ORIENTED_EDGE('',*,*,#493,.F.);
#393=ORIENTED_EDGE('',*,*,#574,.F.);
#394=ORIENTED_EDGE('',*,*,#440,.T.);
#395=ORIENTED_EDGE('',*,*,#575,.F.);
#396=ORIENTED_EDGE('',*,*,#495,.F.);
#397=ORIENTED_EDGE('',*,*,#581,.T.);
#398=ORIENTED_EDGE('',*,*,#581,.F.);
#399=ORIENTED_EDGE('',*,*,#494,.T.);
#400=ORIENTED_EDGE('',*,*,#580,.F.);
#401=ORIENTED_EDGE('',*,*,#441,.F.);
#402=ORIENTED_EDGE('',*,*,#582,.F.);
#403=ORIENTED_EDGE('',*,*,#485,.T.);
#404=ORIENTED_EDGE('',*,*,#582,.T.);
#405=ORIENTED_EDGE('',*,*,#583,.F.);
#406=ORIENTED_EDGE('',*,*,#484,.T.);
#407=ORIENTED_EDGE('',*,*,#583,.T.);
#408=ORIENTED_EDGE('',*,*,#584,.F.);
#409=ORIENTED_EDGE('',*,*,#483,.T.);
#410=ORIENTED_EDGE('',*,*,#584,.T.);
#411=ORIENTED_EDGE('',*,*,#585,.F.);
#412=ORIENTED_EDGE('',*,*,#482,.T.);
#413=ORIENTED_EDGE('',*,*,#585,.T.);
#414=ORIENTED_EDGE('',*,*,#586,.F.);
#415=ORIENTED_EDGE('',*,*,#481,.T.);
#416=ORIENTED_EDGE('',*,*,#586,.T.);
#417=ORIENTED_EDGE('',*,*,#587,.F.);
#418=ORIENTED_EDGE('',*,*,#480,.T.);
#419=ORIENTED_EDGE('',*,*,#587,.T.);
#420=EDGE_CURVE('',#588,#589,#704,.T.);
#421=EDGE_CURVE('',#590,#589,#705,.T.);
#422=EDGE_CURVE('',#591,#590,#706,.T.);
#423=EDGE_CURVE('',#591,#588,#707,.T.);
#424=EDGE_CURVE('',#589,#592,#708,.T.);
#425=EDGE_CURVE('',#593,#592,#709,.T.);
#426=EDGE_CURVE('',#590,#593,#710,.T.);
#427=EDGE_CURVE('',#592,#594,#711,.T.);
#428=EDGE_CURVE('',#595,#594,#712,.T.);
#429=EDGE_CURVE('',#593,#595,#713,.T.);
#430=EDGE_CURVE('',#594,#588,#714,.T.);
#431=EDGE_CURVE('',#595,#591,#715,.T.);
#432=EDGE_CURVE('',#596,#597,#716,.T.);
#433=EDGE_CURVE('',#596,#598,#717,.T.);
#434=EDGE_CURVE('',#598,#599,#718,.T.);
#435=EDGE_CURVE('',#599,#600,#719,.T.);
#436=EDGE_CURVE('',#601,#600,#60,.F.);
#437=EDGE_CURVE('',#602,#601,#720,.T.);
#438=EDGE_CURVE('',#603,#602,#721,.T.);
#439=EDGE_CURVE('',#604,#603,#722,.T.);
#440=EDGE_CURVE('',#605,#604,#61,.F.);
#441=EDGE_CURVE('',#605,#606,#723,.T.);
#442=EDGE_CURVE('',#607,#606,#62,.F.);
#443=EDGE_CURVE('',#608,#607,#724,.T.);
#444=EDGE_CURVE('',#608,#609,#725,.T.);
#445=EDGE_CURVE('',#610,#609,#726,.T.);
#446=EDGE_CURVE('',#611,#610,#63,.F.);
#447=EDGE_CURVE('',#611,#597,#727,.T.);
#448=EDGE_CURVE('',#612,#613,#728,.T.);
#449=EDGE_CURVE('',#612,#614,#729,.T.);
#450=EDGE_CURVE('',#614,#615,#730,.T.);
#451=EDGE_CURVE('',#615,#616,#731,.T.);
#452=EDGE_CURVE('',#617,#616,#64,.F.);
#453=EDGE_CURVE('',#618,#617,#732,.T.);
#454=EDGE_CURVE('',#619,#618,#733,.T.);
#455=EDGE_CURVE('',#620,#619,#734,.T.);
#456=EDGE_CURVE('',#621,#620,#65,.F.);
#457=EDGE_CURVE('',#621,#622,#735,.T.);
#458=EDGE_CURVE('',#623,#622,#66,.F.);
#459=EDGE_CURVE('',#624,#623,#736,.T.);
#460=EDGE_CURVE('',#624,#625,#737,.T.);
#461=EDGE_CURVE('',#626,#625,#738,.T.);
#462=EDGE_CURVE('',#627,#626,#67,.F.);
#463=EDGE_CURVE('',#627,#613,#739,.T.);
#464=EDGE_CURVE('',#628,#629,#740,.T.);
#465=EDGE_CURVE('',#628,#630,#741,.T.);
#466=EDGE_CURVE('',#630,#631,#742,.T.);
#467=EDGE_CURVE('',#631,#632,#743,.T.);
#468=EDGE_CURVE('',#633,#632,#68,.F.);
#469=EDGE_CURVE('',#634,#633,#744,.T.);
#470=EDGE_CURVE('',#635,#634,#745,.T.);
#471=EDGE_CURVE('',#636,#635,#746,.T.);
#472=EDGE_CURVE('',#637,#636,#69,.F.);
#473=EDGE_CURVE('',#637,#638,#747,.T.);
#474=EDGE_CURVE('',#639,#638,#70,.F.);
#475=EDGE_CURVE('',#640,#639,#748,.T.);
#476=EDGE_CURVE('',#640,#641,#749,.T.);
#477=EDGE_CURVE('',#642,#641,#750,.T.);
#478=EDGE_CURVE('',#643,#642,#71,.F.);
#479=EDGE_CURVE('',#643,#629,#751,.T.);
#480=EDGE_CURVE('',#644,#644,#30,.T.);
#481=EDGE_CURVE('',#645,#645,#31,.T.);
#482=EDGE_CURVE('',#646,#646,#32,.T.);
#483=EDGE_CURVE('',#647,#647,#33,.T.);
#484=EDGE_CURVE('',#648,#648,#34,.T.);
#485=EDGE_CURVE('',#649,#649,#35,.T.);
#486=EDGE_CURVE('',#650,#651,#752,.T.);
#487=EDGE_CURVE('',#650,#652,#753,.T.);
#488=EDGE_CURVE('',#653,#652,#754,.T.);
#489=EDGE_CURVE('',#653,#654,#72,.F.);
#490=EDGE_CURVE('',#654,#655,#755,.T.);
#491=EDGE_CURVE('',#656,#655,#756,.T.);
#492=EDGE_CURVE('',#656,#657,#757,.T.);
#493=EDGE_CURVE('',#657,#658,#73,.F.);
#494=EDGE_CURVE('',#659,#658,#758,.T.);
#495=EDGE_CURVE('',#659,#660,#74,.F.);
#496=EDGE_CURVE('',#660,#661,#759,.T.);
#497=EDGE_CURVE('',#661,#662,#760,.T.);
#498=EDGE_CURVE('',#662,#663,#761,.T.);
#499=EDGE_CURVE('',#663,#664,#75,.F.);
#500=EDGE_CURVE('',#665,#664,#762,.T.);
#501=EDGE_CURVE('',#651,#665,#763,.T.);
#502=EDGE_CURVE('',#666,#667,#764,.T.);
#503=EDGE_CURVE('',#666,#668,#765,.T.);
#504=EDGE_CURVE('',#669,#668,#766,.T.);
#505=EDGE_CURVE('',#669,#670,#76,.F.);
#506=EDGE_CURVE('',#670,#671,#767,.T.);
#507=EDGE_CURVE('',#672,#671,#768,.T.);
#508=EDGE_CURVE('',#672,#673,#769,.T.);
#509=EDGE_CURVE('',#673,#674,#77,.F.);
#510=EDGE_CURVE('',#675,#674,#770,.T.);
#511=EDGE_CURVE('',#675,#676,#78,.F.);
#512=EDGE_CURVE('',#676,#677,#771,.T.);
#513=EDGE_CURVE('',#677,#678,#772,.T.);
#514=EDGE_CURVE('',#678,#679,#773,.T.);
#515=EDGE_CURVE('',#679,#680,#79,.F.);
#516=EDGE_CURVE('',#681,#680,#774,.T.);
#517=EDGE_CURVE('',#667,#681,#775,.T.);
#518=EDGE_CURVE('',#682,#683,#776,.T.);
#519=EDGE_CURVE('',#682,#684,#777,.T.);
#520=EDGE_CURVE('',#685,#684,#778,.T.);
#521=EDGE_CURVE('',#685,#686,#80,.F.);
#522=EDGE_CURVE('',#686,#687,#779,.T.);
#523=EDGE_CURVE('',#688,#687,#780,.T.);
#524=EDGE_CURVE('',#688,#689,#781,.T.);
#525=EDGE_CURVE('',#689,#690,#81,.F.);
#526=EDGE_CURVE('',#691,#690,#782,.T.);
#527=EDGE_CURVE('',#691,#692,#82,.F.);
#528=EDGE_CURVE('',#692,#693,#783,.T.);
#529=EDGE_CURVE('',#693,#694,#784,.T.);
#530=EDGE_CURVE('',#694,#695,#785,.T.);
#531=EDGE_CURVE('',#695,#696,#83,.F.);
#532=EDGE_CURVE('',#697,#696,#786,.T.);
#533=EDGE_CURVE('',#683,#697,#787,.T.);
#534=EDGE_CURVE('',#641,#687,#788,.T.);
#535=EDGE_CURVE('',#642,#686,#36,.T.);
#536=EDGE_CURVE('',#640,#688,#789,.T.);
#537=EDGE_CURVE('',#682,#628,#790,.T.);
#538=EDGE_CURVE('',#683,#630,#791,.T.);
#539=EDGE_CURVE('',#684,#629,#792,.T.);
#540=EDGE_CURVE('',#697,#631,#793,.T.);
#541=EDGE_CURVE('',#643,#685,#794,.T.);
#542=EDGE_CURVE('',#696,#632,#795,.F.);
#543=EDGE_CURVE('',#695,#633,#37,.T.);
#544=EDGE_CURVE('',#634,#694,#796,.T.);
#545=EDGE_CURVE('',#693,#635,#797,.T.);
#546=EDGE_CURVE('',#691,#637,#38,.T.);
#547=EDGE_CURVE('',#638,#690,#39,.T.);
#548=EDGE_CURVE('',#692,#636,#40,.T.);
#549=EDGE_CURVE('',#639,#689,#41,.T.);
#550=EDGE_CURVE('',#625,#671,#798,.T.);
#551=EDGE_CURVE('',#626,#670,#42,.T.);
#552=EDGE_CURVE('',#624,#672,#799,.T.);
#553=EDGE_CURVE('',#666,#612,#800,.T.);
#554=EDGE_CURVE('',#667,#614,#801,.T.);
#555=EDGE_CURVE('',#668,#613,#802,.T.);
#556=EDGE_CURVE('',#681,#615,#803,.T.);
#557=EDGE_CURVE('',#627,#669,#804,.T.);
#558=EDGE_CURVE('',#680,#616,#805,.F.);
#559=EDGE_CURVE('',#679,#617,#43,.T.);
#560=EDGE_CURVE('',#618,#678,#806,.T.);
#561=EDGE_CURVE('',#677,#619,#807,.T.);
#562=EDGE_CURVE('',#675,#621,#44,.T.);
#563=EDGE_CURVE('',#622,#674,#45,.T.);
#564=EDGE_CURVE('',#676,#620,#46,.T.);
#565=EDGE_CURVE('',#623,#673,#47,.T.);
#566=EDGE_CURVE('',#664,#600,#808,.F.);
#567=EDGE_CURVE('',#663,#601,#48,.T.);
#568=EDGE_CURVE('',#610,#654,#49,.T.);
#569=EDGE_CURVE('',#611,#653,#809,.T.);
#570=EDGE_CURVE('',#602,#662,#810,.T.);
#571=EDGE_CURVE('',#661,#603,#811,.T.);
#572=EDGE_CURVE('',#608,#656,#812,.T.);
#573=EDGE_CURVE('',#609,#655,#813,.T.);
#574=EDGE_CURVE('',#607,#657,#50,.T.);
#575=EDGE_CURVE('',#660,#604,#51,.T.);
#576=EDGE_CURVE('',#665,#599,#814,.T.);
#577=EDGE_CURVE('',#652,#597,#815,.T.);
#578=EDGE_CURVE('',#651,#598,#816,.T.);
#579=EDGE_CURVE('',#650,#596,#817,.T.);
#580=EDGE_CURVE('',#606,#658,#52,.T.);
#581=EDGE_CURVE('',#659,#605,#53,.T.);
#582=EDGE_CURVE('',#698,#698,#54,.T.);
#583=EDGE_CURVE('',#699,#699,#55,.T.);
#584=EDGE_CURVE('',#700,#700,#56,.T.);
#585=EDGE_CURVE('',#701,#701,#57,.T.);
#586=EDGE_CURVE('',#702,#702,#58,.T.);
#587=EDGE_CURVE('',#703,#703,#59,.T.);
#588=VERTEX_POINT('',#1706);
#589=VERTEX_POINT('',#1707);
#590=VERTEX_POINT('',#1709);
#591=VERTEX_POINT('',#1711);
#592=VERTEX_POINT('',#1715);
#593=VERTEX_POINT('',#1717);
#594=VERTEX_POINT('',#1721);
#595=VERTEX_POINT('',#1723);
#596=VERTEX_POINT('',#1730);
#597=VERTEX_POINT('',#1731);
#598=VERTEX_POINT('',#1733);
#599=VERTEX_POINT('',#1735);
#600=VERTEX_POINT('',#1737);
#601=VERTEX_POINT('',#1739);
#602=VERTEX_POINT('',#1741);
#603=VERTEX_POINT('',#1743);
#604=VERTEX_POINT('',#1745);
#605=VERTEX_POINT('',#1747);
#606=VERTEX_POINT('',#1749);
#607=VERTEX_POINT('',#1751);
#608=VERTEX_POINT('',#1753);
#609=VERTEX_POINT('',#1755);
#610=VERTEX_POINT('',#1757);
#611=VERTEX_POINT('',#1759);
#612=VERTEX_POINT('',#1762);
#613=VERTEX_POINT('',#1763);
#614=VERTEX_POINT('',#1765);
#615=VERTEX_POINT('',#1767);
#616=VERTEX_POINT('',#1769);
#617=VERTEX_POINT('',#1771);
#618=VERTEX_POINT('',#1773);
#619=VERTEX_POINT('',#1775);
#620=VERTEX_POINT('',#1777);
#621=VERTEX_POINT('',#1779);
#622=VERTEX_POINT('',#1781);
#623=VERTEX_POINT('',#1783);
#624=VERTEX_POINT('',#1785);
#625=VERTEX_POINT('',#1787);
#626=VERTEX_POINT('',#1789);
#627=VERTEX_POINT('',#1791);
#628=VERTEX_POINT('',#1794);
#629=VERTEX_POINT('',#1795);
#630=VERTEX_POINT('',#1797);
#631=VERTEX_POINT('',#1799);
#632=VERTEX_POINT('',#1801);
#633=VERTEX_POINT('',#1803);
#634=VERTEX_POINT('',#1805);
#635=VERTEX_POINT('',#1807);
#636=VERTEX_POINT('',#1809);
#637=VERTEX_POINT('',#1811);
#638=VERTEX_POINT('',#1813);
#639=VERTEX_POINT('',#1815);
#640=VERTEX_POINT('',#1817);
#641=VERTEX_POINT('',#1819);
#642=VERTEX_POINT('',#1821);
#643=VERTEX_POINT('',#1823);
#644=VERTEX_POINT('',#1827);
#645=VERTEX_POINT('',#1829);
#646=VERTEX_POINT('',#1831);
#647=VERTEX_POINT('',#1833);
#648=VERTEX_POINT('',#1835);
#649=VERTEX_POINT('',#1837);
#650=VERTEX_POINT('',#1839);
#651=VERTEX_POINT('',#1840);
#652=VERTEX_POINT('',#1842);
#653=VERTEX_POINT('',#1844);
#654=VERTEX_POINT('',#1846);
#655=VERTEX_POINT('',#1848);
#656=VERTEX_POINT('',#1850);
#657=VERTEX_POINT('',#1852);
#658=VERTEX_POINT('',#1854);
#659=VERTEX_POINT('',#1856);
#660=VERTEX_POINT('',#1858);
#661=VERTEX_POINT('',#1860);
#662=VERTEX_POINT('',#1862);
#663=VERTEX_POINT('',#1864);
#664=VERTEX_POINT('',#1866);
#665=VERTEX_POINT('',#1868);
#666=VERTEX_POINT('',#1871);
#667=VERTEX_POINT('',#1872);
#668=VERTEX_POINT('',#1874);
#669=VERTEX_POINT('',#1876);
#670=VERTEX_POINT('',#1878);
#671=VERTEX_POINT('',#1880);
#672=VERTEX_POINT('',#1882);
#673=VERTEX_POINT('',#1884);
#674=VERTEX_POINT('',#1886);
#675=VERTEX_POINT('',#1888);
#676=VERTEX_POINT('',#1890);
#677=VERTEX_POINT('',#1892);
#678=VERTEX_POINT('',#1894);
#679=VERTEX_POINT('',#1896);
#680=VERTEX_POINT('',#1898);
#681=VERTEX_POINT('',#1900);
#682=VERTEX_POINT('',#1903);
#683=VERTEX_POINT('',#1904);
#684=VERTEX_POINT('',#1906);
#685=VERTEX_POINT('',#1908);
#686=VERTEX_POINT('',#1910);
#687=VERTEX_POINT('',#1912);
#688=VERTEX_POINT('',#1914);
#689=VERTEX_POINT('',#1916);
#690=VERTEX_POINT('',#1918);
#691=VERTEX_POINT('',#1920);
#692=VERTEX_POINT('',#1922);
#693=VERTEX_POINT('',#1924);
#694=VERTEX_POINT('',#1926);
#695=VERTEX_POINT('',#1928);
#696=VERTEX_POINT('',#1930);
#697=VERTEX_POINT('',#1932);
#698=VERTEX_POINT('',#2032);
#699=VERTEX_POINT('',#2036);
#700=VERTEX_POINT('',#2040);
#701=VERTEX_POINT('',#2044);
#702=VERTEX_POINT('',#2048);
#703=VERTEX_POINT('',#2052);
#704=LINE('',#1705,#818);
#705=LINE('',#1708,#819);
#706=LINE('',#1710,#820);
#707=LINE('',#1712,#821);
#708=LINE('',#1714,#822);
#709=LINE('',#1716,#823);
#710=LINE('',#1718,#824);
#711=LINE('',#1720,#825);
#712=LINE('',#1722,#826);
#713=LINE('',#1724,#827);
#714=LINE('',#1726,#828);
#715=LINE('',#1727,#829);
#716=LINE('',#1729,#830);
#717=LINE('',#1732,#831);
#718=LINE('',#1734,#832);
#719=LINE('',#1736,#833);
#720=LINE('',#1740,#834);
#721=LINE('',#1742,#835);
#722=LINE('',#1744,#836);
#723=LINE('',#1748,#837);
#724=LINE('',#1752,#838);
#725=LINE('',#1754,#839);
#726=LINE('',#1756,#840);
#727=LINE('',#1760,#841);
#728=LINE('',#1761,#842);
#729=LINE('',#1764,#843);
#730=LINE('',#1766,#844);
#731=LINE('',#1768,#845);
#732=LINE('',#1772,#846);
#733=LINE('',#1774,#847);
#734=LINE('',#1776,#848);
#735=LINE('',#1780,#849);
#736=LINE('',#1784,#850);
#737=LINE('',#1786,#851);
#738=LINE('',#1788,#852);
#739=LINE('',#1792,#853);
#740=LINE('',#1793,#854);
#741=LINE('',#1796,#855);
#742=LINE('',#1798,#856);
#743=LINE('',#1800,#857);
#744=LINE('',#1804,#858);
#745=LINE('',#1806,#859);
#746=LINE('',#1808,#860);
#747=LINE('',#1812,#861);
#748=LINE('',#1816,#862);
#749=LINE('',#1818,#863);
#750=LINE('',#1820,#864);
#751=LINE('',#1824,#865);
#752=LINE('',#1838,#866);
#753=LINE('',#1841,#867);
#754=LINE('',#1843,#868);
#755=LINE('',#1847,#869);
#756=LINE('',#1849,#870);
#757=LINE('',#1851,#871);
#758=LINE('',#1855,#872);
#759=LINE('',#1859,#873);
#760=LINE('',#1861,#874);
#761=LINE('',#1863,#875);
#762=LINE('',#1867,#876);
#763=LINE('',#1869,#877);
#764=LINE('',#1870,#878);
#765=LINE('',#1873,#879);
#766=LINE('',#1875,#880);
#767=LINE('',#1879,#881);
#768=LINE('',#1881,#882);
#769=LINE('',#1883,#883);
#770=LINE('',#1887,#884);
#771=LINE('',#1891,#885);
#772=LINE('',#1893,#886);
#773=LINE('',#1895,#887);
#774=LINE('',#1899,#888);
#775=LINE('',#1901,#889);
#776=LINE('',#1902,#890);
#777=LINE('',#1905,#891);
#778=LINE('',#1907,#892);
#779=LINE('',#1911,#893);
#780=LINE('',#1913,#894);
#781=LINE('',#1915,#895);
#782=LINE('',#1919,#896);
#783=LINE('',#1923,#897);
#784=LINE('',#1925,#898);
#785=LINE('',#1927,#899);
#786=LINE('',#1931,#900);
#787=LINE('',#1933,#901);
#788=LINE('',#1935,#902);
#789=LINE('',#1938,#903);
#790=LINE('',#1940,#904);
#791=LINE('',#1941,#905);
#792=LINE('',#1943,#906);
#793=LINE('',#1945,#907);
#794=LINE('',#1947,#908);
#795=LINE('',#1949,#909);
#796=LINE('',#1953,#910);
#797=LINE('',#1955,#911);
#798=LINE('',#1967,#912);
#799=LINE('',#1970,#913);
#800=LINE('',#1972,#914);
#801=LINE('',#1973,#915);
#802=LINE('',#1975,#916);
#803=LINE('',#1977,#917);
#804=LINE('',#1979,#918);
#805=LINE('',#1981,#919);
#806=LINE('',#1985,#920);
#807=LINE('',#1987,#921);
#808=LINE('',#1999,#922);
#809=LINE('',#2003,#923);
#810=LINE('',#2005,#924);
#811=LINE('',#2006,#925);
#812=LINE('',#2008,#926);
#813=LINE('',#2009,#927);
#814=LINE('',#2017,#928);
#815=LINE('',#2019,#929);
#816=LINE('',#2021,#930);
#817=LINE('',#2023,#931);
#818=VECTOR('',#1351,1.);
#819=VECTOR('',#1352,1.);
#820=VECTOR('',#1353,1.);
#821=VECTOR('',#1354,1.);
#822=VECTOR('',#1357,1.);
#823=VECTOR('',#1358,1.);
#824=VECTOR('',#1359,1.);
#825=VECTOR('',#1362,1.);
#826=VECTOR('',#1363,1.);
#827=VECTOR('',#1364,1.);
#828=VECTOR('',#1367,1.);
#829=VECTOR('',#1368,1.);
#830=VECTOR('',#1371,1.);
#831=VECTOR('',#1372,1.);
#832=VECTOR('',#1373,1.);
#833=VECTOR('',#1374,1.);
#834=VECTOR('',#1377,1.);
#835=VECTOR('',#1378,1.);
#836=VECTOR('',#1379,1.);
#837=VECTOR('',#1382,1.);
#838=VECTOR('',#1385,1.);
#839=VECTOR('',#1386,1.);
#840=VECTOR('',#1387,1.);
#841=VECTOR('',#1390,1.);
#842=VECTOR('',#1391,1.);
#843=VECTOR('',#1392,1.);
#844=VECTOR('',#1393,1.);
#845=VECTOR('',#1394,1.);
#846=VECTOR('',#1397,1.);
#847=VECTOR('',#1398,1.);
#848=VECTOR('',#1399,1.);
#849=VECTOR('',#1402,1.);
#850=VECTOR('',#1405,1.);
#851=VECTOR('',#1406,1.);
#852=VECTOR('',#1407,1.);
#853=VECTOR('',#1410,1.);
#854=VECTOR('',#1411,1.);
#855=VECTOR('',#1412,1.);
#856=VECTOR('',#1413,1.);
#857=VECTOR('',#1414,1.);
#858=VECTOR('',#1417,1.);
#859=VECTOR('',#1418,1.);
#860=VECTOR('',#1419,1.);
#861=VECTOR('',#1422,1.);
#862=VECTOR('',#1425,1.);
#863=VECTOR('',#1426,1.);
#864=VECTOR('',#1427,1.);
#865=VECTOR('',#1430,1.);
#866=VECTOR('',#1445,1.);
#867=VECTOR('',#1446,1.);
#868=VECTOR('',#1447,1.);
#869=VECTOR('',#1450,1.);
#870=VECTOR('',#1451,1.);
#871=VECTOR('',#1452,1.);
#872=VECTOR('',#1455,1.);
#873=VECTOR('',#1458,1.);
#874=VECTOR('',#1459,1.);
#875=VECTOR('',#1460,1.);
#876=VECTOR('',#1463,1.);
#877=VECTOR('',#1464,1.);
#878=VECTOR('',#1465,1.);
#879=VECTOR('',#1466,1.);
#880=VECTOR('',#1467,1.);
#881=VECTOR('',#1470,1.);
#882=VECTOR('',#1471,1.);
#883=VECTOR('',#1472,1.);
#884=VECTOR('',#1475,1.);
#885=VECTOR('',#1478,1.);
#886=VECTOR('',#1479,1.);
#887=VECTOR('',#1480,1.);
#888=VECTOR('',#1483,1.);
#889=VECTOR('',#1484,1.);
#890=VECTOR('',#1485,1.);
#891=VECTOR('',#1486,1.);
#892=VECTOR('',#1487,1.);
#893=VECTOR('',#1490,1.);
#894=VECTOR('',#1491,1.);
#895=VECTOR('',#1492,1.);
#896=VECTOR('',#1495,1.);
#897=VECTOR('',#1498,1.);
#898=VECTOR('',#1499,1.);
#899=VECTOR('',#1500,1.);
#900=VECTOR('',#1503,1.);
#901=VECTOR('',#1504,1.);
#902=VECTOR('',#1507,1.);
#903=VECTOR('',#1512,1.);
#904=VECTOR('',#1515,1.);
#905=VECTOR('',#1516,1.);
#906=VECTOR('',#1519,1.);
#907=VECTOR('',#1522,1.);
#908=VECTOR('',#1525,1.);
#909=VECTOR('',#1528,1.);
#910=VECTOR('',#1535,1.);
#911=VECTOR('',#1538,1.);
#912=VECTOR('',#1561,1.);
#913=VECTOR('',#1566,1.);
#914=VECTOR('',#1569,1.);
#915=VECTOR('',#1570,1.);
#916=VECTOR('',#1573,1.);
#917=VECTOR('',#1576,1.);
#918=VECTOR('',#1579,1.);
#919=VECTOR('',#1582,1.);
#920=VECTOR('',#1589,1.);
#921=VECTOR('',#1592,1.);
#922=VECTOR('',#1615,1.);
#923=VECTOR('',#1622,1.);
#924=VECTOR('',#1625,1.);
#925=VECTOR('',#1626,1.);
#926=VECTOR('',#1629,1.);
#927=VECTOR('',#1630,1.);
#928=VECTOR('',#1645,1.);
#929=VECTOR('',#1648,1.);
#930=VECTOR('',#1651,1.);
#931=VECTOR('',#1654,1.);
#932=EDGE_LOOP('',(#84,#85,#86,#87));
#933=EDGE_LOOP('',(#88,#89,#90,#91));
#934=EDGE_LOOP('',(#92,#93,#94,#95));
#935=EDGE_LOOP('',(#96,#97,#98,#99));
#936=EDGE_LOOP('',(#100,#101,#102,#103,#104,#105,#106,#107,#108,#109,#110,
#111,#112,#113,#114,#115));
#937=EDGE_LOOP('',(#116,#117,#118,#119,#120,#121,#122,#123,#124,#125,#126,
#127,#128,#129,#130,#131));
#938=EDGE_LOOP('',(#132,#133,#134,#135,#136,#137,#138,#139,#140,#141,#142,
#143,#144,#145,#146,#147));
#939=EDGE_LOOP('',(#148,#149,#150,#151));
#940=EDGE_LOOP('',(#152));
#941=EDGE_LOOP('',(#153));
#942=EDGE_LOOP('',(#154));
#943=EDGE_LOOP('',(#155));
#944=EDGE_LOOP('',(#156));
#945=EDGE_LOOP('',(#157));
#946=EDGE_LOOP('',(#158,#159,#160,#161,#162,#163,#164,#165,#166,#167,#168,
#169,#170,#171,#172,#173));
#947=EDGE_LOOP('',(#174,#175,#176,#177,#178,#179,#180,#181,#182,#183,#184,
#185,#186,#187,#188,#189));
#948=EDGE_LOOP('',(#190,#191,#192,#193,#194,#195,#196,#197,#198,#199,#200,
#201,#202,#203,#204,#205));
#949=EDGE_LOOP('',(#206,#207,#208,#209));
#950=EDGE_LOOP('',(#210,#211,#212,#213));
#951=EDGE_LOOP('',(#214,#215,#216,#217));
#952=EDGE_LOOP('',(#218,#219,#220,#221));
#953=EDGE_LOOP('',(#222,#223,#224,#225));
#954=EDGE_LOOP('',(#226,#227,#228,#229));
#955=EDGE_LOOP('',(#230,#231,#232,#233));
#956=EDGE_LOOP('',(#234,#235,#236,#237));
#957=EDGE_LOOP('',(#238,#239,#240,#241));
#958=EDGE_LOOP('',(#242,#243,#244,#245));
#959=EDGE_LOOP('',(#246,#247,#248,#249));
#960=EDGE_LOOP('',(#250,#251,#252,#253));
#961=EDGE_LOOP('',(#254,#255,#256,#257));
#962=EDGE_LOOP('',(#258,#259,#260,#261));
#963=EDGE_LOOP('',(#262,#263,#264,#265));
#964=EDGE_LOOP('',(#266,#267,#268,#269));
#965=EDGE_LOOP('',(#270,#271,#272,#273));
#966=EDGE_LOOP('',(#274,#275,#276,#277));
#967=EDGE_LOOP('',(#278,#279,#280,#281));
#968=EDGE_LOOP('',(#282,#283,#284,#285));
#969=EDGE_LOOP('',(#286,#287,#288,#289));
#970=EDGE_LOOP('',(#290,#291,#292,#293));
#971=EDGE_LOOP('',(#294,#295,#296,#297));
#972=EDGE_LOOP('',(#298,#299,#300,#301));
#973=EDGE_LOOP('',(#302,#303,#304,#305));
#974=EDGE_LOOP('',(#306,#307,#308,#309));
#975=EDGE_LOOP('',(#310,#311,#312,#313));
#976=EDGE_LOOP('',(#314,#315,#316,#317));
#977=EDGE_LOOP('',(#318,#319,#320,#321));
#978=EDGE_LOOP('',(#322,#323,#324,#325));
#979=EDGE_LOOP('',(#326,#327,#328,#329));
#980=EDGE_LOOP('',(#330,#331,#332,#333));
#981=EDGE_LOOP('',(#334,#335,#336,#337));
#982=EDGE_LOOP('',(#338,#339,#340,#341));
#983=EDGE_LOOP('',(#342,#343,#344,#345));
#984=EDGE_LOOP('',(#346,#347,#348,#349));
#985=EDGE_LOOP('',(#350,#351,#352,#353));
#986=EDGE_LOOP('',(#354,#355,#356,#357));
#987=EDGE_LOOP('',(#358,#359,#360,#361));
#988=EDGE_LOOP('',(#362,#363,#364,#365));
#989=EDGE_LOOP('',(#366,#367,#368,#369));
#990=EDGE_LOOP('',(#370,#371,#372,#373));
#991=EDGE_LOOP('',(#374,#375,#376,#377));
#992=EDGE_LOOP('',(#378,#379,#380,#381));
#993=EDGE_LOOP('',(#382,#383,#384,#385));
#994=EDGE_LOOP('',(#386,#387,#388,#389));
#995=EDGE_LOOP('',(#390,#391,#392,#393));
#996=EDGE_LOOP('',(#394,#395,#396,#397));
#997=EDGE_LOOP('',(#398,#399,#400,#401));
#998=EDGE_LOOP('',(#402));
#999=EDGE_LOOP('',(#403));
#1000=EDGE_LOOP('',(#404));
#1001=EDGE_LOOP('',(#405));
#1002=EDGE_LOOP('',(#406));
#1003=EDGE_LOOP('',(#407));
#1004=EDGE_LOOP('',(#408));
#1005=EDGE_LOOP('',(#409));
#1006=EDGE_LOOP('',(#410));
#1007=EDGE_LOOP('',(#411));
#1008=EDGE_LOOP('',(#412));
#1009=EDGE_LOOP('',(#413));
#1010=EDGE_LOOP('',(#414));
#1011=EDGE_LOOP('',(#415));
#1012=EDGE_LOOP('',(#416));
#1013=EDGE_LOOP('',(#417));
#1014=EDGE_LOOP('',(#418));
#1015=EDGE_LOOP('',(#419));
#1016=FACE_BOUND('',#932,.T.);
#1017=FACE_BOUND('',#933,.T.);
#1018=FACE_BOUND('',#934,.T.);
#1019=FACE_BOUND('',#935,.T.);
#1020=FACE_BOUND('',#936,.T.);
#1021=FACE_BOUND('',#937,.T.);
#1022=FACE_BOUND('',#938,.T.);
#1023=FACE_BOUND('',#939,.T.);
#1024=FACE_BOUND('',#940,.T.);
#1025=FACE_BOUND('',#941,.T.);
#1026=FACE_BOUND('',#942,.T.);
#1027=FACE_BOUND('',#943,.T.);
#1028=FACE_BOUND('',#944,.T.);
#1029=FACE_BOUND('',#945,.T.);
#1030=FACE_BOUND('',#946,.T.);
#1031=FACE_BOUND('',#947,.T.);
#1032=FACE_BOUND('',#948,.T.);
#1033=FACE_BOUND('',#949,.T.);
#1034=FACE_BOUND('',#950,.T.);
#1035=FACE_BOUND('',#951,.T.);
#1036=FACE_BOUND('',#952,.T.);
#1037=FACE_BOUND('',#953,.T.);
#1038=FACE_BOUND('',#954,.T.);
#1039=FACE_BOUND('',#955,.T.);
#1040=FACE_BOUND('',#956,.T.);
#1041=FACE_BOUND('',#957,.T.);
#1042=FACE_BOUND('',#958,.T.);
#1043=FACE_BOUND('',#959,.T.);
#1044=FACE_BOUND('',#960,.T.);
#1045=FACE_BOUND('',#961,.T.);
#1046=FACE_BOUND('',#962,.T.);
#1047=FACE_BOUND('',#963,.T.);
#1048=FACE_BOUND('',#964,.T.);
#1049=FACE_BOUND('',#965,.T.);
#1050=FACE_BOUND('',#966,.T.);
#1051=FACE_BOUND('',#967,.T.);
#1052=FACE_BOUND('',#968,.T.);
#1053=FACE_BOUND('',#969,.T.);
#1054=FACE_BOUND('',#970,.T.);
#1055=FACE_BOUND('',#971,.T.);
#1056=FACE_BOUND('',#972,.T.);
#1057=FACE_BOUND('',#973,.T.);
#1058=FACE_BOUND('',#974,.T.);
#1059=FACE_BOUND('',#975,.T.);
#1060=FACE_BOUND('',#976,.T.);
#1061=FACE_BOUND('',#977,.T.);
#1062=FACE_BOUND('',#978,.T.);
#1063=FACE_BOUND('',#979,.T.);
#1064=FACE_BOUND('',#980,.T.);
#1065=FACE_BOUND('',#981,.T.);
#1066=FACE_BOUND('',#982,.T.);
#1067=FACE_BOUND('',#983,.T.);
#1068=FACE_BOUND('',#984,.T.);
#1069=FACE_BOUND('',#985,.T.);
#1070=FACE_BOUND('',#986,.T.);
#1071=FACE_BOUND('',#987,.T.);
#1072=FACE_BOUND('',#988,.T.);
#1073=FACE_BOUND('',#989,.T.);
#1074=FACE_BOUND('',#990,.T.);
#1075=FACE_BOUND('',#991,.T.);
#1076=FACE_BOUND('',#992,.T.);
#1077=FACE_BOUND('',#993,.T.);
#1078=FACE_BOUND('',#994,.T.);
#1079=FACE_BOUND('',#995,.T.);
#1080=FACE_BOUND('',#996,.T.);
#1081=FACE_BOUND('',#997,.T.);
#1082=FACE_BOUND('',#998,.T.);
#1083=FACE_BOUND('',#999,.T.);
#1084=FACE_BOUND('',#1000,.T.);
#1085=FACE_BOUND('',#1001,.T.);
#1086=FACE_BOUND('',#1002,.T.);
#1087=FACE_BOUND('',#1003,.T.);
#1088=FACE_BOUND('',#1004,.T.);
#1089=FACE_BOUND('',#1005,.T.);
#1090=FACE_BOUND('',#1006,.T.);
#1091=FACE_BOUND('',#1007,.T.);
#1092=FACE_BOUND('',#1008,.T.);
#1093=FACE_BOUND('',#1009,.T.);
#1094=FACE_BOUND('',#1010,.T.);
#1095=FACE_BOUND('',#1011,.T.);
#1096=FACE_BOUND('',#1012,.T.);
#1097=FACE_BOUND('',#1013,.T.);
#1098=FACE_BOUND('',#1014,.T.);
#1099=FACE_BOUND('',#1015,.T.);
#1100=PLANE('',#1227);
#1101=PLANE('',#1228);
#1102=PLANE('',#1229);
#1103=PLANE('',#1230);
#1104=PLANE('',#1231);
#1105=PLANE('',#1244);
#1106=PLANE('',#1263);
#1107=PLANE('',#1265);
#1108=PLANE('',#1266);
#1109=PLANE('',#1267);
#1110=PLANE('',#1268);
#1111=PLANE('',#1269);
#1112=PLANE('',#1270);
#1113=PLANE('',#1272);
#1114=PLANE('',#1274);
#1115=PLANE('',#1276);
#1116=PLANE('',#1283);
#1117=PLANE('',#1284);
#1118=PLANE('',#1285);
#1119=PLANE('',#1287);
#1120=PLANE('',#1288);
#1121=PLANE('',#1289);
#1122=PLANE('',#1290);
#1123=PLANE('',#1291);
#1124=PLANE('',#1292);
#1125=PLANE('',#1294);
#1126=PLANE('',#1296);
#1127=PLANE('',#1298);
#1128=PLANE('',#1305);
#1129=PLANE('',#1306);
#1130=PLANE('',#1311);
#1131=PLANE('',#1312);
#1132=PLANE('',#1313);
#1133=PLANE('',#1314);
#1134=PLANE('',#1315);
#1135=PLANE('',#1317);
#1136=PLANE('',#1319);
#1137=PLANE('',#1320);
#1138=PLANE('',#1321);
#1139=PLANE('',#1322);
#1140=PLANE('',#1323);
#1141=PLANE('',#1328);
#1142=PLANE('',#1331);
#1143=PLANE('',#1334);
#1144=PLANE('',#1337);
#1145=PLANE('',#1340);
#1146=PLANE('',#1343);
#1147=PLANE('',#1346);
#1148=ADVANCED_FACE('',(#1016),#1100,.F.);
#1149=ADVANCED_FACE('',(#1017),#1101,.F.);
#1150=ADVANCED_FACE('',(#1018),#1102,.F.);
#1151=ADVANCED_FACE('',(#1019),#1103,.F.);
#1152=ADVANCED_FACE('',(#1020,#1021,#1022,#1023),#1104,.F.);
#1153=ADVANCED_FACE('',(#1024,#1025,#1026,#1027,#1028,#1029,#1030,#1031,
#1032,#1033),#1105,.T.);
#1154=ADVANCED_FACE('',(#1034),#1106,.T.);
#1155=ADVANCED_FACE('',(#1035),#1107,.F.);
#1156=ADVANCED_FACE('',(#1036),#1108,.F.);
#1157=ADVANCED_FACE('',(#1037),#1109,.T.);
#1158=ADVANCED_FACE('',(#1038),#1110,.F.);
#1159=ADVANCED_FACE('',(#1039),#1111,.F.);
#1160=ADVANCED_FACE('',(#1040),#1112,.F.);
#1161=ADVANCED_FACE('',(#1041),#12,.F.);
#1162=ADVANCED_FACE('',(#1042),#1113,.T.);
#1163=ADVANCED_FACE('',(#1043),#1114,.T.);
#1164=ADVANCED_FACE('',(#1044),#13,.F.);
#1165=ADVANCED_FACE('',(#1045),#1115,.F.);
#1166=ADVANCED_FACE('',(#1046),#14,.F.);
#1167=ADVANCED_FACE('',(#1047),#15,.F.);
#1168=ADVANCED_FACE('',(#1048),#1116,.T.);
#1169=ADVANCED_FACE('',(#1049),#1117,.T.);
#1170=ADVANCED_FACE('',(#1050),#1118,.T.);
#1171=ADVANCED_FACE('',(#1051),#1119,.F.);
#1172=ADVANCED_FACE('',(#1052),#1120,.F.);
#1173=ADVANCED_FACE('',(#1053),#1121,.T.);
#1174=ADVANCED_FACE('',(#1054),#1122,.F.);
#1175=ADVANCED_FACE('',(#1055),#1123,.F.);
#1176=ADVANCED_FACE('',(#1056),#1124,.F.);
#1177=ADVANCED_FACE('',(#1057),#16,.F.);
#1178=ADVANCED_FACE('',(#1058),#1125,.T.);
#1179=ADVANCED_FACE('',(#1059),#1126,.T.);
#1180=ADVANCED_FACE('',(#1060),#17,.F.);
#1181=ADVANCED_FACE('',(#1061),#1127,.F.);
#1182=ADVANCED_FACE('',(#1062),#18,.F.);
#1183=ADVANCED_FACE('',(#1063),#19,.F.);
#1184=ADVANCED_FACE('',(#1064),#1128,.T.);
#1185=ADVANCED_FACE('',(#1065),#1129,.T.);
#1186=ADVANCED_FACE('',(#1066),#20,.F.);
#1187=ADVANCED_FACE('',(#1067),#21,.F.);
#1188=ADVANCED_FACE('',(#1068),#1130,.T.);
#1189=ADVANCED_FACE('',(#1069),#1131,.F.);
#1190=ADVANCED_FACE('',(#1070),#1132,.T.);
#1191=ADVANCED_FACE('',(#1071),#1133,.T.);
#1192=ADVANCED_FACE('',(#1072),#1134,.T.);
#1193=ADVANCED_FACE('',(#1073),#1135,.T.);
#1194=ADVANCED_FACE('',(#1074),#1136,.F.);
#1195=ADVANCED_FACE('',(#1075),#1137,.F.);
#1196=ADVANCED_FACE('',(#1076),#1138,.F.);
#1197=ADVANCED_FACE('',(#1077),#1139,.T.);
#1198=ADVANCED_FACE('',(#1078),#1140,.F.);
#1199=ADVANCED_FACE('',(#1079),#22,.F.);
#1200=ADVANCED_FACE('',(#1080),#23,.F.);
#1201=ADVANCED_FACE('',(#1081),#1141,.F.);
#1202=ADVANCED_FACE('',(#1082,#1083),#24,.T.);
#1203=ADVANCED_FACE('',(#1084),#1142,.T.);
#1204=ADVANCED_FACE('',(#1085,#1086),#25,.T.);
#1205=ADVANCED_FACE('',(#1087),#1143,.T.);
#1206=ADVANCED_FACE('',(#1088,#1089),#26,.T.);
#1207=ADVANCED_FACE('',(#1090),#1144,.T.);
#1208=ADVANCED_FACE('',(#1091,#1092),#27,.T.);
#1209=ADVANCED_FACE('',(#1093),#1145,.F.);
#1210=ADVANCED_FACE('',(#1094,#1095),#28,.T.);
#1211=ADVANCED_FACE('',(#1096),#1146,.F.);
#1212=ADVANCED_FACE('',(#1097,#1098),#29,.T.);
#1213=ADVANCED_FACE('',(#1099),#1147,.F.);
#1214=CLOSED_SHELL('',(#1148,#1149,#1150,#1151,#1152,#1153,#1154,#1155,
#1156,#1157,#1158,#1159,#1160,#1161,#1162,#1163,#1164,#1165,#1166,#1167,
#1168,#1169,#1170,#1171,#1172,#1173,#1174,#1175,#1176,#1177,#1178,#1179,
#1180,#1181,#1182,#1183,#1184,#1185,#1186,#1187,#1188,#1189,#1190,#1191,
#1192,#1193,#1194,#1195,#1196,#1197,#1198,#1199,#1200,#1201,#1202,#1203,
#1204,#1205,#1206,#1207,#1208,#1209,#1210,#1211,#1212,#1213));
#1215=STYLED_ITEM('',(#1216),#1223);
#1216=PRESENTATION_STYLE_ASSIGNMENT((#1217));
#1217=SURFACE_STYLE_USAGE(.BOTH.,#1218);
#1218=SURFACE_SIDE_STYLE('',(#1219));
#1219=SURFACE_STYLE_FILL_AREA(#1220);
#1220=FILL_AREA_STYLE('',(#1221));
#1221=FILL_AREA_STYLE_COLOUR('',#1222);
#1222=DRAUGHTING_PRE_DEFINED_COLOUR('red');
#1223=MANIFOLD_SOLID_BREP('Palm2_2',#1214);
#1224=SHAPE_DEFINITION_REPRESENTATION(#2060,#1225);
#1225=SHAPE_REPRESENTATION('Palm2_2',(#1226),#2055);
#1226=AXIS2_PLACEMENT_3D('',#1703,#1347,#1348);
#1227=AXIS2_PLACEMENT_3D('',#1704,#1349,#1350);
#1228=AXIS2_PLACEMENT_3D('',#1713,#1355,#1356);
#1229=AXIS2_PLACEMENT_3D('',#1719,#1360,#1361);
#1230=AXIS2_PLACEMENT_3D('',#1725,#1365,#1366);
#1231=AXIS2_PLACEMENT_3D('',#1728,#1369,#1370);
#1232=AXIS2_PLACEMENT_3D('',#1738,#1375,#1376);
#1233=AXIS2_PLACEMENT_3D('',#1746,#1380,#1381);
#1234=AXIS2_PLACEMENT_3D('',#1750,#1383,#1384);
#1235=AXIS2_PLACEMENT_3D('',#1758,#1388,#1389);
#1236=AXIS2_PLACEMENT_3D('',#1770,#1395,#1396);
#1237=AXIS2_PLACEMENT_3D('',#1778,#1400,#1401);
#1238=AXIS2_PLACEMENT_3D('',#1782,#1403,#1404);
#1239=AXIS2_PLACEMENT_3D('',#1790,#1408,#1409);
#1240=AXIS2_PLACEMENT_3D('',#1802,#1415,#1416);
#1241=AXIS2_PLACEMENT_3D('',#1810,#1420,#1421);
#1242=AXIS2_PLACEMENT_3D('',#1814,#1423,#1424);
#1243=AXIS2_PLACEMENT_3D('',#1822,#1428,#1429);
#1244=AXIS2_PLACEMENT_3D('',#1825,#1431,#1432);
#1245=AXIS2_PLACEMENT_3D('',#1826,#1433,#1434);
#1246=AXIS2_PLACEMENT_3D('',#1828,#1435,#1436);
#1247=AXIS2_PLACEMENT_3D('',#1830,#1437,#1438);
#1248=AXIS2_PLACEMENT_3D('',#1832,#1439,#1440);
#1249=AXIS2_PLACEMENT_3D('',#1834,#1441,#1442);
#1250=AXIS2_PLACEMENT_3D('',#1836,#1443,#1444);
#1251=AXIS2_PLACEMENT_3D('',#1845,#1448,#1449);
#1252=AXIS2_PLACEMENT_3D('',#1853,#1453,#1454);
#1253=AXIS2_PLACEMENT_3D('',#1857,#1456,#1457);
#1254=AXIS2_PLACEMENT_3D('',#1865,#1461,#1462);
#1255=AXIS2_PLACEMENT_3D('',#1877,#1468,#1469);
#1256=AXIS2_PLACEMENT_3D('',#1885,#1473,#1474);
#1257=AXIS2_PLACEMENT_3D('',#1889,#1476,#1477);
#1258=AXIS2_PLACEMENT_3D('',#1897,#1481,#1482);
#1259=AXIS2_PLACEMENT_3D('',#1909,#1488,#1489);
#1260=AXIS2_PLACEMENT_3D('',#1917,#1493,#1494);
#1261=AXIS2_PLACEMENT_3D('',#1921,#1496,#1497);
#1262=AXIS2_PLACEMENT_3D('',#1929,#1501,#1502);
#1263=AXIS2_PLACEMENT_3D('',#1934,#1505,#1506);
#1264=AXIS2_PLACEMENT_3D('',#1936,#1508,#1509);
#1265=AXIS2_PLACEMENT_3D('',#1937,#1510,#1511);
#1266=AXIS2_PLACEMENT_3D('',#1939,#1513,#1514);
#1267=AXIS2_PLACEMENT_3D('',#1942,#1517,#1518);
#1268=AXIS2_PLACEMENT_3D('',#1944,#1520,#1521);
#1269=AXIS2_PLACEMENT_3D('',#1946,#1523,#1524);
#1270=AXIS2_PLACEMENT_3D('',#1948,#1526,#1527);
#1271=AXIS2_PLACEMENT_3D('',#1950,#1529,#1530);
#1272=AXIS2_PLACEMENT_3D('',#1951,#1531,#1532);
#1273=AXIS2_PLACEMENT_3D('',#1952,#1533,#1534);
#1274=AXIS2_PLACEMENT_3D('',#1954,#1536,#1537);
#1275=AXIS2_PLACEMENT_3D('',#1956,#1539,#1540);
#1276=AXIS2_PLACEMENT_3D('',#1957,#1541,#1542);
#1277=AXIS2_PLACEMENT_3D('',#1958,#1543,#1544);
#1278=AXIS2_PLACEMENT_3D('',#1959,#1545,#1546);
#1279=AXIS2_PLACEMENT_3D('',#1960,#1547,#1548);
#1280=AXIS2_PLACEMENT_3D('',#1961,#1549,#1550);
#1281=AXIS2_PLACEMENT_3D('',#1962,#1551,#1552);
#1282=AXIS2_PLACEMENT_3D('',#1963,#1553,#1554);
#1283=AXIS2_PLACEMENT_3D('',#1964,#1555,#1556);
#1284=AXIS2_PLACEMENT_3D('',#1965,#1557,#1558);
#1285=AXIS2_PLACEMENT_3D('',#1966,#1559,#1560);
#1286=AXIS2_PLACEMENT_3D('',#1968,#1562,#1563);
#1287=AXIS2_PLACEMENT_3D('',#1969,#1564,#1565);
#1288=AXIS2_PLACEMENT_3D('',#1971,#1567,#1568);
#1289=AXIS2_PLACEMENT_3D('',#1974,#1571,#1572);
#1290=AXIS2_PLACEMENT_3D('',#1976,#1574,#1575);
#1291=AXIS2_PLACEMENT_3D('',#1978,#1577,#1578);
#1292=AXIS2_PLACEMENT_3D('',#1980,#1580,#1581);
#1293=AXIS2_PLACEMENT_3D('',#1982,#1583,#1584);
#1294=AXIS2_PLACEMENT_3D('',#1983,#1585,#1586);
#1295=AXIS2_PLACEMENT_3D('',#1984,#1587,#1588);
#1296=AXIS2_PLACEMENT_3D('',#1986,#1590,#1591);
#1297=AXIS2_PLACEMENT_3D('',#1988,#1593,#1594);
#1298=AXIS2_PLACEMENT_3D('',#1989,#1595,#1596);
#1299=AXIS2_PLACEMENT_3D('',#1990,#1597,#1598);
#1300=AXIS2_PLACEMENT_3D('',#1991,#1599,#1600);
#1301=AXIS2_PLACEMENT_3D('',#1992,#1601,#1602);
#1302=AXIS2_PLACEMENT_3D('',#1993,#1603,#1604);
#1303=AXIS2_PLACEMENT_3D('',#1994,#1605,#1606);
#1304=AXIS2_PLACEMENT_3D('',#1995,#1607,#1608);
#1305=AXIS2_PLACEMENT_3D('',#1996,#1609,#1610);
#1306=AXIS2_PLACEMENT_3D('',#1997,#1611,#1612);
#1307=AXIS2_PLACEMENT_3D('',#1998,#1613,#1614);
#1308=AXIS2_PLACEMENT_3D('',#2000,#1616,#1617);
#1309=AXIS2_PLACEMENT_3D('',#2001,#1618,#1619);
#1310=AXIS2_PLACEMENT_3D('',#2002,#1620,#1621);
#1311=AXIS2_PLACEMENT_3D('',#2004,#1623,#1624);
#1312=AXIS2_PLACEMENT_3D('',#2007,#1627,#1628);
#1313=AXIS2_PLACEMENT_3D('',#2010,#1631,#1632);
#1314=AXIS2_PLACEMENT_3D('',#2011,#1633,#1634);
#1315=AXIS2_PLACEMENT_3D('',#2012,#1635,#1636);
#1316=AXIS2_PLACEMENT_3D('',#2013,#1637,#1638);
#1317=AXIS2_PLACEMENT_3D('',#2014,#1639,#1640);
#1318=AXIS2_PLACEMENT_3D('',#2015,#1641,#1642);
#1319=AXIS2_PLACEMENT_3D('',#2016,#1643,#1644);
#1320=AXIS2_PLACEMENT_3D('',#2018,#1646,#1647);
#1321=AXIS2_PLACEMENT_3D('',#2020,#1649,#1650);
#1322=AXIS2_PLACEMENT_3D('',#2022,#1652,#1653);
#1323=AXIS2_PLACEMENT_3D('',#2024,#1655,#1656);
#1324=AXIS2_PLACEMENT_3D('',#2025,#1657,#1658);
#1325=AXIS2_PLACEMENT_3D('',#2026,#1659,#1660);
#1326=AXIS2_PLACEMENT_3D('',#2027,#1661,#1662);
#1327=AXIS2_PLACEMENT_3D('',#2028,#1663,#1664);
#1328=AXIS2_PLACEMENT_3D('',#2029,#1665,#1666);
#1329=AXIS2_PLACEMENT_3D('',#2030,#1667,#1668);
#1330=AXIS2_PLACEMENT_3D('',#2031,#1669,#1670);
#1331=AXIS2_PLACEMENT_3D('',#2033,#1671,#1672);
#1332=AXIS2_PLACEMENT_3D('',#2034,#1673,#1674);
#1333=AXIS2_PLACEMENT_3D('',#2035,#1675,#1676);
#1334=AXIS2_PLACEMENT_3D('',#2037,#1677,#1678);
#1335=AXIS2_PLACEMENT_3D('',#2038,#1679,#1680);
#1336=AXIS2_PLACEMENT_3D('',#2039,#1681,#1682);
#1337=AXIS2_PLACEMENT_3D('',#2041,#1683,#1684);
#1338=AXIS2_PLACEMENT_3D('',#2042,#1685,#1686);
#1339=AXIS2_PLACEMENT_3D('',#2043,#1687,#1688);
#1340=AXIS2_PLACEMENT_3D('',#2045,#1689,#1690);
#1341=AXIS2_PLACEMENT_3D('',#2046,#1691,#1692);
#1342=AXIS2_PLACEMENT_3D('',#2047,#1693,#1694);
#1343=AXIS2_PLACEMENT_3D('',#2049,#1695,#1696);
#1344=AXIS2_PLACEMENT_3D('',#2050,#1697,#1698);
#1345=AXIS2_PLACEMENT_3D('',#2051,#1699,#1700);
#1346=AXIS2_PLACEMENT_3D('',#2053,#1701,#1702);
#1347=DIRECTION('',(0.,0.,1.));
#1348=DIRECTION('',(1.,0.,0.));
#1349=DIRECTION('',(1.,0.,0.));
#1350=DIRECTION('',(0.,1.,0.));
#1351=DIRECTION('',(0.,-1.,0.));
#1352=DIRECTION('',(0.,0.,-1.));
#1353=DIRECTION('',(0.,-1.,0.));
#1354=DIRECTION('',(0.,0.,-1.));
#1355=DIRECTION('',(0.,1.,0.));
#1356=DIRECTION('',(-1.,0.,0.));
#1357=DIRECTION('',(1.,0.,0.));
#1358=DIRECTION('',(0.,0.,-1.));
#1359=DIRECTION('',(1.,0.,0.));
#1360=DIRECTION('',(-1.,0.,0.));
#1361=DIRECTION('',(0.,-1.,0.));
#1362=DIRECTION('',(0.,1.,0.));
#1363=DIRECTION('',(0.,0.,-1.));
#1364=DIRECTION('',(0.,1.,0.));
#1365=DIRECTION('',(0.,-1.,0.));
#1366=DIRECTION('',(1.,0.,0.));
#1367=DIRECTION('',(-1.,0.,0.));
#1368=DIRECTION('',(-1.,0.,0.));
#1369=DIRECTION('',(0.,0.,-1.));
#1370=DIRECTION('',(0.,1.,0.));
#1371=DIRECTION('',(-7.7715611723761E-16,1.,0.));
#1372=DIRECTION('',(-1.,1.61816151996633E-16,0.));
#1373=DIRECTION('',(-7.7715611723761E-16,1.,0.));
#1374=DIRECTION('',(1.,3.45411615177635E-15,0.));
#1375=DIRECTION('',(0.,0.,-1.));
#1376=DIRECTION('',(-1.61816151996633E-16,-1.,0.));
#1377=DIRECTION('',(1.,-1.61816151996633E-16,0.));
#1378=DIRECTION('',(8.58553975259939E-16,-1.,0.));
#1379=DIRECTION('',(-1.,1.61816151996633E-16,0.));
#1380=DIRECTION('',(0.,0.,-1.));
#1381=DIRECTION('',(-1.61816151996633E-16,-1.,0.));
#1382=DIRECTION('',(1.,-1.61816151996633E-16,0.));
#1383=DIRECTION('',(0.,0.,-1.));
#1384=DIRECTION('',(-1.61816151996633E-16,-1.,0.));
#1385=DIRECTION('',(-1.,1.61816151996633E-16,0.));
#1386=DIRECTION('',(8.99252904271103E-16,-1.,0.));
#1387=DIRECTION('',(1.,-1.61816151996633E-16,0.));
#1388=DIRECTION('',(0.,0.,-1.));
#1389=DIRECTION('',(-1.61816151996633E-16,-1.,0.));
#1390=DIRECTION('',(1.,3.45411615177635E-15,0.));
#1391=DIRECTION('',(-1.12410081243297E-15,1.,0.));
#1392=DIRECTION('',(-1.,6.47264607986503E-17,0.));
#1393=DIRECTION('',(-1.12410081243297E-15,1.,0.));
#1394=DIRECTION('',(1.,4.42558631946401E-15,0.));
#1395=DIRECTION('',(0.,0.,-1.));
#1396=DIRECTION('',(-6.47264607986503E-17,-1.,0.));
#1397=DIRECTION('',(1.,-6.47264607986503E-17,0.));
#1398=DIRECTION('',(1.20549867045529E-15,-1.,0.));
#1399=DIRECTION('',(-1.,6.47264607986503E-17,0.));
#1400=DIRECTION('',(0.,0.,-1.));
#1401=DIRECTION('',(-6.47264607986503E-17,-1.,0.));
#1402=DIRECTION('',(1.,-6.47264607986503E-17,0.));
#1403=DIRECTION('',(0.,0.,-1.));
#1404=DIRECTION('',(-6.47264607986503E-17,-1.,0.));
#1405=DIRECTION('',(-1.,6.47264607986503E-17,0.));
#1406=DIRECTION('',(1.24619759946645E-15,-1.,0.));
#1407=DIRECTION('',(1.,-6.47264607986503E-17,0.));
#1408=DIRECTION('',(0.,0.,-1.));
#1409=DIRECTION('',(-6.47264607986503E-17,-1.,0.));
#1410=DIRECTION('',(1.,4.42558631946401E-15,0.));
#1411=DIRECTION('',(-9.99200722162641E-16,1.,0.));
#1412=DIRECTION('',(-1.,3.23632303993252E-17,0.));
#1413=DIRECTION('',(-9.99200722162641E-16,1.,0.));
#1414=DIRECTION('',(1.,4.03429972414554E-15,0.));
#1415=DIRECTION('',(0.,0.,-1.));
#1416=DIRECTION('',(-3.23632303993252E-17,-1.,0.));
#1417=DIRECTION('',(1.,-3.23632303993252E-17,0.));
#1418=DIRECTION('',(1.08059858018496E-15,-1.,0.));
#1419=DIRECTION('',(-1.,3.23632303993252E-17,0.));
#1420=DIRECTION('',(0.,0.,-1.));
#1421=DIRECTION('',(-3.23632303993252E-17,-1.,0.));
#1422=DIRECTION('',(1.,-3.23632303993252E-17,0.));
#1423=DIRECTION('',(0.,0.,-1.));
#1424=DIRECTION('',(-3.23632303993252E-17,-1.,0.));
#1425=DIRECTION('',(-1.,3.23632303993252E-17,0.));
#1426=DIRECTION('',(1.12129750919612E-15,-1.,0.));
#1427=DIRECTION('',(1.,-3.23632303993252E-17,0.));
#1428=DIRECTION('',(0.,0.,-1.));
#1429=DIRECTION('',(-3.23632303993252E-17,-1.,0.));
#1430=DIRECTION('',(1.,4.03429972414554E-15,0.));
#1431=DIRECTION('',(0.,0.,-1.));
#1432=DIRECTION('',(0.,1.,0.));
#1433=DIRECTION('',(0.,0.,-1.));
#1434=DIRECTION('',(0.,-1.,0.));
#1435=DIRECTION('',(0.,0.,-1.));
#1436=DIRECTION('',(0.,-1.,0.));
#1437=DIRECTION('',(0.,0.,-1.));
#1438=DIRECTION('',(0.,-1.,0.));
#1439=DIRECTION('',(0.,0.,-1.));
#1440=DIRECTION('',(0.,1.,0.));
#1441=DIRECTION('',(0.,0.,-1.));
#1442=DIRECTION('',(0.,1.,0.));
#1443=DIRECTION('',(0.,0.,-1.));
#1444=DIRECTION('',(0.,1.,0.));
#1445=DIRECTION('',(-1.,1.61816151996633E-16,0.));
#1446=DIRECTION('',(-7.7715611723761E-16,1.,0.));
#1447=DIRECTION('',(1.,3.45411615177635E-15,0.));
#1448=DIRECTION('',(0.,0.,-1.));
#1449=DIRECTION('',(-1.61816151996633E-16,-1.,0.));
#1450=DIRECTION('',(1.,-1.61816151996633E-16,0.));
#1451=DIRECTION('',(8.99252904271103E-16,-1.,0.));
#1452=DIRECTION('',(-1.,1.61816151996633E-16,0.));
#1453=DIRECTION('',(0.,0.,-1.));
#1454=DIRECTION('',(-1.61816151996633E-16,-1.,0.));
#1455=DIRECTION('',(1.,-1.61816151996633E-16,0.));
#1456=DIRECTION('',(0.,0.,-1.));
#1457=DIRECTION('',(-1.61816151996633E-16,-1.,0.));
#1458=DIRECTION('',(-1.,1.61816151996633E-16,0.));
#1459=DIRECTION('',(8.58553975259939E-16,-1.,0.));
#1460=DIRECTION('',(1.,-1.61816151996633E-16,0.));
#1461=DIRECTION('',(0.,0.,-1.));
#1462=DIRECTION('',(-1.61816151996633E-16,-1.,0.));
#1463=DIRECTION('',(1.,3.45411615177635E-15,0.));
#1464=DIRECTION('',(-7.7715611723761E-16,1.,0.));
#1465=DIRECTION('',(-1.,6.47264607986503E-17,0.));
#1466=DIRECTION('',(-1.12410081243297E-15,1.,0.));
#1467=DIRECTION('',(1.,4.42558631946401E-15,0.));
#1468=DIRECTION('',(0.,0.,-1.));
#1469=DIRECTION('',(-6.47264607986503E-17,-1.,0.));
#1470=DIRECTION('',(1.,-6.47264607986503E-17,0.));
#1471=DIRECTION('',(1.24619759946645E-15,-1.,0.));
#1472=DIRECTION('',(-1.,6.47264607986503E-17,0.));
#1473=DIRECTION('',(0.,0.,-1.));
#1474=DIRECTION('',(-6.47264607986503E-17,-1.,0.));
#1475=DIRECTION('',(1.,-6.47264607986503E-17,0.));
#1476=DIRECTION('',(0.,0.,-1.));
#1477=DIRECTION('',(-6.47264607986503E-17,-1.,0.));
#1478=DIRECTION('',(-1.,6.47264607986503E-17,0.));
#1479=DIRECTION('',(1.20549867045529E-15,-1.,0.));
#1480=DIRECTION('',(1.,-6.47264607986503E-17,0.));
#1481=DIRECTION('',(0.,0.,-1.));
#1482=DIRECTION('',(-6.47264607986503E-17,-1.,0.));
#1483=DIRECTION('',(1.,4.42558631946401E-15,0.));
#1484=DIRECTION('',(-1.12410081243297E-15,1.,0.));
#1485=DIRECTION('',(-1.,3.23632303993252E-17,0.));
#1486=DIRECTION('',(-9.99200722162641E-16,1.,0.));
#1487=DIRECTION('',(1.,4.03429972414554E-15,0.));
#1488=DIRECTION('',(0.,0.,-1.));
#1489=DIRECTION('',(-3.23632303993252E-17,-1.,0.));
#1490=DIRECTION('',(1.,-3.23632303993252E-17,0.));
#1491=DIRECTION('',(1.12129750919612E-15,-1.,0.));
#1492=DIRECTION('',(-1.,3.23632303993252E-17,0.));
#1493=DIRECTION('',(0.,0.,-1.));
#1494=DIRECTION('',(-3.23632303993252E-17,-1.,0.));
#1495=DIRECTION('',(1.,-3.23632303993252E-17,0.));
#1496=DIRECTION('',(0.,0.,-1.));
#1497=DIRECTION('',(-3.23632303993252E-17,-1.,0.));
#1498=DIRECTION('',(-1.,3.23632303993252E-17,0.));
#1499=DIRECTION('',(1.08059858018496E-15,-1.,0.));
#1500=DIRECTION('',(1.,-3.23632303993252E-17,0.));
#1501=DIRECTION('',(0.,0.,-1.));
#1502=DIRECTION('',(-3.23632303993252E-17,-1.,0.));
#1503=DIRECTION('',(1.,4.03429972414554E-15,0.));
#1504=DIRECTION('',(-9.99200722162641E-16,1.,0.));
#1505=DIRECTION('',(2.77555756156289E-17,0.85762685841793,0.514272468366908));
#1506=DIRECTION('',(-1.,-9.99200722162641E-16,1.80769464539019E-15));
#1507=DIRECTION('',(-2.31214581138917E-15,0.514272468366908,-0.85762685841793));
#1508=DIRECTION('',(2.77555756156289E-17,0.85762685841793,0.514272468366908));
#1509=DIRECTION('',(-1.,-9.99200722162641E-16,1.80769464539019E-15));
#1510=DIRECTION('',(1.,1.12129750919612E-15,-2.01130944168479E-15));
#1511=DIRECTION('',(2.31214581138917E-15,-0.514272468366908,0.85762685841793));
#1512=DIRECTION('',(-2.07472927726826E-15,0.514272468366908,-0.85762685841793));
#1513=DIRECTION('',(-2.77555756156289E-17,-0.85762685841793,-0.514272468366908));
#1514=DIRECTION('',(1.,9.99200722162641E-16,-1.80769464539019E-15));
#1515=DIRECTION('',(2.07472927726826E-15,-0.514272468366908,0.85762685841793));
#1516=DIRECTION('',(2.07472927726826E-15,-0.514272468366908,0.85762685841793));
#1517=DIRECTION('',(-1.,-9.99200722162641E-16,1.80769464539019E-15));
#1518=DIRECTION('',(-2.77555756156289E-17,-0.85762685841793,-0.514272468366908));
#1519=DIRECTION('',(2.77555756156289E-17,0.85762685841793,0.514272468366908));
#1520=DIRECTION('',(-1.,-9.99200722162641E-16,1.80769464539019E-15));
#1521=DIRECTION('',(-2.77555756156289E-17,-0.85762685841793,-0.514272468366908));
#1522=DIRECTION('',(2.77555756156289E-17,0.85762685841793,0.514272468366908));
#1523=DIRECTION('',(-2.07472927726826E-15,0.514272468366908,-0.85762685841793));
#1524=DIRECTION('',(2.77555756156289E-17,0.85762685841793,0.514272468366908));
#1525=DIRECTION('',(-2.77555756156289E-17,-0.85762685841793,-0.514272468366908));
#1526=DIRECTION('',(-2.07472927726826E-15,0.514272468366908,-0.85762685841793));
#1527=DIRECTION('',(2.77555756156289E-17,0.85762685841793,0.514272468366908));
#1528=DIRECTION('',(-2.77555756156289E-17,-0.85762685841793,-0.514272468366908));
#1529=DIRECTION('',(-2.77555756156289E-17,-0.85762685841793,-0.514272468366908));
#1530=DIRECTION('',(1.,9.99200722162641E-16,-1.80769464539019E-15));
#1531=DIRECTION('',(2.77555756156289E-17,0.85762685841793,0.514272468366908));
#1532=DIRECTION('',(-1.,-9.99200722162641E-16,1.80769464539019E-15));
#1533=DIRECTION('',(2.77555756156289E-17,0.85762685841793,0.514272468366908));
#1534=DIRECTION('',(-1.,-9.99200722162641E-16,1.80769464539019E-15));
#1535=DIRECTION('',(-2.2330069666822E-15,0.514272468366908,-0.85762685841793));
#1536=DIRECTION('',(1.,1.08059858018496E-15,-1.94343784291992E-15));
#1537=DIRECTION('',(2.2330069666822E-15,-0.514272468366908,0.85762685841793));
#1538=DIRECTION('',(2.39128465609615E-15,-0.514272468366908,0.85762685841793));
#1539=DIRECTION('',(-2.77555756156289E-17,-0.85762685841793,-0.514272468366908));
#1540=DIRECTION('',(1.,9.99200722162641E-16,-1.80769464539019E-15));
#1541=DIRECTION('',(2.77555756156289E-17,0.85762685841793,0.514272468366908));
#1542=DIRECTION('',(-1.,-9.99200722162641E-16,1.80769464539019E-15));
#1543=DIRECTION('',(2.77555756156289E-17,0.85762685841793,0.514272468366908));
#1544=DIRECTION('',(-1.,-9.99200722162641E-16,1.80769464539019E-15));
#1545=DIRECTION('',(2.77555756156289E-17,0.85762685841793,0.514272468366908));
#1546=DIRECTION('',(-1.,-9.99200722162641E-16,1.80769464539019E-15));
#1547=DIRECTION('',(-2.77555756156289E-17,-0.85762685841793,-0.514272468366908));
#1548=DIRECTION('',(1.,9.99200722162641E-16,-1.80769464539019E-15));
#1549=DIRECTION('',(2.77555756156289E-17,0.85762685841793,0.514272468366908));
#1550=DIRECTION('',(-1.,-9.99200722162641E-16,1.80769464539019E-15));
#1551=DIRECTION('',(-2.77555756156289E-17,-0.85762685841793,-0.514272468366908));
#1552=DIRECTION('',(1.,9.99200722162641E-16,-1.80769464539019E-15));
#1553=DIRECTION('',(2.77555756156289E-17,0.85762685841793,0.514272468366908));
#1554=DIRECTION('',(-1.,-9.99200722162641E-16,1.80769464539019E-15));
#1555=DIRECTION('',(-2.77555756156289E-17,-0.85762685841793,-0.514272468366908));
#1556=DIRECTION('',(1.,9.99200722162641E-16,-1.80769464539019E-15));
#1557=DIRECTION('',(-2.77555756156289E-17,-0.85762685841793,-0.514272468366908));
#1558=DIRECTION('',(1.,9.99200722162641E-16,-1.80769464539019E-15));
#1559=DIRECTION('',(5.55111512312578E-17,0.857626858417931,0.514272468366907));
#1560=DIRECTION('',(-1.,-1.12410081243297E-15,1.98064954514904E-15));
#1561=DIRECTION('',(-2.51337373460248E-15,0.514272468366906,-0.857626858417931));
#1562=DIRECTION('',(5.55111512312578E-17,0.857626858417931,0.514272468366907));
#1563=DIRECTION('',(-1.,-1.12410081243297E-15,1.98064954514904E-15));
#1564=DIRECTION('',(1.,1.24619759946645E-15,-2.18426434144364E-15));
#1565=DIRECTION('',(2.51337373460248E-15,-0.514272468366906,0.857626858417931));
#1566=DIRECTION('',(-2.27595720048157E-15,0.514272468366906,-0.857626858417931));
#1567=DIRECTION('',(-5.55111512312578E-17,-0.857626858417931,-0.514272468366907));
#1568=DIRECTION('',(1.,1.12410081243297E-15,-1.98064954514904E-15));
#1569=DIRECTION('',(2.27595720048157E-15,-0.514272468366906,0.857626858417931));
#1570=DIRECTION('',(2.27595720048157E-15,-0.514272468366906,0.857626858417931));
#1571=DIRECTION('',(-1.,-1.12410081243297E-15,1.98064954514904E-15));
#1572=DIRECTION('',(-5.55111512312578E-17,-0.857626858417931,-0.514272468366907));
#1573=DIRECTION('',(5.55111512312578E-17,0.857626858417931,0.514272468366907));
#1574=DIRECTION('',(-1.,-1.12410081243297E-15,1.98064954514904E-15));
#1575=DIRECTION('',(-5.55111512312578E-17,-0.857626858417931,-0.514272468366907));
#1576=DIRECTION('',(5.55111512312578E-17,0.857626858417931,0.514272468366907));
#1577=DIRECTION('',(-2.27595720048157E-15,0.514272468366906,-0.857626858417931));
#1578=DIRECTION('',(5.55111512312578E-17,0.857626858417931,0.514272468366907));
#1579=DIRECTION('',(-5.55111512312578E-17,-0.857626858417931,-0.514272468366907));
#1580=DIRECTION('',(-2.27595720048157E-15,0.514272468366906,-0.857626858417931));
#1581=DIRECTION('',(5.55111512312578E-17,0.857626858417931,0.514272468366907));
#1582=DIRECTION('',(-5.55111512312578E-17,-0.857626858417931,-0.514272468366907));
#1583=DIRECTION('',(-5.55111512312578E-17,-0.857626858417931,-0.514272468366907));
#1584=DIRECTION('',(1.,1.12410081243297E-15,-1.98064954514904E-15));
#1585=DIRECTION('',(5.55111512312578E-17,0.857626858417931,0.514272468366907));
#1586=DIRECTION('',(-1.,-1.12410081243297E-15,1.98064954514904E-15));
#1587=DIRECTION('',(5.55111512312578E-17,0.857626858417931,0.514272468366907));
#1588=DIRECTION('',(-1.,-1.12410081243297E-15,1.98064954514904E-15));
#1589=DIRECTION('',(-2.43423488989551E-15,0.514272468366906,-0.857626858417931));
#1590=DIRECTION('',(1.,1.20549867045529E-15,-2.11639274267877E-15));
#1591=DIRECTION('',(2.43423488989551E-15,-0.514272468366906,0.857626858417931));
#1592=DIRECTION('',(2.59251257930946E-15,-0.514272468366906,0.857626858417931));
#1593=DIRECTION('',(-5.55111512312578E-17,-0.857626858417931,-0.514272468366907));
#1594=DIRECTION('',(1.,1.12410081243297E-15,-1.98064954514904E-15));
#1595=DIRECTION('',(5.55111512312578E-17,0.857626858417931,0.514272468366907));
#1596=DIRECTION('',(-1.,-1.12410081243297E-15,1.98064954514904E-15));
#1597=DIRECTION('',(5.55111512312578E-17,0.857626858417931,0.514272468366907));
#1598=DIRECTION('',(-1.,-1.12410081243297E-15,1.98064954514904E-15));
#1599=DIRECTION('',(5.55111512312578E-17,0.857626858417931,0.514272468366907));
#1600=DIRECTION('',(-1.,-1.12410081243297E-15,1.98064954514904E-15));
#1601=DIRECTION('',(-5.55111512312578E-17,-0.857626858417931,-0.514272468366907));
#1602=DIRECTION('',(1.,1.12410081243297E-15,-1.98064954514904E-15));
#1603=DIRECTION('',(5.55111512312578E-17,0.857626858417931,0.514272468366907));
#1604=DIRECTION('',(-1.,-1.12410081243297E-15,1.98064954514904E-15));
#1605=DIRECTION('',(-5.55111512312578E-17,-0.857626858417931,-0.514272468366907));
#1606=DIRECTION('',(1.,1.12410081243297E-15,-1.98064954514904E-15));
#1607=DIRECTION('',(5.55111512312578E-17,0.857626858417931,0.514272468366907));
#1608=DIRECTION('',(-1.,-1.12410081243297E-15,1.98064954514904E-15));
#1609=DIRECTION('',(-5.55111512312578E-17,-0.857626858417931,-0.514272468366907));
#1610=DIRECTION('',(1.,1.12410081243297E-15,-1.98064954514904E-15));
#1611=DIRECTION('',(-5.55111512312578E-17,-0.857626858417931,-0.514272468366907));
#1612=DIRECTION('',(1.,1.12410081243297E-15,-1.98064954514904E-15));
#1613=DIRECTION('',(-1.38777878078145E-16,-0.857626858417891,-0.514272468366973));
#1614=DIRECTION('',(1.,7.7715611723761E-16,-1.60538304563143E-15));
#1615=DIRECTION('',(-1.38777878078145E-16,-0.857626858417891,-0.514272468366973));
#1616=DIRECTION('',(1.38777878078145E-16,0.857626858417891,0.514272468366973));
#1617=DIRECTION('',(-1.,-7.7715611723761E-16,1.60538304563143E-15));
#1618=DIRECTION('',(-1.38777878078145E-16,-0.857626858417891,-0.514272468366973));
#1619=DIRECTION('',(1.,7.7715611723761E-16,-1.60538304563143E-15));
#1620=DIRECTION('',(1.38777878078145E-16,0.857626858417891,0.514272468366973));
#1621=DIRECTION('',(-1.,-7.7715611723761E-16,1.60538304563143E-15));
#1622=DIRECTION('',(-1.38777878078145E-16,-0.857626858417891,-0.514272468366973));
#1623=DIRECTION('',(1.,8.58553975259939E-16,-1.74112624316115E-15));
#1624=DIRECTION('',(1.93463452881419E-15,-0.514272468366973,0.857626858417891));
#1625=DIRECTION('',(-1.93463452881419E-15,0.514272468366973,-0.857626858417891));
#1626=DIRECTION('',(2.09291221822813E-15,-0.514272468366973,0.857626858417891));
#1627=DIRECTION('',(1.,8.99252904271103E-16,-1.80899784192601E-15));
#1628=DIRECTION('',(2.01377337352116E-15,-0.514272468366973,0.857626858417891));
#1629=DIRECTION('',(-1.77635683940025E-15,0.514272468366973,-0.857626858417891));
#1630=DIRECTION('',(-2.01377337352116E-15,0.514272468366973,-0.857626858417891));
#1631=DIRECTION('',(1.38777878078145E-16,0.857626858417891,0.514272468366973));
#1632=DIRECTION('',(-1.,-7.7715611723761E-16,1.60538304563143E-15));
#1633=DIRECTION('',(1.38777878078145E-16,0.857626858417891,0.514272468366973));
#1634=DIRECTION('',(-1.,-7.7715611723761E-16,1.60538304563143E-15));
#1635=DIRECTION('',(-1.38777878078145E-16,-0.857626858417891,-0.514272468366973));
#1636=DIRECTION('',(1.,7.7715611723761E-16,-1.60538304563143E-15));
#1637=DIRECTION('',(1.38777878078145E-16,0.857626858417891,0.514272468366973));
#1638=DIRECTION('',(-1.,-7.7715611723761E-16,1.60538304563143E-15));
#1639=DIRECTION('',(-1.38777878078145E-16,-0.857626858417891,-0.514272468366973));
#1640=DIRECTION('',(1.,7.7715611723761E-16,-1.60538304563143E-15));
#1641=DIRECTION('',(1.38777878078145E-16,0.857626858417891,0.514272468366973));
#1642=DIRECTION('',(-1.,-7.7715611723761E-16,1.60538304563143E-15));
#1643=DIRECTION('',(-1.77635683940025E-15,0.514272468366973,-0.857626858417891));
#1644=DIRECTION('',(1.38777878078145E-16,0.857626858417891,0.514272468366973));
#1645=DIRECTION('',(1.38777878078145E-16,0.857626858417891,0.514272468366973));
#1646=DIRECTION('',(-1.77635683940025E-15,0.514272468366973,-0.857626858417891));
#1647=DIRECTION('',(1.38777878078145E-16,0.857626858417891,0.514272468366973));
#1648=DIRECTION('',(1.38777878078145E-16,0.857626858417891,0.514272468366973));
#1649=DIRECTION('',(-1.,-7.7715611723761E-16,1.60538304563143E-15));
#1650=DIRECTION('',(-1.38777878078145E-16,-0.857626858417891,-0.514272468366973));
#1651=DIRECTION('',(1.77635683940025E-15,-0.514272468366973,0.857626858417891));
#1652=DIRECTION('',(-1.,-7.7715611723761E-16,1.60538304563143E-15));
#1653=DIRECTION('',(-1.38777878078145E-16,-0.857626858417891,-0.514272468366973));
#1654=DIRECTION('',(1.77635683940025E-15,-0.514272468366973,0.857626858417891));
#1655=DIRECTION('',(-1.38777878078145E-16,-0.857626858417891,-0.514272468366973));
#1656=DIRECTION('',(1.,7.7715611723761E-16,-1.60538304563143E-15));
#1657=DIRECTION('',(-1.38777878078145E-16,-0.857626858417891,-0.514272468366973));
#1658=DIRECTION('',(1.,7.7715611723761E-16,-1.60538304563143E-15));
#1659=DIRECTION('',(1.38777878078145E-16,0.857626858417891,0.514272468366973));
#1660=DIRECTION('',(-1.,-7.7715611723761E-16,1.60538304563143E-15));
#1661=DIRECTION('',(-1.38777878078145E-16,-0.857626858417891,-0.514272468366973));
#1662=DIRECTION('',(1.,7.7715611723761E-16,-1.60538304563143E-15));
#1663=DIRECTION('',(1.38777878078145E-16,0.857626858417891,0.514272468366973));
#1664=DIRECTION('',(-1.,-7.7715611723761E-16,1.60538304563143E-15));
#1665=DIRECTION('',(1.38777878078145E-16,0.857626858417891,0.514272468366973));
#1666=DIRECTION('',(-1.,-7.7715611723761E-16,1.60538304563143E-15));
#1667=DIRECTION('',(0.,0.,1.));
#1668=DIRECTION('',(0.,-1.,0.));
#1669=DIRECTION('',(0.,0.,-1.));
#1670=DIRECTION('',(0.,1.,0.));
#1671=DIRECTION('',(0.,0.,-1.));
#1672=DIRECTION('',(0.,1.,0.));
#1673=DIRECTION('',(0.,0.,1.));
#1674=DIRECTION('',(0.,-1.,0.));
#1675=DIRECTION('',(0.,0.,-1.));
#1676=DIRECTION('',(0.,1.,0.));
#1677=DIRECTION('',(0.,0.,-1.));
#1678=DIRECTION('',(0.,1.,0.));
#1679=DIRECTION('',(0.,0.,1.));
#1680=DIRECTION('',(0.,-1.,0.));
#1681=DIRECTION('',(0.,0.,-1.));
#1682=DIRECTION('',(0.,1.,0.));
#1683=DIRECTION('',(0.,0.,-1.));
#1684=DIRECTION('',(0.,1.,0.));
#1685=DIRECTION('',(0.,0.,1.));
#1686=DIRECTION('',(0.,-1.,0.));
#1687=DIRECTION('',(0.,0.,-1.));
#1688=DIRECTION('',(0.,-1.,0.));
#1689=DIRECTION('',(0.,0.,1.));
#1690=DIRECTION('',(0.,-1.,0.));
#1691=DIRECTION('',(0.,0.,1.));
#1692=DIRECTION('',(0.,-1.,0.));
#1693=DIRECTION('',(0.,0.,-1.));
#1694=DIRECTION('',(0.,-1.,0.));
#1695=DIRECTION('',(0.,0.,1.));
#1696=DIRECTION('',(0.,-1.,0.));
#1697=DIRECTION('',(0.,0.,1.));
#1698=DIRECTION('',(0.,-1.,0.));
#1699=DIRECTION('',(0.,0.,-1.));
#1700=DIRECTION('',(0.,-1.,0.));
#1701=DIRECTION('',(0.,0.,1.));
#1702=DIRECTION('',(0.,-1.,0.));
#1703=CARTESIAN_POINT('',(0.,0.,0.));
#1704=CARTESIAN_POINT('',(0.,0.,0.0006));
#1705=CARTESIAN_POINT('',(0.,0.,0.));
#1706=CARTESIAN_POINT('',(0.,0.065,0.));
#1707=CARTESIAN_POINT('',(0.,0.,0.));
#1708=CARTESIAN_POINT('',(0.,0.,0.0006));
#1709=CARTESIAN_POINT('',(0.,0.,0.0006));
#1710=CARTESIAN_POINT('',(0.,0.,0.0006));
#1711=CARTESIAN_POINT('',(0.,0.065,0.0006));
#1712=CARTESIAN_POINT('',(0.,0.065,0.0006));
#1713=CARTESIAN_POINT('',(0.,0.,0.0006));
#1714=CARTESIAN_POINT('',(0.,0.,0.));
#1715=CARTESIAN_POINT('',(0.018,0.,0.));
#1716=CARTESIAN_POINT('',(0.018,0.,0.0006));
#1717=CARTESIAN_POINT('',(0.018,0.,0.0006));
#1718=CARTESIAN_POINT('',(0.,0.,0.0006));
#1719=CARTESIAN_POINT('',(0.018,0.,0.0006));
#1720=CARTESIAN_POINT('',(0.018,0.,0.));
#1721=CARTESIAN_POINT('',(0.018,0.065,0.));
#1722=CARTESIAN_POINT('',(0.018,0.065,0.0006));
#1723=CARTESIAN_POINT('',(0.018,0.065,0.0006));
#1724=CARTESIAN_POINT('',(0.018,0.,0.0006));
#1725=CARTESIAN_POINT('',(0.,0.065,0.0006));
#1726=CARTESIAN_POINT('',(0.,0.065,0.));
#1727=CARTESIAN_POINT('',(0.,0.065,0.0006));
#1728=CARTESIAN_POINT('',(0.,0.,0.0006));
#1729=CARTESIAN_POINT('',(0.0151363705778562,1.17633229873563E-17,0.0006));
#1730=CARTESIAN_POINT('',(0.0151363705778562,0.0501344948406072,0.0006));
#1731=CARTESIAN_POINT('',(0.0151363705778562,0.05220501855437,0.0006));
#1732=CARTESIAN_POINT('',(8.11257103740212E-18,0.0501344948406072,0.0006));
#1733=CARTESIAN_POINT('',(0.00643200206648411,0.0501344948406071,0.0006));
#1734=CARTESIAN_POINT('',(0.00643200206648415,4.9986697520531E-18,0.0006));
#1735=CARTESIAN_POINT('',(0.00643200206648411,0.05220501855437,0.0006));
#1736=CARTESIAN_POINT('',(-1.80322197792433E-16,0.05220501855437,0.0006));
#1737=CARTESIAN_POINT('',(0.00668200206648411,0.05220501855437,0.0006));
#1738=CARTESIAN_POINT('',(0.0103118678641597,0.0618302664618038,0.0006));
#1739=CARTESIAN_POINT('',(0.00585038611053778,0.0536325196174131,0.0006));
#1740=CARTESIAN_POINT('',(8.67860794637373E-18,0.0536325196174131,0.0006));
#1741=CARTESIAN_POINT('',(0.00417359239713031,0.0536325196174131,0.0006));
#1742=CARTESIAN_POINT('',(0.00417359239713035,3.58325434367092E-18,0.0006));
#1743=CARTESIAN_POINT('',(0.0041735923971303,0.0594858810772683,0.0006));
#1744=CARTESIAN_POINT('',(9.6257763740529E-18,0.0594858810772683,0.0006));
#1745=CARTESIAN_POINT('',(0.00621326935264984,0.0594858810772683,0.0006));
#1746=CARTESIAN_POINT('',(0.0107216529351365,0.0623941698745625,0.0006));
#1747=CARTESIAN_POINT('',(0.0060592462277414,0.0606285691710249,0.0006));
#1748=CARTESIAN_POINT('',(9.81068176431696E-18,0.0606285691710249,0.0006));
#1749=CARTESIAN_POINT('',(0.0153840596425316,0.0606285691710249,0.0006));
#1750=CARTESIAN_POINT('',(0.0107216529351365,0.0623941698745625,0.0006));
#1751=CARTESIAN_POINT('',(0.0152300365176232,0.0594858810772683,0.0006));
#1752=CARTESIAN_POINT('',(9.6257763740529E-18,0.0594858810772683,0.0006));
#1753=CARTESIAN_POINT('',(0.0171735923971303,0.0594858810772683,0.0006));
#1754=CARTESIAN_POINT('',(0.0171735923971304,1.54434028398876E-17,0.0006));
#1755=CARTESIAN_POINT('',(0.0171735923971303,0.0536325196174131,0.0006));
#1756=CARTESIAN_POINT('',(8.67860794637373E-18,0.0536325196174131,0.0006));
#1757=CARTESIAN_POINT('',(0.0156209546972622,0.0536325196174131,0.0006));
#1758=CARTESIAN_POINT('',(0.0106735923971303,0.0618302664618038,0.0006));
#1759=CARTESIAN_POINT('',(0.0148863705778562,0.05220501855437,0.0006));
#1760=CARTESIAN_POINT('',(-1.80322197792433E-16,0.05220501855437,0.0006));
#1761=CARTESIAN_POINT('',(0.0151363705778562,1.70148064638547E-17,0.0006));
#1762=CARTESIAN_POINT('',(0.0151363705778562,0.0302034259413688,0.0006));
#1763=CARTESIAN_POINT('',(0.0151363705778562,0.0322739497133948,0.0006));
#1764=CARTESIAN_POINT('',(1.95496086517894E-18,0.0302034259413687,0.0006));
#1765=CARTESIAN_POINT('',(0.00643200206648411,0.0302034259413688,0.0006));
#1766=CARTESIAN_POINT('',(0.00643200206648414,7.23021874850537E-18,0.0006));
#1767=CARTESIAN_POINT('',(0.00643200206648411,0.0322739497133948,0.0006));
#1768=CARTESIAN_POINT('',(-1.42831150326669E-16,0.0322739497133947,0.0006));
#1769=CARTESIAN_POINT('',(0.00668200206648411,0.0322739497133948,0.0006));
#1770=CARTESIAN_POINT('',(0.0103118678641597,0.0418991976208298,0.0006));
#1771=CARTESIAN_POINT('',(0.00585038613885161,0.0337014507181745,0.0006));
#1772=CARTESIAN_POINT('',(2.18137562876757E-18,0.0337014507181745,0.0006));
#1773=CARTESIAN_POINT('',(0.00417359239713031,0.0337014507181745,0.0006));
#1774=CARTESIAN_POINT('',(0.00417359239713035,5.03126008576294E-18,0.0006));
#1775=CARTESIAN_POINT('',(0.0041735923971303,0.0395548121780295,0.0006));
#1776=CARTESIAN_POINT('',(2.5602429998392E-18,0.0395548121780295,0.0006));
#1777=CARTESIAN_POINT('',(0.00621326936259032,0.0395548121780295,0.0006));
#1778=CARTESIAN_POINT('',(0.0107216529351365,0.0424631010335886,0.0006));
#1779=CARTESIAN_POINT('',(0.00605924623357686,0.040697500271786,0.0006));
#1780=CARTESIAN_POINT('',(2.63420515594482E-18,0.040697500271786,0.0006));
#1781=CARTESIAN_POINT('',(0.0153840596366962,0.040697500271786,0.0006));
#1782=CARTESIAN_POINT('',(0.0107216529351365,0.0424631010335886,0.0006));
#1783=CARTESIAN_POINT('',(0.0152300365076827,0.0395548121780295,0.0006));
#1784=CARTESIAN_POINT('',(2.5602429998392E-18,0.0395548121780295,0.0006));
#1785=CARTESIAN_POINT('',(0.0171735923971303,0.0395548121780295,0.0006));
#1786=CARTESIAN_POINT('',(0.0171735923971303,2.14016896195191E-17,0.0006));
#1787=CARTESIAN_POINT('',(0.0171735923971303,0.0337014507181745,0.0006));
#1788=CARTESIAN_POINT('',(2.18137562876757E-18,0.0337014507181745,0.0006));
#1789=CARTESIAN_POINT('',(0.0156209546717291,0.0337014507181745,0.0006));
#1790=CARTESIAN_POINT('',(0.0106735923971303,0.0418991976208298,0.0006));
#1791=CARTESIAN_POINT('',(0.0148863705778562,0.0322739497133948,0.0006));
#1792=CARTESIAN_POINT('',(-1.42831150326669E-16,0.0322739497133947,0.0006));
#1793=CARTESIAN_POINT('',(0.0151364263583942,1.51243281482691E-17,0.0006));
#1794=CARTESIAN_POINT('',(0.0151364263583942,0.0102723570421082,0.0006));
#1795=CARTESIAN_POINT('',(0.0151364263583942,0.0123428808141364,0.0006));
#1796=CARTESIAN_POINT('',(3.32446657697877E-19,0.0102723570421082,0.0006));
#1797=CARTESIAN_POINT('',(0.00643205784702209,0.0102723570421082,0.0006));
#1798=CARTESIAN_POINT('',(0.0064320578470221,6.42691684573636E-18,0.0006));
#1799=CARTESIAN_POINT('',(0.00643205784702209,0.0123428808141364,0.0006));
#1800=CARTESIAN_POINT('',(-4.97948806636316E-17,0.0123428808141364,0.0006));
#1801=CARTESIAN_POINT('',(0.00668205784702209,0.0123428808141364,0.0006));
#1802=CARTESIAN_POINT('',(0.0103119236446977,0.0219681287215714,0.0006));
#1803=CARTESIAN_POINT('',(0.00585044191939066,0.0137703818189139,0.0006));
#1804=CARTESIAN_POINT('',(4.4565403949219E-19,0.0137703818189139,0.0006));
#1805=CARTESIAN_POINT('',(0.00417364817766828,0.0137703818189139,0.0006));
#1806=CARTESIAN_POINT('',(0.0041736481776683,4.51003829497991E-18,0.0006));
#1807=CARTESIAN_POINT('',(0.00417364817766828,0.0196237432787689,0.0006));
#1808=CARTESIAN_POINT('',(6.35087725028006E-19,0.0196237432787689,0.0006));
#1809=CARTESIAN_POINT('',(0.00621332514312868,0.0196237432787689,0.0006));
#1810=CARTESIAN_POINT('',(0.0107217087156745,0.0225320321343302,0.0006));
#1811=CARTESIAN_POINT('',(0.00605930201411506,0.0207664313725254,0.0006));
#1812=CARTESIAN_POINT('',(6.72068803080815E-19,0.0207664313725254,0.0006));
#1813=CARTESIAN_POINT('',(0.0153841154172339,0.0207664313725254,0.0006));
#1814=CARTESIAN_POINT('',(0.0107217087156745,0.0225320321343302,0.0006));
#1815=CARTESIAN_POINT('',(0.0152300922882203,0.0196237432787689,0.0006));
#1816=CARTESIAN_POINT('',(6.35087725028006E-19,0.0196237432787689,0.0006));
#1817=CARTESIAN_POINT('',(0.0171736481776683,0.0196237432787689,0.0006));
#1818=CARTESIAN_POINT('',(0.0171736481776683,1.92567689254299E-17,0.0006));
#1819=CARTESIAN_POINT('',(0.0171736481776683,0.0137703818189139,0.0006));
#1820=CARTESIAN_POINT('',(4.4565403949219E-19,0.0137703818189139,0.0006));
#1821=CARTESIAN_POINT('',(0.0156210104522661,0.0137703818189139,0.0006));
#1822=CARTESIAN_POINT('',(0.0106736481776683,0.0219681287215714,0.0006));
#1823=CARTESIAN_POINT('',(0.0148864263583942,0.0123428808141364,0.0006));
#1824=CARTESIAN_POINT('',(-4.97948806636316E-17,0.0123428808141364,0.0006));
#1825=CARTESIAN_POINT('',(0.,0.,0.));
#1826=CARTESIAN_POINT('',(0.00549,0.00349,0.));
#1827=CARTESIAN_POINT('',(0.00549,0.00249,0.));
#1828=CARTESIAN_POINT('',(0.00549,0.02615,0.));
#1829=CARTESIAN_POINT('',(0.00549,0.02515,0.));
#1830=CARTESIAN_POINT('',(0.00549,0.04535,0.));
#1831=CARTESIAN_POINT('',(0.00549,0.04435,0.));
#1832=CARTESIAN_POINT('',(0.01585,0.04535,0.));
#1833=CARTESIAN_POINT('',(0.01585,0.04635,0.));
#1834=CARTESIAN_POINT('',(0.01585,0.02615,0.));
#1835=CARTESIAN_POINT('',(0.01585,0.02715,0.));
#1836=CARTESIAN_POINT('',(0.01585,0.00349,0.));
#1837=CARTESIAN_POINT('',(0.01585,0.00449,0.));
#1838=CARTESIAN_POINT('',(8.17079047707485E-18,0.0504942824078825,0.));
#1839=CARTESIAN_POINT('',(0.0151363705778562,0.0504942824078825,1.73472347597681E-18));
#1840=CARTESIAN_POINT('',(0.00643200206648411,0.0504942824078825,0.));
#1841=CARTESIAN_POINT('',(0.0151363705778562,1.17633229873563E-17,0.));
#1842=CARTESIAN_POINT('',(0.0151363705778562,0.0512044281150554,-2.98155597433514E-19));
#1843=CARTESIAN_POINT('',(-1.76866042194683E-16,0.0512044281150553,0.));
#1844=CARTESIAN_POINT('',(0.0148863705778562,0.0512044281150554,1.73472347597681E-18));
#1845=CARTESIAN_POINT('',(0.0106735923971303,0.0608296760224891,0.));
#1846=CARTESIAN_POINT('',(0.0161403868348027,0.0539923071846884,-1.73472347597681E-18));
#1847=CARTESIAN_POINT('',(8.73682738604646E-18,0.0539923071846884,0.));
#1848=CARTESIAN_POINT('',(0.0171735923971303,0.0539923071846884,0.));
#1849=CARTESIAN_POINT('',(0.0171735923971304,1.54434028398876E-17,0.));
#1850=CARTESIAN_POINT('',(0.0171735923971303,0.0598456686445437,-4.66206934168767E-18));
#1851=CARTESIAN_POINT('',(9.68399581372563E-18,0.0598456686445437,0.));
#1852=CARTESIAN_POINT('',(0.0154044734245312,0.0598456686445437,0.));
#1853=CARTESIAN_POINT('',(0.0107216529351365,0.0613935794352479,0.));
#1854=CARTESIAN_POINT('',(0.0154670793201316,0.0609883567383003,-3.84891771232354E-18));
#1855=CARTESIAN_POINT('',(9.8689012039897E-18,0.0609883567383003,0.));
#1856=CARTESIAN_POINT('',(0.00597622655014139,0.0609883567383003,-3.84891771232354E-18));
#1857=CARTESIAN_POINT('',(0.0107216529351365,0.0613935794352479,0.));
#1858=CARTESIAN_POINT('',(0.00603883244574182,0.0598456686445437,0.));
#1859=CARTESIAN_POINT('',(9.68399581372563E-18,0.0598456686445437,0.));
#1860=CARTESIAN_POINT('',(0.0041735923971303,0.0598456686445437,-5.20417042793042E-18));
#1861=CARTESIAN_POINT('',(0.00417359239713035,3.58325434367092E-18,0.));
#1862=CARTESIAN_POINT('',(0.0041735923971303,0.0539923071846884,3.03576608295941E-18));
#1863=CARTESIAN_POINT('',(8.73682738604646E-18,0.0539923071846884,0.));
#1864=CARTESIAN_POINT('',(0.00528053929877058,0.0539923071846884,-1.73472347597681E-18));
#1865=CARTESIAN_POINT('',(0.0103118678641597,0.0608296760224891,0.));
#1866=CARTESIAN_POINT('',(0.00668200206648411,0.0512044281150554,-1.30104260698261E-18));
#1867=CARTESIAN_POINT('',(-1.76866042194683E-16,0.0512044281150553,0.));
#1868=CARTESIAN_POINT('',(0.00643200206648411,0.0512044281150554,-1.0842021724855E-19));
#1869=CARTESIAN_POINT('',(0.00643200206648415,4.9986697520531E-18,0.));
#1870=CARTESIAN_POINT('',(1.97824864104803E-18,0.030563213508644,0.));
#1871=CARTESIAN_POINT('',(0.0151363705778562,0.030563213508644,1.73472347597681E-18));
#1872=CARTESIAN_POINT('',(0.00643200206648411,0.0305632135086441,3.46944695195361E-18));
#1873=CARTESIAN_POINT('',(0.0151363705778562,1.70148064638547E-17,0.));
#1874=CARTESIAN_POINT('',(0.0151363705778562,0.03127335927408,1.27393755267047E-18));
#1875=CARTESIAN_POINT('',(-1.38402950967051E-16,0.0312733592740799,0.));
#1876=CARTESIAN_POINT('',(0.0148863705778562,0.03127335927408,3.03576608295941E-18));
#1877=CARTESIAN_POINT('',(0.0106735923971303,0.040898607181515,0.));
#1878=CARTESIAN_POINT('',(0.0161403868155301,0.0340612382854498,4.33680868994202E-19));
#1879=CARTESIAN_POINT('',(2.20466340463665E-18,0.0340612382854498,0.));
#1880=CARTESIAN_POINT('',(0.0171735923971303,0.0340612382854498,-4.33680868994202E-19));
#1881=CARTESIAN_POINT('',(0.0171735923971303,2.14016896195191E-17,0.));
#1882=CARTESIAN_POINT('',(0.0171735923971303,0.0399145997453048,1.62630325872826E-19));
#1883=CARTESIAN_POINT('',(2.58353077570829E-18,0.0399145997453048,0.));
#1884=CARTESIAN_POINT('',(0.0154044734194375,0.0399145997453048,0.));
#1885=CARTESIAN_POINT('',(0.0107216529351365,0.0414625105942738,0.));
#1886=CARTESIAN_POINT('',(0.0154670793188158,0.0410572878390613,1.57209315010398E-18));
#1887=CARTESIAN_POINT('',(2.6574929318139E-18,0.0410572878390613,0.));
#1888=CARTESIAN_POINT('',(0.00597622655145725,0.0410572878390613,1.57209315010398E-18));
#1889=CARTESIAN_POINT('',(0.0107216529351365,0.0414625105942738,0.));
#1890=CARTESIAN_POINT('',(0.00603883245083547,0.0399145997453048,5.42101086242752E-20));
#1891=CARTESIAN_POINT('',(2.58353077570829E-18,0.0399145997453048,0.));
#1892=CARTESIAN_POINT('',(0.0041735923971303,0.0399145997453048,0.));
#1893=CARTESIAN_POINT('',(0.00417359239713034,5.03126008576294E-18,0.));
#1894=CARTESIAN_POINT('',(0.0041735923971303,0.0340612382854498,8.67361737988404E-19));
#1895=CARTESIAN_POINT('',(2.20466340463665E-18,0.0340612382854498,0.));
#1896=CARTESIAN_POINT('',(0.00528053931971122,0.0340612382854498,8.67361737988404E-19));
#1897=CARTESIAN_POINT('',(0.0103118678641597,0.040898607181515,0.));
#1898=CARTESIAN_POINT('',(0.00668200206648411,0.03127335927408,3.46944695195361E-18));
#1899=CARTESIAN_POINT('',(-1.38402950967051E-16,0.0312733592740799,0.));
#1900=CARTESIAN_POINT('',(0.00643200206648411,0.03127335927408,-1.62630325872826E-19));
#1901=CARTESIAN_POINT('',(0.00643200206648414,7.23021874850537E-18,0.));
#1902=CARTESIAN_POINT('',(3.4409054563242E-19,0.0106321446093835,0.));
#1903=CARTESIAN_POINT('',(0.0151364263583942,0.0106321446093835,0.));
#1904=CARTESIAN_POINT('',(0.00643205784702209,0.0106321446093835,8.67361737988404E-19));
#1905=CARTESIAN_POINT('',(0.0151364263583942,1.51243281482691E-17,0.));
#1906=CARTESIAN_POINT('',(0.0151364263583942,0.0113422903748216,-2.71050543121376E-20));
#1907=CARTESIAN_POINT('',(-4.57581989303212E-17,0.0113422903748216,0.));
#1908=CARTESIAN_POINT('',(0.0148864263583942,0.0113422903748216,8.67361737988404E-19));
#1909=CARTESIAN_POINT('',(0.0106736481776683,0.0209675382822566,0.));
#1910=CARTESIAN_POINT('',(0.0161404425960673,0.0141301693861892,8.67361737988404E-19));
#1911=CARTESIAN_POINT('',(4.57297927426733E-19,0.0141301693861892,0.));
#1912=CARTESIAN_POINT('',(0.0171736481776683,0.0141301693861892,-8.67361737988404E-19));
#1913=CARTESIAN_POINT('',(0.0171736481776683,1.92567689254299E-17,0.));
#1914=CARTESIAN_POINT('',(0.0171736481776683,0.0199835308460442,-3.79470760369927E-19));
#1915=CARTESIAN_POINT('',(6.46731612962549E-19,0.0199835308460442,0.));
#1916=CARTESIAN_POINT('',(0.0154045291999753,0.0199835308460442,-5.42101086242752E-20));
#1917=CARTESIAN_POINT('',(0.0107217087156745,0.0215314416950154,0.));
#1918=CARTESIAN_POINT('',(0.0154671350993537,0.0211262189398007,-1.89735380184963E-19));
#1919=CARTESIAN_POINT('',(6.83712691015358E-19,0.0211262189398007,0.));
#1920=CARTESIAN_POINT('',(0.00597628233199528,0.0211262189398007,-1.89735380184963E-19));
#1921=CARTESIAN_POINT('',(0.0107217087156745,0.0215314416950154,0.));
#1922=CARTESIAN_POINT('',(0.00603888823137364,0.0199835308460442,0.));
#1923=CARTESIAN_POINT('',(6.46731612962549E-19,0.0199835308460442,0.));
#1924=CARTESIAN_POINT('',(0.00417364817766828,0.0199835308460442,0.));
#1925=CARTESIAN_POINT('',(0.0041736481776683,4.51003829497991E-18,0.));
#1926=CARTESIAN_POINT('',(0.00417364817766828,0.0141301693861892,4.33680868994202E-19));
#1927=CARTESIAN_POINT('',(4.57297927426733E-19,0.0141301693861892,0.));
#1928=CARTESIAN_POINT('',(0.00528059510024999,0.0141301693861892,8.67361737988404E-19));
#1929=CARTESIAN_POINT('',(0.0103119236446977,0.0209675382822566,0.));
#1930=CARTESIAN_POINT('',(0.00668205784702209,0.0113422903748216,8.67361737988404E-19));
#1931=CARTESIAN_POINT('',(-4.57581989303212E-17,0.0113422903748216,0.));
#1932=CARTESIAN_POINT('',(0.00643205784702209,0.0113422903748216,2.16840434497101E-19));
#1933=CARTESIAN_POINT('',(0.0064320578470221,6.42691684573636E-18,0.));
#1934=CARTESIAN_POINT('',(0.0106736481776683,0.0159384905364598,-0.0030156480902859));
#1935=CARTESIAN_POINT('',(0.0171736481776683,0.0159384905364598,-0.00301564809028591));
#1936=CARTESIAN_POINT('',(0.0106736481776683,0.0159384905364598,-0.0030156480902859));
#1937=CARTESIAN_POINT('',(0.0171736481776683,0.0159384905364598,-0.00301564809028591));
#1938=CARTESIAN_POINT('',(0.0171736481776683,0.0202437773657179,-0.000434000299084072));
#1939=CARTESIAN_POINT('',(0.0106736481776683,0.013365609961206,-0.00455846549538662));
#1940=CARTESIAN_POINT('',(0.0151364263583942,0.013365609961206,-0.00455846549538663));
#1941=CARTESIAN_POINT('',(0.00643205784702208,0.013365609961206,-0.00455846549538661));
#1942=CARTESIAN_POINT('',(0.0151364263583942,0.013365609961206,-0.00455846549538663));
#1943=CARTESIAN_POINT('',(0.0151364263583942,0.0108199612427898,-0.000313212546217882));
#1944=CARTESIAN_POINT('',(0.00643205784702208,0.013365609961206,-0.00455846549538661));
#1945=CARTESIAN_POINT('',(0.00643205784702209,0.0108199612427898,-0.000313212546217865));
#1946=CARTESIAN_POINT('',(0.0106736481776683,0.0108199612427898,-0.000313212546217873));
#1947=CARTESIAN_POINT('',(0.0148864263583942,0.0146792821056705,0.0020010135614332));
#1948=CARTESIAN_POINT('',(0.0106736481776683,0.0108199612427898,-0.000313212546217873));
#1949=CARTESIAN_POINT('',(0.00668205784702209,0.0146792821056705,0.00200101356143322));
#1950=CARTESIAN_POINT('',(0.0106736481776683,0.0172249308240867,-0.00224423938773554));
#1951=CARTESIAN_POINT('',(0.0106736481776683,0.0159384905364598,-0.0030156480902859));
#1952=CARTESIAN_POINT('',(0.0103119236446977,0.0159384905364598,-0.0030156480902859));
#1953=CARTESIAN_POINT('',(0.00417364817766827,0.0159384905364598,-0.00301564809028588));
#1954=CARTESIAN_POINT('',(0.00417364817766827,0.0159384905364598,-0.00301564809028588));
#1955=CARTESIAN_POINT('',(0.0041736481776683,0.0146073511124165,0.00896559006917651));
#1956=CARTESIAN_POINT('',(0.0103119236446977,0.0172249308240867,-0.00224423938773554));
#1957=CARTESIAN_POINT('',(0.0107217087156745,0.0212333907027938,-0.000178725069025653));
#1958=CARTESIAN_POINT('',(0.0107217087156745,0.0212333907027938,-0.000178725069025653));
#1959=CARTESIAN_POINT('',(0.0107217087156745,0.0212333907027938,-0.000178725069025653));
#1960=CARTESIAN_POINT('',(0.0107217087156745,0.0212333907027938,-0.000178725069025653));
#1961=CARTESIAN_POINT('',(0.0107217087156745,0.0203929163815442,-0.000682712088025221));
#1962=CARTESIAN_POINT('',(0.0107217087156745,0.0212333907027938,-0.000178725069025653));
#1963=CARTESIAN_POINT('',(0.0107217087156745,0.0203929163815442,-0.000682712088025221));
#1964=CARTESIAN_POINT('',(0.0106736481776682,0.0202437773657178,-0.000434000299084003));
#1965=CARTESIAN_POINT('',(0.0106736481776682,0.0202437773657178,-0.000434000299084003));
#1966=CARTESIAN_POINT('',(0.0106735923971303,0.0358695594357198,-0.00301564809028492));
#1967=CARTESIAN_POINT('',(0.0171735923971303,0.0358695594357198,-0.00301564809028494));
#1968=CARTESIAN_POINT('',(0.0106735923971303,0.0358695594357198,-0.00301564809028492));
#1969=CARTESIAN_POINT('',(0.0171735923971303,0.0358695594357198,-0.00301564809028494));
#1970=CARTESIAN_POINT('',(0.0171735923971303,0.0401748462649779,-0.000434000299083106));
#1971=CARTESIAN_POINT('',(0.0106735923971303,0.033296678860466,-0.00455846549538564));
#1972=CARTESIAN_POINT('',(0.0151363705778562,0.033296678860466,-0.00455846549538565));
#1973=CARTESIAN_POINT('',(0.0064320020664841,0.033296678860466,-0.00455846549538564));
#1974=CARTESIAN_POINT('',(0.0151363705778562,0.033296678860466,-0.00455846549538565));
#1975=CARTESIAN_POINT('',(0.0151363705778562,0.0307510301420498,-0.000313212546216902));
#1976=CARTESIAN_POINT('',(0.0064320020664841,0.033296678860466,-0.00455846549538564));
#1977=CARTESIAN_POINT('',(0.00643200206648411,0.0307510301420498,-0.000313212546216884));
#1978=CARTESIAN_POINT('',(0.0106735923971303,0.0307510301420498,-0.000313212546216893));
#1979=CARTESIAN_POINT('',(0.0148863705778562,0.0346103510049305,0.00200101356143418));
#1980=CARTESIAN_POINT('',(0.0106735923971303,0.0307510301420498,-0.000313212546216893));
#1981=CARTESIAN_POINT('',(0.00668200206648411,0.0346103510049305,0.0020010135614342));
#1982=CARTESIAN_POINT('',(0.0106735923971303,0.0371559997233467,-0.00224423938773457));
#1983=CARTESIAN_POINT('',(0.0106735923971303,0.0358695594357198,-0.00301564809028492));
#1984=CARTESIAN_POINT('',(0.0103118678641597,0.0358695594357198,-0.00301564809028492));
#1985=CARTESIAN_POINT('',(0.0041735923971303,0.0358695594357198,-0.00301564809028491));
#1986=CARTESIAN_POINT('',(0.0041735923971303,0.0358695594357198,-0.00301564809028491));
#1987=CARTESIAN_POINT('',(0.00417359239713032,0.0345384200116765,0.00896559006917748));
#1988=CARTESIAN_POINT('',(0.0103118678641597,0.0371559997233467,-0.00224423938773457));
#1989=CARTESIAN_POINT('',(0.0107216529351365,0.0411644596020538,-0.000178725069024686));
#1990=CARTESIAN_POINT('',(0.0107216529351365,0.0411644596020538,-0.000178725069024686));
#1991=CARTESIAN_POINT('',(0.0107216529351365,0.0411644596020538,-0.000178725069024686));
#1992=CARTESIAN_POINT('',(0.0107216529351365,0.0411644596020538,-0.000178725069024686));
#1993=CARTESIAN_POINT('',(0.0107216529351365,0.0403239852808042,-0.000682712088024253));
#1994=CARTESIAN_POINT('',(0.0107216529351365,0.0411644596020538,-0.000178725069024686));
#1995=CARTESIAN_POINT('',(0.0107216529351365,0.0403239852808042,-0.000682712088024253));
#1996=CARTESIAN_POINT('',(0.0106735923971303,0.0401748462649778,-0.000434000299083035));
#1997=CARTESIAN_POINT('',(0.0106735923971303,0.0401748462649778,-0.000434000299083035));
#1998=CARTESIAN_POINT('',(0.0103118678641597,0.0570870686071762,-0.00224423936203695));
#1999=CARTESIAN_POINT('',(0.00668200206648411,0.0545414198887597,0.00200101358713161));
#2000=CARTESIAN_POINT('',(0.0103118678641597,0.0558006283195493,-0.00301564806458741));
#2001=CARTESIAN_POINT('',(0.0106735923971303,0.0570870686071762,-0.00224423936203695));
#2002=CARTESIAN_POINT('',(0.0106735923971303,0.0558006283195493,-0.00301564806458741));
#2003=CARTESIAN_POINT('',(0.0148863705778562,0.0545414198887597,0.0020010135871316));
#2004=CARTESIAN_POINT('',(0.0041735923971303,0.0558006283195493,-0.0030156480645874));
#2005=CARTESIAN_POINT('',(0.0041735923971303,0.0558006283195493,-0.0030156480645874));
#2006=CARTESIAN_POINT('',(0.00417359239713032,0.0544694888955051,0.00896559009487489));
#2007=CARTESIAN_POINT('',(0.0171735923971303,0.0558006283195494,-0.00301564806458742));
#2008=CARTESIAN_POINT('',(0.0171735923971303,0.0601059151488072,-0.000434000273385252));
#2009=CARTESIAN_POINT('',(0.0171735923971303,0.0558006283195494,-0.00301564806458742));
#2010=CARTESIAN_POINT('',(0.0106735923971303,0.0558006283195493,-0.00301564806458741));
#2011=CARTESIAN_POINT('',(0.0106735923971303,0.0558006283195493,-0.00301564806458741));
#2012=CARTESIAN_POINT('',(0.0106735923971303,0.0601059151488071,-0.000434000273385185));
#2013=CARTESIAN_POINT('',(0.0107216529351365,0.0602550541646336,-0.000682712062326391));
#2014=CARTESIAN_POINT('',(0.0106735923971303,0.0601059151488071,-0.000434000273385185));
#2015=CARTESIAN_POINT('',(0.0107216529351365,0.0602550541646336,-0.000682712062326391));
#2016=CARTESIAN_POINT('',(0.0106735923971303,0.0506820990258792,-0.000313212520519772));
#2017=CARTESIAN_POINT('',(0.00643200206648411,0.0506820990258792,-0.000313212520519765));
#2018=CARTESIAN_POINT('',(0.0106735923971303,0.0506820990258792,-0.000313212520519772));
#2019=CARTESIAN_POINT('',(0.0151363705778562,0.0506820990258792,-0.000313212520519779));
#2020=CARTESIAN_POINT('',(0.0064320020664841,0.0532277477442957,-0.00455846546968832));
#2021=CARTESIAN_POINT('',(0.0064320020664841,0.0532277477442957,-0.00455846546968832));
#2022=CARTESIAN_POINT('',(0.0151363705778562,0.0532277477442957,-0.00455846546968833));
#2023=CARTESIAN_POINT('',(0.0151363705778562,0.0532277477442957,-0.00455846546968833));
#2024=CARTESIAN_POINT('',(0.0106735923971303,0.0532277477442957,-0.00455846546968833));
#2025=CARTESIAN_POINT('',(0.0107216529351365,0.0610955284858831,-0.000178725043326758));
#2026=CARTESIAN_POINT('',(0.0107216529351365,0.0610955284858831,-0.000178725043326758));
#2027=CARTESIAN_POINT('',(0.0107216529351365,0.0610955284858831,-0.000178725043326758));
#2028=CARTESIAN_POINT('',(0.0107216529351365,0.0610955284858831,-0.000178725043326758));
#2029=CARTESIAN_POINT('',(0.0107216529351365,0.0610955284858831,-0.000178725043326758));
#2030=CARTESIAN_POINT('',(0.01585,0.00349,-0.003));
#2031=CARTESIAN_POINT('',(0.01585,0.00349,-0.003));
#2032=CARTESIAN_POINT('',(0.01585,0.00449,-0.003));
#2033=CARTESIAN_POINT('',(0.01585,0.00349,-0.003));
#2034=CARTESIAN_POINT('',(0.01585,0.02615,-0.003));
#2035=CARTESIAN_POINT('',(0.01585,0.02615,-0.003));
#2036=CARTESIAN_POINT('',(0.01585,0.02715,-0.003));
#2037=CARTESIAN_POINT('',(0.01585,0.02615,-0.003));
#2038=CARTESIAN_POINT('',(0.01585,0.04535,-0.003));
#2039=CARTESIAN_POINT('',(0.01585,0.04535,-0.003));
#2040=CARTESIAN_POINT('',(0.01585,0.04635,-0.003));
#2041=CARTESIAN_POINT('',(0.01585,0.04535,-0.003));
#2042=CARTESIAN_POINT('',(0.00549,0.04535,-0.003));
#2043=CARTESIAN_POINT('',(0.00549,0.04535,-0.003));
#2044=CARTESIAN_POINT('',(0.00549,0.04435,-0.003));
#2045=CARTESIAN_POINT('',(0.00549,0.04535,-0.003));
#2046=CARTESIAN_POINT('',(0.00549,0.02615,-0.003));
#2047=CARTESIAN_POINT('',(0.00549,0.02615,-0.003));
#2048=CARTESIAN_POINT('',(0.00549,0.02515,-0.003));
#2049=CARTESIAN_POINT('',(0.00549,0.02615,-0.003));
#2050=CARTESIAN_POINT('',(0.00549,0.00349,-0.003));
#2051=CARTESIAN_POINT('',(0.00549,0.00349,-0.003));
#2052=CARTESIAN_POINT('',(0.00549,0.00249,-0.003));
#2053=CARTESIAN_POINT('',(0.00549,0.00349,-0.003));
#2054=MECHANICAL_DESIGN_GEOMETRIC_PRESENTATION_REPRESENTATION('',(#1215),
#2055);
#2055=(
GEOMETRIC_REPRESENTATION_CONTEXT(3)
GLOBAL_UNCERTAINTY_ASSIGNED_CONTEXT((#2056))
GLOBAL_UNIT_ASSIGNED_CONTEXT((#2059,#2058,#2057))
REPRESENTATION_CONTEXT('Palm2_2','TOP_LEVEL_ASSEMBLY_PART')
);
#2056=UNCERTAINTY_MEASURE_WITH_UNIT(LENGTH_MEASURE(1.E-8),#2059,
'DISTANCE_ACCURACY_VALUE','Maximum Tolerance applied to model');
#2057=(
NAMED_UNIT(*)
SI_UNIT($,.STERADIAN.)
SOLID_ANGLE_UNIT()
);
#2058=(
NAMED_UNIT(*)
PLANE_ANGLE_UNIT()
SI_UNIT($,.RADIAN.)
);
#2059=(
LENGTH_UNIT()
NAMED_UNIT(*)
SI_UNIT($,.METRE.)
);
#2060=PRODUCT_DEFINITION_SHAPE('','',#2061);
#2061=PRODUCT_DEFINITION('','',#2063,#2062);
#2062=PRODUCT_DEFINITION_CONTEXT('',#2069,'design');
#2063=PRODUCT_DEFINITION_FORMATION_WITH_SPECIFIED_SOURCE('','',#2065,
 .NOT_KNOWN.);
#2064=PRODUCT_RELATED_PRODUCT_CATEGORY('','',(#2065));
#2065=PRODUCT('Palm2_2','Palm2_2','Palm2_2',(#2067));
#2066=PRODUCT_CATEGORY('','');
#2067=PRODUCT_CONTEXT('',#2069,'mechanical');
#2068=APPLICATION_PROTOCOL_DEFINITION('international standard',
'ap242_managed_model_based_3d_engineering',2020,#2069);
#2069=APPLICATION_CONTEXT('managed model based 3d engineering');
ENDSEC;
END-ISO-10303-21;
