ISO-10303-21;
HEADER;
/* Generated by software containing ST-Developer
 * from STEP Tools, Inc. (www.steptools.com) 
 */
/* OPTION: using custom renumber hook */

FILE_DESCRIPTION(
/* description */ ('STEP AP242 Edition 2',
'CAx-IF Rec.Pracs.---Representation and Presentation of Product Manufa
cturing Information (PMI)---4.0---2014-10-13',
'CAx-IF Rec.Pracs.---3D Tessellated Geometry---0.4---2014-09-14','2;1',
'CAx-IF Rec.Pracs.---User Defined Attributes---1.5---2016-08-15'),
/* implementation_level */ '2;1');

FILE_NAME(
/* name */ 'Robotic Hand_V5_simulacra - Distal Phalanx Bone_V02 (1)',
/* time_stamp */ '2026-09-25T22:15:30Z',
/* author */ (''),
/* organization */ (''),
/* preprocessor_version */ 'ST-DEVELOPER v20',
/* originating_system */ 'ONSHAPE BY PTC INC, 1.221',
/* authorisation */ '  ');

FILE_SCHEMA (('AP242_MANAGED_MODEL_BASED_3D_ENGINEERING_MIM_LF { 1 0 10303 442 3 1 4 }'));
ENDSEC;

DATA;
#10=SHAPE_REPRESENTATION_RELATIONSHIP('','',#352,#11);
#11=ADVANCED_BREP_SHAPE_REPRESENTATION('',(#350),#610);
#12=SPHERICAL_SURFACE('',#385,0.006);
#13=SPHERICAL_SURFACE('',#389,0.006);
#14=PLANE('',#358);
#15=PLANE('',#360);
#16=PLANE('',#362);
#17=PLANE('',#365);
#18=PLANE('',#371);
#19=PLANE('',#377);
#20=PLANE('',#378);
#21=PLANE('',#379);
#22=B_SPLINE_CURVE_WITH_KNOTS('',3,(#502,#503,#504,#505,#506),
 .UNSPECIFIED.,.F.,.F.,(4,1,4),(0.,0.00325336528627954,0.00650673057255909),
 .UNSPECIFIED.);
#23=B_SPLINE_CURVE_WITH_KNOTS('',3,(#515,#516,#517,#518,#519),
 .UNSPECIFIED.,.F.,.F.,(4,1,4),(0.,0.00325336528627954,0.00650673057255909),
 .UNSPECIFIED.);
#24=B_SPLINE_CURVE_WITH_KNOTS('',3,(#563,#564,#565,#566,#567),
 .UNSPECIFIED.,.F.,.F.,(4,1,4),(3.81269371180124E-17,0.00325336528627956,
0.00650673057255909),.UNSPECIFIED.);
#25=B_SPLINE_CURVE_WITH_KNOTS('',3,(#582,#583,#584,#585,#586),
 .UNSPECIFIED.,.F.,.F.,(4,1,4),(3.81269371180124E-17,0.00325336528627956,
0.00650673057255909),.UNSPECIFIED.);
#26=LINE('',#500,#51);
#27=LINE('',#508,#52);
#28=LINE('',#513,#53);
#29=LINE('',#521,#54);
#30=LINE('',#523,#55);
#31=LINE('',#526,#56);
#32=LINE('',#528,#57);
#33=LINE('',#531,#58);
#34=LINE('',#533,#59);
#35=LINE('',#535,#60);
#36=LINE('',#537,#61);
#37=LINE('',#539,#62);
#38=LINE('',#545,#63);
#39=LINE('',#549,#64);
#40=LINE('',#555,#65);
#41=LINE('',#557,#66);
#42=LINE('',#559,#67);
#43=LINE('',#570,#68);
#44=LINE('',#573,#69);
#45=LINE('',#579,#70);
#46=LINE('',#588,#71);
#47=LINE('',#589,#72);
#48=LINE('',#591,#73);
#49=LINE('',#593,#74);
#50=LINE('',#595,#75);
#51=VECTOR('',#398,1.);
#52=VECTOR('',#399,1.);
#53=VECTOR('',#404,1.);
#54=VECTOR('',#405,1.);
#55=VECTOR('',#408,1.);
#56=VECTOR('',#409,1.);
#57=VECTOR('',#410,1.);
#58=VECTOR('',#413,1.);
#59=VECTOR('',#416,1.);
#60=VECTOR('',#417,1.);
#61=VECTOR('',#418,1.);
#62=VECTOR('',#419,1.);
#63=VECTOR('',#426,1.);
#64=VECTOR('',#429,1.);
#65=VECTOR('',#436,1.);
#66=VECTOR('',#437,1.);
#67=VECTOR('',#440,1.);
#68=VECTOR('',#447,1.);
#69=VECTOR('',#450,1.);
#70=VECTOR('',#457,1.);
#71=VECTOR('',#462,1.);
#72=VECTOR('',#463,1.);
#73=VECTOR('',#466,1.);
#74=VECTOR('',#467,1.);
#75=VECTOR('',#468,1.);
#76=ORIENTED_EDGE('',*,*,#170,.F.);
#77=ORIENTED_EDGE('',*,*,#171,.T.);
#78=ORIENTED_EDGE('',*,*,#172,.T.);
#79=ORIENTED_EDGE('',*,*,#173,.T.);
#80=ORIENTED_EDGE('',*,*,#174,.F.);
#81=ORIENTED_EDGE('',*,*,#175,.F.);
#82=ORIENTED_EDGE('',*,*,#176,.T.);
#83=ORIENTED_EDGE('',*,*,#177,.F.);
#84=ORIENTED_EDGE('',*,*,#178,.T.);
#85=ORIENTED_EDGE('',*,*,#179,.F.);
#86=ORIENTED_EDGE('',*,*,#180,.F.);
#87=ORIENTED_EDGE('',*,*,#173,.F.);
#88=ORIENTED_EDGE('',*,*,#181,.F.);
#89=ORIENTED_EDGE('',*,*,#182,.T.);
#90=ORIENTED_EDGE('',*,*,#175,.T.);
#91=ORIENTED_EDGE('',*,*,#183,.T.);
#92=ORIENTED_EDGE('',*,*,#184,.T.);
#93=ORIENTED_EDGE('',*,*,#185,.T.);
#94=ORIENTED_EDGE('',*,*,#186,.F.);
#95=ORIENTED_EDGE('',*,*,#187,.T.);
#96=ORIENTED_EDGE('',*,*,#188,.F.);
#97=ORIENTED_EDGE('',*,*,#189,.F.);
#98=ORIENTED_EDGE('',*,*,#190,.T.);
#99=ORIENTED_EDGE('',*,*,#171,.F.);
#100=ORIENTED_EDGE('',*,*,#191,.F.);
#101=ORIENTED_EDGE('',*,*,#192,.F.);
#102=ORIENTED_EDGE('',*,*,#193,.F.);
#103=ORIENTED_EDGE('',*,*,#194,.T.);
#104=ORIENTED_EDGE('',*,*,#195,.T.);
#105=ORIENTED_EDGE('',*,*,#177,.T.);
#106=ORIENTED_EDGE('',*,*,#196,.T.);
#107=ORIENTED_EDGE('',*,*,#197,.T.);
#108=ORIENTED_EDGE('',*,*,#182,.F.);
#109=ORIENTED_EDGE('',*,*,#198,.T.);
#110=ORIENTED_EDGE('',*,*,#189,.T.);
#111=ORIENTED_EDGE('',*,*,#199,.F.);
#112=ORIENTED_EDGE('',*,*,#200,.T.);
#113=ORIENTED_EDGE('',*,*,#179,.T.);
#114=ORIENTED_EDGE('',*,*,#201,.T.);
#115=ORIENTED_EDGE('',*,*,#202,.F.);
#116=ORIENTED_EDGE('',*,*,#203,.F.);
#117=ORIENTED_EDGE('',*,*,#184,.F.);
#118=ORIENTED_EDGE('',*,*,#186,.T.);
#119=ORIENTED_EDGE('',*,*,#204,.T.);
#120=ORIENTED_EDGE('',*,*,#205,.F.);
#121=ORIENTED_EDGE('',*,*,#206,.F.);
#122=ORIENTED_EDGE('',*,*,#194,.F.);
#123=ORIENTED_EDGE('',*,*,#207,.T.);
#124=ORIENTED_EDGE('',*,*,#205,.T.);
#125=ORIENTED_EDGE('',*,*,#208,.T.);
#126=ORIENTED_EDGE('',*,*,#196,.F.);
#127=ORIENTED_EDGE('',*,*,#209,.F.);
#128=ORIENTED_EDGE('',*,*,#210,.T.);
#129=ORIENTED_EDGE('',*,*,#211,.T.);
#130=ORIENTED_EDGE('',*,*,#212,.T.);
#131=ORIENTED_EDGE('',*,*,#202,.T.);
#132=ORIENTED_EDGE('',*,*,#174,.T.);
#133=ORIENTED_EDGE('',*,*,#195,.F.);
#134=ORIENTED_EDGE('',*,*,#206,.T.);
#135=ORIENTED_EDGE('',*,*,#209,.T.);
#136=ORIENTED_EDGE('',*,*,#199,.T.);
#137=ORIENTED_EDGE('',*,*,#191,.T.);
#138=ORIENTED_EDGE('',*,*,#170,.T.);
#139=ORIENTED_EDGE('',*,*,#180,.T.);
#140=ORIENTED_EDGE('',*,*,#200,.F.);
#141=ORIENTED_EDGE('',*,*,#183,.F.);
#142=ORIENTED_EDGE('',*,*,#192,.T.);
#143=ORIENTED_EDGE('',*,*,#188,.T.);
#144=ORIENTED_EDGE('',*,*,#187,.F.);
#145=ORIENTED_EDGE('',*,*,#207,.F.);
#146=ORIENTED_EDGE('',*,*,#193,.T.);
#147=ORIENTED_EDGE('',*,*,#176,.F.);
#148=ORIENTED_EDGE('',*,*,#190,.F.);
#149=ORIENTED_EDGE('',*,*,#198,.F.);
#150=ORIENTED_EDGE('',*,*,#181,.T.);
#151=ORIENTED_EDGE('',*,*,#172,.F.);
#152=ORIENTED_EDGE('',*,*,#203,.T.);
#153=ORIENTED_EDGE('',*,*,#212,.F.);
#154=ORIENTED_EDGE('',*,*,#213,.F.);
#155=ORIENTED_EDGE('',*,*,#185,.F.);
#156=ORIENTED_EDGE('',*,*,#204,.F.);
#157=ORIENTED_EDGE('',*,*,#213,.T.);
#158=ORIENTED_EDGE('',*,*,#214,.F.);
#159=ORIENTED_EDGE('',*,*,#214,.T.);
#160=ORIENTED_EDGE('',*,*,#211,.F.);
#161=ORIENTED_EDGE('',*,*,#215,.F.);
#162=ORIENTED_EDGE('',*,*,#208,.F.);
#163=ORIENTED_EDGE('',*,*,#197,.F.);
#164=ORIENTED_EDGE('',*,*,#215,.T.);
#165=ORIENTED_EDGE('',*,*,#216,.F.);
#166=ORIENTED_EDGE('',*,*,#201,.F.);
#167=ORIENTED_EDGE('',*,*,#178,.F.);
#168=ORIENTED_EDGE('',*,*,#216,.T.);
#169=ORIENTED_EDGE('',*,*,#210,.F.);
#170=EDGE_CURVE('',#217,#218,#247,.T.);
#171=EDGE_CURVE('',#217,#219,#26,.F.);
#172=EDGE_CURVE('',#219,#220,#22,.F.);
#173=EDGE_CURVE('',#220,#218,#27,.T.);
#174=EDGE_CURVE('',#221,#222,#248,.T.);
#175=EDGE_CURVE('',#223,#221,#28,.T.);
#176=EDGE_CURVE('',#223,#224,#23,.T.);
#177=EDGE_CURVE('',#222,#224,#29,.F.);
#178=EDGE_CURVE('',#225,#226,#30,.T.);
#179=EDGE_CURVE('',#227,#226,#31,.T.);
#180=EDGE_CURVE('',#218,#227,#32,.T.);
#181=EDGE_CURVE('',#228,#220,#249,.F.);
#182=EDGE_CURVE('',#228,#225,#33,.T.);
#183=EDGE_CURVE('',#221,#229,#34,.T.);
#184=EDGE_CURVE('',#229,#230,#35,.T.);
#185=EDGE_CURVE('',#230,#231,#36,.T.);
#186=EDGE_CURVE('',#232,#231,#37,.T.);
#187=EDGE_CURVE('',#232,#223,#250,.F.);
#188=EDGE_CURVE('',#233,#233,#251,.F.);
#189=EDGE_CURVE('',#234,#235,#38,.T.);
#190=EDGE_CURVE('',#234,#219,#252,.F.);
#191=EDGE_CURVE('',#235,#217,#39,.T.);
#192=EDGE_CURVE('',#236,#236,#253,.T.);
#193=EDGE_CURVE('',#237,#224,#254,.F.);
#194=EDGE_CURVE('',#237,#238,#40,.T.);
#195=EDGE_CURVE('',#238,#222,#41,.T.);
#196=EDGE_CURVE('',#239,#240,#42,.T.);
#197=EDGE_CURVE('',#240,#225,#255,.F.);
#198=EDGE_CURVE('',#228,#234,#24,.T.);
#199=EDGE_CURVE('',#239,#235,#256,.T.);
#200=EDGE_CURVE('',#229,#227,#43,.T.);
#201=EDGE_CURVE('',#226,#241,#257,.T.);
#202=EDGE_CURVE('',#242,#241,#44,.T.);
#203=EDGE_CURVE('',#230,#242,#258,.F.);
#204=EDGE_CURVE('',#231,#243,#259,.F.);
#205=EDGE_CURVE('',#244,#243,#45,.T.);
#206=EDGE_CURVE('',#238,#244,#260,.T.);
#207=EDGE_CURVE('',#237,#232,#25,.F.);
#208=EDGE_CURVE('',#243,#240,#46,.T.);
#209=EDGE_CURVE('',#244,#239,#47,.T.);
#210=EDGE_CURVE('',#241,#245,#48,.F.);
#211=EDGE_CURVE('',#245,#246,#49,.F.);
#212=EDGE_CURVE('',#246,#242,#50,.F.);
#213=EDGE_CURVE('',#231,#246,#261,.T.);
#214=EDGE_CURVE('',#243,#246,#262,.T.);
#215=EDGE_CURVE('',#240,#245,#263,.T.);
#216=EDGE_CURVE('',#225,#245,#264,.T.);
#217=VERTEX_POINT('',#498);
#218=VERTEX_POINT('',#499);
#219=VERTEX_POINT('',#501);
#220=VERTEX_POINT('',#507);
#221=VERTEX_POINT('',#511);
#222=VERTEX_POINT('',#512);
#223=VERTEX_POINT('',#514);
#224=VERTEX_POINT('',#520);
#225=VERTEX_POINT('',#524);
#226=VERTEX_POINT('',#525);
#227=VERTEX_POINT('',#527);
#228=VERTEX_POINT('',#530);
#229=VERTEX_POINT('',#534);
#230=VERTEX_POINT('',#536);
#231=VERTEX_POINT('',#538);
#232=VERTEX_POINT('',#540);
#233=VERTEX_POINT('',#544);
#234=VERTEX_POINT('',#546);
#235=VERTEX_POINT('',#547);
#236=VERTEX_POINT('',#552);
#237=VERTEX_POINT('',#554);
#238=VERTEX_POINT('',#556);
#239=VERTEX_POINT('',#560);
#240=VERTEX_POINT('',#561);
#241=VERTEX_POINT('',#572);
#242=VERTEX_POINT('',#574);
#243=VERTEX_POINT('',#578);
#244=VERTEX_POINT('',#580);
#245=VERTEX_POINT('',#592);
#246=VERTEX_POINT('',#594);
#247=CIRCLE('',#355,0.006);
#248=CIRCLE('',#357,0.006);
#249=CIRCLE('',#359,0.0075);
#250=CIRCLE('',#361,0.0075);
#251=CIRCLE('',#363,0.0025);
#252=CIRCLE('',#364,0.0075);
#253=CIRCLE('',#366,0.0025);
#254=CIRCLE('',#367,0.0075);
#255=CIRCLE('',#369,0.006);
#256=CIRCLE('',#370,0.006);
#257=CIRCLE('',#372,0.006);
#258=CIRCLE('',#373,0.006);
#259=CIRCLE('',#375,0.006);
#260=CIRCLE('',#376,0.006);
#261=CIRCLE('',#384,0.006);
#262=CIRCLE('',#386,0.006);
#263=CIRCLE('',#388,0.006);
#264=CIRCLE('',#390,0.006);
#265=EDGE_LOOP('',(#76,#77,#78,#79));
#266=EDGE_LOOP('',(#80,#81,#82,#83));
#267=EDGE_LOOP('',(#84,#85,#86,#87,#88,#89));
#268=EDGE_LOOP('',(#90,#91,#92,#93,#94,#95));
#269=EDGE_LOOP('',(#96));
#270=EDGE_LOOP('',(#97,#98,#99,#100));
#271=EDGE_LOOP('',(#101));
#272=EDGE_LOOP('',(#102,#103,#104,#105));
#273=EDGE_LOOP('',(#106,#107,#108,#109,#110,#111));
#274=EDGE_LOOP('',(#112,#113,#114,#115,#116,#117));
#275=EDGE_LOOP('',(#118,#119,#120,#121,#122,#123));
#276=EDGE_LOOP('',(#124,#125,#126,#127));
#277=EDGE_LOOP('',(#128,#129,#130,#131));
#278=EDGE_LOOP('',(#132,#133,#134,#135,#136,#137,#138,#139,#140,#141));
#279=EDGE_LOOP('',(#142));
#280=EDGE_LOOP('',(#143));
#281=EDGE_LOOP('',(#144,#145,#146,#147));
#282=EDGE_LOOP('',(#148,#149,#150,#151));
#283=EDGE_LOOP('',(#152,#153,#154,#155));
#284=EDGE_LOOP('',(#156,#157,#158));
#285=EDGE_LOOP('',(#159,#160,#161,#162));
#286=EDGE_LOOP('',(#163,#164,#165));
#287=EDGE_LOOP('',(#166,#167,#168,#169));
#288=FACE_BOUND('',#265,.T.);
#289=FACE_BOUND('',#266,.T.);
#290=FACE_BOUND('',#267,.T.);
#291=FACE_BOUND('',#268,.T.);
#292=FACE_BOUND('',#269,.T.);
#293=FACE_BOUND('',#270,.T.);
#294=FACE_BOUND('',#271,.T.);
#295=FACE_BOUND('',#272,.T.);
#296=FACE_BOUND('',#273,.T.);
#297=FACE_BOUND('',#274,.T.);
#298=FACE_BOUND('',#275,.T.);
#299=FACE_BOUND('',#276,.T.);
#300=FACE_BOUND('',#277,.T.);
#301=FACE_BOUND('',#278,.T.);
#302=FACE_BOUND('',#279,.T.);
#303=FACE_BOUND('',#280,.T.);
#304=FACE_BOUND('',#281,.T.);
#305=FACE_BOUND('',#282,.T.);
#306=FACE_BOUND('',#283,.T.);
#307=FACE_BOUND('',#284,.T.);
#308=FACE_BOUND('',#285,.T.);
#309=FACE_BOUND('',#286,.T.);
#310=FACE_BOUND('',#287,.T.);
#311=CYLINDRICAL_SURFACE('',#354,0.006);
#312=CYLINDRICAL_SURFACE('',#356,0.006);
#313=CYLINDRICAL_SURFACE('',#368,0.006);
#314=CYLINDRICAL_SURFACE('',#374,0.006);
#315=CYLINDRICAL_SURFACE('',#380,0.0025);
#316=CYLINDRICAL_SURFACE('',#381,0.0075);
#317=CYLINDRICAL_SURFACE('',#382,0.0075);
#318=CYLINDRICAL_SURFACE('',#383,0.006);
#319=CYLINDRICAL_SURFACE('',#387,0.006);
#320=CYLINDRICAL_SURFACE('',#391,0.006);
#321=ADVANCED_FACE('',(#288),#311,.T.);
#322=ADVANCED_FACE('',(#289),#312,.T.);
#323=ADVANCED_FACE('',(#290),#14,.F.);
#324=ADVANCED_FACE('',(#291),#15,.F.);
#325=ADVANCED_FACE('',(#292,#293),#16,.F.);
#326=ADVANCED_FACE('',(#294,#295),#17,.T.);
#327=ADVANCED_FACE('',(#296),#313,.T.);
#328=ADVANCED_FACE('',(#297),#18,.F.);
#329=ADVANCED_FACE('',(#298),#314,.T.);
#330=ADVANCED_FACE('',(#299),#19,.F.);
#331=ADVANCED_FACE('',(#300),#20,.T.);
#332=ADVANCED_FACE('',(#301),#21,.T.);
#333=ADVANCED_FACE('',(#302,#303),#315,.T.);
#334=ADVANCED_FACE('',(#304),#316,.T.);
#335=ADVANCED_FACE('',(#305),#317,.T.);
#336=ADVANCED_FACE('',(#306),#318,.T.);
#337=ADVANCED_FACE('',(#307),#12,.T.);
#338=ADVANCED_FACE('',(#308),#319,.T.);
#339=ADVANCED_FACE('',(#309),#13,.T.);
#340=ADVANCED_FACE('',(#310),#320,.T.);
#341=CLOSED_SHELL('',(#321,#322,#323,#324,#325,#326,#327,#328,#329,#330,
#331,#332,#333,#334,#335,#336,#337,#338,#339,#340));
#342=STYLED_ITEM('',(#343),#350);
#343=PRESENTATION_STYLE_ASSIGNMENT((#344));
#344=SURFACE_STYLE_USAGE(.BOTH.,#345);
#345=SURFACE_SIDE_STYLE('',(#346));
#346=SURFACE_STYLE_FILL_AREA(#347);
#347=FILL_AREA_STYLE('',(#348));
#348=FILL_AREA_STYLE_COLOUR('',#349);
#349=COLOUR_RGB('',0.796078431372549,0.823529411764706,0.937254901960784);
#350=MANIFOLD_SOLID_BREP('Distal Phalanx Bone_V02',#341);
#351=SHAPE_DEFINITION_REPRESENTATION(#615,#352);
#352=SHAPE_REPRESENTATION('Distal Phalanx Bone_V02',(#353),#610);
#353=AXIS2_PLACEMENT_3D('',#495,#392,#393);
#354=AXIS2_PLACEMENT_3D('',#496,#394,#395);
#355=AXIS2_PLACEMENT_3D('',#497,#396,#397);
#356=AXIS2_PLACEMENT_3D('',#509,#400,#401);
#357=AXIS2_PLACEMENT_3D('',#510,#402,#403);
#358=AXIS2_PLACEMENT_3D('',#522,#406,#407);
#359=AXIS2_PLACEMENT_3D('',#529,#411,#412);
#360=AXIS2_PLACEMENT_3D('',#532,#414,#415);
#361=AXIS2_PLACEMENT_3D('',#541,#420,#421);
#362=AXIS2_PLACEMENT_3D('',#542,#422,#423);
#363=AXIS2_PLACEMENT_3D('',#543,#424,#425);
#364=AXIS2_PLACEMENT_3D('',#548,#427,#428);
#365=AXIS2_PLACEMENT_3D('',#550,#430,#431);
#366=AXIS2_PLACEMENT_3D('',#551,#432,#433);
#367=AXIS2_PLACEMENT_3D('',#553,#434,#435);
#368=AXIS2_PLACEMENT_3D('',#558,#438,#439);
#369=AXIS2_PLACEMENT_3D('',#562,#441,#442);
#370=AXIS2_PLACEMENT_3D('',#568,#443,#444);
#371=AXIS2_PLACEMENT_3D('',#569,#445,#446);
#372=AXIS2_PLACEMENT_3D('',#571,#448,#449);
#373=AXIS2_PLACEMENT_3D('',#575,#451,#452);
#374=AXIS2_PLACEMENT_3D('',#576,#453,#454);
#375=AXIS2_PLACEMENT_3D('',#577,#455,#456);
#376=AXIS2_PLACEMENT_3D('',#581,#458,#459);
#377=AXIS2_PLACEMENT_3D('',#587,#460,#461);
#378=AXIS2_PLACEMENT_3D('',#590,#464,#465);
#379=AXIS2_PLACEMENT_3D('',#596,#469,#470);
#380=AXIS2_PLACEMENT_3D('',#597,#471,#472);
#381=AXIS2_PLACEMENT_3D('',#598,#473,#474);
#382=AXIS2_PLACEMENT_3D('',#599,#475,#476);
#383=AXIS2_PLACEMENT_3D('',#600,#477,#478);
#384=AXIS2_PLACEMENT_3D('',#601,#479,#480);
#385=AXIS2_PLACEMENT_3D('',#602,#481,#482);
#386=AXIS2_PLACEMENT_3D('',#603,#483,#484);
#387=AXIS2_PLACEMENT_3D('',#604,#485,#486);
#388=AXIS2_PLACEMENT_3D('',#605,#487,#488);
#389=AXIS2_PLACEMENT_3D('',#606,#489,#490);
#390=AXIS2_PLACEMENT_3D('',#607,#491,#492);
#391=AXIS2_PLACEMENT_3D('',#608,#493,#494);
#392=DIRECTION('',(0.,0.,1.));
#393=DIRECTION('',(1.,0.,0.));
#394=DIRECTION('',(-1.,0.,0.));
#395=DIRECTION('',(0.,-1.,0.));
#396=DIRECTION('',(-1.,0.,0.));
#397=DIRECTION('',(0.,-1.,0.));
#398=DIRECTION('',(-1.,0.,0.));
#399=DIRECTION('',(-1.,0.,0.));
#400=DIRECTION('',(-1.,0.,0.));
#401=DIRECTION('',(0.,-1.,0.));
#402=DIRECTION('',(-1.,0.,0.));
#403=DIRECTION('',(0.,-1.,0.));
#404=DIRECTION('',(-1.,0.,0.));
#405=DIRECTION('',(-1.,0.,0.));
#406=DIRECTION('',(0.,-1.,0.));
#407=DIRECTION('',(1.,0.,0.));
#408=DIRECTION('',(0.,0.,1.));
#409=DIRECTION('',(-1.,0.,0.));
#410=DIRECTION('',(0.,0.,1.));
#411=DIRECTION('',(0.,1.,0.));
#412=DIRECTION('',(-1.,0.,0.));
#413=DIRECTION('',(-1.,0.,0.));
#414=DIRECTION('',(0.,1.,0.));
#415=DIRECTION('',(-1.,0.,0.));
#416=DIRECTION('',(0.,0.,1.));
#417=DIRECTION('',(-1.,0.,0.));
#418=DIRECTION('',(0.,0.,-1.));
#419=DIRECTION('',(-1.,0.,0.));
#420=DIRECTION('',(0.,1.,0.));
#421=DIRECTION('',(-1.,0.,0.));
#422=DIRECTION('',(-1.12644381556935E-16,1.,0.));
#423=DIRECTION('',(-1.,-1.12644381556935E-16,0.));
#424=DIRECTION('',(-1.12644381556935E-16,1.,0.));
#425=DIRECTION('',(-1.,-1.12644381556935E-16,0.));
#426=DIRECTION('',(-1.,0.,0.));
#427=DIRECTION('',(-1.12644381556935E-16,1.,0.));
#428=DIRECTION('',(-1.,-1.12644381556935E-16,0.));
#429=DIRECTION('',(0.,0.,1.));
#430=DIRECTION('',(-1.12644381556935E-16,1.,0.));
#431=DIRECTION('',(-1.,-1.12644381556935E-16,0.));
#432=DIRECTION('',(-1.15648231731787E-16,1.,0.));
#433=DIRECTION('',(-1.,-1.15648231731787E-16,0.));
#434=DIRECTION('',(-1.12644381556935E-16,1.,0.));
#435=DIRECTION('',(-1.,-1.12644381556935E-16,0.));
#436=DIRECTION('',(-1.,0.,0.));
#437=DIRECTION('',(0.,0.,1.));
#438=DIRECTION('',(-1.,0.,0.));
#439=DIRECTION('',(0.,-1.,0.));
#440=DIRECTION('',(-1.,0.,0.));
#441=DIRECTION('',(-1.,0.,0.));
#442=DIRECTION('',(0.,-1.,0.));
#443=DIRECTION('',(1.,0.,0.));
#444=DIRECTION('',(0.,1.,0.));
#445=DIRECTION('',(0.,0.,-1.));
#446=DIRECTION('',(0.,1.,0.));
#447=DIRECTION('',(0.,1.,0.));
#448=DIRECTION('',(0.,0.,1.));
#449=DIRECTION('',(0.,-1.,0.));
#450=DIRECTION('',(3.5055870243698E-15,1.,0.));
#451=DIRECTION('',(0.,0.,1.));
#452=DIRECTION('',(0.,-1.,0.));
#453=DIRECTION('',(-1.,0.,0.));
#454=DIRECTION('',(0.,-1.,0.));
#455=DIRECTION('',(-1.,0.,0.));
#456=DIRECTION('',(0.,-1.,0.));
#457=DIRECTION('',(-1.,0.,0.));
#458=DIRECTION('',(1.,0.,0.));
#459=DIRECTION('',(0.,1.,0.));
#460=DIRECTION('',(0.,0.,1.));
#461=DIRECTION('',(0.,-1.,0.));
#462=DIRECTION('',(0.,1.,0.));
#463=DIRECTION('',(0.,1.,0.));
#464=DIRECTION('',(-1.,0.,0.));
#465=DIRECTION('',(0.,-1.,0.));
#466=DIRECTION('',(0.,0.,1.));
#467=DIRECTION('',(0.,1.,0.));
#468=DIRECTION('',(0.,0.,-1.));
#469=DIRECTION('',(1.,0.,0.));
#470=DIRECTION('',(0.,1.,0.));
#471=DIRECTION('',(1.15648231731787E-16,-1.,0.));
#472=DIRECTION('',(1.,1.15648231731787E-16,0.));
#473=DIRECTION('',(0.,1.,0.));
#474=DIRECTION('',(-1.,0.,0.));
#475=DIRECTION('',(0.,1.,0.));
#476=DIRECTION('',(-1.,0.,0.));
#477=DIRECTION('',(0.,0.,1.));
#478=DIRECTION('',(0.,-1.,0.));
#479=DIRECTION('',(0.,0.,-1.));
#480=DIRECTION('',(0.,1.,0.));
#481=DIRECTION('',(-1.,0.,0.));
#482=DIRECTION('',(0.,-1.,0.));
#483=DIRECTION('',(-1.05533270607156E-30,1.,7.30029462806906E-15));
#484=DIRECTION('',(0.,-7.30029462806906E-15,1.));
#485=DIRECTION('',(0.,-1.,0.));
#486=DIRECTION('',(1.,0.,0.));
#487=DIRECTION('',(0.,1.,0.));
#488=DIRECTION('',(-1.,0.,0.));
#489=DIRECTION('',(-1.,0.,0.));
#490=DIRECTION('',(0.,-1.,0.));
#491=DIRECTION('',(-1.04488386739759E-30,-7.2280144832367E-15,1.));
#492=DIRECTION('',(0.,-1.,-7.2280144832367E-15));
#493=DIRECTION('',(0.,0.,-1.));
#494=DIRECTION('',(0.,1.,0.));
#495=CARTESIAN_POINT('',(0.,0.,0.));
#496=CARTESIAN_POINT('',(0.0368,0.0015,0.0015));
#497=CARTESIAN_POINT('',(0.0214,0.0015,0.0015));
#498=CARTESIAN_POINT('',(0.0214,0.0051,0.0063));
#499=CARTESIAN_POINT('',(0.0214,0.0075,0.0015));
#500=CARTESIAN_POINT('',(0.0368,0.0051,0.0063));
#501=CARTESIAN_POINT('',(0.0333693979898752,0.0051,0.0063));
#502=CARTESIAN_POINT('',(0.0366484692283495,0.0075,0.00149999999999996));
#503=CARTESIAN_POINT('',(0.0364277423919521,0.00750000000000001,0.00258133624342505));
#504=CARTESIAN_POINT('',(0.0355074652227902,0.00690808094985091,0.00455667775421528));
#505=CARTESIAN_POINT('',(0.0341148385522901,0.00574200938121963,0.00581849296408528));
#506=CARTESIAN_POINT('',(0.0333693979898752,0.00510000000000002,0.00629999999999999));
#507=CARTESIAN_POINT('',(0.0366484692283495,0.0075,0.00149999999999996));
#508=CARTESIAN_POINT('',(0.0368,0.0075,0.00149999999999996));
#509=CARTESIAN_POINT('',(0.0368,-0.0015,0.0015));
#510=CARTESIAN_POINT('',(0.0214,-0.0015,0.0015));
#511=CARTESIAN_POINT('',(0.0214,-0.0075,0.0015));
#512=CARTESIAN_POINT('',(0.0214,-0.0051,0.0063));
#513=CARTESIAN_POINT('',(0.0368,-0.0075,0.00149999999999996));
#514=CARTESIAN_POINT('',(0.0366484692283495,-0.0075,0.00149999999999996));
#515=CARTESIAN_POINT('',(0.0366484692283495,-0.0075,0.00149999999999996));
#516=CARTESIAN_POINT('',(0.0364277423919521,-0.00750000000000001,0.00258133624342505));
#517=CARTESIAN_POINT('',(0.0355074652227902,-0.00690808094985091,0.00455667775421528));
#518=CARTESIAN_POINT('',(0.0341148385522901,-0.00574200938121963,0.00581849296408528));
#519=CARTESIAN_POINT('',(0.0333693979898752,-0.00510000000000002,0.00629999999999999));
#520=CARTESIAN_POINT('',(0.0333693979898752,-0.0051,0.0063));
#521=CARTESIAN_POINT('',(0.0368,-0.0051,0.0063));
#522=CARTESIAN_POINT('',(0.0368,0.0075,-0.00149999999999996));
#523=CARTESIAN_POINT('',(0.006,0.0075,0.00149999999999996));
#524=CARTESIAN_POINT('',(0.006,0.0075,-0.00149999999999996));
#525=CARTESIAN_POINT('',(0.006,0.0075,0.0075));
#526=CARTESIAN_POINT('',(0.,0.0075,0.0075));
#527=CARTESIAN_POINT('',(0.0214,0.0075,0.0075));
#528=CARTESIAN_POINT('',(0.0214,0.0075,0.));
#529=CARTESIAN_POINT('',(0.0293,0.0075,0.));
#530=CARTESIAN_POINT('',(0.0366484692283495,0.0075,-0.0015));
#531=CARTESIAN_POINT('',(0.0368,0.0075,-0.00149999999999996));
#532=CARTESIAN_POINT('',(0.0368,-0.0075,-0.00149999999999996));
#533=CARTESIAN_POINT('',(0.0214,-0.0075,0.));
#534=CARTESIAN_POINT('',(0.0214,-0.0075,0.0075));
#535=CARTESIAN_POINT('',(0.,-0.0075,0.0075));
#536=CARTESIAN_POINT('',(0.006,-0.0075,0.0075));
#537=CARTESIAN_POINT('',(0.006,-0.0075,-0.00149999999999996));
#538=CARTESIAN_POINT('',(0.006,-0.0075,-0.00149999999999996));
#539=CARTESIAN_POINT('',(0.0368,-0.0075,-0.00149999999999996));
#540=CARTESIAN_POINT('',(0.0366484692283495,-0.0075,-0.0015));
#541=CARTESIAN_POINT('',(0.0293,-0.0075,0.));
#542=CARTESIAN_POINT('',(-5.74486345940371E-19,0.0051,-0.0075));
#543=CARTESIAN_POINT('',(0.0293,0.0051,0.));
#544=CARTESIAN_POINT('',(0.0268,0.0051,0.));
#545=CARTESIAN_POINT('',(0.0368,0.0051,-0.0063));
#546=CARTESIAN_POINT('',(0.0333693979898752,0.0051,-0.0063));
#547=CARTESIAN_POINT('',(0.0214,0.0051,-0.0063));
#548=CARTESIAN_POINT('',(0.0293,0.0051,0.));
#549=CARTESIAN_POINT('',(0.0214,0.0051,-0.0075));
#550=CARTESIAN_POINT('',(5.74486345940371E-19,-0.0051,-0.0075));
#551=CARTESIAN_POINT('',(0.0293,-0.0051,0.));
#552=CARTESIAN_POINT('',(0.0268,-0.0051,0.));
#553=CARTESIAN_POINT('',(0.0293,-0.0051,0.));
#554=CARTESIAN_POINT('',(0.0333693979898752,-0.0051,-0.0063));
#555=CARTESIAN_POINT('',(0.0368,-0.0051,-0.0063));
#556=CARTESIAN_POINT('',(0.0214,-0.0051,-0.0063));
#557=CARTESIAN_POINT('',(0.0214,-0.0051,-0.0075));
#558=CARTESIAN_POINT('',(0.0368,0.0015,-0.0015));
#559=CARTESIAN_POINT('',(0.0368,0.00149999999999996,-0.0075));
#560=CARTESIAN_POINT('',(0.0214,0.00149999999999996,-0.0075));
#561=CARTESIAN_POINT('',(0.006,0.00149999999999996,-0.0075));
#562=CARTESIAN_POINT('',(0.006,0.0015,-0.0015));
#563=CARTESIAN_POINT('',(0.0366484692283495,0.0075,-0.00149999999999996));
#564=CARTESIAN_POINT('',(0.0364277423919521,0.00750000000000001,-0.00258133624342504));
#565=CARTESIAN_POINT('',(0.0355074652227902,0.0069080809498509,-0.00455667775421531));
#566=CARTESIAN_POINT('',(0.0341148385522901,0.00574200938121962,-0.00581849296408528));
#567=CARTESIAN_POINT('',(0.0333693979898752,0.00510000000000002,-0.00629999999999999));
#568=CARTESIAN_POINT('',(0.0214,0.0015,-0.0015));
#569=CARTESIAN_POINT('',(0.0368,-0.00149999999999996,0.0075));
#570=CARTESIAN_POINT('',(0.0214,0.,0.0075));
#571=CARTESIAN_POINT('',(0.006,0.00149999999999993,0.0075));
#572=CARTESIAN_POINT('',(1.05167610731094E-17,0.0015,0.0075));
#573=CARTESIAN_POINT('',(5.25838053655469E-18,-1.84337105781448E-32,0.0075));
#574=CARTESIAN_POINT('',(0.,-0.0015,0.0075));
#575=CARTESIAN_POINT('',(0.006,-0.00149999999999997,0.0075));
#576=CARTESIAN_POINT('',(0.0368,-0.0015,-0.0015));
#577=CARTESIAN_POINT('',(0.006,-0.0015,-0.0015));
#578=CARTESIAN_POINT('',(0.006,-0.00149999999999996,-0.0075));
#579=CARTESIAN_POINT('',(0.0368,-0.00149999999999996,-0.0075));
#580=CARTESIAN_POINT('',(0.0214,-0.00149999999999996,-0.0075));
#581=CARTESIAN_POINT('',(0.0214,-0.0015,-0.0015));
#582=CARTESIAN_POINT('',(0.0366484692283495,-0.0075,-0.00149999999999996));
#583=CARTESIAN_POINT('',(0.0364277423919521,-0.00750000000000001,-0.00258133624342504));
#584=CARTESIAN_POINT('',(0.0355074652227902,-0.0069080809498509,-0.00455667775421531));
#585=CARTESIAN_POINT('',(0.0341148385522901,-0.00574200938121962,-0.00581849296408528));
#586=CARTESIAN_POINT('',(0.0333693979898752,-0.00510000000000002,-0.00629999999999999));
#587=CARTESIAN_POINT('',(0.0368,-0.00149999999999996,-0.0075));
#588=CARTESIAN_POINT('',(0.006,0.00149999999999996,-0.0075));
#589=CARTESIAN_POINT('',(0.0214,0.,-0.0075));
#590=CARTESIAN_POINT('',(0.,0.0015,-0.0015));
#591=CARTESIAN_POINT('',(0.,0.0015,-0.00149999999999996));
#592=CARTESIAN_POINT('',(0.,0.00149999999999996,-0.0015));
#593=CARTESIAN_POINT('',(0.,-0.00149999999999996,-0.0015));
#594=CARTESIAN_POINT('',(0.,-0.0015,-0.0015));
#595=CARTESIAN_POINT('',(0.,-0.0015,0.00149999999999996));
#596=CARTESIAN_POINT('',(0.0214,0.,-0.0075));
#597=CARTESIAN_POINT('',(0.0293,0.0071,0.));
#598=CARTESIAN_POINT('',(0.0293,-0.0075,0.));
#599=CARTESIAN_POINT('',(0.0293,-0.0075,0.));
#600=CARTESIAN_POINT('',(0.006,-0.0015,-0.00149999999999996));
#601=CARTESIAN_POINT('',(0.006,-0.0015,-0.00149999999999996));
#602=CARTESIAN_POINT('',(0.006,-0.0015,-0.0015));
#603=CARTESIAN_POINT('',(0.006,-0.0015,-0.0015));
#604=CARTESIAN_POINT('',(0.006,-0.00149999999999996,-0.0015));
#605=CARTESIAN_POINT('',(0.006,0.00149999999999996,-0.0015));
#606=CARTESIAN_POINT('',(0.006,0.0015,-0.0015));
#607=CARTESIAN_POINT('',(0.006,0.0015,-0.0015));
#608=CARTESIAN_POINT('',(0.006,0.0015,-0.00149999999999996));
#609=MECHANICAL_DESIGN_GEOMETRIC_PRESENTATION_REPRESENTATION('',(#342),
#610);
#610=(
GEOMETRIC_REPRESENTATION_CONTEXT(3)
GLOBAL_UNCERTAINTY_ASSIGNED_CONTEXT((#611))
GLOBAL_UNIT_ASSIGNED_CONTEXT((#614,#613,#612))
REPRESENTATION_CONTEXT('Distal Phalanx Bone_V02',
'TOP_LEVEL_ASSEMBLY_PART')
);
#611=UNCERTAINTY_MEASURE_WITH_UNIT(LENGTH_MEASURE(2.E-5),#614,
'DISTANCE_ACCURACY_VALUE','Maximum Tolerance applied to model');
#612=(
NAMED_UNIT(*)
SI_UNIT($,.STERADIAN.)
SOLID_ANGLE_UNIT()
);
#613=(
NAMED_UNIT(*)
PLANE_ANGLE_UNIT()
SI_UNIT($,.RADIAN.)
);
#614=(
LENGTH_UNIT()
NAMED_UNIT(*)
SI_UNIT($,.METRE.)
);
#615=PRODUCT_DEFINITION_SHAPE('','',#616);
#616=PRODUCT_DEFINITION('','',#618,#617);
#617=PRODUCT_DEFINITION_CONTEXT('',#624,'design');
#618=PRODUCT_DEFINITION_FORMATION_WITH_SPECIFIED_SOURCE('','',#620,
 .NOT_KNOWN.);
#619=PRODUCT_RELATED_PRODUCT_CATEGORY('','',(#620));
#620=PRODUCT('Distal Phalanx Bone_V02','Distal Phalanx Bone_V02',
'Distal Phalanx Bone_V02',(#622));
#621=PRODUCT_CATEGORY('','');
#622=PRODUCT_CONTEXT('',#624,'mechanical');
#623=APPLICATION_PROTOCOL_DEFINITION('international standard',
'ap242_managed_model_based_3d_engineering',2020,#624);
#624=APPLICATION_CONTEXT('managed model based 3d engineering');
ENDSEC;
END-ISO-10303-21;
