ISO-10303-21;
HEADER;
/* Generated by software containing ST-Developer
 * from STEP Tools, Inc. (www.steptools.com) 
 */
/* OPTION: using custom renumber hook */

FILE_DESCRIPTION(
/* description */ ('STEP AP242 Edition 2',
'CAx-IF Rec.Pracs.---Representation and Presentation of Product Manufa
cturing Information (PMI)---4.0---2014-10-13',
'CAx-IF Rec.Pracs.---3D Tessellated Geometry---0.4---2014-09-14','2;1',
'CAx-IF Rec.Pracs.---User Defined Attributes---1.5---2016-08-15'),
/* implementation_level */ '2;1');

FILE_NAME(
/* name */ 'Robotic Hand_V5_simulacra - cover_back',
/* time_stamp */ '2026-09-25T22:15:30Z',
/* author */ (''),
/* organization */ (''),
/* preprocessor_version */ 'ST-DEVELOPER v20',
/* originating_system */ 'ONSHAPE BY PTC INC, 1.221',
/* authorisation */ '  ');

FILE_SCHEMA (('AP242_MANAGED_MODEL_BASED_3D_ENGINEERING_MIM_LF { 1 0 10303 442 3 1 4 }'));
ENDSEC;

DATA;
#10=SHAPE_REPRESENTATION_RELATIONSHIP('','',#110,#11);
#11=ADVANCED_BREP_SHAPE_REPRESENTATION('',(#108),#281);
#12=CYLINDRICAL_SURFACE('',#116,0.006);
#13=(
BOUNDED_SURFACE()
B_SPLINE_SURFACE(2,3,((#183,#184,#185,#186,#187,#188,#189,#190,#191,#192,
#193,#194,#195,#196,#197,#198,#199,#200),(#201,#202,#203,#204,#205,#206,
#207,#208,#209,#210,#211,#212,#213,#214,#215,#216,#217,#218),(#219,#220,
#221,#222,#223,#224,#225,#226,#227,#228,#229,#230,#231,#232,#233,#234,#235,
#236)),.UNSPECIFIED.,.F.,.F.,.F.)
B_SPLINE_SURFACE_WITH_KNOTS((3,3),(4,2,2,2,2,2,2,2,4),(0.,1.),(0.428491561776423,
0.52074558824058,0.851134843294162,1.18152409834774,1.51191335340133,1.84230260845491,
2.17269186350849,2.50308111856207,2.56700042992831),.UNSPECIFIED.)
GEOMETRIC_REPRESENTATION_ITEM()
RATIONAL_B_SPLINE_SURFACE(((1.,1.,1.,1.,1.,1.,1.,1.,1.,1.,1.,1.,1.,1.,1.,
1.,1.,1.),(0.82663978450915,0.82663978450915,0.82663978450915,0.82663978450915,
0.82663978450915,0.82663978450915,0.82663978450915,0.82663978450915,0.82663978450915,
0.82663978450915,0.82663978450915,0.82663978450915,0.82663978450915,0.82663978450915,
0.82663978450915,0.82663978450915,0.82663978450915,0.82663978450915),(1.,
1.,1.,1.,1.,1.,1.,1.,1.,1.,1.,1.,1.,1.,1.,1.,1.,1.)))
REPRESENTATION_ITEM('')
SURFACE()
);
#14=B_SPLINE_CURVE_WITH_KNOTS('',3,(#152,#153,#154,#155,#156,#157,#158,
#159,#160,#161,#162,#163,#164,#165,#166,#167),.UNSPECIFIED.,.F.,.F.,(4,
1,1,1,1,1,1,1,1,1,1,1,1,4),(0.13937952806,0.2309980372867,0.27680729190005,
0.3226165465134,0.36842580112675,0.4142350557401,0.46004431035345,0.5058535649668,
0.5974720741935,0.64328132880685,0.6890905834202,0.73489983803355,0.7807090926469,
0.8723276018736),.UNSPECIFIED.);
#15=B_SPLINE_CURVE_WITH_KNOTS('',3,(#175,#176,#177,#178,#179,#180,#181,
#182),.UNSPECIFIED.,.F.,.F.,(4,1,1,1,1,4),(0.,0.110573235178498,0.221146470356996,
0.442292940713992,0.663439411070988,0.884585881427984),.UNSPECIFIED.);
#16=B_SPLINE_CURVE_WITH_KNOTS('',3,(#237,#238,#239,#240,#241,#242,#243,
#244,#245),.UNSPECIFIED.,.F.,.F.,(4,1,1,1,1,1,4),(0.,0.00240342717205762,
0.00480685434411524,0.00721028151617287,0.00961370868823049,0.0144205630323457,
0.019227417376461),.UNSPECIFIED.);
#17=B_SPLINE_CURVE_WITH_KNOTS('',3,(#246,#247,#248,#249,#250,#251,#252,
#253,#254,#255,#256,#257,#258,#259,#260,#261,#262,#263,#264,#265,#266,#267,
#268,#269,#270,#271,#272,#273,#274,#275,#276,#277),.UNSPECIFIED.,.F.,.F.,
(4,1,1,1,1,1,1,1,1,1,1,1,1,1,1,1,1,1,1,1,1,1,1,1,1,1,1,1,1,4),(0.,0.125,
0.1875,0.21875,0.25,0.28125,0.3125,0.375,0.4375,0.46875,0.484375,0.5,0.515625,
0.53125,0.5625,0.625,0.6875,0.71875,0.734375,0.75,0.765625,0.78125,0.8125,
0.84375,0.859375,0.875,0.890625,0.90625,0.9375,1.),.UNSPECIFIED.);
#18=CIRCLE('',#113,0.006);
#19=ORIENTED_EDGE('',*,*,#43,.T.);
#20=ORIENTED_EDGE('',*,*,#44,.F.);
#21=ORIENTED_EDGE('',*,*,#45,.F.);
#22=ORIENTED_EDGE('',*,*,#46,.T.);
#23=ORIENTED_EDGE('',*,*,#45,.T.);
#24=ORIENTED_EDGE('',*,*,#47,.F.);
#25=ORIENTED_EDGE('',*,*,#48,.T.);
#26=ORIENTED_EDGE('',*,*,#49,.T.);
#27=ORIENTED_EDGE('',*,*,#50,.T.);
#28=ORIENTED_EDGE('',*,*,#43,.F.);
#29=ORIENTED_EDGE('',*,*,#51,.F.);
#30=ORIENTED_EDGE('',*,*,#52,.F.);
#31=ORIENTED_EDGE('',*,*,#53,.F.);
#32=ORIENTED_EDGE('',*,*,#52,.T.);
#33=ORIENTED_EDGE('',*,*,#54,.T.);
#34=ORIENTED_EDGE('',*,*,#48,.F.);
#35=ORIENTED_EDGE('',*,*,#54,.F.);
#36=ORIENTED_EDGE('',*,*,#51,.T.);
#37=ORIENTED_EDGE('',*,*,#46,.F.);
#38=ORIENTED_EDGE('',*,*,#49,.F.);
#39=ORIENTED_EDGE('',*,*,#53,.T.);
#40=ORIENTED_EDGE('',*,*,#47,.T.);
#41=ORIENTED_EDGE('',*,*,#44,.T.);
#42=ORIENTED_EDGE('',*,*,#50,.F.);
#43=EDGE_CURVE('',#55,#56,#63,.T.);
#44=EDGE_CURVE('',#57,#56,#64,.T.);
#45=EDGE_CURVE('',#58,#57,#65,.T.);
#46=EDGE_CURVE('',#58,#55,#18,.F.);
#47=EDGE_CURVE('',#59,#57,#66,.T.);
#48=EDGE_CURVE('',#59,#60,#14,.T.);
#49=EDGE_CURVE('',#60,#58,#67,.F.);
#50=EDGE_CURVE('',#61,#56,#68,.T.);
#51=EDGE_CURVE('',#62,#55,#69,.T.);
#52=EDGE_CURVE('',#61,#62,#15,.F.);
#53=EDGE_CURVE('',#61,#59,#16,.T.);
#54=EDGE_CURVE('',#62,#60,#17,.F.);
#55=VERTEX_POINT('',#142);
#56=VERTEX_POINT('',#143);
#57=VERTEX_POINT('',#145);
#58=VERTEX_POINT('',#147);
#59=VERTEX_POINT('',#151);
#60=VERTEX_POINT('',#168);
#61=VERTEX_POINT('',#172);
#62=VERTEX_POINT('',#174);
#63=LINE('',#141,#70);
#64=LINE('',#144,#71);
#65=LINE('',#146,#72);
#66=LINE('',#150,#73);
#67=LINE('',#169,#74);
#68=LINE('',#171,#75);
#69=LINE('',#173,#76);
#70=VECTOR('',#122,1.);
#71=VECTOR('',#123,1.);
#72=VECTOR('',#124,1.);
#73=VECTOR('',#129,1.);
#74=VECTOR('',#130,1.);
#75=VECTOR('',#133,1.);
#76=VECTOR('',#134,1.);
#77=EDGE_LOOP('',(#19,#20,#21,#22));
#78=EDGE_LOOP('',(#23,#24,#25,#26));
#79=EDGE_LOOP('',(#27,#28,#29,#30));
#80=EDGE_LOOP('',(#31,#32,#33,#34));
#81=EDGE_LOOP('',(#35,#36,#37,#38));
#82=EDGE_LOOP('',(#39,#40,#41,#42));
#83=FACE_BOUND('',#77,.T.);
#84=FACE_BOUND('',#78,.T.);
#85=FACE_BOUND('',#79,.T.);
#86=FACE_BOUND('',#80,.T.);
#87=FACE_BOUND('',#81,.T.);
#88=FACE_BOUND('',#82,.T.);
#89=PLANE('',#112);
#90=PLANE('',#114);
#91=PLANE('',#115);
#92=PLANE('',#117);
#93=ADVANCED_FACE('',(#83),#89,.F.);
#94=ADVANCED_FACE('',(#84),#90,.F.);
#95=ADVANCED_FACE('',(#85),#91,.T.);
#96=ADVANCED_FACE('',(#86),#13,.T.);
#97=ADVANCED_FACE('',(#87),#12,.T.);
#98=ADVANCED_FACE('',(#88),#92,.F.);
#99=CLOSED_SHELL('',(#93,#94,#95,#96,#97,#98));
#100=STYLED_ITEM('',(#101),#108);
#101=PRESENTATION_STYLE_ASSIGNMENT((#102));
#102=SURFACE_STYLE_USAGE(.BOTH.,#103);
#103=SURFACE_SIDE_STYLE('',(#104));
#104=SURFACE_STYLE_FILL_AREA(#105);
#105=FILL_AREA_STYLE('',(#106));
#106=FILL_AREA_STYLE_COLOUR('',#107);
#107=COLOUR_RGB('',0.796078431372549,0.823529411764706,0.937254901960784);
#108=MANIFOLD_SOLID_BREP('cover_back',#99);
#109=SHAPE_DEFINITION_REPRESENTATION(#286,#110);
#110=SHAPE_REPRESENTATION('cover_back',(#111),#281);
#111=AXIS2_PLACEMENT_3D('',#139,#118,#119);
#112=AXIS2_PLACEMENT_3D('',#140,#120,#121);
#113=AXIS2_PLACEMENT_3D('',#148,#125,#126);
#114=AXIS2_PLACEMENT_3D('',#149,#127,#128);
#115=AXIS2_PLACEMENT_3D('',#170,#131,#132);
#116=AXIS2_PLACEMENT_3D('',#278,#135,#136);
#117=AXIS2_PLACEMENT_3D('',#279,#137,#138);
#118=DIRECTION('',(0.,0.,1.));
#119=DIRECTION('',(1.,0.,0.));
#120=DIRECTION('',(0.,0.,1.));
#121=DIRECTION('',(0.,-1.,0.));
#122=DIRECTION('',(1.,0.,0.));
#123=DIRECTION('',(0.,1.,0.));
#124=DIRECTION('',(1.,0.,0.));
#125=DIRECTION('',(0.,0.,1.));
#126=DIRECTION('',(0.,-1.,0.));
#127=DIRECTION('',(0.,1.,0.));
#128=DIRECTION('',(-1.,0.,0.));
#129=DIRECTION('',(0.,0.,-1.));
#130=DIRECTION('',(0.,0.,1.));
#131=DIRECTION('',(0.,1.,0.));
#132=DIRECTION('',(-1.,0.,0.));
#133=DIRECTION('',(0.,0.,-1.));
#134=DIRECTION('',(0.,0.,-1.));
#135=DIRECTION('',(0.,0.,1.));
#136=DIRECTION('',(0.,-1.,0.));
#137=DIRECTION('',(-1.,0.,0.));
#138=DIRECTION('',(0.,-1.,0.));
#139=CARTESIAN_POINT('',(0.,0.,0.));
#140=CARTESIAN_POINT('',(0.,-0.0045,0.));
#141=CARTESIAN_POINT('',(0.,0.,0.));
#142=CARTESIAN_POINT('',(0.,0.,0.));
#143=CARTESIAN_POINT('',(0.0711377861613914,0.,0.));
#144=CARTESIAN_POINT('',(0.0711377861613914,-0.0045,0.));
#145=CARTESIAN_POINT('',(0.0711377861613914,-0.0045,0.));
#146=CARTESIAN_POINT('',(0.,-0.0045,0.));
#147=CARTESIAN_POINT('',(0.00580947501931113,-0.0045,0.));
#148=CARTESIAN_POINT('',(0.00580947501931113,0.0015,0.));
#149=CARTESIAN_POINT('',(0.0404471995100317,-0.0045,0.));
#150=CARTESIAN_POINT('',(0.0711377861613914,-0.0045,0.1));
#151=CARTESIAN_POINT('',(0.0711377861613914,-0.0045,0.0293671802247185));
#152=CARTESIAN_POINT('',(0.0711379838450674,-0.0045,0.0293673692125705));
#153=CARTESIAN_POINT('',(0.0689742348490891,-0.0045,0.0316306779439042));
#154=CARTESIAN_POINT('',(0.0654099324056884,-0.0045,0.0346200997695412));
#155=CARTESIAN_POINT('',(0.0599846602660906,-0.0045,0.0378157897816551));
#156=CARTESIAN_POINT('',(0.0557362087194111,-0.0045,0.0397263799871611));
#157=CARTESIAN_POINT('',(0.0512868046904563,-0.0045,0.0411606100472791));
#158=CARTESIAN_POINT('',(0.0466696295641582,-0.0045,0.0421087295140015));
#159=CARTESIAN_POINT('',(0.0420432960496207,-0.0045,0.0425366009965726));
#160=CARTESIAN_POINT('',(0.0357641211868959,-0.0045,0.0424206855701076));
#161=CARTESIAN_POINT('',(0.029645103635442,-0.0045,0.0412921501405181));
#162=CARTESIAN_POINT('',(0.0237321863243934,-0.0045,0.0391454891432902));
#163=CARTESIAN_POINT('',(0.0195540104916122,-0.0045,0.0370866405103715));
#164=CARTESIAN_POINT('',(0.0156135772378751,-0.0045,0.0345678780232771));
#165=CARTESIAN_POINT('',(0.0107191164585602,-0.0045,0.0306277136985941));
#166=CARTESIAN_POINT('',(0.00762854103672664,-0.0045,0.0271502640790748));
#167=CARTESIAN_POINT('',(0.00580825143945447,-0.0045,0.0245863251077356));
#168=CARTESIAN_POINT('',(0.0058082588421266,-0.0045,0.0245863198521475));
#169=CARTESIAN_POINT('',(0.00580947501931112,-0.0045,0.));
#170=CARTESIAN_POINT('',(0.0404471995100317,0.,0.));
#171=CARTESIAN_POINT('',(0.0711377861613914,0.,0.1));
#172=CARTESIAN_POINT('',(0.0711377861712254,1.11028703368264E-15,0.0473587300487862));
#173=CARTESIAN_POINT('',(0.,0.,0.0393546802534015));
#174=CARTESIAN_POINT('',(0.,1.18052985629072E-6,0.0393546804011156));
#175=CARTESIAN_POINT('',(1.47658697768893E-10,0.,0.0393546804051594));
#176=CARTESIAN_POINT('',(0.00226008988179392,0.,0.0416775121271376));
#177=CARTESIAN_POINT('',(0.00715210440839213,0.,0.0459078827719416));
#178=CARTESIAN_POINT('',(0.0182717506078848,0.,0.0526016777122381));
#179=CARTESIAN_POINT('',(0.0340069993304517,0.,0.0571954160735364));
#180=CARTESIAN_POINT('',(0.0536588362594401,0.,0.0560169878509767));
#181=CARTESIAN_POINT('',(0.0657050957241753,0.,0.0508785655814103));
#182=CARTESIAN_POINT('',(0.0711378447259165,0.,0.0473588204283239));
#183=CARTESIAN_POINT('',(-0.0108834901719029,3.67118645206065E-15,0.0234478570543538));
#184=CARTESIAN_POINT('',(-0.0101628708712248,1.69877975188943E-15,0.0250264884664305));
#185=CARTESIAN_POINT('',(-0.00936957534855602,1.73472347597681E-18,0.0265719289417993));
#186=CARTESIAN_POINT('',(-0.00541401313913021,1.73472347597681E-18,0.0334685318278151));
#187=CARTESIAN_POINT('',(-0.00142386284546752,-1.97718894129711E-15,0.0383432860562022));
#188=CARTESIAN_POINT('',(0.00792390686027976,1.98065838824906E-15,0.0465363178988104));
#189=CARTESIAN_POINT('',(0.0132796795499764,3.95611260607019E-15,0.0498529769179834));
#190=CARTESIAN_POINT('',(0.024779797501914,-3.95958205302215E-15,0.0545703762372742));
#191=CARTESIAN_POINT('',(0.0309218708291811,1.9780563030351E-15,0.0559701845796776));
#192=CARTESIAN_POINT('',(0.0433303954075978,-1.97979102651107E-15,0.0567016810137186));
#193=CARTESIAN_POINT('',(0.0495943952611919,-9.89722040907939E-15,0.0560332245926967));
#194=CARTESIAN_POINT('',(0.0615691245664308,9.89201623865146E-15,0.0526996938347257));
#195=CARTESIAN_POINT('',(0.0672774883198876,9.89548568560342E-15,0.0500352780619744));
#196=CARTESIAN_POINT('',(0.077523143100918,-9.89375096212745E-15,0.0429973005572891));
#197=CARTESIAN_POINT('',(0.0820584100219271,-1.9780563030351E-15,0.0386251292308226));
#198=CARTESIAN_POINT('',(0.0864792081529643,3.8372314764461E-16,0.0326690489096927));
#199=CARTESIAN_POINT('',(0.087164671991558,2.57295043756851E-17,0.0316804872756487));
#200=CARTESIAN_POINT('',(0.0878178541435204,-6.86133514072601E-16,0.0306710418747222));
#201=CARTESIAN_POINT('',(-0.00927034017898436,-0.00449999999999827,0.0227109702002016));
#202=CARTESIAN_POINT('',(-0.00857236750602537,-0.0044999999999984,0.0242399905654174));
#203=CARTESIAN_POINT('',(-0.00780400257896593,-0.00449999999999889,0.0257368630728254));
#204=CARTESIAN_POINT('',(-0.00397275031335826,-0.00450000000000395,0.0324167290522179));
#205=CARTESIAN_POINT('',(-0.000107996950021418,-0.00449999999999802,0.0371382862400526));
#206=CARTESIAN_POINT('',(0.0089460039650064,-0.00450000000000198,0.0450738387980162));
#207=CARTESIAN_POINT('',(0.01413346283056,-0.00449999999999999,0.0482862664400883));
#208=CARTESIAN_POINT('',(0.025272170964941,-0.00449999999999999,0.0528554138514993));
#209=CARTESIAN_POINT('',(0.0312212196980453,-0.00450000000000395,0.0542112309513881));
#210=CARTESIAN_POINT('',(0.0432397863105678,-0.00449999999999604,0.0549197389262082));
#211=CARTESIAN_POINT('',(0.0493069298315867,-0.00449999999999999,0.0542722898299808));
#212=CARTESIAN_POINT('',(0.0609053338894288,-0.00449999999999999,0.051043520670823));
#213=CARTESIAN_POINT('',(0.0664343030739625,-0.00449999999999999,0.0484628384755994));
#214=CARTESIAN_POINT('',(0.0763579715726922,-0.00449999999999999,0.0416460408037458));
#215=CARTESIAN_POINT('',(0.0807507103911963,-0.00449999999999999,0.0374112720367888));
#216=CARTESIAN_POINT('',(0.0850325777866779,-0.00449999999999999,0.0316423711786163));
#217=CARTESIAN_POINT('',(0.0856964998148365,-0.00449999999999992,0.0306848766937333));
#218=CARTESIAN_POINT('',(0.0863291546606066,-0.00449999999999981,0.029707154748138));
#219=CARTESIAN_POINT('',(0.00180988199457508,-0.0045,0.0176495251413892));
#220=CARTESIAN_POINT('',(0.00235230207310151,-0.0045,0.0188377827604904));
#221=CARTESIAN_POINT('',(0.00294942654547681,-0.0045,0.0200010571041245));
#222=CARTESIAN_POINT('',(0.00592683273239924,-0.0045,0.0251922251389928));
#223=CARTESIAN_POINT('',(0.00893027384698689,-0.0045,0.0288615198260316));
#224=CARTESIAN_POINT('',(0.0159664689267603,-0.0045,0.0350285278027267));
#225=CARTESIAN_POINT('',(0.0199978328385926,-0.0045,0.037525022753553));
#226=CARTESIAN_POINT('',(0.0286541301049403,-0.0045,0.0410758742320186));
#227=CARTESIAN_POINT('',(0.0332773533427366,-0.0045,0.0421295292622028));
#228=CARTESIAN_POINT('',(0.0426174207956473,-0.0045,0.0426801367088886));
#229=CARTESIAN_POINT('',(0.0473324198100907,-0.0045,0.0421769803487565));
#230=CARTESIAN_POINT('',(0.0563459635827154,-0.0045,0.0396677858075972));
#231=CARTESIAN_POINT('',(0.0606427276473114,-0.0045,0.0376622433369294));
#232=CARTESIAN_POINT('',(0.0683547731970955,-0.0045,0.0323646606783306));
#233=CARTESIAN_POINT('',(0.0717685311093681,-0.0045,0.029073667067682));
#234=CARTESIAN_POINT('',(0.0750961267859312,-0.0045,0.0245904433287961));
#235=CARTESIAN_POINT('',(0.0756120848636681,-0.0045,0.0238463393634135));
#236=CARTESIAN_POINT('',(0.0761037440710022,-0.0045,0.0230865158988984));
#237=CARTESIAN_POINT('',(0.0711377861629489,-6.51492275159091E-13,0.0473586017418554));
#238=CARTESIAN_POINT('',(0.0711377861629489,-0.000739267100627231,0.0470114572305968));
#239=CARTESIAN_POINT('',(0.0711377861606685,-0.00180145517235098,0.0457384378746249));
#240=CARTESIAN_POINT('',(0.0711377861615849,-0.00277631134491974,0.0435360404909434));
#241=CARTESIAN_POINT('',(0.0711377861613407,-0.00342714367792229,0.0412485095245794));
#242=CARTESIAN_POINT('',(0.0711377861614206,-0.0040304950040753,0.0381043118802588));
#243=CARTESIAN_POINT('',(0.0711377861613808,-0.00441922238720592,0.0341459475875725));
#244=CARTESIAN_POINT('',(0.0711377861613914,-0.00449999330180727,0.0309621428476587));
#245=CARTESIAN_POINT('',(0.0711377861613914,-0.00449999999916908,0.0293671802247185));
#246=CARTESIAN_POINT('',(0.00580947501931115,-0.0045,0.0245880165828014));
#247=CARTESIAN_POINT('',(0.00558898900698555,-0.0045,0.0253203298424509));
#248=CARTESIAN_POINT('',(0.00525771367783236,-0.00448152063965513,0.0263829739394638));
#249=CARTESIAN_POINT('',(0.00487871292322472,-0.00442925496671096,0.027545573789794));
#250=CARTESIAN_POINT('',(0.00465909956291541,-0.00438935162671644,0.0282043949160756));
#251=CARTESIAN_POINT('',(0.00450857707406943,-0.00435820586690523,0.0286503153515041));
#252=CARTESIAN_POINT('',(0.00430859442674356,-0.0043104502782226,0.0292339091410743));
#253=CARTESIAN_POINT('',(0.0040626818324755,-0.00424250569969478,0.0299394461313899));
#254=CARTESIAN_POINT('',(0.00375522466569024,-0.00414188465572528,0.0308021651535366));
#255=CARTESIAN_POINT('',(0.0034574780028065,-0.00402227791190882,0.031612998818001));
#256=CARTESIAN_POINT('',(0.00325646709631173,-0.00393046576923297,0.0321493826761719));
#257=CARTESIAN_POINT('',(0.0031391083719753,-0.0038732187185123,0.0324591097675913));
#258=CARTESIAN_POINT('',(0.00306342929513385,-0.0038351083449262,0.0326577388045108));
#259=CARTESIAN_POINT('',(0.00294443618877256,-0.00377233233144092,0.0329674790233337));
#260=CARTESIAN_POINT('',(0.00280328393189852,-0.00369363627114067,0.0333311803825181));
#261=CARTESIAN_POINT('',(0.00255408938097667,-0.00354486999531593,0.0339649691954993));
#262=CARTESIAN_POINT('',(0.00221778242877661,-0.00331454610835553,0.0347968942998255));
#263=CARTESIAN_POINT('',(0.0019008712684547,-0.00305707067868728,0.0355527526497284));
#264=CARTESIAN_POINT('',(0.00169501117512291,-0.00286851288290627,0.0360304384768727));
#265=CARTESIAN_POINT('',(0.00157619654461258,-0.00275239420743953,0.0363018205311912));
#266=CARTESIAN_POINT('',(0.00150265023926968,-0.00267832042129141,0.0364685202372978));
#267=CARTESIAN_POINT('',(0.00137869619305461,-0.00254707410963336,0.0367458441422401));
#268=CARTESIAN_POINT('',(0.00123689118242062,-0.00238727248329055,0.0370578388938547));
#269=CARTESIAN_POINT('',(0.00106138619919857,-0.00217301931918268,0.0374354242705679));
#270=CARTESIAN_POINT('',(0.000902666831045907,-0.00195634986634085,0.0377657289891919));
#271=CARTESIAN_POINT('',(0.000777801258583194,-0.00176936842729824,0.0380180720113266));
#272=CARTESIAN_POINT('',(0.000701500320374592,-0.00164983898823251,0.0381699243442574));
#273=CARTESIAN_POINT('',(0.000577694154058177,-0.0014407221378187,0.0384096963970402));
#274=CARTESIAN_POINT('',(0.000440909206432988,-0.0011858427915386,0.0386646319230234));
#275=CARTESIAN_POINT('',(0.000217765264810461,-0.000711733789823374,0.0390575475518751));
#276=CARTESIAN_POINT('',(7.45914705106481E-5,-0.000288962673616491,0.0392666980806097));
#277=CARTESIAN_POINT('',(-8.93408511103491E-8,3.46058207858916E-7,0.0393534495646022));
#278=CARTESIAN_POINT('',(0.00580947501931113,0.0015,0.0393546802534015));
#279=CARTESIAN_POINT('',(0.0711377861613914,-0.0045,0.1));
#280=MECHANICAL_DESIGN_GEOMETRIC_PRESENTATION_REPRESENTATION('',(#100),
#281);
#281=(
GEOMETRIC_REPRESENTATION_CONTEXT(3)
GLOBAL_UNCERTAINTY_ASSIGNED_CONTEXT((#282))
GLOBAL_UNIT_ASSIGNED_CONTEXT((#285,#284,#283))
REPRESENTATION_CONTEXT('cover_back','TOP_LEVEL_ASSEMBLY_PART')
);
#282=UNCERTAINTY_MEASURE_WITH_UNIT(LENGTH_MEASURE(2.19106503208596E-5),
#285,'DISTANCE_ACCURACY_VALUE','Maximum Tolerance applied to model');
#283=(
NAMED_UNIT(*)
SI_UNIT($,.STERADIAN.)
SOLID_ANGLE_UNIT()
);
#284=(
NAMED_UNIT(*)
PLANE_ANGLE_UNIT()
SI_UNIT($,.RADIAN.)
);
#285=(
LENGTH_UNIT()
NAMED_UNIT(*)
SI_UNIT($,.METRE.)
);
#286=PRODUCT_DEFINITION_SHAPE('','',#287);
#287=PRODUCT_DEFINITION('','',#289,#288);
#288=PRODUCT_DEFINITION_CONTEXT('',#295,'design');
#289=PRODUCT_DEFINITION_FORMATION_WITH_SPECIFIED_SOURCE('','',#291,
 .NOT_KNOWN.);
#290=PRODUCT_RELATED_PRODUCT_CATEGORY('','',(#291));
#291=PRODUCT('cover_back','cover_back','cover_back',(#293));
#292=PRODUCT_CATEGORY('','');
#293=PRODUCT_CONTEXT('',#295,'mechanical');
#294=APPLICATION_PROTOCOL_DEFINITION('international standard',
'ap242_managed_model_based_3d_engineering',2020,#295);
#295=APPLICATION_CONTEXT('managed model based 3d engineering');
ENDSEC;
END-ISO-10303-21;
