ISO-10303-21;
HEADER;
/* Generated by software containing ST-Developer
 * from STEP Tools, Inc. (www.steptools.com) 
 */
/* OPTION: using custom renumber hook */

FILE_DESCRIPTION(
/* description */ ('STEP AP242 Edition 2',
'CAx-IF Rec.Pracs.---Representation and Presentation of Product Manufa
cturing Information (PMI)---4.0---2014-10-13',
'CAx-IF Rec.Pracs.---3D Tessellated Geometry---0.4---2014-09-14','2;1',
'CAx-IF Rec.Pracs.---User Defined Attributes---1.5---2016-08-15'),
/* implementation_level */ '2;1');

FILE_NAME(
/* name */ 'Robotic Hand_V5_simulacra - first_thumb_hinge',
/* time_stamp */ '2026-09-25T22:15:30Z',
/* author */ (''),
/* organization */ (''),
/* preprocessor_version */ 'ST-DEVELOPER v20',
/* originating_system */ 'ONSHAPE BY PTC INC, 1.221',
/* authorisation */ '  ');

FILE_SCHEMA (('AP242_MANAGED_MODEL_BASED_3D_ENGINEERING_MIM_LF { 1 0 10303 442 3 1 4 }'));
ENDSEC;

DATA;
#10=SHAPE_REPRESENTATION_RELATIONSHIP('','',#510,#11);
#11=ADVANCED_BREP_SHAPE_REPRESENTATION('',(#508),#1154);
#12=(
BOUNDED_SURFACE()
B_SPLINE_SURFACE(3,2,((#987,#988,#989),(#990,#991,#992),(#993,#994,#995),
(#996,#997,#998),(#999,#1000,#1001),(#1002,#1003,#1004),(#1005,#1006,#1007),
(#1008,#1009,#1010),(#1011,#1012,#1013),(#1014,#1015,#1016),(#1017,#1018,
#1019)),.UNSPECIFIED.,.F.,.F.,.F.)
B_SPLINE_SURFACE_WITH_KNOTS((4,1,1,1,1,1,1,1,4),(3,3),(0.0120690371616622,
0.0140700262128344,0.0160710152640065,0.0170715097895926,0.0180720043151787,
0.0185722515779717,0.0190724988407648,0.0195727461035578,0.0200729933663508),
(0.,1.),.UNSPECIFIED.)
GEOMETRIC_REPRESENTATION_ITEM()
RATIONAL_B_SPLINE_SURFACE(((1.,0.962009929742938,1.),(1.,0.962977169414562,
1.),(1.,0.96556036147184,1.),(1.,0.972885231697731,1.),(1.,0.981690637917054,
1.),(1.,0.987927821880127,1.),(1.,0.992829867010965,1.),(1.,0.996065290776138,
1.),(1.,0.998302978716646,1.),(1.,0.997107917267566,1.),(1.,0.996147729306014,
1.)))
REPRESENTATION_ITEM('')
SURFACE()
);
#13=(
BOUNDED_SURFACE()
B_SPLINE_SURFACE(3,2,((#1021,#1022,#1023),(#1024,#1025,#1026),(#1027,#1028,
#1029),(#1030,#1031,#1032),(#1033,#1034,#1035)),.UNSPECIFIED.,.F.,.F.,.F.)
B_SPLINE_SURFACE_WITH_KNOTS((4,1,4),(3,3),(0.012180489603222,0.0151742500542017,
0.0181680105051813),(0.,1.),.UNSPECIFIED.)
GEOMETRIC_REPRESENTATION_ITEM()
RATIONAL_B_SPLINE_SURFACE(((1.,0.962009929742938,1.),(1.,0.960599274082692,
1.),(1.,0.9592104081365,1.),(1.,0.960582355544115,1.),(1.,0.962009929742938,
1.)))
REPRESENTATION_ITEM('')
SURFACE()
);
#14=(
BOUNDED_SURFACE()
B_SPLINE_SURFACE(3,2,((#1037,#1038,#1039),(#1040,#1041,#1042),(#1043,#1044,
#1045),(#1046,#1047,#1048),(#1049,#1050,#1051),(#1052,#1053,#1054),(#1055,
#1056,#1057),(#1058,#1059,#1060),(#1061,#1062,#1063),(#1064,#1065,#1066),
(#1067,#1068,#1069)),.UNSPECIFIED.,.F.,.F.,.F.)
B_SPLINE_SURFACE_WITH_KNOTS((4,1,1,1,1,1,1,1,4),(3,3),(0.0125739335672367,
0.0130759742566538,0.0135780149460709,0.0140800556354879,0.014582096324905,
0.0155861777037391,0.0165902590825732,0.0185984218402415,0.0206065845979098),
(0.,1.),.UNSPECIFIED.)
GEOMETRIC_REPRESENTATION_ITEM()
RATIONAL_B_SPLINE_SURFACE(((1.,0.996149398181037,1.),(1.,0.99710317541015,
1.),(1.,0.998297900578396,1.),(1.,0.996094912855542,1.),(1.,0.992810508498038,
1.),(1.,0.987949625291133,1.),(1.,0.981686342718508,1.),(1.,0.972852650382925,
1.),(1.,0.965586270592603,1.),(1.,0.962973748601133,1.),(1.,0.962009929742938,
1.)))
REPRESENTATION_ITEM('')
SURFACE()
);
#15=(
BOUNDED_SURFACE()
B_SPLINE_SURFACE(3,2,((#1070,#1071,#1072),(#1073,#1074,#1075),(#1076,#1077,
#1078),(#1079,#1080,#1081),(#1082,#1083,#1084),(#1085,#1086,#1087),(#1088,
#1089,#1090),(#1091,#1092,#1093),(#1094,#1095,#1096),(#1097,#1098,#1099),
(#1100,#1101,#1102)),.UNSPECIFIED.,.F.,.F.,.F.)
B_SPLINE_SURFACE_WITH_KNOTS((4,1,1,1,1,1,1,1,4),(3,3),(0.0120690371616622,
0.0140700262128344,0.0160710152640066,0.0170715097895926,0.0180720043151787,
0.0185722515779718,0.0190724988407648,0.0195727461035579,0.0200729933663509),
(0.,1.),.UNSPECIFIED.)
GEOMETRIC_REPRESENTATION_ITEM()
RATIONAL_B_SPLINE_SURFACE(((1.,0.962009929742938,1.),(1.,0.962977169414562,
1.),(1.,0.965560361471841,1.),(1.,0.972885231697731,1.),(1.,0.981690637917054,
1.),(1.,0.987927821880127,1.),(1.,0.992829867010965,1.),(1.,0.996065290776139,
1.),(1.,0.998302978716642,1.),(1.,0.997107917267576,1.),(1.,0.996147729306014,
1.)))
REPRESENTATION_ITEM('')
SURFACE()
);
#16=(
BOUNDED_SURFACE()
B_SPLINE_SURFACE(3,2,((#1104,#1105,#1106),(#1107,#1108,#1109),(#1110,#1111,
#1112),(#1113,#1114,#1115),(#1116,#1117,#1118)),.UNSPECIFIED.,.F.,.F.,.F.)
B_SPLINE_SURFACE_WITH_KNOTS((4,1,4),(3,3),(0.0121804896032222,0.0151742500542018,
0.0181680105051815),(0.,1.),.UNSPECIFIED.)
GEOMETRIC_REPRESENTATION_ITEM()
RATIONAL_B_SPLINE_SURFACE(((1.,0.962009929742938,1.),(1.,0.960599274082855,
1.),(1.,0.959210408136419,1.),(1.,0.960582355544115,1.),(1.,0.962009929742938,
1.)))
REPRESENTATION_ITEM('')
SURFACE()
);
#17=(
BOUNDED_SURFACE()
B_SPLINE_SURFACE(3,2,((#1120,#1121,#1122),(#1123,#1124,#1125),(#1126,#1127,
#1128),(#1129,#1130,#1131),(#1132,#1133,#1134),(#1135,#1136,#1137),(#1138,
#1139,#1140),(#1141,#1142,#1143),(#1144,#1145,#1146),(#1147,#1148,#1149),
(#1150,#1151,#1152)),.UNSPECIFIED.,.F.,.F.,.F.)
B_SPLINE_SURFACE_WITH_KNOTS((4,1,1,1,1,1,1,1,4),(3,3),(0.0125739335672368,
0.0130759742566536,0.0135780149460705,0.0140800556354873,0.0145820963249041,
0.0155861777037378,0.0165902590825715,0.0185984218402388,0.0206065845979062),
(0.,1.),.UNSPECIFIED.)
GEOMETRIC_REPRESENTATION_ITEM()
RATIONAL_B_SPLINE_SURFACE(((1.,0.996149398181037,1.),(1.,0.997103175410177,
1.),(1.,0.998297900578383,1.),(1.,0.996094912855546,1.),(1.,0.992810508498038,
1.),(1.,0.987949625291134,1.),(1.,0.98168634271851,1.),(1.,0.972852650382925,
1.),(1.,0.965586270592587,1.),(1.,0.96297374860117,1.),(1.,0.962009929742938,
1.)))
REPRESENTATION_ITEM('')
SURFACE()
);
#18=TOROIDAL_SURFACE('',#534,0.00678479232522321,0.006);
#19=TOROIDAL_SURFACE('',#536,0.00678479232522321,0.006);
#20=TOROIDAL_SURFACE('',#555,0.0065,0.002);
#21=TOROIDAL_SURFACE('',#556,0.0065,0.002);
#22=CIRCLE('',#522,0.0123229253422989);
#23=CIRCLE('',#523,0.01);
#24=CIRCLE('',#525,0.01);
#25=CIRCLE('',#526,0.0123229253422989);
#26=CIRCLE('',#528,0.00678479232522321);
#27=CIRCLE('',#529,0.00325);
#28=CIRCLE('',#531,0.00678479232522321);
#29=CIRCLE('',#532,0.00325);
#30=CIRCLE('',#535,0.0085);
#31=CIRCLE('',#537,0.0085);
#32=CIRCLE('',#539,0.00325);
#33=CIRCLE('',#540,0.0065);
#34=CIRCLE('',#541,0.0085);
#35=CIRCLE('',#542,0.0065);
#36=CIRCLE('',#546,0.00325);
#37=CIRCLE('',#547,0.0065);
#38=CIRCLE('',#548,0.0065);
#39=CIRCLE('',#549,0.0085);
#40=CIRCLE('',#557,0.002);
#41=CIRCLE('',#558,0.002);
#42=CIRCLE('',#559,0.002);
#43=CIRCLE('',#560,0.002);
#44=B_SPLINE_CURVE_WITH_KNOTS('',3,(#704,#705,#706,#707,#708,#709,#710,
#711,#712),.UNSPECIFIED.,.F.,.F.,(4,1,1,1,1,1,4),(4.67088590647017E-18,
0.003516378747138,0.005274568120707,0.007032757494276,0.008790946867845,
0.010549136241414,0.014065514988552),.UNSPECIFIED.);
#45=B_SPLINE_CURVE_WITH_KNOTS('',3,(#721,#722,#723,#724),.UNSPECIFIED.,
 .F.,.F.,(4,4),(0.0111311007756295,0.0149403292774989),.UNSPECIFIED.);
#46=B_SPLINE_CURVE_WITH_KNOTS('',3,(#736,#737,#738,#739),.UNSPECIFIED.,
 .F.,.F.,(4,4),(0.,0.00378818818887614),.UNSPECIFIED.);
#47=B_SPLINE_CURVE_WITH_KNOTS('',3,(#765,#766,#767,#768,#769,#770,#771,
#772,#773),.UNSPECIFIED.,.F.,.F.,(4,1,1,1,1,1,4),(4.98607027425186E-16,
0.000805993063884053,0.00161198612776761,0.00241797919165116,0.00322397225553472,
0.00483595838330182,0.00644794451106893),.UNSPECIFIED.);
#48=B_SPLINE_CURVE_WITH_KNOTS('',3,(#775,#776,#777,#778,#779),
 .UNSPECIFIED.,.F.,.F.,(4,1,4),(0.,0.00291818737068478,0.00583637474136957),
 .UNSPECIFIED.);
#49=B_SPLINE_CURVE_WITH_KNOTS('',3,(#781,#782,#783,#784,#785,#786,#787,
#788,#789),.UNSPECIFIED.,.F.,.F.,(4,1,1,1,1,1,4),(0.,0.0015774045517647,
0.0031548091035294,0.00394351137941175,0.0047322136552941,0.00552091593117645,
0.0063096182070588),.UNSPECIFIED.);
#50=B_SPLINE_CURVE_WITH_KNOTS('',3,(#792,#793,#794,#795,#796),
 .UNSPECIFIED.,.F.,.F.,(4,1,4),(0.00297327249726764,0.00531858129223467,
0.0076638900872017),.UNSPECIFIED.);
#51=B_SPLINE_CURVE_WITH_KNOTS('',3,(#799,#800,#801,#802,#803,#804,#805,
#806,#807),.UNSPECIFIED.,.F.,.F.,(4,1,1,1,1,1,4),(0.,0.000805993063883355,
0.00161198612776671,0.00241797919165006,0.00322397225553342,0.00483595838330013,
0.00644794451106684),.UNSPECIFIED.);
#52=B_SPLINE_CURVE_WITH_KNOTS('',3,(#809,#810,#811,#812,#813),
 .UNSPECIFIED.,.F.,.F.,(4,1,4),(0.,0.00291818737068479,0.00583637474136957),
 .UNSPECIFIED.);
#53=B_SPLINE_CURVE_WITH_KNOTS('',3,(#815,#816,#817,#818,#819,#820,#821,
#822,#823),.UNSPECIFIED.,.F.,.F.,(4,1,1,1,1,1,4),(0.,0.00157740455176469,
0.00315480910352937,0.00394351137941171,0.00473221365529406,0.0055209159311764,
0.00630961820705874),.UNSPECIFIED.);
#54=B_SPLINE_CURVE_WITH_KNOTS('',3,(#827,#828,#829,#830),.UNSPECIFIED.,
 .F.,.F.,(4,4),(0.,0.00271908781047723),.UNSPECIFIED.);
#55=B_SPLINE_CURVE_WITH_KNOTS('',3,(#833,#834,#835,#836),.UNSPECIFIED.,
 .F.,.F.,(4,4),(0.,0.00251038191008101),.UNSPECIFIED.);
#56=B_SPLINE_CURVE_WITH_KNOTS('',3,(#838,#839,#840,#841),.UNSPECIFIED.,
 .F.,.F.,(4,4),(2.39173653145133E-14,0.00251038191006001),.UNSPECIFIED.);
#57=B_SPLINE_CURVE_WITH_KNOTS('',3,(#844,#845,#846,#847),.UNSPECIFIED.,
 .F.,.F.,(4,4),(6.76128503344436E-18,0.00271908781047733),.UNSPECIFIED.);
#58=B_SPLINE_CURVE_WITH_KNOTS('',3,(#854,#855,#856,#857),.UNSPECIFIED.,
 .F.,.F.,(4,4),(0.,0.000575879775735901),.UNSPECIFIED.);
#59=B_SPLINE_CURVE_WITH_KNOTS('',3,(#859,#860,#861,#862),.UNSPECIFIED.,
 .F.,.F.,(4,4),(0.,0.000576456497452319),.UNSPECIFIED.);
#60=B_SPLINE_CURVE_WITH_KNOTS('',3,(#866,#867,#868,#869),.UNSPECIFIED.,
 .F.,.F.,(4,4),(0.,0.000456022923261343),.UNSPECIFIED.);
#61=B_SPLINE_CURVE_WITH_KNOTS('',3,(#871,#872,#873,#874,#875,#876,#877,
#878,#879),.UNSPECIFIED.,.F.,.F.,(4,1,1,1,1,1,4),(0.,0.00279422511209552,
0.00419133766814328,0.00558845022419105,0.00698556278023881,0.00838267533628657,
0.0111769004483821),.UNSPECIFIED.);
#62=B_SPLINE_CURVE_WITH_KNOTS('',3,(#883,#884,#885,#886),.UNSPECIFIED.,
 .F.,.F.,(4,4),(0.,0.00057645649745232),.UNSPECIFIED.);
#63=B_SPLINE_CURVE_WITH_KNOTS('',3,(#892,#893,#894,#895),.UNSPECIFIED.,
 .F.,.F.,(4,4),(1.66192031773827E-16,0.000574812708345188),
 .UNSPECIFIED.);
#64=B_SPLINE_CURVE_WITH_KNOTS('',3,(#898,#899,#900,#901),.UNSPECIFIED.,
 .F.,.F.,(4,4),(0.,0.000456022923261343),.UNSPECIFIED.);
#65=B_SPLINE_CURVE_WITH_KNOTS('',3,(#903,#904,#905,#906,#907,#908,#909,
#910,#911),.UNSPECIFIED.,.F.,.F.,(4,1,1,1,1,1,4),(0.,0.00279422511209552,
0.00419133766814328,0.00558845022419104,0.0069855627802388,0.00838267533628656,
0.0111769004483821),.UNSPECIFIED.);
#66=B_SPLINE_CURVE_WITH_KNOTS('',3,(#918,#919,#920,#921,#922),
 .UNSPECIFIED.,.F.,.F.,(4,1,4),(0.,0.00236797956347126,0.00473595912694252),
 .UNSPECIFIED.);
#67=B_SPLINE_CURVE_WITH_KNOTS('',3,(#925,#926,#927,#928,#929,#930,#931,
#932,#933,#934,#935,#936,#937),.UNSPECIFIED.,.F.,.F.,(4,1,1,1,1,1,1,1,1,
1,4),(0.,0.00140784964483485,0.00281569928966971,0.00351962411208713,0.00422354893450456,
0.00457551134571327,0.00492747375692199,0.00510345496252635,0.0052794361681307,
0.00545541737373506,0.00563139857933942),.UNSPECIFIED.);
#68=B_SPLINE_CURVE_WITH_KNOTS('',3,(#938,#939,#940,#941,#942,#943,#944,
#945,#946,#947,#948,#949,#950,#951),.UNSPECIFIED.,.F.,.F.,(4,1,1,1,1,1,
1,1,1,1,1,4),(2.74287868195424E-18,0.000175997215817661,0.000351994431635319,
0.000527991647452978,0.000703988863270636,0.00105598329490595,0.00140797772654127,
0.0021119665898119,0.00281595545308253,0.00351994431635317,0.0042239331796238,
0.00563191090616507),.UNSPECIFIED.);
#69=B_SPLINE_CURVE_WITH_KNOTS('',3,(#953,#954,#955,#956,#957),
 .UNSPECIFIED.,.F.,.F.,(4,1,4),(0.,0.00236797956347126,0.00473595912694252),
 .UNSPECIFIED.);
#70=B_SPLINE_CURVE_WITH_KNOTS('',3,(#960,#961,#962,#963,#964,#965,#966,
#967,#968,#969,#970,#971,#972),.UNSPECIFIED.,.F.,.F.,(4,1,1,1,1,1,1,1,1,
1,4),(0.,0.00140784964483484,0.00281569928966969,0.00351962411208711,0.00422354893450453,
0.00457551134571324,0.00492747375692195,0.0051034549625263,0.00527943616813066,
0.00545541737373501,0.00563139857933937),.UNSPECIFIED.);
#71=B_SPLINE_CURVE_WITH_KNOTS('',3,(#973,#974,#975,#976,#977,#978,#979,
#980,#981,#982,#983,#984,#985,#986),.UNSPECIFIED.,.F.,.F.,(4,1,1,1,1,1,
1,1,1,1,1,4),(0.,0.000175997215817656,0.000351994431635311,0.000527991647452967,
0.000703988863270623,0.00105598329490593,0.00140797772654125,0.00211196658981187,
0.00281595545308249,0.00351994431635311,0.00422393317962374,0.00563191090616498),
 .UNSPECIFIED.);
#72=CYLINDRICAL_SURFACE('',#520,0.0127847923252232);
#73=CYLINDRICAL_SURFACE('',#533,0.00763802813721417);
#74=CYLINDRICAL_SURFACE('',#543,0.0085);
#75=CYLINDRICAL_SURFACE('',#544,0.00325);
#76=CYLINDRICAL_SURFACE('',#550,0.0085);
#77=CYLINDRICAL_SURFACE('',#551,0.00325);
#78=CYLINDRICAL_SURFACE('',#552,0.0123229253422989);
#79=CYLINDRICAL_SURFACE('',#553,0.01);
#80=CYLINDRICAL_SURFACE('',#554,0.01);
#81=ELLIPSE('',#513,0.0115470053837925,0.01);
#82=ELLIPSE('',#514,0.0142292885271599,0.0123229253422989);
#83=ELLIPSE('',#515,0.00790746859575983,0.00763802813721417);
#84=ELLIPSE('',#517,0.0142292885271599,0.0123229253422989);
#85=ELLIPSE('',#518,0.0115470053837925,0.01);
#86=ELLIPSE('',#519,0.00790746859575983,0.00763802813721417);
#87=ELLIPSE('',#524,0.00790746859575983,0.00763802813721417);
#88=ORIENTED_EDGE('',*,*,#240,.F.);
#89=ORIENTED_EDGE('',*,*,#241,.T.);
#90=ORIENTED_EDGE('',*,*,#242,.F.);
#91=ORIENTED_EDGE('',*,*,#243,.T.);
#92=ORIENTED_EDGE('',*,*,#244,.F.);
#93=ORIENTED_EDGE('',*,*,#245,.F.);
#94=ORIENTED_EDGE('',*,*,#246,.T.);
#95=ORIENTED_EDGE('',*,*,#247,.T.);
#96=ORIENTED_EDGE('',*,*,#248,.T.);
#97=ORIENTED_EDGE('',*,*,#249,.T.);
#98=ORIENTED_EDGE('',*,*,#250,.F.);
#99=ORIENTED_EDGE('',*,*,#251,.F.);
#100=ORIENTED_EDGE('',*,*,#252,.T.);
#101=ORIENTED_EDGE('',*,*,#253,.T.);
#102=ORIENTED_EDGE('',*,*,#254,.T.);
#103=ORIENTED_EDGE('',*,*,#255,.T.);
#104=ORIENTED_EDGE('',*,*,#256,.T.);
#105=ORIENTED_EDGE('',*,*,#257,.F.);
#106=ORIENTED_EDGE('',*,*,#258,.F.);
#107=ORIENTED_EDGE('',*,*,#259,.F.);
#108=ORIENTED_EDGE('',*,*,#260,.T.);
#109=ORIENTED_EDGE('',*,*,#261,.T.);
#110=ORIENTED_EDGE('',*,*,#262,.T.);
#111=ORIENTED_EDGE('',*,*,#251,.T.);
#112=ORIENTED_EDGE('',*,*,#263,.T.);
#113=ORIENTED_EDGE('',*,*,#264,.T.);
#114=ORIENTED_EDGE('',*,*,#265,.F.);
#115=ORIENTED_EDGE('',*,*,#266,.T.);
#116=ORIENTED_EDGE('',*,*,#267,.T.);
#117=ORIENTED_EDGE('',*,*,#268,.T.);
#118=ORIENTED_EDGE('',*,*,#269,.T.);
#119=ORIENTED_EDGE('',*,*,#270,.T.);
#120=ORIENTED_EDGE('',*,*,#271,.F.);
#121=ORIENTED_EDGE('',*,*,#272,.T.);
#122=ORIENTED_EDGE('',*,*,#273,.T.);
#123=ORIENTED_EDGE('',*,*,#274,.T.);
#124=ORIENTED_EDGE('',*,*,#275,.F.);
#125=ORIENTED_EDGE('',*,*,#243,.F.);
#126=ORIENTED_EDGE('',*,*,#276,.F.);
#127=ORIENTED_EDGE('',*,*,#249,.F.);
#128=ORIENTED_EDGE('',*,*,#277,.F.);
#129=ORIENTED_EDGE('',*,*,#278,.T.);
#130=ORIENTED_EDGE('',*,*,#279,.T.);
#131=ORIENTED_EDGE('',*,*,#280,.T.);
#132=ORIENTED_EDGE('',*,*,#281,.F.);
#133=ORIENTED_EDGE('',*,*,#257,.T.);
#134=ORIENTED_EDGE('',*,*,#267,.F.);
#135=ORIENTED_EDGE('',*,*,#282,.T.);
#136=ORIENTED_EDGE('',*,*,#283,.F.);
#137=ORIENTED_EDGE('',*,*,#254,.F.);
#138=ORIENTED_EDGE('',*,*,#284,.T.);
#139=ORIENTED_EDGE('',*,*,#263,.F.);
#140=ORIENTED_EDGE('',*,*,#285,.T.);
#141=ORIENTED_EDGE('',*,*,#260,.F.);
#142=ORIENTED_EDGE('',*,*,#286,.F.);
#143=ORIENTED_EDGE('',*,*,#287,.T.);
#144=ORIENTED_EDGE('',*,*,#288,.T.);
#145=ORIENTED_EDGE('',*,*,#289,.T.);
#146=ORIENTED_EDGE('',*,*,#290,.T.);
#147=ORIENTED_EDGE('',*,*,#277,.T.);
#148=ORIENTED_EDGE('',*,*,#248,.F.);
#149=ORIENTED_EDGE('',*,*,#291,.F.);
#150=ORIENTED_EDGE('',*,*,#258,.T.);
#151=ORIENTED_EDGE('',*,*,#281,.T.);
#152=ORIENTED_EDGE('',*,*,#292,.T.);
#153=ORIENTED_EDGE('',*,*,#293,.T.);
#154=ORIENTED_EDGE('',*,*,#247,.F.);
#155=ORIENTED_EDGE('',*,*,#294,.T.);
#156=ORIENTED_EDGE('',*,*,#286,.T.);
#157=ORIENTED_EDGE('',*,*,#259,.T.);
#158=ORIENTED_EDGE('',*,*,#291,.T.);
#159=ORIENTED_EDGE('',*,*,#265,.T.);
#160=ORIENTED_EDGE('',*,*,#295,.T.);
#161=ORIENTED_EDGE('',*,*,#288,.F.);
#162=ORIENTED_EDGE('',*,*,#296,.F.);
#163=ORIENTED_EDGE('',*,*,#244,.T.);
#164=ORIENTED_EDGE('',*,*,#275,.T.);
#165=ORIENTED_EDGE('',*,*,#297,.T.);
#166=ORIENTED_EDGE('',*,*,#298,.T.);
#167=ORIENTED_EDGE('',*,*,#299,.T.);
#168=ORIENTED_EDGE('',*,*,#300,.T.);
#169=ORIENTED_EDGE('',*,*,#271,.T.);
#170=ORIENTED_EDGE('',*,*,#256,.F.);
#171=ORIENTED_EDGE('',*,*,#301,.T.);
#172=ORIENTED_EDGE('',*,*,#283,.T.);
#173=ORIENTED_EDGE('',*,*,#302,.T.);
#174=ORIENTED_EDGE('',*,*,#240,.T.);
#175=ORIENTED_EDGE('',*,*,#301,.F.);
#176=ORIENTED_EDGE('',*,*,#255,.F.);
#177=ORIENTED_EDGE('',*,*,#269,.F.);
#178=ORIENTED_EDGE('',*,*,#303,.T.);
#179=ORIENTED_EDGE('',*,*,#296,.T.);
#180=ORIENTED_EDGE('',*,*,#250,.T.);
#181=ORIENTED_EDGE('',*,*,#262,.F.);
#182=ORIENTED_EDGE('',*,*,#304,.F.);
#183=ORIENTED_EDGE('',*,*,#245,.T.);
#184=ORIENTED_EDGE('',*,*,#276,.T.);
#185=ORIENTED_EDGE('',*,*,#242,.T.);
#186=ORIENTED_EDGE('',*,*,#305,.T.);
#187=ORIENTED_EDGE('',*,*,#252,.F.);
#188=ORIENTED_EDGE('',*,*,#253,.F.);
#189=ORIENTED_EDGE('',*,*,#305,.F.);
#190=ORIENTED_EDGE('',*,*,#241,.F.);
#191=ORIENTED_EDGE('',*,*,#302,.F.);
#192=ORIENTED_EDGE('',*,*,#282,.F.);
#193=ORIENTED_EDGE('',*,*,#270,.F.);
#194=ORIENTED_EDGE('',*,*,#303,.F.);
#195=ORIENTED_EDGE('',*,*,#268,.F.);
#196=ORIENTED_EDGE('',*,*,#284,.F.);
#197=ORIENTED_EDGE('',*,*,#246,.F.);
#198=ORIENTED_EDGE('',*,*,#304,.T.);
#199=ORIENTED_EDGE('',*,*,#261,.F.);
#200=ORIENTED_EDGE('',*,*,#285,.F.);
#201=ORIENTED_EDGE('',*,*,#266,.F.);
#202=ORIENTED_EDGE('',*,*,#295,.F.);
#203=ORIENTED_EDGE('',*,*,#264,.F.);
#204=ORIENTED_EDGE('',*,*,#287,.F.);
#205=ORIENTED_EDGE('',*,*,#294,.F.);
#206=ORIENTED_EDGE('',*,*,#306,.T.);
#207=ORIENTED_EDGE('',*,*,#307,.T.);
#208=ORIENTED_EDGE('',*,*,#289,.F.);
#209=ORIENTED_EDGE('',*,*,#293,.F.);
#210=ORIENTED_EDGE('',*,*,#308,.T.);
#211=ORIENTED_EDGE('',*,*,#309,.T.);
#212=ORIENTED_EDGE('',*,*,#310,.T.);
#213=ORIENTED_EDGE('',*,*,#299,.F.);
#214=ORIENTED_EDGE('',*,*,#298,.F.);
#215=ORIENTED_EDGE('',*,*,#311,.T.);
#216=ORIENTED_EDGE('',*,*,#297,.F.);
#217=ORIENTED_EDGE('',*,*,#274,.F.);
#218=ORIENTED_EDGE('',*,*,#312,.F.);
#219=ORIENTED_EDGE('',*,*,#311,.F.);
#220=ORIENTED_EDGE('',*,*,#312,.T.);
#221=ORIENTED_EDGE('',*,*,#273,.F.);
#222=ORIENTED_EDGE('',*,*,#313,.F.);
#223=ORIENTED_EDGE('',*,*,#309,.F.);
#224=ORIENTED_EDGE('',*,*,#300,.F.);
#225=ORIENTED_EDGE('',*,*,#310,.F.);
#226=ORIENTED_EDGE('',*,*,#313,.T.);
#227=ORIENTED_EDGE('',*,*,#272,.F.);
#228=ORIENTED_EDGE('',*,*,#292,.F.);
#229=ORIENTED_EDGE('',*,*,#280,.F.);
#230=ORIENTED_EDGE('',*,*,#314,.F.);
#231=ORIENTED_EDGE('',*,*,#308,.F.);
#232=ORIENTED_EDGE('',*,*,#314,.T.);
#233=ORIENTED_EDGE('',*,*,#279,.F.);
#234=ORIENTED_EDGE('',*,*,#315,.F.);
#235=ORIENTED_EDGE('',*,*,#306,.F.);
#236=ORIENTED_EDGE('',*,*,#290,.F.);
#237=ORIENTED_EDGE('',*,*,#307,.F.);
#238=ORIENTED_EDGE('',*,*,#315,.T.);
#239=ORIENTED_EDGE('',*,*,#278,.F.);
#240=EDGE_CURVE('',#316,#317,#368,.T.);
#241=EDGE_CURVE('',#316,#318,#81,.F.);
#242=EDGE_CURVE('',#319,#318,#82,.T.);
#243=EDGE_CURVE('',#319,#320,#83,.T.);
#244=EDGE_CURVE('',#317,#320,#369,.T.);
#245=EDGE_CURVE('',#321,#322,#84,.T.);
#246=EDGE_CURVE('',#321,#323,#85,.F.);
#247=EDGE_CURVE('',#323,#324,#370,.T.);
#248=EDGE_CURVE('',#324,#325,#371,.T.);
#249=EDGE_CURVE('',#325,#322,#86,.T.);
#250=EDGE_CURVE('',#326,#327,#44,.T.);
#251=EDGE_CURVE('',#327,#326,#372,.T.);
#252=EDGE_CURVE('',#326,#328,#22,.T.);
#253=EDGE_CURVE('',#328,#329,#23,.T.);
#254=EDGE_CURVE('',#329,#330,#45,.T.);
#255=EDGE_CURVE('',#330,#331,#373,.T.);
#256=EDGE_CURVE('',#331,#332,#374,.T.);
#257=EDGE_CURVE('',#333,#332,#87,.T.);
#258=EDGE_CURVE('',#334,#333,#375,.T.);
#259=EDGE_CURVE('',#335,#334,#376,.T.);
#260=EDGE_CURVE('',#335,#336,#46,.T.);
#261=EDGE_CURVE('',#336,#337,#24,.T.);
#262=EDGE_CURVE('',#337,#327,#25,.T.);
#263=EDGE_CURVE('',#338,#339,#26,.T.);
#264=EDGE_CURVE('',#339,#340,#377,.F.);
#265=EDGE_CURVE('',#341,#340,#27,.T.);
#266=EDGE_CURVE('',#341,#338,#378,.F.);
#267=EDGE_CURVE('',#342,#343,#28,.T.);
#268=EDGE_CURVE('',#343,#344,#379,.T.);
#269=EDGE_CURVE('',#344,#345,#29,.T.);
#270=EDGE_CURVE('',#345,#342,#380,.T.);
#271=EDGE_CURVE('',#346,#332,#381,.T.);
#272=EDGE_CURVE('',#346,#347,#47,.T.);
#273=EDGE_CURVE('',#347,#348,#48,.T.);
#274=EDGE_CURVE('',#348,#349,#49,.T.);
#275=EDGE_CURVE('',#320,#349,#382,.T.);
#276=EDGE_CURVE('',#322,#319,#50,.T.);
#277=EDGE_CURVE('',#350,#325,#383,.F.);
#278=EDGE_CURVE('',#350,#351,#51,.T.);
#279=EDGE_CURVE('',#351,#352,#52,.T.);
#280=EDGE_CURVE('',#352,#353,#53,.T.);
#281=EDGE_CURVE('',#333,#353,#384,.F.);
#282=EDGE_CURVE('',#342,#354,#54,.F.);
#283=EDGE_CURVE('',#330,#354,#30,.T.);
#284=EDGE_CURVE('',#329,#343,#55,.T.);
#285=EDGE_CURVE('',#338,#336,#56,.F.);
#286=EDGE_CURVE('',#355,#335,#31,.T.);
#287=EDGE_CURVE('',#355,#339,#57,.T.);
#288=EDGE_CURVE('',#356,#356,#32,.T.);
#289=EDGE_CURVE('',#357,#358,#33,.F.);
#290=EDGE_CURVE('',#358,#350,#58,.F.);
#291=EDGE_CURVE('',#334,#324,#34,.T.);
#292=EDGE_CURVE('',#353,#359,#59,.T.);
#293=EDGE_CURVE('',#359,#357,#35,.F.);
#294=EDGE_CURVE('',#323,#355,#60,.T.);
#295=EDGE_CURVE('',#340,#341,#61,.T.);
#296=EDGE_CURVE('',#360,#360,#36,.T.);
#297=EDGE_CURVE('',#349,#361,#62,.T.);
#298=EDGE_CURVE('',#361,#362,#37,.F.);
#299=EDGE_CURVE('',#362,#363,#38,.F.);
#300=EDGE_CURVE('',#363,#346,#63,.F.);
#301=EDGE_CURVE('',#331,#317,#39,.T.);
#302=EDGE_CURVE('',#354,#316,#64,.T.);
#303=EDGE_CURVE('',#344,#345,#65,.T.);
#304=EDGE_CURVE('',#321,#337,#385,.T.);
#305=EDGE_CURVE('',#318,#328,#386,.T.);
#306=EDGE_CURVE('',#364,#365,#66,.T.);
#307=EDGE_CURVE('',#365,#358,#67,.T.);
#308=EDGE_CURVE('',#359,#364,#68,.T.);
#309=EDGE_CURVE('',#366,#367,#69,.T.);
#310=EDGE_CURVE('',#367,#363,#70,.T.);
#311=EDGE_CURVE('',#361,#366,#71,.T.);
#312=EDGE_CURVE('',#366,#348,#40,.T.);
#313=EDGE_CURVE('',#367,#347,#41,.T.);
#314=EDGE_CURVE('',#364,#352,#42,.T.);
#315=EDGE_CURVE('',#365,#351,#43,.T.);
#316=VERTEX_POINT('',#683);
#317=VERTEX_POINT('',#684);
#318=VERTEX_POINT('',#686);
#319=VERTEX_POINT('',#688);
#320=VERTEX_POINT('',#690);
#321=VERTEX_POINT('',#694);
#322=VERTEX_POINT('',#695);
#323=VERTEX_POINT('',#697);
#324=VERTEX_POINT('',#699);
#325=VERTEX_POINT('',#701);
#326=VERTEX_POINT('',#713);
#327=VERTEX_POINT('',#714);
#328=VERTEX_POINT('',#718);
#329=VERTEX_POINT('',#720);
#330=VERTEX_POINT('',#725);
#331=VERTEX_POINT('',#727);
#332=VERTEX_POINT('',#729);
#333=VERTEX_POINT('',#731);
#334=VERTEX_POINT('',#733);
#335=VERTEX_POINT('',#735);
#336=VERTEX_POINT('',#740);
#337=VERTEX_POINT('',#742);
#338=VERTEX_POINT('',#746);
#339=VERTEX_POINT('',#747);
#340=VERTEX_POINT('',#749);
#341=VERTEX_POINT('',#751);
#342=VERTEX_POINT('',#755);
#343=VERTEX_POINT('',#756);
#344=VERTEX_POINT('',#758);
#345=VERTEX_POINT('',#760);
#346=VERTEX_POINT('',#764);
#347=VERTEX_POINT('',#774);
#348=VERTEX_POINT('',#780);
#349=VERTEX_POINT('',#790);
#350=VERTEX_POINT('',#798);
#351=VERTEX_POINT('',#808);
#352=VERTEX_POINT('',#814);
#353=VERTEX_POINT('',#824);
#354=VERTEX_POINT('',#831);
#355=VERTEX_POINT('',#843);
#356=VERTEX_POINT('',#850);
#357=VERTEX_POINT('',#852);
#358=VERTEX_POINT('',#853);
#359=VERTEX_POINT('',#863);
#360=VERTEX_POINT('',#882);
#361=VERTEX_POINT('',#887);
#362=VERTEX_POINT('',#889);
#363=VERTEX_POINT('',#891);
#364=VERTEX_POINT('',#923);
#365=VERTEX_POINT('',#924);
#366=VERTEX_POINT('',#958);
#367=VERTEX_POINT('',#959);
#368=LINE('',#682,#387);
#369=LINE('',#691,#388);
#370=LINE('',#698,#389);
#371=LINE('',#700,#390);
#372=LINE('',#715,#391);
#373=LINE('',#726,#392);
#374=LINE('',#728,#393);
#375=LINE('',#732,#394);
#376=LINE('',#734,#395);
#377=LINE('',#748,#396);
#378=LINE('',#752,#397);
#379=LINE('',#757,#398);
#380=LINE('',#761,#399);
#381=LINE('',#763,#400);
#382=LINE('',#791,#401);
#383=LINE('',#797,#402);
#384=LINE('',#825,#403);
#385=LINE('',#913,#404);
#386=LINE('',#914,#405);
#387=VECTOR('',#565,1.);
#388=VECTOR('',#572,1.);
#389=VECTOR('',#579,1.);
#390=VECTOR('',#580,1.);
#391=VECTOR('',#585,1.);
#392=VECTOR('',#592,1.);
#393=VECTOR('',#593,1.);
#394=VECTOR('',#596,1.);
#395=VECTOR('',#597,1.);
#396=VECTOR('',#606,1.);
#397=VECTOR('',#609,1.);
#398=VECTOR('',#614,1.);
#399=VECTOR('',#617,1.);
#400=VECTOR('',#620,1.);
#401=VECTOR('',#621,1.);
#402=VECTOR('',#622,1.);
#403=VECTOR('',#623,1.);
#404=VECTOR('',#662,1.);
#405=VECTOR('',#663,1.);
#406=EDGE_LOOP('',(#88,#89,#90,#91,#92));
#407=EDGE_LOOP('',(#93,#94,#95,#96,#97));
#408=EDGE_LOOP('',(#98,#99));
#409=EDGE_LOOP('',(#100,#101,#102,#103,#104,#105,#106,#107,#108,#109,#110,
#111));
#410=EDGE_LOOP('',(#112,#113,#114,#115));
#411=EDGE_LOOP('',(#116,#117,#118,#119));
#412=EDGE_LOOP('',(#120,#121,#122,#123,#124,#125,#126,#127,#128,#129,#130,
#131,#132,#133));
#413=EDGE_LOOP('',(#134,#135,#136,#137,#138));
#414=EDGE_LOOP('',(#139,#140,#141,#142,#143));
#415=EDGE_LOOP('',(#144));
#416=EDGE_LOOP('',(#145,#146,#147,#148,#149,#150,#151,#152,#153));
#417=EDGE_LOOP('',(#154,#155,#156,#157,#158));
#418=EDGE_LOOP('',(#159,#160));
#419=EDGE_LOOP('',(#161));
#420=EDGE_LOOP('',(#162));
#421=EDGE_LOOP('',(#163,#164,#165,#166,#167,#168,#169,#170,#171));
#422=EDGE_LOOP('',(#172,#173,#174,#175,#176));
#423=EDGE_LOOP('',(#177,#178));
#424=EDGE_LOOP('',(#179));
#425=EDGE_LOOP('',(#180,#181,#182,#183,#184,#185,#186,#187));
#426=EDGE_LOOP('',(#188,#189,#190,#191,#192,#193,#194,#195,#196));
#427=EDGE_LOOP('',(#197,#198,#199,#200,#201,#202,#203,#204,#205));
#428=EDGE_LOOP('',(#206,#207,#208,#209,#210));
#429=EDGE_LOOP('',(#211,#212,#213,#214,#215));
#430=EDGE_LOOP('',(#216,#217,#218,#219));
#431=EDGE_LOOP('',(#220,#221,#222,#223));
#432=EDGE_LOOP('',(#224,#225,#226,#227));
#433=EDGE_LOOP('',(#228,#229,#230,#231));
#434=EDGE_LOOP('',(#232,#233,#234,#235));
#435=EDGE_LOOP('',(#236,#237,#238,#239));
#436=FACE_BOUND('',#406,.T.);
#437=FACE_BOUND('',#407,.T.);
#438=FACE_BOUND('',#408,.T.);
#439=FACE_BOUND('',#409,.T.);
#440=FACE_BOUND('',#410,.T.);
#441=FACE_BOUND('',#411,.T.);
#442=FACE_BOUND('',#412,.T.);
#443=FACE_BOUND('',#413,.T.);
#444=FACE_BOUND('',#414,.T.);
#445=FACE_BOUND('',#415,.T.);
#446=FACE_BOUND('',#416,.T.);
#447=FACE_BOUND('',#417,.T.);
#448=FACE_BOUND('',#418,.T.);
#449=FACE_BOUND('',#419,.T.);
#450=FACE_BOUND('',#420,.T.);
#451=FACE_BOUND('',#421,.T.);
#452=FACE_BOUND('',#422,.T.);
#453=FACE_BOUND('',#423,.T.);
#454=FACE_BOUND('',#424,.T.);
#455=FACE_BOUND('',#425,.T.);
#456=FACE_BOUND('',#426,.T.);
#457=FACE_BOUND('',#427,.T.);
#458=FACE_BOUND('',#428,.T.);
#459=FACE_BOUND('',#429,.T.);
#460=FACE_BOUND('',#430,.T.);
#461=FACE_BOUND('',#431,.T.);
#462=FACE_BOUND('',#432,.T.);
#463=FACE_BOUND('',#433,.T.);
#464=FACE_BOUND('',#434,.T.);
#465=FACE_BOUND('',#435,.T.);
#466=PLANE('',#512);
#467=PLANE('',#516);
#468=PLANE('',#521);
#469=PLANE('',#527);
#470=PLANE('',#530);
#471=PLANE('',#538);
#472=PLANE('',#545);
#473=ADVANCED_FACE('',(#436),#466,.F.);
#474=ADVANCED_FACE('',(#437),#467,.F.);
#475=ADVANCED_FACE('',(#438),#72,.T.);
#476=ADVANCED_FACE('',(#439),#468,.T.);
#477=ADVANCED_FACE('',(#440),#469,.T.);
#478=ADVANCED_FACE('',(#441),#470,.T.);
#479=ADVANCED_FACE('',(#442),#73,.F.);
#480=ADVANCED_FACE('',(#443),#18,.T.);
#481=ADVANCED_FACE('',(#444),#19,.T.);
#482=ADVANCED_FACE('',(#445,#446),#471,.F.);
#483=ADVANCED_FACE('',(#447),#74,.T.);
#484=ADVANCED_FACE('',(#448,#449),#75,.F.);
#485=ADVANCED_FACE('',(#450,#451),#472,.F.);
#486=ADVANCED_FACE('',(#452),#76,.T.);
#487=ADVANCED_FACE('',(#453,#454),#77,.F.);
#488=ADVANCED_FACE('',(#455),#78,.T.);
#489=ADVANCED_FACE('',(#456),#79,.T.);
#490=ADVANCED_FACE('',(#457),#80,.T.);
#491=ADVANCED_FACE('',(#458),#20,.F.);
#492=ADVANCED_FACE('',(#459),#21,.F.);
#493=ADVANCED_FACE('',(#460),#12,.T.);
#494=ADVANCED_FACE('',(#461),#13,.T.);
#495=ADVANCED_FACE('',(#462),#14,.T.);
#496=ADVANCED_FACE('',(#463),#15,.T.);
#497=ADVANCED_FACE('',(#464),#16,.T.);
#498=ADVANCED_FACE('',(#465),#17,.T.);
#499=CLOSED_SHELL('',(#473,#474,#475,#476,#477,#478,#479,#480,#481,#482,
#483,#484,#485,#486,#487,#488,#489,#490,#491,#492,#493,#494,#495,#496,#497,
#498));
#500=STYLED_ITEM('',(#501),#508);
#501=PRESENTATION_STYLE_ASSIGNMENT((#502));
#502=SURFACE_STYLE_USAGE(.BOTH.,#503);
#503=SURFACE_SIDE_STYLE('',(#504));
#504=SURFACE_STYLE_FILL_AREA(#505);
#505=FILL_AREA_STYLE('',(#506));
#506=FILL_AREA_STYLE_COLOUR('',#507);
#507=COLOUR_RGB('',0.796078431372549,0.823529411764706,0.937254901960784);
#508=MANIFOLD_SOLID_BREP('first_thumb_hinge',#499);
#509=SHAPE_DEFINITION_REPRESENTATION(#1159,#510);
#510=SHAPE_REPRESENTATION('first_thumb_hinge',(#511),#1154);
#511=AXIS2_PLACEMENT_3D('',#680,#561,#562);
#512=AXIS2_PLACEMENT_3D('',#681,#563,#564);
#513=AXIS2_PLACEMENT_3D('',#685,#566,#567);
#514=AXIS2_PLACEMENT_3D('',#687,#568,#569);
#515=AXIS2_PLACEMENT_3D('',#689,#570,#571);
#516=AXIS2_PLACEMENT_3D('',#692,#573,#574);
#517=AXIS2_PLACEMENT_3D('',#693,#575,#576);
#518=AXIS2_PLACEMENT_3D('',#696,#577,#578);
#519=AXIS2_PLACEMENT_3D('',#702,#581,#582);
#520=AXIS2_PLACEMENT_3D('',#703,#583,#584);
#521=AXIS2_PLACEMENT_3D('',#716,#586,#587);
#522=AXIS2_PLACEMENT_3D('',#717,#588,#589);
#523=AXIS2_PLACEMENT_3D('',#719,#590,#591);
#524=AXIS2_PLACEMENT_3D('',#730,#594,#595);
#525=AXIS2_PLACEMENT_3D('',#741,#598,#599);
#526=AXIS2_PLACEMENT_3D('',#743,#600,#601);
#527=AXIS2_PLACEMENT_3D('',#744,#602,#603);
#528=AXIS2_PLACEMENT_3D('',#745,#604,#605);
#529=AXIS2_PLACEMENT_3D('',#750,#607,#608);
#530=AXIS2_PLACEMENT_3D('',#753,#610,#611);
#531=AXIS2_PLACEMENT_3D('',#754,#612,#613);
#532=AXIS2_PLACEMENT_3D('',#759,#615,#616);
#533=AXIS2_PLACEMENT_3D('',#762,#618,#619);
#534=AXIS2_PLACEMENT_3D('',#826,#624,#625);
#535=AXIS2_PLACEMENT_3D('',#832,#626,#627);
#536=AXIS2_PLACEMENT_3D('',#837,#628,#629);
#537=AXIS2_PLACEMENT_3D('',#842,#630,#631);
#538=AXIS2_PLACEMENT_3D('',#848,#632,#633);
#539=AXIS2_PLACEMENT_3D('',#849,#634,#635);
#540=AXIS2_PLACEMENT_3D('',#851,#636,#637);
#541=AXIS2_PLACEMENT_3D('',#858,#638,#639);
#542=AXIS2_PLACEMENT_3D('',#864,#640,#641);
#543=AXIS2_PLACEMENT_3D('',#865,#642,#643);
#544=AXIS2_PLACEMENT_3D('',#870,#644,#645);
#545=AXIS2_PLACEMENT_3D('',#880,#646,#647);
#546=AXIS2_PLACEMENT_3D('',#881,#648,#649);
#547=AXIS2_PLACEMENT_3D('',#888,#650,#651);
#548=AXIS2_PLACEMENT_3D('',#890,#652,#653);
#549=AXIS2_PLACEMENT_3D('',#896,#654,#655);
#550=AXIS2_PLACEMENT_3D('',#897,#656,#657);
#551=AXIS2_PLACEMENT_3D('',#902,#658,#659);
#552=AXIS2_PLACEMENT_3D('',#912,#660,#661);
#553=AXIS2_PLACEMENT_3D('',#915,#664,#665);
#554=AXIS2_PLACEMENT_3D('',#916,#666,#667);
#555=AXIS2_PLACEMENT_3D('',#917,#668,#669);
#556=AXIS2_PLACEMENT_3D('',#952,#670,#671);
#557=AXIS2_PLACEMENT_3D('',#1020,#672,#673);
#558=AXIS2_PLACEMENT_3D('',#1036,#674,#675);
#559=AXIS2_PLACEMENT_3D('',#1103,#676,#677);
#560=AXIS2_PLACEMENT_3D('',#1119,#678,#679);
#561=DIRECTION('',(0.,0.,1.));
#562=DIRECTION('',(1.,0.,0.));
#563=DIRECTION('',(0.258819045102518,-0.965925826289069,0.));
#564=DIRECTION('',(0.965925826289069,0.258819045102518,0.));
#565=DIRECTION('',(0.,0.,1.));
#566=DIRECTION('',(0.258819045102518,-0.965925826289069,0.));
#567=DIRECTION('',(-0.965925826289069,-0.258819045102518,0.));
#568=DIRECTION('',(0.258819045102518,-0.965925826289069,0.));
#569=DIRECTION('',(-0.965925826289069,-0.258819045102518,0.));
#570=DIRECTION('',(0.258819045102518,-0.965925826289069,0.));
#571=DIRECTION('',(-0.965925826289069,-0.258819045102518,0.));
#572=DIRECTION('',(-0.965925826289069,-0.258819045102518,0.));
#573=DIRECTION('',(0.258819045102518,-0.965925826289069,0.));
#574=DIRECTION('',(0.965925826289069,0.258819045102518,0.));
#575=DIRECTION('',(0.258819045102518,-0.965925826289069,0.));
#576=DIRECTION('',(-0.965925826289069,-0.258819045102518,0.));
#577=DIRECTION('',(0.258819045102518,-0.965925826289069,0.));
#578=DIRECTION('',(-0.965925826289069,-0.258819045102518,0.));
#579=DIRECTION('',(0.,0.,-1.));
#580=DIRECTION('',(-0.965925826289069,-0.258819045102518,0.));
#581=DIRECTION('',(0.258819045102518,-0.965925826289069,0.));
#582=DIRECTION('',(-0.965925826289069,-0.258819045102518,0.));
#583=DIRECTION('',(0.,0.,-1.));
#584=DIRECTION('',(0.,1.,0.));
#585=DIRECTION('',(0.,0.,-1.));
#586=DIRECTION('',(-0.258819045102518,-0.965925826289069,0.));
#587=DIRECTION('',(0.965925826289069,-0.258819045102518,0.));
#588=DIRECTION('',(-0.258819045102518,-0.965925826289069,2.77555756156289E-17));
#589=DIRECTION('',(0.965925826289069,-0.258819045102518,0.));
#590=DIRECTION('',(-0.258819045102518,-0.965925826289069,0.));
#591=DIRECTION('',(0.965925826289069,-0.258819045102518,0.));
#592=DIRECTION('',(0.,0.,1.));
#593=DIRECTION('',(-0.965925826289069,0.258819045102518,0.));
#594=DIRECTION('',(-0.258819045102518,-0.965925826289069,0.));
#595=DIRECTION('',(0.965925826289069,-0.258819045102518,0.));
#596=DIRECTION('',(-0.965925826289069,0.258819045102518,0.));
#597=DIRECTION('',(0.,0.,-1.));
#598=DIRECTION('',(-0.258819045102518,-0.965925826289069,0.));
#599=DIRECTION('',(0.965925826289069,-0.258819045102518,0.));
#600=DIRECTION('',(-0.258819045102518,-0.965925826289069,2.77555756156289E-17));
#601=DIRECTION('',(0.965925826289069,-0.258819045102518,0.));
#602=DIRECTION('',(0.,0.,1.));
#603=DIRECTION('',(0.,-1.,0.));
#604=DIRECTION('',(0.,0.,1.));
#605=DIRECTION('',(0.,-1.,0.));
#606=DIRECTION('',(0.258819045102518,0.965925826289069,0.));
#607=DIRECTION('',(0.,0.,1.));
#608=DIRECTION('',(0.,-1.,0.));
#609=DIRECTION('',(0.258819045102518,0.965925826289069,0.));
#610=DIRECTION('',(0.,0.,-1.));
#611=DIRECTION('',(0.,1.,0.));
#612=DIRECTION('',(0.,0.,-1.));
#613=DIRECTION('',(0.,1.,0.));
#614=DIRECTION('',(0.258819045102518,0.965925826289069,0.));
#615=DIRECTION('',(0.,0.,1.));
#616=DIRECTION('',(0.,-1.,0.));
#617=DIRECTION('',(0.258819045102518,0.965925826289069,0.));
#618=DIRECTION('',(0.,-1.,0.));
#619=DIRECTION('',(1.,0.,0.));
#620=DIRECTION('',(0.,-1.,0.));
#621=DIRECTION('',(0.,-1.,0.));
#622=DIRECTION('',(0.,-1.,0.));
#623=DIRECTION('',(0.,-1.,0.));
#624=DIRECTION('',(0.,0.,-1.));
#625=DIRECTION('',(0.,1.,0.));
#626=DIRECTION('',(0.,0.,1.));
#627=DIRECTION('',(0.,-1.,0.));
#628=DIRECTION('',(0.,0.,1.));
#629=DIRECTION('',(0.,-1.,0.));
#630=DIRECTION('',(0.,0.,-1.));
#631=DIRECTION('',(0.,1.,0.));
#632=DIRECTION('',(0.,0.,1.));
#633=DIRECTION('',(0.,-1.,0.));
#634=DIRECTION('',(0.,0.,1.));
#635=DIRECTION('',(0.,-1.,0.));
#636=DIRECTION('',(0.,0.,1.));
#637=DIRECTION('',(0.,-1.,0.));
#638=DIRECTION('',(0.,0.,1.));
#639=DIRECTION('',(0.,-1.,0.));
#640=DIRECTION('',(0.,0.,1.));
#641=DIRECTION('',(0.,-1.,0.));
#642=DIRECTION('',(0.,0.,-1.));
#643=DIRECTION('',(0.,1.,0.));
#644=DIRECTION('',(0.,0.,-1.));
#645=DIRECTION('',(0.,1.,0.));
#646=DIRECTION('',(0.,0.,-1.));
#647=DIRECTION('',(0.,-1.,0.));
#648=DIRECTION('',(0.,0.,1.));
#649=DIRECTION('',(0.,-1.,0.));
#650=DIRECTION('',(0.,0.,-1.));
#651=DIRECTION('',(0.,1.,0.));
#652=DIRECTION('',(0.,0.,-1.));
#653=DIRECTION('',(0.,1.,0.));
#654=DIRECTION('',(0.,0.,1.));
#655=DIRECTION('',(0.,-1.,0.));
#656=DIRECTION('',(0.,0.,1.));
#657=DIRECTION('',(0.,-1.,0.));
#658=DIRECTION('',(0.,0.,1.));
#659=DIRECTION('',(0.,-1.,0.));
#660=DIRECTION('',(-0.258819045102518,-0.965925826289069,0.));
#661=DIRECTION('',(0.965925826289069,-0.258819045102518,0.));
#662=DIRECTION('',(-0.258819045102518,-0.965925826289069,0.));
#663=DIRECTION('',(-0.258819045102518,-0.965925826289069,0.));
#664=DIRECTION('',(-0.258819045102518,-0.965925826289069,0.));
#665=DIRECTION('',(0.965925826289069,-0.258819045102518,0.));
#666=DIRECTION('',(-0.258819045102518,-0.965925826289069,0.));
#667=DIRECTION('',(0.965925826289069,-0.258819045102518,0.));
#668=DIRECTION('',(0.,0.,1.));
#669=DIRECTION('',(0.,-1.,0.));
#670=DIRECTION('',(0.,0.,-1.));
#671=DIRECTION('',(0.,1.,0.));
#672=DIRECTION('',(-0.334371036268632,-0.864207996753686,0.375952854027766));
#673=DIRECTION('',(0.,-0.398913723399967,-0.916988463004402));
#674=DIRECTION('',(0.334371036268632,-0.864207996753686,-0.375952854027766));
#675=DIRECTION('',(0.,0.398913723399967,-0.916988463004402));
#676=DIRECTION('',(-0.334371036268632,0.864207996753686,-0.375952854027766));
#677=DIRECTION('',(0.,0.398913723399967,0.916988463004402));
#678=DIRECTION('',(0.334371036268632,0.864207996753686,0.375952854027766));
#679=DIRECTION('',(0.,-0.398913723399967,0.916988463004402));
#680=CARTESIAN_POINT('',(0.,0.,0.));
#681=CARTESIAN_POINT('',(-0.002125,0.00793060796608388,0.005));
#682=CARTESIAN_POINT('',(4.33680868994202E-19,0.0085,-0.02));
#683=CARTESIAN_POINT('',(4.33680868994202E-19,0.0085,-0.0196412593692712));
#684=CARTESIAN_POINT('',(4.33680868994202E-19,0.0085,-0.015));
#685=CARTESIAN_POINT('',(0.00296065699523645,0.00929330565093915,-0.01));
#686=CARTESIAN_POINT('',(-0.00349508020474493,0.0075634960816566,-0.0181546558507454));
#687=CARTESIAN_POINT('',(0.00341047187529553,0.00941383318479449,-0.0075));
#688=CARTESIAN_POINT('',(-0.0101015097963933,0.00579330860772133,-0.00975679059948842));
#689=CARTESIAN_POINT('',(-0.00280449876344723,0.00774853682116024,-0.0075));
#690=CARTESIAN_POINT('',(-0.00424999999999995,0.00736121593216776,-0.015));
#691=CARTESIAN_POINT('',(-0.002125,0.00793060796608388,-0.015));
#692=CARTESIAN_POINT('',(-0.002125,0.00793060796608388,0.005));
#693=CARTESIAN_POINT('',(0.00341047187529553,0.00941383318479449,-0.0075));
#694=CARTESIAN_POINT('',(-0.00349508020474493,0.0075634960816566,0.0031546558507454));
#695=CARTESIAN_POINT('',(-0.0101015097963932,0.00579330860772139,-0.00524320940051144));
#696=CARTESIAN_POINT('',(0.00296065699523645,0.00929330565093915,-0.005));
#697=CARTESIAN_POINT('',(4.33680868994202E-19,0.0085,0.00464125936927117));
#698=CARTESIAN_POINT('',(4.33680868994202E-19,0.0085,0.005));
#699=CARTESIAN_POINT('',(4.33680868994202E-19,0.0085,0.));
#700=CARTESIAN_POINT('',(-0.002125,0.00793060796608388,0.));
#701=CARTESIAN_POINT('',(-0.00425,0.00736121593216776,0.));
#702=CARTESIAN_POINT('',(-0.00280449876344723,0.00774853682116024,-0.0075));
#703=CARTESIAN_POINT('',(0.,0.,0.005));
#704=CARTESIAN_POINT('',(-0.0115911099154688,-0.00539417145876978,-0.0136858973759179));
#705=CARTESIAN_POINT('',(-0.0119247954445246,-0.00467714092422893,-0.0128108308555155));
#706=CARTESIAN_POINT('',(-0.012275915422105,-0.00364850660925543,-0.0114094399944727));
#707=CARTESIAN_POINT('',(-0.012501445006196,-0.002693196977825,-0.00926361084136201));
#708=CARTESIAN_POINT('',(-0.012557135275856,-0.0023988472097998,-0.00750144773261427));
#709=CARTESIAN_POINT('',(-0.0125016802635292,-0.00269237902127223,-0.0057369419757049));
#710=CARTESIAN_POINT('',(-0.0122744068683089,-0.0036539340665344,-0.0035809382383221));
#711=CARTESIAN_POINT('',(-0.0119246165224939,-0.00467752539567922,-0.0021886999342096));
#712=CARTESIAN_POINT('',(-0.0115911099154688,-0.00539417145876978,-0.00131410262408209));
#713=CARTESIAN_POINT('',(-0.0115911099154688,-0.00539417145876979,-0.0136858973759179));
#714=CARTESIAN_POINT('',(-0.0115911099154688,-0.00539417145876979,-0.0013141026240821));
#715=CARTESIAN_POINT('',(-0.0115911099154688,-0.00539417145876978,0.005));
#716=CARTESIAN_POINT('',(-0.002125,-0.00793060796608388,0.005));
#717=CARTESIAN_POINT('',(-0.00129644471710167,-0.00815261868502102,-0.0075));
#718=CARTESIAN_POINT('',(-0.0072768282455732,-0.0065501797481387,-0.0181546558507454));
#719=CARTESIAN_POINT('',(-0.00168599583023308,-0.00804823877884681,-0.01));
#720=CARTESIAN_POINT('',(-0.00366100167458435,-0.00751903755780615,-0.0197887332164334));
#721=CARTESIAN_POINT('',(-0.00366100167458435,-0.00751903755780616,-0.0197887332164334));
#722=CARTESIAN_POINT('',(-0.00244486516460253,-0.00784490035354179,-0.0198540000935765));
#723=CARTESIAN_POINT('',(-0.00121525500955259,-0.00817437340159252,-0.0198467540810323));
#724=CARTESIAN_POINT('',(-8.83673855000548E-18,-0.00850000000000001,-0.0197496141289992));
#725=CARTESIAN_POINT('',(4.33680868994202E-19,-0.0085,-0.0197496141289992));
#726=CARTESIAN_POINT('',(4.33680868994202E-19,-0.0085,-0.02));
#727=CARTESIAN_POINT('',(4.33680868994202E-19,-0.0085,-0.015));
#728=CARTESIAN_POINT('',(-0.002125,-0.00793060796608388,-0.015));
#729=CARTESIAN_POINT('',(-0.00424999999999995,-0.00736121593216776,-0.015));
#730=CARTESIAN_POINT('',(-0.00280449876344723,-0.00774853682116024,-0.0075));
#731=CARTESIAN_POINT('',(-0.00425,-0.00736121593216776,0.));
#732=CARTESIAN_POINT('',(-0.002125,-0.00793060796608388,0.));
#733=CARTESIAN_POINT('',(4.33680868994202E-19,-0.0085,0.));
#734=CARTESIAN_POINT('',(4.33680868994202E-19,-0.0085,0.005));
#735=CARTESIAN_POINT('',(4.33680868994202E-19,-0.0085,0.00474961412899916));
#736=CARTESIAN_POINT('',(4.33680868994202E-19,-0.0085,0.00474961412899916));
#737=CARTESIAN_POINT('',(-0.00122225207094279,-0.00817249854464362,0.00484731338274467));
#738=CARTESIAN_POINT('',(-0.00244244496220311,-0.00784554884482023,0.00485412997953224));
#739=CARTESIAN_POINT('',(-0.00366100167458773,-0.00751903755780525,0.00478873321643321));
#740=CARTESIAN_POINT('',(-0.00366100167458773,-0.00751903755780524,0.00478873321643321));
#741=CARTESIAN_POINT('',(-0.00168599583023308,-0.00804823877884681,-0.005));
#742=CARTESIAN_POINT('',(-0.0072768282455732,-0.0065501797481387,0.0031546558507454));
#743=CARTESIAN_POINT('',(-0.00129644471710167,-0.00815261868502102,-0.0075));
#744=CARTESIAN_POINT('',(0.,0.,0.005));
#745=CARTESIAN_POINT('',(0.,0.,0.005));
#746=CARTESIAN_POINT('',(-0.00131308502390308,-0.00665651670293174,0.005));
#747=CARTESIAN_POINT('',(0.00219109336343687,0.00642125507740587,0.005));
#748=CARTESIAN_POINT('',(-0.000646385845751527,-0.0041683614967057,0.005));
#749=CARTESIAN_POINT('',(0.00127190051875166,0.00299078067908686,0.005));
#750=CARTESIAN_POINT('',(0.,0.,0.005));
#751=CARTESIAN_POINT('',(-0.000393892179217869,-0.00322604230461273,0.005));
#752=CARTESIAN_POINT('',(-0.000646385845751527,-0.0041683614967057,0.005));
#753=CARTESIAN_POINT('',(0.,0.,-0.02));
#754=CARTESIAN_POINT('',(0.,0.,-0.02));
#755=CARTESIAN_POINT('',(0.00219109336343687,0.00642125507740587,-0.02));
#756=CARTESIAN_POINT('',(-0.00131308502390307,-0.00665651670293174,-0.02));
#757=CARTESIAN_POINT('',(0.00152439418528532,0.00393309987117983,-0.02));
#758=CARTESIAN_POINT('',(-0.000393892179217864,-0.00322604230461273,-0.02));
#759=CARTESIAN_POINT('',(0.,0.,-0.02));
#760=CARTESIAN_POINT('',(0.00127190051875166,0.00299078067908686,-0.02));
#761=CARTESIAN_POINT('',(0.00152439418528532,0.00393309987117983,-0.02));
#762=CARTESIAN_POINT('',(-0.00280449876344723,0.0115,-0.0075));
#763=CARTESIAN_POINT('',(-0.00424999999999995,0.0115,-0.015));
#764=CARTESIAN_POINT('',(-0.00424999999999995,-0.00529993517178974,-0.015));
#765=CARTESIAN_POINT('',(-0.00424999999999913,-0.00529993517178975,-0.015));
#766=CARTESIAN_POINT('',(-0.00441397228703088,-0.0055104127202285,-0.0149683970475114));
#767=CARTESIAN_POINT('',(-0.00493373521379778,-0.00569255954196371,-0.0148507703161504));
#768=CARTESIAN_POINT('',(-0.00567294600629236,-0.00567765378272398,-0.0145928978032631));
#769=CARTESIAN_POINT('',(-0.00637265661231119,-0.00548883064172122,-0.0142673021877901));
#770=CARTESIAN_POINT('',(-0.00719338197723508,-0.00504286091062298,-0.0137806936550408));
#771=CARTESIAN_POINT('',(-0.00798022567002547,-0.00418655725609217,-0.0131480435018396));
#772=CARTESIAN_POINT('',(-0.00836538328394559,-0.00329828609622805,-0.0127406652791189));
#773=CARTESIAN_POINT('',(-0.00851179426354478,-0.00282078957508138,-0.0125760468771916));
#774=CARTESIAN_POINT('',(-0.00851179426354454,-0.00282078957508139,-0.0125760468771914));
#775=CARTESIAN_POINT('',(-0.00851179426354454,-0.00282078957508139,-0.0125760468771914));
#776=CARTESIAN_POINT('',(-0.00878306786087556,-0.001936073146306,-0.0122710381531193));
#777=CARTESIAN_POINT('',(-0.00900276774325454,6.60683634357473E-6,-0.0119529623874285));
#778=CARTESIAN_POINT('',(-0.00878324714866136,0.00193548842722113,-0.012270836569407));
#779=CARTESIAN_POINT('',(-0.00851179426354454,0.00282078957508139,-0.0125760468771914));
#780=CARTESIAN_POINT('',(-0.00851179426354454,0.00282078957508139,-0.0125760468771914));
#781=CARTESIAN_POINT('',(-0.00851179426354454,0.00282078957508139,-0.0125760468771914));
#782=CARTESIAN_POINT('',(-0.00836539763171511,0.00329823930322001,-0.0127406491470845));
#783=CARTESIAN_POINT('',(-0.00798000532885111,0.00418494549017768,-0.013147620942583));
#784=CARTESIAN_POINT('',(-0.00719842314398411,0.00504042774930341,-0.0137778601618519));
#785=CARTESIAN_POINT('',(-0.00636866161748734,0.00549003927482152,-0.014269207533454));
#786=CARTESIAN_POINT('',(-0.00568140452975261,0.00567623207695504,-0.0145894163218383));
#787=CARTESIAN_POINT('',(-0.00493032334075831,0.0056933546930271,-0.0148521014006083));
#788=CARTESIAN_POINT('',(-0.00441279781796061,0.00550890515224091,-0.014968623407044));
#789=CARTESIAN_POINT('',(-0.00425,0.00529993517179078,-0.015));
#790=CARTESIAN_POINT('',(-0.00424999999999995,0.00529993517179079,-0.015));
#791=CARTESIAN_POINT('',(-0.00424999999999995,0.0115,-0.015));
#792=CARTESIAN_POINT('',(-0.0101015097963932,0.00579330860772136,-0.00524320940051143));
#793=CARTESIAN_POINT('',(-0.0103135832617757,0.00549538744170197,-0.00592891875123366));
#794=CARTESIAN_POINT('',(-0.0105698807595809,0.00515857602952015,-0.00749110503953278));
#795=CARTESIAN_POINT('',(-0.0103167499645742,0.00549093885220758,-0.00906084216621101));
#796=CARTESIAN_POINT('',(-0.0101015097963933,0.0057933086077213,-0.00975679059948842));
#797=CARTESIAN_POINT('',(-0.00425,0.0115,0.));
#798=CARTESIAN_POINT('',(-0.00425,0.0052999351717908,0.));
#799=CARTESIAN_POINT('',(-0.00425,0.0052999351717908,0.));
#800=CARTESIAN_POINT('',(-0.00441397228703213,0.00551041272022916,-3.16029524887094E-5));
#801=CARTESIAN_POINT('',(-0.00493373521379831,0.0056925595419636,-0.000149229683849871));
#802=CARTESIAN_POINT('',(-0.00567294600629253,0.005677653782724,-0.000407102196736906));
#803=CARTESIAN_POINT('',(-0.00637265661231182,0.00548883064172099,-0.000732697812210256));
#804=CARTESIAN_POINT('',(-0.00719338197723533,0.00504286091062271,-0.00121930634495938));
#805=CARTESIAN_POINT('',(-0.0079802256700256,0.00418655725609195,-0.00185195649816055));
#806=CARTESIAN_POINT('',(-0.00836538328394561,0.00329828609622797,-0.00225933472088108));
#807=CARTESIAN_POINT('',(-0.00851179426354478,0.00282078957508138,-0.00242395312280836));
#808=CARTESIAN_POINT('',(-0.00851179426354454,0.00282078957508139,-0.00242395312280861));
#809=CARTESIAN_POINT('',(-0.00851179426354454,0.00282078957508139,-0.00242395312280861));
#810=CARTESIAN_POINT('',(-0.00878306786087556,0.001936073146306,-0.00272896184688075));
#811=CARTESIAN_POINT('',(-0.00900276774325454,-6.60683634357787E-6,-0.00304703761257152));
#812=CARTESIAN_POINT('',(-0.00878324714866136,-0.00193548842722113,-0.00272916343059302));
#813=CARTESIAN_POINT('',(-0.00851179426354454,-0.00282078957508139,-0.00242395312280861));
#814=CARTESIAN_POINT('',(-0.00851179426354454,-0.00282078957508139,-0.00242395312280861));
#815=CARTESIAN_POINT('',(-0.00851179426354454,-0.00282078957508139,-0.00242395312280861));
#816=CARTESIAN_POINT('',(-0.00836539763171511,-0.00329823930322,-0.00225935085291551));
#817=CARTESIAN_POINT('',(-0.00798000532885111,-0.00418494549017767,-0.00185237905741695));
#818=CARTESIAN_POINT('',(-0.00719842314398413,-0.0050404277493034,-0.00122213983814811));
#819=CARTESIAN_POINT('',(-0.00636866161748736,-0.00549003927482151,-0.000730792466546019));
#820=CARTESIAN_POINT('',(-0.00568140452975264,-0.00567623207695503,-0.000410583678161666));
#821=CARTESIAN_POINT('',(-0.00493032334075837,-0.0056933546930271,-0.000147898599391678));
#822=CARTESIAN_POINT('',(-0.00441279781796062,-0.00550890515224093,-3.13765929560218E-5));
#823=CARTESIAN_POINT('',(-0.00425,-0.0052999351717908,-1.82737221305535E-19));
#824=CARTESIAN_POINT('',(-0.00425,-0.0052999351717908,0.));
#825=CARTESIAN_POINT('',(-0.00425,0.0115,0.));
#826=CARTESIAN_POINT('',(0.,0.,-0.014));
#827=CARTESIAN_POINT('',(0.000442812524548635,0.00848845787337741,-0.0197496141289992));
#828=CARTESIAN_POINT('',(0.00108130947155418,0.00785804626526452,-0.0199274983816018));
#829=CARTESIAN_POINT('',(0.00167258444697709,0.00716465399757556,-0.02));
#830=CARTESIAN_POINT('',(0.00219109336343687,0.00642125507740587,-0.02));
#831=CARTESIAN_POINT('',(0.000442812524548635,0.00848845787337741,-0.0197496141289992));
#832=CARTESIAN_POINT('',(0.,0.,-0.0197496141289992));
#833=CARTESIAN_POINT('',(-0.00366100167458435,-0.00751903755780615,-0.0197887332164334));
#834=CARTESIAN_POINT('',(-0.00286088928450426,-0.00729862141986243,-0.019938250230009));
#835=CARTESIAN_POINT('',(-0.00207082967739117,-0.00701154829125974,-0.02));
#836=CARTESIAN_POINT('',(-0.00131308502390307,-0.00665651670293174,-0.02));
#837=CARTESIAN_POINT('',(0.,0.,-0.001));
#838=CARTESIAN_POINT('',(-0.00366100167455953,-0.0075190375578128,0.00478873321643472));
#839=CARTESIAN_POINT('',(-0.00286088928449228,-0.00729862141987559,0.00493825023000616));
#840=CARTESIAN_POINT('',(-0.00207082967736393,-0.00701154829128262,0.005));
#841=CARTESIAN_POINT('',(-0.00131308502390308,-0.00665651670293174,0.005));
#842=CARTESIAN_POINT('',(0.,0.,0.00474961412899916));
#843=CARTESIAN_POINT('',(0.000442812524548639,0.00848845787337741,0.00474961412899916));
#844=CARTESIAN_POINT('',(0.000442812524548639,0.0084884578733774,0.00474961412899916));
#845=CARTESIAN_POINT('',(0.00108130947155419,0.00785804626526451,0.00492749838160177));
#846=CARTESIAN_POINT('',(0.00167258444701642,0.00716465399760302,0.005));
#847=CARTESIAN_POINT('',(0.00219109336343687,0.00642125507740587,0.005));
#848=CARTESIAN_POINT('',(0.,0.,0.));
#849=CARTESIAN_POINT('',(0.,0.,0.));
#850=CARTESIAN_POINT('',(0.,-0.00325,0.));
#851=CARTESIAN_POINT('',(0.,0.,0.));
#852=CARTESIAN_POINT('',(-0.00619751991839283,-0.00195978235044715,0.));
#853=CARTESIAN_POINT('',(-0.00442979454383064,0.00475677625072362,0.));
#854=CARTESIAN_POINT('',(-0.00425,0.0052999351717908,0.));
#855=CARTESIAN_POINT('',(-0.00424999999999943,0.00510497123488264,0.));
#856=CARTESIAN_POINT('',(-0.00433087372727595,0.00492128547526654,1.29080036953812E-18));
#857=CARTESIAN_POINT('',(-0.00442979454382017,0.00475677625073975,1.734723472305E-18));
#858=CARTESIAN_POINT('',(0.,0.,0.));
#859=CARTESIAN_POINT('',(-0.00425,-0.0052999351717908,0.));
#860=CARTESIAN_POINT('',(-0.00425000000000002,-0.00510503479672059,0.));
#861=CARTESIAN_POINT('',(-0.00433077466184016,-0.00492145022499569,1.73472347495124E-18));
#862=CARTESIAN_POINT('',(-0.00442979454382545,-0.00475677625073153,1.73472347495124E-18));
#863=CARTESIAN_POINT('',(-0.00442979454383066,-0.0047567762507236,0.));
#864=CARTESIAN_POINT('',(0.,0.,0.));
#865=CARTESIAN_POINT('',(0.,0.,0.005));
#866=CARTESIAN_POINT('',(4.33680868994202E-19,0.0085,0.00464125936927117));
#867=CARTESIAN_POINT('',(0.000146977912632416,0.0085,0.00468034679202574));
#868=CARTESIAN_POINT('',(0.000294574802100451,0.00849619090581862,0.00471649889617156));
#869=CARTESIAN_POINT('',(0.000442812524548638,0.00848845787337741,0.00474961412899917));
#870=CARTESIAN_POINT('',(0.,0.,0.005));
#871=CARTESIAN_POINT('',(0.00127190051875166,0.00299078067908686,0.005));
#872=CARTESIAN_POINT('',(0.000402104695764506,0.00336068201160555,0.005));
#873=CARTESIAN_POINT('',(-0.00110055750079925,0.00329978985357189,0.00476260940407314));
#874=CARTESIAN_POINT('',(-0.00257459051716548,0.00214302368465222,0.00437448036744323));
#875=CARTESIAN_POINT('',(-0.00323916063409381,0.000869306904387023,0.00424573456951839));
#876=CARTESIAN_POINT('',(-0.00330184263097502,-0.000564041233255244,0.00437374941279245));
#877=CARTESIAN_POINT('',(-0.00260536064227336,-0.00230600054359481,0.0047620304264266));
#878=CARTESIAN_POINT('',(-0.00133238916554931,-0.00311145402949714,0.005));
#879=CARTESIAN_POINT('',(-0.00039389217921787,-0.00322604230461273,0.005));
#880=CARTESIAN_POINT('',(0.,0.,-0.015));
#881=CARTESIAN_POINT('',(0.,0.,-0.015));
#882=CARTESIAN_POINT('',(0.,-0.00325,-0.015));
#883=CARTESIAN_POINT('',(-0.00424999999999995,0.00529993517179079,-0.015));
#884=CARTESIAN_POINT('',(-0.00424999999999995,0.00510503479672057,-0.015));
#885=CARTESIAN_POINT('',(-0.00433077466183602,0.00492145022499318,-0.0150000000000005));
#886=CARTESIAN_POINT('',(-0.00442979454382545,0.00475677625073152,-0.0150000000000005));
#887=CARTESIAN_POINT('',(-0.00442979454383064,0.00475677625072362,-0.015));
#888=CARTESIAN_POINT('',(0.,0.,-0.015));
#889=CARTESIAN_POINT('',(-0.00619751991839277,-0.00195978235044734,-0.015));
#890=CARTESIAN_POINT('',(0.,0.,-0.015));
#891=CARTESIAN_POINT('',(-0.00442979454383062,-0.00475677625072364,-0.015));
#892=CARTESIAN_POINT('',(-0.00424999999999913,-0.00529993517178975,-0.015));
#893=CARTESIAN_POINT('',(-0.00424999999999855,-0.00510473370300669,-0.015));
#894=CARTESIAN_POINT('',(-0.0043310570210485,-0.0049209806504802,-0.015000000000001));
#895=CARTESIAN_POINT('',(-0.00442979454382018,-0.00475677625073973,-0.015000000000001));
#896=CARTESIAN_POINT('',(0.,0.,-0.015));
#897=CARTESIAN_POINT('',(0.,0.,-0.02));
#898=CARTESIAN_POINT('',(0.000442812524548635,0.00848845787337741,-0.0197496141289992));
#899=CARTESIAN_POINT('',(0.000294574802100448,0.00849619090581861,-0.0197164988961716));
#900=CARTESIAN_POINT('',(0.000146977912632415,0.0085,-0.0196803467920258));
#901=CARTESIAN_POINT('',(-4.75422393106977E-19,0.0085,-0.0196412593692712));
#902=CARTESIAN_POINT('',(0.,0.,-0.02));
#903=CARTESIAN_POINT('',(-0.000393892179217864,-0.00322604230461273,-0.02));
#904=CARTESIAN_POINT('',(-0.00133210812428968,-0.00311148834397406,-0.02));
#905=CARTESIAN_POINT('',(-0.00260300568080359,-0.00230742308994378,-0.0197626094040731));
#906=CARTESIAN_POINT('',(-0.00330117263453392,-0.000568617693237837,-0.0193744803674432));
#907=CARTESIAN_POINT('',(-0.00323984884825727,0.000866738454162512,-0.0192457345695184));
#908=CARTESIAN_POINT('',(-0.00257745898109521,0.00213939535226844,-0.0193737494127924));
#909=CARTESIAN_POINT('',(-0.00110330823043148,0.0032997353730305,-0.0197620304264266));
#910=CARTESIAN_POINT('',(0.000401844149655701,0.00336079281502663,-0.02));
#911=CARTESIAN_POINT('',(0.00127190051875166,0.00299078067908686,-0.02));
#912=CARTESIAN_POINT('',(0.00387993618494869,0.0111658978407604,-0.0075));
#913=CARTESIAN_POINT('',(-0.00210044734352284,0.0127683367776427,0.0031546558507454));
#914=CARTESIAN_POINT('',(-0.00210044734352284,0.0127683367776427,-0.0181546558507454));
#915=CARTESIAN_POINT('',(0.00349038507181728,0.0112702777469346,-0.01));
#916=CARTESIAN_POINT('',(0.00349038507181727,0.0112702777469346,-0.005));
#917=CARTESIAN_POINT('',(0.,0.,-0.002));
#918=CARTESIAN_POINT('',(-0.00813120067333342,-0.00229221109732027,-0.0015474009947787));
#919=CARTESIAN_POINT('',(-0.00838146767862039,-0.00156856031458809,-0.00173907915377639));
#920=CARTESIAN_POINT('',(-0.00860578921109253,-3.9137748816336E-6,-0.00194137658822679));
#921=CARTESIAN_POINT('',(-0.00838137966150288,0.00156881481739765,-0.00173901174193748));
#922=CARTESIAN_POINT('',(-0.00813120067333342,0.00229221109732027,-0.0015474009947787));
#923=CARTESIAN_POINT('',(-0.00813120067333342,-0.00229221109732027,-0.0015474009947787));
#924=CARTESIAN_POINT('',(-0.00813120067333342,0.00229221109732027,-0.0015474009947787));
#925=CARTESIAN_POINT('',(-0.00813120067333342,0.00229221109732027,-0.0015474009947787));
#926=CARTESIAN_POINT('',(-0.00798237872374558,0.00272253198673788,-0.00143341906063306));
#927=CARTESIAN_POINT('',(-0.00758830591997422,0.00352629268686915,-0.00114504068612887));
#928=CARTESIAN_POINT('',(-0.00683163116161495,0.00431849647777648,-0.000719428011053683));
#929=CARTESIAN_POINT('',(-0.00608075019477001,0.00479348048608597,-0.000414056006146276));
#930=CARTESIAN_POINT('',(-0.00556059221915194,0.00501715259015604,-0.000251632499764579));
#931=CARTESIAN_POINT('',(-0.00512381729854923,0.00513838920805425,-0.000144188519557343));
#932=CARTESIAN_POINT('',(-0.00483560002826221,0.00518185821715805,-8.53546985334765E-5));
#933=CARTESIAN_POINT('',(-0.00460809548099029,0.00517386397592268,-4.46287695147971E-5));
#934=CARTESIAN_POINT('',(-0.00442591975741386,0.00511497142675498,-1.46526106750067E-5));
#935=CARTESIAN_POINT('',(-0.00437433608501195,0.00492889561452245,-3.94935466104138E-7));
#936=CARTESIAN_POINT('',(-0.00441055653627889,0.00481326546275227,1.8951383533688E-18));
#937=CARTESIAN_POINT('',(-0.00442979454383064,0.00475677625072362,1.87898321864018E-18));
#938=CARTESIAN_POINT('',(-0.00442979454383065,-0.0047567762507236,1.73472347597681E-18));
#939=CARTESIAN_POINT('',(-0.00441086474142319,-0.00481236046956639,1.87010352251194E-18));
#940=CARTESIAN_POINT('',(-0.00437567724631683,-0.00492466702829183,-3.91019210366312E-7));
#941=CARTESIAN_POINT('',(-0.00442174976166606,-0.00511063984390839,-1.39176220319701E-5));
#942=CARTESIAN_POINT('',(-0.0046011223795901,-0.00517308381208415,-4.34482679846378E-5));
#943=CARTESIAN_POINT('',(-0.00483003855411846,-0.00518237101136533,-8.42780832675399E-5));
#944=CARTESIAN_POINT('',(-0.00511786332490752,-0.0051397627580978,-0.00014282875017216));
#945=CARTESIAN_POINT('',(-0.00555882262954972,-0.00501794553397665,-0.00025107967558457));
#946=CARTESIAN_POINT('',(-0.00607584798138879,-0.00479598126965382,-0.000412329871335045));
#947=CARTESIAN_POINT('',(-0.00664172556059443,-0.00443883286242614,-0.000642120212238616));
#948=CARTESIAN_POINT('',(-0.0071325945944777,-0.00400427397199969,-0.000888336120517596));
#949=CARTESIAN_POINT('',(-0.00768891707491412,-0.00332217386781492,-0.00121861550201671));
#950=CARTESIAN_POINT('',(-0.00798222717220125,-0.00272297020030025,-0.00143330298811571));
#951=CARTESIAN_POINT('',(-0.00813120067333583,-0.00229221109732235,-0.00154740099477943));
#952=CARTESIAN_POINT('',(0.,0.,-0.013));
#953=CARTESIAN_POINT('',(-0.00813120067333342,0.00229221109732027,-0.0134525990052213));
#954=CARTESIAN_POINT('',(-0.00838146767862039,0.00156856031458809,-0.0132609208462236));
#955=CARTESIAN_POINT('',(-0.00860578921109253,3.91377488163404E-6,-0.0130586234117732));
#956=CARTESIAN_POINT('',(-0.00838137966150288,-0.00156881481739765,-0.0132609882580625));
#957=CARTESIAN_POINT('',(-0.00813120067333342,-0.00229221109732027,-0.0134525990052213));
#958=CARTESIAN_POINT('',(-0.00813120067333342,0.00229221109732027,-0.0134525990052213));
#959=CARTESIAN_POINT('',(-0.00813120067333342,-0.00229221109732027,-0.0134525990052213));
#960=CARTESIAN_POINT('',(-0.00813120067333342,-0.00229221109732027,-0.0134525990052213));
#961=CARTESIAN_POINT('',(-0.00798237872374558,-0.00272253198673787,-0.0135665809393669));
#962=CARTESIAN_POINT('',(-0.00758830591997423,-0.00352629268686914,-0.0138549593138711));
#963=CARTESIAN_POINT('',(-0.00683163116161493,-0.00431849647777649,-0.0142805719889463));
#964=CARTESIAN_POINT('',(-0.00608075019477008,-0.00479348048608592,-0.0145859439938537));
#965=CARTESIAN_POINT('',(-0.00556059221915206,-0.005017152590156,-0.0147483675002354));
#966=CARTESIAN_POINT('',(-0.00512381729854936,-0.00513838920805422,-0.0148558114804426));
#967=CARTESIAN_POINT('',(-0.00483560002826226,-0.00518185821715804,-0.0149146453014665));
#968=CARTESIAN_POINT('',(-0.00460809548099051,-0.00517386397592271,-0.0149553712304852));
#969=CARTESIAN_POINT('',(-0.00442591975741395,-0.00511497142675509,-0.014985347389325));
#970=CARTESIAN_POINT('',(-0.00437433608501193,-0.00492889561452254,-0.0149996050645339));
#971=CARTESIAN_POINT('',(-0.00441055653627889,-0.00481326546275232,-0.015));
#972=CARTESIAN_POINT('',(-0.00442979454383064,-0.00475677625072365,-0.015));
#973=CARTESIAN_POINT('',(-0.00442979454383064,0.00475677625072362,-0.015));
#974=CARTESIAN_POINT('',(-0.00441086474142318,0.0048123604695664,-0.015));
#975=CARTESIAN_POINT('',(-0.00437567724631681,0.00492466702829184,-0.0149996089807896));
#976=CARTESIAN_POINT('',(-0.00442174976166609,0.00511063984390841,-0.014986082377968));
#977=CARTESIAN_POINT('',(-0.00460112237959013,0.00517308381208416,-0.0149565517320154));
#978=CARTESIAN_POINT('',(-0.00483003855411849,0.00518237101136532,-0.0149157219167325));
#979=CARTESIAN_POINT('',(-0.00511786332490754,0.0051397627580978,-0.0148571712498278));
#980=CARTESIAN_POINT('',(-0.00555882262954975,0.00501794553397664,-0.0147489203244154));
#981=CARTESIAN_POINT('',(-0.00607584798138881,0.0047959812696538,-0.014587670128665));
#982=CARTESIAN_POINT('',(-0.00664172556059445,0.00443883286242613,-0.0143578797877614));
#983=CARTESIAN_POINT('',(-0.00713259459447771,0.00400427397199968,-0.0141116638794824));
#984=CARTESIAN_POINT('',(-0.00768891707491412,0.00332217386781491,-0.0137813844979833));
#985=CARTESIAN_POINT('',(-0.00798222717220125,0.00272297020030025,-0.0135666970118843));
#986=CARTESIAN_POINT('',(-0.00813120067333584,0.00229221109732235,-0.0134525990052206));
#987=CARTESIAN_POINT('',(-0.00813120067333342,0.00229221109732028,-0.0134525990052213));
#988=CARTESIAN_POINT('',(-0.00818580841995042,0.00253521445331329,-0.0129425717701352));
#989=CARTESIAN_POINT('',(-0.00851179426354454,0.00282078957508139,-0.0125760468771914));
#990=CARTESIAN_POINT('',(-0.00796620479050198,0.00276929915578366,-0.0135789684687232));
#991=CARTESIAN_POINT('',(-0.00802235180471642,0.00306010870387508,-0.0131004789083352));
#992=CARTESIAN_POINT('',(-0.00833365466793544,0.00340176402325267,-0.0127763396122678));
#993=CARTESIAN_POINT('',(-0.00752809564261654,0.00362433024868893,-0.0138971530431402));
#994=CARTESIAN_POINT('',(-0.00758376207695853,0.00399312475724687,-0.013498357345946));
#995=CARTESIAN_POINT('',(-0.00784851507888403,0.00442620634995813,-0.0132806549580855));
#996=CARTESIAN_POINT('',(-0.00671442013440708,0.00441542655957816,-0.0143380580678431));
#997=CARTESIAN_POINT('',(-0.00674847463383511,0.00481279684064459,-0.0140698247382074));
#998=CARTESIAN_POINT('',(-0.00690427479161445,0.00526099752166228,-0.0139794794337357));
#999=CARTESIAN_POINT('',(-0.0059300326241288,0.00486933349524617,-0.0146385378773368));
#1000=CARTESIAN_POINT('',(-0.00593137160950645,0.00522748888932223,-0.0144806556122317));
#1001=CARTESIAN_POINT('',(-0.00599226047943626,0.00561432339806723,-0.0144557331252407));
#1002=CARTESIAN_POINT('',(-0.00539506102763131,0.00507468355507706,-0.0147933226359226));
#1003=CARTESIAN_POINT('',(-0.00537095884585227,0.00537826557906047,-0.014701340437526));
#1004=CARTESIAN_POINT('',(-0.0053758416412595,0.00569672727192952,-0.0147010634617066));
#1005=CARTESIAN_POINT('',(-0.00494976635973841,0.00517002393637415,-0.0148929144243325));
#1006=CARTESIAN_POINT('',(-0.00489982300036972,0.00540431611898801,-0.0148480233194358));
#1007=CARTESIAN_POINT('',(-0.00486283153028023,0.00564521893885409,-0.0148589141896288));
#1008=CARTESIAN_POINT('',(-0.00463058041858249,0.00519069782474848,-0.0149523725654752));
#1009=CARTESIAN_POINT('',(-0.00455808146451064,0.00536032522446453,-0.0149371765918708));
#1010=CARTESIAN_POINT('',(-0.0044902245050523,0.00553200555347642,-0.0149531539987149));
#1011=CARTESIAN_POINT('',(-0.00435671247319915,0.00508756323054329,-0.0149959185767116));
#1012=CARTESIAN_POINT('',(-0.00424613715165109,0.00516230122072893,-0.0150022896744165));
#1013=CARTESIAN_POINT('',(-0.00413706363818827,0.00523741492724003,-0.0150221734317139));
#1014=CARTESIAN_POINT('',(-0.00439553719409856,0.00484696293199572,-0.0150004417331616));
#1015=CARTESIAN_POINT('',(-0.00424091288710498,0.00486191457238798,-0.0150033553231685));
#1016=CARTESIAN_POINT('',(-0.00408843729746808,0.00487741056963382,-0.0150293425531247));
#1017=CARTESIAN_POINT('',(-0.00444259391370538,0.00472097663597173,-0.014999924414771));
#1018=CARTESIAN_POINT('',(-0.00426664928183312,0.00471469435162655,-0.0149988363191461));
#1019=CARTESIAN_POINT('',(-0.00409322731217551,0.00470831394036659,-0.0150285226009203));
#1020=CARTESIAN_POINT('',(-0.0100062363885454,0.00282078957508139,-0.0139051980104426));
#1021=CARTESIAN_POINT('',(-0.00813120067333342,-0.00229221109732028,-0.0134525990052213));
#1022=CARTESIAN_POINT('',(-0.00818580841995042,-0.0025352144533133,-0.0129425717701352));
#1023=CARTESIAN_POINT('',(-0.00851179426354454,-0.0028207895750814,-0.0125760468771914));
#1024=CARTESIAN_POINT('',(-0.00837183635009114,-0.00159640944734455,-0.0132682974262412));
#1025=CARTESIAN_POINT('',(-0.00842478929802597,-0.0017677956078416,-0.0127117044762238));
#1026=CARTESIAN_POINT('',(-0.00877159918618556,-0.00197347643903135,-0.0122839330528382));
#1027=CARTESIAN_POINT('',(-0.00861393378203616,6.5899824875608E-6,-0.0130523855098049));
#1028=CARTESIAN_POINT('',(-0.0086544859274313,7.30990995632525E-6,-0.0124445965674705));
#1029=CARTESIAN_POINT('',(-0.00901276874580688,8.06597573960394E-6,-0.0119417175489977));
#1030=CARTESIAN_POINT('',(-0.00837472238466878,0.00158806443660106,-0.0132660870262599));
#1031=CARTESIAN_POINT('',(-0.00842765974750433,0.00175857798728774,-0.0127089314811743));
#1032=CARTESIAN_POINT('',(-0.00877471512657337,0.00196331429501462,-0.0122804296193625));
#1033=CARTESIAN_POINT('',(-0.00813120067333343,0.00229221109732028,-0.0134525990052213));
#1034=CARTESIAN_POINT('',(-0.00818580841995043,0.00253521445331329,-0.0129425717701351));
#1035=CARTESIAN_POINT('',(-0.00851179426354454,0.00282078957508139,-0.0125760468771914));
#1036=CARTESIAN_POINT('',(-0.0100062363885454,-0.00282078957508139,-0.0139051980104426));
#1037=CARTESIAN_POINT('',(-0.00444251213316103,-0.00472119564366171,-0.0149999253115235));
#1038=CARTESIAN_POINT('',(-0.00426660452183055,-0.00471495052541655,-0.0149988441779652));
#1039=CARTESIAN_POINT('',(-0.00409321900897731,-0.004708607903613,-0.0150285240222527));
#1040=CARTESIAN_POINT('',(-0.00439577794066598,-0.00484638013252543,-0.0150004364490614));
#1041=CARTESIAN_POINT('',(-0.00424105657606992,-0.00486124331170305,-0.0150033295166241));
#1042=CARTESIAN_POINT('',(-0.00408848619204623,-0.00487664535164078,-0.015029334177999));
#1043=CARTESIAN_POINT('',(-0.00435690913049475,-0.00508664050088209,-0.0149958949512503));
#1044=CARTESIAN_POINT('',(-0.00424617542496326,-0.00516113560479005,-0.0150022411413764));
#1045=CARTESIAN_POINT('',(-0.00413696631549823,-0.00523601855305489,-0.0150221359858682));
#1046=CARTESIAN_POINT('',(-0.00462751742589526,-0.00519063068450008,-0.0149529152108378));
#1047=CARTESIAN_POINT('',(-0.00455477111734091,-0.00535954977405658,-0.0149379900009904));
#1048=CARTESIAN_POINT('',(-0.00448658851164483,-0.00553048450445826,-0.0149540140793291));
#1049=CARTESIAN_POINT('',(-0.00495165319413776,-0.00516987449995367,-0.0148925447278158));
#1050=CARTESIAN_POINT('',(-0.0049018466747036,-0.00540454264061444,-0.0148474723667744));
#1051=CARTESIAN_POINT('',(-0.00486504119762619,-0.00564584702737045,-0.0148583282290229));
#1052=CARTESIAN_POINT('',(-0.00539303235942795,-0.00507499501946791,-0.0147937542387705));
#1053=CARTESIAN_POINT('',(-0.00536878507611306,-0.00537822418153935,-0.0147019837096013));
#1054=CARTESIAN_POINT('',(-0.00537348466539533,-0.00569629744873911,-0.0147017475424444));
#1055=CARTESIAN_POINT('',(-0.00593038508057788,-0.00486957610569182,-0.0146385779128512));
#1056=CARTESIAN_POINT('',(-0.00593178303492202,-0.00522785894424938,-0.0144806706161141));
#1057=CARTESIAN_POINT('',(-0.00599266956269743,-0.00561484350999801,-0.0144557965806246));
#1058=CARTESIAN_POINT('',(-0.00671758865927672,-0.0044127494663186,-0.0143365409419525));
#1059=CARTESIAN_POINT('',(-0.00675173578202606,-0.00481009731585231,-0.014067819477895));
#1060=CARTESIAN_POINT('',(-0.00690795070205971,-0.00525834043521913,-0.0139770748235615));
#1061=CARTESIAN_POINT('',(-0.00752504953858832,-0.00362829595441706,-0.0138989129485065));
#1062=CARTESIAN_POINT('',(-0.00758063463833575,-0.00399734233785853,-0.0135006348630992));
#1063=CARTESIAN_POINT('',(-0.0078450368449359,-0.00443063807327702,-0.013283444368257));
#1064=CARTESIAN_POINT('',(-0.00796678832792119,-0.00276761184836685,-0.0135785215408379));
#1065=CARTESIAN_POINT('',(-0.00802292931925375,-0.00305825417917178,-0.0130999210007711));
#1066=CARTESIAN_POINT('',(-0.00833428469008522,-0.00339970930281548,-0.0127756312416268));
#1067=CARTESIAN_POINT('',(-0.00813120067333342,-0.00229221109732028,-0.0134525990052213));
#1068=CARTESIAN_POINT('',(-0.00818580841995042,-0.00253521445331329,-0.0129425717701351));
#1069=CARTESIAN_POINT('',(-0.00851179426354454,-0.00282078957508139,-0.0125760468771914));
#1070=CARTESIAN_POINT('',(-0.00813120067333342,-0.00229221109732028,-0.00154740099477871));
#1071=CARTESIAN_POINT('',(-0.00818580841995042,-0.00253521445331329,-0.00205742822986485));
#1072=CARTESIAN_POINT('',(-0.00851179426354454,-0.00282078957508139,-0.00242395312280862));
#1073=CARTESIAN_POINT('',(-0.00796620479050189,-0.0027692991557834,-0.00142103153127615));
#1074=CARTESIAN_POINT('',(-0.00802235180470916,-0.00306010870387084,-0.00189952109165758));
#1075=CARTESIAN_POINT('',(-0.00833365466793322,-0.00340176402325151,-0.00222366038772967));
#1076=CARTESIAN_POINT('',(-0.00752809564261658,-0.00362433024868905,-0.00110284695686015));
#1077=CARTESIAN_POINT('',(-0.00758376207696199,-0.00399312475724888,-0.00150164265405743));
#1078=CARTESIAN_POINT('',(-0.0078485150788851,-0.00442620634995869,-0.00171934504191573));
#1079=CARTESIAN_POINT('',(-0.00671442013440706,-0.00441542655957816,-0.000661941932156818));
#1080=CARTESIAN_POINT('',(-0.00674847463383464,-0.00481279684064436,-0.000930175261792183));
#1081=CARTESIAN_POINT('',(-0.0069042747916143,-0.00526099752166223,-0.00102052056626415));
#1082=CARTESIAN_POINT('',(-0.00593003262412881,-0.00486933349524616,-0.000361462122663198));
#1083=CARTESIAN_POINT('',(-0.00593137160950657,-0.00522748888932227,-0.000519344387768329));
#1084=CARTESIAN_POINT('',(-0.00599226047943629,-0.00561432339806723,-0.000544266874759362));
#1085=CARTESIAN_POINT('',(-0.00539506102763126,-0.00507468355507709,-0.000206677364077343));
#1086=CARTESIAN_POINT('',(-0.00537095884585211,-0.00537826557906049,-0.000298659562474024));
#1087=CARTESIAN_POINT('',(-0.00537584164125945,-0.00569672727192954,-0.000298936538293373));
#1088=CARTESIAN_POINT('',(-0.00494976635973843,-0.00517002393637413,-0.000107085575667516));
#1089=CARTESIAN_POINT('',(-0.0048998230003699,-0.00540431611898799,-0.000151976680564163));
#1090=CARTESIAN_POINT('',(-0.00486283153028023,-0.00564521893885406,-0.000141085810371234));
#1091=CARTESIAN_POINT('',(-0.00463058041858234,-0.00519069782474862,-4.7627434524802E-5));
#1092=CARTESIAN_POINT('',(-0.00455808146450988,-0.00536032522446466,-6.28234081292788E-5));
#1093=CARTESIAN_POINT('',(-0.00449022450505222,-0.00553200555347655,-4.68460012851064E-5));
#1094=CARTESIAN_POINT('',(-0.00435671247319967,-0.00508756323054275,-4.08142328838898E-6));
#1095=CARTESIAN_POINT('',(-0.00424613715165386,-0.00516230122072838,2.28967441694696E-6));
#1096=CARTESIAN_POINT('',(-0.00413706363818847,-0.00523741492723946,2.21734317138998E-5));
#1097=CARTESIAN_POINT('',(-0.00439553719409747,-0.00484696293199681,4.41733161640795E-7));
#1098=CARTESIAN_POINT('',(-0.00424091288709899,-0.00486191457238909,3.35532316738235E-6));
#1099=CARTESIAN_POINT('',(-0.00408843729746763,-0.00487741056963497,2.93425531247703E-5));
#1100=CARTESIAN_POINT('',(-0.00444259391370539,-0.00472097663597171,-7.55852290023999E-8));
#1101=CARTESIAN_POINT('',(-0.00426664928183313,-0.00471469435162652,-1.16368085388151E-6));
#1102=CARTESIAN_POINT('',(-0.00409322731217551,-0.00470831394036656,2.85226009203209E-5));
#1103=CARTESIAN_POINT('',(-0.0100062363885454,-0.00282078957508139,-0.0010948019895574));
#1104=CARTESIAN_POINT('',(-0.00813120067333342,0.00229221109732028,-0.00154740099477871));
#1105=CARTESIAN_POINT('',(-0.00818580841995042,0.00253521445331329,-0.00205742822986485));
#1106=CARTESIAN_POINT('',(-0.00851179426354454,0.00282078957508139,-0.00242395312280862));
#1107=CARTESIAN_POINT('',(-0.00837183635009139,0.00159640944734745,-0.00173170257376318));
#1108=CARTESIAN_POINT('',(-0.00842478929802543,0.00176779560784262,-0.00228829552377731));
#1109=CARTESIAN_POINT('',(-0.00877159918618676,0.00197347643903262,-0.00271606694716311));
#1110=CARTESIAN_POINT('',(-0.00861393378203594,-6.58998248894967E-6,-0.00194761449019237));
#1111=CARTESIAN_POINT('',(-0.00865448592743249,-7.30990995712081E-6,-0.0025554034325288));
#1112=CARTESIAN_POINT('',(-0.00901276874580532,-8.06597574047694E-6,-0.00305828245100057));
#1113=CARTESIAN_POINT('',(-0.00837472238466899,-0.00158806443660122,-0.00173391297374117));
#1114=CARTESIAN_POINT('',(-0.00842765974750254,-0.00175857798728751,-0.00229106851882617));
#1115=CARTESIAN_POINT('',(-0.00877471512657529,-0.00196331429501418,-0.00271957038063965));
#1116=CARTESIAN_POINT('',(-0.00813120067333343,-0.00229221109732028,-0.00154740099477871));
#1117=CARTESIAN_POINT('',(-0.00818580841995043,-0.00253521445331329,-0.00205742822986485));
#1118=CARTESIAN_POINT('',(-0.00851179426354454,-0.00282078957508139,-0.00242395312280862));
#1119=CARTESIAN_POINT('',(-0.0100062363885454,0.00282078957508139,-0.0010948019895574));
#1120=CARTESIAN_POINT('',(-0.00444251213316102,0.00472119564366172,-7.46884765024519E-8));
#1121=CARTESIAN_POINT('',(-0.00426660452183054,0.00471495052541657,-1.15582203484826E-6));
#1122=CARTESIAN_POINT('',(-0.0040932190089773,0.00470860790361301,2.85240222527203E-5));
#1123=CARTESIAN_POINT('',(-0.00439577794066782,0.00484638013252488,4.36449061440277E-7));
#1124=CARTESIAN_POINT('',(-0.00424105657607222,0.00486124331170286,3.32951663107247E-6));
#1125=CARTESIAN_POINT('',(-0.00408848619204818,0.00487664535164086,2.93341779986425E-5));
#1126=CARTESIAN_POINT('',(-0.0043569091304939,0.00508664050088228,-4.10504874967304E-6));
#1127=CARTESIAN_POINT('',(-0.00424617542496218,0.00516113560479006,2.24114137319868E-6));
#1128=CARTESIAN_POINT('',(-0.0041369663154973,0.00523601855305474,2.21359858683403E-5));
#1129=CARTESIAN_POINT('',(-0.00462751742589544,0.00519063068450001,-4.70847891621564E-5));
#1130=CARTESIAN_POINT('',(-0.00455477111734114,0.00535954977405654,-6.20099990087559E-5));
#1131=CARTESIAN_POINT('',(-0.00448658851164501,0.00553048450445824,-4.59859206709602E-5));
#1132=CARTESIAN_POINT('',(-0.00495165319413752,0.00516987449995372,-0.000107455272184115));
#1133=CARTESIAN_POINT('',(-0.00490184667470334,0.00540454264061445,-0.000152527633225737));
#1134=CARTESIAN_POINT('',(-0.00486504119762592,0.00564584702737042,-0.000141671770976991));
#1135=CARTESIAN_POINT('',(-0.00539303235942804,0.00507499501946789,-0.000206245761229517));
#1136=CARTESIAN_POINT('',(-0.00536878507611316,0.00537822418153934,-0.000298016290398538));
#1137=CARTESIAN_POINT('',(-0.00537348466539542,0.00569629744873912,-0.000298252457555624));
#1138=CARTESIAN_POINT('',(-0.0059303850805777,0.00486957610569192,-0.00036142208714873));
#1139=CARTESIAN_POINT('',(-0.00593178303492183,0.00522785894424944,-0.00051932938388585));
#1140=CARTESIAN_POINT('',(-0.00599266956269723,0.00561484350999807,-0.000544203419375292));
#1141=CARTESIAN_POINT('',(-0.00671758865927686,0.00441274946631849,-0.000663459058047444));
#1142=CARTESIAN_POINT('',(-0.00675173578202618,0.00481009731585228,-0.000932180522105139));
#1143=CARTESIAN_POINT('',(-0.00690795070205978,0.00525834043521905,-0.00102292517643851));
#1144=CARTESIAN_POINT('',(-0.00752504953858843,0.00362829595441729,-0.00110108705149437));
#1145=CARTESIAN_POINT('',(-0.0075806346383361,0.00399734233785814,-0.00149936513690034));
#1146=CARTESIAN_POINT('',(-0.00784503684493676,0.00443063807327719,-0.00171655563174396));
#1147=CARTESIAN_POINT('',(-0.00796678832792089,0.00276761184836634,-0.00142147845916028));
#1148=CARTESIAN_POINT('',(-0.00802292931925291,0.00305825417917263,-0.00190007899922978));
#1149=CARTESIAN_POINT('',(-0.00833428469008333,0.00339970930281508,-0.00222436875837109));
#1150=CARTESIAN_POINT('',(-0.00813120067333343,0.00229221109732028,-0.00154740099477871));
#1151=CARTESIAN_POINT('',(-0.00818580841995043,0.00253521445331329,-0.00205742822986485));
#1152=CARTESIAN_POINT('',(-0.00851179426354454,0.00282078957508139,-0.00242395312280862));
#1153=MECHANICAL_DESIGN_GEOMETRIC_PRESENTATION_REPRESENTATION('',(#500),
#1154);
#1154=(
GEOMETRIC_REPRESENTATION_CONTEXT(3)
GLOBAL_UNCERTAINTY_ASSIGNED_CONTEXT((#1155))
GLOBAL_UNIT_ASSIGNED_CONTEXT((#1158,#1157,#1156))
REPRESENTATION_CONTEXT('first_thumb_hinge','TOP_LEVEL_ASSEMBLY_PART')
);
#1155=UNCERTAINTY_MEASURE_WITH_UNIT(LENGTH_MEASURE(2.E-5),#1158,
'DISTANCE_ACCURACY_VALUE','Maximum Tolerance applied to model');
#1156=(
NAMED_UNIT(*)
SI_UNIT($,.STERADIAN.)
SOLID_ANGLE_UNIT()
);
#1157=(
NAMED_UNIT(*)
PLANE_ANGLE_UNIT()
SI_UNIT($,.RADIAN.)
);
#1158=(
LENGTH_UNIT()
NAMED_UNIT(*)
SI_UNIT($,.METRE.)
);
#1159=PRODUCT_DEFINITION_SHAPE('','',#1160);
#1160=PRODUCT_DEFINITION('','',#1162,#1161);
#1161=PRODUCT_DEFINITION_CONTEXT('',#1168,'design');
#1162=PRODUCT_DEFINITION_FORMATION_WITH_SPECIFIED_SOURCE('','',#1164,
 .NOT_KNOWN.);
#1163=PRODUCT_RELATED_PRODUCT_CATEGORY('','',(#1164));
#1164=PRODUCT('first_thumb_hinge','first_thumb_hinge',
'first_thumb_hinge',(#1166));
#1165=PRODUCT_CATEGORY('','');
#1166=PRODUCT_CONTEXT('',#1168,'mechanical');
#1167=APPLICATION_PROTOCOL_DEFINITION('international standard',
'ap242_managed_model_based_3d_engineering',2020,#1168);
#1168=APPLICATION_CONTEXT('managed model based 3d engineering');
ENDSEC;
END-ISO-10303-21;
