ISO-10303-21;
HEADER;
/* Generated by software containing ST-Developer
 * from STEP Tools, Inc. (www.steptools.com) 
 */
/* OPTION: using custom renumber hook */

FILE_DESCRIPTION(
/* description */ ('STEP AP242 Edition 2',
'CAx-IF Rec.Pracs.---Representation and Presentation of Product Manufa
cturing Information (PMI)---4.0---2014-10-13',
'CAx-IF Rec.Pracs.---3D Tessellated Geometry---0.4---2014-09-14','2;1',
'CAx-IF Rec.Pracs.---User Defined Attributes---1.5---2016-08-15'),
/* implementation_level */ '2;1');

FILE_NAME(
/* name */ 'Robotic Hand_V5_simulacra - Palm_bone1 (4)',
/* time_stamp */ '2026-09-25T22:15:31Z',
/* author */ (''),
/* organization */ (''),
/* preprocessor_version */ 'ST-DEVELOPER v20',
/* originating_system */ 'ONSHAPE BY PTC INC, 1.221',
/* authorisation */ '  ');

FILE_SCHEMA (('AP242_MANAGED_MODEL_BASED_3D_ENGINEERING_MIM_LF { 1 0 10303 442 3 1 4 }'));
ENDSEC;

DATA;
#10=SHAPE_REPRESENTATION_RELATIONSHIP('','',#70,#11);
#11=ADVANCED_BREP_SHAPE_REPRESENTATION('',(#68),#114);
#12=SPHERICAL_SURFACE('',#76,0.006);
#13=PLANE('',#75);
#14=PLANE('',#78);
#15=ELLIPSE('',#74,0.00704858866466027,0.006);
#16=CIRCLE('',#73,0.006);
#17=CIRCLE('',#77,0.000290632154226609);
#18=ORIENTED_EDGE('',*,*,#30,.F.);
#19=ORIENTED_EDGE('',*,*,#31,.F.);
#20=ORIENTED_EDGE('',*,*,#32,.T.);
#21=ORIENTED_EDGE('',*,*,#33,.T.);
#22=ORIENTED_EDGE('',*,*,#34,.F.);
#23=ORIENTED_EDGE('',*,*,#33,.F.);
#24=ORIENTED_EDGE('',*,*,#35,.F.);
#25=ORIENTED_EDGE('',*,*,#31,.T.);
#26=ORIENTED_EDGE('',*,*,#35,.T.);
#27=ORIENTED_EDGE('',*,*,#30,.T.);
#28=ORIENTED_EDGE('',*,*,#34,.T.);
#29=ORIENTED_EDGE('',*,*,#32,.F.);
#30=EDGE_CURVE('',#36,#37,#40,.F.);
#31=EDGE_CURVE('',#38,#36,#16,.T.);
#32=EDGE_CURVE('',#38,#39,#41,.F.);
#33=EDGE_CURVE('',#39,#37,#15,.F.);
#34=EDGE_CURVE('',#37,#39,#42,.T.);
#35=EDGE_CURVE('',#38,#36,#17,.F.);
#36=VERTEX_POINT('',#101);
#37=VERTEX_POINT('',#102);
#38=VERTEX_POINT('',#104);
#39=VERTEX_POINT('',#106);
#40=LINE('',#100,#43);
#41=LINE('',#105,#44);
#42=LINE('',#109,#45);
#43=VECTOR('',#83,1.);
#44=VECTOR('',#86,1.);
#45=VECTOR('',#91,1.);
#46=EDGE_LOOP('',(#18,#19,#20,#21));
#47=EDGE_LOOP('',(#22,#23));
#48=EDGE_LOOP('',(#24,#25));
#49=EDGE_LOOP('',(#26,#27,#28,#29));
#50=FACE_BOUND('',#46,.T.);
#51=FACE_BOUND('',#47,.T.);
#52=FACE_BOUND('',#48,.T.);
#53=FACE_BOUND('',#49,.T.);
#54=CYLINDRICAL_SURFACE('',#72,0.006);
#55=ADVANCED_FACE('',(#50),#54,.T.);
#56=ADVANCED_FACE('',(#51),#13,.T.);
#57=ADVANCED_FACE('',(#52),#12,.T.);
#58=ADVANCED_FACE('',(#53),#14,.F.);
#59=CLOSED_SHELL('',(#55,#56,#57,#58));
#60=STYLED_ITEM('',(#61),#68);
#61=PRESENTATION_STYLE_ASSIGNMENT((#62));
#62=SURFACE_STYLE_USAGE(.BOTH.,#63);
#63=SURFACE_SIDE_STYLE('',(#64));
#64=SURFACE_STYLE_FILL_AREA(#65);
#65=FILL_AREA_STYLE('',(#66));
#66=FILL_AREA_STYLE_COLOUR('',#67);
#67=COLOUR_RGB('',0.796078431372549,0.823529411764706,0.937254901960784);
#68=MANIFOLD_SOLID_BREP('Palm_bone1',#59);
#69=SHAPE_DEFINITION_REPRESENTATION(#119,#70);
#70=SHAPE_REPRESENTATION('Palm_bone1',(#71),#114);
#71=AXIS2_PLACEMENT_3D('',#98,#79,#80);
#72=AXIS2_PLACEMENT_3D('',#99,#81,#82);
#73=AXIS2_PLACEMENT_3D('',#103,#84,#85);
#74=AXIS2_PLACEMENT_3D('',#107,#87,#88);
#75=AXIS2_PLACEMENT_3D('',#108,#89,#90);
#76=AXIS2_PLACEMENT_3D('',#110,#92,#93);
#77=AXIS2_PLACEMENT_3D('',#111,#94,#95);
#78=AXIS2_PLACEMENT_3D('',#112,#96,#97);
#79=DIRECTION('',(0.,0.,1.));
#80=DIRECTION('',(1.,0.,0.));
#81=DIRECTION('',(0.,1.,0.));
#82=DIRECTION('',(-1.,0.,0.));
#83=DIRECTION('',(0.,1.,0.));
#84=DIRECTION('',(0.,1.,7.15573433840433E-15));
#85=DIRECTION('',(0.,-7.15573433840433E-15,1.));
#86=DIRECTION('',(0.,1.,0.));
#87=DIRECTION('',(0.104518422122026,-0.851234237866991,0.514272468366842));
#88=DIRECTION('',(0.169535146273916,0.524785929959067,0.834180772911291));
#89=DIRECTION('',(0.104518422122026,-0.851234237866992,0.514272468366842));
#90=DIRECTION('',(0.992546151641321,0.121869343405158,2.28510820123544E-16));
#91=DIRECTION('',(-9.97257633190055E-17,-0.517104676179836,-0.855922165779662));
#92=DIRECTION('',(-1.,0.,0.));
#93=DIRECTION('',(0.,-1.,0.));
#94=DIRECTION('',(-1.,-1.12287353599886E-32,1.16512654194631E-16));
#95=DIRECTION('',(-1.16512654194631E-16,0.,-1.));
#96=DIRECTION('',(-1.,-1.12287353599886E-32,1.16512654194631E-16));
#97=DIRECTION('',(-1.16512654194631E-16,0.,-1.));
#98=CARTESIAN_POINT('',(0.,0.,0.));
#99=CARTESIAN_POINT('',(0.006,-0.00149999999999996,0.0015));
#100=CARTESIAN_POINT('',(7.04305447389156E-6,-0.00149999999999996,0.00179063215422661));
#101=CARTESIAN_POINT('',(7.04305447389156E-6,0.0015,0.00179063215422661));
#102=CARTESIAN_POINT('',(7.0430544738913E-6,-0.000180522151179183,0.00179063215422656));
#103=CARTESIAN_POINT('',(0.006,0.0015,0.0015));
#104=CARTESIAN_POINT('',(7.04305447389152E-6,0.0015,0.00120936784577343));
#105=CARTESIAN_POINT('',(7.04305447388906E-6,0.0015,0.00120936784577343));
#106=CARTESIAN_POINT('',(7.04305447388545E-6,-0.000531692507567535,0.00120936784577346));
#107=CARTESIAN_POINT('',(0.006,0.000379735257693134,0.0015));
#108=CARTESIAN_POINT('',(0.00642603771520471,-0.00296064304996071,-0.00411564802765363));
#109=CARTESIAN_POINT('',(7.04305447389066E-6,-0.00353804643120624,-0.00376681024727889));
#110=CARTESIAN_POINT('',(0.006,0.0015,0.0015));
#111=CARTESIAN_POINT('',(7.04305447389152E-6,0.0015,0.0015));
#112=CARTESIAN_POINT('',(7.04305447389239E-6,-0.0627458710476737,0.00865372437497496));
#113=MECHANICAL_DESIGN_GEOMETRIC_PRESENTATION_REPRESENTATION('',(#60),#114);
#114=(
GEOMETRIC_REPRESENTATION_CONTEXT(3)
GLOBAL_UNCERTAINTY_ASSIGNED_CONTEXT((#115))
GLOBAL_UNIT_ASSIGNED_CONTEXT((#118,#117,#116))
REPRESENTATION_CONTEXT('Palm_bone1','TOP_LEVEL_ASSEMBLY_PART')
);
#115=UNCERTAINTY_MEASURE_WITH_UNIT(LENGTH_MEASURE(1.E-8),#118,
'DISTANCE_ACCURACY_VALUE','Maximum Tolerance applied to model');
#116=(
NAMED_UNIT(*)
SI_UNIT($,.STERADIAN.)
SOLID_ANGLE_UNIT()
);
#117=(
NAMED_UNIT(*)
PLANE_ANGLE_UNIT()
SI_UNIT($,.RADIAN.)
);
#118=(
LENGTH_UNIT()
NAMED_UNIT(*)
SI_UNIT($,.METRE.)
);
#119=PRODUCT_DEFINITION_SHAPE('','',#120);
#120=PRODUCT_DEFINITION('','',#122,#121);
#121=PRODUCT_DEFINITION_CONTEXT('',#128,'design');
#122=PRODUCT_DEFINITION_FORMATION_WITH_SPECIFIED_SOURCE('','',#124,
 .NOT_KNOWN.);
#123=PRODUCT_RELATED_PRODUCT_CATEGORY('','',(#124));
#124=PRODUCT('Palm_bone1','Palm_bone1','Palm_bone1',(#126));
#125=PRODUCT_CATEGORY('','');
#126=PRODUCT_CONTEXT('',#128,'mechanical');
#127=APPLICATION_PROTOCOL_DEFINITION('international standard',
'ap242_managed_model_based_3d_engineering',2020,#128);
#128=APPLICATION_CONTEXT('managed model based 3d engineering');
ENDSEC;
END-ISO-10303-21;
