ISO-10303-21;
HEADER;
/* Generated by software containing ST-Developer
 * from STEP Tools, Inc. (www.steptools.com) 
 */
/* OPTION: using custom renumber hook */

FILE_DESCRIPTION(
/* description */ ('STEP AP242 Edition 2',
'CAx-IF Rec.Pracs.---Representation and Presentation of Product Manufa
cturing Information (PMI)---4.0---2014-10-13',
'CAx-IF Rec.Pracs.---3D Tessellated Geometry---0.4---2014-09-14','2;1',
'CAx-IF Rec.Pracs.---User Defined Attributes---1.5---2016-08-15'),
/* implementation_level */ '2;1');

FILE_NAME(
/* name */ 'Robotic Hand_V5_simulacra - Base Bone 1_V02',
/* time_stamp */ '2026-09-25T22:15:30Z',
/* author */ (''),
/* organization */ (''),
/* preprocessor_version */ 'ST-DEVELOPER v20',
/* originating_system */ 'ONSHAPE BY PTC INC, 1.221',
/* authorisation */ '  ');

FILE_SCHEMA (('AP242_MANAGED_MODEL_BASED_3D_ENGINEERING_MIM_LF { 1 0 10303 442 3 1 4 }'));
ENDSEC;

DATA;
#10=SHAPE_REPRESENTATION_RELATIONSHIP('','',#742,#11);
#11=ADVANCED_BREP_SHAPE_REPRESENTATION('',(#740),#1365);
#12=TOROIDAL_SURFACE('',#807,0.004,0.001);
#13=TOROIDAL_SURFACE('',#808,0.003,0.001);
#14=TOROIDAL_SURFACE('',#812,0.003,0.001);
#15=TOROIDAL_SURFACE('',#815,0.002,0.001);
#16=TOROIDAL_SURFACE('',#819,0.002,0.001);
#17=TOROIDAL_SURFACE('',#823,0.003,0.001);
#18=PLANE('',#755);
#19=PLANE('',#762);
#20=PLANE('',#764);
#21=PLANE('',#766);
#22=PLANE('',#768);
#23=PLANE('',#777);
#24=PLANE('',#779);
#25=PLANE('',#784);
#26=PLANE('',#785);
#27=PLANE('',#789);
#28=PLANE('',#790);
#29=PLANE('',#791);
#30=PLANE('',#792);
#31=PLANE('',#793);
#32=PLANE('',#794);
#33=PLANE('',#795);
#34=PLANE('',#798);
#35=CIRCLE('',#746,0.006);
#36=CIRCLE('',#748,0.006);
#37=CIRCLE('',#751,0.0074);
#38=CIRCLE('',#752,0.0074);
#39=CIRCLE('',#753,0.0074);
#40=CIRCLE('',#754,0.0074);
#41=CIRCLE('',#757,0.0074);
#42=CIRCLE('',#758,0.0074);
#43=CIRCLE('',#760,0.006);
#44=CIRCLE('',#761,0.006);
#45=CIRCLE('',#763,0.00875);
#46=CIRCLE('',#765,0.008);
#47=CIRCLE('',#767,0.008);
#48=CIRCLE('',#769,0.00875);
#49=CIRCLE('',#771,0.006);
#50=CIRCLE('',#772,0.006);
#51=CIRCLE('',#774,0.008);
#52=CIRCLE('',#778,0.0034);
#53=CIRCLE('',#780,0.0034);
#54=CIRCLE('',#781,0.008);
#55=CIRCLE('',#787,0.009);
#56=CIRCLE('',#788,0.009);
#57=CIRCLE('',#796,0.00325);
#58=CIRCLE('',#797,0.00875);
#59=CIRCLE('',#799,0.00325);
#60=CIRCLE('',#800,0.00875);
#61=CIRCLE('',#805,0.001);
#62=CIRCLE('',#806,0.001);
#63=CIRCLE('',#809,0.001);
#64=CIRCLE('',#811,0.001);
#65=CIRCLE('',#814,0.001);
#66=CIRCLE('',#816,0.001);
#67=CIRCLE('',#818,0.001);
#68=CIRCLE('',#820,0.001);
#69=CIRCLE('',#822,0.001);
#70=ELLIPSE('',#745,0.00848528137423857,0.006);
#71=ELLIPSE('',#749,0.00848528137423857,0.006);
#72=LINE('',#1039,#116);
#73=LINE('',#1043,#117);
#74=LINE('',#1051,#118);
#75=LINE('',#1062,#119);
#76=LINE('',#1092,#120);
#77=LINE('',#1103,#121);
#78=LINE('',#1111,#122);
#79=LINE('',#1115,#123);
#80=LINE('',#1144,#124);
#81=LINE('',#1162,#125);
#82=LINE('',#1190,#126);
#83=LINE('',#1192,#127);
#84=LINE('',#1194,#128);
#85=LINE('',#1209,#129);
#86=LINE('',#1227,#130);
#87=LINE('',#1229,#131);
#88=LINE('',#1238,#132);
#89=LINE('',#1241,#133);
#90=LINE('',#1246,#134);
#91=LINE('',#1248,#135);
#92=LINE('',#1249,#136);
#93=LINE('',#1251,#137);
#94=LINE('',#1253,#138);
#95=LINE('',#1256,#139);
#96=LINE('',#1258,#140);
#97=LINE('',#1260,#141);
#98=LINE('',#1262,#142);
#99=LINE('',#1266,#143);
#100=LINE('',#1270,#144);
#101=LINE('',#1272,#145);
#102=LINE('',#1285,#146);
#103=LINE('',#1287,#147);
#104=LINE('',#1289,#148);
#105=LINE('',#1293,#149);
#106=LINE('',#1294,#150);
#107=LINE('',#1298,#151);
#108=LINE('',#1301,#152);
#109=LINE('',#1303,#153);
#110=LINE('',#1311,#154);
#111=LINE('',#1315,#155);
#112=LINE('',#1317,#156);
#113=LINE('',#1318,#157);
#114=LINE('',#1320,#158);
#115=LINE('',#1321,#159);
#116=VECTOR('',#828,1.);
#117=VECTOR('',#831,1.);
#118=VECTOR('',#832,1.);
#119=VECTOR('',#835,1.);
#120=VECTOR('',#838,1.);
#121=VECTOR('',#841,1.);
#122=VECTOR('',#842,1.);
#123=VECTOR('',#845,1.);
#124=VECTOR('',#850,1.);
#125=VECTOR('',#855,1.);
#126=VECTOR('',#860,1.);
#127=VECTOR('',#861,1.);
#128=VECTOR('',#862,1.);
#129=VECTOR('',#867,1.);
#130=VECTOR('',#870,1.);
#131=VECTOR('',#873,1.);
#132=VECTOR('',#874,1.);
#133=VECTOR('',#877,1.);
#134=VECTOR('',#884,1.);
#135=VECTOR('',#885,1.);
#136=VECTOR('',#886,1.);
#137=VECTOR('',#887,1.);
#138=VECTOR('',#890,1.);
#139=VECTOR('',#893,1.);
#140=VECTOR('',#896,1.);
#141=VECTOR('',#897,1.);
#142=VECTOR('',#898,1.);
#143=VECTOR('',#903,1.);
#144=VECTOR('',#906,1.);
#145=VECTOR('',#909,1.);
#146=VECTOR('',#918,1.);
#147=VECTOR('',#921,1.);
#148=VECTOR('',#924,1.);
#149=VECTOR('',#929,1.);
#150=VECTOR('',#930,1.);
#151=VECTOR('',#935,1.);
#152=VECTOR('',#938,1.);
#153=VECTOR('',#941,1.);
#154=VECTOR('',#952,1.);
#155=VECTOR('',#955,1.);
#156=VECTOR('',#958,1.);
#157=VECTOR('',#959,1.);
#158=VECTOR('',#962,1.);
#159=VECTOR('',#963,1.);
#160=ORIENTED_EDGE('',*,*,#358,.F.);
#161=ORIENTED_EDGE('',*,*,#359,.T.);
#162=ORIENTED_EDGE('',*,*,#360,.T.);
#163=ORIENTED_EDGE('',*,*,#361,.F.);
#164=ORIENTED_EDGE('',*,*,#362,.F.);
#165=ORIENTED_EDGE('',*,*,#363,.F.);
#166=ORIENTED_EDGE('',*,*,#364,.F.);
#167=ORIENTED_EDGE('',*,*,#365,.F.);
#168=ORIENTED_EDGE('',*,*,#366,.F.);
#169=ORIENTED_EDGE('',*,*,#367,.F.);
#170=ORIENTED_EDGE('',*,*,#368,.F.);
#171=ORIENTED_EDGE('',*,*,#369,.F.);
#172=ORIENTED_EDGE('',*,*,#370,.F.);
#173=ORIENTED_EDGE('',*,*,#371,.F.);
#174=ORIENTED_EDGE('',*,*,#372,.F.);
#175=ORIENTED_EDGE('',*,*,#373,.T.);
#176=ORIENTED_EDGE('',*,*,#374,.T.);
#177=ORIENTED_EDGE('',*,*,#375,.F.);
#178=ORIENTED_EDGE('',*,*,#376,.T.);
#179=ORIENTED_EDGE('',*,*,#377,.F.);
#180=ORIENTED_EDGE('',*,*,#378,.F.);
#181=ORIENTED_EDGE('',*,*,#379,.T.);
#182=ORIENTED_EDGE('',*,*,#380,.T.);
#183=ORIENTED_EDGE('',*,*,#381,.T.);
#184=ORIENTED_EDGE('',*,*,#382,.F.);
#185=ORIENTED_EDGE('',*,*,#383,.T.);
#186=ORIENTED_EDGE('',*,*,#384,.F.);
#187=ORIENTED_EDGE('',*,*,#385,.F.);
#188=ORIENTED_EDGE('',*,*,#386,.T.);
#189=ORIENTED_EDGE('',*,*,#387,.T.);
#190=ORIENTED_EDGE('',*,*,#388,.T.);
#191=ORIENTED_EDGE('',*,*,#389,.F.);
#192=ORIENTED_EDGE('',*,*,#381,.F.);
#193=ORIENTED_EDGE('',*,*,#390,.T.);
#194=ORIENTED_EDGE('',*,*,#391,.T.);
#195=ORIENTED_EDGE('',*,*,#392,.T.);
#196=ORIENTED_EDGE('',*,*,#371,.T.);
#197=ORIENTED_EDGE('',*,*,#393,.T.);
#198=ORIENTED_EDGE('',*,*,#365,.T.);
#199=ORIENTED_EDGE('',*,*,#394,.T.);
#200=ORIENTED_EDGE('',*,*,#395,.T.);
#201=ORIENTED_EDGE('',*,*,#396,.T.);
#202=ORIENTED_EDGE('',*,*,#397,.T.);
#203=ORIENTED_EDGE('',*,*,#398,.F.);
#204=ORIENTED_EDGE('',*,*,#399,.F.);
#205=ORIENTED_EDGE('',*,*,#400,.T.);
#206=ORIENTED_EDGE('',*,*,#401,.F.);
#207=ORIENTED_EDGE('',*,*,#395,.F.);
#208=ORIENTED_EDGE('',*,*,#402,.F.);
#209=ORIENTED_EDGE('',*,*,#403,.T.);
#210=ORIENTED_EDGE('',*,*,#404,.T.);
#211=ORIENTED_EDGE('',*,*,#405,.F.);
#212=ORIENTED_EDGE('',*,*,#377,.T.);
#213=ORIENTED_EDGE('',*,*,#406,.T.);
#214=ORIENTED_EDGE('',*,*,#407,.F.);
#215=ORIENTED_EDGE('',*,*,#391,.F.);
#216=ORIENTED_EDGE('',*,*,#408,.T.);
#217=ORIENTED_EDGE('',*,*,#409,.T.);
#218=ORIENTED_EDGE('',*,*,#359,.F.);
#219=ORIENTED_EDGE('',*,*,#410,.F.);
#220=ORIENTED_EDGE('',*,*,#363,.T.);
#221=ORIENTED_EDGE('',*,*,#411,.T.);
#222=ORIENTED_EDGE('',*,*,#412,.F.);
#223=ORIENTED_EDGE('',*,*,#403,.F.);
#224=ORIENTED_EDGE('',*,*,#413,.T.);
#225=ORIENTED_EDGE('',*,*,#414,.T.);
#226=ORIENTED_EDGE('',*,*,#415,.T.);
#227=ORIENTED_EDGE('',*,*,#416,.F.);
#228=ORIENTED_EDGE('',*,*,#373,.F.);
#229=ORIENTED_EDGE('',*,*,#417,.F.);
#230=ORIENTED_EDGE('',*,*,#418,.T.);
#231=ORIENTED_EDGE('',*,*,#399,.T.);
#232=ORIENTED_EDGE('',*,*,#419,.F.);
#233=ORIENTED_EDGE('',*,*,#420,.F.);
#234=ORIENTED_EDGE('',*,*,#421,.T.);
#235=ORIENTED_EDGE('',*,*,#417,.T.);
#236=ORIENTED_EDGE('',*,*,#422,.T.);
#237=ORIENTED_EDGE('',*,*,#414,.F.);
#238=ORIENTED_EDGE('',*,*,#423,.F.);
#239=ORIENTED_EDGE('',*,*,#397,.F.);
#240=ORIENTED_EDGE('',*,*,#424,.T.);
#241=ORIENTED_EDGE('',*,*,#425,.T.);
#242=ORIENTED_EDGE('',*,*,#411,.F.);
#243=ORIENTED_EDGE('',*,*,#362,.T.);
#244=ORIENTED_EDGE('',*,*,#379,.F.);
#245=ORIENTED_EDGE('',*,*,#426,.F.);
#246=ORIENTED_EDGE('',*,*,#383,.F.);
#247=ORIENTED_EDGE('',*,*,#427,.F.);
#248=ORIENTED_EDGE('',*,*,#428,.F.);
#249=ORIENTED_EDGE('',*,*,#390,.F.);
#250=ORIENTED_EDGE('',*,*,#380,.F.);
#251=ORIENTED_EDGE('',*,*,#426,.T.);
#252=ORIENTED_EDGE('',*,*,#386,.F.);
#253=ORIENTED_EDGE('',*,*,#429,.T.);
#254=ORIENTED_EDGE('',*,*,#424,.F.);
#255=ORIENTED_EDGE('',*,*,#361,.T.);
#256=ORIENTED_EDGE('',*,*,#430,.F.);
#257=ORIENTED_EDGE('',*,*,#408,.F.);
#258=ORIENTED_EDGE('',*,*,#431,.F.);
#259=ORIENTED_EDGE('',*,*,#427,.T.);
#260=ORIENTED_EDGE('',*,*,#382,.T.);
#261=ORIENTED_EDGE('',*,*,#389,.T.);
#262=ORIENTED_EDGE('',*,*,#407,.T.);
#263=ORIENTED_EDGE('',*,*,#432,.T.);
#264=ORIENTED_EDGE('',*,*,#375,.T.);
#265=ORIENTED_EDGE('',*,*,#433,.T.);
#266=ORIENTED_EDGE('',*,*,#434,.F.);
#267=ORIENTED_EDGE('',*,*,#384,.T.);
#268=ORIENTED_EDGE('',*,*,#416,.T.);
#269=ORIENTED_EDGE('',*,*,#435,.T.);
#270=ORIENTED_EDGE('',*,*,#433,.F.);
#271=ORIENTED_EDGE('',*,*,#374,.F.);
#272=ORIENTED_EDGE('',*,*,#431,.T.);
#273=ORIENTED_EDGE('',*,*,#428,.T.);
#274=ORIENTED_EDGE('',*,*,#360,.F.);
#275=ORIENTED_EDGE('',*,*,#409,.F.);
#276=ORIENTED_EDGE('',*,*,#430,.T.);
#277=ORIENTED_EDGE('',*,*,#376,.F.);
#278=ORIENTED_EDGE('',*,*,#432,.F.);
#279=ORIENTED_EDGE('',*,*,#406,.F.);
#280=ORIENTED_EDGE('',*,*,#436,.T.);
#281=ORIENTED_EDGE('',*,*,#437,.T.);
#282=ORIENTED_EDGE('',*,*,#438,.F.);
#283=ORIENTED_EDGE('',*,*,#439,.T.);
#284=ORIENTED_EDGE('',*,*,#440,.F.);
#285=ORIENTED_EDGE('',*,*,#441,.T.);
#286=ORIENTED_EDGE('',*,*,#436,.F.);
#287=ORIENTED_EDGE('',*,*,#442,.F.);
#288=ORIENTED_EDGE('',*,*,#443,.T.);
#289=ORIENTED_EDGE('',*,*,#438,.T.);
#290=ORIENTED_EDGE('',*,*,#443,.F.);
#291=ORIENTED_EDGE('',*,*,#429,.F.);
#292=ORIENTED_EDGE('',*,*,#385,.T.);
#293=ORIENTED_EDGE('',*,*,#434,.T.);
#294=ORIENTED_EDGE('',*,*,#440,.T.);
#295=ORIENTED_EDGE('',*,*,#439,.F.);
#296=ORIENTED_EDGE('',*,*,#412,.T.);
#297=ORIENTED_EDGE('',*,*,#425,.F.);
#298=ORIENTED_EDGE('',*,*,#442,.T.);
#299=ORIENTED_EDGE('',*,*,#437,.F.);
#300=ORIENTED_EDGE('',*,*,#441,.F.);
#301=ORIENTED_EDGE('',*,*,#435,.F.);
#302=ORIENTED_EDGE('',*,*,#415,.F.);
#303=ORIENTED_EDGE('',*,*,#422,.F.);
#304=ORIENTED_EDGE('',*,*,#419,.T.);
#305=ORIENTED_EDGE('',*,*,#404,.F.);
#306=ORIENTED_EDGE('',*,*,#402,.T.);
#307=ORIENTED_EDGE('',*,*,#394,.F.);
#308=ORIENTED_EDGE('',*,*,#364,.T.);
#309=ORIENTED_EDGE('',*,*,#410,.T.);
#310=ORIENTED_EDGE('',*,*,#372,.T.);
#311=ORIENTED_EDGE('',*,*,#398,.T.);
#312=ORIENTED_EDGE('',*,*,#423,.T.);
#313=ORIENTED_EDGE('',*,*,#413,.F.);
#314=ORIENTED_EDGE('',*,*,#444,.F.);
#315=ORIENTED_EDGE('',*,*,#401,.T.);
#316=ORIENTED_EDGE('',*,*,#445,.F.);
#317=ORIENTED_EDGE('',*,*,#420,.T.);
#318=ORIENTED_EDGE('',*,*,#396,.F.);
#319=ORIENTED_EDGE('',*,*,#446,.F.);
#320=ORIENTED_EDGE('',*,*,#366,.T.);
#321=ORIENTED_EDGE('',*,*,#393,.F.);
#322=ORIENTED_EDGE('',*,*,#370,.T.);
#323=ORIENTED_EDGE('',*,*,#447,.T.);
#324=ORIENTED_EDGE('',*,*,#446,.T.);
#325=ORIENTED_EDGE('',*,*,#444,.T.);
#326=ORIENTED_EDGE('',*,*,#358,.T.);
#327=ORIENTED_EDGE('',*,*,#447,.F.);
#328=ORIENTED_EDGE('',*,*,#369,.T.);
#329=ORIENTED_EDGE('',*,*,#405,.T.);
#330=ORIENTED_EDGE('',*,*,#418,.F.);
#331=ORIENTED_EDGE('',*,*,#421,.F.);
#332=ORIENTED_EDGE('',*,*,#445,.T.);
#333=ORIENTED_EDGE('',*,*,#400,.F.);
#334=ORIENTED_EDGE('',*,*,#448,.F.);
#335=ORIENTED_EDGE('',*,*,#449,.T.);
#336=ORIENTED_EDGE('',*,*,#392,.F.);
#337=ORIENTED_EDGE('',*,*,#448,.T.);
#338=ORIENTED_EDGE('',*,*,#449,.F.);
#339=ORIENTED_EDGE('',*,*,#450,.T.);
#340=ORIENTED_EDGE('',*,*,#450,.F.);
#341=ORIENTED_EDGE('',*,*,#368,.T.);
#342=ORIENTED_EDGE('',*,*,#451,.T.);
#343=ORIENTED_EDGE('',*,*,#367,.T.);
#344=ORIENTED_EDGE('',*,*,#451,.F.);
#345=ORIENTED_EDGE('',*,*,#452,.T.);
#346=ORIENTED_EDGE('',*,*,#378,.T.);
#347=ORIENTED_EDGE('',*,*,#453,.F.);
#348=ORIENTED_EDGE('',*,*,#388,.F.);
#349=ORIENTED_EDGE('',*,*,#454,.F.);
#350=ORIENTED_EDGE('',*,*,#453,.T.);
#351=ORIENTED_EDGE('',*,*,#387,.F.);
#352=ORIENTED_EDGE('',*,*,#455,.F.);
#353=ORIENTED_EDGE('',*,*,#454,.T.);
#354=ORIENTED_EDGE('',*,*,#456,.F.);
#355=ORIENTED_EDGE('',*,*,#455,.T.);
#356=ORIENTED_EDGE('',*,*,#452,.F.);
#357=ORIENTED_EDGE('',*,*,#456,.T.);
#358=EDGE_CURVE('',#457,#458,#526,.T.);
#359=EDGE_CURVE('',#457,#459,#72,.T.);
#360=EDGE_CURVE('',#459,#460,#70,.T.);
#361=EDGE_CURVE('',#461,#460,#73,.T.);
#362=EDGE_CURVE('',#462,#461,#527,.T.);
#363=EDGE_CURVE('',#463,#462,#74,.T.);
#364=EDGE_CURVE('',#464,#463,#35,.T.);
#365=EDGE_CURVE('',#465,#464,#528,.T.);
#366=EDGE_CURVE('',#458,#465,#75,.F.);
#367=EDGE_CURVE('',#466,#467,#529,.T.);
#368=EDGE_CURVE('',#467,#466,#530,.T.);
#369=EDGE_CURVE('',#468,#469,#531,.T.);
#370=EDGE_CURVE('',#470,#468,#76,.T.);
#371=EDGE_CURVE('',#471,#470,#532,.T.);
#372=EDGE_CURVE('',#472,#471,#36,.T.);
#373=EDGE_CURVE('',#472,#473,#77,.T.);
#374=EDGE_CURVE('',#473,#474,#533,.T.);
#375=EDGE_CURVE('',#475,#474,#78,.F.);
#376=EDGE_CURVE('',#475,#476,#71,.T.);
#377=EDGE_CURVE('',#469,#476,#79,.T.);
#378=EDGE_CURVE('',#477,#477,#534,.T.);
#379=EDGE_CURVE('',#478,#479,#535,.T.);
#380=EDGE_CURVE('',#479,#480,#37,.T.);
#381=EDGE_CURVE('',#480,#481,#80,.T.);
#382=EDGE_CURVE('',#482,#481,#38,.T.);
#383=EDGE_CURVE('',#482,#483,#536,.T.);
#384=EDGE_CURVE('',#484,#483,#39,.T.);
#385=EDGE_CURVE('',#485,#484,#81,.T.);
#386=EDGE_CURVE('',#485,#478,#40,.T.);
#387=EDGE_CURVE('',#486,#487,#537,.T.);
#388=EDGE_CURVE('',#487,#486,#538,.T.);
#389=EDGE_CURVE('',#481,#488,#82,.T.);
#390=EDGE_CURVE('',#480,#489,#83,.T.);
#391=EDGE_CURVE('',#489,#488,#84,.T.);
#392=EDGE_CURVE('',#490,#490,#539,.T.);
#393=EDGE_CURVE('',#470,#465,#41,.F.);
#394=EDGE_CURVE('',#464,#491,#85,.T.);
#395=EDGE_CURVE('',#491,#492,#540,.T.);
#396=EDGE_CURVE('',#492,#493,#42,.F.);
#397=EDGE_CURVE('',#493,#494,#541,.T.);
#398=EDGE_CURVE('',#471,#494,#86,.T.);
#399=EDGE_CURVE('',#495,#496,#87,.T.);
#400=EDGE_CURVE('',#495,#497,#542,.T.);
#401=EDGE_CURVE('',#492,#497,#88,.T.);
#402=EDGE_CURVE('',#498,#491,#43,.T.);
#403=EDGE_CURVE('',#498,#499,#89,.T.);
#404=EDGE_CURVE('',#499,#496,#44,.T.);
#405=EDGE_CURVE('',#469,#457,#45,.F.);
#406=EDGE_CURVE('',#476,#500,#90,.T.);
#407=EDGE_CURVE('',#488,#500,#91,.T.);
#408=EDGE_CURVE('',#489,#501,#92,.T.);
#409=EDGE_CURVE('',#501,#459,#93,.T.);
#410=EDGE_CURVE('',#463,#498,#94,.T.);
#411=EDGE_CURVE('',#462,#502,#46,.F.);
#412=EDGE_CURVE('',#499,#502,#95,.T.);
#413=EDGE_CURVE('',#472,#503,#96,.T.);
#414=EDGE_CURVE('',#503,#504,#97,.T.);
#415=EDGE_CURVE('',#504,#505,#98,.T.);
#416=EDGE_CURVE('',#473,#505,#47,.F.);
#417=EDGE_CURVE('',#506,#507,#99,.T.);
#418=EDGE_CURVE('',#506,#495,#48,.T.);
#419=EDGE_CURVE('',#507,#496,#100,.T.);
#420=EDGE_CURVE('',#508,#493,#101,.F.);
#421=EDGE_CURVE('',#508,#506,#543,.T.);
#422=EDGE_CURVE('',#507,#504,#49,.T.);
#423=EDGE_CURVE('',#494,#503,#50,.T.);
#424=EDGE_CURVE('',#461,#509,#51,.F.);
#425=EDGE_CURVE('',#509,#502,#102,.T.);
#426=EDGE_CURVE('',#479,#478,#103,.F.);
#427=EDGE_CURVE('',#483,#482,#104,.T.);
#428=EDGE_CURVE('',#510,#510,#52,.T.);
#429=EDGE_CURVE('',#485,#509,#105,.T.);
#430=EDGE_CURVE('',#501,#460,#106,.T.);
#431=EDGE_CURVE('',#511,#511,#53,.T.);
#432=EDGE_CURVE('',#500,#475,#107,.T.);
#433=EDGE_CURVE('',#474,#512,#54,.F.);
#434=EDGE_CURVE('',#484,#512,#108,.T.);
#435=EDGE_CURVE('',#505,#512,#109,.T.);
#436=EDGE_CURVE('',#513,#514,#55,.T.);
#437=EDGE_CURVE('',#514,#515,#110,.F.);
#438=EDGE_CURVE('',#516,#515,#56,.T.);
#439=EDGE_CURVE('',#516,#513,#111,.T.);
#440=EDGE_CURVE('',#512,#513,#112,.T.);
#441=EDGE_CURVE('',#512,#514,#113,.T.);
#442=EDGE_CURVE('',#509,#515,#114,.T.);
#443=EDGE_CURVE('',#509,#516,#115,.T.);
#444=EDGE_CURVE('',#517,#517,#57,.T.);
#445=EDGE_CURVE('',#508,#497,#58,.T.);
#446=EDGE_CURVE('',#518,#518,#59,.T.);
#447=EDGE_CURVE('',#468,#458,#60,.T.);
#448=EDGE_CURVE('',#519,#519,#61,.T.);
#449=EDGE_CURVE('',#520,#520,#62,.T.);
#450=EDGE_CURVE('',#521,#521,#63,.T.);
#451=EDGE_CURVE('',#466,#467,#64,.T.);
#452=EDGE_CURVE('',#522,#522,#65,.T.);
#453=EDGE_CURVE('',#486,#487,#66,.T.);
#454=EDGE_CURVE('',#523,#523,#67,.T.);
#455=EDGE_CURVE('',#524,#524,#68,.T.);
#456=EDGE_CURVE('',#525,#525,#69,.T.);
#457=VERTEX_POINT('',#1037);
#458=VERTEX_POINT('',#1038);
#459=VERTEX_POINT('',#1040);
#460=VERTEX_POINT('',#1042);
#461=VERTEX_POINT('',#1044);
#462=VERTEX_POINT('',#1050);
#463=VERTEX_POINT('',#1052);
#464=VERTEX_POINT('',#1054);
#465=VERTEX_POINT('',#1061);
#466=VERTEX_POINT('',#1076);
#467=VERTEX_POINT('',#1077);
#468=VERTEX_POINT('',#1090);
#469=VERTEX_POINT('',#1091);
#470=VERTEX_POINT('',#1093);
#471=VERTEX_POINT('',#1100);
#472=VERTEX_POINT('',#1102);
#473=VERTEX_POINT('',#1104);
#474=VERTEX_POINT('',#1110);
#475=VERTEX_POINT('',#1112);
#476=VERTEX_POINT('',#1114);
#477=VERTEX_POINT('',#1127);
#478=VERTEX_POINT('',#1140);
#479=VERTEX_POINT('',#1141);
#480=VERTEX_POINT('',#1143);
#481=VERTEX_POINT('',#1145);
#482=VERTEX_POINT('',#1147);
#483=VERTEX_POINT('',#1159);
#484=VERTEX_POINT('',#1161);
#485=VERTEX_POINT('',#1163);
#486=VERTEX_POINT('',#1180);
#487=VERTEX_POINT('',#1181);
#488=VERTEX_POINT('',#1191);
#489=VERTEX_POINT('',#1193);
#490=VERTEX_POINT('',#1206);
#491=VERTEX_POINT('',#1210);
#492=VERTEX_POINT('',#1217);
#493=VERTEX_POINT('',#1219);
#494=VERTEX_POINT('',#1226);
#495=VERTEX_POINT('',#1230);
#496=VERTEX_POINT('',#1231);
#497=VERTEX_POINT('',#1237);
#498=VERTEX_POINT('',#1240);
#499=VERTEX_POINT('',#1242);
#500=VERTEX_POINT('',#1247);
#501=VERTEX_POINT('',#1250);
#502=VERTEX_POINT('',#1255);
#503=VERTEX_POINT('',#1259);
#504=VERTEX_POINT('',#1261);
#505=VERTEX_POINT('',#1263);
#506=VERTEX_POINT('',#1267);
#507=VERTEX_POINT('',#1268);
#508=VERTEX_POINT('',#1273);
#509=VERTEX_POINT('',#1284);
#510=VERTEX_POINT('',#1292);
#511=VERTEX_POINT('',#1297);
#512=VERTEX_POINT('',#1300);
#513=VERTEX_POINT('',#1309);
#514=VERTEX_POINT('',#1310);
#515=VERTEX_POINT('',#1312);
#516=VERTEX_POINT('',#1314);
#517=VERTEX_POINT('',#1328);
#518=VERTEX_POINT('',#1332);
#519=VERTEX_POINT('',#1339);
#520=VERTEX_POINT('',#1341);
#521=VERTEX_POINT('',#1345);
#522=VERTEX_POINT('',#1351);
#523=VERTEX_POINT('',#1356);
#524=VERTEX_POINT('',#1359);
#525=VERTEX_POINT('',#1362);
#526=B_SPLINE_CURVE_WITH_KNOTS('',3,(#1032,#1033,#1034,#1035,#1036),
 .UNSPECIFIED.,.F.,.F.,(4,1,4),(0.,0.00348896676809441,0.00697793353618882),
 .UNSPECIFIED.);
#527=B_SPLINE_CURVE_WITH_KNOTS('',3,(#1045,#1046,#1047,#1048,#1049),
 .UNSPECIFIED.,.F.,.F.,(4,1,4),(0.,0.00346133356374527,0.00692266712749054),
 .UNSPECIFIED.);
#528=B_SPLINE_CURVE_WITH_KNOTS('',3,(#1055,#1056,#1057,#1058,#1059,#1060),
 .UNSPECIFIED.,.F.,.F.,(4,1,1,4),(0.00757801636011574,0.00948003205926803,
0.0104310399088442,0.0113820477584203),.UNSPECIFIED.);
#529=B_SPLINE_CURVE_WITH_KNOTS('',3,(#1063,#1064,#1065,#1066,#1067,#1068,
#1069,#1070,#1071,#1072,#1073,#1074,#1075),.UNSPECIFIED.,.F.,.F.,(4,1,1,
1,1,1,1,1,1,1,4),(5.56345537983783E-5,0.000995710580333936,0.00193578660686949,
0.00287586263340505,0.00334590064667283,0.00381593865994061,0.00428597667320839,
0.00475601468647616,0.00569609071301172,0.00663616673954728,0.00757624276608284),
 .UNSPECIFIED.);
#530=B_SPLINE_CURVE_WITH_KNOTS('',3,(#1078,#1079,#1080,#1081,#1082),
 .UNSPECIFIED.,.F.,.F.,(4,1,4),(0.,0.000321041624226494,0.000642083248452988),
 .UNSPECIFIED.);
#531=B_SPLINE_CURVE_WITH_KNOTS('',3,(#1084,#1085,#1086,#1087,#1088,#1089),
 .UNSPECIFIED.,.F.,.F.,(4,1,1,4),(0.,0.00173246052226823,0.00346492104453645,
0.0069298420890729),.UNSPECIFIED.);
#532=B_SPLINE_CURVE_WITH_KNOTS('',3,(#1094,#1095,#1096,#1097,#1098,#1099),
 .UNSPECIFIED.,.F.,.F.,(4,1,1,4),(0.,0.000955657774944343,0.00191131554988869,
0.00382263109977737),.UNSPECIFIED.);
#533=B_SPLINE_CURVE_WITH_KNOTS('',3,(#1105,#1106,#1107,#1108,#1109),
 .UNSPECIFIED.,.F.,.F.,(4,1,4),(0.,0.00346133356374527,0.00692266712749054),
 .UNSPECIFIED.);
#534=B_SPLINE_CURVE_WITH_KNOTS('',3,(#1116,#1117,#1118,#1119,#1120,#1121,
#1122,#1123,#1124,#1125,#1126),.UNSPECIFIED.,.T.,.F.,(1,1,1,1,1,1,1,1,1,
1,1,1,1,1,1),(-0.00242313591654261,-0.00161542394436174,-0.000807711972180869,
0.,0.000807711972180868,0.00161542394436174,0.00242313591654261,0.00323084788872347,
0.00403855986090434,0.00484627183308521,0.00565398380526608,0.00646169577744695,
0.00726940774962782,0.00807711972180868,0.00888483169398955),
 .UNSPECIFIED.);
#535=B_SPLINE_CURVE_WITH_KNOTS('',3,(#1129,#1130,#1131,#1132,#1133,#1134,
#1135,#1136,#1137,#1138,#1139),.UNSPECIFIED.,.F.,.F.,(4,1,1,1,1,1,1,1,4),
(0.,0.0010346490688101,0.0020692981376202,0.0031039472064303,0.0041385962752404,
0.0051732453440505,0.0062078944128606,0.0072425434816707,0.0082771925504808),
 .UNSPECIFIED.);
#536=B_SPLINE_CURVE_WITH_KNOTS('',3,(#1148,#1149,#1150,#1151,#1152,#1153,
#1154,#1155,#1156,#1157,#1158),.UNSPECIFIED.,.F.,.F.,(4,1,1,1,1,1,1,1,4),
(0.,0.0010346490688101,0.0020692981376202,0.00310394720643029,0.00413859627524039,
0.00517324534405049,0.00620789441286059,0.00724254348167068,0.00827719255048078),
 .UNSPECIFIED.);
#537=B_SPLINE_CURVE_WITH_KNOTS('',3,(#1165,#1166,#1167,#1168,#1169,#1170,
#1171,#1172,#1173,#1174,#1175,#1176,#1177,#1178,#1179),.UNSPECIFIED.,.F.,
 .F.,(4,1,1,1,1,1,1,1,1,1,1,1,4),(9.80532832471571E-18,0.000871715341602209,
0.00174343068320441,0.00217928835400551,0.00261514602480661,0.00305100369560771,
0.00348686136640881,0.00392271903720991,0.00435857670801101,0.00479443437881211,
0.00523029204961321,0.00610200739121541,0.00697372273281761),
 .UNSPECIFIED.);
#538=B_SPLINE_CURVE_WITH_KNOTS('',3,(#1182,#1183,#1184,#1185,#1186,#1187,
#1188),.UNSPECIFIED.,.F.,.F.,(4,1,1,1,4),(0.000597645021436355,0.00114740910374916,
0.00169717318606196,0.00224693726837477,0.00279670135068757),
 .UNSPECIFIED.);
#539=B_SPLINE_CURVE_WITH_KNOTS('',3,(#1195,#1196,#1197,#1198,#1199,#1200,
#1201,#1202,#1203,#1204,#1205),.UNSPECIFIED.,.T.,.F.,(1,1,1,1,1,1,1,1,1,
1,1,1,1,1,1),(-0.0024025374456111,-0.0016016916304074,-0.0008008458152037,
0.,0.0008008458152037,0.0016016916304074,0.0024025374456111,0.0032033832608148,
0.0040042290760185,0.0048050748912222,0.0056059207064259,0.0064067665216296,
0.0072076123368333,0.008008458152037,0.00880930396724071),.UNSPECIFIED.);
#540=B_SPLINE_CURVE_WITH_KNOTS('',3,(#1211,#1212,#1213,#1214,#1215,#1216),
 .UNSPECIFIED.,.F.,.F.,(4,1,1,4),(0.,0.000955657774944343,0.00191131554988869,
0.00382263109977737),.UNSPECIFIED.);
#541=B_SPLINE_CURVE_WITH_KNOTS('',3,(#1220,#1221,#1222,#1223,#1224,#1225),
 .UNSPECIFIED.,.F.,.F.,(4,1,1,4),(0.00757801636011574,0.00948003205926803,
0.0104310399088442,0.0113820477584203),.UNSPECIFIED.);
#542=B_SPLINE_CURVE_WITH_KNOTS('',3,(#1232,#1233,#1234,#1235,#1236),
 .UNSPECIFIED.,.F.,.F.,(4,1,4),(0.,0.00348896676809441,0.00697793353618882),
 .UNSPECIFIED.);
#543=B_SPLINE_CURVE_WITH_KNOTS('',3,(#1274,#1275,#1276,#1277,#1278,#1279),
 .UNSPECIFIED.,.F.,.F.,(4,1,1,4),(0.,0.00173246052226822,0.00346492104453645,
0.0069298420890729),.UNSPECIFIED.);
#544=EDGE_LOOP('',(#160,#161,#162,#163,#164,#165,#166,#167,#168));
#545=EDGE_LOOP('',(#169,#170));
#546=EDGE_LOOP('',(#171,#172,#173,#174,#175,#176,#177,#178,#179));
#547=EDGE_LOOP('',(#180));
#548=EDGE_LOOP('',(#181,#182,#183,#184,#185,#186,#187,#188));
#549=EDGE_LOOP('',(#189,#190));
#550=EDGE_LOOP('',(#191,#192,#193,#194));
#551=EDGE_LOOP('',(#195));
#552=EDGE_LOOP('',(#196,#197,#198,#199,#200,#201,#202,#203));
#553=EDGE_LOOP('',(#204,#205,#206,#207,#208,#209,#210));
#554=EDGE_LOOP('',(#211,#212,#213,#214,#215,#216,#217,#218));
#555=EDGE_LOOP('',(#219,#220,#221,#222,#223));
#556=EDGE_LOOP('',(#224,#225,#226,#227,#228));
#557=EDGE_LOOP('',(#229,#230,#231,#232));
#558=EDGE_LOOP('',(#233,#234,#235,#236,#237,#238,#239));
#559=EDGE_LOOP('',(#240,#241,#242,#243));
#560=EDGE_LOOP('',(#244,#245));
#561=EDGE_LOOP('',(#246,#247));
#562=EDGE_LOOP('',(#248));
#563=EDGE_LOOP('',(#249,#250,#251,#252,#253,#254,#255,#256,#257));
#564=EDGE_LOOP('',(#258));
#565=EDGE_LOOP('',(#259,#260,#261,#262,#263,#264,#265,#266,#267));
#566=EDGE_LOOP('',(#268,#269,#270,#271));
#567=EDGE_LOOP('',(#272));
#568=EDGE_LOOP('',(#273));
#569=EDGE_LOOP('',(#274,#275,#276));
#570=EDGE_LOOP('',(#277,#278,#279));
#571=EDGE_LOOP('',(#280,#281,#282,#283));
#572=EDGE_LOOP('',(#284,#285,#286));
#573=EDGE_LOOP('',(#287,#288,#289));
#574=EDGE_LOOP('',(#290,#291,#292,#293,#294,#295));
#575=EDGE_LOOP('',(#296,#297,#298,#299,#300,#301,#302,#303,#304,#305));
#576=EDGE_LOOP('',(#306,#307,#308,#309));
#577=EDGE_LOOP('',(#310,#311,#312,#313));
#578=EDGE_LOOP('',(#314));
#579=EDGE_LOOP('',(#315,#316,#317,#318));
#580=EDGE_LOOP('',(#319));
#581=EDGE_LOOP('',(#320,#321,#322,#323));
#582=EDGE_LOOP('',(#324));
#583=EDGE_LOOP('',(#325));
#584=EDGE_LOOP('',(#326,#327,#328,#329));
#585=EDGE_LOOP('',(#330,#331,#332,#333));
#586=EDGE_LOOP('',(#334));
#587=EDGE_LOOP('',(#335));
#588=EDGE_LOOP('',(#336));
#589=EDGE_LOOP('',(#337));
#590=EDGE_LOOP('',(#338));
#591=EDGE_LOOP('',(#339));
#592=EDGE_LOOP('',(#340));
#593=EDGE_LOOP('',(#341,#342));
#594=EDGE_LOOP('',(#343,#344));
#595=EDGE_LOOP('',(#345));
#596=EDGE_LOOP('',(#346));
#597=EDGE_LOOP('',(#347,#348));
#598=EDGE_LOOP('',(#349));
#599=EDGE_LOOP('',(#350,#351));
#600=EDGE_LOOP('',(#352));
#601=EDGE_LOOP('',(#353));
#602=EDGE_LOOP('',(#354));
#603=EDGE_LOOP('',(#355));
#604=EDGE_LOOP('',(#356));
#605=EDGE_LOOP('',(#357));
#606=FACE_BOUND('',#544,.T.);
#607=FACE_BOUND('',#545,.T.);
#608=FACE_BOUND('',#546,.T.);
#609=FACE_BOUND('',#547,.T.);
#610=FACE_BOUND('',#548,.T.);
#611=FACE_BOUND('',#549,.T.);
#612=FACE_BOUND('',#550,.T.);
#613=FACE_BOUND('',#551,.T.);
#614=FACE_BOUND('',#552,.T.);
#615=FACE_BOUND('',#553,.T.);
#616=FACE_BOUND('',#554,.T.);
#617=FACE_BOUND('',#555,.T.);
#618=FACE_BOUND('',#556,.T.);
#619=FACE_BOUND('',#557,.T.);
#620=FACE_BOUND('',#558,.T.);
#621=FACE_BOUND('',#559,.T.);
#622=FACE_BOUND('',#560,.T.);
#623=FACE_BOUND('',#561,.T.);
#624=FACE_BOUND('',#562,.T.);
#625=FACE_BOUND('',#563,.T.);
#626=FACE_BOUND('',#564,.T.);
#627=FACE_BOUND('',#565,.T.);
#628=FACE_BOUND('',#566,.T.);
#629=FACE_BOUND('',#567,.T.);
#630=FACE_BOUND('',#568,.T.);
#631=FACE_BOUND('',#569,.T.);
#632=FACE_BOUND('',#570,.T.);
#633=FACE_BOUND('',#571,.T.);
#634=FACE_BOUND('',#572,.T.);
#635=FACE_BOUND('',#573,.T.);
#636=FACE_BOUND('',#574,.T.);
#637=FACE_BOUND('',#575,.T.);
#638=FACE_BOUND('',#576,.T.);
#639=FACE_BOUND('',#577,.T.);
#640=FACE_BOUND('',#578,.T.);
#641=FACE_BOUND('',#579,.T.);
#642=FACE_BOUND('',#580,.T.);
#643=FACE_BOUND('',#581,.T.);
#644=FACE_BOUND('',#582,.T.);
#645=FACE_BOUND('',#583,.T.);
#646=FACE_BOUND('',#584,.T.);
#647=FACE_BOUND('',#585,.T.);
#648=FACE_BOUND('',#586,.T.);
#649=FACE_BOUND('',#587,.T.);
#650=FACE_BOUND('',#588,.T.);
#651=FACE_BOUND('',#589,.T.);
#652=FACE_BOUND('',#590,.T.);
#653=FACE_BOUND('',#591,.T.);
#654=FACE_BOUND('',#592,.T.);
#655=FACE_BOUND('',#593,.T.);
#656=FACE_BOUND('',#594,.T.);
#657=FACE_BOUND('',#595,.T.);
#658=FACE_BOUND('',#596,.T.);
#659=FACE_BOUND('',#597,.T.);
#660=FACE_BOUND('',#598,.T.);
#661=FACE_BOUND('',#599,.T.);
#662=FACE_BOUND('',#600,.T.);
#663=FACE_BOUND('',#601,.T.);
#664=FACE_BOUND('',#602,.T.);
#665=FACE_BOUND('',#603,.T.);
#666=FACE_BOUND('',#604,.T.);
#667=FACE_BOUND('',#605,.T.);
#668=CYLINDRICAL_SURFACE('',#744,0.006);
#669=CYLINDRICAL_SURFACE('',#747,0.006);
#670=CYLINDRICAL_SURFACE('',#750,0.0074);
#671=CYLINDRICAL_SURFACE('',#756,0.0074);
#672=CYLINDRICAL_SURFACE('',#759,0.006);
#673=CYLINDRICAL_SURFACE('',#770,0.006);
#674=CYLINDRICAL_SURFACE('',#773,0.008);
#675=CYLINDRICAL_SURFACE('',#775,0.006);
#676=CYLINDRICAL_SURFACE('',#776,0.006);
#677=CYLINDRICAL_SURFACE('',#782,0.008);
#678=CYLINDRICAL_SURFACE('',#783,0.0034);
#679=CYLINDRICAL_SURFACE('',#786,0.009);
#680=CYLINDRICAL_SURFACE('',#801,0.00325);
#681=CYLINDRICAL_SURFACE('',#802,0.00875);
#682=CYLINDRICAL_SURFACE('',#803,0.00875);
#683=CYLINDRICAL_SURFACE('',#804,0.001);
#684=CYLINDRICAL_SURFACE('',#810,0.001);
#685=CYLINDRICAL_SURFACE('',#813,0.001);
#686=CYLINDRICAL_SURFACE('',#817,0.001);
#687=CYLINDRICAL_SURFACE('',#821,0.001);
#688=ADVANCED_FACE('',(#606,#607),#668,.T.);
#689=ADVANCED_FACE('',(#608,#609),#669,.T.);
#690=ADVANCED_FACE('',(#610,#611),#670,.T.);
#691=ADVANCED_FACE('',(#612,#613),#18,.T.);
#692=ADVANCED_FACE('',(#614),#671,.T.);
#693=ADVANCED_FACE('',(#615),#672,.T.);
#694=ADVANCED_FACE('',(#616),#19,.F.);
#695=ADVANCED_FACE('',(#617),#20,.F.);
#696=ADVANCED_FACE('',(#618),#21,.F.);
#697=ADVANCED_FACE('',(#619),#22,.F.);
#698=ADVANCED_FACE('',(#620),#673,.T.);
#699=ADVANCED_FACE('',(#621),#674,.F.);
#700=ADVANCED_FACE('',(#622),#675,.T.);
#701=ADVANCED_FACE('',(#623),#676,.T.);
#702=ADVANCED_FACE('',(#624,#625),#23,.T.);
#703=ADVANCED_FACE('',(#626,#627),#24,.T.);
#704=ADVANCED_FACE('',(#628),#677,.F.);
#705=ADVANCED_FACE('',(#629,#630),#678,.F.);
#706=ADVANCED_FACE('',(#631),#25,.T.);
#707=ADVANCED_FACE('',(#632),#26,.T.);
#708=ADVANCED_FACE('',(#633),#679,.F.);
#709=ADVANCED_FACE('',(#634),#27,.F.);
#710=ADVANCED_FACE('',(#635),#28,.T.);
#711=ADVANCED_FACE('',(#636),#29,.F.);
#712=ADVANCED_FACE('',(#637),#30,.F.);
#713=ADVANCED_FACE('',(#638),#31,.T.);
#714=ADVANCED_FACE('',(#639),#32,.T.);
#715=ADVANCED_FACE('',(#640,#641),#33,.T.);
#716=ADVANCED_FACE('',(#642,#643),#34,.T.);
#717=ADVANCED_FACE('',(#644,#645),#680,.F.);
#718=ADVANCED_FACE('',(#646),#681,.F.);
#719=ADVANCED_FACE('',(#647),#682,.F.);
#720=ADVANCED_FACE('',(#648,#649),#683,.F.);
#721=ADVANCED_FACE('',(#650,#651),#12,.F.);
#722=ADVANCED_FACE('',(#652,#653),#13,.F.);
#723=ADVANCED_FACE('',(#654,#655),#684,.F.);
#724=ADVANCED_FACE('',(#656),#14,.F.);
#725=ADVANCED_FACE('',(#657,#658),#685,.F.);
#726=ADVANCED_FACE('',(#659),#15,.F.);
#727=ADVANCED_FACE('',(#660,#661),#686,.F.);
#728=ADVANCED_FACE('',(#662,#663),#16,.F.);
#729=ADVANCED_FACE('',(#664,#665),#687,.F.);
#730=ADVANCED_FACE('',(#666,#667),#17,.F.);
#731=CLOSED_SHELL('',(#688,#689,#690,#691,#692,#693,#694,#695,#696,#697,
#698,#699,#700,#701,#702,#703,#704,#705,#706,#707,#708,#709,#710,#711,#712,
#713,#714,#715,#716,#717,#718,#719,#720,#721,#722,#723,#724,#725,#726,#727,
#728,#729,#730));
#732=STYLED_ITEM('',(#733),#740);
#733=PRESENTATION_STYLE_ASSIGNMENT((#734));
#734=SURFACE_STYLE_USAGE(.BOTH.,#735);
#735=SURFACE_SIDE_STYLE('',(#736));
#736=SURFACE_STYLE_FILL_AREA(#737);
#737=FILL_AREA_STYLE('',(#738));
#738=FILL_AREA_STYLE_COLOUR('',#739);
#739=COLOUR_RGB('',0.796078431372549,0.823529411764706,0.937254901960784);
#740=MANIFOLD_SOLID_BREP('Base Bone 1_V02',#731);
#741=SHAPE_DEFINITION_REPRESENTATION(#1370,#742);
#742=SHAPE_REPRESENTATION('Base Bone 1_V02',(#743),#1365);
#743=AXIS2_PLACEMENT_3D('',#1030,#824,#825);
#744=AXIS2_PLACEMENT_3D('',#1031,#826,#827);
#745=AXIS2_PLACEMENT_3D('',#1041,#829,#830);
#746=AXIS2_PLACEMENT_3D('',#1053,#833,#834);
#747=AXIS2_PLACEMENT_3D('',#1083,#836,#837);
#748=AXIS2_PLACEMENT_3D('',#1101,#839,#840);
#749=AXIS2_PLACEMENT_3D('',#1113,#843,#844);
#750=AXIS2_PLACEMENT_3D('',#1128,#846,#847);
#751=AXIS2_PLACEMENT_3D('',#1142,#848,#849);
#752=AXIS2_PLACEMENT_3D('',#1146,#851,#852);
#753=AXIS2_PLACEMENT_3D('',#1160,#853,#854);
#754=AXIS2_PLACEMENT_3D('',#1164,#856,#857);
#755=AXIS2_PLACEMENT_3D('',#1189,#858,#859);
#756=AXIS2_PLACEMENT_3D('',#1207,#863,#864);
#757=AXIS2_PLACEMENT_3D('',#1208,#865,#866);
#758=AXIS2_PLACEMENT_3D('',#1218,#868,#869);
#759=AXIS2_PLACEMENT_3D('',#1228,#871,#872);
#760=AXIS2_PLACEMENT_3D('',#1239,#875,#876);
#761=AXIS2_PLACEMENT_3D('',#1243,#878,#879);
#762=AXIS2_PLACEMENT_3D('',#1244,#880,#881);
#763=AXIS2_PLACEMENT_3D('',#1245,#882,#883);
#764=AXIS2_PLACEMENT_3D('',#1252,#888,#889);
#765=AXIS2_PLACEMENT_3D('',#1254,#891,#892);
#766=AXIS2_PLACEMENT_3D('',#1257,#894,#895);
#767=AXIS2_PLACEMENT_3D('',#1264,#899,#900);
#768=AXIS2_PLACEMENT_3D('',#1265,#901,#902);
#769=AXIS2_PLACEMENT_3D('',#1269,#904,#905);
#770=AXIS2_PLACEMENT_3D('',#1271,#907,#908);
#771=AXIS2_PLACEMENT_3D('',#1280,#910,#911);
#772=AXIS2_PLACEMENT_3D('',#1281,#912,#913);
#773=AXIS2_PLACEMENT_3D('',#1282,#914,#915);
#774=AXIS2_PLACEMENT_3D('',#1283,#916,#917);
#775=AXIS2_PLACEMENT_3D('',#1286,#919,#920);
#776=AXIS2_PLACEMENT_3D('',#1288,#922,#923);
#777=AXIS2_PLACEMENT_3D('',#1290,#925,#926);
#778=AXIS2_PLACEMENT_3D('',#1291,#927,#928);
#779=AXIS2_PLACEMENT_3D('',#1295,#931,#932);
#780=AXIS2_PLACEMENT_3D('',#1296,#933,#934);
#781=AXIS2_PLACEMENT_3D('',#1299,#936,#937);
#782=AXIS2_PLACEMENT_3D('',#1302,#939,#940);
#783=AXIS2_PLACEMENT_3D('',#1304,#942,#943);
#784=AXIS2_PLACEMENT_3D('',#1305,#944,#945);
#785=AXIS2_PLACEMENT_3D('',#1306,#946,#947);
#786=AXIS2_PLACEMENT_3D('',#1307,#948,#949);
#787=AXIS2_PLACEMENT_3D('',#1308,#950,#951);
#788=AXIS2_PLACEMENT_3D('',#1313,#953,#954);
#789=AXIS2_PLACEMENT_3D('',#1316,#956,#957);
#790=AXIS2_PLACEMENT_3D('',#1319,#960,#961);
#791=AXIS2_PLACEMENT_3D('',#1322,#964,#965);
#792=AXIS2_PLACEMENT_3D('',#1323,#966,#967);
#793=AXIS2_PLACEMENT_3D('',#1324,#968,#969);
#794=AXIS2_PLACEMENT_3D('',#1325,#970,#971);
#795=AXIS2_PLACEMENT_3D('',#1326,#972,#973);
#796=AXIS2_PLACEMENT_3D('',#1327,#974,#975);
#797=AXIS2_PLACEMENT_3D('',#1329,#976,#977);
#798=AXIS2_PLACEMENT_3D('',#1330,#978,#979);
#799=AXIS2_PLACEMENT_3D('',#1331,#980,#981);
#800=AXIS2_PLACEMENT_3D('',#1333,#982,#983);
#801=AXIS2_PLACEMENT_3D('',#1334,#984,#985);
#802=AXIS2_PLACEMENT_3D('',#1335,#986,#987);
#803=AXIS2_PLACEMENT_3D('',#1336,#988,#989);
#804=AXIS2_PLACEMENT_3D('',#1337,#990,#991);
#805=AXIS2_PLACEMENT_3D('',#1338,#992,#993);
#806=AXIS2_PLACEMENT_3D('',#1340,#994,#995);
#807=AXIS2_PLACEMENT_3D('',#1342,#996,#997);
#808=AXIS2_PLACEMENT_3D('',#1343,#998,#999);
#809=AXIS2_PLACEMENT_3D('',#1344,#1000,#1001);
#810=AXIS2_PLACEMENT_3D('',#1346,#1002,#1003);
#811=AXIS2_PLACEMENT_3D('',#1347,#1004,#1005);
#812=AXIS2_PLACEMENT_3D('',#1348,#1006,#1007);
#813=AXIS2_PLACEMENT_3D('',#1349,#1008,#1009);
#814=AXIS2_PLACEMENT_3D('',#1350,#1010,#1011);
#815=AXIS2_PLACEMENT_3D('',#1352,#1012,#1013);
#816=AXIS2_PLACEMENT_3D('',#1353,#1014,#1015);
#817=AXIS2_PLACEMENT_3D('',#1354,#1016,#1017);
#818=AXIS2_PLACEMENT_3D('',#1355,#1018,#1019);
#819=AXIS2_PLACEMENT_3D('',#1357,#1020,#1021);
#820=AXIS2_PLACEMENT_3D('',#1358,#1022,#1023);
#821=AXIS2_PLACEMENT_3D('',#1360,#1024,#1025);
#822=AXIS2_PLACEMENT_3D('',#1361,#1026,#1027);
#823=AXIS2_PLACEMENT_3D('',#1363,#1028,#1029);
#824=DIRECTION('',(0.,0.,1.));
#825=DIRECTION('',(1.,0.,0.));
#826=DIRECTION('',(-1.,0.,0.));
#827=DIRECTION('',(0.,-1.,0.));
#828=DIRECTION('',(-1.,0.,0.));
#829=DIRECTION('',(0.707106781186547,0.,0.707106781186548));
#830=DIRECTION('',(-0.707106781186548,0.,0.707106781186547));
#831=DIRECTION('',(-1.,0.,0.));
#832=DIRECTION('',(-1.,0.,0.));
#833=DIRECTION('',(1.,0.,0.));
#834=DIRECTION('',(0.,1.,0.));
#835=DIRECTION('',(-1.,0.,0.));
#836=DIRECTION('',(-1.,0.,0.));
#837=DIRECTION('',(0.,-1.,0.));
#838=DIRECTION('',(-1.,0.,0.));
#839=DIRECTION('',(1.,0.,0.));
#840=DIRECTION('',(0.,1.,0.));
#841=DIRECTION('',(-1.,0.,0.));
#842=DIRECTION('',(-1.,0.,0.));
#843=DIRECTION('',(0.707106781186547,0.,0.707106781186548));
#844=DIRECTION('',(-0.707106781186548,0.,0.707106781186547));
#845=DIRECTION('',(-1.,0.,0.));
#846=DIRECTION('',(0.,-1.,0.));
#847=DIRECTION('',(1.,0.,0.));
#848=DIRECTION('',(0.,-1.,0.));
#849=DIRECTION('',(1.,0.,0.));
#850=DIRECTION('',(0.,-1.,0.));
#851=DIRECTION('',(0.,-1.,0.));
#852=DIRECTION('',(1.,0.,0.));
#853=DIRECTION('',(0.,-1.,0.));
#854=DIRECTION('',(1.,0.,0.));
#855=DIRECTION('',(0.,-1.,0.));
#856=DIRECTION('',(0.,-1.,0.));
#857=DIRECTION('',(1.,0.,0.));
#858=DIRECTION('',(-1.,0.,-1.22876246215024E-16));
#859=DIRECTION('',(1.22876246215024E-16,0.,-1.));
#860=DIRECTION('',(1.22876246215024E-16,0.,-1.));
#861=DIRECTION('',(1.22876246215024E-16,0.,-1.));
#862=DIRECTION('',(0.,-1.,0.));
#863=DIRECTION('',(0.,0.,1.));
#864=DIRECTION('',(0.,-1.,0.));
#865=DIRECTION('',(0.,0.,-1.));
#866=DIRECTION('',(0.,1.,0.));
#867=DIRECTION('',(0.,0.,1.));
#868=DIRECTION('',(0.,0.,1.));
#869=DIRECTION('',(0.,-1.,0.));
#870=DIRECTION('',(0.,0.,1.));
#871=DIRECTION('',(-1.,0.,0.));
#872=DIRECTION('',(0.,-1.,0.));
#873=DIRECTION('',(-1.,0.,0.));
#874=DIRECTION('',(-1.,0.,0.));
#875=DIRECTION('',(1.,0.,0.));
#876=DIRECTION('',(0.,1.,0.));
#877=DIRECTION('',(-1.,0.,0.));
#878=DIRECTION('',(1.,0.,0.));
#879=DIRECTION('',(0.,1.,0.));
#880=DIRECTION('',(0.,0.,1.));
#881=DIRECTION('',(0.,-1.,0.));
#882=DIRECTION('',(0.,0.,1.));
#883=DIRECTION('',(0.,-1.,0.));
#884=DIRECTION('',(0.,-1.,0.));
#885=DIRECTION('',(1.,0.,0.));
#886=DIRECTION('',(1.,0.,0.));
#887=DIRECTION('',(0.,-1.,0.));
#888=DIRECTION('',(0.,-1.,0.));
#889=DIRECTION('',(1.,0.,0.));
#890=DIRECTION('',(0.,0.,1.));
#891=DIRECTION('',(0.,1.,0.));
#892=DIRECTION('',(-1.,0.,0.));
#893=DIRECTION('',(0.,0.,-1.));
#894=DIRECTION('',(0.,1.,0.));
#895=DIRECTION('',(-1.,0.,0.));
#896=DIRECTION('',(0.,0.,1.));
#897=DIRECTION('',(-1.,0.,0.));
#898=DIRECTION('',(0.,0.,-1.));
#899=DIRECTION('',(0.,1.,0.));
#900=DIRECTION('',(-1.,0.,0.));
#901=DIRECTION('',(0.,0.,-1.));
#902=DIRECTION('',(0.,1.,0.));
#903=DIRECTION('',(-1.,0.,0.));
#904=DIRECTION('',(0.,0.,-1.));
#905=DIRECTION('',(0.,1.,0.));
#906=DIRECTION('',(0.,1.,0.));
#907=DIRECTION('',(-1.,0.,0.));
#908=DIRECTION('',(0.,-1.,0.));
#909=DIRECTION('',(-1.,0.,0.));
#910=DIRECTION('',(1.,0.,0.));
#911=DIRECTION('',(0.,1.,0.));
#912=DIRECTION('',(1.,0.,0.));
#913=DIRECTION('',(0.,1.,0.));
#914=DIRECTION('',(0.,1.,0.));
#915=DIRECTION('',(-1.,0.,0.));
#916=DIRECTION('',(0.,1.,0.));
#917=DIRECTION('',(-1.,0.,0.));
#918=DIRECTION('',(0.,1.,0.));
#919=DIRECTION('',(-1.,0.,0.));
#920=DIRECTION('',(0.,-1.,0.));
#921=DIRECTION('',(-1.,0.,0.));
#922=DIRECTION('',(-1.,0.,0.));
#923=DIRECTION('',(0.,-1.,0.));
#924=DIRECTION('',(-1.,0.,0.));
#925=DIRECTION('',(0.,1.,0.));
#926=DIRECTION('',(-1.,0.,0.));
#927=DIRECTION('',(0.,1.,0.));
#928=DIRECTION('',(-1.,0.,0.));
#929=DIRECTION('',(1.,0.,0.));
#930=DIRECTION('',(-0.707106781186548,0.,0.707106781186547));
#931=DIRECTION('',(0.,-1.,0.));
#932=DIRECTION('',(-1.,0.,0.));
#933=DIRECTION('',(0.,-1.,0.));
#934=DIRECTION('',(1.,0.,0.));
#935=DIRECTION('',(-0.707106781186548,0.,0.707106781186547));
#936=DIRECTION('',(0.,1.,0.));
#937=DIRECTION('',(-1.,0.,0.));
#938=DIRECTION('',(1.,0.,0.));
#939=DIRECTION('',(0.,-1.,0.));
#940=DIRECTION('',(1.,0.,0.));
#941=DIRECTION('',(0.,1.,0.));
#942=DIRECTION('',(0.,1.,0.));
#943=DIRECTION('',(-1.,0.,0.));
#944=DIRECTION('',(0.707106781186547,0.,0.707106781186548));
#945=DIRECTION('',(-0.707106781186548,0.,0.707106781186547));
#946=DIRECTION('',(0.707106781186547,0.,0.707106781186548));
#947=DIRECTION('',(-0.707106781186548,0.,0.707106781186547));
#948=DIRECTION('',(0.,-1.,0.));
#949=DIRECTION('',(1.,0.,0.));
#950=DIRECTION('',(0.,-1.,0.));
#951=DIRECTION('',(1.,0.,0.));
#952=DIRECTION('',(0.,-1.,0.));
#953=DIRECTION('',(0.,-1.,0.));
#954=DIRECTION('',(1.,0.,0.));
#955=DIRECTION('',(0.,-1.,0.));
#956=DIRECTION('',(0.,-1.,0.));
#957=DIRECTION('',(1.,0.,0.));
#958=DIRECTION('',(1.,0.,0.));
#959=DIRECTION('',(0.,0.,1.));
#960=DIRECTION('',(0.,-1.,0.));
#961=DIRECTION('',(1.,0.,0.));
#962=DIRECTION('',(0.,0.,1.));
#963=DIRECTION('',(1.,0.,0.));
#964=DIRECTION('',(0.,0.,-1.));
#965=DIRECTION('',(0.,1.,0.));
#966=DIRECTION('',(1.,0.,0.));
#967=DIRECTION('',(0.,1.,0.));
#968=DIRECTION('',(1.,0.,0.));
#969=DIRECTION('',(0.,1.,0.));
#970=DIRECTION('',(1.,0.,0.));
#971=DIRECTION('',(0.,1.,0.));
#972=DIRECTION('',(0.,0.,1.));
#973=DIRECTION('',(0.,-1.,0.));
#974=DIRECTION('',(0.,0.,1.));
#975=DIRECTION('',(0.,-1.,0.));
#976=DIRECTION('',(0.,0.,-1.));
#977=DIRECTION('',(0.,1.,0.));
#978=DIRECTION('',(0.,0.,-1.));
#979=DIRECTION('',(0.,-1.,0.));
#980=DIRECTION('',(0.,0.,-1.));
#981=DIRECTION('',(0.,1.,0.));
#982=DIRECTION('',(0.,0.,-1.));
#983=DIRECTION('',(0.,1.,0.));
#984=DIRECTION('',(0.,0.,1.));
#985=DIRECTION('',(0.,-1.,0.));
#986=DIRECTION('',(0.,0.,1.));
#987=DIRECTION('',(0.,-1.,0.));
#988=DIRECTION('',(0.,0.,-1.));
#989=DIRECTION('',(0.,1.,0.));
#990=DIRECTION('',(-0.707106781186541,-0.707106781186554,-4.19697298376135E-14));
#991=DIRECTION('',(0.707106781186554,-0.707106781186541,3.90233532084108E-14));
#992=DIRECTION('',(0.707106781186541,0.707106781186554,4.19697298376135E-14));
#993=DIRECTION('',(-0.707106781186554,0.707106781186541,-3.90233532084108E-14));
#994=DIRECTION('',(0.707106781186542,0.707106781186553,4.06325471582148E-14));
#995=DIRECTION('',(-0.707106781186553,0.707106781186542,-3.90511087840263E-14));
#996=DIRECTION('',(5.7270758251049E-14,2.08340289443935E-15,-1.));
#997=DIRECTION('',(1.61662484851469E-16,-1.,-2.08340289443934E-15));
#998=DIRECTION('',(0.230304153903355,-0.230304153903406,0.945473422889134));
#999=DIRECTION('',(0.97159105737111,6.50140549437708E-16,-0.236666045803973));
#1000=DIRECTION('',(0.97159105737111,6.50140549437706E-16,-0.236666045803973));
#1001=DIRECTION('',(-0.0234766991282414,0.995067756499343,-0.0963794821183764));
#1002=DIRECTION('',(-0.97159105737111,-6.50140549437706E-16,0.236666045803973));
#1003=DIRECTION('',(0.236666045803973,-1.98595560009368E-15,0.97159105737111));
#1004=DIRECTION('',(0.97159105737111,6.50140549437706E-16,-0.236666045803973));
#1005=DIRECTION('',(-0.0234766991282414,0.995067756499343,-0.0963794821183764));
#1006=DIRECTION('',(1.61662484851469E-16,-1.,-2.08340289443934E-15));
#1007=DIRECTION('',(1.,1.61662484851469E-16,5.72707582510489E-14));
#1008=DIRECTION('',(0.0356029581271572,2.08783770826119E-15,-0.999366013716994));
#1009=DIRECTION('',(-0.999366013716995,-8.7384687040994E-17,-0.0356029581271572));
#1010=DIRECTION('',(-0.0356029581271571,-2.16007202847321E-15,0.999366013716995));
#1011=DIRECTION('',(-1.61662484851473E-16,1.,2.15756232303735E-15));
#1012=DIRECTION('',(5.7270758251049E-14,2.08340289443935E-15,-1.));
#1013=DIRECTION('',(1.61662484851469E-16,-1.,-2.08340289443934E-15));
#1014=DIRECTION('',(-0.683112826557681,0.730312855009671,-3.76008536320023E-14));
#1015=DIRECTION('',(0.730312855009671,0.683112826557681,4.3484692599704E-14));
#1016=DIRECTION('',(0.683112826557684,-0.730312855009667,3.78922950082096E-14));
#1017=DIRECTION('',(0.730312855009667,0.683112826557684,4.32487702069709E-14));
#1018=DIRECTION('',(-0.683112826557684,0.730312855009667,-3.78922950082096E-14));
#1019=DIRECTION('',(0.730312855009667,0.683112826557684,4.3470814811896E-14));
#1020=DIRECTION('',(-5.7270758251049E-14,-1.64972202544515E-15,1.));
#1021=DIRECTION('',(-1.61662484851444E-16,1.,1.64972202544514E-15));
#1022=DIRECTION('',(-1.,3.30778446710215E-15,-5.72707582510489E-14));
#1023=DIRECTION('',(3.30995287144711E-15,1.,2.16666962128643E-15));
#1024=DIRECTION('',(1.,1.61662484851469E-16,5.74625663955506E-14));
#1025=DIRECTION('',(5.74625663955506E-14,2.08340289443935E-15,-1.));
#1026=DIRECTION('',(-1.,-1.61662484851469E-16,-5.74625663955506E-14));
#1027=DIRECTION('',(-1.59494080506503E-16,1.,2.16666962128623E-15));
#1028=DIRECTION('',(-1.61662484851473E-16,1.,2.15568303927171E-15));
#1029=DIRECTION('',(5.7270758251049E-14,2.15568303927172E-15,-1.));
#1030=CARTESIAN_POINT('',(0.,0.,0.));
#1031=CARTESIAN_POINT('',(0.0317,0.0015,-0.0015));
#1032=CARTESIAN_POINT('',(0.0172282495674799,0.0015,-0.0075));
#1033=CARTESIAN_POINT('',(0.0174347405387612,0.00266469570908456,-0.0075));
#1034=CARTESIAN_POINT('',(0.0183241961435027,0.00481251177491763,-0.00681249920323865));
#1035=CARTESIAN_POINT('',(0.0196381839510218,0.00619135230501322,-0.00537433945151173));
#1036=CARTESIAN_POINT('',(0.020244317838175,0.00669615242270663,-0.0045));
#1037=CARTESIAN_POINT('',(0.0172282495674799,0.0015,-0.0075));
#1038=CARTESIAN_POINT('',(0.020244317838175,0.00669615242270663,-0.0045));
#1039=CARTESIAN_POINT('',(0.0317,0.0015,-0.0075));
#1040=CARTESIAN_POINT('',(0.0075,0.0015,-0.0075));
#1041=CARTESIAN_POINT('',(0.0015,0.0015,-0.0015));
#1042=CARTESIAN_POINT('',(0.00657543101617981,0.0047,-0.00657543101617981));
#1043=CARTESIAN_POINT('',(0.0317,0.0047,-0.00657543101617981));
#1044=CARTESIAN_POINT('',(0.0120567210745733,0.0047,-0.00657543101617981));
#1045=CARTESIAN_POINT('',(0.0153581168227509,0.0075,-0.0015));
#1046=CARTESIAN_POINT('',(0.0151380127585696,0.0075,-0.00265306896633251));
#1047=CARTESIAN_POINT('',(0.0141871155737046,0.00682585546470084,-0.0047609821708644));
#1048=CARTESIAN_POINT('',(0.0127683856847472,0.00548221572110482,-0.00608225313639859));
#1049=CARTESIAN_POINT('',(0.0120567210745733,0.0047,-0.00657543101617982));
#1050=CARTESIAN_POINT('',(0.0153581168227509,0.0075,-0.0015));
#1051=CARTESIAN_POINT('',(0.0317,0.0075,-0.0015));
#1052=CARTESIAN_POINT('',(0.0242,0.0075,-0.0015));
#1053=CARTESIAN_POINT('',(0.0242,0.0015,-0.0015));
#1054=CARTESIAN_POINT('',(0.0242,0.0074,-0.00259087121146357));
#1055=CARTESIAN_POINT('',(0.0273498480490144,0.00669615242270664,-0.00449999999999998));
#1056=CARTESIAN_POINT('',(0.0268883851190596,0.00691322306534642,-0.00412402261811626));
#1057=CARTESIAN_POINT('',(0.0261788033586914,0.00716264694557261,-0.00354951096108377));
#1058=CARTESIAN_POINT('',(0.0251365112692918,0.00735683995793436,-0.00283303654898116));
#1059=CARTESIAN_POINT('',(0.024524727055886,0.0074,-0.0025908712114637));
#1060=CARTESIAN_POINT('',(0.0242,0.0074,-0.0025908712114637));
#1061=CARTESIAN_POINT('',(0.0273498480490144,0.00669615242270663,-0.0045));
#1062=CARTESIAN_POINT('',(0.0317,0.00669615242270663,-0.0045));
#1063=CARTESIAN_POINT('',(0.0104268062828024,0.003686503808921,-0.00708741452673579));
#1064=CARTESIAN_POINT('',(0.010676744092908,0.00386689012825219,-0.00701682456559946));
#1065=CARTESIAN_POINT('',(0.0112641132942794,0.00409680283535089,-0.00690965762084609));
#1066=CARTESIAN_POINT('',(0.0122177953689087,0.00414477141402569,-0.0068854686155783));
#1067=CARTESIAN_POINT('',(0.0129699697525391,0.0038501640064278,-0.00702793975976359));
#1068=CARTESIAN_POINT('',(0.0133679649836525,0.00337675058546988,-0.00720472464620356));
#1069=CARTESIAN_POINT('',(0.0134678103769975,0.00291173789095768,-0.00733856103444494));
#1070=CARTESIAN_POINT('',(0.0132802156758753,0.00246217114351576,-0.00742659901844452));
#1071=CARTESIAN_POINT('',(0.0127458945246843,0.00208299908765841,-0.00747368025057078));
#1072=CARTESIAN_POINT('',(0.0119128435516375,0.00208682100683712,-0.00747217139222108));
#1073=CARTESIAN_POINT('',(0.0110792515183439,0.00254176887953075,-0.00741761852725424));
#1074=CARTESIAN_POINT('',(0.0105966373566644,0.00293997688538361,-0.00732931695557442));
#1075=CARTESIAN_POINT('',(0.0103836505475636,0.00316420688899235,-0.00726458284966314));
#1076=CARTESIAN_POINT('',(0.0104268062828081,0.00368650380891271,-0.00708741452674158));
#1077=CARTESIAN_POINT('',(0.0103836505475737,0.00316420688900431,-0.00726458284966493));
#1078=CARTESIAN_POINT('',(0.0103836505475737,0.00316420688900431,-0.00726458284966493));
#1079=CARTESIAN_POINT('',(0.0103109909953304,0.00324070200967213,-0.0072424990822683));
#1080=CARTESIAN_POINT('',(0.0101919923944324,0.00344397261284896,-0.0071795144680227));
#1081=CARTESIAN_POINT('',(0.0103415255068265,0.00362495455679624,-0.00711150038497315));
#1082=CARTESIAN_POINT('',(0.0104268062827961,0.00368650380891271,-0.00708741452673866));
#1083=CARTESIAN_POINT('',(0.0317,-0.0015,-0.0015));
#1084=CARTESIAN_POINT('',(0.0201789700339631,-0.00669615242270663,-0.0045));
#1085=CARTESIAN_POINT('',(0.0198807461819996,-0.00644281631050332,-0.00493879101772811));
#1086=CARTESIAN_POINT('',(0.0192656724805739,-0.00585152233237999,-0.00571722716587404));
#1087=CARTESIAN_POINT('',(0.0180723248550172,-0.00427620017961038,-0.00699225085365055));
#1088=CARTESIAN_POINT('',(0.0174174411512683,-0.00266420354609025,-0.0075));
#1089=CARTESIAN_POINT('',(0.0172186853366162,-0.0015,-0.0075));
#1090=CARTESIAN_POINT('',(0.0201789700339631,-0.00669615242270663,-0.0045));
#1091=CARTESIAN_POINT('',(0.0172186853366162,-0.0015,-0.0075));
#1092=CARTESIAN_POINT('',(0.0317,-0.00669615242270663,-0.0045));
#1093=CARTESIAN_POINT('',(0.0273498480490144,-0.00669615242270663,-0.0045));
#1094=CARTESIAN_POINT('',(0.0242,-0.0074,-0.00259087121146357));
#1095=CARTESIAN_POINT('',(0.0245255387483032,-0.0074,-0.00259087121146357));
#1096=CARTESIAN_POINT('',(0.025132608251421,-0.00735698522775079,-0.00283163065466434));
#1097=CARTESIAN_POINT('',(0.0261700637068602,-0.00716522863449835,-0.00354233884804191));
#1098=CARTESIAN_POINT('',(0.0268892739645501,-0.00691280495535467,-0.00412474680586512));
#1099=CARTESIAN_POINT('',(0.0273498480490144,-0.00669615242270665,-0.00449999999999998));
#1100=CARTESIAN_POINT('',(0.0242,-0.0074,-0.00259087121146357));
#1101=CARTESIAN_POINT('',(0.0242,-0.0015,-0.0015));
#1102=CARTESIAN_POINT('',(0.0242,-0.0075,-0.0015));
#1103=CARTESIAN_POINT('',(0.0317,-0.0075,-0.0015));
#1104=CARTESIAN_POINT('',(0.0153581168227509,-0.0075,-0.0015));
#1105=CARTESIAN_POINT('',(0.0153581168227509,-0.0075,-0.0015));
#1106=CARTESIAN_POINT('',(0.0151380127585696,-0.0075,-0.00265306896633251));
#1107=CARTESIAN_POINT('',(0.0141871155737046,-0.00682585546470084,-0.00476098217086439));
#1108=CARTESIAN_POINT('',(0.0127683856847472,-0.00548221572110482,-0.00608225313639859));
#1109=CARTESIAN_POINT('',(0.0120567210745733,-0.0047,-0.00657543101617982));
#1110=CARTESIAN_POINT('',(0.0120567210745733,-0.0047,-0.00657543101617981));
#1111=CARTESIAN_POINT('',(0.0317,-0.0047,-0.00657543101617981));
#1112=CARTESIAN_POINT('',(0.00657543101617981,-0.0047,-0.00657543101617981));
#1113=CARTESIAN_POINT('',(0.0015,-0.0015,-0.0015));
#1114=CARTESIAN_POINT('',(0.0075,-0.0015,-0.0075));
#1115=CARTESIAN_POINT('',(0.0317,-0.0015,-0.0075));
#1116=CARTESIAN_POINT('',(0.0116997475022842,-0.0042551097217584,-0.00684337859558025));
#1117=CARTESIAN_POINT('',(0.0114191037471774,-0.00350560938474609,-0.00717835404532071));
#1118=CARTESIAN_POINT('',(0.0117329543389711,-0.00271995916084907,-0.00738521223014612));
#1119=CARTESIAN_POINT('',(0.0125472538784367,-0.00238197354366574,-0.00743285519852512));
#1120=CARTESIAN_POINT('',(0.0133533823729047,-0.00275060676431058,-0.00738010593063258));
#1121=CARTESIAN_POINT('',(0.0136173599809876,-0.0035563183661009,-0.00716003738895699));
#1122=CARTESIAN_POINT('',(0.0132851650355159,-0.00427784857663087,-0.006830093557014));
#1123=CARTESIAN_POINT('',(0.0124907594479397,-0.00461604494876817,-0.00662627363275612));
#1124=CARTESIAN_POINT('',(0.0116997475022842,-0.0042551097217584,-0.00684337859558025));
#1125=CARTESIAN_POINT('',(0.0114191037471774,-0.00350560938474609,-0.00717835404532071));
#1126=CARTESIAN_POINT('',(0.0117329543389711,-0.00271995916084907,-0.00738521223014612));
#1127=CARTESIAN_POINT('',(0.0115181861383275,-0.00349958440359864,-0.00715700116783487));
#1128=CARTESIAN_POINT('',(0.0075,0.0047,-9.18485099360515E-19));
#1129=CARTESIAN_POINT('',(0.0108946585912961,0.0047,0.0065754310161798));
#1130=CARTESIAN_POINT('',(0.0106445570764021,0.00449520886627549,0.00670454943505483));
#1131=CARTESIAN_POINT('',(0.0101376421882967,0.00408140561035496,0.00693072057695467));
#1132=CARTESIAN_POINT('',(0.00934445432097424,0.00346396795917807,0.00718191828085638));
#1133=CARTESIAN_POINT('',(0.00851394861145836,0.00287106216991928,0.00734988640152891));
#1134=CARTESIAN_POINT('',(0.00749699710535218,0.00245039311679339,0.00742515483252623));
#1135=CARTESIAN_POINT('',(0.00648498089185399,0.00287260305530708,0.00734949234110606));
#1136=CARTESIAN_POINT('',(0.00565662373681188,0.00346295106856053,0.00718225936413664));
#1137=CARTESIAN_POINT('',(0.00486080226192036,0.00408268693756079,0.00693018268852624));
#1138=CARTESIAN_POINT('',(0.00435485009597143,0.00449569429253037,0.00670424337946849));
#1139=CARTESIAN_POINT('',(0.00410534140870387,0.0047,0.00657543101617981));
#1140=CARTESIAN_POINT('',(0.0108946585912961,0.0047,0.0065754310161798));
#1141=CARTESIAN_POINT('',(0.00410534140870387,0.0047,0.0065754310161798));
#1142=CARTESIAN_POINT('',(0.0075,0.0047,-9.18485099360515E-19));
#1143=CARTESIAN_POINT('',(0.0001,0.0047,-1.01798765179123E-19));
#1144=CARTESIAN_POINT('',(0.0001,0.0047,-1.01798765179123E-19));
#1145=CARTESIAN_POINT('',(0.0001,-0.0047,-1.01798765179123E-19));
#1146=CARTESIAN_POINT('',(0.0075,-0.0047,-9.18485099360515E-19));
#1147=CARTESIAN_POINT('',(0.00410534140870388,-0.0047,0.00657543101617981));
#1148=CARTESIAN_POINT('',(0.00410534140870388,-0.0047,0.00657543101617981));
#1149=CARTESIAN_POINT('',(0.00435544292359784,-0.00449520886627549,0.00670454943505484));
#1150=CARTESIAN_POINT('',(0.0048623578117033,-0.00408140561035497,0.00693072057695465));
#1151=CARTESIAN_POINT('',(0.00565554567902574,-0.00346396795917808,0.00718191828085638));
#1152=CARTESIAN_POINT('',(0.00648605138854163,-0.00287106216991928,0.00734988640152891));
#1153=CARTESIAN_POINT('',(0.0075030028946478,-0.00245039311679339,0.00742515483252623));
#1154=CARTESIAN_POINT('',(0.00851501910814599,-0.00287260305530707,0.00734949234110607));
#1155=CARTESIAN_POINT('',(0.00934337626318811,-0.00346295106856053,0.00718225936413665));
#1156=CARTESIAN_POINT('',(0.0101391977380796,-0.00408268693756076,0.00693018268852625));
#1157=CARTESIAN_POINT('',(0.0106451499040285,-0.00449569429253038,0.00670424337946849));
#1158=CARTESIAN_POINT('',(0.0108946585912961,-0.0047,0.00657543101617981));
#1159=CARTESIAN_POINT('',(0.0108946585912961,-0.0047,0.00657543101617981));
#1160=CARTESIAN_POINT('',(0.0075,-0.0047,-9.18485099360515E-19));
#1161=CARTESIAN_POINT('',(0.0149,-0.0047,0.));
#1162=CARTESIAN_POINT('',(0.0149,0.0047,0.));
#1163=CARTESIAN_POINT('',(0.0149,0.0047,0.));
#1164=CARTESIAN_POINT('',(0.0075,0.0047,-9.18485099360515E-19));
#1165=CARTESIAN_POINT('',(0.00190695873607559,-1.82393982488449E-5,0.00484539878854557));
#1166=CARTESIAN_POINT('',(0.00205153376674062,-0.000212933744513031,0.00501228167012679));
#1167=CARTESIAN_POINT('',(0.00230667361161356,-0.000665118163863897,0.00527874244778832));
#1168=CARTESIAN_POINT('',(0.00256429746291396,-0.00130722772553778,0.0055153818786777));
#1169=CARTESIAN_POINT('',(0.00271135320296324,-0.00186094442921816,0.00564213217091312));
#1170=CARTESIAN_POINT('',(0.00277201101427277,-0.00228825410289387,0.00569245426639669));
#1171=CARTESIAN_POINT('',(0.00275453503997292,-0.00274578997091444,0.00567883005069986));
#1172=CARTESIAN_POINT('',(0.00250204434325758,-0.00309505695148989,0.00546289074113354));
#1173=CARTESIAN_POINT('',(0.00216427897408061,-0.00307699734302133,0.00513417728604926));
#1174=CARTESIAN_POINT('',(0.00188947749414909,-0.00291303978404192,0.00483010088080598));
#1175=CARTESIAN_POINT('',(0.00165884625404652,-0.00266596304978001,0.00454757783614424));
#1176=CARTESIAN_POINT('',(0.00140579100100062,-0.002256776136529,0.00420598514331578));
#1177=CARTESIAN_POINT('',(0.00118687943777124,-0.00163803306165273,0.00386634587148068));
#1178=CARTESIAN_POINT('',(0.00110214408143399,-0.001079664788523,0.00371864831474319));
#1179=CARTESIAN_POINT('',(0.00108712734678902,-0.000785085187412574,0.00369256879877665));
#1180=CARTESIAN_POINT('',(0.00190695873607559,-1.82393982488458E-5,0.00484539878854559));
#1181=CARTESIAN_POINT('',(0.00108712734678903,-0.000785085187412574,0.00369256879877665));
#1182=CARTESIAN_POINT('',(0.00108712734678902,-0.000785085187412574,0.00369256879877665));
#1183=CARTESIAN_POINT('',(0.00107783384158326,-0.000602776774754451,0.00367642879742954));
#1184=CARTESIAN_POINT('',(0.00107624603507605,-0.000220260963643424,0.00367406319942524));
#1185=CARTESIAN_POINT('',(0.00125520617902079,0.000277189535173491,0.00398188923855717));
#1186=CARTESIAN_POINT('',(0.00160515222037598,0.000310013775179847,0.00448646463395265));
#1187=CARTESIAN_POINT('',(0.00181407274385324,0.000106847053053596,0.00473818053675414));
#1188=CARTESIAN_POINT('',(0.0019069587360756,-1.82393982488586E-5,0.00484539878854557));
#1189=CARTESIAN_POINT('',(0.0001,0.0047,1.22876246215023E-20));
#1190=CARTESIAN_POINT('',(0.0001,-0.0047,1.22876246215023E-20));
#1191=CARTESIAN_POINT('',(0.0001,-0.0047,-0.0075));
#1192=CARTESIAN_POINT('',(0.0001,0.0047,1.22876246215023E-20));
#1193=CARTESIAN_POINT('',(0.0001,0.0047,-0.0075));
#1194=CARTESIAN_POINT('',(0.0001,0.0047,-0.0075));
#1195=CARTESIAN_POINT('',(0.000100000000000001,0.000762168424573821,-0.00553781820173002));
#1196=CARTESIAN_POINT('',(9.99999999999996E-5,0.00127976601291393,-0.00483231966364666));
#1197=CARTESIAN_POINT('',(0.000100000000000001,0.00106889337879098,-0.00397775301942225));
#1198=CARTESIAN_POINT('',(0.0001,0.000324513118609079,-0.00354141760776192));
#1199=CARTESIAN_POINT('',(0.0001,-0.000520648337759204,-0.0036985948639862));
#1200=CARTESIAN_POINT('',(0.000100000000000001,-0.00101867005844415,-0.00441555782346389));
#1201=CARTESIAN_POINT('',(0.000100000000000001,-0.000823877489490007,-0.00526980305607003));
#1202=CARTESIAN_POINT('',(0.000100000000000001,-7.59339253699212E-5,-0.0057115287213252));
#1203=CARTESIAN_POINT('',(0.000100000000000001,0.000762168424573821,-0.00553781820173002));
#1204=CARTESIAN_POINT('',(9.99999999999996E-5,0.00127976601291393,-0.00483231966364666));
#1205=CARTESIAN_POINT('',(0.000100000000000001,0.00106889337879098,-0.00397775301942225));
#1206=CARTESIAN_POINT('',(0.0001,0.00115835430917009,-0.00480747497928982));
#1207=CARTESIAN_POINT('',(0.0242,-1.04094977927525E-18,-0.0075));
#1208=CARTESIAN_POINT('',(0.0242,-1.04094977927525E-18,-0.0045));
#1209=CARTESIAN_POINT('',(0.0242,0.0074,-0.0075));
#1210=CARTESIAN_POINT('',(0.0242,0.0074,0.00259087121146357));
#1211=CARTESIAN_POINT('',(0.0242,0.0074,0.00259087121146357));
#1212=CARTESIAN_POINT('',(0.0245255387483032,0.0074,0.00259087121146357));
#1213=CARTESIAN_POINT('',(0.025132608251421,0.00735698522775079,0.00283163065466435));
#1214=CARTESIAN_POINT('',(0.0261700637068602,0.00716522863449834,0.0035423388480419));
#1215=CARTESIAN_POINT('',(0.0268892739645501,0.00691280495535467,0.00412474680586512));
#1216=CARTESIAN_POINT('',(0.0273498480490144,0.00669615242270664,0.00449999999999998));
#1217=CARTESIAN_POINT('',(0.0273498480490144,0.00669615242270663,0.0045));
#1218=CARTESIAN_POINT('',(0.0242,-1.04094977927525E-18,0.0045));
#1219=CARTESIAN_POINT('',(0.0273498480490144,-0.00669615242270663,0.0045));
#1220=CARTESIAN_POINT('',(0.0273498480490144,-0.00669615242270665,0.00449999999999998));
#1221=CARTESIAN_POINT('',(0.0268883851190596,-0.00691322306534642,0.00412402261811626));
#1222=CARTESIAN_POINT('',(0.0261788033586914,-0.00716264694557262,0.00354951096108377));
#1223=CARTESIAN_POINT('',(0.0251365112692918,-0.00735683995793437,0.00283303654898115));
#1224=CARTESIAN_POINT('',(0.024524727055886,-0.0074,0.0025908712114637));
#1225=CARTESIAN_POINT('',(0.0242,-0.0074,0.0025908712114637));
#1226=CARTESIAN_POINT('',(0.0242,-0.0074,0.00259087121146357));
#1227=CARTESIAN_POINT('',(0.0242,-0.0074,-0.0075));
#1228=CARTESIAN_POINT('',(0.0317,0.0015,0.0015));
#1229=CARTESIAN_POINT('',(0.0317,0.0015,0.0075));
#1230=CARTESIAN_POINT('',(0.0172282495674799,0.0015,0.0075));
#1231=CARTESIAN_POINT('',(0.0155,0.0015,0.0075));
#1232=CARTESIAN_POINT('',(0.0172282495674799,0.0015,0.0075));
#1233=CARTESIAN_POINT('',(0.0174347405387612,0.00266469570908456,0.0075));
#1234=CARTESIAN_POINT('',(0.0183241961435027,0.00481251177491763,0.00681249920323865));
#1235=CARTESIAN_POINT('',(0.0196381839510218,0.00619135230501322,0.00537433945151173));
#1236=CARTESIAN_POINT('',(0.020244317838175,0.00669615242270663,0.0045));
#1237=CARTESIAN_POINT('',(0.020244317838175,0.00669615242270663,0.0045));
#1238=CARTESIAN_POINT('',(0.0317,0.00669615242270663,0.0045));
#1239=CARTESIAN_POINT('',(0.0242,0.0015,0.0015));
#1240=CARTESIAN_POINT('',(0.0242,0.0075,0.0015));
#1241=CARTESIAN_POINT('',(0.0317,0.0075,0.0015));
#1242=CARTESIAN_POINT('',(0.0155,0.0075,0.0015));
#1243=CARTESIAN_POINT('',(0.0155,0.0015,0.0015));
#1244=CARTESIAN_POINT('',(0.0317,-0.0015,-0.0075));
#1245=CARTESIAN_POINT('',(0.0258438921422427,-2.74825772933682E-5,-0.0075));
#1246=CARTESIAN_POINT('',(0.0075,0.0047,-0.0075));
#1247=CARTESIAN_POINT('',(0.0075,-0.0047,-0.0075));
#1248=CARTESIAN_POINT('',(9.18485099360515E-19,-0.0047,-0.0075));
#1249=CARTESIAN_POINT('',(9.18485099360515E-19,0.0047,-0.0075));
#1250=CARTESIAN_POINT('',(0.0075,0.0047,-0.0075));
#1251=CARTESIAN_POINT('',(0.0075,0.0047,-0.0075));
#1252=CARTESIAN_POINT('',(0.0317,0.0075,-0.0015));
#1253=CARTESIAN_POINT('',(0.0242,0.0075,-0.0075));
#1254=CARTESIAN_POINT('',(0.0075,0.0075,6.46261440228378E-23));
#1255=CARTESIAN_POINT('',(0.0155,0.0075,0.));
#1256=CARTESIAN_POINT('',(0.0155,0.0075,0.));
#1257=CARTESIAN_POINT('',(0.0317,-0.0075,-0.0015));
#1258=CARTESIAN_POINT('',(0.0242,-0.0075,-0.0075));
#1259=CARTESIAN_POINT('',(0.0242,-0.0075,0.0015));
#1260=CARTESIAN_POINT('',(0.0317,-0.0075,0.0015));
#1261=CARTESIAN_POINT('',(0.0155,-0.0075,0.0015));
#1262=CARTESIAN_POINT('',(0.0155,-0.0075,0.));
#1263=CARTESIAN_POINT('',(0.0155,-0.0075,0.));
#1264=CARTESIAN_POINT('',(0.0075,-0.0075,6.46261440228378E-23));
#1265=CARTESIAN_POINT('',(0.0317,-0.0015,0.0075));
#1266=CARTESIAN_POINT('',(0.0317,-0.0015,0.0075));
#1267=CARTESIAN_POINT('',(0.0172186853366162,-0.0015,0.0075));
#1268=CARTESIAN_POINT('',(0.0155,-0.0015,0.0075));
#1269=CARTESIAN_POINT('',(0.0258438921422427,-2.74825772933682E-5,0.0075));
#1270=CARTESIAN_POINT('',(0.0155,-0.0075,0.0075));
#1271=CARTESIAN_POINT('',(0.0317,-0.0015,0.0015));
#1272=CARTESIAN_POINT('',(0.0317,-0.00669615242270663,0.0045));
#1273=CARTESIAN_POINT('',(0.0201789700339631,-0.00669615242270663,0.0045));
#1274=CARTESIAN_POINT('',(0.0201789700339631,-0.00669615242270663,0.0045));
#1275=CARTESIAN_POINT('',(0.0198807461819996,-0.00644281631050332,0.00493879101772811));
#1276=CARTESIAN_POINT('',(0.0192656724805739,-0.00585152233238,0.00571722716587403));
#1277=CARTESIAN_POINT('',(0.0180723248550172,-0.00427620017961039,0.00699225085365055));
#1278=CARTESIAN_POINT('',(0.0174174411512683,-0.00266420354609025,0.0075));
#1279=CARTESIAN_POINT('',(0.0172186853366162,-0.0015,0.0075));
#1280=CARTESIAN_POINT('',(0.0155,-0.0015,0.0015));
#1281=CARTESIAN_POINT('',(0.0242,-0.0015,0.0015));
#1282=CARTESIAN_POINT('',(0.0075,0.0047,6.46261440228378E-23));
#1283=CARTESIAN_POINT('',(0.0075,0.0047,6.46261440228378E-23));
#1284=CARTESIAN_POINT('',(0.0155,0.0047,0.));
#1285=CARTESIAN_POINT('',(0.0155,-0.0075,0.));
#1286=CARTESIAN_POINT('',(0.0317,0.0015,0.0015));
#1287=CARTESIAN_POINT('',(0.0317,0.0047,0.00657543101617981));
#1288=CARTESIAN_POINT('',(0.0317,-0.0015,0.0015));
#1289=CARTESIAN_POINT('',(0.0317,-0.0047,0.00657543101617981));
#1290=CARTESIAN_POINT('',(0.,0.0047,0.));
#1291=CARTESIAN_POINT('',(0.0075,0.0047,6.46261440228378E-23));
#1292=CARTESIAN_POINT('',(0.0041,0.0047,6.46261440228378E-23));
#1293=CARTESIAN_POINT('',(0.0149,0.0047,0.));
#1294=CARTESIAN_POINT('',(0.0075,0.0047,-0.0075));
#1295=CARTESIAN_POINT('',(0.,-0.0047,0.));
#1296=CARTESIAN_POINT('',(0.0075,-0.0047,6.46261440228378E-23));
#1297=CARTESIAN_POINT('',(0.0109,-0.0047,6.46261440228378E-23));
#1298=CARTESIAN_POINT('',(0.0075,-0.0047,-0.0075));
#1299=CARTESIAN_POINT('',(0.0075,-0.0047,6.46261440228378E-23));
#1300=CARTESIAN_POINT('',(0.0155,-0.0047,0.));
#1301=CARTESIAN_POINT('',(0.0149,-0.0047,0.));
#1302=CARTESIAN_POINT('',(0.0075,-0.0047,6.46261440228378E-23));
#1303=CARTESIAN_POINT('',(0.0155,-0.0075,0.));
#1304=CARTESIAN_POINT('',(0.0075,-0.0053,6.46261440228378E-23));
#1305=CARTESIAN_POINT('',(0.0075,0.0047,-0.0075));
#1306=CARTESIAN_POINT('',(0.0075,0.0047,-0.0075));
#1307=CARTESIAN_POINT('',(0.0075,0.0047,-9.18485099360515E-19));
#1308=CARTESIAN_POINT('',(0.0075,-0.0047,-9.18485099360515E-19));
#1309=CARTESIAN_POINT('',(0.0165,-0.0047,0.));
#1310=CARTESIAN_POINT('',(0.0155,-0.0047,0.00412310562561766));
#1311=CARTESIAN_POINT('',(0.0155,0.0047,0.00412310562561766));
#1312=CARTESIAN_POINT('',(0.0155,0.0047,0.00412310562561766));
#1313=CARTESIAN_POINT('',(0.0075,0.0047,-9.18485099360515E-19));
#1314=CARTESIAN_POINT('',(0.0165,0.0047,0.));
#1315=CARTESIAN_POINT('',(0.0165,0.0047,0.));
#1316=CARTESIAN_POINT('',(0.,-0.0047,0.));
#1317=CARTESIAN_POINT('',(0.0149,-0.0047,0.));
#1318=CARTESIAN_POINT('',(0.0155,-0.0047,0.));
#1319=CARTESIAN_POINT('',(0.,0.0047,0.));
#1320=CARTESIAN_POINT('',(0.0155,0.0047,0.));
#1321=CARTESIAN_POINT('',(0.0149,0.0047,0.));
#1322=CARTESIAN_POINT('',(0.0149,0.0047,0.));
#1323=CARTESIAN_POINT('',(0.0155,-0.0075,0.));
#1324=CARTESIAN_POINT('',(0.0242,0.,-0.0075));
#1325=CARTESIAN_POINT('',(0.0242,0.,-0.0075));
#1326=CARTESIAN_POINT('',(0.0253,-3.78848034706017E-18,0.0045));
#1327=CARTESIAN_POINT('',(0.0258438921422427,-7.99616408795204E-19,0.0045));
#1328=CARTESIAN_POINT('',(0.0258438921422427,-0.00325,0.0045));
#1329=CARTESIAN_POINT('',(0.0258438921422427,-2.74825772933682E-5,0.0045));
#1330=CARTESIAN_POINT('',(0.0253,-3.78848034706017E-18,-0.0045));
#1331=CARTESIAN_POINT('',(0.0258438921422427,-7.99616408795204E-19,-0.0045));
#1332=CARTESIAN_POINT('',(0.0258438921422427,0.00325,-0.0045));
#1333=CARTESIAN_POINT('',(0.0258438921422427,-2.74825772933682E-5,-0.0045));
#1334=CARTESIAN_POINT('',(0.0258438921422427,-7.99616408795204E-19,-0.0061));
#1335=CARTESIAN_POINT('',(0.0258438921422427,-2.74825772933682E-5,-0.0087));
#1336=CARTESIAN_POINT('',(0.0258438921422427,-2.74825772933682E-5,0.0087));
#1337=CARTESIAN_POINT('',(0.0028452471618834,0.0021948946870107,-0.00462325135453295));
#1338=CARTESIAN_POINT('',(0.0017633813916755,0.00111302891680277,-0.00462325135453302));
#1339=CARTESIAN_POINT('',(0.00105627461048895,0.00182013569798931,-0.00462325135453306));
#1340=CARTESIAN_POINT('',(0.0028452471618834,0.0021948946870107,-0.00462325135453295));
#1341=CARTESIAN_POINT('',(0.00213814038069685,0.00290200146819724,-0.00462325135453299));
#1342=CARTESIAN_POINT('',(-0.00106504573307072,0.00394145604154893,-0.00462325135453317));
#1343=CARTESIAN_POINT('',(0.00485089916815313,0.000189242680741051,-0.00560034912829601));
#1344=CARTESIAN_POINT('',(0.00501441468846279,0.00310859876903407,-0.00492906475907211));
#1345=CARTESIAN_POINT('',(0.00499093798933455,0.00410366652553341,-0.00502544424119049));
#1346=CARTESIAN_POINT('',(0.0106199503932325,0.00310859876903407,-0.00629449516294017));
#1347=CARTESIAN_POINT('',(0.0106199503932325,0.00310859876903407,-0.00629449516294017));
#1348=CARTESIAN_POINT('',(0.00990995225582059,0.00310859876903408,-0.00920926833505349));
#1349=CARTESIAN_POINT('',(0.0122000746827409,-0.00349958440359866,0.00179011391267629));
#1350=CARTESIAN_POINT('',(0.0122000746827409,-0.00349958440359866,0.00179011391267629));
#1351=CARTESIAN_POINT('',(0.0122000746827409,-0.00249958440359866,0.00179011391267629));
#1352=CARTESIAN_POINT('',(-0.00027432170621855,-0.00205854395845109,0.00468330503829428));
#1353=CARTESIAN_POINT('',(0.00118630400380079,-0.00069231830533572,0.00468330503829438));
#1354=CARTESIAN_POINT('',(0.00118630400380079,-0.00069231830533572,0.00468330503829437));
#1355=CARTESIAN_POINT('',(0.00321932325520669,-0.00286581005671404,0.00468330503829448));
#1356=CARTESIAN_POINT('',(0.00394963611021636,-0.00218269723015636,0.00468330503829452));
#1357=CARTESIAN_POINT('',(0.00467994896522602,-0.00149958440359867,0.00468330503829457));
#1358=CARTESIAN_POINT('',(0.00467994896522601,-0.00349958440359867,0.00468330503829456));
#1359=CARTESIAN_POINT('',(0.00467994896522601,-0.00249958440359867,0.00468330503829456));
#1360=CARTESIAN_POINT('',(0.00467994896522601,-0.00349958440359867,0.00468330503829456));
#1361=CARTESIAN_POINT('',(0.00920197664158971,-0.00349958440359867,0.00468330503829482));
#1362=CARTESIAN_POINT('',(0.00920197664158971,-0.00249958440359867,0.00468330503829482));
#1363=CARTESIAN_POINT('',(0.00920197664158989,-0.00349958440359866,0.00168330503829481));
#1364=MECHANICAL_DESIGN_GEOMETRIC_PRESENTATION_REPRESENTATION('',(#732),
#1365);
#1365=(
GEOMETRIC_REPRESENTATION_CONTEXT(3)
GLOBAL_UNCERTAINTY_ASSIGNED_CONTEXT((#1366))
GLOBAL_UNIT_ASSIGNED_CONTEXT((#1369,#1368,#1367))
REPRESENTATION_CONTEXT('Base Bone 1_V02','TOP_LEVEL_ASSEMBLY_PART')
);
#1366=UNCERTAINTY_MEASURE_WITH_UNIT(LENGTH_MEASURE(2.E-5),#1369,
'DISTANCE_ACCURACY_VALUE','Maximum Tolerance applied to model');
#1367=(
NAMED_UNIT(*)
SI_UNIT($,.STERADIAN.)
SOLID_ANGLE_UNIT()
);
#1368=(
NAMED_UNIT(*)
PLANE_ANGLE_UNIT()
SI_UNIT($,.RADIAN.)
);
#1369=(
LENGTH_UNIT()
NAMED_UNIT(*)
SI_UNIT($,.METRE.)
);
#1370=PRODUCT_DEFINITION_SHAPE('','',#1371);
#1371=PRODUCT_DEFINITION('','',#1373,#1372);
#1372=PRODUCT_DEFINITION_CONTEXT('',#1379,'design');
#1373=PRODUCT_DEFINITION_FORMATION_WITH_SPECIFIED_SOURCE('','',#1375,
 .NOT_KNOWN.);
#1374=PRODUCT_RELATED_PRODUCT_CATEGORY('','',(#1375));
#1375=PRODUCT('Base Bone 1_V02','Base Bone 1_V02','Base Bone 1_V02',(#1377));
#1376=PRODUCT_CATEGORY('','');
#1377=PRODUCT_CONTEXT('',#1379,'mechanical');
#1378=APPLICATION_PROTOCOL_DEFINITION('international standard',
'ap242_managed_model_based_3d_engineering',2020,#1379);
#1379=APPLICATION_CONTEXT('managed model based 3d engineering');
ENDSEC;
END-ISO-10303-21;
