ISO-10303-21;
HEADER;
/* Generated by software containing ST-Developer
 * from STEP Tools, Inc. (www.steptools.com) 
 */
/* OPTION: using custom renumber hook */

FILE_DESCRIPTION(
/* description */ ('STEP AP242 Edition 2',
'CAx-IF Rec.Pracs.---Representation and Presentation of Product Manufa
cturing Information (PMI)---4.0---2014-10-13',
'CAx-IF Rec.Pracs.---3D Tessellated Geometry---0.4---2014-09-14','2;1',
'CAx-IF Rec.Pracs.---User Defined Attributes---1.5---2016-08-15'),
/* implementation_level */ '2;1');

FILE_NAME(
/* name */ 'Robotic Hand_V5_simulacra - Metacarpal Bone_V02_pinky',
/* time_stamp */ '2026-09-25T22:15:31Z',
/* author */ (''),
/* organization */ (''),
/* preprocessor_version */ 'ST-DEVELOPER v20',
/* originating_system */ 'ONSHAPE BY PTC INC, 1.221',
/* authorisation */ '  ');

FILE_SCHEMA (('AP242_MANAGED_MODEL_BASED_3D_ENGINEERING_MIM_LF { 1 0 10303 442 3 1 4 }'));
ENDSEC;

DATA;
#10=SHAPE_REPRESENTATION_RELATIONSHIP('','',#638,#11);
#11=ADVANCED_BREP_SHAPE_REPRESENTATION('',(#636),#1187);
#12=PLANE('',#657);
#13=PLANE('',#660);
#14=PLANE('',#663);
#15=PLANE('',#666);
#16=PLANE('',#669);
#17=PLANE('',#682);
#18=PLANE('',#685);
#19=PLANE('',#688);
#20=PLANE('',#689);
#21=PLANE('',#690);
#22=PLANE('',#693);
#23=PLANE('',#700);
#24=PLANE('',#701);
#25=PLANE('',#702);
#26=PLANE('',#703);
#27=ELLIPSE('',#652,0.00212132034355965,0.0015);
#28=LINE('',#923,#66);
#29=LINE('',#931,#67);
#30=LINE('',#936,#68);
#31=LINE('',#944,#69);
#32=LINE('',#1040,#70);
#33=LINE('',#1042,#71);
#34=LINE('',#1044,#72);
#35=LINE('',#1049,#73);
#36=LINE('',#1051,#74);
#37=LINE('',#1053,#75);
#38=LINE('',#1055,#76);
#39=LINE('',#1059,#77);
#40=LINE('',#1062,#78);
#41=LINE('',#1064,#79);
#42=LINE('',#1066,#80);
#43=LINE('',#1068,#81);
#44=LINE('',#1069,#82);
#45=LINE('',#1072,#83);
#46=LINE('',#1074,#84);
#47=LINE('',#1076,#85);
#48=LINE('',#1079,#86);
#49=LINE('',#1085,#87);
#50=LINE('',#1089,#88);
#51=LINE('',#1095,#89);
#52=LINE('',#1097,#90);
#53=LINE('',#1110,#91);
#54=LINE('',#1113,#92);
#55=LINE('',#1124,#93);
#56=LINE('',#1127,#94);
#57=LINE('',#1137,#95);
#58=LINE('',#1145,#96);
#59=LINE('',#1158,#97);
#60=LINE('',#1163,#98);
#61=LINE('',#1165,#99);
#62=LINE('',#1166,#100);
#63=LINE('',#1168,#101);
#64=LINE('',#1182,#102);
#65=LINE('',#1183,#103);
#66=VECTOR('',#716,1.);
#67=VECTOR('',#717,1.);
#68=VECTOR('',#722,1.);
#69=VECTOR('',#723,1.);
#70=VECTOR('',#746,1.);
#71=VECTOR('',#747,1.);
#72=VECTOR('',#748,1.);
#73=VECTOR('',#755,1.);
#74=VECTOR('',#756,1.);
#75=VECTOR('',#757,1.);
#76=VECTOR('',#758,1.);
#77=VECTOR('',#761,1.);
#78=VECTOR('',#764,1.);
#79=VECTOR('',#765,1.);
#80=VECTOR('',#768,1.);
#81=VECTOR('',#769,1.);
#82=VECTOR('',#770,1.);
#83=VECTOR('',#771,1.);
#84=VECTOR('',#772,1.);
#85=VECTOR('',#773,1.);
#86=VECTOR('',#776,1.);
#87=VECTOR('',#783,1.);
#88=VECTOR('',#786,1.);
#89=VECTOR('',#793,1.);
#90=VECTOR('',#794,1.);
#91=VECTOR('',#797,1.);
#92=VECTOR('',#800,1.);
#93=VECTOR('',#807,1.);
#94=VECTOR('',#810,1.);
#95=VECTOR('',#815,1.);
#96=VECTOR('',#818,1.);
#97=VECTOR('',#827,1.);
#98=VECTOR('',#834,1.);
#99=VECTOR('',#837,1.);
#100=VECTOR('',#838,1.);
#101=VECTOR('',#841,1.);
#102=VECTOR('',#866,1.);
#103=VECTOR('',#867,1.);
#104=CYLINDRICAL_SURFACE('',#643,0.006);
#105=CYLINDRICAL_SURFACE('',#645,0.006);
#106=CYLINDRICAL_SURFACE('',#650,0.0015);
#107=CYLINDRICAL_SURFACE('',#653,0.0015);
#108=CYLINDRICAL_SURFACE('',#658,0.001);
#109=CYLINDRICAL_SURFACE('',#672,0.006);
#110=CYLINDRICAL_SURFACE('',#675,0.006);
#111=CYLINDRICAL_SURFACE('',#678,0.006);
#112=CYLINDRICAL_SURFACE('',#680,0.006);
#113=CYLINDRICAL_SURFACE('',#692,0.0025);
#114=CYLINDRICAL_SURFACE('',#694,0.0025);
#115=CYLINDRICAL_SURFACE('',#695,0.0075);
#116=CYLINDRICAL_SURFACE('',#696,0.0075);
#117=CYLINDRICAL_SURFACE('',#697,0.0075);
#118=CYLINDRICAL_SURFACE('',#698,0.0075);
#119=CYLINDRICAL_SURFACE('',#699,0.001);
#120=B_SPLINE_CURVE_WITH_KNOTS('',3,(#877,#878,#879,#880,#881,#882,#883,
#884,#885,#886,#887,#888,#889,#890),.UNSPECIFIED.,.F.,.F.,(4,1,1,1,1,1,
1,1,1,1,1,4),(0.00672165569910066,0.00759123300552118,0.00802602165873145,
0.00846081031194171,0.00889559896515197,0.00933038761836223,0.00976517627157249,
0.0101999649247828,0.0110695422312033,0.0119391195376238,0.0128086968440443,
0.0136782741504649),.UNSPECIFIED.);
#121=B_SPLINE_CURVE_WITH_KNOTS('',3,(#892,#893,#894,#895,#896,#897),
 .UNSPECIFIED.,.F.,.F.,(4,1,1,4),(0.00770571677141805,0.00825756823197837,
0.00880941969253869,0.00991312261365933),.UNSPECIFIED.);
#122=B_SPLINE_CURVE_WITH_KNOTS('',3,(#901,#902,#903,#904,#905,#906,#907,
#908,#909,#910,#911,#912,#913),.UNSPECIFIED.,.F.,.F.,(4,1,1,1,1,1,1,1,1,
1,4),(0.00793382566932945,0.00866950900693417,0.00940519234453889,0.0101408756821436,
0.010508717350946,0.0108765590197483,0.0112444006885507,0.0116122423573531,
0.0123479256949578,0.0130836090325625,0.0138192923701672),.UNSPECIFIED.);
#123=B_SPLINE_CURVE_WITH_KNOTS('',3,(#915,#916,#917,#918),.UNSPECIFIED.,
 .F.,.F.,(4,4),(0.00312140867267891,0.00323315795166975),.UNSPECIFIED.);
#124=B_SPLINE_CURVE_WITH_KNOTS('',3,(#925,#926,#927,#928,#929),
 .UNSPECIFIED.,.F.,.F.,(4,1,4),(3.99234171746712E-17,0.00325336528627959,
0.00650673057255914),.UNSPECIFIED.);
#125=B_SPLINE_CURVE_WITH_KNOTS('',3,(#938,#939,#940,#941,#942),
 .UNSPECIFIED.,.F.,.F.,(4,1,4),(3.99234171746712E-17,0.00325336528627959,
0.00650673057255913),.UNSPECIFIED.);
#126=B_SPLINE_CURVE_WITH_KNOTS('',3,(#949,#950,#951,#952,#953,#954,#955),
 .UNSPECIFIED.,.F.,.F.,(4,1,1,1,4),(0.0032741184288028,0.00398891631728767,
0.00470371420577254,0.00541851209425741,0.00613330998274228),
 .UNSPECIFIED.);
#127=B_SPLINE_CURVE_WITH_KNOTS('',3,(#957,#958,#959,#960,#961),
 .UNSPECIFIED.,.F.,.F.,(4,1,4),(0.00948183175708199,0.0101153114394724,
0.0107487911218628),.UNSPECIFIED.);
#128=B_SPLINE_CURVE_WITH_KNOTS('',3,(#965,#966,#967,#968,#969,#970),
 .UNSPECIFIED.,.F.,.F.,(4,1,1,4),(0.00744730908819865,0.00855938022776986,
0.00911541579755546,0.00967145136734107),.UNSPECIFIED.);
#129=B_SPLINE_CURVE_WITH_KNOTS('',3,(#972,#973,#974,#975,#976,#977,#978,
#979,#980,#981,#982,#983,#984,#985),.UNSPECIFIED.,.F.,.F.,(4,1,1,1,1,1,
1,1,1,1,1,4),(0.00531706893591408,0.00619302220780042,0.00706897547968675,
0.00794492875157309,0.00882088202345943,0.0092588586594026,0.00969683529534577,
0.0101348119312889,0.0105727885672321,0.0110107652031753,0.0114487418391184,
0.0123246951110048),.UNSPECIFIED.);
#130=B_SPLINE_CURVE_WITH_KNOTS('',3,(#990,#991,#992,#993,#994,#995,#996,
#997,#998,#999,#1000,#1001,#1002,#1003,#1004),.UNSPECIFIED.,.F.,.F.,(4,
1,1,1,1,1,1,1,1,1,1,1,4),(0.00682877502311253,0.00783933889680609,0.00884990277049966,
0.00935518470734644,0.00986046664419322,0.01036574858104,0.0108710305178868,
0.0113763124547336,0.0118815943915803,0.0123868763284271,0.0128921582652739,
0.0139027221389675,0.014913286012661),.UNSPECIFIED.);
#131=B_SPLINE_CURVE_WITH_KNOTS('',3,(#1010,#1011,#1012,#1013,#1014,#1015,
#1016,#1017,#1018,#1019,#1020,#1021,#1022),.UNSPECIFIED.,.T.,.F.,(1,1,1,
1,1,1,1,1,1,1,1,1,1,1,1,1,1),(-0.00161399510208423,-0.000806997551042112,
-0.000403498775521057,0.,0.000403498775521056,0.000806997551042113,0.00161399510208423,
0.00242099265312634,0.00322799020416845,0.00403498775521056,0.00484198530625268,
0.00564898285729479,0.00605248163281585,0.0064559804083369,0.00685947918385796,
0.00726297795937901,0.00806997551042113),.UNSPECIFIED.);
#132=B_SPLINE_CURVE_WITH_KNOTS('',3,(#1024,#1025,#1026,#1027,#1028,#1029,
#1030,#1031,#1032,#1033,#1034,#1035,#1036),.UNSPECIFIED.,.T.,.F.,(1,1,1,
1,1,1,1,1,1,1,1,1,1,1,1,1,1),(-0.00161399510208423,-0.000806997551042116,
-0.000403498775521057,0.,0.000403498775521058,0.000806997551042116,0.00161399510208423,
0.00242099265312635,0.00322799020416846,0.00403498775521058,0.0048419853062527,
0.00564898285729481,0.00605248163281587,0.00645598040833693,0.00685947918385798,
0.00726297795937904,0.00806997551042116),.UNSPECIFIED.);
#133=B_SPLINE_CURVE_WITH_KNOTS('',3,(#1099,#1100,#1101,#1102,#1103),
 .UNSPECIFIED.,.F.,.F.,(4,1,4),(3.99234171746712E-17,0.00325336528628362,
0.00650673057256721),.UNSPECIFIED.);
#134=B_SPLINE_CURVE_WITH_KNOTS('',3,(#1104,#1105,#1106,#1107,#1108),
 .UNSPECIFIED.,.F.,.F.,(4,1,4),(3.81269371180124E-17,0.00325336528628361,
0.00650673057256719),.UNSPECIFIED.);
#135=B_SPLINE_CURVE_WITH_KNOTS('',3,(#1117,#1118,#1119,#1120,#1121),
 .UNSPECIFIED.,.F.,.F.,(4,1,4),(3.99234171746712E-17,0.00325336528627959,
0.00650673057255913),.UNSPECIFIED.);
#136=B_SPLINE_CURVE_WITH_KNOTS('',3,(#1129,#1130,#1131,#1132,#1133),
 .UNSPECIFIED.,.F.,.F.,(4,1,4),(3.81269371180124E-17,0.00325336528628362,
0.00650673057256719),.UNSPECIFIED.);
#137=B_SPLINE_CURVE_WITH_KNOTS('',3,(#1139,#1140,#1141,#1142,#1143),
 .UNSPECIFIED.,.F.,.F.,(4,1,4),(0.,0.00325336528627955,0.00650673057255909),
 .UNSPECIFIED.);
#138=B_SPLINE_CURVE_WITH_KNOTS('',3,(#1149,#1150,#1151,#1152,#1153),
 .UNSPECIFIED.,.F.,.F.,(4,1,4),(0.,0.00325336528627955,0.00650673057255909),
 .UNSPECIFIED.);
#139=ORIENTED_EDGE('',*,*,#315,.F.);
#140=ORIENTED_EDGE('',*,*,#316,.F.);
#141=ORIENTED_EDGE('',*,*,#317,.F.);
#142=ORIENTED_EDGE('',*,*,#318,.F.);
#143=ORIENTED_EDGE('',*,*,#319,.T.);
#144=ORIENTED_EDGE('',*,*,#320,.T.);
#145=ORIENTED_EDGE('',*,*,#321,.F.);
#146=ORIENTED_EDGE('',*,*,#322,.T.);
#147=ORIENTED_EDGE('',*,*,#323,.F.);
#148=ORIENTED_EDGE('',*,*,#324,.F.);
#149=ORIENTED_EDGE('',*,*,#325,.F.);
#150=ORIENTED_EDGE('',*,*,#326,.T.);
#151=ORIENTED_EDGE('',*,*,#327,.F.);
#152=ORIENTED_EDGE('',*,*,#328,.F.);
#153=ORIENTED_EDGE('',*,*,#329,.F.);
#154=ORIENTED_EDGE('',*,*,#330,.T.);
#155=ORIENTED_EDGE('',*,*,#331,.T.);
#156=ORIENTED_EDGE('',*,*,#332,.F.);
#157=ORIENTED_EDGE('',*,*,#333,.F.);
#158=ORIENTED_EDGE('',*,*,#334,.F.);
#159=ORIENTED_EDGE('',*,*,#335,.T.);
#160=ORIENTED_EDGE('',*,*,#336,.F.);
#161=ORIENTED_EDGE('',*,*,#331,.F.);
#162=ORIENTED_EDGE('',*,*,#337,.T.);
#163=ORIENTED_EDGE('',*,*,#319,.F.);
#164=ORIENTED_EDGE('',*,*,#338,.F.);
#165=ORIENTED_EDGE('',*,*,#339,.F.);
#166=ORIENTED_EDGE('',*,*,#340,.T.);
#167=ORIENTED_EDGE('',*,*,#341,.T.);
#168=ORIENTED_EDGE('',*,*,#342,.F.);
#169=ORIENTED_EDGE('',*,*,#320,.F.);
#170=ORIENTED_EDGE('',*,*,#337,.F.);
#171=ORIENTED_EDGE('',*,*,#330,.F.);
#172=ORIENTED_EDGE('',*,*,#343,.T.);
#173=ORIENTED_EDGE('',*,*,#339,.T.);
#174=ORIENTED_EDGE('',*,*,#344,.F.);
#175=ORIENTED_EDGE('',*,*,#345,.F.);
#176=ORIENTED_EDGE('',*,*,#340,.F.);
#177=ORIENTED_EDGE('',*,*,#346,.T.);
#178=ORIENTED_EDGE('',*,*,#322,.F.);
#179=ORIENTED_EDGE('',*,*,#347,.T.);
#180=ORIENTED_EDGE('',*,*,#348,.T.);
#181=ORIENTED_EDGE('',*,*,#349,.F.);
#182=ORIENTED_EDGE('',*,*,#350,.F.);
#183=ORIENTED_EDGE('',*,*,#351,.F.);
#184=ORIENTED_EDGE('',*,*,#352,.T.);
#185=ORIENTED_EDGE('',*,*,#353,.T.);
#186=ORIENTED_EDGE('',*,*,#316,.T.);
#187=ORIENTED_EDGE('',*,*,#354,.F.);
#188=ORIENTED_EDGE('',*,*,#355,.T.);
#189=ORIENTED_EDGE('',*,*,#334,.T.);
#190=ORIENTED_EDGE('',*,*,#356,.F.);
#191=ORIENTED_EDGE('',*,*,#357,.T.);
#192=ORIENTED_EDGE('',*,*,#358,.T.);
#193=ORIENTED_EDGE('',*,*,#359,.T.);
#194=ORIENTED_EDGE('',*,*,#360,.F.);
#195=ORIENTED_EDGE('',*,*,#361,.F.);
#196=ORIENTED_EDGE('',*,*,#328,.T.);
#197=ORIENTED_EDGE('',*,*,#362,.F.);
#198=ORIENTED_EDGE('',*,*,#363,.F.);
#199=ORIENTED_EDGE('',*,*,#364,.T.);
#200=ORIENTED_EDGE('',*,*,#365,.T.);
#201=ORIENTED_EDGE('',*,*,#366,.F.);
#202=ORIENTED_EDGE('',*,*,#367,.F.);
#203=ORIENTED_EDGE('',*,*,#326,.F.);
#204=ORIENTED_EDGE('',*,*,#368,.F.);
#205=ORIENTED_EDGE('',*,*,#369,.F.);
#206=ORIENTED_EDGE('',*,*,#370,.T.);
#207=ORIENTED_EDGE('',*,*,#371,.T.);
#208=ORIENTED_EDGE('',*,*,#372,.T.);
#209=ORIENTED_EDGE('',*,*,#324,.T.);
#210=ORIENTED_EDGE('',*,*,#373,.F.);
#211=ORIENTED_EDGE('',*,*,#352,.F.);
#212=ORIENTED_EDGE('',*,*,#374,.T.);
#213=ORIENTED_EDGE('',*,*,#375,.T.);
#214=ORIENTED_EDGE('',*,*,#376,.F.);
#215=ORIENTED_EDGE('',*,*,#344,.T.);
#216=ORIENTED_EDGE('',*,*,#377,.T.);
#217=ORIENTED_EDGE('',*,*,#378,.T.);
#218=ORIENTED_EDGE('',*,*,#371,.F.);
#219=ORIENTED_EDGE('',*,*,#379,.F.);
#220=ORIENTED_EDGE('',*,*,#366,.T.);
#221=ORIENTED_EDGE('',*,*,#380,.T.);
#222=ORIENTED_EDGE('',*,*,#381,.F.);
#223=ORIENTED_EDGE('',*,*,#343,.F.);
#224=ORIENTED_EDGE('',*,*,#382,.F.);
#225=ORIENTED_EDGE('',*,*,#383,.F.);
#226=ORIENTED_EDGE('',*,*,#384,.T.);
#227=ORIENTED_EDGE('',*,*,#363,.T.);
#228=ORIENTED_EDGE('',*,*,#350,.T.);
#229=ORIENTED_EDGE('',*,*,#385,.T.);
#230=ORIENTED_EDGE('',*,*,#386,.T.);
#231=ORIENTED_EDGE('',*,*,#387,.T.);
#232=ORIENTED_EDGE('',*,*,#388,.F.);
#233=ORIENTED_EDGE('',*,*,#389,.T.);
#234=ORIENTED_EDGE('',*,*,#358,.F.);
#235=ORIENTED_EDGE('',*,*,#390,.T.);
#236=ORIENTED_EDGE('',*,*,#391,.F.);
#237=ORIENTED_EDGE('',*,*,#375,.F.);
#238=ORIENTED_EDGE('',*,*,#392,.T.);
#239=ORIENTED_EDGE('',*,*,#386,.F.);
#240=ORIENTED_EDGE('',*,*,#393,.F.);
#241=ORIENTED_EDGE('',*,*,#394,.F.);
#242=ORIENTED_EDGE('',*,*,#395,.F.);
#243=ORIENTED_EDGE('',*,*,#383,.T.);
#244=ORIENTED_EDGE('',*,*,#396,.T.);
#245=ORIENTED_EDGE('',*,*,#388,.T.);
#246=ORIENTED_EDGE('',*,*,#397,.F.);
#247=ORIENTED_EDGE('',*,*,#360,.T.);
#248=ORIENTED_EDGE('',*,*,#398,.T.);
#249=ORIENTED_EDGE('',*,*,#348,.F.);
#250=ORIENTED_EDGE('',*,*,#377,.F.);
#251=ORIENTED_EDGE('',*,*,#338,.T.);
#252=ORIENTED_EDGE('',*,*,#381,.T.);
#253=ORIENTED_EDGE('',*,*,#399,.T.);
#254=ORIENTED_EDGE('',*,*,#389,.F.);
#255=ORIENTED_EDGE('',*,*,#396,.F.);
#256=ORIENTED_EDGE('',*,*,#382,.T.);
#257=ORIENTED_EDGE('',*,*,#345,.T.);
#258=ORIENTED_EDGE('',*,*,#376,.T.);
#259=ORIENTED_EDGE('',*,*,#393,.T.);
#260=ORIENTED_EDGE('',*,*,#385,.F.);
#261=ORIENTED_EDGE('',*,*,#349,.T.);
#262=ORIENTED_EDGE('',*,*,#398,.F.);
#263=ORIENTED_EDGE('',*,*,#359,.F.);
#264=ORIENTED_EDGE('',*,*,#400,.T.);
#265=ORIENTED_EDGE('',*,*,#391,.T.);
#266=ORIENTED_EDGE('',*,*,#394,.T.);
#267=ORIENTED_EDGE('',*,*,#321,.T.);
#268=ORIENTED_EDGE('',*,*,#372,.F.);
#269=ORIENTED_EDGE('',*,*,#378,.F.);
#270=ORIENTED_EDGE('',*,*,#399,.F.);
#271=ORIENTED_EDGE('',*,*,#380,.F.);
#272=ORIENTED_EDGE('',*,*,#368,.T.);
#273=ORIENTED_EDGE('',*,*,#325,.T.);
#274=ORIENTED_EDGE('',*,*,#361,.T.);
#275=ORIENTED_EDGE('',*,*,#397,.T.);
#276=ORIENTED_EDGE('',*,*,#347,.F.);
#277=ORIENTED_EDGE('',*,*,#346,.F.);
#278=ORIENTED_EDGE('',*,*,#369,.T.);
#279=ORIENTED_EDGE('',*,*,#365,.F.);
#280=ORIENTED_EDGE('',*,*,#364,.F.);
#281=ORIENTED_EDGE('',*,*,#384,.F.);
#282=ORIENTED_EDGE('',*,*,#395,.T.);
#283=ORIENTED_EDGE('',*,*,#390,.F.);
#284=ORIENTED_EDGE('',*,*,#392,.F.);
#285=ORIENTED_EDGE('',*,*,#374,.F.);
#286=ORIENTED_EDGE('',*,*,#351,.T.);
#287=ORIENTED_EDGE('',*,*,#387,.F.);
#288=ORIENTED_EDGE('',*,*,#323,.T.);
#289=ORIENTED_EDGE('',*,*,#353,.F.);
#290=ORIENTED_EDGE('',*,*,#373,.T.);
#291=ORIENTED_EDGE('',*,*,#370,.F.);
#292=ORIENTED_EDGE('',*,*,#327,.T.);
#293=ORIENTED_EDGE('',*,*,#367,.T.);
#294=ORIENTED_EDGE('',*,*,#379,.T.);
#295=ORIENTED_EDGE('',*,*,#362,.T.);
#296=ORIENTED_EDGE('',*,*,#341,.F.);
#297=ORIENTED_EDGE('',*,*,#400,.F.);
#298=ORIENTED_EDGE('',*,*,#335,.F.);
#299=ORIENTED_EDGE('',*,*,#336,.T.);
#300=ORIENTED_EDGE('',*,*,#318,.T.);
#301=ORIENTED_EDGE('',*,*,#401,.T.);
#302=ORIENTED_EDGE('',*,*,#354,.T.);
#303=ORIENTED_EDGE('',*,*,#315,.T.);
#304=ORIENTED_EDGE('',*,*,#342,.T.);
#305=ORIENTED_EDGE('',*,*,#329,.T.);
#306=ORIENTED_EDGE('',*,*,#357,.F.);
#307=ORIENTED_EDGE('',*,*,#402,.T.);
#308=ORIENTED_EDGE('',*,*,#332,.T.);
#309=ORIENTED_EDGE('',*,*,#356,.T.);
#310=ORIENTED_EDGE('',*,*,#333,.T.);
#311=ORIENTED_EDGE('',*,*,#402,.F.);
#312=ORIENTED_EDGE('',*,*,#401,.F.);
#313=ORIENTED_EDGE('',*,*,#317,.T.);
#314=ORIENTED_EDGE('',*,*,#355,.F.);
#315=EDGE_CURVE('',#403,#404,#464,.F.);
#316=EDGE_CURVE('',#405,#403,#120,.T.);
#317=EDGE_CURVE('',#406,#405,#121,.T.);
#318=EDGE_CURVE('',#407,#406,#465,.F.);
#319=EDGE_CURVE('',#407,#408,#122,.T.);
#320=EDGE_CURVE('',#408,#404,#123,.T.);
#321=EDGE_CURVE('',#409,#410,#466,.T.);
#322=EDGE_CURVE('',#409,#411,#28,.T.);
#323=EDGE_CURVE('',#412,#411,#124,.F.);
#324=EDGE_CURVE('',#410,#412,#29,.T.);
#325=EDGE_CURVE('',#413,#414,#467,.T.);
#326=EDGE_CURVE('',#413,#415,#30,.T.);
#327=EDGE_CURVE('',#416,#415,#125,.T.);
#328=EDGE_CURVE('',#414,#416,#31,.T.);
#329=EDGE_CURVE('',#417,#418,#468,.F.);
#330=EDGE_CURVE('',#417,#419,#126,.T.);
#331=EDGE_CURVE('',#419,#420,#127,.T.);
#332=EDGE_CURVE('',#421,#420,#469,.F.);
#333=EDGE_CURVE('',#422,#421,#128,.T.);
#334=EDGE_CURVE('',#418,#422,#129,.T.);
#335=EDGE_CURVE('',#423,#423,#470,.T.);
#336=EDGE_CURVE('',#420,#407,#27,.F.);
#337=EDGE_CURVE('',#419,#408,#130,.T.);
#338=EDGE_CURVE('',#424,#425,#471,.T.);
#339=EDGE_CURVE('',#425,#424,#472,.T.);
#340=EDGE_CURVE('',#426,#426,#131,.T.);
#341=EDGE_CURVE('',#427,#427,#132,.T.);
#342=EDGE_CURVE('',#404,#417,#473,.F.);
#343=EDGE_CURVE('',#428,#425,#32,.T.);
#344=EDGE_CURVE('',#429,#424,#33,.T.);
#345=EDGE_CURVE('',#428,#429,#34,.T.);
#346=EDGE_CURVE('',#430,#430,#474,.F.);
#347=EDGE_CURVE('',#409,#431,#35,.T.);
#348=EDGE_CURVE('',#431,#432,#36,.T.);
#349=EDGE_CURVE('',#433,#432,#37,.T.);
#350=EDGE_CURVE('',#434,#433,#38,.T.);
#351=EDGE_CURVE('',#435,#434,#475,.F.);
#352=EDGE_CURVE('',#435,#436,#39,.T.);
#353=EDGE_CURVE('',#436,#411,#476,.F.);
#354=EDGE_CURVE('',#437,#403,#40,.T.);
#355=EDGE_CURVE('',#437,#405,#41,.T.);
#356=EDGE_CURVE('',#438,#422,#42,.T.);
#357=EDGE_CURVE('',#438,#418,#43,.T.);
#358=EDGE_CURVE('',#439,#440,#44,.T.);
#359=EDGE_CURVE('',#440,#441,#45,.T.);
#360=EDGE_CURVE('',#442,#441,#46,.T.);
#361=EDGE_CURVE('',#414,#442,#47,.T.);
#362=EDGE_CURVE('',#443,#416,#477,.F.);
#363=EDGE_CURVE('',#444,#443,#48,.T.);
#364=EDGE_CURVE('',#444,#439,#478,.F.);
#365=EDGE_CURVE('',#445,#445,#479,.T.);
#366=EDGE_CURVE('',#446,#447,#49,.F.);
#367=EDGE_CURVE('',#415,#446,#480,.T.);
#368=EDGE_CURVE('',#447,#413,#50,.T.);
#369=EDGE_CURVE('',#448,#448,#481,.T.);
#370=EDGE_CURVE('',#412,#449,#482,.T.);
#371=EDGE_CURVE('',#449,#450,#51,.F.);
#372=EDGE_CURVE('',#450,#410,#52,.T.);
#373=EDGE_CURVE('',#436,#449,#133,.T.);
#374=EDGE_CURVE('',#435,#451,#134,.T.);
#375=EDGE_CURVE('',#451,#452,#53,.T.);
#376=EDGE_CURVE('',#429,#452,#483,.T.);
#377=EDGE_CURVE('',#424,#453,#54,.T.);
#378=EDGE_CURVE('',#453,#450,#484,.T.);
#379=EDGE_CURVE('',#446,#443,#135,.F.);
#380=EDGE_CURVE('',#447,#454,#485,.T.);
#381=EDGE_CURVE('',#425,#454,#55,.T.);
#382=EDGE_CURVE('',#455,#428,#486,.T.);
#383=EDGE_CURVE('',#456,#455,#56,.T.);
#384=EDGE_CURVE('',#456,#444,#136,.F.);
#385=EDGE_CURVE('',#433,#457,#487,.T.);
#386=EDGE_CURVE('',#457,#458,#57,.F.);
#387=EDGE_CURVE('',#458,#434,#137,.F.);
#388=EDGE_CURVE('',#459,#460,#58,.F.);
#389=EDGE_CURVE('',#459,#440,#488,.T.);
#390=EDGE_CURVE('',#439,#460,#138,.T.);
#391=EDGE_CURVE('',#461,#461,#489,.F.);
#392=EDGE_CURVE('',#451,#458,#490,.F.);
#393=EDGE_CURVE('',#452,#457,#59,.T.);
#394=EDGE_CURVE('',#462,#462,#491,.T.);
#395=EDGE_CURVE('',#456,#460,#492,.F.);
#396=EDGE_CURVE('',#455,#459,#60,.T.);
#397=EDGE_CURVE('',#442,#431,#61,.T.);
#398=EDGE_CURVE('',#441,#432,#62,.T.);
#399=EDGE_CURVE('',#454,#453,#63,.T.);
#400=EDGE_CURVE('',#463,#463,#493,.F.);
#401=EDGE_CURVE('',#406,#437,#64,.T.);
#402=EDGE_CURVE('',#438,#421,#65,.T.);
#403=VERTEX_POINT('',#875);
#404=VERTEX_POINT('',#876);
#405=VERTEX_POINT('',#891);
#406=VERTEX_POINT('',#898);
#407=VERTEX_POINT('',#900);
#408=VERTEX_POINT('',#914);
#409=VERTEX_POINT('',#921);
#410=VERTEX_POINT('',#922);
#411=VERTEX_POINT('',#924);
#412=VERTEX_POINT('',#930);
#413=VERTEX_POINT('',#934);
#414=VERTEX_POINT('',#935);
#415=VERTEX_POINT('',#937);
#416=VERTEX_POINT('',#943);
#417=VERTEX_POINT('',#947);
#418=VERTEX_POINT('',#948);
#419=VERTEX_POINT('',#956);
#420=VERTEX_POINT('',#962);
#421=VERTEX_POINT('',#964);
#422=VERTEX_POINT('',#971);
#423=VERTEX_POINT('',#988);
#424=VERTEX_POINT('',#1007);
#425=VERTEX_POINT('',#1008);
#426=VERTEX_POINT('',#1023);
#427=VERTEX_POINT('',#1037);
#428=VERTEX_POINT('',#1041);
#429=VERTEX_POINT('',#1043);
#430=VERTEX_POINT('',#1047);
#431=VERTEX_POINT('',#1050);
#432=VERTEX_POINT('',#1052);
#433=VERTEX_POINT('',#1054);
#434=VERTEX_POINT('',#1056);
#435=VERTEX_POINT('',#1058);
#436=VERTEX_POINT('',#1060);
#437=VERTEX_POINT('',#1063);
#438=VERTEX_POINT('',#1067);
#439=VERTEX_POINT('',#1070);
#440=VERTEX_POINT('',#1071);
#441=VERTEX_POINT('',#1073);
#442=VERTEX_POINT('',#1075);
#443=VERTEX_POINT('',#1078);
#444=VERTEX_POINT('',#1080);
#445=VERTEX_POINT('',#1084);
#446=VERTEX_POINT('',#1086);
#447=VERTEX_POINT('',#1087);
#448=VERTEX_POINT('',#1092);
#449=VERTEX_POINT('',#1094);
#450=VERTEX_POINT('',#1096);
#451=VERTEX_POINT('',#1109);
#452=VERTEX_POINT('',#1111);
#453=VERTEX_POINT('',#1114);
#454=VERTEX_POINT('',#1123);
#455=VERTEX_POINT('',#1126);
#456=VERTEX_POINT('',#1128);
#457=VERTEX_POINT('',#1136);
#458=VERTEX_POINT('',#1138);
#459=VERTEX_POINT('',#1146);
#460=VERTEX_POINT('',#1147);
#461=VERTEX_POINT('',#1156);
#462=VERTEX_POINT('',#1161);
#463=VERTEX_POINT('',#1171);
#464=CIRCLE('',#641,0.0120182339268051);
#465=CIRCLE('',#642,0.00951823392680508);
#466=CIRCLE('',#644,0.006);
#467=CIRCLE('',#646,0.006);
#468=CIRCLE('',#648,0.0120182339268051);
#469=CIRCLE('',#649,0.00951823392680508);
#470=CIRCLE('',#651,0.0015);
#471=CIRCLE('',#654,0.0015);
#472=CIRCLE('',#655,0.0015);
#473=CIRCLE('',#656,0.0015);
#474=CIRCLE('',#659,0.001);
#475=CIRCLE('',#661,0.0075);
#476=CIRCLE('',#662,0.0075);
#477=CIRCLE('',#664,0.0075);
#478=CIRCLE('',#665,0.0075);
#479=CIRCLE('',#667,0.0025);
#480=CIRCLE('',#668,0.0075);
#481=CIRCLE('',#670,0.0025);
#482=CIRCLE('',#671,0.0075);
#483=CIRCLE('',#673,0.006);
#484=CIRCLE('',#674,0.006);
#485=CIRCLE('',#676,0.006);
#486=CIRCLE('',#677,0.006);
#487=CIRCLE('',#679,0.006);
#488=CIRCLE('',#681,0.006);
#489=CIRCLE('',#683,0.0025);
#490=CIRCLE('',#684,0.0075);
#491=CIRCLE('',#686,0.0025);
#492=CIRCLE('',#687,0.0075);
#493=CIRCLE('',#691,0.001);
#494=EDGE_LOOP('',(#139,#140,#141,#142,#143,#144));
#495=EDGE_LOOP('',(#145,#146,#147,#148));
#496=EDGE_LOOP('',(#149,#150,#151,#152));
#497=EDGE_LOOP('',(#153,#154,#155,#156,#157,#158));
#498=EDGE_LOOP('',(#159));
#499=EDGE_LOOP('',(#160,#161,#162,#163));
#500=EDGE_LOOP('',(#164,#165));
#501=EDGE_LOOP('',(#166));
#502=EDGE_LOOP('',(#167));
#503=EDGE_LOOP('',(#168,#169,#170,#171));
#504=EDGE_LOOP('',(#172,#173,#174,#175));
#505=EDGE_LOOP('',(#176));
#506=EDGE_LOOP('',(#177));
#507=EDGE_LOOP('',(#178,#179,#180,#181,#182,#183,#184,#185));
#508=EDGE_LOOP('',(#186,#187,#188));
#509=EDGE_LOOP('',(#189,#190,#191));
#510=EDGE_LOOP('',(#192,#193,#194,#195,#196,#197,#198,#199));
#511=EDGE_LOOP('',(#200));
#512=EDGE_LOOP('',(#201,#202,#203,#204));
#513=EDGE_LOOP('',(#205));
#514=EDGE_LOOP('',(#206,#207,#208,#209));
#515=EDGE_LOOP('',(#210,#211,#212,#213,#214,#215,#216,#217,#218));
#516=EDGE_LOOP('',(#219,#220,#221,#222,#223,#224,#225,#226,#227));
#517=EDGE_LOOP('',(#228,#229,#230,#231));
#518=EDGE_LOOP('',(#232,#233,#234,#235));
#519=EDGE_LOOP('',(#236));
#520=EDGE_LOOP('',(#237,#238,#239,#240));
#521=EDGE_LOOP('',(#241));
#522=EDGE_LOOP('',(#242,#243,#244,#245));
#523=EDGE_LOOP('',(#246,#247,#248,#249));
#524=EDGE_LOOP('',(#250,#251,#252,#253));
#525=EDGE_LOOP('',(#254,#255,#256,#257,#258,#259,#260,#261,#262,#263));
#526=EDGE_LOOP('',(#264));
#527=EDGE_LOOP('',(#265));
#528=EDGE_LOOP('',(#266));
#529=EDGE_LOOP('',(#267,#268,#269,#270,#271,#272,#273,#274,#275,#276));
#530=EDGE_LOOP('',(#277));
#531=EDGE_LOOP('',(#278));
#532=EDGE_LOOP('',(#279));
#533=EDGE_LOOP('',(#280,#281,#282,#283));
#534=EDGE_LOOP('',(#284,#285,#286,#287));
#535=EDGE_LOOP('',(#288,#289,#290,#291));
#536=EDGE_LOOP('',(#292,#293,#294,#295));
#537=EDGE_LOOP('',(#296));
#538=EDGE_LOOP('',(#297));
#539=EDGE_LOOP('',(#298));
#540=EDGE_LOOP('',(#299,#300,#301,#302,#303,#304,#305,#306,#307,#308));
#541=EDGE_LOOP('',(#309,#310,#311));
#542=EDGE_LOOP('',(#312,#313,#314));
#543=FACE_BOUND('',#494,.T.);
#544=FACE_BOUND('',#495,.T.);
#545=FACE_BOUND('',#496,.T.);
#546=FACE_BOUND('',#497,.T.);
#547=FACE_BOUND('',#498,.T.);
#548=FACE_BOUND('',#499,.T.);
#549=FACE_BOUND('',#500,.T.);
#550=FACE_BOUND('',#501,.T.);
#551=FACE_BOUND('',#502,.T.);
#552=FACE_BOUND('',#503,.T.);
#553=FACE_BOUND('',#504,.T.);
#554=FACE_BOUND('',#505,.T.);
#555=FACE_BOUND('',#506,.T.);
#556=FACE_BOUND('',#507,.T.);
#557=FACE_BOUND('',#508,.T.);
#558=FACE_BOUND('',#509,.T.);
#559=FACE_BOUND('',#510,.T.);
#560=FACE_BOUND('',#511,.T.);
#561=FACE_BOUND('',#512,.T.);
#562=FACE_BOUND('',#513,.T.);
#563=FACE_BOUND('',#514,.T.);
#564=FACE_BOUND('',#515,.T.);
#565=FACE_BOUND('',#516,.T.);
#566=FACE_BOUND('',#517,.T.);
#567=FACE_BOUND('',#518,.T.);
#568=FACE_BOUND('',#519,.T.);
#569=FACE_BOUND('',#520,.T.);
#570=FACE_BOUND('',#521,.T.);
#571=FACE_BOUND('',#522,.T.);
#572=FACE_BOUND('',#523,.T.);
#573=FACE_BOUND('',#524,.T.);
#574=FACE_BOUND('',#525,.T.);
#575=FACE_BOUND('',#526,.T.);
#576=FACE_BOUND('',#527,.T.);
#577=FACE_BOUND('',#528,.T.);
#578=FACE_BOUND('',#529,.T.);
#579=FACE_BOUND('',#530,.T.);
#580=FACE_BOUND('',#531,.T.);
#581=FACE_BOUND('',#532,.T.);
#582=FACE_BOUND('',#533,.T.);
#583=FACE_BOUND('',#534,.T.);
#584=FACE_BOUND('',#535,.T.);
#585=FACE_BOUND('',#536,.T.);
#586=FACE_BOUND('',#537,.T.);
#587=FACE_BOUND('',#538,.T.);
#588=FACE_BOUND('',#539,.T.);
#589=FACE_BOUND('',#540,.T.);
#590=FACE_BOUND('',#541,.T.);
#591=FACE_BOUND('',#542,.T.);
#592=TOROIDAL_SURFACE('',#640,0.0107682339268051,0.00125);
#593=TOROIDAL_SURFACE('',#647,0.0107682339268051,0.00125);
#594=ADVANCED_FACE('',(#543),#592,.F.);
#595=ADVANCED_FACE('',(#544),#104,.T.);
#596=ADVANCED_FACE('',(#545),#105,.T.);
#597=ADVANCED_FACE('',(#546),#593,.F.);
#598=ADVANCED_FACE('',(#547,#548),#106,.F.);
#599=ADVANCED_FACE('',(#549,#550,#551,#552),#107,.F.);
#600=ADVANCED_FACE('',(#553),#12,.F.);
#601=ADVANCED_FACE('',(#554,#555),#108,.F.);
#602=ADVANCED_FACE('',(#556,#557),#13,.F.);
#603=ADVANCED_FACE('',(#558,#559),#14,.F.);
#604=ADVANCED_FACE('',(#560,#561),#15,.F.);
#605=ADVANCED_FACE('',(#562,#563),#16,.T.);
#606=ADVANCED_FACE('',(#564),#109,.T.);
#607=ADVANCED_FACE('',(#565),#110,.T.);
#608=ADVANCED_FACE('',(#566),#111,.T.);
#609=ADVANCED_FACE('',(#567),#112,.T.);
#610=ADVANCED_FACE('',(#568,#569),#17,.F.);
#611=ADVANCED_FACE('',(#570,#571),#18,.T.);
#612=ADVANCED_FACE('',(#572),#19,.F.);
#613=ADVANCED_FACE('',(#573),#20,.F.);
#614=ADVANCED_FACE('',(#574,#575),#21,.T.);
#615=ADVANCED_FACE('',(#576,#577),#113,.T.);
#616=ADVANCED_FACE('',(#578,#579),#22,.F.);
#617=ADVANCED_FACE('',(#580,#581),#114,.T.);
#618=ADVANCED_FACE('',(#582),#115,.T.);
#619=ADVANCED_FACE('',(#583),#116,.T.);
#620=ADVANCED_FACE('',(#584),#117,.T.);
#621=ADVANCED_FACE('',(#585),#118,.T.);
#622=ADVANCED_FACE('',(#586,#587),#119,.F.);
#623=ADVANCED_FACE('',(#588),#23,.F.);
#624=ADVANCED_FACE('',(#589),#24,.F.);
#625=ADVANCED_FACE('',(#590),#25,.F.);
#626=ADVANCED_FACE('',(#591),#26,.F.);
#627=CLOSED_SHELL('',(#594,#595,#596,#597,#598,#599,#600,#601,#602,#603,
#604,#605,#606,#607,#608,#609,#610,#611,#612,#613,#614,#615,#616,#617,#618,
#619,#620,#621,#622,#623,#624,#625,#626));
#628=STYLED_ITEM('',(#629),#636);
#629=PRESENTATION_STYLE_ASSIGNMENT((#630));
#630=SURFACE_STYLE_USAGE(.BOTH.,#631);
#631=SURFACE_SIDE_STYLE('',(#632));
#632=SURFACE_STYLE_FILL_AREA(#633);
#633=FILL_AREA_STYLE('',(#634));
#634=FILL_AREA_STYLE_COLOUR('',#635);
#635=COLOUR_RGB('',0.796078431372549,0.823529411764706,0.937254901960784);
#636=MANIFOLD_SOLID_BREP('Metacarpal Bone_V02_pinky',#627);
#637=SHAPE_DEFINITION_REPRESENTATION(#1192,#638);
#638=SHAPE_REPRESENTATION('Metacarpal Bone_V02_pinky',(#639),#1187);
#639=AXIS2_PLACEMENT_3D('',#872,#704,#705);
#640=AXIS2_PLACEMENT_3D('',#873,#706,#707);
#641=AXIS2_PLACEMENT_3D('',#874,#708,#709);
#642=AXIS2_PLACEMENT_3D('',#899,#710,#711);
#643=AXIS2_PLACEMENT_3D('',#919,#712,#713);
#644=AXIS2_PLACEMENT_3D('',#920,#714,#715);
#645=AXIS2_PLACEMENT_3D('',#932,#718,#719);
#646=AXIS2_PLACEMENT_3D('',#933,#720,#721);
#647=AXIS2_PLACEMENT_3D('',#945,#724,#725);
#648=AXIS2_PLACEMENT_3D('',#946,#726,#727);
#649=AXIS2_PLACEMENT_3D('',#963,#728,#729);
#650=AXIS2_PLACEMENT_3D('',#986,#730,#731);
#651=AXIS2_PLACEMENT_3D('',#987,#732,#733);
#652=AXIS2_PLACEMENT_3D('',#989,#734,#735);
#653=AXIS2_PLACEMENT_3D('',#1005,#736,#737);
#654=AXIS2_PLACEMENT_3D('',#1006,#738,#739);
#655=AXIS2_PLACEMENT_3D('',#1009,#740,#741);
#656=AXIS2_PLACEMENT_3D('',#1038,#742,#743);
#657=AXIS2_PLACEMENT_3D('',#1039,#744,#745);
#658=AXIS2_PLACEMENT_3D('',#1045,#749,#750);
#659=AXIS2_PLACEMENT_3D('',#1046,#751,#752);
#660=AXIS2_PLACEMENT_3D('',#1048,#753,#754);
#661=AXIS2_PLACEMENT_3D('',#1057,#759,#760);
#662=AXIS2_PLACEMENT_3D('',#1061,#762,#763);
#663=AXIS2_PLACEMENT_3D('',#1065,#766,#767);
#664=AXIS2_PLACEMENT_3D('',#1077,#774,#775);
#665=AXIS2_PLACEMENT_3D('',#1081,#777,#778);
#666=AXIS2_PLACEMENT_3D('',#1082,#779,#780);
#667=AXIS2_PLACEMENT_3D('',#1083,#781,#782);
#668=AXIS2_PLACEMENT_3D('',#1088,#784,#785);
#669=AXIS2_PLACEMENT_3D('',#1090,#787,#788);
#670=AXIS2_PLACEMENT_3D('',#1091,#789,#790);
#671=AXIS2_PLACEMENT_3D('',#1093,#791,#792);
#672=AXIS2_PLACEMENT_3D('',#1098,#795,#796);
#673=AXIS2_PLACEMENT_3D('',#1112,#798,#799);
#674=AXIS2_PLACEMENT_3D('',#1115,#801,#802);
#675=AXIS2_PLACEMENT_3D('',#1116,#803,#804);
#676=AXIS2_PLACEMENT_3D('',#1122,#805,#806);
#677=AXIS2_PLACEMENT_3D('',#1125,#808,#809);
#678=AXIS2_PLACEMENT_3D('',#1134,#811,#812);
#679=AXIS2_PLACEMENT_3D('',#1135,#813,#814);
#680=AXIS2_PLACEMENT_3D('',#1144,#816,#817);
#681=AXIS2_PLACEMENT_3D('',#1148,#819,#820);
#682=AXIS2_PLACEMENT_3D('',#1154,#821,#822);
#683=AXIS2_PLACEMENT_3D('',#1155,#823,#824);
#684=AXIS2_PLACEMENT_3D('',#1157,#825,#826);
#685=AXIS2_PLACEMENT_3D('',#1159,#828,#829);
#686=AXIS2_PLACEMENT_3D('',#1160,#830,#831);
#687=AXIS2_PLACEMENT_3D('',#1162,#832,#833);
#688=AXIS2_PLACEMENT_3D('',#1164,#835,#836);
#689=AXIS2_PLACEMENT_3D('',#1167,#839,#840);
#690=AXIS2_PLACEMENT_3D('',#1169,#842,#843);
#691=AXIS2_PLACEMENT_3D('',#1170,#844,#845);
#692=AXIS2_PLACEMENT_3D('',#1172,#846,#847);
#693=AXIS2_PLACEMENT_3D('',#1173,#848,#849);
#694=AXIS2_PLACEMENT_3D('',#1174,#850,#851);
#695=AXIS2_PLACEMENT_3D('',#1175,#852,#853);
#696=AXIS2_PLACEMENT_3D('',#1176,#854,#855);
#697=AXIS2_PLACEMENT_3D('',#1177,#856,#857);
#698=AXIS2_PLACEMENT_3D('',#1178,#858,#859);
#699=AXIS2_PLACEMENT_3D('',#1179,#860,#861);
#700=AXIS2_PLACEMENT_3D('',#1180,#862,#863);
#701=AXIS2_PLACEMENT_3D('',#1181,#864,#865);
#702=AXIS2_PLACEMENT_3D('',#1184,#868,#869);
#703=AXIS2_PLACEMENT_3D('',#1185,#870,#871);
#704=DIRECTION('',(0.,0.,1.));
#705=DIRECTION('',(1.,0.,0.));
#706=DIRECTION('',(0.,0.,1.));
#707=DIRECTION('',(0.,-1.,0.));
#708=DIRECTION('',(0.,0.,1.));
#709=DIRECTION('',(0.,-1.,0.));
#710=DIRECTION('',(0.,0.,-1.));
#711=DIRECTION('',(0.,1.,0.));
#712=DIRECTION('',(-1.,0.,0.));
#713=DIRECTION('',(0.,-1.,0.));
#714=DIRECTION('',(1.,0.,0.));
#715=DIRECTION('',(0.,1.,0.));
#716=DIRECTION('',(-1.,0.,0.));
#717=DIRECTION('',(-1.,0.,0.));
#718=DIRECTION('',(-1.,0.,0.));
#719=DIRECTION('',(0.,-1.,0.));
#720=DIRECTION('',(1.,0.,0.));
#721=DIRECTION('',(0.,1.,0.));
#722=DIRECTION('',(-1.,0.,0.));
#723=DIRECTION('',(-1.,0.,0.));
#724=DIRECTION('',(0.,0.,1.));
#725=DIRECTION('',(0.,-1.,0.));
#726=DIRECTION('',(0.,0.,1.));
#727=DIRECTION('',(0.,-1.,0.));
#728=DIRECTION('',(0.,0.,-1.));
#729=DIRECTION('',(0.,1.,0.));
#730=DIRECTION('',(-6.47663139207058E-17,0.70710678118655,-0.707106781186545));
#731=DIRECTION('',(0.,0.707106781186545,0.70710678118655));
#732=DIRECTION('',(-6.47663139207058E-17,0.70710678118655,-0.707106781186545));
#733=DIRECTION('',(0.,0.707106781186545,0.70710678118655));
#734=DIRECTION('',(0.,0.,1.));
#735=DIRECTION('',(-9.15933995315752E-17,1.,0.));
#736=DIRECTION('',(0.,0.,1.));
#737=DIRECTION('',(0.,-1.,0.));
#738=DIRECTION('',(0.,0.,1.));
#739=DIRECTION('',(0.,-1.,0.));
#740=DIRECTION('',(0.,0.,1.));
#741=DIRECTION('',(0.,-1.,0.));
#742=DIRECTION('',(0.,0.,1.));
#743=DIRECTION('',(0.,-1.,0.));
#744=DIRECTION('',(0.,0.,1.));
#745=DIRECTION('',(0.,-1.,0.));
#746=DIRECTION('',(-1.,0.,0.));
#747=DIRECTION('',(-1.,0.,0.));
#748=DIRECTION('',(0.,1.,0.));
#749=DIRECTION('',(1.,0.,0.));
#750=DIRECTION('',(0.,1.,0.));
#751=DIRECTION('',(1.,0.,0.));
#752=DIRECTION('',(0.,1.,0.));
#753=DIRECTION('',(0.,-1.,0.));
#754=DIRECTION('',(1.,0.,0.));
#755=DIRECTION('',(0.,0.,1.));
#756=DIRECTION('',(1.,0.,0.));
#757=DIRECTION('',(0.,0.,1.));
#758=DIRECTION('',(-1.,0.,0.));
#759=DIRECTION('',(0.,1.,0.));
#760=DIRECTION('',(-1.,0.,0.));
#761=DIRECTION('',(-1.,0.,0.));
#762=DIRECTION('',(0.,-1.,0.));
#763=DIRECTION('',(1.,0.,0.));
#764=DIRECTION('',(1.,0.,0.));
#765=DIRECTION('',(0.,0.,1.));
#766=DIRECTION('',(0.,1.,0.));
#767=DIRECTION('',(-1.,0.,0.));
#768=DIRECTION('',(0.,0.,1.));
#769=DIRECTION('',(1.,0.,0.));
#770=DIRECTION('',(-1.,0.,0.));
#771=DIRECTION('',(0.,0.,1.));
#772=DIRECTION('',(1.,0.,0.));
#773=DIRECTION('',(0.,0.,1.));
#774=DIRECTION('',(0.,-1.,0.));
#775=DIRECTION('',(1.,0.,0.));
#776=DIRECTION('',(-1.,0.,0.));
#777=DIRECTION('',(0.,1.,0.));
#778=DIRECTION('',(-1.,0.,0.));
#779=DIRECTION('',(-1.71189816708238E-16,-1.,0.));
#780=DIRECTION('',(1.,-1.71189816708238E-16,0.));
#781=DIRECTION('',(-1.15648231731787E-16,-1.,0.));
#782=DIRECTION('',(1.,-1.15648231731787E-16,0.));
#783=DIRECTION('',(-1.,0.,0.));
#784=DIRECTION('',(-1.71189816708238E-16,-1.,0.));
#785=DIRECTION('',(1.,-1.71189816708238E-16,0.));
#786=DIRECTION('',(0.,0.,1.));
#787=DIRECTION('',(-1.14126544472158E-16,-1.,0.));
#788=DIRECTION('',(1.,-1.14126544472158E-16,0.));
#789=DIRECTION('',(-1.14126544472158E-16,-1.,0.));
#790=DIRECTION('',(1.,-1.14126544472158E-16,0.));
#791=DIRECTION('',(-1.14126544472158E-16,-1.,0.));
#792=DIRECTION('',(1.,-1.14126544472158E-16,0.));
#793=DIRECTION('',(-1.,0.,0.));
#794=DIRECTION('',(0.,0.,1.));
#795=DIRECTION('',(-1.,0.,0.));
#796=DIRECTION('',(0.,-1.,0.));
#797=DIRECTION('',(-1.,0.,0.));
#798=DIRECTION('',(1.,0.,0.));
#799=DIRECTION('',(0.,1.,0.));
#800=DIRECTION('',(-1.,0.,0.));
#801=DIRECTION('',(1.,0.,0.));
#802=DIRECTION('',(0.,1.,0.));
#803=DIRECTION('',(-1.,0.,0.));
#804=DIRECTION('',(0.,-1.,0.));
#805=DIRECTION('',(1.,0.,0.));
#806=DIRECTION('',(0.,1.,0.));
#807=DIRECTION('',(-1.,0.,0.));
#808=DIRECTION('',(1.,0.,0.));
#809=DIRECTION('',(0.,1.,0.));
#810=DIRECTION('',(-1.,0.,0.));
#811=DIRECTION('',(-1.,0.,0.));
#812=DIRECTION('',(0.,-1.,0.));
#813=DIRECTION('',(1.,0.,0.));
#814=DIRECTION('',(0.,1.,0.));
#815=DIRECTION('',(-1.,0.,0.));
#816=DIRECTION('',(-1.,0.,0.));
#817=DIRECTION('',(0.,-1.,0.));
#818=DIRECTION('',(-1.,0.,0.));
#819=DIRECTION('',(1.,0.,0.));
#820=DIRECTION('',(0.,1.,0.));
#821=DIRECTION('',(-1.14126544472158E-16,1.,0.));
#822=DIRECTION('',(-1.,-1.14126544472158E-16,0.));
#823=DIRECTION('',(-1.14126544472158E-16,1.,0.));
#824=DIRECTION('',(-1.,-1.14126544472158E-16,0.));
#825=DIRECTION('',(-1.14126544472158E-16,1.,0.));
#826=DIRECTION('',(-1.,-1.14126544472158E-16,0.));
#827=DIRECTION('',(0.,0.,1.));
#828=DIRECTION('',(-1.71189816708238E-16,1.,0.));
#829=DIRECTION('',(-1.,-1.71189816708238E-16,0.));
#830=DIRECTION('',(-1.15648231731787E-16,1.,0.));
#831=DIRECTION('',(-1.,-1.15648231731787E-16,0.));
#832=DIRECTION('',(-1.71189816708238E-16,1.,0.));
#833=DIRECTION('',(-1.,-1.71189816708238E-16,0.));
#834=DIRECTION('',(0.,0.,1.));
#835=DIRECTION('',(0.,0.,-1.));
#836=DIRECTION('',(0.,1.,0.));
#837=DIRECTION('',(0.,1.,0.));
#838=DIRECTION('',(0.,1.,0.));
#839=DIRECTION('',(0.,0.,1.));
#840=DIRECTION('',(0.,-1.,0.));
#841=DIRECTION('',(0.,1.,0.));
#842=DIRECTION('',(1.,0.,0.));
#843=DIRECTION('',(0.,1.,0.));
#844=DIRECTION('',(1.,0.,0.));
#845=DIRECTION('',(0.,1.,0.));
#846=DIRECTION('',(1.15648231731787E-16,-1.,0.));
#847=DIRECTION('',(1.,1.15648231731787E-16,0.));
#848=DIRECTION('',(1.,0.,0.));
#849=DIRECTION('',(0.,1.,0.));
#850=DIRECTION('',(-1.15648231731787E-16,-1.,0.));
#851=DIRECTION('',(1.,-1.15648231731787E-16,0.));
#852=DIRECTION('',(0.,1.,0.));
#853=DIRECTION('',(-1.,0.,0.));
#854=DIRECTION('',(0.,1.,0.));
#855=DIRECTION('',(-1.,0.,0.));
#856=DIRECTION('',(0.,1.,0.));
#857=DIRECTION('',(-1.,0.,0.));
#858=DIRECTION('',(0.,1.,0.));
#859=DIRECTION('',(-1.,0.,0.));
#860=DIRECTION('',(1.,0.,0.));
#861=DIRECTION('',(0.,1.,0.));
#862=DIRECTION('',(-6.47663139207058E-17,0.70710678118655,-0.707106781186545));
#863=DIRECTION('',(0.,0.707106781186545,0.70710678118655));
#864=DIRECTION('',(0.,0.,1.));
#865=DIRECTION('',(0.,-1.,0.));
#866=DIRECTION('',(0.,1.,0.));
#867=DIRECTION('',(0.,1.,0.));
#868=DIRECTION('',(1.,0.,0.));
#869=DIRECTION('',(0.,1.,0.));
#870=DIRECTION('',(1.,0.,0.));
#871=DIRECTION('',(0.,1.,0.));
#872=CARTESIAN_POINT('',(0.,0.,0.));
#873=CARTESIAN_POINT('',(0.0077,0.,0.));
#874=CARTESIAN_POINT('',(0.0077,0.,0.));
#875=CARTESIAN_POINT('',(0.0170908437703653,0.0075,-1.5041915070964E-16));
#876=CARTESIAN_POINT('',(0.0196444642986404,0.00132955606798432,-3.10609061117262E-14));
#877=CARTESIAN_POINT('',(0.0151999999999845,0.0075,0.00123950596166703));
#878=CARTESIAN_POINT('',(0.0149107666000601,0.0075,0.00121283659309457));
#879=CARTESIAN_POINT('',(0.0144838487254992,0.0075,0.00110045795077758));
#880=CARTESIAN_POINT('',(0.0139823295230271,0.0075,0.000794265119043765));
#881=CARTESIAN_POINT('',(0.0136750407092173,0.0075,0.00047496543762847));
#882=CARTESIAN_POINT('',(0.0135175928857082,0.0075,4.67484229639926E-5));
#883=CARTESIAN_POINT('',(0.0136259246633954,0.0075,-0.000395960161429112));
#884=CARTESIAN_POINT('',(0.0139132135864976,0.0075,-0.000737496376281685));
#885=CARTESIAN_POINT('',(0.0143993686486355,0.0075,-0.00106546742134718));
#886=CARTESIAN_POINT('',(0.0151062424762368,0.0075,-0.00127826401710224));
#887=CARTESIAN_POINT('',(0.0159877332192683,0.0075,-0.00124282019283373));
#888=CARTESIAN_POINT('',(0.0168065522219079,0.0075,-0.00085299144107124));
#889=CARTESIAN_POINT('',(0.0170908437703653,0.0075,-0.000291064609985349));
#890=CARTESIAN_POINT('',(0.0170908437703653,0.0075,-1.5082440805728E-16));
#891=CARTESIAN_POINT('',(0.0151999999999845,0.0075,0.001239505961667));
#892=CARTESIAN_POINT('',(0.0152,0.00586061234730522,-2.20604962416151E-17));
#893=CARTESIAN_POINT('',(0.0152,0.00586061234730522,0.000186271558292816));
#894=CARTESIAN_POINT('',(0.0152,0.00600757099249848,0.000550232305882439));
#895=CARTESIAN_POINT('',(0.0152,0.00658452673391368,0.0010371301536437));
#896=CARTESIAN_POINT('',(0.0152,0.00713356246442995,0.00120571782483222));
#897=CARTESIAN_POINT('',(0.0152,0.00749999999999984,0.0012395059616684));
#898=CARTESIAN_POINT('',(0.0152,0.00586061234730495,0.));
#899=CARTESIAN_POINT('',(0.0077,0.,0.));
#900=CARTESIAN_POINT('',(0.0171490008495071,0.00114593194885129,-3.10105734730795E-15));
#901=CARTESIAN_POINT('',(0.0171490008495071,0.00114593194885134,-3.05897487180184E-15));
#902=CARTESIAN_POINT('',(0.017130784964695,0.00129613450777353,-0.000190334167625093));
#903=CARTESIAN_POINT('',(0.0171558445058929,0.00167384233104074,-0.000507524907814993));
#904=CARTESIAN_POINT('',(0.0172798428444508,0.00228789898195492,-0.000880071129437477));
#905=CARTESIAN_POINT('',(0.0174773714446872,0.00281021754561862,-0.00112668042901197));
#906=CARTESIAN_POINT('',(0.0177782057187128,0.00319239089042402,-0.0012515236662555));
#907=CARTESIAN_POINT('',(0.018125510825484,0.0033610418886884,-0.00125513953176755));
#908=CARTESIAN_POINT('',(0.018491208918459,0.0032882473200251,-0.00115294352710776));
#909=CARTESIAN_POINT('',(0.0188704840007193,0.00302555566677292,-0.0009795330744523));
#910=CARTESIAN_POINT('',(0.0192120412045903,0.00256979374590063,-0.000747377983109499));
#911=CARTESIAN_POINT('',(0.0194898179931871,0.00195641487197933,-0.000458443501600153));
#912=CARTESIAN_POINT('',(0.0196041669712604,0.00153509094214735,-0.000246097227559916));
#913=CARTESIAN_POINT('',(0.0196389501346898,0.00133242174701722,-0.00011349154916286));
#914=CARTESIAN_POINT('',(0.0196389501346887,0.00133242174701272,-0.000113491549170578));
#915=CARTESIAN_POINT('',(0.0196389501346888,0.00133242174701272,-0.000113491549170589));
#916=CARTESIAN_POINT('',(0.0196426018316135,0.00133053357827504,-7.59819662336098E-5));
#917=CARTESIAN_POINT('',(0.0196444642986394,0.00132955606798497,-3.78035028146223E-5));
#918=CARTESIAN_POINT('',(0.0196444642986404,0.00132955606798445,-3.10697875294922E-14));
#919=CARTESIAN_POINT('',(0.04,0.0015,0.0015));
#920=CARTESIAN_POINT('',(0.0152,0.0015,0.0015));
#921=CARTESIAN_POINT('',(0.0152,0.0075,0.0015));
#922=CARTESIAN_POINT('',(0.0152,0.0051,0.0063));
#923=CARTESIAN_POINT('',(0.04,0.0075,0.00149999999999996));
#924=CARTESIAN_POINT('',(0.000151530771650465,0.0075,0.0015));
#925=CARTESIAN_POINT('',(0.000151530771650457,0.0075,0.00149999999999996));
#926=CARTESIAN_POINT('',(0.000372257608047906,0.00750000000000001,0.00258133624342505));
#927=CARTESIAN_POINT('',(0.00129253477720985,0.00690808094985089,0.00455667775421532));
#928=CARTESIAN_POINT('',(0.00268516144770993,0.00574200938121961,0.00581849296408529));
#929=CARTESIAN_POINT('',(0.00343060201012484,0.0051,0.0063));
#930=CARTESIAN_POINT('',(0.00343060201012485,0.0051,0.0063));
#931=CARTESIAN_POINT('',(0.04,0.0051,0.0063));
#932=CARTESIAN_POINT('',(0.04,-0.0015,0.0015));
#933=CARTESIAN_POINT('',(0.0152,-0.0015,0.0015));
#934=CARTESIAN_POINT('',(0.0152,-0.0051,0.0063));
#935=CARTESIAN_POINT('',(0.0152,-0.0075,0.00149999999999996));
#936=CARTESIAN_POINT('',(0.04,-0.0051,0.0063));
#937=CARTESIAN_POINT('',(0.00343060201012483,-0.0051,0.0063));
#938=CARTESIAN_POINT('',(0.000151530771650457,-0.0075,0.00149999999999996));
#939=CARTESIAN_POINT('',(0.000372257608047906,-0.00750000000000001,0.00258133624342505));
#940=CARTESIAN_POINT('',(0.00129253477720985,-0.00690808094985089,0.00455667775421532));
#941=CARTESIAN_POINT('',(0.00268516144770992,-0.00574200938121961,0.00581849296408529));
#942=CARTESIAN_POINT('',(0.00343060201012484,-0.0051,0.0063));
#943=CARTESIAN_POINT('',(0.000151530771650465,-0.0075,0.0015));
#944=CARTESIAN_POINT('',(0.04,-0.0075,0.00149999999999996));
#945=CARTESIAN_POINT('',(0.0077,0.,0.));
#946=CARTESIAN_POINT('',(0.0077,0.,0.));
#947=CARTESIAN_POINT('',(0.0196444642986404,-0.00132955606798432,0.));
#948=CARTESIAN_POINT('',(0.0170908437703722,-0.0075,3.283843174733E-15));
#949=CARTESIAN_POINT('',(0.0196444642986405,-0.00132955606798442,-4.63340987283288E-18));
#950=CARTESIAN_POINT('',(0.0196444642986405,-0.00132955606798442,-0.000240873220479433));
#951=CARTESIAN_POINT('',(0.0194908162562382,-0.00141960028081807,-0.00071101388547484));
#952=CARTESIAN_POINT('',(0.0189273952641536,-0.00155296506128951,-0.0011952100937048));
#953=CARTESIAN_POINT('',(0.0181869463452589,-0.00136310705740011,-0.00130186101052385));
#954=CARTESIAN_POINT('',(0.0178423920710649,-0.00103499243969938,-0.00112310649326547));
#955=CARTESIAN_POINT('',(0.0177175100678772,-0.000854966997734933,-0.00102580097118612));
#956=CARTESIAN_POINT('',(0.0177175100678772,-0.000854966997734919,-0.00102580097118612));
#957=CARTESIAN_POINT('',(0.0177175100678772,-0.000854966997733255,-0.00102580097118606));
#958=CARTESIAN_POINT('',(0.0175415214150158,-0.000847662234955896,-0.0009032645093024));
#959=CARTESIAN_POINT('',(0.0172558643615017,-0.000835296720671148,-0.000562394949974957));
#960=CARTESIAN_POINT('',(0.0171649341473524,-0.00101455089693638,-0.000166483869097286));
#961=CARTESIAN_POINT('',(0.0171490008495084,-0.00114593194883814,-1.33369724063298E-14));
#962=CARTESIAN_POINT('',(0.0171490008495086,-0.00114593194883827,-1.34008907942402E-14));
#963=CARTESIAN_POINT('',(0.0077,0.,0.));
#964=CARTESIAN_POINT('',(0.0152,-0.00586061234730495,0.));
#965=CARTESIAN_POINT('',(0.0152,-0.0075,0.00123950596166842));
#966=CARTESIAN_POINT('',(0.0152,-0.00713071509402136,0.00120545527710815));
#967=CARTESIAN_POINT('',(0.0152,-0.00658665890698054,0.0010381011780358));
#968=CARTESIAN_POINT('',(0.0152,-0.00600674994516571,0.000549838856988004));
#969=CARTESIAN_POINT('',(0.0152,-0.00586061234730498,0.000185416450896203));
#970=CARTESIAN_POINT('',(0.0152,-0.00586061234730498,-1.39192960229058E-18));
#971=CARTESIAN_POINT('',(0.0152,-0.0075,0.00123950596166843));
#972=CARTESIAN_POINT('',(0.0170908437703653,-0.0075,3.75689675589983E-15));
#973=CARTESIAN_POINT('',(0.0170908437703664,-0.0075,-0.000291481033822811));
#974=CARTESIAN_POINT('',(0.0168048490773791,-0.0075,-0.00085463167877008));
#975=CARTESIAN_POINT('',(0.0159868712503991,-0.0075,-0.00124305794002943));
#976=CARTESIAN_POINT('',(0.0151028477201549,-0.0075,-0.0012778176147793));
#977=CARTESIAN_POINT('',(0.0143983197486428,-0.0075,-0.00106507518138926));
#978=CARTESIAN_POINT('',(0.0139116503547272,-0.0075,-0.000736076799869664));
#979=CARTESIAN_POINT('',(0.0136255684064585,-0.0075,-0.000395243896074507));
#980=CARTESIAN_POINT('',(0.0135176626003259,-0.0075,4.81741646474852E-5));
#981=CARTESIAN_POINT('',(0.013675522756673,-0.0075,0.000475477342731936));
#982=CARTESIAN_POINT('',(0.0139826229452396,-0.0075,0.000794434880259236));
#983=CARTESIAN_POINT('',(0.0144833673613702,-0.0075,0.00110028363412811));
#984=CARTESIAN_POINT('',(0.0149117264644367,-0.0075,0.00121292509939211));
#985=CARTESIAN_POINT('',(0.0152,-0.0075,0.00123950596166842));
#986=CARTESIAN_POINT('',(0.0184113082543433,-0.0115710678118655,0.0115710678118654));
#987=CARTESIAN_POINT('',(0.0184113082543433,0.0025710678118655,-0.00257106781186548));
#988=CARTESIAN_POINT('',(0.0184113082543433,0.00363172798364532,-0.00151040764008565));
#989=CARTESIAN_POINT('',(0.0184113082543433,0.,1.73472347597681E-18));
#990=CARTESIAN_POINT('',(0.0177175100678768,-0.000854966997734324,-0.00102580097118464));
#991=CARTESIAN_POINT('',(0.0175394344250574,-0.000598259501991389,-0.00115112749906373));
#992=CARTESIAN_POINT('',(0.0173908602900703,-2.67091280525207E-5,-0.00152242810765389));
#993=CARTESIAN_POINT('',(0.0175082740585038,0.000487451075752265,-0.00219148665196796));
#994=CARTESIAN_POINT('',(0.0176981715732736,0.00084685099927113,-0.00272042397142658));
#995=CARTESIAN_POINT('',(0.0179097055563723,0.00109678919274949,-0.00310581943105744));
#996=CARTESIAN_POINT('',(0.0181991688372254,0.00132397278398762,-0.0034479991460743));
#997=CARTESIAN_POINT('',(0.0186816429720615,0.00150712105600438,-0.00363796388852926));
#998=CARTESIAN_POINT('',(0.0191618481293243,0.0015019277983392,-0.00337462950727165));
#999=CARTESIAN_POINT('',(0.0194543996942796,0.00141971688323947,-0.00296728566858343));
#1000=CARTESIAN_POINT('',(0.0196639883546489,0.00132427309075362,-0.00252003706512276));
#1001=CARTESIAN_POINT('',(0.0198548101248605,0.00120371461253381,-0.00188682122510341));
#1002=CARTESIAN_POINT('',(0.0199703915346386,0.00109526526605264,-0.00105379748957912));
#1003=CARTESIAN_POINT('',(0.0198198788222571,0.0012388696536532,-0.000384383022146648));
#1004=CARTESIAN_POINT('',(0.0196389501346951,0.00133242174700943,-0.000113491549166761));
#1005=CARTESIAN_POINT('',(0.01895,0.,-0.0125));
#1006=CARTESIAN_POINT('',(0.01895,0.,-0.0075));
#1007=CARTESIAN_POINT('',(0.01895,0.00149999999999996,-0.0075));
#1008=CARTESIAN_POINT('',(0.01895,-0.00149999999999996,-0.0075));
#1009=CARTESIAN_POINT('',(0.01895,0.,-0.0075));
#1010=CARTESIAN_POINT('',(0.0178270392759372,0.00100019007689293,-0.00421958416430618));
#1011=CARTESIAN_POINT('',(0.0179172400327161,0.00108761763415493,-0.00462355974138183));
#1012=CARTESIAN_POINT('',(0.017827367565576,0.00100060313719352,-0.00502568499629668));
#1013=CARTESIAN_POINT('',(0.017606403872243,0.000722829948732105,-0.00544294914666673));
#1014=CARTESIAN_POINT('',(0.0173691424174205,7.96706820142696E-5,-0.00573599203954258));
#1015=CARTESIAN_POINT('',(0.0175805955736941,-0.000724876243476362,-0.00541046295027355));
#1016=CARTESIAN_POINT('',(0.0178825218867333,-0.00104912956470536,-0.00462660026890197));
#1017=CARTESIAN_POINT('',(0.0175827472212529,-0.000727320539719671,-0.00383859674475889));
#1018=CARTESIAN_POINT('',(0.0173684362859228,7.28980605675903E-5,-0.00351002500946804));
#1019=CARTESIAN_POINT('',(0.0176056908833395,0.000722189784737232,-0.00380264087241945));
#1020=CARTESIAN_POINT('',(0.0178270392759372,0.00100019007689293,-0.00421958416430618));
#1021=CARTESIAN_POINT('',(0.0179172400327161,0.00108761763415493,-0.00462355974138183));
#1022=CARTESIAN_POINT('',(0.017827367565576,0.00100060313719352,-0.00502568499629668));
#1023=CARTESIAN_POINT('',(0.0178872278287296,0.00105854395845103,-0.00462325135435503));
#1024=CARTESIAN_POINT('',(0.0200729607240628,0.00100019007689294,-0.00502691854440387));
#1025=CARTESIAN_POINT('',(0.0199827599672839,0.00108761763415493,-0.00462294296732822));
#1026=CARTESIAN_POINT('',(0.020072632434424,0.00100060313719352,-0.00422081771241338));
#1027=CARTESIAN_POINT('',(0.020293596127757,0.000722829948732095,-0.00380355356204333));
#1028=CARTESIAN_POINT('',(0.0205308575825795,7.96706820142527E-5,-0.00351051066916748));
#1029=CARTESIAN_POINT('',(0.0203194044263059,-0.000724876243476377,-0.00383603975843653));
#1030=CARTESIAN_POINT('',(0.0200174781132667,-0.00104912956470536,-0.00461990243980811));
#1031=CARTESIAN_POINT('',(0.0203172527787472,-0.000727320539719657,-0.00540790596395118));
#1032=CARTESIAN_POINT('',(0.0205315637140772,7.28980605675986E-5,-0.00573647769924201));
#1033=CARTESIAN_POINT('',(0.0202943091166605,0.000722189784737242,-0.0054438618362906));
#1034=CARTESIAN_POINT('',(0.0200729607240628,0.00100019007689294,-0.00502691854440387));
#1035=CARTESIAN_POINT('',(0.0199827599672839,0.00108761763415493,-0.00462294296732822));
#1036=CARTESIAN_POINT('',(0.020072632434424,0.00100060313719352,-0.00422081771241338));
#1037=CARTESIAN_POINT('',(0.0200127721712704,0.00105854395845103,-0.00462325135435502));
#1038=CARTESIAN_POINT('',(0.01895,0.,0.));
#1039=CARTESIAN_POINT('',(0.04,-0.00149999999999996,-0.0075));
#1040=CARTESIAN_POINT('',(0.04,-0.00149999999999996,-0.0075));
#1041=CARTESIAN_POINT('',(0.0248,-0.00149999999999996,-0.0075));
#1042=CARTESIAN_POINT('',(0.04,0.00149999999999996,-0.0075));
#1043=CARTESIAN_POINT('',(0.0248,0.00149999999999996,-0.0075));
#1044=CARTESIAN_POINT('',(0.0248,0.,-0.0075));
#1045=CARTESIAN_POINT('',(-0.000934954266931409,5.85439584510267E-5,-0.00462325135435503));
#1046=CARTESIAN_POINT('',(0.0152,5.85439584510267E-5,-0.00462325135435503));
#1047=CARTESIAN_POINT('',(0.0152,0.00105854395845103,-0.00462325135435503));
#1048=CARTESIAN_POINT('',(0.04,0.0075,-0.00149999999999996));
#1049=CARTESIAN_POINT('',(0.0152,0.0075,0.));
#1050=CARTESIAN_POINT('',(0.0152,0.0075,0.0075));
#1051=CARTESIAN_POINT('',(0.,0.0075,0.0075));
#1052=CARTESIAN_POINT('',(0.0248,0.0075,0.0075));
#1053=CARTESIAN_POINT('',(0.0248,0.0075,0.));
#1054=CARTESIAN_POINT('',(0.0248,0.0075,0.0015));
#1055=CARTESIAN_POINT('',(0.04,0.0075,0.00149999999999996));
#1056=CARTESIAN_POINT('',(0.0398484692283495,0.0075,0.00149999999999996));
#1057=CARTESIAN_POINT('',(0.0325,0.0075,0.));
#1058=CARTESIAN_POINT('',(0.0398484692283495,0.0075,-0.0015));
#1059=CARTESIAN_POINT('',(0.04,0.0075,-0.00149999999999996));
#1060=CARTESIAN_POINT('',(0.000151530771650465,0.0075,-0.0015));
#1061=CARTESIAN_POINT('',(0.0075,0.0075,0.));
#1062=CARTESIAN_POINT('',(0.,0.0075,0.));
#1063=CARTESIAN_POINT('',(0.0152,0.0075,0.));
#1064=CARTESIAN_POINT('',(0.0152,0.0075,0.));
#1065=CARTESIAN_POINT('',(0.04,-0.0075,-0.00149999999999996));
#1066=CARTESIAN_POINT('',(0.0152,-0.0075,0.));
#1067=CARTESIAN_POINT('',(0.0152,-0.0075,0.));
#1068=CARTESIAN_POINT('',(0.,-0.0075,0.));
#1069=CARTESIAN_POINT('',(0.04,-0.0075,0.00149999999999996));
#1070=CARTESIAN_POINT('',(0.0398484692283495,-0.0075,0.00149999999999996));
#1071=CARTESIAN_POINT('',(0.0248,-0.0075,0.00149999999999996));
#1072=CARTESIAN_POINT('',(0.0248,-0.0075,0.));
#1073=CARTESIAN_POINT('',(0.0248,-0.0075,0.0075));
#1074=CARTESIAN_POINT('',(0.,-0.0075,0.0075));
#1075=CARTESIAN_POINT('',(0.0152,-0.0075,0.0075));
#1076=CARTESIAN_POINT('',(0.0152,-0.0075,0.));
#1077=CARTESIAN_POINT('',(0.0075,-0.0075,0.));
#1078=CARTESIAN_POINT('',(0.000151530771650465,-0.0075,-0.0015));
#1079=CARTESIAN_POINT('',(0.04,-0.0075,-0.00149999999999996));
#1080=CARTESIAN_POINT('',(0.0398484692283495,-0.0075,-0.0015));
#1081=CARTESIAN_POINT('',(0.0325,-0.0075,0.));
#1082=CARTESIAN_POINT('',(0.04,-0.0051,-0.0075));
#1083=CARTESIAN_POINT('',(0.0075,-0.0051,0.));
#1084=CARTESIAN_POINT('',(0.01,-0.0051,0.));
#1085=CARTESIAN_POINT('',(0.04,-0.0051,-0.0063));
#1086=CARTESIAN_POINT('',(0.00343060201012483,-0.0051,-0.0063));
#1087=CARTESIAN_POINT('',(0.0152,-0.0051,-0.0063));
#1088=CARTESIAN_POINT('',(0.0075,-0.0051,0.));
#1089=CARTESIAN_POINT('',(0.0152,-0.0051,-0.0075));
#1090=CARTESIAN_POINT('',(0.04,0.0051,-0.0075));
#1091=CARTESIAN_POINT('',(0.0075,0.0051,0.));
#1092=CARTESIAN_POINT('',(0.01,0.0051,0.));
#1093=CARTESIAN_POINT('',(0.0075,0.0051,0.));
#1094=CARTESIAN_POINT('',(0.00343060201013039,0.00509999999999522,-0.00630000000000358));
#1095=CARTESIAN_POINT('',(0.04,0.0051,-0.0063));
#1096=CARTESIAN_POINT('',(0.0152,0.0051,-0.0063));
#1097=CARTESIAN_POINT('',(0.0152,0.0051,-0.0075));
#1098=CARTESIAN_POINT('',(0.04,0.0015,-0.0015));
#1099=CARTESIAN_POINT('',(0.000151530771650457,0.0075,-0.00149999999999996));
#1100=CARTESIAN_POINT('',(0.000372257608048179,0.00750000000000001,-0.00258133624342639));
#1101=CARTESIAN_POINT('',(0.00129253477721191,0.0069080809498494,-0.00455667775421883));
#1102=CARTESIAN_POINT('',(0.00268516144771422,0.005742009381216,-0.005818492964089));
#1103=CARTESIAN_POINT('',(0.00343060201013039,0.00509999999999522,-0.00630000000000358));
#1104=CARTESIAN_POINT('',(0.0398484692283495,0.0075,-0.00149999999999996));
#1105=CARTESIAN_POINT('',(0.0396277423919518,0.00750000000000001,-0.00258133624342639));
#1106=CARTESIAN_POINT('',(0.0387074652227881,0.0069080809498494,-0.00455667775421883));
#1107=CARTESIAN_POINT('',(0.0373148385522858,0.005742009381216,-0.005818492964089));
#1108=CARTESIAN_POINT('',(0.0365693979898696,0.00509999999999522,-0.00630000000000359));
#1109=CARTESIAN_POINT('',(0.0365693979898696,0.00509999999999523,-0.00630000000000358));
#1110=CARTESIAN_POINT('',(0.04,0.0051,-0.0063));
#1111=CARTESIAN_POINT('',(0.0248,0.0051,-0.0063));
#1112=CARTESIAN_POINT('',(0.0248,0.0015,-0.0015));
#1113=CARTESIAN_POINT('',(0.04,0.00149999999999996,-0.0075));
#1114=CARTESIAN_POINT('',(0.0152,0.00149999999999996,-0.0075));
#1115=CARTESIAN_POINT('',(0.0152,0.0015,-0.0015));
#1116=CARTESIAN_POINT('',(0.04,-0.0015,-0.0015));
#1117=CARTESIAN_POINT('',(0.000151530771650457,-0.0075,-0.00149999999999996));
#1118=CARTESIAN_POINT('',(0.000372257608047906,-0.00750000000000001,-0.00258133624342505));
#1119=CARTESIAN_POINT('',(0.00129253477720985,-0.00690808094985089,-0.00455667775421532));
#1120=CARTESIAN_POINT('',(0.00268516144770992,-0.00574200938121961,-0.00581849296408529));
#1121=CARTESIAN_POINT('',(0.00343060201012484,-0.0051,-0.0063));
#1122=CARTESIAN_POINT('',(0.0152,-0.0015,-0.0015));
#1123=CARTESIAN_POINT('',(0.0152,-0.00149999999999996,-0.0075));
#1124=CARTESIAN_POINT('',(0.04,-0.00149999999999996,-0.0075));
#1125=CARTESIAN_POINT('',(0.0248,-0.0015,-0.0015));
#1126=CARTESIAN_POINT('',(0.0248,-0.0051,-0.0063));
#1127=CARTESIAN_POINT('',(0.04,-0.0051,-0.0063));
#1128=CARTESIAN_POINT('',(0.0365693979898696,-0.00509999999999522,-0.00630000000000358));
#1129=CARTESIAN_POINT('',(0.0398484692283495,-0.0075,-0.00149999999999996));
#1130=CARTESIAN_POINT('',(0.0396277423919518,-0.00750000000000001,-0.00258133624342639));
#1131=CARTESIAN_POINT('',(0.0387074652227881,-0.0069080809498494,-0.00455667775421884));
#1132=CARTESIAN_POINT('',(0.0373148385522858,-0.005742009381216,-0.005818492964089));
#1133=CARTESIAN_POINT('',(0.0365693979898696,-0.00509999999999522,-0.00630000000000359));
#1134=CARTESIAN_POINT('',(0.04,0.0015,0.0015));
#1135=CARTESIAN_POINT('',(0.0248,0.0015,0.0015));
#1136=CARTESIAN_POINT('',(0.0248,0.0051,0.0063));
#1137=CARTESIAN_POINT('',(0.04,0.0051,0.0063));
#1138=CARTESIAN_POINT('',(0.0365693979898752,0.0051,0.0063));
#1139=CARTESIAN_POINT('',(0.0398484692283495,0.0075,0.00149999999999996));
#1140=CARTESIAN_POINT('',(0.0396277423919521,0.00750000000000001,0.00258133624342505));
#1141=CARTESIAN_POINT('',(0.0387074652227902,0.00690808094985091,0.00455667775421529));
#1142=CARTESIAN_POINT('',(0.0373148385522901,0.00574200938121963,0.00581849296408528));
#1143=CARTESIAN_POINT('',(0.0365693979898752,0.00510000000000001,0.00629999999999999));
#1144=CARTESIAN_POINT('',(0.04,-0.0015,0.0015));
#1145=CARTESIAN_POINT('',(0.04,-0.0051,0.0063));
#1146=CARTESIAN_POINT('',(0.0248,-0.0051,0.0063));
#1147=CARTESIAN_POINT('',(0.0365693979898752,-0.0051,0.0063));
#1148=CARTESIAN_POINT('',(0.0248,-0.0015,0.0015));
#1149=CARTESIAN_POINT('',(0.0398484692283495,-0.0075,0.00149999999999996));
#1150=CARTESIAN_POINT('',(0.0396277423919521,-0.00750000000000001,0.00258133624342505));
#1151=CARTESIAN_POINT('',(0.0387074652227902,-0.00690808094985091,0.00455667775421529));
#1152=CARTESIAN_POINT('',(0.0373148385522901,-0.00574200938121963,0.00581849296408528));
#1153=CARTESIAN_POINT('',(0.0365693979898752,-0.00510000000000001,0.00629999999999999));
#1154=CARTESIAN_POINT('',(-5.82045376808007E-19,0.0051,-0.0075));
#1155=CARTESIAN_POINT('',(0.0325,0.0051,0.));
#1156=CARTESIAN_POINT('',(0.03,0.0051,0.));
#1157=CARTESIAN_POINT('',(0.0325,0.0051,0.));
#1158=CARTESIAN_POINT('',(0.0248,0.0051,-0.0075));
#1159=CARTESIAN_POINT('',(8.73068065212013E-19,-0.0051,-0.0075));
#1160=CARTESIAN_POINT('',(0.0325,-0.0051,0.));
#1161=CARTESIAN_POINT('',(0.03,-0.0051,0.));
#1162=CARTESIAN_POINT('',(0.0325,-0.0051,0.));
#1163=CARTESIAN_POINT('',(0.0248,-0.0051,-0.0075));
#1164=CARTESIAN_POINT('',(0.04,-0.00149999999999996,0.0075));
#1165=CARTESIAN_POINT('',(0.0152,0.,0.0075));
#1166=CARTESIAN_POINT('',(0.0248,0.,0.0075));
#1167=CARTESIAN_POINT('',(0.04,-0.00149999999999996,-0.0075));
#1168=CARTESIAN_POINT('',(0.0152,0.,-0.0075));
#1169=CARTESIAN_POINT('',(0.0248,0.,-0.0075));
#1170=CARTESIAN_POINT('',(0.0248,5.85439584510267E-5,-0.00462325135435503));
#1171=CARTESIAN_POINT('',(0.0248,0.00105854395845103,-0.00462325135435503));
#1172=CARTESIAN_POINT('',(0.0325,0.0051,0.));
#1173=CARTESIAN_POINT('',(0.0152,0.,-0.0075));
#1174=CARTESIAN_POINT('',(0.0075,0.0051,0.));
#1175=CARTESIAN_POINT('',(0.0325,-0.0075,0.));
#1176=CARTESIAN_POINT('',(0.0325,-0.0075,0.));
#1177=CARTESIAN_POINT('',(0.0075,-0.0075,0.));
#1178=CARTESIAN_POINT('',(0.0075,-0.0075,0.));
#1179=CARTESIAN_POINT('',(-0.000934954266931409,5.85439584510267E-5,-0.00462325135435503));
#1180=CARTESIAN_POINT('',(0.0184113082543433,0.0025710678118655,-0.00257106781186548));
#1181=CARTESIAN_POINT('',(0.,0.,0.));
#1182=CARTESIAN_POINT('',(0.0152,0.,0.));
#1183=CARTESIAN_POINT('',(0.0152,0.,0.));
#1184=CARTESIAN_POINT('',(0.0152,0.,0.));
#1185=CARTESIAN_POINT('',(0.0152,0.,0.));
#1186=MECHANICAL_DESIGN_GEOMETRIC_PRESENTATION_REPRESENTATION('',(#628),
#1187);
#1187=(
GEOMETRIC_REPRESENTATION_CONTEXT(3)
GLOBAL_UNCERTAINTY_ASSIGNED_CONTEXT((#1188))
GLOBAL_UNIT_ASSIGNED_CONTEXT((#1191,#1190,#1189))
REPRESENTATION_CONTEXT('Metacarpal Bone_V02_pinky',
'TOP_LEVEL_ASSEMBLY_PART')
);
#1188=UNCERTAINTY_MEASURE_WITH_UNIT(LENGTH_MEASURE(2.E-5),#1191,
'DISTANCE_ACCURACY_VALUE','Maximum Tolerance applied to model');
#1189=(
NAMED_UNIT(*)
SI_UNIT($,.STERADIAN.)
SOLID_ANGLE_UNIT()
);
#1190=(
NAMED_UNIT(*)
PLANE_ANGLE_UNIT()
SI_UNIT($,.RADIAN.)
);
#1191=(
LENGTH_UNIT()
NAMED_UNIT(*)
SI_UNIT($,.METRE.)
);
#1192=PRODUCT_DEFINITION_SHAPE('','',#1193);
#1193=PRODUCT_DEFINITION('','',#1195,#1194);
#1194=PRODUCT_DEFINITION_CONTEXT('',#1201,'design');
#1195=PRODUCT_DEFINITION_FORMATION_WITH_SPECIFIED_SOURCE('','',#1197,
 .NOT_KNOWN.);
#1196=PRODUCT_RELATED_PRODUCT_CATEGORY('','',(#1197));
#1197=PRODUCT('Metacarpal Bone_V02_pinky','Metacarpal Bone_V02_pinky',
'Metacarpal Bone_V02_pinky',(#1199));
#1198=PRODUCT_CATEGORY('','');
#1199=PRODUCT_CONTEXT('',#1201,'mechanical');
#1200=APPLICATION_PROTOCOL_DEFINITION('international standard',
'ap242_managed_model_based_3d_engineering',2020,#1201);
#1201=APPLICATION_CONTEXT('managed model based 3d engineering');
ENDSEC;
END-ISO-10303-21;
